%TF.GenerationSoftware,KiCad,Pcbnew,10.0.6*%
%TF.CreationDate,2026-09-29T11:48:05-05:00*%
%TF.ProjectId,diffrx,64696666-7278-42e6-9b69-6361645f7063,rev?*%
%TF.SameCoordinates,Original*%
%TF.FileFunction,Paste,Top*%
%TF.FilePolarity,Positive*%
%FSLAX46Y46*%
G04 Gerber Fmt 4.6, Leading zero omitted, Abs format (unit mm)*
G04 Created by KiCad (PCBNEW 10.0.6) date 2026-09-29 11:48:05*
%MOMM*%
%LPD*%
G01*
G04 APERTURE LIST*
G04 Aperture macros list*
%AMRoundRect*
0 Rectangle with rounded corners*
0 $1 Rounding radius*
0 $2 $3 $4 $5 $6 $7 $8 $9 X,Y pos of 4 corners*
0 Add a 4 corners polygon primitive as box body*
4,1,4,$2,$3,$4,$5,$6,$7,$8,$9,$2,$3,0*
0 Add four circle primitives for the rounded corners*
1,1,$1+$1,$2,$3*
1,1,$1+$1,$4,$5*
1,1,$1+$1,$6,$7*
1,1,$1+$1,$8,$9*
0 Add four rect primitives between the rounded corners*
20,1,$1+$1,$2,$3,$4,$5,0*
20,1,$1+$1,$4,$5,$6,$7,0*
20,1,$1+$1,$6,$7,$8,$9,0*
20,1,$1+$1,$8,$9,$2,$3,0*%
G04 Aperture macros list end*
%ADD10O,1.950000X0.568000*%
%ADD11R,2.000000X2.000000*%
%ADD12R,1.000000X1.400000*%
%ADD13O,1.971000X0.602000*%
%ADD14R,1.300000X2.800000*%
%ADD15R,6.000000X6.500000*%
%ADD16RoundRect,0.200000X-0.200000X-0.275000X0.200000X-0.275000X0.200000X0.275000X-0.200000X0.275000X0*%
%ADD17RoundRect,0.250000X-0.337500X-0.475000X0.337500X-0.475000X0.337500X0.475000X-0.337500X0.475000X0*%
%ADD18RoundRect,0.200000X0.200000X0.275000X-0.200000X0.275000X-0.200000X-0.275000X0.200000X-0.275000X0*%
%ADD19R,0.950000X1.150000*%
%ADD20RoundRect,0.250000X-0.325000X-0.650000X0.325000X-0.650000X0.325000X0.650000X-0.325000X0.650000X0*%
%ADD21O,1.800000X0.588000*%
%ADD22R,1.037000X0.532000*%
%ADD23R,2.700000X3.300000*%
%ADD24R,1.000000X0.650000*%
%ADD25RoundRect,0.250000X-0.312500X-0.625000X0.312500X-0.625000X0.312500X0.625000X-0.312500X0.625000X0*%
%ADD26R,4.200000X1.400000*%
%ADD27RoundRect,0.250000X-0.262500X-0.450000X0.262500X-0.450000X0.262500X0.450000X-0.262500X0.450000X0*%
%ADD28R,1.485000X2.781000*%
%ADD29R,2.465000X1.050000*%
%ADD30R,2.465000X3.540000*%
G04 APERTURE END LIST*
D10*
%TO.C,U4*%
X70710000Y72100000D03*
X70710000Y73370000D03*
X70710000Y74630000D03*
X70710000Y75900000D03*
X65290000Y75900000D03*
X65290000Y74630000D03*
X65290000Y73370000D03*
X65290000Y72100000D03*
%TD*%
D11*
%TO.C,D8*%
X26800000Y23000000D03*
X31200000Y23000000D03*
%TD*%
D12*
%TO.C,LF11*%
X33950000Y21500000D03*
X36050000Y21500000D03*
%TD*%
D13*
%TO.C,U1*%
X33260000Y54450000D03*
X33260000Y53170000D03*
X33260000Y51900000D03*
X33260000Y50630000D03*
X33260000Y49370000D03*
X33260000Y48100000D03*
X33260000Y46830000D03*
X33260000Y45550000D03*
X38740000Y45550000D03*
X38740000Y46830000D03*
X38740000Y48100000D03*
X38740000Y49370000D03*
X38740000Y50630000D03*
X38740000Y51900000D03*
X38740000Y53170000D03*
X38740000Y54450000D03*
%TD*%
D14*
%TO.C,Q3*%
X86270000Y47290000D03*
D15*
X84000000Y40710000D03*
D14*
X81730000Y47290000D03*
%TD*%
D16*
%TO.C,R40*%
X110175000Y72000000D03*
X111825000Y72000000D03*
%TD*%
D12*
%TO.C,LED6*%
X59050000Y62000000D03*
X56950000Y62000000D03*
%TD*%
%TO.C,LF8*%
X93950000Y21500000D03*
X96050000Y21500000D03*
%TD*%
D17*
%TO.C,C3*%
X116962500Y32500000D03*
X119037500Y32500000D03*
%TD*%
D18*
%TO.C,RF8*%
X95825000Y24500000D03*
X94175000Y24500000D03*
%TD*%
D19*
%TO.C,D7*%
X44310000Y28000000D03*
X47690000Y28000000D03*
%TD*%
D16*
%TO.C,RF2*%
X34175000Y75500000D03*
X35825000Y75500000D03*
%TD*%
%TO.C,RF5*%
X94175000Y75500000D03*
X95825000Y75500000D03*
%TD*%
%TO.C,R30*%
X75175000Y64000000D03*
X76825000Y64000000D03*
%TD*%
%TO.C,R39*%
X98175000Y72000000D03*
X99825000Y72000000D03*
%TD*%
%TO.C,RB7*%
X30175000Y62000000D03*
X31825000Y62000000D03*
%TD*%
%TO.C,R29*%
X75175000Y70000000D03*
X76825000Y70000000D03*
%TD*%
D20*
%TO.C,C2*%
X98525000Y28000000D03*
X101475000Y28000000D03*
%TD*%
D16*
%TO.C,RB8*%
X35175000Y62000000D03*
X36825000Y62000000D03*
%TD*%
D18*
%TO.C,RL3*%
X37825000Y69000000D03*
X36175000Y69000000D03*
%TD*%
D12*
%TO.C,LF10*%
X13950000Y21500000D03*
X16050000Y21500000D03*
%TD*%
D10*
%TO.C,U5*%
X9710000Y74100000D03*
X9710000Y75370000D03*
X9710000Y76630000D03*
X9710000Y77900000D03*
X4290000Y77900000D03*
X4290000Y76630000D03*
X4290000Y75370000D03*
X4290000Y74100000D03*
%TD*%
D12*
%TO.C,LF6*%
X116050000Y78500000D03*
X113950000Y78500000D03*
%TD*%
%TO.C,LF5*%
X96050000Y78500000D03*
X93950000Y78500000D03*
%TD*%
D16*
%TO.C,RB4*%
X57175000Y45000000D03*
X58825000Y45000000D03*
%TD*%
D12*
%TO.C,LF3*%
X56050000Y78500000D03*
X53950000Y78500000D03*
%TD*%
D21*
%TO.C,U6*%
X70600000Y60100000D03*
X70600000Y61370000D03*
X70600000Y62630000D03*
X70600000Y63900000D03*
X65400000Y63900000D03*
X65400000Y62630000D03*
X65400000Y61370000D03*
X65400000Y60100000D03*
%TD*%
D22*
%TO.C,D5*%
X21100000Y29050000D03*
X21100000Y30950000D03*
X18900000Y30000000D03*
%TD*%
D16*
%TO.C,RB2*%
X38175000Y41500000D03*
X39825000Y41500000D03*
%TD*%
D12*
%TO.C,LF7*%
X73950000Y21500000D03*
X76050000Y21500000D03*
%TD*%
D17*
%TO.C,C7*%
X58962500Y74000000D03*
X61037500Y74000000D03*
%TD*%
D23*
%TO.C,D2*%
X66310000Y30500000D03*
X73690000Y30500000D03*
%TD*%
D16*
%TO.C,R35*%
X57175000Y66000000D03*
X58825000Y66000000D03*
%TD*%
D18*
%TO.C,RF10*%
X15825000Y24500000D03*
X14175000Y24500000D03*
%TD*%
D12*
%TO.C,LED1*%
X11050000Y69000000D03*
X8950000Y69000000D03*
%TD*%
D16*
%TO.C,RF4*%
X74175000Y75500000D03*
X75825000Y75500000D03*
%TD*%
%TO.C,R31*%
X81175000Y64000000D03*
X82825000Y64000000D03*
%TD*%
D18*
%TO.C,RS4*%
X28825000Y51900000D03*
X27175000Y51900000D03*
%TD*%
D16*
%TO.C,R37*%
X81175000Y58000000D03*
X82825000Y58000000D03*
%TD*%
D17*
%TO.C,C6*%
X40462500Y54450000D03*
X42537500Y54450000D03*
%TD*%
D18*
%TO.C,RL2*%
X26825000Y69000000D03*
X25175000Y69000000D03*
%TD*%
D16*
%TO.C,R1*%
X98175000Y46500000D03*
X99825000Y46500000D03*
%TD*%
%TO.C,RB1*%
X33175000Y41500000D03*
X34825000Y41500000D03*
%TD*%
%TO.C,RB5*%
X34175000Y30000000D03*
X35825000Y30000000D03*
%TD*%
%TO.C,R34*%
X53175000Y66000000D03*
X54825000Y66000000D03*
%TD*%
D17*
%TO.C,C4*%
X116962500Y28000000D03*
X119037500Y28000000D03*
%TD*%
D12*
%TO.C,LED3*%
X33050000Y69000000D03*
X30950000Y69000000D03*
%TD*%
D16*
%TO.C,R32*%
X87175000Y64000000D03*
X88825000Y64000000D03*
%TD*%
D12*
%TO.C,LF4*%
X76050000Y78500000D03*
X73950000Y78500000D03*
%TD*%
D24*
%TO.C,Q5*%
X24000000Y22050000D03*
X24000000Y23950000D03*
X22000000Y23000000D03*
%TD*%
D18*
%TO.C,RF12*%
X55825000Y24500000D03*
X54175000Y24500000D03*
%TD*%
D14*
%TO.C,Q1*%
X70270000Y47290000D03*
D15*
X68000000Y40710000D03*
D14*
X65730000Y47290000D03*
%TD*%
D16*
%TO.C,R2*%
X104175000Y46500000D03*
X105825000Y46500000D03*
%TD*%
D22*
%TO.C,D4*%
X45100000Y41050000D03*
X45100000Y42950000D03*
X42900000Y42000000D03*
%TD*%
D14*
%TO.C,Q4*%
X94270000Y47290000D03*
D15*
X92000000Y40710000D03*
D14*
X89730000Y47290000D03*
%TD*%
D16*
%TO.C,RS2*%
X51175000Y48100000D03*
X52825000Y48100000D03*
%TD*%
D12*
%TO.C,LF1*%
X16050000Y78500000D03*
X13950000Y78500000D03*
%TD*%
%TO.C,LF9*%
X113950000Y21500000D03*
X116050000Y21500000D03*
%TD*%
D25*
%TO.C,RT3*%
X26537500Y30000000D03*
X29462500Y30000000D03*
%TD*%
D12*
%TO.C,LED7*%
X102050000Y54500000D03*
X99950000Y54500000D03*
%TD*%
D18*
%TO.C,RL5*%
X59825000Y69000000D03*
X58175000Y69000000D03*
%TD*%
%TO.C,RF9*%
X115825000Y24500000D03*
X114175000Y24500000D03*
%TD*%
D16*
%TO.C,RB3*%
X53175000Y45000000D03*
X54825000Y45000000D03*
%TD*%
D26*
%TO.C,C1*%
X82730000Y30500000D03*
X89270000Y30500000D03*
%TD*%
D16*
%TO.C,R27*%
X92175000Y30500000D03*
X93825000Y30500000D03*
%TD*%
D12*
%TO.C,LED5*%
X55050000Y69000000D03*
X52950000Y69000000D03*
%TD*%
D19*
%TO.C,D1*%
X108810000Y46500000D03*
X112190000Y46500000D03*
%TD*%
D17*
%TO.C,C5*%
X122962500Y30000000D03*
X125037500Y30000000D03*
%TD*%
D12*
%TO.C,LF12*%
X53950000Y21500000D03*
X56050000Y21500000D03*
%TD*%
D18*
%TO.C,RL1*%
X15825000Y69000000D03*
X14175000Y69000000D03*
%TD*%
D12*
%TO.C,LED2*%
X22050000Y69000000D03*
X19950000Y69000000D03*
%TD*%
D16*
%TO.C,R3*%
X99175000Y31500000D03*
X100825000Y31500000D03*
%TD*%
D25*
%TO.C,RT1*%
X25537500Y41500000D03*
X28462500Y41500000D03*
%TD*%
D22*
%TO.C,D3*%
X21100000Y40550000D03*
X21100000Y42450000D03*
X18900000Y41500000D03*
%TD*%
D27*
%TO.C,RT5*%
X81087500Y70000000D03*
X82912500Y70000000D03*
%TD*%
D25*
%TO.C,RT2*%
X50537500Y42000000D03*
X53462500Y42000000D03*
%TD*%
D16*
%TO.C,R36*%
X51175000Y62000000D03*
X52825000Y62000000D03*
%TD*%
%TO.C,RF1*%
X14175000Y75500000D03*
X15825000Y75500000D03*
%TD*%
D14*
%TO.C,Q2*%
X78270000Y47290000D03*
D15*
X76000000Y40710000D03*
D14*
X73730000Y47290000D03*
%TD*%
D16*
%TO.C,RS3*%
X51175000Y50630000D03*
X52825000Y50630000D03*
%TD*%
D25*
%TO.C,RT4*%
X22537500Y62000000D03*
X25462500Y62000000D03*
%TD*%
D16*
%TO.C,RB6*%
X39175000Y30000000D03*
X40825000Y30000000D03*
%TD*%
D18*
%TO.C,RF11*%
X35825000Y24500000D03*
X34175000Y24500000D03*
%TD*%
D16*
%TO.C,RF3*%
X54175000Y75500000D03*
X55825000Y75500000D03*
%TD*%
D17*
%TO.C,C9*%
X60962500Y58000000D03*
X63037500Y58000000D03*
%TD*%
D28*
%TO.C,F13*%
X43400000Y23000000D03*
X46600000Y23000000D03*
%TD*%
D22*
%TO.C,D6*%
X17100000Y61050000D03*
X17100000Y62950000D03*
X14900000Y62000000D03*
%TD*%
D17*
%TO.C,C8*%
X2962500Y71000000D03*
X5037500Y71000000D03*
%TD*%
D12*
%TO.C,LED4*%
X44050000Y69000000D03*
X41950000Y69000000D03*
%TD*%
%TO.C,LF2*%
X36050000Y78500000D03*
X33950000Y78500000D03*
%TD*%
D18*
%TO.C,RF7*%
X75825000Y24500000D03*
X74175000Y24500000D03*
%TD*%
D16*
%TO.C,RF6*%
X114175000Y75500000D03*
X115825000Y75500000D03*
%TD*%
%TO.C,R28*%
X100175000Y50500000D03*
X101825000Y50500000D03*
%TD*%
D18*
%TO.C,RS1*%
X28825000Y49370000D03*
X27175000Y49370000D03*
%TD*%
D29*
%TO.C,U3*%
X107140000Y32300000D03*
X107140000Y30000000D03*
X107140000Y27700000D03*
D30*
X112860000Y30000000D03*
%TD*%
D18*
%TO.C,RL4*%
X48825000Y69000000D03*
X47175000Y69000000D03*
%TD*%
D16*
%TO.C,R33*%
X75175000Y58000000D03*
X76825000Y58000000D03*
%TD*%
M02*
