%TF.GenerationSoftware,KiCad,Pcbnew,10.0.6*%
%TF.CreationDate,2026-09-18T16:51:55-05:00*%
%TF.ProjectId,difftx,64696666-7478-42e6-9b69-6361645f7063,rev?*%
%TF.SameCoordinates,Original*%
%TF.FileFunction,Legend,Top*%
%TF.FilePolarity,Positive*%
%FSLAX46Y46*%
G04 Gerber Fmt 4.6, Leading zero omitted, Abs format (unit mm)*
G04 Created by KiCad (PCBNEW 10.0.6) date 2026-09-18 16:51:55*
%MOMM*%
%LPD*%
G01*
G04 APERTURE LIST*
%ADD10C,0.150000*%
%ADD11C,0.200000*%
%ADD12C,0.120000*%
G04 APERTURE END LIST*
D10*
X9695234Y-54562295D02*
X9695234Y-55133723D01*
X9695234Y-55133723D02*
X9657139Y-55248009D01*
X9657139Y-55248009D02*
X9580948Y-55324200D01*
X9580948Y-55324200D02*
X9466663Y-55362295D01*
X9466663Y-55362295D02*
X9390472Y-55362295D01*
X10495234Y-55362295D02*
X10038091Y-55362295D01*
X10266663Y-55362295D02*
X10266663Y-54562295D01*
X10266663Y-54562295D02*
X10190472Y-54676580D01*
X10190472Y-54676580D02*
X10114282Y-54752771D01*
X10114282Y-54752771D02*
X10038091Y-54790866D01*
X11447616Y-54943247D02*
X12057140Y-54943247D01*
X12057140Y-55171819D02*
X11447616Y-55171819D01*
X13504759Y-55286104D02*
X13466663Y-55324200D01*
X13466663Y-55324200D02*
X13352378Y-55362295D01*
X13352378Y-55362295D02*
X13276187Y-55362295D01*
X13276187Y-55362295D02*
X13161901Y-55324200D01*
X13161901Y-55324200D02*
X13085711Y-55248009D01*
X13085711Y-55248009D02*
X13047616Y-55171819D01*
X13047616Y-55171819D02*
X13009520Y-55019438D01*
X13009520Y-55019438D02*
X13009520Y-54905152D01*
X13009520Y-54905152D02*
X13047616Y-54752771D01*
X13047616Y-54752771D02*
X13085711Y-54676580D01*
X13085711Y-54676580D02*
X13161901Y-54600390D01*
X13161901Y-54600390D02*
X13276187Y-54562295D01*
X13276187Y-54562295D02*
X13352378Y-54562295D01*
X13352378Y-54562295D02*
X13466663Y-54600390D01*
X13466663Y-54600390D02*
X13504759Y-54638485D01*
X13847616Y-55362295D02*
X13847616Y-54562295D01*
X13847616Y-54562295D02*
X14304759Y-55362295D01*
X14304759Y-55362295D02*
X14304759Y-54562295D01*
X14838092Y-54562295D02*
X14914282Y-54562295D01*
X14914282Y-54562295D02*
X14990473Y-54600390D01*
X14990473Y-54600390D02*
X15028568Y-54638485D01*
X15028568Y-54638485D02*
X15066663Y-54714676D01*
X15066663Y-54714676D02*
X15104758Y-54867057D01*
X15104758Y-54867057D02*
X15104758Y-55057533D01*
X15104758Y-55057533D02*
X15066663Y-55209914D01*
X15066663Y-55209914D02*
X15028568Y-55286104D01*
X15028568Y-55286104D02*
X14990473Y-55324200D01*
X14990473Y-55324200D02*
X14914282Y-55362295D01*
X14914282Y-55362295D02*
X14838092Y-55362295D01*
X14838092Y-55362295D02*
X14761901Y-55324200D01*
X14761901Y-55324200D02*
X14723806Y-55286104D01*
X14723806Y-55286104D02*
X14685711Y-55209914D01*
X14685711Y-55209914D02*
X14647615Y-55057533D01*
X14647615Y-55057533D02*
X14647615Y-54867057D01*
X14647615Y-54867057D02*
X14685711Y-54714676D01*
X14685711Y-54714676D02*
X14723806Y-54638485D01*
X14723806Y-54638485D02*
X14761901Y-54600390D01*
X14761901Y-54600390D02*
X14838092Y-54562295D01*
X15599997Y-54562295D02*
X15676187Y-54562295D01*
X15676187Y-54562295D02*
X15752378Y-54600390D01*
X15752378Y-54600390D02*
X15790473Y-54638485D01*
X15790473Y-54638485D02*
X15828568Y-54714676D01*
X15828568Y-54714676D02*
X15866663Y-54867057D01*
X15866663Y-54867057D02*
X15866663Y-55057533D01*
X15866663Y-55057533D02*
X15828568Y-55209914D01*
X15828568Y-55209914D02*
X15790473Y-55286104D01*
X15790473Y-55286104D02*
X15752378Y-55324200D01*
X15752378Y-55324200D02*
X15676187Y-55362295D01*
X15676187Y-55362295D02*
X15599997Y-55362295D01*
X15599997Y-55362295D02*
X15523806Y-55324200D01*
X15523806Y-55324200D02*
X15485711Y-55286104D01*
X15485711Y-55286104D02*
X15447616Y-55209914D01*
X15447616Y-55209914D02*
X15409520Y-55057533D01*
X15409520Y-55057533D02*
X15409520Y-54867057D01*
X15409520Y-54867057D02*
X15447616Y-54714676D01*
X15447616Y-54714676D02*
X15485711Y-54638485D01*
X15485711Y-54638485D02*
X15523806Y-54600390D01*
X15523806Y-54600390D02*
X15599997Y-54562295D01*
X16133330Y-54562295D02*
X16628568Y-54562295D01*
X16628568Y-54562295D02*
X16361902Y-54867057D01*
X16361902Y-54867057D02*
X16476187Y-54867057D01*
X16476187Y-54867057D02*
X16552378Y-54905152D01*
X16552378Y-54905152D02*
X16590473Y-54943247D01*
X16590473Y-54943247D02*
X16628568Y-55019438D01*
X16628568Y-55019438D02*
X16628568Y-55209914D01*
X16628568Y-55209914D02*
X16590473Y-55286104D01*
X16590473Y-55286104D02*
X16552378Y-55324200D01*
X16552378Y-55324200D02*
X16476187Y-55362295D01*
X16476187Y-55362295D02*
X16247616Y-55362295D01*
X16247616Y-55362295D02*
X16171425Y-55324200D01*
X16171425Y-55324200D02*
X16133330Y-55286104D01*
X17352378Y-54562295D02*
X16971426Y-54562295D01*
X16971426Y-54562295D02*
X16933330Y-54943247D01*
X16933330Y-54943247D02*
X16971426Y-54905152D01*
X16971426Y-54905152D02*
X17047616Y-54867057D01*
X17047616Y-54867057D02*
X17238092Y-54867057D01*
X17238092Y-54867057D02*
X17314283Y-54905152D01*
X17314283Y-54905152D02*
X17352378Y-54943247D01*
X17352378Y-54943247D02*
X17390473Y-55019438D01*
X17390473Y-55019438D02*
X17390473Y-55209914D01*
X17390473Y-55209914D02*
X17352378Y-55286104D01*
X17352378Y-55286104D02*
X17314283Y-55324200D01*
X17314283Y-55324200D02*
X17238092Y-55362295D01*
X17238092Y-55362295D02*
X17047616Y-55362295D01*
X17047616Y-55362295D02*
X16971426Y-55324200D01*
X16971426Y-55324200D02*
X16933330Y-55286104D01*
X18799998Y-55362295D02*
X18533331Y-54981342D01*
X18342855Y-55362295D02*
X18342855Y-54562295D01*
X18342855Y-54562295D02*
X18647617Y-54562295D01*
X18647617Y-54562295D02*
X18723807Y-54600390D01*
X18723807Y-54600390D02*
X18761902Y-54638485D01*
X18761902Y-54638485D02*
X18799998Y-54714676D01*
X18799998Y-54714676D02*
X18799998Y-54828961D01*
X18799998Y-54828961D02*
X18761902Y-54905152D01*
X18761902Y-54905152D02*
X18723807Y-54943247D01*
X18723807Y-54943247D02*
X18647617Y-54981342D01*
X18647617Y-54981342D02*
X18342855Y-54981342D01*
X19371426Y-54562295D02*
X19371426Y-55133723D01*
X19371426Y-55133723D02*
X19333331Y-55248009D01*
X19333331Y-55248009D02*
X19257140Y-55324200D01*
X19257140Y-55324200D02*
X19142855Y-55362295D01*
X19142855Y-55362295D02*
X19066664Y-55362295D01*
X20095236Y-54828961D02*
X20095236Y-55362295D01*
X19904760Y-54524200D02*
X19714283Y-55095628D01*
X19714283Y-55095628D02*
X20209522Y-55095628D01*
X20895236Y-54562295D02*
X20514284Y-54562295D01*
X20514284Y-54562295D02*
X20476188Y-54943247D01*
X20476188Y-54943247D02*
X20514284Y-54905152D01*
X20514284Y-54905152D02*
X20590474Y-54867057D01*
X20590474Y-54867057D02*
X20780950Y-54867057D01*
X20780950Y-54867057D02*
X20857141Y-54905152D01*
X20857141Y-54905152D02*
X20895236Y-54943247D01*
X20895236Y-54943247D02*
X20933331Y-55019438D01*
X20933331Y-55019438D02*
X20933331Y-55209914D01*
X20933331Y-55209914D02*
X20895236Y-55286104D01*
X20895236Y-55286104D02*
X20857141Y-55324200D01*
X20857141Y-55324200D02*
X20780950Y-55362295D01*
X20780950Y-55362295D02*
X20590474Y-55362295D01*
X20590474Y-55362295D02*
X20514284Y-55324200D01*
X20514284Y-55324200D02*
X20476188Y-55286104D01*
X22228570Y-55362295D02*
X22228570Y-54943247D01*
X22228570Y-54943247D02*
X22190475Y-54867057D01*
X22190475Y-54867057D02*
X22114284Y-54828961D01*
X22114284Y-54828961D02*
X21961903Y-54828961D01*
X21961903Y-54828961D02*
X21885713Y-54867057D01*
X22228570Y-55324200D02*
X22152379Y-55362295D01*
X22152379Y-55362295D02*
X21961903Y-55362295D01*
X21961903Y-55362295D02*
X21885713Y-55324200D01*
X21885713Y-55324200D02*
X21847617Y-55248009D01*
X21847617Y-55248009D02*
X21847617Y-55171819D01*
X21847617Y-55171819D02*
X21885713Y-55095628D01*
X21885713Y-55095628D02*
X21961903Y-55057533D01*
X21961903Y-55057533D02*
X22152379Y-55057533D01*
X22152379Y-55057533D02*
X22228570Y-55019438D01*
X22952380Y-55362295D02*
X22952380Y-54562295D01*
X22952380Y-55324200D02*
X22876189Y-55362295D01*
X22876189Y-55362295D02*
X22723808Y-55362295D01*
X22723808Y-55362295D02*
X22647618Y-55324200D01*
X22647618Y-55324200D02*
X22609523Y-55286104D01*
X22609523Y-55286104D02*
X22571427Y-55209914D01*
X22571427Y-55209914D02*
X22571427Y-54981342D01*
X22571427Y-54981342D02*
X22609523Y-54905152D01*
X22609523Y-54905152D02*
X22647618Y-54867057D01*
X22647618Y-54867057D02*
X22723808Y-54828961D01*
X22723808Y-54828961D02*
X22876189Y-54828961D01*
X22876189Y-54828961D02*
X22952380Y-54867057D01*
X23676190Y-55362295D02*
X23676190Y-54943247D01*
X23676190Y-54943247D02*
X23638095Y-54867057D01*
X23638095Y-54867057D02*
X23561904Y-54828961D01*
X23561904Y-54828961D02*
X23409523Y-54828961D01*
X23409523Y-54828961D02*
X23333333Y-54867057D01*
X23676190Y-55324200D02*
X23599999Y-55362295D01*
X23599999Y-55362295D02*
X23409523Y-55362295D01*
X23409523Y-55362295D02*
X23333333Y-55324200D01*
X23333333Y-55324200D02*
X23295237Y-55248009D01*
X23295237Y-55248009D02*
X23295237Y-55171819D01*
X23295237Y-55171819D02*
X23333333Y-55095628D01*
X23333333Y-55095628D02*
X23409523Y-55057533D01*
X23409523Y-55057533D02*
X23599999Y-55057533D01*
X23599999Y-55057533D02*
X23676190Y-55019438D01*
X24057143Y-54828961D02*
X24057143Y-55628961D01*
X24057143Y-54867057D02*
X24133333Y-54828961D01*
X24133333Y-54828961D02*
X24285714Y-54828961D01*
X24285714Y-54828961D02*
X24361905Y-54867057D01*
X24361905Y-54867057D02*
X24400000Y-54905152D01*
X24400000Y-54905152D02*
X24438095Y-54981342D01*
X24438095Y-54981342D02*
X24438095Y-55209914D01*
X24438095Y-55209914D02*
X24400000Y-55286104D01*
X24400000Y-55286104D02*
X24361905Y-55324200D01*
X24361905Y-55324200D02*
X24285714Y-55362295D01*
X24285714Y-55362295D02*
X24133333Y-55362295D01*
X24133333Y-55362295D02*
X24057143Y-55324200D01*
X24666667Y-54828961D02*
X24971429Y-54828961D01*
X24780953Y-54562295D02*
X24780953Y-55248009D01*
X24780953Y-55248009D02*
X24819048Y-55324200D01*
X24819048Y-55324200D02*
X24895238Y-55362295D01*
X24895238Y-55362295D02*
X24971429Y-55362295D01*
X25542858Y-55324200D02*
X25466667Y-55362295D01*
X25466667Y-55362295D02*
X25314286Y-55362295D01*
X25314286Y-55362295D02*
X25238096Y-55324200D01*
X25238096Y-55324200D02*
X25200000Y-55248009D01*
X25200000Y-55248009D02*
X25200000Y-54943247D01*
X25200000Y-54943247D02*
X25238096Y-54867057D01*
X25238096Y-54867057D02*
X25314286Y-54828961D01*
X25314286Y-54828961D02*
X25466667Y-54828961D01*
X25466667Y-54828961D02*
X25542858Y-54867057D01*
X25542858Y-54867057D02*
X25580953Y-54943247D01*
X25580953Y-54943247D02*
X25580953Y-55019438D01*
X25580953Y-55019438D02*
X25200000Y-55095628D01*
X25923810Y-55362295D02*
X25923810Y-54828961D01*
X25923810Y-54981342D02*
X25961905Y-54905152D01*
X25961905Y-54905152D02*
X26000000Y-54867057D01*
X26000000Y-54867057D02*
X26076191Y-54828961D01*
X26076191Y-54828961D02*
X26152381Y-54828961D01*
X26457143Y-55324200D02*
X26457143Y-55362295D01*
X26457143Y-55362295D02*
X26419048Y-55438485D01*
X26419048Y-55438485D02*
X26380952Y-55476580D01*
X27409524Y-54828961D02*
X27409524Y-55628961D01*
X27409524Y-54867057D02*
X27485714Y-54828961D01*
X27485714Y-54828961D02*
X27638095Y-54828961D01*
X27638095Y-54828961D02*
X27714286Y-54867057D01*
X27714286Y-54867057D02*
X27752381Y-54905152D01*
X27752381Y-54905152D02*
X27790476Y-54981342D01*
X27790476Y-54981342D02*
X27790476Y-55209914D01*
X27790476Y-55209914D02*
X27752381Y-55286104D01*
X27752381Y-55286104D02*
X27714286Y-55324200D01*
X27714286Y-55324200D02*
X27638095Y-55362295D01*
X27638095Y-55362295D02*
X27485714Y-55362295D01*
X27485714Y-55362295D02*
X27409524Y-55324200D01*
X28133334Y-55362295D02*
X28133334Y-54828961D01*
X28133334Y-54562295D02*
X28095238Y-54600390D01*
X28095238Y-54600390D02*
X28133334Y-54638485D01*
X28133334Y-54638485D02*
X28171429Y-54600390D01*
X28171429Y-54600390D02*
X28133334Y-54562295D01*
X28133334Y-54562295D02*
X28133334Y-54638485D01*
X28514286Y-54828961D02*
X28514286Y-55362295D01*
X28514286Y-54905152D02*
X28552381Y-54867057D01*
X28552381Y-54867057D02*
X28628571Y-54828961D01*
X28628571Y-54828961D02*
X28742857Y-54828961D01*
X28742857Y-54828961D02*
X28819048Y-54867057D01*
X28819048Y-54867057D02*
X28857143Y-54943247D01*
X28857143Y-54943247D02*
X28857143Y-55362295D01*
X30266667Y-55362295D02*
X29809524Y-55362295D01*
X30038096Y-55362295D02*
X30038096Y-54562295D01*
X30038096Y-54562295D02*
X29961905Y-54676580D01*
X29961905Y-54676580D02*
X29885715Y-54752771D01*
X29885715Y-54752771D02*
X29809524Y-54790866D01*
X31561906Y-55362295D02*
X31561906Y-54943247D01*
X31561906Y-54943247D02*
X31523811Y-54867057D01*
X31523811Y-54867057D02*
X31447620Y-54828961D01*
X31447620Y-54828961D02*
X31295239Y-54828961D01*
X31295239Y-54828961D02*
X31219049Y-54867057D01*
X31561906Y-55324200D02*
X31485715Y-55362295D01*
X31485715Y-55362295D02*
X31295239Y-55362295D01*
X31295239Y-55362295D02*
X31219049Y-55324200D01*
X31219049Y-55324200D02*
X31180953Y-55248009D01*
X31180953Y-55248009D02*
X31180953Y-55171819D01*
X31180953Y-55171819D02*
X31219049Y-55095628D01*
X31219049Y-55095628D02*
X31295239Y-55057533D01*
X31295239Y-55057533D02*
X31485715Y-55057533D01*
X31485715Y-55057533D02*
X31561906Y-55019438D01*
X31828573Y-54828961D02*
X32133335Y-54828961D01*
X31942859Y-54562295D02*
X31942859Y-55248009D01*
X31942859Y-55248009D02*
X31980954Y-55324200D01*
X31980954Y-55324200D02*
X32057144Y-55362295D01*
X32057144Y-55362295D02*
X32133335Y-55362295D01*
X32895240Y-54828961D02*
X33200002Y-54828961D01*
X33009526Y-54562295D02*
X33009526Y-55248009D01*
X33009526Y-55248009D02*
X33047621Y-55324200D01*
X33047621Y-55324200D02*
X33123811Y-55362295D01*
X33123811Y-55362295D02*
X33200002Y-55362295D01*
X33580954Y-55362295D02*
X33504764Y-55324200D01*
X33504764Y-55324200D02*
X33466669Y-55286104D01*
X33466669Y-55286104D02*
X33428573Y-55209914D01*
X33428573Y-55209914D02*
X33428573Y-54981342D01*
X33428573Y-54981342D02*
X33466669Y-54905152D01*
X33466669Y-54905152D02*
X33504764Y-54867057D01*
X33504764Y-54867057D02*
X33580954Y-54828961D01*
X33580954Y-54828961D02*
X33695240Y-54828961D01*
X33695240Y-54828961D02*
X33771431Y-54867057D01*
X33771431Y-54867057D02*
X33809526Y-54905152D01*
X33809526Y-54905152D02*
X33847621Y-54981342D01*
X33847621Y-54981342D02*
X33847621Y-55209914D01*
X33847621Y-55209914D02*
X33809526Y-55286104D01*
X33809526Y-55286104D02*
X33771431Y-55324200D01*
X33771431Y-55324200D02*
X33695240Y-55362295D01*
X33695240Y-55362295D02*
X33580954Y-55362295D01*
X34190479Y-54828961D02*
X34190479Y-55628961D01*
X34190479Y-54867057D02*
X34266669Y-54828961D01*
X34266669Y-54828961D02*
X34419050Y-54828961D01*
X34419050Y-54828961D02*
X34495241Y-54867057D01*
X34495241Y-54867057D02*
X34533336Y-54905152D01*
X34533336Y-54905152D02*
X34571431Y-54981342D01*
X34571431Y-54981342D02*
X34571431Y-55209914D01*
X34571431Y-55209914D02*
X34533336Y-55286104D01*
X34533336Y-55286104D02*
X34495241Y-55324200D01*
X34495241Y-55324200D02*
X34419050Y-55362295D01*
X34419050Y-55362295D02*
X34266669Y-55362295D01*
X34266669Y-55362295D02*
X34190479Y-55324200D01*
X45595238Y-33357532D02*
X46204762Y-33357532D01*
X45900000Y-33662294D02*
X45900000Y-33052770D01*
X41947618Y-5428961D02*
X41338094Y-5657533D01*
X41338094Y-5657533D02*
X41947618Y-5886104D01*
X42328570Y-5657533D02*
X42938094Y-5657533D01*
X44271427Y-5962295D02*
X44271427Y-5543247D01*
X44271427Y-5543247D02*
X44233332Y-5467057D01*
X44233332Y-5467057D02*
X44157141Y-5428961D01*
X44157141Y-5428961D02*
X44004760Y-5428961D01*
X44004760Y-5428961D02*
X43928570Y-5467057D01*
X44271427Y-5924200D02*
X44195236Y-5962295D01*
X44195236Y-5962295D02*
X44004760Y-5962295D01*
X44004760Y-5962295D02*
X43928570Y-5924200D01*
X43928570Y-5924200D02*
X43890474Y-5848009D01*
X43890474Y-5848009D02*
X43890474Y-5771819D01*
X43890474Y-5771819D02*
X43928570Y-5695628D01*
X43928570Y-5695628D02*
X44004760Y-5657533D01*
X44004760Y-5657533D02*
X44195236Y-5657533D01*
X44195236Y-5657533D02*
X44271427Y-5619438D01*
X44652380Y-5428961D02*
X44652380Y-5962295D01*
X44652380Y-5505152D02*
X44690475Y-5467057D01*
X44690475Y-5467057D02*
X44766665Y-5428961D01*
X44766665Y-5428961D02*
X44880951Y-5428961D01*
X44880951Y-5428961D02*
X44957142Y-5467057D01*
X44957142Y-5467057D02*
X44995237Y-5543247D01*
X44995237Y-5543247D02*
X44995237Y-5962295D01*
X45261904Y-5428961D02*
X45566666Y-5428961D01*
X45376190Y-5162295D02*
X45376190Y-5848009D01*
X45376190Y-5848009D02*
X45414285Y-5924200D01*
X45414285Y-5924200D02*
X45490475Y-5962295D01*
X45490475Y-5962295D02*
X45566666Y-5962295D01*
X46138095Y-5924200D02*
X46061904Y-5962295D01*
X46061904Y-5962295D02*
X45909523Y-5962295D01*
X45909523Y-5962295D02*
X45833333Y-5924200D01*
X45833333Y-5924200D02*
X45795237Y-5848009D01*
X45795237Y-5848009D02*
X45795237Y-5543247D01*
X45795237Y-5543247D02*
X45833333Y-5467057D01*
X45833333Y-5467057D02*
X45909523Y-5428961D01*
X45909523Y-5428961D02*
X46061904Y-5428961D01*
X46061904Y-5428961D02*
X46138095Y-5467057D01*
X46138095Y-5467057D02*
X46176190Y-5543247D01*
X46176190Y-5543247D02*
X46176190Y-5619438D01*
X46176190Y-5619438D02*
X45795237Y-5695628D01*
X46519047Y-5428961D02*
X46519047Y-5962295D01*
X46519047Y-5505152D02*
X46557142Y-5467057D01*
X46557142Y-5467057D02*
X46633332Y-5428961D01*
X46633332Y-5428961D02*
X46747618Y-5428961D01*
X46747618Y-5428961D02*
X46823809Y-5467057D01*
X46823809Y-5467057D02*
X46861904Y-5543247D01*
X46861904Y-5543247D02*
X46861904Y-5962295D01*
X47242857Y-5428961D02*
X47242857Y-5962295D01*
X47242857Y-5505152D02*
X47280952Y-5467057D01*
X47280952Y-5467057D02*
X47357142Y-5428961D01*
X47357142Y-5428961D02*
X47471428Y-5428961D01*
X47471428Y-5428961D02*
X47547619Y-5467057D01*
X47547619Y-5467057D02*
X47585714Y-5543247D01*
X47585714Y-5543247D02*
X47585714Y-5962295D01*
X48309524Y-5962295D02*
X48309524Y-5543247D01*
X48309524Y-5543247D02*
X48271429Y-5467057D01*
X48271429Y-5467057D02*
X48195238Y-5428961D01*
X48195238Y-5428961D02*
X48042857Y-5428961D01*
X48042857Y-5428961D02*
X47966667Y-5467057D01*
X48309524Y-5924200D02*
X48233333Y-5962295D01*
X48233333Y-5962295D02*
X48042857Y-5962295D01*
X48042857Y-5962295D02*
X47966667Y-5924200D01*
X47966667Y-5924200D02*
X47928571Y-5848009D01*
X47928571Y-5848009D02*
X47928571Y-5771819D01*
X47928571Y-5771819D02*
X47966667Y-5695628D01*
X47966667Y-5695628D02*
X48042857Y-5657533D01*
X48042857Y-5657533D02*
X48233333Y-5657533D01*
X48233333Y-5657533D02*
X48309524Y-5619438D01*
X48728572Y-5924200D02*
X48728572Y-5962295D01*
X48728572Y-5962295D02*
X48690477Y-6038485D01*
X48690477Y-6038485D02*
X48652381Y-6076580D01*
X49680953Y-5962295D02*
X49680953Y-5162295D01*
X49757143Y-5657533D02*
X49985715Y-5962295D01*
X49985715Y-5428961D02*
X49680953Y-5733723D01*
X50633334Y-5924200D02*
X50557143Y-5962295D01*
X50557143Y-5962295D02*
X50404762Y-5962295D01*
X50404762Y-5962295D02*
X50328572Y-5924200D01*
X50328572Y-5924200D02*
X50290476Y-5848009D01*
X50290476Y-5848009D02*
X50290476Y-5543247D01*
X50290476Y-5543247D02*
X50328572Y-5467057D01*
X50328572Y-5467057D02*
X50404762Y-5428961D01*
X50404762Y-5428961D02*
X50557143Y-5428961D01*
X50557143Y-5428961D02*
X50633334Y-5467057D01*
X50633334Y-5467057D02*
X50671429Y-5543247D01*
X50671429Y-5543247D02*
X50671429Y-5619438D01*
X50671429Y-5619438D02*
X50290476Y-5695628D01*
X51319048Y-5924200D02*
X51242857Y-5962295D01*
X51242857Y-5962295D02*
X51090476Y-5962295D01*
X51090476Y-5962295D02*
X51014286Y-5924200D01*
X51014286Y-5924200D02*
X50976190Y-5848009D01*
X50976190Y-5848009D02*
X50976190Y-5543247D01*
X50976190Y-5543247D02*
X51014286Y-5467057D01*
X51014286Y-5467057D02*
X51090476Y-5428961D01*
X51090476Y-5428961D02*
X51242857Y-5428961D01*
X51242857Y-5428961D02*
X51319048Y-5467057D01*
X51319048Y-5467057D02*
X51357143Y-5543247D01*
X51357143Y-5543247D02*
X51357143Y-5619438D01*
X51357143Y-5619438D02*
X50976190Y-5695628D01*
X51700000Y-5428961D02*
X51700000Y-6228961D01*
X51700000Y-5467057D02*
X51776190Y-5428961D01*
X51776190Y-5428961D02*
X51928571Y-5428961D01*
X51928571Y-5428961D02*
X52004762Y-5467057D01*
X52004762Y-5467057D02*
X52042857Y-5505152D01*
X52042857Y-5505152D02*
X52080952Y-5581342D01*
X52080952Y-5581342D02*
X52080952Y-5809914D01*
X52080952Y-5809914D02*
X52042857Y-5886104D01*
X52042857Y-5886104D02*
X52004762Y-5924200D01*
X52004762Y-5924200D02*
X51928571Y-5962295D01*
X51928571Y-5962295D02*
X51776190Y-5962295D01*
X51776190Y-5962295D02*
X51700000Y-5924200D01*
X53376191Y-5924200D02*
X53300000Y-5962295D01*
X53300000Y-5962295D02*
X53147619Y-5962295D01*
X53147619Y-5962295D02*
X53071429Y-5924200D01*
X53071429Y-5924200D02*
X53033334Y-5886104D01*
X53033334Y-5886104D02*
X52995238Y-5809914D01*
X52995238Y-5809914D02*
X52995238Y-5581342D01*
X52995238Y-5581342D02*
X53033334Y-5505152D01*
X53033334Y-5505152D02*
X53071429Y-5467057D01*
X53071429Y-5467057D02*
X53147619Y-5428961D01*
X53147619Y-5428961D02*
X53300000Y-5428961D01*
X53300000Y-5428961D02*
X53376191Y-5467057D01*
X53833333Y-5962295D02*
X53757143Y-5924200D01*
X53757143Y-5924200D02*
X53719048Y-5848009D01*
X53719048Y-5848009D02*
X53719048Y-5162295D01*
X54442858Y-5924200D02*
X54366667Y-5962295D01*
X54366667Y-5962295D02*
X54214286Y-5962295D01*
X54214286Y-5962295D02*
X54138096Y-5924200D01*
X54138096Y-5924200D02*
X54100000Y-5848009D01*
X54100000Y-5848009D02*
X54100000Y-5543247D01*
X54100000Y-5543247D02*
X54138096Y-5467057D01*
X54138096Y-5467057D02*
X54214286Y-5428961D01*
X54214286Y-5428961D02*
X54366667Y-5428961D01*
X54366667Y-5428961D02*
X54442858Y-5467057D01*
X54442858Y-5467057D02*
X54480953Y-5543247D01*
X54480953Y-5543247D02*
X54480953Y-5619438D01*
X54480953Y-5619438D02*
X54100000Y-5695628D01*
X55166667Y-5962295D02*
X55166667Y-5543247D01*
X55166667Y-5543247D02*
X55128572Y-5467057D01*
X55128572Y-5467057D02*
X55052381Y-5428961D01*
X55052381Y-5428961D02*
X54900000Y-5428961D01*
X54900000Y-5428961D02*
X54823810Y-5467057D01*
X55166667Y-5924200D02*
X55090476Y-5962295D01*
X55090476Y-5962295D02*
X54900000Y-5962295D01*
X54900000Y-5962295D02*
X54823810Y-5924200D01*
X54823810Y-5924200D02*
X54785714Y-5848009D01*
X54785714Y-5848009D02*
X54785714Y-5771819D01*
X54785714Y-5771819D02*
X54823810Y-5695628D01*
X54823810Y-5695628D02*
X54900000Y-5657533D01*
X54900000Y-5657533D02*
X55090476Y-5657533D01*
X55090476Y-5657533D02*
X55166667Y-5619438D01*
X55547620Y-5962295D02*
X55547620Y-5428961D01*
X55547620Y-5581342D02*
X55585715Y-5505152D01*
X55585715Y-5505152D02*
X55623810Y-5467057D01*
X55623810Y-5467057D02*
X55700001Y-5428961D01*
X55700001Y-5428961D02*
X55776191Y-5428961D01*
X41080952Y-44362295D02*
X41080952Y-43562295D01*
X41080952Y-43562295D02*
X41385714Y-43562295D01*
X41385714Y-43562295D02*
X41461904Y-43600390D01*
X41461904Y-43600390D02*
X41499999Y-43638485D01*
X41499999Y-43638485D02*
X41538095Y-43714676D01*
X41538095Y-43714676D02*
X41538095Y-43828961D01*
X41538095Y-43828961D02*
X41499999Y-43905152D01*
X41499999Y-43905152D02*
X41461904Y-43943247D01*
X41461904Y-43943247D02*
X41385714Y-43981342D01*
X41385714Y-43981342D02*
X41080952Y-43981342D01*
X42299999Y-44362295D02*
X41842856Y-44362295D01*
X42071428Y-44362295D02*
X42071428Y-43562295D01*
X42071428Y-43562295D02*
X41995237Y-43676580D01*
X41995237Y-43676580D02*
X41919047Y-43752771D01*
X41919047Y-43752771D02*
X41842856Y-43790866D01*
X42642857Y-44286104D02*
X42680952Y-44324200D01*
X42680952Y-44324200D02*
X42642857Y-44362295D01*
X42642857Y-44362295D02*
X42604761Y-44324200D01*
X42604761Y-44324200D02*
X42642857Y-44286104D01*
X42642857Y-44286104D02*
X42642857Y-44362295D01*
X42642857Y-43867057D02*
X42680952Y-43905152D01*
X42680952Y-43905152D02*
X42642857Y-43943247D01*
X42642857Y-43943247D02*
X42604761Y-43905152D01*
X42604761Y-43905152D02*
X42642857Y-43867057D01*
X42642857Y-43867057D02*
X42642857Y-43943247D01*
X43442856Y-44362295D02*
X42985713Y-44362295D01*
X43214285Y-44362295D02*
X43214285Y-43562295D01*
X43214285Y-43562295D02*
X43138094Y-43676580D01*
X43138094Y-43676580D02*
X43061904Y-43752771D01*
X43061904Y-43752771D02*
X42985713Y-43790866D01*
X43823809Y-44324200D02*
X43823809Y-44362295D01*
X43823809Y-44362295D02*
X43785714Y-44438485D01*
X43785714Y-44438485D02*
X43747618Y-44476580D01*
X44128570Y-43638485D02*
X44166666Y-43600390D01*
X44166666Y-43600390D02*
X44242856Y-43562295D01*
X44242856Y-43562295D02*
X44433332Y-43562295D01*
X44433332Y-43562295D02*
X44509523Y-43600390D01*
X44509523Y-43600390D02*
X44547618Y-43638485D01*
X44547618Y-43638485D02*
X44585713Y-43714676D01*
X44585713Y-43714676D02*
X44585713Y-43790866D01*
X44585713Y-43790866D02*
X44547618Y-43905152D01*
X44547618Y-43905152D02*
X44090475Y-44362295D01*
X44090475Y-44362295D02*
X44585713Y-44362295D01*
X45538095Y-44362295D02*
X45538095Y-43562295D01*
X45538095Y-43562295D02*
X45842857Y-43562295D01*
X45842857Y-43562295D02*
X45919047Y-43600390D01*
X45919047Y-43600390D02*
X45957142Y-43638485D01*
X45957142Y-43638485D02*
X45995238Y-43714676D01*
X45995238Y-43714676D02*
X45995238Y-43828961D01*
X45995238Y-43828961D02*
X45957142Y-43905152D01*
X45957142Y-43905152D02*
X45919047Y-43943247D01*
X45919047Y-43943247D02*
X45842857Y-43981342D01*
X45842857Y-43981342D02*
X45538095Y-43981342D01*
X46299999Y-43638485D02*
X46338095Y-43600390D01*
X46338095Y-43600390D02*
X46414285Y-43562295D01*
X46414285Y-43562295D02*
X46604761Y-43562295D01*
X46604761Y-43562295D02*
X46680952Y-43600390D01*
X46680952Y-43600390D02*
X46719047Y-43638485D01*
X46719047Y-43638485D02*
X46757142Y-43714676D01*
X46757142Y-43714676D02*
X46757142Y-43790866D01*
X46757142Y-43790866D02*
X46719047Y-43905152D01*
X46719047Y-43905152D02*
X46261904Y-44362295D01*
X46261904Y-44362295D02*
X46757142Y-44362295D01*
X47100000Y-44286104D02*
X47138095Y-44324200D01*
X47138095Y-44324200D02*
X47100000Y-44362295D01*
X47100000Y-44362295D02*
X47061904Y-44324200D01*
X47061904Y-44324200D02*
X47100000Y-44286104D01*
X47100000Y-44286104D02*
X47100000Y-44362295D01*
X47100000Y-43867057D02*
X47138095Y-43905152D01*
X47138095Y-43905152D02*
X47100000Y-43943247D01*
X47100000Y-43943247D02*
X47061904Y-43905152D01*
X47061904Y-43905152D02*
X47100000Y-43867057D01*
X47100000Y-43867057D02*
X47100000Y-43943247D01*
X47404761Y-43562295D02*
X47899999Y-43562295D01*
X47899999Y-43562295D02*
X47633333Y-43867057D01*
X47633333Y-43867057D02*
X47747618Y-43867057D01*
X47747618Y-43867057D02*
X47823809Y-43905152D01*
X47823809Y-43905152D02*
X47861904Y-43943247D01*
X47861904Y-43943247D02*
X47899999Y-44019438D01*
X47899999Y-44019438D02*
X47899999Y-44209914D01*
X47899999Y-44209914D02*
X47861904Y-44286104D01*
X47861904Y-44286104D02*
X47823809Y-44324200D01*
X47823809Y-44324200D02*
X47747618Y-44362295D01*
X47747618Y-44362295D02*
X47519047Y-44362295D01*
X47519047Y-44362295D02*
X47442856Y-44324200D01*
X47442856Y-44324200D02*
X47404761Y-44286104D01*
X48280952Y-44324200D02*
X48280952Y-44362295D01*
X48280952Y-44362295D02*
X48242857Y-44438485D01*
X48242857Y-44438485D02*
X48204761Y-44476580D01*
X48966666Y-43562295D02*
X48814285Y-43562295D01*
X48814285Y-43562295D02*
X48738094Y-43600390D01*
X48738094Y-43600390D02*
X48699999Y-43638485D01*
X48699999Y-43638485D02*
X48623809Y-43752771D01*
X48623809Y-43752771D02*
X48585713Y-43905152D01*
X48585713Y-43905152D02*
X48585713Y-44209914D01*
X48585713Y-44209914D02*
X48623809Y-44286104D01*
X48623809Y-44286104D02*
X48661904Y-44324200D01*
X48661904Y-44324200D02*
X48738094Y-44362295D01*
X48738094Y-44362295D02*
X48890475Y-44362295D01*
X48890475Y-44362295D02*
X48966666Y-44324200D01*
X48966666Y-44324200D02*
X49004761Y-44286104D01*
X49004761Y-44286104D02*
X49042856Y-44209914D01*
X49042856Y-44209914D02*
X49042856Y-44019438D01*
X49042856Y-44019438D02*
X49004761Y-43943247D01*
X49004761Y-43943247D02*
X48966666Y-43905152D01*
X48966666Y-43905152D02*
X48890475Y-43867057D01*
X48890475Y-43867057D02*
X48738094Y-43867057D01*
X48738094Y-43867057D02*
X48661904Y-43905152D01*
X48661904Y-43905152D02*
X48623809Y-43943247D01*
X48623809Y-43943247D02*
X48585713Y-44019438D01*
X49995238Y-44362295D02*
X49995238Y-43562295D01*
X49995238Y-43562295D02*
X50300000Y-43562295D01*
X50300000Y-43562295D02*
X50376190Y-43600390D01*
X50376190Y-43600390D02*
X50414285Y-43638485D01*
X50414285Y-43638485D02*
X50452381Y-43714676D01*
X50452381Y-43714676D02*
X50452381Y-43828961D01*
X50452381Y-43828961D02*
X50414285Y-43905152D01*
X50414285Y-43905152D02*
X50376190Y-43943247D01*
X50376190Y-43943247D02*
X50300000Y-43981342D01*
X50300000Y-43981342D02*
X49995238Y-43981342D01*
X50719047Y-43562295D02*
X51214285Y-43562295D01*
X51214285Y-43562295D02*
X50947619Y-43867057D01*
X50947619Y-43867057D02*
X51061904Y-43867057D01*
X51061904Y-43867057D02*
X51138095Y-43905152D01*
X51138095Y-43905152D02*
X51176190Y-43943247D01*
X51176190Y-43943247D02*
X51214285Y-44019438D01*
X51214285Y-44019438D02*
X51214285Y-44209914D01*
X51214285Y-44209914D02*
X51176190Y-44286104D01*
X51176190Y-44286104D02*
X51138095Y-44324200D01*
X51138095Y-44324200D02*
X51061904Y-44362295D01*
X51061904Y-44362295D02*
X50833333Y-44362295D01*
X50833333Y-44362295D02*
X50757142Y-44324200D01*
X50757142Y-44324200D02*
X50719047Y-44286104D01*
X51557143Y-44286104D02*
X51595238Y-44324200D01*
X51595238Y-44324200D02*
X51557143Y-44362295D01*
X51557143Y-44362295D02*
X51519047Y-44324200D01*
X51519047Y-44324200D02*
X51557143Y-44286104D01*
X51557143Y-44286104D02*
X51557143Y-44362295D01*
X51557143Y-43867057D02*
X51595238Y-43905152D01*
X51595238Y-43905152D02*
X51557143Y-43943247D01*
X51557143Y-43943247D02*
X51519047Y-43905152D01*
X51519047Y-43905152D02*
X51557143Y-43867057D01*
X51557143Y-43867057D02*
X51557143Y-43943247D01*
X52280952Y-43828961D02*
X52280952Y-44362295D01*
X52090476Y-43524200D02*
X51899999Y-44095628D01*
X51899999Y-44095628D02*
X52395238Y-44095628D01*
X52738095Y-44324200D02*
X52738095Y-44362295D01*
X52738095Y-44362295D02*
X52700000Y-44438485D01*
X52700000Y-44438485D02*
X52661904Y-44476580D01*
X53461904Y-43562295D02*
X53080952Y-43562295D01*
X53080952Y-43562295D02*
X53042856Y-43943247D01*
X53042856Y-43943247D02*
X53080952Y-43905152D01*
X53080952Y-43905152D02*
X53157142Y-43867057D01*
X53157142Y-43867057D02*
X53347618Y-43867057D01*
X53347618Y-43867057D02*
X53423809Y-43905152D01*
X53423809Y-43905152D02*
X53461904Y-43943247D01*
X53461904Y-43943247D02*
X53499999Y-44019438D01*
X53499999Y-44019438D02*
X53499999Y-44209914D01*
X53499999Y-44209914D02*
X53461904Y-44286104D01*
X53461904Y-44286104D02*
X53423809Y-44324200D01*
X53423809Y-44324200D02*
X53347618Y-44362295D01*
X53347618Y-44362295D02*
X53157142Y-44362295D01*
X53157142Y-44362295D02*
X53080952Y-44324200D01*
X53080952Y-44324200D02*
X53042856Y-44286104D01*
X54452381Y-44362295D02*
X54452381Y-43562295D01*
X54452381Y-43562295D02*
X54757143Y-43562295D01*
X54757143Y-43562295D02*
X54833333Y-43600390D01*
X54833333Y-43600390D02*
X54871428Y-43638485D01*
X54871428Y-43638485D02*
X54909524Y-43714676D01*
X54909524Y-43714676D02*
X54909524Y-43828961D01*
X54909524Y-43828961D02*
X54871428Y-43905152D01*
X54871428Y-43905152D02*
X54833333Y-43943247D01*
X54833333Y-43943247D02*
X54757143Y-43981342D01*
X54757143Y-43981342D02*
X54452381Y-43981342D01*
X55595238Y-43828961D02*
X55595238Y-44362295D01*
X55404762Y-43524200D02*
X55214285Y-44095628D01*
X55214285Y-44095628D02*
X55709524Y-44095628D01*
X56014286Y-44286104D02*
X56052381Y-44324200D01*
X56052381Y-44324200D02*
X56014286Y-44362295D01*
X56014286Y-44362295D02*
X55976190Y-44324200D01*
X55976190Y-44324200D02*
X56014286Y-44286104D01*
X56014286Y-44286104D02*
X56014286Y-44362295D01*
X56014286Y-43867057D02*
X56052381Y-43905152D01*
X56052381Y-43905152D02*
X56014286Y-43943247D01*
X56014286Y-43943247D02*
X55976190Y-43905152D01*
X55976190Y-43905152D02*
X56014286Y-43867057D01*
X56014286Y-43867057D02*
X56014286Y-43943247D01*
X56319047Y-43562295D02*
X56852381Y-43562295D01*
X56852381Y-43562295D02*
X56509523Y-44362295D01*
X57195238Y-44324200D02*
X57195238Y-44362295D01*
X57195238Y-44362295D02*
X57157143Y-44438485D01*
X57157143Y-44438485D02*
X57119047Y-44476580D01*
X57652380Y-43905152D02*
X57576190Y-43867057D01*
X57576190Y-43867057D02*
X57538095Y-43828961D01*
X57538095Y-43828961D02*
X57499999Y-43752771D01*
X57499999Y-43752771D02*
X57499999Y-43714676D01*
X57499999Y-43714676D02*
X57538095Y-43638485D01*
X57538095Y-43638485D02*
X57576190Y-43600390D01*
X57576190Y-43600390D02*
X57652380Y-43562295D01*
X57652380Y-43562295D02*
X57804761Y-43562295D01*
X57804761Y-43562295D02*
X57880952Y-43600390D01*
X57880952Y-43600390D02*
X57919047Y-43638485D01*
X57919047Y-43638485D02*
X57957142Y-43714676D01*
X57957142Y-43714676D02*
X57957142Y-43752771D01*
X57957142Y-43752771D02*
X57919047Y-43828961D01*
X57919047Y-43828961D02*
X57880952Y-43867057D01*
X57880952Y-43867057D02*
X57804761Y-43905152D01*
X57804761Y-43905152D02*
X57652380Y-43905152D01*
X57652380Y-43905152D02*
X57576190Y-43943247D01*
X57576190Y-43943247D02*
X57538095Y-43981342D01*
X57538095Y-43981342D02*
X57499999Y-44057533D01*
X57499999Y-44057533D02*
X57499999Y-44209914D01*
X57499999Y-44209914D02*
X57538095Y-44286104D01*
X57538095Y-44286104D02*
X57576190Y-44324200D01*
X57576190Y-44324200D02*
X57652380Y-44362295D01*
X57652380Y-44362295D02*
X57804761Y-44362295D01*
X57804761Y-44362295D02*
X57880952Y-44324200D01*
X57880952Y-44324200D02*
X57919047Y-44286104D01*
X57919047Y-44286104D02*
X57957142Y-44209914D01*
X57957142Y-44209914D02*
X57957142Y-44057533D01*
X57957142Y-44057533D02*
X57919047Y-43981342D01*
X57919047Y-43981342D02*
X57880952Y-43943247D01*
X57880952Y-43943247D02*
X57804761Y-43905152D01*
X54747618Y-32800390D02*
X54671428Y-32762295D01*
X54671428Y-32762295D02*
X54557142Y-32762295D01*
X54557142Y-32762295D02*
X54442856Y-32800390D01*
X54442856Y-32800390D02*
X54366666Y-32876580D01*
X54366666Y-32876580D02*
X54328571Y-32952771D01*
X54328571Y-32952771D02*
X54290475Y-33105152D01*
X54290475Y-33105152D02*
X54290475Y-33219438D01*
X54290475Y-33219438D02*
X54328571Y-33371819D01*
X54328571Y-33371819D02*
X54366666Y-33448009D01*
X54366666Y-33448009D02*
X54442856Y-33524200D01*
X54442856Y-33524200D02*
X54557142Y-33562295D01*
X54557142Y-33562295D02*
X54633333Y-33562295D01*
X54633333Y-33562295D02*
X54747618Y-33524200D01*
X54747618Y-33524200D02*
X54785714Y-33486104D01*
X54785714Y-33486104D02*
X54785714Y-33219438D01*
X54785714Y-33219438D02*
X54633333Y-33219438D01*
X55128571Y-33562295D02*
X55128571Y-32762295D01*
X55128571Y-32762295D02*
X55433333Y-32762295D01*
X55433333Y-32762295D02*
X55509523Y-32800390D01*
X55509523Y-32800390D02*
X55547618Y-32838485D01*
X55547618Y-32838485D02*
X55585714Y-32914676D01*
X55585714Y-32914676D02*
X55585714Y-33028961D01*
X55585714Y-33028961D02*
X55547618Y-33105152D01*
X55547618Y-33105152D02*
X55509523Y-33143247D01*
X55509523Y-33143247D02*
X55433333Y-33181342D01*
X55433333Y-33181342D02*
X55128571Y-33181342D01*
X56347618Y-33562295D02*
X55890475Y-33562295D01*
X56119047Y-33562295D02*
X56119047Y-32762295D01*
X56119047Y-32762295D02*
X56042856Y-32876580D01*
X56042856Y-32876580D02*
X55966666Y-32952771D01*
X55966666Y-32952771D02*
X55890475Y-32990866D01*
X57071428Y-32762295D02*
X56690476Y-32762295D01*
X56690476Y-32762295D02*
X56652380Y-33143247D01*
X56652380Y-33143247D02*
X56690476Y-33105152D01*
X56690476Y-33105152D02*
X56766666Y-33067057D01*
X56766666Y-33067057D02*
X56957142Y-33067057D01*
X56957142Y-33067057D02*
X57033333Y-33105152D01*
X57033333Y-33105152D02*
X57071428Y-33143247D01*
X57071428Y-33143247D02*
X57109523Y-33219438D01*
X57109523Y-33219438D02*
X57109523Y-33409914D01*
X57109523Y-33409914D02*
X57071428Y-33486104D01*
X57071428Y-33486104D02*
X57033333Y-33524200D01*
X57033333Y-33524200D02*
X56957142Y-33562295D01*
X56957142Y-33562295D02*
X56766666Y-33562295D01*
X56766666Y-33562295D02*
X56690476Y-33524200D01*
X56690476Y-33524200D02*
X56652380Y-33486104D01*
X55090476Y-37400390D02*
X55014286Y-37362295D01*
X55014286Y-37362295D02*
X54900000Y-37362295D01*
X54900000Y-37362295D02*
X54785714Y-37400390D01*
X54785714Y-37400390D02*
X54709524Y-37476580D01*
X54709524Y-37476580D02*
X54671429Y-37552771D01*
X54671429Y-37552771D02*
X54633333Y-37705152D01*
X54633333Y-37705152D02*
X54633333Y-37819438D01*
X54633333Y-37819438D02*
X54671429Y-37971819D01*
X54671429Y-37971819D02*
X54709524Y-38048009D01*
X54709524Y-38048009D02*
X54785714Y-38124200D01*
X54785714Y-38124200D02*
X54900000Y-38162295D01*
X54900000Y-38162295D02*
X54976191Y-38162295D01*
X54976191Y-38162295D02*
X55090476Y-38124200D01*
X55090476Y-38124200D02*
X55128572Y-38086104D01*
X55128572Y-38086104D02*
X55128572Y-37819438D01*
X55128572Y-37819438D02*
X54976191Y-37819438D01*
X55471429Y-38162295D02*
X55471429Y-37362295D01*
X55471429Y-37362295D02*
X55928572Y-38162295D01*
X55928572Y-38162295D02*
X55928572Y-37362295D01*
X56309524Y-38162295D02*
X56309524Y-37362295D01*
X56309524Y-37362295D02*
X56500000Y-37362295D01*
X56500000Y-37362295D02*
X56614286Y-37400390D01*
X56614286Y-37400390D02*
X56690476Y-37476580D01*
X56690476Y-37476580D02*
X56728571Y-37552771D01*
X56728571Y-37552771D02*
X56766667Y-37705152D01*
X56766667Y-37705152D02*
X56766667Y-37819438D01*
X56766667Y-37819438D02*
X56728571Y-37971819D01*
X56728571Y-37971819D02*
X56690476Y-38048009D01*
X56690476Y-38048009D02*
X56614286Y-38124200D01*
X56614286Y-38124200D02*
X56500000Y-38162295D01*
X56500000Y-38162295D02*
X56309524Y-38162295D01*
X39562295Y-37471428D02*
X39562295Y-37395238D01*
X39562295Y-37395238D02*
X39600390Y-37319047D01*
X39600390Y-37319047D02*
X39638485Y-37280952D01*
X39638485Y-37280952D02*
X39714676Y-37242857D01*
X39714676Y-37242857D02*
X39867057Y-37204762D01*
X39867057Y-37204762D02*
X40057533Y-37204762D01*
X40057533Y-37204762D02*
X40209914Y-37242857D01*
X40209914Y-37242857D02*
X40286104Y-37280952D01*
X40286104Y-37280952D02*
X40324200Y-37319047D01*
X40324200Y-37319047D02*
X40362295Y-37395238D01*
X40362295Y-37395238D02*
X40362295Y-37471428D01*
X40362295Y-37471428D02*
X40324200Y-37547619D01*
X40324200Y-37547619D02*
X40286104Y-37585714D01*
X40286104Y-37585714D02*
X40209914Y-37623809D01*
X40209914Y-37623809D02*
X40057533Y-37661905D01*
X40057533Y-37661905D02*
X39867057Y-37661905D01*
X39867057Y-37661905D02*
X39714676Y-37623809D01*
X39714676Y-37623809D02*
X39638485Y-37585714D01*
X39638485Y-37585714D02*
X39600390Y-37547619D01*
X39600390Y-37547619D02*
X39562295Y-37471428D01*
X40286104Y-36861904D02*
X40324200Y-36823809D01*
X40324200Y-36823809D02*
X40362295Y-36861904D01*
X40362295Y-36861904D02*
X40324200Y-36900000D01*
X40324200Y-36900000D02*
X40286104Y-36861904D01*
X40286104Y-36861904D02*
X40362295Y-36861904D01*
X40362295Y-36061905D02*
X40362295Y-36519048D01*
X40362295Y-36290476D02*
X39562295Y-36290476D01*
X39562295Y-36290476D02*
X39676580Y-36366667D01*
X39676580Y-36366667D02*
X39752771Y-36442857D01*
X39752771Y-36442857D02*
X39790866Y-36519048D01*
X39828961Y-35376190D02*
X40362295Y-35376190D01*
X39828961Y-35719047D02*
X40248009Y-35719047D01*
X40248009Y-35719047D02*
X40324200Y-35680952D01*
X40324200Y-35680952D02*
X40362295Y-35604762D01*
X40362295Y-35604762D02*
X40362295Y-35490476D01*
X40362295Y-35490476D02*
X40324200Y-35414285D01*
X40324200Y-35414285D02*
X40286104Y-35376190D01*
X10238095Y-5054819D02*
X10238095Y-5864342D01*
X10238095Y-5864342D02*
X10285714Y-5959580D01*
X10285714Y-5959580D02*
X10333333Y-6007200D01*
X10333333Y-6007200D02*
X10428571Y-6054819D01*
X10428571Y-6054819D02*
X10619047Y-6054819D01*
X10619047Y-6054819D02*
X10714285Y-6007200D01*
X10714285Y-6007200D02*
X10761904Y-5959580D01*
X10761904Y-5959580D02*
X10809523Y-5864342D01*
X10809523Y-5864342D02*
X10809523Y-5054819D01*
X11238095Y-6007200D02*
X11380952Y-6054819D01*
X11380952Y-6054819D02*
X11619047Y-6054819D01*
X11619047Y-6054819D02*
X11714285Y-6007200D01*
X11714285Y-6007200D02*
X11761904Y-5959580D01*
X11761904Y-5959580D02*
X11809523Y-5864342D01*
X11809523Y-5864342D02*
X11809523Y-5769104D01*
X11809523Y-5769104D02*
X11761904Y-5673866D01*
X11761904Y-5673866D02*
X11714285Y-5626247D01*
X11714285Y-5626247D02*
X11619047Y-5578628D01*
X11619047Y-5578628D02*
X11428571Y-5531009D01*
X11428571Y-5531009D02*
X11333333Y-5483390D01*
X11333333Y-5483390D02*
X11285714Y-5435771D01*
X11285714Y-5435771D02*
X11238095Y-5340533D01*
X11238095Y-5340533D02*
X11238095Y-5245295D01*
X11238095Y-5245295D02*
X11285714Y-5150057D01*
X11285714Y-5150057D02*
X11333333Y-5102438D01*
X11333333Y-5102438D02*
X11428571Y-5054819D01*
X11428571Y-5054819D02*
X11666666Y-5054819D01*
X11666666Y-5054819D02*
X11809523Y-5102438D01*
X12571428Y-5531009D02*
X12714285Y-5578628D01*
X12714285Y-5578628D02*
X12761904Y-5626247D01*
X12761904Y-5626247D02*
X12809523Y-5721485D01*
X12809523Y-5721485D02*
X12809523Y-5864342D01*
X12809523Y-5864342D02*
X12761904Y-5959580D01*
X12761904Y-5959580D02*
X12714285Y-6007200D01*
X12714285Y-6007200D02*
X12619047Y-6054819D01*
X12619047Y-6054819D02*
X12238095Y-6054819D01*
X12238095Y-6054819D02*
X12238095Y-5054819D01*
X12238095Y-5054819D02*
X12571428Y-5054819D01*
X12571428Y-5054819D02*
X12666666Y-5102438D01*
X12666666Y-5102438D02*
X12714285Y-5150057D01*
X12714285Y-5150057D02*
X12761904Y-5245295D01*
X12761904Y-5245295D02*
X12761904Y-5340533D01*
X12761904Y-5340533D02*
X12714285Y-5435771D01*
X12714285Y-5435771D02*
X12666666Y-5483390D01*
X12666666Y-5483390D02*
X12571428Y-5531009D01*
X12571428Y-5531009D02*
X12238095Y-5531009D01*
D11*
X13599999Y-3744742D02*
X13599999Y-2544742D01*
X13599999Y-2544742D02*
X14057142Y-2544742D01*
X14057142Y-2544742D02*
X14171427Y-2601885D01*
X14171427Y-2601885D02*
X14228570Y-2659028D01*
X14228570Y-2659028D02*
X14285713Y-2773314D01*
X14285713Y-2773314D02*
X14285713Y-2944742D01*
X14285713Y-2944742D02*
X14228570Y-3059028D01*
X14228570Y-3059028D02*
X14171427Y-3116171D01*
X14171427Y-3116171D02*
X14057142Y-3173314D01*
X14057142Y-3173314D02*
X13599999Y-3173314D01*
X14799999Y-3744742D02*
X14799999Y-2544742D01*
X16057142Y-3630457D02*
X15999999Y-3687600D01*
X15999999Y-3687600D02*
X15828571Y-3744742D01*
X15828571Y-3744742D02*
X15714285Y-3744742D01*
X15714285Y-3744742D02*
X15542856Y-3687600D01*
X15542856Y-3687600D02*
X15428571Y-3573314D01*
X15428571Y-3573314D02*
X15371428Y-3459028D01*
X15371428Y-3459028D02*
X15314285Y-3230457D01*
X15314285Y-3230457D02*
X15314285Y-3059028D01*
X15314285Y-3059028D02*
X15371428Y-2830457D01*
X15371428Y-2830457D02*
X15428571Y-2716171D01*
X15428571Y-2716171D02*
X15542856Y-2601885D01*
X15542856Y-2601885D02*
X15714285Y-2544742D01*
X15714285Y-2544742D02*
X15828571Y-2544742D01*
X15828571Y-2544742D02*
X15999999Y-2601885D01*
X15999999Y-2601885D02*
X16057142Y-2659028D01*
X16799999Y-2544742D02*
X17028571Y-2544742D01*
X17028571Y-2544742D02*
X17142856Y-2601885D01*
X17142856Y-2601885D02*
X17257142Y-2716171D01*
X17257142Y-2716171D02*
X17314285Y-2944742D01*
X17314285Y-2944742D02*
X17314285Y-3344742D01*
X17314285Y-3344742D02*
X17257142Y-3573314D01*
X17257142Y-3573314D02*
X17142856Y-3687600D01*
X17142856Y-3687600D02*
X17028571Y-3744742D01*
X17028571Y-3744742D02*
X16799999Y-3744742D01*
X16799999Y-3744742D02*
X16685714Y-3687600D01*
X16685714Y-3687600D02*
X16571428Y-3573314D01*
X16571428Y-3573314D02*
X16514285Y-3344742D01*
X16514285Y-3344742D02*
X16514285Y-2944742D01*
X16514285Y-2944742D02*
X16571428Y-2716171D01*
X16571428Y-2716171D02*
X16685714Y-2601885D01*
X16685714Y-2601885D02*
X16799999Y-2544742D01*
X18685714Y-2659028D02*
X18742857Y-2601885D01*
X18742857Y-2601885D02*
X18857143Y-2544742D01*
X18857143Y-2544742D02*
X19142857Y-2544742D01*
X19142857Y-2544742D02*
X19257143Y-2601885D01*
X19257143Y-2601885D02*
X19314285Y-2659028D01*
X19314285Y-2659028D02*
X19371428Y-2773314D01*
X19371428Y-2773314D02*
X19371428Y-2887600D01*
X19371428Y-2887600D02*
X19314285Y-3059028D01*
X19314285Y-3059028D02*
X18628571Y-3744742D01*
X18628571Y-3744742D02*
X19371428Y-3744742D01*
X19771428Y-2544742D02*
X20057142Y-3744742D01*
X20057142Y-3744742D02*
X20285714Y-2887600D01*
X20285714Y-2887600D02*
X20514285Y-3744742D01*
X20514285Y-3744742D02*
X20800000Y-2544742D01*
X22857143Y-3744742D02*
X22457143Y-3173314D01*
X22171429Y-3744742D02*
X22171429Y-2544742D01*
X22171429Y-2544742D02*
X22628572Y-2544742D01*
X22628572Y-2544742D02*
X22742857Y-2601885D01*
X22742857Y-2601885D02*
X22800000Y-2659028D01*
X22800000Y-2659028D02*
X22857143Y-2773314D01*
X22857143Y-2773314D02*
X22857143Y-2944742D01*
X22857143Y-2944742D02*
X22800000Y-3059028D01*
X22800000Y-3059028D02*
X22742857Y-3116171D01*
X22742857Y-3116171D02*
X22628572Y-3173314D01*
X22628572Y-3173314D02*
X22171429Y-3173314D01*
X23314286Y-3687600D02*
X23485715Y-3744742D01*
X23485715Y-3744742D02*
X23771429Y-3744742D01*
X23771429Y-3744742D02*
X23885715Y-3687600D01*
X23885715Y-3687600D02*
X23942857Y-3630457D01*
X23942857Y-3630457D02*
X24000000Y-3516171D01*
X24000000Y-3516171D02*
X24000000Y-3401885D01*
X24000000Y-3401885D02*
X23942857Y-3287600D01*
X23942857Y-3287600D02*
X23885715Y-3230457D01*
X23885715Y-3230457D02*
X23771429Y-3173314D01*
X23771429Y-3173314D02*
X23542857Y-3116171D01*
X23542857Y-3116171D02*
X23428572Y-3059028D01*
X23428572Y-3059028D02*
X23371429Y-3001885D01*
X23371429Y-3001885D02*
X23314286Y-2887600D01*
X23314286Y-2887600D02*
X23314286Y-2773314D01*
X23314286Y-2773314D02*
X23371429Y-2659028D01*
X23371429Y-2659028D02*
X23428572Y-2601885D01*
X23428572Y-2601885D02*
X23542857Y-2544742D01*
X23542857Y-2544742D02*
X23828572Y-2544742D01*
X23828572Y-2544742D02*
X24000000Y-2601885D01*
X24514286Y-3287600D02*
X25428572Y-3287600D01*
X26514286Y-2944742D02*
X26514286Y-3744742D01*
X26228571Y-2487600D02*
X25942857Y-3344742D01*
X25942857Y-3344742D02*
X26685714Y-3344742D01*
X27085714Y-2659028D02*
X27142857Y-2601885D01*
X27142857Y-2601885D02*
X27257143Y-2544742D01*
X27257143Y-2544742D02*
X27542857Y-2544742D01*
X27542857Y-2544742D02*
X27657143Y-2601885D01*
X27657143Y-2601885D02*
X27714285Y-2659028D01*
X27714285Y-2659028D02*
X27771428Y-2773314D01*
X27771428Y-2773314D02*
X27771428Y-2887600D01*
X27771428Y-2887600D02*
X27714285Y-3059028D01*
X27714285Y-3059028D02*
X27028571Y-3744742D01*
X27028571Y-3744742D02*
X27771428Y-3744742D01*
X28228571Y-2659028D02*
X28285714Y-2601885D01*
X28285714Y-2601885D02*
X28400000Y-2544742D01*
X28400000Y-2544742D02*
X28685714Y-2544742D01*
X28685714Y-2544742D02*
X28800000Y-2601885D01*
X28800000Y-2601885D02*
X28857142Y-2659028D01*
X28857142Y-2659028D02*
X28914285Y-2773314D01*
X28914285Y-2773314D02*
X28914285Y-2887600D01*
X28914285Y-2887600D02*
X28857142Y-3059028D01*
X28857142Y-3059028D02*
X28171428Y-3744742D01*
X28171428Y-3744742D02*
X28914285Y-3744742D01*
X30342857Y-3744742D02*
X30342857Y-2544742D01*
X30342857Y-2544742D02*
X30800000Y-2544742D01*
X30800000Y-2544742D02*
X30914285Y-2601885D01*
X30914285Y-2601885D02*
X30971428Y-2659028D01*
X30971428Y-2659028D02*
X31028571Y-2773314D01*
X31028571Y-2773314D02*
X31028571Y-2944742D01*
X31028571Y-2944742D02*
X30971428Y-3059028D01*
X30971428Y-3059028D02*
X30914285Y-3116171D01*
X30914285Y-3116171D02*
X30800000Y-3173314D01*
X30800000Y-3173314D02*
X30342857Y-3173314D01*
X31542857Y-3744742D02*
X31542857Y-2544742D01*
X32000000Y-2544742D02*
X32800000Y-3744742D01*
X32800000Y-2544742D02*
X32000000Y-3744742D01*
X33257143Y-3116171D02*
X33657143Y-3116171D01*
X33828571Y-3744742D02*
X33257143Y-3744742D01*
X33257143Y-3744742D02*
X33257143Y-2544742D01*
X33257143Y-2544742D02*
X33828571Y-2544742D01*
X34914285Y-3744742D02*
X34342857Y-3744742D01*
X34342857Y-3744742D02*
X34342857Y-2544742D01*
X36228572Y-3744742D02*
X36228572Y-2544742D01*
X36228572Y-2544742D02*
X36514286Y-2544742D01*
X36514286Y-2544742D02*
X36685715Y-2601885D01*
X36685715Y-2601885D02*
X36800000Y-2716171D01*
X36800000Y-2716171D02*
X36857143Y-2830457D01*
X36857143Y-2830457D02*
X36914286Y-3059028D01*
X36914286Y-3059028D02*
X36914286Y-3230457D01*
X36914286Y-3230457D02*
X36857143Y-3459028D01*
X36857143Y-3459028D02*
X36800000Y-3573314D01*
X36800000Y-3573314D02*
X36685715Y-3687600D01*
X36685715Y-3687600D02*
X36514286Y-3744742D01*
X36514286Y-3744742D02*
X36228572Y-3744742D01*
X38114286Y-3744742D02*
X37714286Y-3173314D01*
X37428572Y-3744742D02*
X37428572Y-2544742D01*
X37428572Y-2544742D02*
X37885715Y-2544742D01*
X37885715Y-2544742D02*
X38000000Y-2601885D01*
X38000000Y-2601885D02*
X38057143Y-2659028D01*
X38057143Y-2659028D02*
X38114286Y-2773314D01*
X38114286Y-2773314D02*
X38114286Y-2944742D01*
X38114286Y-2944742D02*
X38057143Y-3059028D01*
X38057143Y-3059028D02*
X38000000Y-3116171D01*
X38000000Y-3116171D02*
X37885715Y-3173314D01*
X37885715Y-3173314D02*
X37428572Y-3173314D01*
X38628572Y-3744742D02*
X38628572Y-2544742D01*
X39028572Y-2544742D02*
X39428572Y-3744742D01*
X39428572Y-3744742D02*
X39828572Y-2544742D01*
X40228572Y-3116171D02*
X40628572Y-3116171D01*
X40800000Y-3744742D02*
X40228572Y-3744742D01*
X40228572Y-3744742D02*
X40228572Y-2544742D01*
X40228572Y-2544742D02*
X40800000Y-2544742D01*
X42000000Y-3744742D02*
X41600000Y-3173314D01*
X41314286Y-3744742D02*
X41314286Y-2544742D01*
X41314286Y-2544742D02*
X41771429Y-2544742D01*
X41771429Y-2544742D02*
X41885714Y-2601885D01*
X41885714Y-2601885D02*
X41942857Y-2659028D01*
X41942857Y-2659028D02*
X42000000Y-2773314D01*
X42000000Y-2773314D02*
X42000000Y-2944742D01*
X42000000Y-2944742D02*
X41942857Y-3059028D01*
X41942857Y-3059028D02*
X41885714Y-3116171D01*
X41885714Y-3116171D02*
X41771429Y-3173314D01*
X41771429Y-3173314D02*
X41314286Y-3173314D01*
X44342858Y-3744742D02*
X44342858Y-2944742D01*
X44342858Y-3173314D02*
X44400001Y-3059028D01*
X44400001Y-3059028D02*
X44457144Y-3001885D01*
X44457144Y-3001885D02*
X44571429Y-2944742D01*
X44571429Y-2944742D02*
X44685715Y-2944742D01*
X45542858Y-3687600D02*
X45428572Y-3744742D01*
X45428572Y-3744742D02*
X45200001Y-3744742D01*
X45200001Y-3744742D02*
X45085715Y-3687600D01*
X45085715Y-3687600D02*
X45028572Y-3573314D01*
X45028572Y-3573314D02*
X45028572Y-3116171D01*
X45028572Y-3116171D02*
X45085715Y-3001885D01*
X45085715Y-3001885D02*
X45200001Y-2944742D01*
X45200001Y-2944742D02*
X45428572Y-2944742D01*
X45428572Y-2944742D02*
X45542858Y-3001885D01*
X45542858Y-3001885D02*
X45600001Y-3116171D01*
X45600001Y-3116171D02*
X45600001Y-3230457D01*
X45600001Y-3230457D02*
X45028572Y-3344742D01*
X46000000Y-2944742D02*
X46285714Y-3744742D01*
X46285714Y-3744742D02*
X46571429Y-2944742D01*
X47885715Y-3401885D02*
X48457144Y-3401885D01*
X47771429Y-3744742D02*
X48171429Y-2544742D01*
X48171429Y-2544742D02*
X48571429Y-3744742D01*
D10*
X27336779Y-6054819D02*
X27336779Y-6864342D01*
X27336779Y-6864342D02*
X27384398Y-6959580D01*
X27384398Y-6959580D02*
X27432017Y-7007200D01*
X27432017Y-7007200D02*
X27527255Y-7054819D01*
X27527255Y-7054819D02*
X27717731Y-7054819D01*
X27717731Y-7054819D02*
X27812969Y-7007200D01*
X27812969Y-7007200D02*
X27860588Y-6959580D01*
X27860588Y-6959580D02*
X27908207Y-6864342D01*
X27908207Y-6864342D02*
X27908207Y-6054819D01*
X28908207Y-7054819D02*
X28336779Y-7054819D01*
X28622493Y-7054819D02*
X28622493Y-6054819D01*
X28622493Y-6054819D02*
X28527255Y-6197676D01*
X28527255Y-6197676D02*
X28432017Y-6292914D01*
X28432017Y-6292914D02*
X28336779Y-6340533D01*
X47333333Y-40759580D02*
X47285714Y-40807200D01*
X47285714Y-40807200D02*
X47142857Y-40854819D01*
X47142857Y-40854819D02*
X47047619Y-40854819D01*
X47047619Y-40854819D02*
X46904762Y-40807200D01*
X46904762Y-40807200D02*
X46809524Y-40711961D01*
X46809524Y-40711961D02*
X46761905Y-40616723D01*
X46761905Y-40616723D02*
X46714286Y-40426247D01*
X46714286Y-40426247D02*
X46714286Y-40283390D01*
X46714286Y-40283390D02*
X46761905Y-40092914D01*
X46761905Y-40092914D02*
X46809524Y-39997676D01*
X46809524Y-39997676D02*
X46904762Y-39902438D01*
X46904762Y-39902438D02*
X47047619Y-39854819D01*
X47047619Y-39854819D02*
X47142857Y-39854819D01*
X47142857Y-39854819D02*
X47285714Y-39902438D01*
X47285714Y-39902438D02*
X47333333Y-39950057D01*
X47714286Y-39950057D02*
X47761905Y-39902438D01*
X47761905Y-39902438D02*
X47857143Y-39854819D01*
X47857143Y-39854819D02*
X48095238Y-39854819D01*
X48095238Y-39854819D02*
X48190476Y-39902438D01*
X48190476Y-39902438D02*
X48238095Y-39950057D01*
X48238095Y-39950057D02*
X48285714Y-40045295D01*
X48285714Y-40045295D02*
X48285714Y-40140533D01*
X48285714Y-40140533D02*
X48238095Y-40283390D01*
X48238095Y-40283390D02*
X47666667Y-40854819D01*
X47666667Y-40854819D02*
X48285714Y-40854819D01*
X14666666Y-31054819D02*
X14666666Y-31769104D01*
X14666666Y-31769104D02*
X14619047Y-31911961D01*
X14619047Y-31911961D02*
X14523809Y-32007200D01*
X14523809Y-32007200D02*
X14380952Y-32054819D01*
X14380952Y-32054819D02*
X14285714Y-32054819D01*
X15666666Y-32054819D02*
X15095238Y-32054819D01*
X15380952Y-32054819D02*
X15380952Y-31054819D01*
X15380952Y-31054819D02*
X15285714Y-31197676D01*
X15285714Y-31197676D02*
X15190476Y-31292914D01*
X15190476Y-31292914D02*
X15095238Y-31340533D01*
X27628571Y-34362295D02*
X27171428Y-34362295D01*
X27400000Y-34362295D02*
X27400000Y-33562295D01*
X27400000Y-33562295D02*
X27323809Y-33676580D01*
X27323809Y-33676580D02*
X27247619Y-33752771D01*
X27247619Y-33752771D02*
X27171428Y-33790866D01*
X42833333Y-41359580D02*
X42785714Y-41407200D01*
X42785714Y-41407200D02*
X42642857Y-41454819D01*
X42642857Y-41454819D02*
X42547619Y-41454819D01*
X42547619Y-41454819D02*
X42404762Y-41407200D01*
X42404762Y-41407200D02*
X42309524Y-41311961D01*
X42309524Y-41311961D02*
X42261905Y-41216723D01*
X42261905Y-41216723D02*
X42214286Y-41026247D01*
X42214286Y-41026247D02*
X42214286Y-40883390D01*
X42214286Y-40883390D02*
X42261905Y-40692914D01*
X42261905Y-40692914D02*
X42309524Y-40597676D01*
X42309524Y-40597676D02*
X42404762Y-40502438D01*
X42404762Y-40502438D02*
X42547619Y-40454819D01*
X42547619Y-40454819D02*
X42642857Y-40454819D01*
X42642857Y-40454819D02*
X42785714Y-40502438D01*
X42785714Y-40502438D02*
X42833333Y-40550057D01*
X43785714Y-41454819D02*
X43214286Y-41454819D01*
X43500000Y-41454819D02*
X43500000Y-40454819D01*
X43500000Y-40454819D02*
X43404762Y-40597676D01*
X43404762Y-40597676D02*
X43309524Y-40692914D01*
X43309524Y-40692914D02*
X43214286Y-40740533D01*
X55366666Y-34754819D02*
X55366666Y-35469104D01*
X55366666Y-35469104D02*
X55319047Y-35611961D01*
X55319047Y-35611961D02*
X55223809Y-35707200D01*
X55223809Y-35707200D02*
X55080952Y-35754819D01*
X55080952Y-35754819D02*
X54985714Y-35754819D01*
X55795238Y-34850057D02*
X55842857Y-34802438D01*
X55842857Y-34802438D02*
X55938095Y-34754819D01*
X55938095Y-34754819D02*
X56176190Y-34754819D01*
X56176190Y-34754819D02*
X56271428Y-34802438D01*
X56271428Y-34802438D02*
X56319047Y-34850057D01*
X56319047Y-34850057D02*
X56366666Y-34945295D01*
X56366666Y-34945295D02*
X56366666Y-35040533D01*
X56366666Y-35040533D02*
X56319047Y-35183390D01*
X56319047Y-35183390D02*
X55747619Y-35754819D01*
X55747619Y-35754819D02*
X56366666Y-35754819D01*
X33048095Y-31454819D02*
X33048095Y-32264342D01*
X33048095Y-32264342D02*
X33095714Y-32359580D01*
X33095714Y-32359580D02*
X33143333Y-32407200D01*
X33143333Y-32407200D02*
X33238571Y-32454819D01*
X33238571Y-32454819D02*
X33429047Y-32454819D01*
X33429047Y-32454819D02*
X33524285Y-32407200D01*
X33524285Y-32407200D02*
X33571904Y-32359580D01*
X33571904Y-32359580D02*
X33619523Y-32264342D01*
X33619523Y-32264342D02*
X33619523Y-31454819D01*
X34048095Y-31550057D02*
X34095714Y-31502438D01*
X34095714Y-31502438D02*
X34190952Y-31454819D01*
X34190952Y-31454819D02*
X34429047Y-31454819D01*
X34429047Y-31454819D02*
X34524285Y-31502438D01*
X34524285Y-31502438D02*
X34571904Y-31550057D01*
X34571904Y-31550057D02*
X34619523Y-31645295D01*
X34619523Y-31645295D02*
X34619523Y-31740533D01*
X34619523Y-31740533D02*
X34571904Y-31883390D01*
X34571904Y-31883390D02*
X34000476Y-32454819D01*
X34000476Y-32454819D02*
X34619523Y-32454819D01*
%TO.C,U1*%
D12*
X520000Y-16000000D02*
X1340000Y-16000000D01*
X520000Y-24220000D02*
X520000Y-16000000D01*
X520000Y-24220000D02*
X1340000Y-24220000D01*
X1340000Y-16000000D02*
X1340000Y-16210000D01*
X1340000Y-16210000D02*
X2736000Y-16210000D01*
X1340000Y-24010000D02*
X2736000Y-24010000D01*
X1340000Y-24220000D02*
X1340000Y-24010000D01*
X1820000Y-10110000D02*
X1820000Y-12600000D01*
X1820000Y-12600000D02*
X2733520Y-12600000D01*
X1820000Y-13947939D02*
X1820000Y-12600000D01*
X1820000Y-15875000D02*
X1820000Y-14872061D01*
X1820000Y-24345000D02*
X1820000Y-15875000D01*
X1820000Y-25347939D02*
X1820000Y-24345000D01*
X1820000Y-27620000D02*
X1820000Y-26272060D01*
X1820000Y-27620000D02*
X2733520Y-27620000D01*
X1820000Y-30110000D02*
X1820000Y-27620000D01*
X1883000Y-30380000D02*
X52977000Y-30380000D01*
X2430000Y-9500000D02*
X52430000Y-9500000D01*
X2430000Y-30720000D02*
X52430000Y-30720000D01*
X4100000Y-31040000D02*
X2500000Y-31040000D01*
X5124000Y-16210000D02*
X6340000Y-16210000D01*
X5124000Y-24010000D02*
X6340000Y-24010000D01*
X5126480Y-12600000D02*
X49733520Y-12600000D01*
X5126480Y-27620000D02*
X49733520Y-27620000D01*
X6340000Y-16210000D02*
X6340000Y-24010000D01*
X52126480Y-12600000D02*
X53040000Y-12600000D01*
X52126480Y-27620000D02*
X53040000Y-27620000D01*
X52977000Y-9840000D02*
X1883000Y-9840000D01*
X53040000Y-13947939D02*
X53040000Y-10110000D01*
X53040000Y-14872061D02*
X53040000Y-16510000D01*
X53040000Y-16510000D02*
X53040000Y-23710000D01*
X53040000Y-23710000D02*
X53040000Y-25347939D01*
X53040000Y-30110000D02*
X53040000Y-26272061D01*
X1820000Y-10110000D02*
G75*
G02*
X2430000Y-9500000I610000J0D01*
G01*
X2430000Y-30720000D02*
G75*
G02*
X1820000Y-30110000I0J610000D01*
G01*
X52430000Y-9500000D02*
G75*
G02*
X53040000Y-10110000I0J-610000D01*
G01*
X53040000Y-30110000D02*
G75*
G02*
X52430000Y-30720000I-609901J-99D01*
G01*
%TO.C,C2*%
X46460000Y-35000000D02*
X44920000Y-35000000D01*
X46460000Y-35040000D02*
X44920000Y-35040000D01*
X46460000Y-35080000D02*
X44921000Y-35080000D01*
X46460000Y-35120000D02*
X44923000Y-35120000D01*
X46460000Y-35160000D02*
X44925000Y-35160000D01*
X46460000Y-35200000D02*
X44928000Y-35200000D01*
X46460000Y-35240000D02*
X44931000Y-35240000D01*
X46460000Y-35280000D02*
X44935000Y-35280000D01*
X46460000Y-35320000D02*
X44940000Y-35320000D01*
X46460000Y-35360000D02*
X44945000Y-35360000D01*
X46460000Y-35400000D02*
X44951000Y-35400000D01*
X46460000Y-35440000D02*
X44957000Y-35440000D01*
X46460000Y-35480000D02*
X44964000Y-35480000D01*
X46460000Y-35520000D02*
X44972000Y-35520000D01*
X46460000Y-35560000D02*
X44981000Y-35560000D01*
X46460000Y-35600000D02*
X44990000Y-35600000D01*
X46460000Y-35640000D02*
X44999000Y-35640000D01*
X46460000Y-35680000D02*
X45010000Y-35680000D01*
X46460000Y-35720000D02*
X45021000Y-35720000D01*
X46460000Y-35760000D02*
X45033000Y-35760000D01*
X46460000Y-35800000D02*
X45045000Y-35800000D01*
X46460000Y-35840000D02*
X45058000Y-35840000D01*
X46460000Y-35880000D02*
X45072000Y-35880000D01*
X46460000Y-35920000D02*
X45087000Y-35920000D01*
X46460000Y-35960000D02*
X45102000Y-35960000D01*
X46460000Y-36000000D02*
X45118000Y-36000000D01*
X46460000Y-36040000D02*
X45135000Y-36040000D01*
X46460000Y-36080000D02*
X45153000Y-36080000D01*
X46460000Y-36120000D02*
X45171000Y-36120000D01*
X46460000Y-36160000D02*
X45191000Y-36160000D01*
X46460000Y-36200000D02*
X45211000Y-36200000D01*
X46460000Y-36240000D02*
X45232000Y-36240000D01*
X46460000Y-36280000D02*
X45254000Y-36280000D01*
X46460000Y-36320000D02*
X45277000Y-36320000D01*
X46460000Y-36360000D02*
X45301000Y-36360000D01*
X46460000Y-36400000D02*
X45325000Y-36400000D01*
X46460000Y-36440000D02*
X45351000Y-36440000D01*
X46460000Y-36480000D02*
X45378000Y-36480000D01*
X46460000Y-36520000D02*
X45406000Y-36520000D01*
X46460000Y-36560000D02*
X45435000Y-36560000D01*
X46460000Y-36600000D02*
X45465000Y-36600000D01*
X46460000Y-36640000D02*
X45497000Y-36640000D01*
X46460000Y-36680000D02*
X45530000Y-36680000D01*
X46460000Y-36720000D02*
X45564000Y-36720000D01*
X46460000Y-36760000D02*
X45599000Y-36760000D01*
X46460000Y-36800000D02*
X45636000Y-36800000D01*
X46460000Y-36840000D02*
X45675000Y-36840000D01*
X46460000Y-36880000D02*
X45715000Y-36880000D01*
X46460000Y-36920000D02*
X45757000Y-36920000D01*
X46460000Y-36960000D02*
X45801000Y-36960000D01*
X46460000Y-37000000D02*
X45848000Y-37000000D01*
X47783000Y-37600000D02*
X47217000Y-37600000D01*
X48017000Y-37560000D02*
X46983000Y-37560000D01*
X48177000Y-37520000D02*
X46823000Y-37520000D01*
X48305000Y-37480000D02*
X46695000Y-37480000D01*
X48414000Y-37440000D02*
X46586000Y-37440000D01*
X48511000Y-37400000D02*
X46489000Y-37400000D01*
X48598000Y-37360000D02*
X46402000Y-37360000D01*
X48677000Y-37320000D02*
X46323000Y-37320000D01*
X48751000Y-37280000D02*
X46249000Y-37280000D01*
X48819000Y-37240000D02*
X46181000Y-37240000D01*
X48883000Y-37200000D02*
X46117000Y-37200000D01*
X48943000Y-37160000D02*
X46057000Y-37160000D01*
X48975000Y-32195225D02*
X48975000Y-32695225D01*
X48999000Y-37120000D02*
X46001000Y-37120000D01*
X49053000Y-37080000D02*
X45947000Y-37080000D01*
X49104000Y-37040000D02*
X45896000Y-37040000D01*
X49152000Y-37000000D02*
X48540000Y-37000000D01*
X49199000Y-36960000D02*
X48540000Y-36960000D01*
X49225000Y-32445225D02*
X48725000Y-32445225D01*
X49243000Y-36920000D02*
X48540000Y-36920000D01*
X49285000Y-36880000D02*
X48540000Y-36880000D01*
X49325000Y-36840000D02*
X48540000Y-36840000D01*
X49364000Y-36800000D02*
X48540000Y-36800000D01*
X49401000Y-36760000D02*
X48540000Y-36760000D01*
X49436000Y-36720000D02*
X48540000Y-36720000D01*
X49470000Y-36680000D02*
X48540000Y-36680000D01*
X49503000Y-36640000D02*
X48540000Y-36640000D01*
X49535000Y-36600000D02*
X48540000Y-36600000D01*
X49565000Y-36560000D02*
X48540000Y-36560000D01*
X49594000Y-36520000D02*
X48540000Y-36520000D01*
X49622000Y-36480000D02*
X48540000Y-36480000D01*
X49649000Y-36440000D02*
X48540000Y-36440000D01*
X49675000Y-36400000D02*
X48540000Y-36400000D01*
X49699000Y-36360000D02*
X48540000Y-36360000D01*
X49723000Y-36320000D02*
X48540000Y-36320000D01*
X49746000Y-36280000D02*
X48540000Y-36280000D01*
X49768000Y-36240000D02*
X48540000Y-36240000D01*
X49789000Y-36200000D02*
X48540000Y-36200000D01*
X49809000Y-36160000D02*
X48540000Y-36160000D01*
X49829000Y-36120000D02*
X48540000Y-36120000D01*
X49847000Y-36080000D02*
X48540000Y-36080000D01*
X49865000Y-36040000D02*
X48540000Y-36040000D01*
X49882000Y-36000000D02*
X48540000Y-36000000D01*
X49898000Y-35960000D02*
X48540000Y-35960000D01*
X49913000Y-35920000D02*
X48540000Y-35920000D01*
X49928000Y-35880000D02*
X48540000Y-35880000D01*
X49942000Y-35840000D02*
X48540000Y-35840000D01*
X49955000Y-35800000D02*
X48540000Y-35800000D01*
X49967000Y-35760000D02*
X48540000Y-35760000D01*
X49979000Y-35720000D02*
X48540000Y-35720000D01*
X49990000Y-35680000D02*
X48540000Y-35680000D01*
X50001000Y-35640000D02*
X48540000Y-35640000D01*
X50010000Y-35600000D02*
X48540000Y-35600000D01*
X50019000Y-35560000D02*
X48540000Y-35560000D01*
X50028000Y-35520000D02*
X48540000Y-35520000D01*
X50036000Y-35480000D02*
X48540000Y-35480000D01*
X50043000Y-35440000D02*
X48540000Y-35440000D01*
X50049000Y-35400000D02*
X48540000Y-35400000D01*
X50055000Y-35360000D02*
X48540000Y-35360000D01*
X50060000Y-35320000D02*
X48540000Y-35320000D01*
X50065000Y-35280000D02*
X48540000Y-35280000D01*
X50069000Y-35240000D02*
X48540000Y-35240000D01*
X50072000Y-35200000D02*
X48540000Y-35200000D01*
X50075000Y-35160000D02*
X48540000Y-35160000D01*
X50077000Y-35120000D02*
X48540000Y-35120000D01*
X50079000Y-35080000D02*
X48540000Y-35080000D01*
X50080000Y-35000000D02*
X48540000Y-35000000D01*
X50080000Y-35040000D02*
X48540000Y-35040000D01*
X50120000Y-35000000D02*
G75*
G02*
X44880000Y-35000000I-2620000J0D01*
G01*
X44880000Y-35000000D02*
G75*
G02*
X50120000Y-35000000I2620000J0D01*
G01*
%TO.C,J1*%
D10*
X25900000Y-32730000D02*
X25900000Y-35270000D01*
X25900000Y-32730000D02*
X26900000Y-32730000D01*
D12*
X7370000Y-32610000D02*
X25390000Y-32610000D01*
X25390000Y-53170000D01*
X7370000Y-53170000D01*
X7370000Y-32610000D01*
%TO.C,C1*%
X41630000Y-33880000D02*
X41967000Y-33880000D01*
X41630000Y-39120000D02*
X41630000Y-33880000D01*
X41967000Y-39120000D02*
X41630000Y-39120000D01*
X44033000Y-33880000D02*
X44370000Y-33880000D01*
X44370000Y-33880000D02*
X44370000Y-39120000D01*
X44370000Y-39120000D02*
X44033000Y-39120000D01*
%TO.C,J2*%
X51220000Y-32620000D02*
X52600000Y-32620000D01*
X51220000Y-34000000D02*
X51220000Y-32620000D01*
X51220000Y-35270000D02*
X51220000Y-37920000D01*
X51220000Y-35270000D02*
X53980000Y-35270000D01*
X51220000Y-37920000D02*
X53980000Y-37920000D01*
X53980000Y-35270000D02*
X53980000Y-37920000D01*
%TO.C,U2*%
X31160000Y-32670000D02*
X31160000Y-53110000D01*
X31160000Y-53110000D02*
X36460000Y-53110000D01*
X32810000Y-32670000D02*
X31160000Y-32670000D01*
X36460000Y-32670000D02*
X34810000Y-32670000D01*
X36460000Y-53110000D02*
X36460000Y-32670000D01*
X34810000Y-32670000D02*
G75*
G02*
X32810000Y-32670000I-1000000J0D01*
G01*
%TD*%
M02*
