M48
; DRILL file KiCad 10.0.6 date 2026-09-18T16:51:55
; FORMAT={-:-/ absolute / metric / decimal}
; #@! TF.CreationDate,2026-09-18T16:51:55-05:00
; #@! TF.GenerationSoftware,Kicad,Pcbnew,10.0.6
; #@! TF.FileFunction,MixedPlating,1,2
FMAT,2
METRIC
; #@! TA.AperFunction,Plated,PTH,ComponentDrill
T1C0.800
; #@! TA.AperFunction,Plated,PTH,ComponentDrill
T2C1.000
; #@! TA.AperFunction,NonPlated,NPTH,ComponentDrill
T3C3.200
%
G90
G05
T1
X30.0Y-34.0
X30.0Y-36.54
X30.0Y-39.08
X30.0Y-41.62
X30.0Y-44.16
X30.0Y-46.7
X30.0Y-49.24
X30.0Y-51.78
X37.62Y-34.0
X37.62Y-36.54
X37.62Y-39.08
X37.62Y-41.62
X37.62Y-44.16
X37.62Y-46.7
X37.62Y-49.24
X37.62Y-51.78
X43.0Y-34.0
X43.0Y-39.0
X47.5Y-34.0
X47.5Y-36.0
T2
X3.3Y-11.22
X3.3Y-29.0
X5.84Y-11.22
X5.84Y-29.0
X8.38Y-11.22
X8.38Y-29.0
X10.92Y-11.22
X10.92Y-29.0
X13.46Y-11.22
X13.46Y-29.0
X16.0Y-11.22
X16.0Y-29.0
X18.54Y-11.22
X18.54Y-29.0
X21.08Y-11.22
X21.08Y-29.0
X23.62Y-11.22
X23.62Y-29.0
X24.0Y-34.0
X24.0Y-36.54
X24.0Y-39.08
X24.0Y-41.62
X24.0Y-44.16
X24.0Y-46.7
X24.0Y-49.24
X24.0Y-51.78
X26.16Y-11.22
X26.16Y-29.0
X28.7Y-11.22
X28.7Y-29.0
X31.24Y-11.22
X31.24Y-29.0
X33.78Y-11.22
X33.78Y-29.0
X36.32Y-11.22
X36.32Y-29.0
X38.86Y-11.22
X38.86Y-29.0
X41.4Y-11.22
X41.4Y-29.0
X43.94Y-11.22
X43.94Y-29.0
X46.48Y-11.22
X46.48Y-29.0
X49.02Y-11.22
X49.02Y-29.0
X51.56Y-11.22
X51.56Y-29.0
X52.6Y-34.0
X52.6Y-36.54
T3
X3.5Y-3.5
X3.5Y-52.5
X58.5Y-3.5
X58.5Y-52.5
M30
