M48
; DRILL file KiCad 10.0.6 date 2026-09-29T12:10:47
; FORMAT={-:-/ absolute / metric / decimal}
; #@! TF.CreationDate,2026-09-29T12:10:47-05:00
; #@! TF.GenerationSoftware,Kicad,Pcbnew,10.0.6
; #@! TF.FileFunction,MixedPlating,1,2
FMAT,2
METRIC
; #@! TA.AperFunction,Plated,PTH,ViaDrill
T1C0.400
; #@! TA.AperFunction,Plated,PTH,ComponentDrill
T2C0.914
; #@! TA.AperFunction,Plated,PTH,ComponentDrill
T3C1.000
; #@! TA.AperFunction,Plated,PTH,ComponentDrill
T4C1.100
; #@! TA.AperFunction,Plated,PTH,ComponentDrill
T5C1.400
; #@! TA.AperFunction,NonPlated,NPTH,ComponentDrill
T6C2.700
; #@! TA.AperFunction,NonPlated,NPTH,ComponentDrill
T7C3.400
%
G90
G05
T1
X2.5Y14.5
X3.0Y20.5
X3.0Y10.5
X3.9Y17.675
X12.9Y12.6
X15.5Y1.4
X16.0Y6.7
X16.3Y16.1
X17.5Y15.15
X23.5Y13.0
X23.7Y20.1
X28.3Y21.3
X28.3Y20.2
X30.0Y8.4
X31.0Y1.1
X32.2Y17.64
X35.9Y16.37
X36.5Y1.0
X36.9Y18.91
X38.85Y23.9
X41.05Y21.44
X41.2Y17.63
X41.8Y20.17
X42.2Y15.09
X42.9Y16.36
X43.0Y2.1
X44.7Y0.8
X47.5Y3.0
X52.8Y12.55
X54.6Y16.4
X56.5Y21.5
X60.5Y18.0
X60.5Y9.5
X62.8Y14.5
T2
X45.43Y9.85
X46.45Y8.07
X47.47Y9.85
X48.49Y8.07
X49.51Y9.85
X50.53Y8.07
X51.55Y9.85
X52.57Y8.07
T3
X23.46Y17.6
X26.0Y17.6
X28.54Y17.6
T4
X8.37Y27.77
X8.37Y25.23
X10.91Y27.77
X10.91Y25.23
X13.45Y27.77
X13.45Y25.23
X15.99Y27.77
X15.99Y25.23
X18.53Y27.77
X18.53Y25.23
X21.07Y27.77
X21.07Y25.23
X23.61Y27.77
X23.61Y25.23
X26.15Y27.77
X26.15Y25.23
X28.69Y27.77
X28.69Y25.23
X31.23Y27.77
X31.23Y25.23
X33.77Y27.77
X33.77Y25.23
X36.31Y27.77
X36.31Y25.23
X38.85Y27.77
X38.85Y25.23
X41.39Y27.77
X41.39Y25.23
X43.93Y27.77
X43.93Y25.23
X46.47Y27.77
X46.47Y25.23
X49.01Y27.77
X49.01Y25.23
X51.55Y27.77
X51.55Y25.23
X54.09Y27.77
X54.09Y25.23
X56.63Y27.77
X56.63Y25.23
T5
X10.0Y4.1
X15.0Y4.1
T6
X3.5Y26.5
X3.5Y3.5
X61.5Y26.5
X61.5Y3.5
T7
X42.65Y5.53
X55.35Y5.53
M30
