%TF.GenerationSoftware,KiCad,Pcbnew,10.0.6*%
%TF.CreationDate,2026-09-29T12:10:46-05:00*%
%TF.ProjectId,difftx,64696666-7478-42e6-9b69-6361645f7063,rev?*%
%TF.SameCoordinates,Original*%
%TF.FileFunction,Legend,Bot*%
%TF.FilePolarity,Positive*%
%FSLAX46Y46*%
G04 Gerber Fmt 4.6, Leading zero omitted, Abs format (unit mm)*
G04 Created by KiCad (PCBNEW 10.0.6) date 2026-09-29 12:10:46*
%MOMM*%
%LPD*%
G01*
G04 APERTURE LIST*
%ADD10C,0.120000*%
%ADD11C,0.250000*%
%ADD12C,0.060000*%
%ADD13C,2.700000*%
%ADD14C,2.200000*%
%ADD15C,1.600000*%
%ADD16C,3.400000*%
%ADD17C,1.524000*%
%ADD18R,1.700000X1.700000*%
%ADD19C,1.700000*%
G04 APERTURE END LIST*
D10*
X9809523Y22969479D02*
X9809523Y22169479D01*
X9809523Y22931383D02*
X9733333Y22969479D01*
X9733333Y22969479D02*
X9580952Y22969479D01*
X9580952Y22969479D02*
X9504761Y22931383D01*
X9504761Y22931383D02*
X9466666Y22893288D01*
X9466666Y22893288D02*
X9428571Y22817098D01*
X9428571Y22817098D02*
X9428571Y22588526D01*
X9428571Y22588526D02*
X9466666Y22512336D01*
X9466666Y22512336D02*
X9504761Y22474240D01*
X9504761Y22474240D02*
X9580952Y22436145D01*
X9580952Y22436145D02*
X9733333Y22436145D01*
X9733333Y22436145D02*
X9809523Y22474240D01*
X9085713Y22436145D02*
X9085713Y22969479D01*
X9085713Y23236145D02*
X9123809Y23198050D01*
X9123809Y23198050D02*
X9085713Y23159955D01*
X9085713Y23159955D02*
X9047618Y23198050D01*
X9047618Y23198050D02*
X9085713Y23236145D01*
X9085713Y23236145D02*
X9085713Y23159955D01*
X8704761Y22969479D02*
X8704761Y22436145D01*
X8704761Y22893288D02*
X8666666Y22931383D01*
X8666666Y22931383D02*
X8590476Y22969479D01*
X8590476Y22969479D02*
X8476190Y22969479D01*
X8476190Y22969479D02*
X8399999Y22931383D01*
X8399999Y22931383D02*
X8361904Y22855193D01*
X8361904Y22855193D02*
X8361904Y22436145D01*
X6952380Y22436145D02*
X7409523Y22436145D01*
X7180951Y22436145D02*
X7180951Y23236145D01*
X7180951Y23236145D02*
X7257142Y23121860D01*
X7257142Y23121860D02*
X7333332Y23045669D01*
X7333332Y23045669D02*
X7409523Y23007574D01*
%TO.C,J3*%
D11*
X6850000Y29000000D02*
X58150000Y29000000D01*
X6850000Y26510000D02*
X9650000Y26510000D01*
X6850000Y24000000D02*
X6850000Y29000000D01*
X9650000Y26510000D02*
X9650000Y29000000D01*
X58150000Y29000000D02*
X58150000Y24000000D01*
X58150000Y24000000D02*
X6850000Y24000000D01*
D12*
X6880000Y29000000D02*
G75*
G02*
X6820000Y29000000I-30000J0D01*
G01*
X6820000Y29000000D02*
G75*
G02*
X6880000Y29000000I30000J0D01*
G01*
%TD*%
%LPC*%
D13*
%TO.C,H4*%
X61500000Y3500000D03*
%TD*%
D14*
%TO.C,J4*%
X10000000Y4100000D03*
X15000000Y4100000D03*
%TD*%
D13*
%TO.C,H2*%
X61500000Y26500000D03*
%TD*%
D15*
%TO.C,U4*%
X23460000Y17600000D03*
X26000000Y17600000D03*
X28540000Y17600000D03*
%TD*%
D13*
%TO.C,H1*%
X3500000Y26500000D03*
%TD*%
D16*
%TO.C,J1*%
X42650000Y5530000D03*
X55350000Y5530000D03*
D17*
X52570000Y8070000D03*
X51550000Y9850000D03*
X50530000Y8070000D03*
X49510000Y9850000D03*
X48490000Y8070000D03*
X47470000Y9850000D03*
X46450000Y8070000D03*
X45430000Y9850000D03*
%TD*%
D13*
%TO.C,H3*%
X3500000Y3500000D03*
%TD*%
D18*
%TO.C,J3*%
X8370000Y25230000D03*
D19*
X8370000Y27770000D03*
X10910000Y25230000D03*
X10910000Y27770000D03*
X13450000Y25230000D03*
X13450000Y27770000D03*
X15990000Y25230000D03*
X15990000Y27770000D03*
X18530000Y25230000D03*
X18530000Y27770000D03*
X21070000Y25230000D03*
X21070000Y27770000D03*
X23610000Y25230000D03*
X23610000Y27770000D03*
X26150000Y25230000D03*
X26150000Y27770000D03*
X28690000Y25230000D03*
X28690000Y27770000D03*
X31230000Y25230000D03*
X31230000Y27770000D03*
X33770000Y25230000D03*
X33770000Y27770000D03*
X36310000Y25230000D03*
X36310000Y27770000D03*
X38850000Y25230000D03*
X38850000Y27770000D03*
X41390000Y25230000D03*
X41390000Y27770000D03*
X43930000Y25230000D03*
X43930000Y27770000D03*
X46470000Y25230000D03*
X46470000Y27770000D03*
X49010000Y25230000D03*
X49010000Y27770000D03*
X51550000Y25230000D03*
X51550000Y27770000D03*
X54090000Y25230000D03*
X54090000Y27770000D03*
X56630000Y25230000D03*
X56630000Y27770000D03*
%TD*%
%LPD*%
M02*
