%TF.GenerationSoftware,KiCad,Pcbnew,10.0.6*%
%TF.CreationDate,2026-09-29T12:10:46-05:00*%
%TF.ProjectId,difftx,64696666-7478-42e6-9b69-6361645f7063,rev?*%
%TF.SameCoordinates,Original*%
%TF.FileFunction,Soldermask,Bot*%
%TF.FilePolarity,Negative*%
%FSLAX46Y46*%
G04 Gerber Fmt 4.6, Leading zero omitted, Abs format (unit mm)*
G04 Created by KiCad (PCBNEW 10.0.6) date 2026-09-29 12:10:46*
%MOMM*%
%LPD*%
G01*
G04 APERTURE LIST*
%ADD10C,2.700000*%
%ADD11C,2.200000*%
%ADD12C,1.600000*%
%ADD13C,3.400000*%
%ADD14C,1.524000*%
%ADD15R,1.700000X1.700000*%
%ADD16C,1.700000*%
G04 APERTURE END LIST*
D10*
%TO.C,H4*%
X61500000Y3500000D03*
%TD*%
D11*
%TO.C,J4*%
X10000000Y4100000D03*
X15000000Y4100000D03*
%TD*%
D10*
%TO.C,H2*%
X61500000Y26500000D03*
%TD*%
D12*
%TO.C,U4*%
X23460000Y17600000D03*
X26000000Y17600000D03*
X28540000Y17600000D03*
%TD*%
D10*
%TO.C,H1*%
X3500000Y26500000D03*
%TD*%
D13*
%TO.C,J1*%
X42650000Y5530000D03*
X55350000Y5530000D03*
D14*
X52570000Y8070000D03*
X51550000Y9850000D03*
X50530000Y8070000D03*
X49510000Y9850000D03*
X48490000Y8070000D03*
X47470000Y9850000D03*
X46450000Y8070000D03*
X45430000Y9850000D03*
%TD*%
D10*
%TO.C,H3*%
X3500000Y3500000D03*
%TD*%
D15*
%TO.C,J3*%
X8370000Y25230000D03*
D16*
X8370000Y27770000D03*
X10910000Y25230000D03*
X10910000Y27770000D03*
X13450000Y25230000D03*
X13450000Y27770000D03*
X15990000Y25230000D03*
X15990000Y27770000D03*
X18530000Y25230000D03*
X18530000Y27770000D03*
X21070000Y25230000D03*
X21070000Y27770000D03*
X23610000Y25230000D03*
X23610000Y27770000D03*
X26150000Y25230000D03*
X26150000Y27770000D03*
X28690000Y25230000D03*
X28690000Y27770000D03*
X31230000Y25230000D03*
X31230000Y27770000D03*
X33770000Y25230000D03*
X33770000Y27770000D03*
X36310000Y25230000D03*
X36310000Y27770000D03*
X38850000Y25230000D03*
X38850000Y27770000D03*
X41390000Y25230000D03*
X41390000Y27770000D03*
X43930000Y25230000D03*
X43930000Y27770000D03*
X46470000Y25230000D03*
X46470000Y27770000D03*
X49010000Y25230000D03*
X49010000Y27770000D03*
X51550000Y25230000D03*
X51550000Y27770000D03*
X54090000Y25230000D03*
X54090000Y27770000D03*
X56630000Y25230000D03*
X56630000Y27770000D03*
%TD*%
M02*
