M48
; DRILL file KiCad 10.0.6 date 2026-09-20T11:46:15
; FORMAT={-:-/ absolute / metric / decimal}
; #@! TF.CreationDate,2026-09-20T11:46:15-05:00
; #@! TF.GenerationSoftware,Kicad,Pcbnew,10.0.6
; #@! TF.FileFunction,MixedPlating,1,4
FMAT,2
METRIC
; #@! TA.AperFunction,Plated,PTH,ViaDrill
T1C0.300
; #@! TA.AperFunction,Plated,PTH,ViaDrill
T2C0.400
; #@! TA.AperFunction,Plated,PTH,ComponentDrill
T3C0.914
; #@! TA.AperFunction,Plated,PTH,ComponentDrill
T4C1.100
; #@! TA.AperFunction,Plated,PTH,ComponentDrill
T5C1.200
; #@! TA.AperFunction,Plated,PTH,ComponentDrill
T6C1.400
; #@! TA.AperFunction,Plated,PTH,ComponentDrill
T7C1.800
; #@! TA.AperFunction,Plated,PTH,ComponentDrill
T8C2.000
; #@! TA.AperFunction,NonPlated,NPTH,ComponentDrill
T9C3.000
; #@! TA.AperFunction,NonPlated,NPTH,ComponentDrill
T10C3.200
; #@! TA.AperFunction,NonPlated,NPTH,ComponentDrill
T11C3.400
%
G90
G05
T1
X3.0Y76.6
X5.29Y77.9
X6.037Y71.0
X9.3Y78.7
X13.243Y20.793
X14.175Y68.0
X14.4Y24.1
X15.283Y61.076
X15.6Y75.7
X16.2Y43.3
X16.8Y62.8
X16.8Y54.4
X17.05Y78.5
X19.283Y40.576
X19.283Y29.076
X20.7Y38.8
X20.7Y31.0
X21.9Y56.8
X21.9Y50.2
X23.1Y73.0
X23.1Y68.5
X23.4Y58.0
X23.4Y54.4
X23.4Y50.2
X23.617Y24.874
X24.3Y22.6
X24.468Y68.293
X24.6Y71.8
X25.2Y42.1
X25.8Y61.3
X25.8Y28.0
X26.4Y37.3
X26.4Y30.4
X27.0Y56.8
X27.0Y49.3
X27.3Y23.5
X29.0Y53.17
X29.0Y46.83
X30.6Y50.63
X31.5Y54.45
X31.5Y48.1
X32.4Y62.5
X33.0Y41.8
X33.3Y22.3
X34.184Y45.167
X34.8Y42.4
X35.7Y75.7
X35.7Y63.7
X35.792Y68.076
X36.208Y29.076
X36.9Y55.9
X37.05Y78.5
X37.2Y23.2
X38.4Y61.3
X38.4Y54.7
X39.6Y41.8
X41.6Y49.37
X42.517Y42.924
X42.6Y55.6
X43.0Y45.55
X43.5Y68.5
X43.5Y62.8
X43.8Y49.3
X44.4Y23.0
X44.7Y58.6
X44.7Y55.6
X45.0Y53.17
X45.0Y39.0
X45.9Y24.1
X47.0Y51.9
X47.0Y37.5
X47.175Y68.0
X47.4Y61.6
X48.397Y27.293
X51.0Y61.6
X52.383Y27.076
X52.5Y76.9
X52.5Y52.3
X52.8Y48.1
X53.1Y69.4
X53.243Y20.793
X53.7Y50.5
X54.3Y24.1
X54.825Y46.0
X56.383Y27.076
X57.05Y78.5
X57.468Y68.293
X57.6Y76.9
X58.5Y57.4
X58.8Y73.6
X59.7Y69.1
X59.825Y66.0
X60.255Y57.293
X60.3Y67.3
X61.5Y60.1
X62.037Y74.0
X62.7Y71.5
X62.7Y69.1
X64.037Y58.0
X65.1Y74.2
X65.1Y59.5
X65.4Y71.8
X66.29Y75.9
X66.29Y74.63
X67.2Y73.3
X67.31Y30.5
X68.7Y74.5
X68.7Y72.1
X69.676Y64.283
X69.786Y76.283
X69.9Y60.1
X73.243Y20.793
X74.4Y24.1
X74.69Y30.5
X75.0Y70.0
X75.0Y64.3
X75.0Y58.3
X75.6Y75.7
X77.05Y78.5
X83.73Y30.5
X83.825Y64.0
X83.825Y58.0
X83.912Y70.0
X90.27Y30.5
X92.4Y29.5
X93.243Y20.793
X93.9Y31.3
X95.7Y75.7
X97.05Y78.5
X97.2Y23.2
X97.251Y46.883
X97.8Y71.8
X98.792Y30.576
X99.9Y72.4
X100.8Y52.0
X102.05Y53.0
X102.475Y28.0
X105.825Y47.5
X108.14Y30.0
X112.5Y76.9
X113.19Y46.5
X113.243Y20.793
X113.86Y30.0
X114.0Y78.1
X114.0Y75.7
X114.3Y24.1
X117.05Y78.5
X120.037Y32.5
X120.037Y28.0
X126.037Y30.0
T2
X64.0Y55.0
X64.0Y51.0
X64.0Y38.5
X64.0Y35.5
X67.0Y55.0
X67.0Y51.0
X68.0Y38.5
X68.0Y35.5
X70.0Y55.0
X70.0Y51.0
X72.0Y38.5
X72.0Y35.5
X73.0Y55.0
X73.0Y51.0
X76.0Y55.0
X76.0Y51.0
X76.0Y38.5
X76.0Y35.5
X79.0Y55.0
X79.0Y51.0
X80.0Y38.5
X80.0Y35.5
X82.0Y55.0
X82.0Y51.0
X84.0Y38.5
X84.0Y35.5
X85.0Y55.0
X85.0Y51.0
X88.0Y55.0
X88.0Y51.0
X88.0Y38.5
X88.0Y35.5
X91.0Y55.0
X91.0Y51.0
X92.0Y38.5
X92.0Y35.5
X94.0Y55.0
X94.0Y51.0
X96.0Y38.5
X96.0Y35.5
X97.0Y55.0
X97.0Y51.0
X100.0Y35.5
X104.0Y35.5
X106.0Y56.0
X106.0Y52.5
X108.0Y35.5
X110.0Y56.0
X110.0Y52.5
X112.0Y35.5
X114.0Y56.0
X114.0Y52.5
X116.0Y35.5
X118.0Y56.0
X118.0Y52.5
X120.0Y35.5
X122.0Y56.0
X124.0Y66.0
X124.0Y62.0
X124.0Y58.0
X124.0Y35.5
T3
X7.47Y52.55
X7.47Y50.51
X7.47Y48.47
X7.47Y46.43
X9.25Y53.57
X9.25Y51.53
X9.25Y49.49
X9.25Y47.45
T4
X101.19Y76.0
X103.73Y76.0
X106.27Y76.0
X108.81Y76.0
T5
X9.9Y85.0
X9.9Y17.0
X20.1Y83.0
X20.1Y15.0
X29.9Y85.0
X29.9Y17.0
X40.1Y83.0
X40.1Y15.0
X49.9Y85.0
X49.9Y17.0
X60.1Y83.0
X60.1Y15.0
X69.9Y85.0
X69.9Y17.0
X80.1Y83.0
X80.1Y15.0
X89.9Y85.0
X89.9Y17.0
X100.1Y83.0
X100.1Y15.0
X109.9Y85.0
X109.9Y17.0
X120.1Y83.0
X120.1Y15.0
T6
X7.0Y33.0
X7.0Y28.0
X7.0Y23.0
X10.0Y95.5
X10.0Y4.5
X15.0Y95.5
X15.0Y4.5
X20.0Y95.5
X20.0Y4.5
X30.0Y95.5
X30.0Y4.5
X35.0Y95.5
X35.0Y4.5
X40.0Y95.5
X40.0Y4.5
X50.0Y95.5
X50.0Y4.5
X55.0Y95.5
X55.0Y4.5
X60.0Y95.5
X60.0Y4.5
X70.0Y95.5
X70.0Y4.5
X75.0Y95.5
X75.0Y4.5
X80.0Y95.5
X80.0Y4.5
X90.0Y95.5
X90.0Y4.5
X95.0Y95.5
X95.0Y4.5
X100.0Y95.5
X100.0Y4.5
X110.0Y95.5
X110.0Y4.5
X115.0Y95.5
X115.0Y4.5
X120.0Y95.5
X120.0Y4.5
T7
X93.26Y68.7
X93.26Y65.3
X106.74Y68.7
X106.74Y65.3
T8
X122.4Y51.75
X122.4Y42.25
T9
X5.0Y88.5
X5.0Y11.5
X25.0Y88.5
X25.0Y11.5
X45.0Y88.5
X45.0Y11.5
X65.0Y88.5
X65.0Y11.5
X85.0Y88.5
X85.0Y11.5
X105.0Y88.5
X105.0Y11.5
X125.0Y88.5
X125.0Y11.5
T10
X4.0Y96.0
X4.0Y4.0
X126.0Y96.0
X126.0Y4.0
T11
X4.93Y56.35
X4.93Y43.65
M30
