%TF.GenerationSoftware,KiCad,Pcbnew,10.0.6*%
%TF.CreationDate,2026-09-20T11:46:14-05:00*%
%TF.ProjectId,diffrx,64696666-7278-42e6-9b69-6361645f7063,rev?*%
%TF.SameCoordinates,Original*%
%TF.FileFunction,Legend,Top*%
%TF.FilePolarity,Positive*%
%FSLAX46Y46*%
G04 Gerber Fmt 4.6, Leading zero omitted, Abs format (unit mm)*
G04 Created by KiCad (PCBNEW 10.0.6) date 2026-09-20 11:46:14*
%MOMM*%
%LPD*%
G01*
G04 APERTURE LIST*
G04 Aperture macros list*
%AMRoundRect*
0 Rectangle with rounded corners*
0 $1 Rounding radius*
0 $2 $3 $4 $5 $6 $7 $8 $9 X,Y pos of 4 corners*
0 Add a 4 corners polygon primitive as box body*
4,1,4,$2,$3,$4,$5,$6,$7,$8,$9,$2,$3,0*
0 Add four circle primitives for the rounded corners*
1,1,$1+$1,$2,$3*
1,1,$1+$1,$4,$5*
1,1,$1+$1,$6,$7*
1,1,$1+$1,$8,$9*
0 Add four rect primitives between the rounded corners*
20,1,$1+$1,$2,$3,$4,$5,0*
20,1,$1+$1,$4,$5,$6,$7,0*
20,1,$1+$1,$6,$7,$8,$9,0*
20,1,$1+$1,$8,$9,$2,$3,0*%
G04 Aperture macros list end*
%ADD10C,0.150000*%
%ADD11C,0.180000*%
%ADD12C,0.195000*%
%ADD13C,0.210000*%
%ADD14C,0.060000*%
%ADD15C,0.250000*%
%ADD16C,0.300000*%
%ADD17C,0.000000*%
%ADD18RoundRect,0.200000X-0.200000X-0.275000X0.200000X-0.275000X0.200000X0.275000X-0.200000X0.275000X0*%
%ADD19C,3.000000*%
%ADD20R,1.000000X1.400000*%
%ADD21R,1.700000X1.700000*%
%ADD22C,1.700000*%
%ADD23C,3.200000*%
%ADD24C,2.200000*%
%ADD25R,1.300000X2.800000*%
%ADD26R,6.000000X6.500000*%
%ADD27RoundRect,0.200000X0.200000X0.275000X-0.200000X0.275000X-0.200000X-0.275000X0.200000X-0.275000X0*%
%ADD28R,2.465000X1.050000*%
%ADD29R,2.465000X3.540000*%
%ADD30RoundRect,0.250000X-0.262500X-0.450000X0.262500X-0.450000X0.262500X0.450000X-0.262500X0.450000X0*%
%ADD31O,1.950000X0.568000*%
%ADD32RoundRect,0.250000X-0.325000X-0.650000X0.325000X-0.650000X0.325000X0.650000X-0.325000X0.650000X0*%
%ADD33RoundRect,0.250000X-0.337500X-0.475000X0.337500X-0.475000X0.337500X0.475000X-0.337500X0.475000X0*%
%ADD34C,1.500000*%
%ADD35R,1.485000X2.781000*%
%ADD36R,1.000000X0.650000*%
%ADD37C,2.800000*%
%ADD38O,1.800000X0.588000*%
%ADD39RoundRect,0.250000X-0.312500X-0.625000X0.312500X-0.625000X0.312500X0.625000X-0.312500X0.625000X0*%
%ADD40R,2.000000X2.000000*%
%ADD41R,1.037000X0.532000*%
%ADD42R,0.950000X1.150000*%
%ADD43C,2.500000*%
%ADD44C,3.400000*%
%ADD45C,1.400000*%
%ADD46R,2.700000X3.300000*%
%ADD47O,1.971000X0.602000*%
%ADD48R,4.200000X1.400000*%
G04 APERTURE END LIST*
D10*
X4023810Y86545181D02*
X4595238Y86545181D01*
X4309524Y85545181D02*
X4309524Y86545181D01*
X4928572Y85545181D02*
X4928572Y86545181D01*
X5404762Y86068991D02*
X5738095Y86068991D01*
X5880952Y85545181D02*
X5404762Y85545181D01*
X5404762Y85545181D02*
X5404762Y86545181D01*
X5404762Y86545181D02*
X5880952Y86545181D01*
X4023810Y14545181D02*
X4595238Y14545181D01*
X4309524Y13545181D02*
X4309524Y14545181D01*
X4928572Y13545181D02*
X4928572Y14545181D01*
X5404762Y14068991D02*
X5738095Y14068991D01*
X5880952Y13545181D02*
X5404762Y13545181D01*
X5404762Y13545181D02*
X5404762Y14545181D01*
X5404762Y14545181D02*
X5880952Y14545181D01*
X333333Y63045181D02*
X333333Y64045181D01*
X333333Y64045181D02*
X714285Y64045181D01*
X714285Y64045181D02*
X809523Y63997562D01*
X809523Y63997562D02*
X857142Y63949943D01*
X857142Y63949943D02*
X904761Y63854705D01*
X904761Y63854705D02*
X904761Y63711848D01*
X904761Y63711848D02*
X857142Y63616610D01*
X857142Y63616610D02*
X809523Y63568991D01*
X809523Y63568991D02*
X714285Y63521372D01*
X714285Y63521372D02*
X333333Y63521372D01*
X1857142Y63045181D02*
X1285714Y63045181D01*
X1571428Y63045181D02*
X1571428Y64045181D01*
X1571428Y64045181D02*
X1476190Y63902324D01*
X1476190Y63902324D02*
X1380952Y63807086D01*
X1380952Y63807086D02*
X1285714Y63759467D01*
X2285714Y63568991D02*
X3047619Y63568991D01*
X3047619Y63283277D02*
X2285714Y63283277D01*
X4047618Y63045181D02*
X3476190Y63045181D01*
X3761904Y63045181D02*
X3761904Y64045181D01*
X3761904Y64045181D02*
X3666666Y63902324D01*
X3666666Y63902324D02*
X3571428Y63807086D01*
X3571428Y63807086D02*
X3476190Y63759467D01*
X5190475Y64092800D02*
X4333333Y62807086D01*
X5476190Y63949943D02*
X5523809Y63997562D01*
X5523809Y63997562D02*
X5619047Y64045181D01*
X5619047Y64045181D02*
X5857142Y64045181D01*
X5857142Y64045181D02*
X5952380Y63997562D01*
X5952380Y63997562D02*
X5999999Y63949943D01*
X5999999Y63949943D02*
X6047618Y63854705D01*
X6047618Y63854705D02*
X6047618Y63759467D01*
X6047618Y63759467D02*
X5999999Y63616610D01*
X5999999Y63616610D02*
X5428571Y63045181D01*
X5428571Y63045181D02*
X6047618Y63045181D01*
X8000000Y63045181D02*
X8000000Y64045181D01*
X8000000Y64045181D02*
X8380952Y64045181D01*
X8380952Y64045181D02*
X8476190Y63997562D01*
X8476190Y63997562D02*
X8523809Y63949943D01*
X8523809Y63949943D02*
X8571428Y63854705D01*
X8571428Y63854705D02*
X8571428Y63711848D01*
X8571428Y63711848D02*
X8523809Y63616610D01*
X8523809Y63616610D02*
X8476190Y63568991D01*
X8476190Y63568991D02*
X8380952Y63521372D01*
X8380952Y63521372D02*
X8000000Y63521372D01*
X8952381Y63949943D02*
X9000000Y63997562D01*
X9000000Y63997562D02*
X9095238Y64045181D01*
X9095238Y64045181D02*
X9333333Y64045181D01*
X9333333Y64045181D02*
X9428571Y63997562D01*
X9428571Y63997562D02*
X9476190Y63949943D01*
X9476190Y63949943D02*
X9523809Y63854705D01*
X9523809Y63854705D02*
X9523809Y63759467D01*
X9523809Y63759467D02*
X9476190Y63616610D01*
X9476190Y63616610D02*
X8904762Y63045181D01*
X8904762Y63045181D02*
X9523809Y63045181D01*
X9952381Y63568991D02*
X10714286Y63568991D01*
X10714286Y63283277D02*
X9952381Y63283277D01*
X11095238Y64045181D02*
X11714285Y64045181D01*
X11714285Y64045181D02*
X11380952Y63664229D01*
X11380952Y63664229D02*
X11523809Y63664229D01*
X11523809Y63664229D02*
X11619047Y63616610D01*
X11619047Y63616610D02*
X11666666Y63568991D01*
X11666666Y63568991D02*
X11714285Y63473753D01*
X11714285Y63473753D02*
X11714285Y63235658D01*
X11714285Y63235658D02*
X11666666Y63140420D01*
X11666666Y63140420D02*
X11619047Y63092800D01*
X11619047Y63092800D02*
X11523809Y63045181D01*
X11523809Y63045181D02*
X11238095Y63045181D01*
X11238095Y63045181D02*
X11142857Y63092800D01*
X11142857Y63092800D02*
X11095238Y63140420D01*
X12857142Y64092800D02*
X12000000Y62807086D01*
X13619047Y64045181D02*
X13428571Y64045181D01*
X13428571Y64045181D02*
X13333333Y63997562D01*
X13333333Y63997562D02*
X13285714Y63949943D01*
X13285714Y63949943D02*
X13190476Y63807086D01*
X13190476Y63807086D02*
X13142857Y63616610D01*
X13142857Y63616610D02*
X13142857Y63235658D01*
X13142857Y63235658D02*
X13190476Y63140420D01*
X13190476Y63140420D02*
X13238095Y63092800D01*
X13238095Y63092800D02*
X13333333Y63045181D01*
X13333333Y63045181D02*
X13523809Y63045181D01*
X13523809Y63045181D02*
X13619047Y63092800D01*
X13619047Y63092800D02*
X13666666Y63140420D01*
X13666666Y63140420D02*
X13714285Y63235658D01*
X13714285Y63235658D02*
X13714285Y63473753D01*
X13714285Y63473753D02*
X13666666Y63568991D01*
X13666666Y63568991D02*
X13619047Y63616610D01*
X13619047Y63616610D02*
X13523809Y63664229D01*
X13523809Y63664229D02*
X13333333Y63664229D01*
X13333333Y63664229D02*
X13238095Y63616610D01*
X13238095Y63616610D02*
X13190476Y63568991D01*
X13190476Y63568991D02*
X13142857Y63473753D01*
X333333Y60545181D02*
X333333Y61545181D01*
X333333Y61545181D02*
X714285Y61545181D01*
X714285Y61545181D02*
X809523Y61497562D01*
X809523Y61497562D02*
X857142Y61449943D01*
X857142Y61449943D02*
X904761Y61354705D01*
X904761Y61354705D02*
X904761Y61211848D01*
X904761Y61211848D02*
X857142Y61116610D01*
X857142Y61116610D02*
X809523Y61068991D01*
X809523Y61068991D02*
X714285Y61021372D01*
X714285Y61021372D02*
X333333Y61021372D01*
X1238095Y61545181D02*
X1857142Y61545181D01*
X1857142Y61545181D02*
X1523809Y61164229D01*
X1523809Y61164229D02*
X1666666Y61164229D01*
X1666666Y61164229D02*
X1761904Y61116610D01*
X1761904Y61116610D02*
X1809523Y61068991D01*
X1809523Y61068991D02*
X1857142Y60973753D01*
X1857142Y60973753D02*
X1857142Y60735658D01*
X1857142Y60735658D02*
X1809523Y60640420D01*
X1809523Y60640420D02*
X1761904Y60592800D01*
X1761904Y60592800D02*
X1666666Y60545181D01*
X1666666Y60545181D02*
X1380952Y60545181D01*
X1380952Y60545181D02*
X1285714Y60592800D01*
X1285714Y60592800D02*
X1238095Y60640420D01*
X2285714Y61068991D02*
X3047619Y61068991D01*
X3047619Y60783277D02*
X2285714Y60783277D01*
X3952380Y61211848D02*
X3952380Y60545181D01*
X3714285Y61592800D02*
X3476190Y60878515D01*
X3476190Y60878515D02*
X4095237Y60878515D01*
X5190475Y61592800D02*
X4333333Y60307086D01*
X5999999Y61545181D02*
X5523809Y61545181D01*
X5523809Y61545181D02*
X5476190Y61068991D01*
X5476190Y61068991D02*
X5523809Y61116610D01*
X5523809Y61116610D02*
X5619047Y61164229D01*
X5619047Y61164229D02*
X5857142Y61164229D01*
X5857142Y61164229D02*
X5952380Y61116610D01*
X5952380Y61116610D02*
X5999999Y61068991D01*
X5999999Y61068991D02*
X6047618Y60973753D01*
X6047618Y60973753D02*
X6047618Y60735658D01*
X6047618Y60735658D02*
X5999999Y60640420D01*
X5999999Y60640420D02*
X5952380Y60592800D01*
X5952380Y60592800D02*
X5857142Y60545181D01*
X5857142Y60545181D02*
X5619047Y60545181D01*
X5619047Y60545181D02*
X5523809Y60592800D01*
X5523809Y60592800D02*
X5476190Y60640420D01*
X8000000Y60545181D02*
X8000000Y61545181D01*
X8000000Y61545181D02*
X8380952Y61545181D01*
X8380952Y61545181D02*
X8476190Y61497562D01*
X8476190Y61497562D02*
X8523809Y61449943D01*
X8523809Y61449943D02*
X8571428Y61354705D01*
X8571428Y61354705D02*
X8571428Y61211848D01*
X8571428Y61211848D02*
X8523809Y61116610D01*
X8523809Y61116610D02*
X8476190Y61068991D01*
X8476190Y61068991D02*
X8380952Y61021372D01*
X8380952Y61021372D02*
X8000000Y61021372D01*
X9428571Y61211848D02*
X9428571Y60545181D01*
X9190476Y61592800D02*
X8952381Y60878515D01*
X8952381Y60878515D02*
X9571428Y60878515D01*
X9952381Y61068991D02*
X10714286Y61068991D01*
X10714286Y60783277D02*
X9952381Y60783277D01*
X11095238Y61545181D02*
X11761904Y61545181D01*
X11761904Y61545181D02*
X11333333Y60545181D01*
X12857142Y61592800D02*
X12000000Y60307086D01*
X13333333Y61116610D02*
X13238095Y61164229D01*
X13238095Y61164229D02*
X13190476Y61211848D01*
X13190476Y61211848D02*
X13142857Y61307086D01*
X13142857Y61307086D02*
X13142857Y61354705D01*
X13142857Y61354705D02*
X13190476Y61449943D01*
X13190476Y61449943D02*
X13238095Y61497562D01*
X13238095Y61497562D02*
X13333333Y61545181D01*
X13333333Y61545181D02*
X13523809Y61545181D01*
X13523809Y61545181D02*
X13619047Y61497562D01*
X13619047Y61497562D02*
X13666666Y61449943D01*
X13666666Y61449943D02*
X13714285Y61354705D01*
X13714285Y61354705D02*
X13714285Y61307086D01*
X13714285Y61307086D02*
X13666666Y61211848D01*
X13666666Y61211848D02*
X13619047Y61164229D01*
X13619047Y61164229D02*
X13523809Y61116610D01*
X13523809Y61116610D02*
X13333333Y61116610D01*
X13333333Y61116610D02*
X13238095Y61068991D01*
X13238095Y61068991D02*
X13190476Y61021372D01*
X13190476Y61021372D02*
X13142857Y60926134D01*
X13142857Y60926134D02*
X13142857Y60735658D01*
X13142857Y60735658D02*
X13190476Y60640420D01*
X13190476Y60640420D02*
X13238095Y60592800D01*
X13238095Y60592800D02*
X13333333Y60545181D01*
X13333333Y60545181D02*
X13523809Y60545181D01*
X13523809Y60545181D02*
X13619047Y60592800D01*
X13619047Y60592800D02*
X13666666Y60640420D01*
X13666666Y60640420D02*
X13714285Y60735658D01*
X13714285Y60735658D02*
X13714285Y60926134D01*
X13714285Y60926134D02*
X13666666Y61021372D01*
X13666666Y61021372D02*
X13619047Y61068991D01*
X13619047Y61068991D02*
X13523809Y61116610D01*
X2952379Y65640420D02*
X2904760Y65592800D01*
X2904760Y65592800D02*
X2761903Y65545181D01*
X2761903Y65545181D02*
X2666665Y65545181D01*
X2666665Y65545181D02*
X2523808Y65592800D01*
X2523808Y65592800D02*
X2428570Y65688039D01*
X2428570Y65688039D02*
X2380951Y65783277D01*
X2380951Y65783277D02*
X2333332Y65973753D01*
X2333332Y65973753D02*
X2333332Y66116610D01*
X2333332Y66116610D02*
X2380951Y66307086D01*
X2380951Y66307086D02*
X2428570Y66402324D01*
X2428570Y66402324D02*
X2523808Y66497562D01*
X2523808Y66497562D02*
X2666665Y66545181D01*
X2666665Y66545181D02*
X2761903Y66545181D01*
X2761903Y66545181D02*
X2904760Y66497562D01*
X2904760Y66497562D02*
X2952379Y66449943D01*
X3333332Y65830896D02*
X3809522Y65830896D01*
X3238094Y65545181D02*
X3571427Y66545181D01*
X3571427Y66545181D02*
X3904760Y65545181D01*
X4095237Y66545181D02*
X4666665Y66545181D01*
X4380951Y65545181D02*
X4380951Y66545181D01*
X5476189Y66545181D02*
X4999999Y66545181D01*
X4999999Y66545181D02*
X4952380Y66068991D01*
X4952380Y66068991D02*
X4999999Y66116610D01*
X4999999Y66116610D02*
X5095237Y66164229D01*
X5095237Y66164229D02*
X5333332Y66164229D01*
X5333332Y66164229D02*
X5428570Y66116610D01*
X5428570Y66116610D02*
X5476189Y66068991D01*
X5476189Y66068991D02*
X5523808Y65973753D01*
X5523808Y65973753D02*
X5523808Y65735658D01*
X5523808Y65735658D02*
X5476189Y65640420D01*
X5476189Y65640420D02*
X5428570Y65592800D01*
X5428570Y65592800D02*
X5333332Y65545181D01*
X5333332Y65545181D02*
X5095237Y65545181D01*
X5095237Y65545181D02*
X4999999Y65592800D01*
X4999999Y65592800D02*
X4952380Y65640420D01*
X6714285Y65545181D02*
X6714285Y66545181D01*
X7190475Y65545181D02*
X7190475Y66545181D01*
X7190475Y66545181D02*
X7761903Y65545181D01*
X7761903Y65545181D02*
X7761903Y66545181D01*
X8857142Y66211848D02*
X9238094Y66211848D01*
X8999999Y65545181D02*
X8999999Y66402324D01*
X8999999Y66402324D02*
X9047618Y66497562D01*
X9047618Y66497562D02*
X9142856Y66545181D01*
X9142856Y66545181D02*
X9238094Y66545181D01*
X9571428Y65545181D02*
X9571428Y66211848D01*
X9571428Y66021372D02*
X9619047Y66116610D01*
X9619047Y66116610D02*
X9666666Y66164229D01*
X9666666Y66164229D02*
X9761904Y66211848D01*
X9761904Y66211848D02*
X9857142Y66211848D01*
X10333333Y65545181D02*
X10238095Y65592800D01*
X10238095Y65592800D02*
X10190476Y65640420D01*
X10190476Y65640420D02*
X10142857Y65735658D01*
X10142857Y65735658D02*
X10142857Y66021372D01*
X10142857Y66021372D02*
X10190476Y66116610D01*
X10190476Y66116610D02*
X10238095Y66164229D01*
X10238095Y66164229D02*
X10333333Y66211848D01*
X10333333Y66211848D02*
X10476190Y66211848D01*
X10476190Y66211848D02*
X10571428Y66164229D01*
X10571428Y66164229D02*
X10619047Y66116610D01*
X10619047Y66116610D02*
X10666666Y66021372D01*
X10666666Y66021372D02*
X10666666Y65735658D01*
X10666666Y65735658D02*
X10619047Y65640420D01*
X10619047Y65640420D02*
X10571428Y65592800D01*
X10571428Y65592800D02*
X10476190Y65545181D01*
X10476190Y65545181D02*
X10333333Y65545181D01*
X11095238Y65545181D02*
X11095238Y66211848D01*
X11095238Y66116610D02*
X11142857Y66164229D01*
X11142857Y66164229D02*
X11238095Y66211848D01*
X11238095Y66211848D02*
X11380952Y66211848D01*
X11380952Y66211848D02*
X11476190Y66164229D01*
X11476190Y66164229D02*
X11523809Y66068991D01*
X11523809Y66068991D02*
X11523809Y65545181D01*
X11523809Y66068991D02*
X11571428Y66164229D01*
X11571428Y66164229D02*
X11666666Y66211848D01*
X11666666Y66211848D02*
X11809523Y66211848D01*
X11809523Y66211848D02*
X11904762Y66164229D01*
X11904762Y66164229D02*
X11952381Y66068991D01*
X11952381Y66068991D02*
X11952381Y65545181D01*
X13619047Y65545181D02*
X13619047Y66545181D01*
X13619047Y65592800D02*
X13523809Y65545181D01*
X13523809Y65545181D02*
X13333333Y65545181D01*
X13333333Y65545181D02*
X13238095Y65592800D01*
X13238095Y65592800D02*
X13190476Y65640420D01*
X13190476Y65640420D02*
X13142857Y65735658D01*
X13142857Y65735658D02*
X13142857Y66021372D01*
X13142857Y66021372D02*
X13190476Y66116610D01*
X13190476Y66116610D02*
X13238095Y66164229D01*
X13238095Y66164229D02*
X13333333Y66211848D01*
X13333333Y66211848D02*
X13523809Y66211848D01*
X13523809Y66211848D02*
X13619047Y66164229D01*
X14095238Y65545181D02*
X14095238Y66211848D01*
X14095238Y66545181D02*
X14047619Y66497562D01*
X14047619Y66497562D02*
X14095238Y66449943D01*
X14095238Y66449943D02*
X14142857Y66497562D01*
X14142857Y66497562D02*
X14095238Y66545181D01*
X14095238Y66545181D02*
X14095238Y66449943D01*
X14428571Y66211848D02*
X14809523Y66211848D01*
X14571428Y65545181D02*
X14571428Y66402324D01*
X14571428Y66402324D02*
X14619047Y66497562D01*
X14619047Y66497562D02*
X14714285Y66545181D01*
X14714285Y66545181D02*
X14809523Y66545181D01*
X15000000Y66211848D02*
X15380952Y66211848D01*
X15142857Y65545181D02*
X15142857Y66402324D01*
X15142857Y66402324D02*
X15190476Y66497562D01*
X15190476Y66497562D02*
X15285714Y66545181D01*
X15285714Y66545181D02*
X15380952Y66545181D01*
X15571429Y66211848D02*
X15952381Y66211848D01*
X15714286Y66545181D02*
X15714286Y65688039D01*
X15714286Y65688039D02*
X15761905Y65592800D01*
X15761905Y65592800D02*
X15857143Y65545181D01*
X15857143Y65545181D02*
X15952381Y65545181D01*
X16190477Y65545181D02*
X16714286Y66211848D01*
X16190477Y66211848D02*
X16714286Y65545181D01*
X9261905Y71545181D02*
X9261905Y72545181D01*
X9261905Y72545181D02*
X9642857Y72545181D01*
X9642857Y72545181D02*
X9738095Y72497562D01*
X9738095Y72497562D02*
X9785714Y72449943D01*
X9785714Y72449943D02*
X9833333Y72354705D01*
X9833333Y72354705D02*
X9833333Y72211848D01*
X9833333Y72211848D02*
X9785714Y72116610D01*
X9785714Y72116610D02*
X9738095Y72068991D01*
X9738095Y72068991D02*
X9642857Y72021372D01*
X9642857Y72021372D02*
X9261905Y72021372D01*
X10785714Y71545181D02*
X10214286Y71545181D01*
X10500000Y71545181D02*
X10500000Y72545181D01*
X10500000Y72545181D02*
X10404762Y72402324D01*
X10404762Y72402324D02*
X10309524Y72307086D01*
X10309524Y72307086D02*
X10214286Y72259467D01*
X14428571Y34068991D02*
X14095238Y34068991D01*
X14095238Y33545181D02*
X14095238Y34545181D01*
X14095238Y34545181D02*
X14571428Y34545181D01*
X14904762Y33830896D02*
X15380952Y33830896D01*
X14809524Y33545181D02*
X15142857Y34545181D01*
X15142857Y34545181D02*
X15476190Y33545181D01*
X15809524Y33545181D02*
X15809524Y34545181D01*
X15809524Y34545181D02*
X16380952Y33545181D01*
X16380952Y33545181D02*
X16380952Y34545181D01*
X18142857Y33545181D02*
X17571429Y33545181D01*
X17857143Y33545181D02*
X17857143Y34545181D01*
X17857143Y34545181D02*
X17761905Y34402324D01*
X17761905Y34402324D02*
X17666667Y34307086D01*
X17666667Y34307086D02*
X17571429Y34259467D01*
X18523810Y34449943D02*
X18571429Y34497562D01*
X18571429Y34497562D02*
X18666667Y34545181D01*
X18666667Y34545181D02*
X18904762Y34545181D01*
X18904762Y34545181D02*
X19000000Y34497562D01*
X19000000Y34497562D02*
X19047619Y34449943D01*
X19047619Y34449943D02*
X19095238Y34354705D01*
X19095238Y34354705D02*
X19095238Y34259467D01*
X19095238Y34259467D02*
X19047619Y34116610D01*
X19047619Y34116610D02*
X18476191Y33545181D01*
X18476191Y33545181D02*
X19095238Y33545181D01*
X19380953Y34545181D02*
X19714286Y33545181D01*
X19714286Y33545181D02*
X20047619Y34545181D01*
X20261905Y71545181D02*
X20261905Y72545181D01*
X20261905Y72545181D02*
X20642857Y72545181D01*
X20642857Y72545181D02*
X20738095Y72497562D01*
X20738095Y72497562D02*
X20785714Y72449943D01*
X20785714Y72449943D02*
X20833333Y72354705D01*
X20833333Y72354705D02*
X20833333Y72211848D01*
X20833333Y72211848D02*
X20785714Y72116610D01*
X20785714Y72116610D02*
X20738095Y72068991D01*
X20738095Y72068991D02*
X20642857Y72021372D01*
X20642857Y72021372D02*
X20261905Y72021372D01*
X21214286Y72449943D02*
X21261905Y72497562D01*
X21261905Y72497562D02*
X21357143Y72545181D01*
X21357143Y72545181D02*
X21595238Y72545181D01*
X21595238Y72545181D02*
X21690476Y72497562D01*
X21690476Y72497562D02*
X21738095Y72449943D01*
X21738095Y72449943D02*
X21785714Y72354705D01*
X21785714Y72354705D02*
X21785714Y72259467D01*
X21785714Y72259467D02*
X21738095Y72116610D01*
X21738095Y72116610D02*
X21166667Y71545181D01*
X21166667Y71545181D02*
X21785714Y71545181D01*
X31261905Y71545181D02*
X31261905Y72545181D01*
X31261905Y72545181D02*
X31642857Y72545181D01*
X31642857Y72545181D02*
X31738095Y72497562D01*
X31738095Y72497562D02*
X31785714Y72449943D01*
X31785714Y72449943D02*
X31833333Y72354705D01*
X31833333Y72354705D02*
X31833333Y72211848D01*
X31833333Y72211848D02*
X31785714Y72116610D01*
X31785714Y72116610D02*
X31738095Y72068991D01*
X31738095Y72068991D02*
X31642857Y72021372D01*
X31642857Y72021372D02*
X31261905Y72021372D01*
X32166667Y72545181D02*
X32785714Y72545181D01*
X32785714Y72545181D02*
X32452381Y72164229D01*
X32452381Y72164229D02*
X32595238Y72164229D01*
X32595238Y72164229D02*
X32690476Y72116610D01*
X32690476Y72116610D02*
X32738095Y72068991D01*
X32738095Y72068991D02*
X32785714Y71973753D01*
X32785714Y71973753D02*
X32785714Y71735658D01*
X32785714Y71735658D02*
X32738095Y71640420D01*
X32738095Y71640420D02*
X32690476Y71592800D01*
X32690476Y71592800D02*
X32595238Y71545181D01*
X32595238Y71545181D02*
X32309524Y71545181D01*
X32309524Y71545181D02*
X32214286Y71592800D01*
X32214286Y71592800D02*
X32166667Y71640420D01*
X23642854Y39045181D02*
X23642854Y40045181D01*
X24119044Y39045181D02*
X24119044Y40045181D01*
X24119044Y40045181D02*
X24690472Y39045181D01*
X24690472Y39045181D02*
X24690472Y40045181D01*
X25452377Y40045181D02*
X25452377Y39330896D01*
X25452377Y39330896D02*
X25404758Y39188039D01*
X25404758Y39188039D02*
X25309520Y39092800D01*
X25309520Y39092800D02*
X25166663Y39045181D01*
X25166663Y39045181D02*
X25071425Y39045181D01*
X26547616Y39711848D02*
X26928568Y39711848D01*
X26690473Y40045181D02*
X26690473Y39188039D01*
X26690473Y39188039D02*
X26738092Y39092800D01*
X26738092Y39092800D02*
X26833330Y39045181D01*
X26833330Y39045181D02*
X26928568Y39045181D01*
X27642854Y39092800D02*
X27547616Y39045181D01*
X27547616Y39045181D02*
X27357140Y39045181D01*
X27357140Y39045181D02*
X27261902Y39092800D01*
X27261902Y39092800D02*
X27214283Y39188039D01*
X27214283Y39188039D02*
X27214283Y39568991D01*
X27214283Y39568991D02*
X27261902Y39664229D01*
X27261902Y39664229D02*
X27357140Y39711848D01*
X27357140Y39711848D02*
X27547616Y39711848D01*
X27547616Y39711848D02*
X27642854Y39664229D01*
X27642854Y39664229D02*
X27690473Y39568991D01*
X27690473Y39568991D02*
X27690473Y39473753D01*
X27690473Y39473753D02*
X27214283Y39378515D01*
X28119045Y39045181D02*
X28119045Y39711848D01*
X28119045Y39521372D02*
X28166664Y39616610D01*
X28166664Y39616610D02*
X28214283Y39664229D01*
X28214283Y39664229D02*
X28309521Y39711848D01*
X28309521Y39711848D02*
X28404759Y39711848D01*
X28738093Y39045181D02*
X28738093Y39711848D01*
X28738093Y39616610D02*
X28785712Y39664229D01*
X28785712Y39664229D02*
X28880950Y39711848D01*
X28880950Y39711848D02*
X29023807Y39711848D01*
X29023807Y39711848D02*
X29119045Y39664229D01*
X29119045Y39664229D02*
X29166664Y39568991D01*
X29166664Y39568991D02*
X29166664Y39045181D01*
X29166664Y39568991D02*
X29214283Y39664229D01*
X29214283Y39664229D02*
X29309521Y39711848D01*
X29309521Y39711848D02*
X29452378Y39711848D01*
X29452378Y39711848D02*
X29547617Y39664229D01*
X29547617Y39664229D02*
X29595236Y39568991D01*
X29595236Y39568991D02*
X29595236Y39045181D01*
X30071426Y39045181D02*
X30071426Y39711848D01*
X30071426Y40045181D02*
X30023807Y39997562D01*
X30023807Y39997562D02*
X30071426Y39949943D01*
X30071426Y39949943D02*
X30119045Y39997562D01*
X30119045Y39997562D02*
X30071426Y40045181D01*
X30071426Y40045181D02*
X30071426Y39949943D01*
X30547616Y39711848D02*
X30547616Y39045181D01*
X30547616Y39616610D02*
X30595235Y39664229D01*
X30595235Y39664229D02*
X30690473Y39711848D01*
X30690473Y39711848D02*
X30833330Y39711848D01*
X30833330Y39711848D02*
X30928568Y39664229D01*
X30928568Y39664229D02*
X30976187Y39568991D01*
X30976187Y39568991D02*
X30976187Y39045181D01*
X31880949Y39045181D02*
X31880949Y39568991D01*
X31880949Y39568991D02*
X31833330Y39664229D01*
X31833330Y39664229D02*
X31738092Y39711848D01*
X31738092Y39711848D02*
X31547616Y39711848D01*
X31547616Y39711848D02*
X31452378Y39664229D01*
X31880949Y39092800D02*
X31785711Y39045181D01*
X31785711Y39045181D02*
X31547616Y39045181D01*
X31547616Y39045181D02*
X31452378Y39092800D01*
X31452378Y39092800D02*
X31404759Y39188039D01*
X31404759Y39188039D02*
X31404759Y39283277D01*
X31404759Y39283277D02*
X31452378Y39378515D01*
X31452378Y39378515D02*
X31547616Y39426134D01*
X31547616Y39426134D02*
X31785711Y39426134D01*
X31785711Y39426134D02*
X31880949Y39473753D01*
X32499997Y39045181D02*
X32404759Y39092800D01*
X32404759Y39092800D02*
X32357140Y39188039D01*
X32357140Y39188039D02*
X32357140Y40045181D01*
X32833331Y39092800D02*
X32928569Y39045181D01*
X32928569Y39045181D02*
X33119045Y39045181D01*
X33119045Y39045181D02*
X33214283Y39092800D01*
X33214283Y39092800D02*
X33261902Y39188039D01*
X33261902Y39188039D02*
X33261902Y39235658D01*
X33261902Y39235658D02*
X33214283Y39330896D01*
X33214283Y39330896D02*
X33119045Y39378515D01*
X33119045Y39378515D02*
X32976188Y39378515D01*
X32976188Y39378515D02*
X32880950Y39426134D01*
X32880950Y39426134D02*
X32833331Y39521372D01*
X32833331Y39521372D02*
X32833331Y39568991D01*
X32833331Y39568991D02*
X32880950Y39664229D01*
X32880950Y39664229D02*
X32976188Y39711848D01*
X32976188Y39711848D02*
X33119045Y39711848D01*
X33119045Y39711848D02*
X33214283Y39664229D01*
X33690474Y39140420D02*
X33738093Y39092800D01*
X33738093Y39092800D02*
X33690474Y39045181D01*
X33690474Y39045181D02*
X33642855Y39092800D01*
X33642855Y39092800D02*
X33690474Y39140420D01*
X33690474Y39140420D02*
X33690474Y39045181D01*
X33690474Y39664229D02*
X33738093Y39616610D01*
X33738093Y39616610D02*
X33690474Y39568991D01*
X33690474Y39568991D02*
X33642855Y39616610D01*
X33642855Y39616610D02*
X33690474Y39664229D01*
X33690474Y39664229D02*
X33690474Y39568991D01*
X34928569Y39711848D02*
X34928569Y38711848D01*
X34928569Y39664229D02*
X35023807Y39711848D01*
X35023807Y39711848D02*
X35214283Y39711848D01*
X35214283Y39711848D02*
X35309521Y39664229D01*
X35309521Y39664229D02*
X35357140Y39616610D01*
X35357140Y39616610D02*
X35404759Y39521372D01*
X35404759Y39521372D02*
X35404759Y39235658D01*
X35404759Y39235658D02*
X35357140Y39140420D01*
X35357140Y39140420D02*
X35309521Y39092800D01*
X35309521Y39092800D02*
X35214283Y39045181D01*
X35214283Y39045181D02*
X35023807Y39045181D01*
X35023807Y39045181D02*
X34928569Y39092800D01*
X35976188Y39045181D02*
X35880950Y39092800D01*
X35880950Y39092800D02*
X35833331Y39140420D01*
X35833331Y39140420D02*
X35785712Y39235658D01*
X35785712Y39235658D02*
X35785712Y39521372D01*
X35785712Y39521372D02*
X35833331Y39616610D01*
X35833331Y39616610D02*
X35880950Y39664229D01*
X35880950Y39664229D02*
X35976188Y39711848D01*
X35976188Y39711848D02*
X36119045Y39711848D01*
X36119045Y39711848D02*
X36214283Y39664229D01*
X36214283Y39664229D02*
X36261902Y39616610D01*
X36261902Y39616610D02*
X36309521Y39521372D01*
X36309521Y39521372D02*
X36309521Y39235658D01*
X36309521Y39235658D02*
X36261902Y39140420D01*
X36261902Y39140420D02*
X36214283Y39092800D01*
X36214283Y39092800D02*
X36119045Y39045181D01*
X36119045Y39045181D02*
X35976188Y39045181D01*
X36642855Y39711848D02*
X36833331Y39045181D01*
X36833331Y39045181D02*
X37023807Y39521372D01*
X37023807Y39521372D02*
X37214283Y39045181D01*
X37214283Y39045181D02*
X37404759Y39711848D01*
X38166664Y39092800D02*
X38071426Y39045181D01*
X38071426Y39045181D02*
X37880950Y39045181D01*
X37880950Y39045181D02*
X37785712Y39092800D01*
X37785712Y39092800D02*
X37738093Y39188039D01*
X37738093Y39188039D02*
X37738093Y39568991D01*
X37738093Y39568991D02*
X37785712Y39664229D01*
X37785712Y39664229D02*
X37880950Y39711848D01*
X37880950Y39711848D02*
X38071426Y39711848D01*
X38071426Y39711848D02*
X38166664Y39664229D01*
X38166664Y39664229D02*
X38214283Y39568991D01*
X38214283Y39568991D02*
X38214283Y39473753D01*
X38214283Y39473753D02*
X37738093Y39378515D01*
X38642855Y39045181D02*
X38642855Y39711848D01*
X38642855Y39521372D02*
X38690474Y39616610D01*
X38690474Y39616610D02*
X38738093Y39664229D01*
X38738093Y39664229D02*
X38833331Y39711848D01*
X38833331Y39711848D02*
X38928569Y39711848D01*
X40166665Y39045181D02*
X40071427Y39092800D01*
X40071427Y39092800D02*
X40023808Y39140420D01*
X40023808Y39140420D02*
X39976189Y39235658D01*
X39976189Y39235658D02*
X39976189Y39521372D01*
X39976189Y39521372D02*
X40023808Y39616610D01*
X40023808Y39616610D02*
X40071427Y39664229D01*
X40071427Y39664229D02*
X40166665Y39711848D01*
X40166665Y39711848D02*
X40309522Y39711848D01*
X40309522Y39711848D02*
X40404760Y39664229D01*
X40404760Y39664229D02*
X40452379Y39616610D01*
X40452379Y39616610D02*
X40499998Y39521372D01*
X40499998Y39521372D02*
X40499998Y39235658D01*
X40499998Y39235658D02*
X40452379Y39140420D01*
X40452379Y39140420D02*
X40404760Y39092800D01*
X40404760Y39092800D02*
X40309522Y39045181D01*
X40309522Y39045181D02*
X40166665Y39045181D01*
X40928570Y39711848D02*
X40928570Y39045181D01*
X40928570Y39616610D02*
X40976189Y39664229D01*
X40976189Y39664229D02*
X41071427Y39711848D01*
X41071427Y39711848D02*
X41214284Y39711848D01*
X41214284Y39711848D02*
X41309522Y39664229D01*
X41309522Y39664229D02*
X41357141Y39568991D01*
X41357141Y39568991D02*
X41357141Y39045181D01*
X41976189Y39045181D02*
X41880951Y39092800D01*
X41880951Y39092800D02*
X41833332Y39188039D01*
X41833332Y39188039D02*
X41833332Y40045181D01*
X42261904Y39711848D02*
X42499999Y39045181D01*
X42738094Y39711848D02*
X42499999Y39045181D01*
X42499999Y39045181D02*
X42404761Y38807086D01*
X42404761Y38807086D02*
X42357142Y38759467D01*
X42357142Y38759467D02*
X42261904Y38711848D01*
X43166666Y39092800D02*
X43166666Y39045181D01*
X43166666Y39045181D02*
X43119047Y38949943D01*
X43119047Y38949943D02*
X43071428Y38902324D01*
X44357142Y39045181D02*
X44357142Y40045181D01*
X44357142Y40045181D02*
X44595237Y40045181D01*
X44595237Y40045181D02*
X44738094Y39997562D01*
X44738094Y39997562D02*
X44833332Y39902324D01*
X44833332Y39902324D02*
X44880951Y39807086D01*
X44880951Y39807086D02*
X44928570Y39616610D01*
X44928570Y39616610D02*
X44928570Y39473753D01*
X44928570Y39473753D02*
X44880951Y39283277D01*
X44880951Y39283277D02*
X44833332Y39188039D01*
X44833332Y39188039D02*
X44738094Y39092800D01*
X44738094Y39092800D02*
X44595237Y39045181D01*
X44595237Y39045181D02*
X44357142Y39045181D01*
X46119047Y39711848D02*
X46119047Y38711848D01*
X46119047Y39664229D02*
X46214285Y39711848D01*
X46214285Y39711848D02*
X46404761Y39711848D01*
X46404761Y39711848D02*
X46499999Y39664229D01*
X46499999Y39664229D02*
X46547618Y39616610D01*
X46547618Y39616610D02*
X46595237Y39521372D01*
X46595237Y39521372D02*
X46595237Y39235658D01*
X46595237Y39235658D02*
X46547618Y39140420D01*
X46547618Y39140420D02*
X46499999Y39092800D01*
X46499999Y39092800D02*
X46404761Y39045181D01*
X46404761Y39045181D02*
X46214285Y39045181D01*
X46214285Y39045181D02*
X46119047Y39092800D01*
X47166666Y39045181D02*
X47071428Y39092800D01*
X47071428Y39092800D02*
X47023809Y39140420D01*
X47023809Y39140420D02*
X46976190Y39235658D01*
X46976190Y39235658D02*
X46976190Y39521372D01*
X46976190Y39521372D02*
X47023809Y39616610D01*
X47023809Y39616610D02*
X47071428Y39664229D01*
X47071428Y39664229D02*
X47166666Y39711848D01*
X47166666Y39711848D02*
X47309523Y39711848D01*
X47309523Y39711848D02*
X47404761Y39664229D01*
X47404761Y39664229D02*
X47452380Y39616610D01*
X47452380Y39616610D02*
X47499999Y39521372D01*
X47499999Y39521372D02*
X47499999Y39235658D01*
X47499999Y39235658D02*
X47452380Y39140420D01*
X47452380Y39140420D02*
X47404761Y39092800D01*
X47404761Y39092800D02*
X47309523Y39045181D01*
X47309523Y39045181D02*
X47166666Y39045181D01*
X48071428Y39045181D02*
X47976190Y39092800D01*
X47976190Y39092800D02*
X47928571Y39188039D01*
X47928571Y39188039D02*
X47928571Y40045181D01*
X48833333Y39092800D02*
X48738095Y39045181D01*
X48738095Y39045181D02*
X48547619Y39045181D01*
X48547619Y39045181D02*
X48452381Y39092800D01*
X48452381Y39092800D02*
X48404762Y39188039D01*
X48404762Y39188039D02*
X48404762Y39568991D01*
X48404762Y39568991D02*
X48452381Y39664229D01*
X48452381Y39664229D02*
X48547619Y39711848D01*
X48547619Y39711848D02*
X48738095Y39711848D01*
X48738095Y39711848D02*
X48833333Y39664229D01*
X48833333Y39664229D02*
X48880952Y39568991D01*
X48880952Y39568991D02*
X48880952Y39473753D01*
X48880952Y39473753D02*
X48404762Y39378515D01*
X50071429Y39711848D02*
X50071429Y39045181D01*
X50071429Y39616610D02*
X50119048Y39664229D01*
X50119048Y39664229D02*
X50214286Y39711848D01*
X50214286Y39711848D02*
X50357143Y39711848D01*
X50357143Y39711848D02*
X50452381Y39664229D01*
X50452381Y39664229D02*
X50500000Y39568991D01*
X50500000Y39568991D02*
X50500000Y39045181D01*
X51119048Y39045181D02*
X51023810Y39092800D01*
X51023810Y39092800D02*
X50976191Y39140420D01*
X50976191Y39140420D02*
X50928572Y39235658D01*
X50928572Y39235658D02*
X50928572Y39521372D01*
X50928572Y39521372D02*
X50976191Y39616610D01*
X50976191Y39616610D02*
X51023810Y39664229D01*
X51023810Y39664229D02*
X51119048Y39711848D01*
X51119048Y39711848D02*
X51261905Y39711848D01*
X51261905Y39711848D02*
X51357143Y39664229D01*
X51357143Y39664229D02*
X51404762Y39616610D01*
X51404762Y39616610D02*
X51452381Y39521372D01*
X51452381Y39521372D02*
X51452381Y39235658D01*
X51452381Y39235658D02*
X51404762Y39140420D01*
X51404762Y39140420D02*
X51357143Y39092800D01*
X51357143Y39092800D02*
X51261905Y39045181D01*
X51261905Y39045181D02*
X51119048Y39045181D01*
X51738096Y39711848D02*
X52119048Y39711848D01*
X51880953Y40045181D02*
X51880953Y39188039D01*
X51880953Y39188039D02*
X51928572Y39092800D01*
X51928572Y39092800D02*
X52023810Y39045181D01*
X52023810Y39045181D02*
X52119048Y39045181D01*
X53642858Y39092800D02*
X53547620Y39045181D01*
X53547620Y39045181D02*
X53357144Y39045181D01*
X53357144Y39045181D02*
X53261906Y39092800D01*
X53261906Y39092800D02*
X53214287Y39140420D01*
X53214287Y39140420D02*
X53166668Y39235658D01*
X53166668Y39235658D02*
X53166668Y39521372D01*
X53166668Y39521372D02*
X53214287Y39616610D01*
X53214287Y39616610D02*
X53261906Y39664229D01*
X53261906Y39664229D02*
X53357144Y39711848D01*
X53357144Y39711848D02*
X53547620Y39711848D01*
X53547620Y39711848D02*
X53642858Y39664229D01*
X54214287Y39045181D02*
X54119049Y39092800D01*
X54119049Y39092800D02*
X54071430Y39140420D01*
X54071430Y39140420D02*
X54023811Y39235658D01*
X54023811Y39235658D02*
X54023811Y39521372D01*
X54023811Y39521372D02*
X54071430Y39616610D01*
X54071430Y39616610D02*
X54119049Y39664229D01*
X54119049Y39664229D02*
X54214287Y39711848D01*
X54214287Y39711848D02*
X54357144Y39711848D01*
X54357144Y39711848D02*
X54452382Y39664229D01*
X54452382Y39664229D02*
X54500001Y39616610D01*
X54500001Y39616610D02*
X54547620Y39521372D01*
X54547620Y39521372D02*
X54547620Y39235658D01*
X54547620Y39235658D02*
X54500001Y39140420D01*
X54500001Y39140420D02*
X54452382Y39092800D01*
X54452382Y39092800D02*
X54357144Y39045181D01*
X54357144Y39045181D02*
X54214287Y39045181D01*
X54976192Y39711848D02*
X54976192Y39045181D01*
X54976192Y39616610D02*
X55023811Y39664229D01*
X55023811Y39664229D02*
X55119049Y39711848D01*
X55119049Y39711848D02*
X55261906Y39711848D01*
X55261906Y39711848D02*
X55357144Y39664229D01*
X55357144Y39664229D02*
X55404763Y39568991D01*
X55404763Y39568991D02*
X55404763Y39045181D01*
X55880954Y39711848D02*
X55880954Y39045181D01*
X55880954Y39616610D02*
X55928573Y39664229D01*
X55928573Y39664229D02*
X56023811Y39711848D01*
X56023811Y39711848D02*
X56166668Y39711848D01*
X56166668Y39711848D02*
X56261906Y39664229D01*
X56261906Y39664229D02*
X56309525Y39568991D01*
X56309525Y39568991D02*
X56309525Y39045181D01*
X57166668Y39092800D02*
X57071430Y39045181D01*
X57071430Y39045181D02*
X56880954Y39045181D01*
X56880954Y39045181D02*
X56785716Y39092800D01*
X56785716Y39092800D02*
X56738097Y39188039D01*
X56738097Y39188039D02*
X56738097Y39568991D01*
X56738097Y39568991D02*
X56785716Y39664229D01*
X56785716Y39664229D02*
X56880954Y39711848D01*
X56880954Y39711848D02*
X57071430Y39711848D01*
X57071430Y39711848D02*
X57166668Y39664229D01*
X57166668Y39664229D02*
X57214287Y39568991D01*
X57214287Y39568991D02*
X57214287Y39473753D01*
X57214287Y39473753D02*
X56738097Y39378515D01*
X58071430Y39092800D02*
X57976192Y39045181D01*
X57976192Y39045181D02*
X57785716Y39045181D01*
X57785716Y39045181D02*
X57690478Y39092800D01*
X57690478Y39092800D02*
X57642859Y39140420D01*
X57642859Y39140420D02*
X57595240Y39235658D01*
X57595240Y39235658D02*
X57595240Y39521372D01*
X57595240Y39521372D02*
X57642859Y39616610D01*
X57642859Y39616610D02*
X57690478Y39664229D01*
X57690478Y39664229D02*
X57785716Y39711848D01*
X57785716Y39711848D02*
X57976192Y39711848D01*
X57976192Y39711848D02*
X58071430Y39664229D01*
X58357145Y39711848D02*
X58738097Y39711848D01*
X58500002Y40045181D02*
X58500002Y39188039D01*
X58500002Y39188039D02*
X58547621Y39092800D01*
X58547621Y39092800D02*
X58642859Y39045181D01*
X58642859Y39045181D02*
X58738097Y39045181D01*
X59452383Y39092800D02*
X59357145Y39045181D01*
X59357145Y39045181D02*
X59166669Y39045181D01*
X59166669Y39045181D02*
X59071431Y39092800D01*
X59071431Y39092800D02*
X59023812Y39188039D01*
X59023812Y39188039D02*
X59023812Y39568991D01*
X59023812Y39568991D02*
X59071431Y39664229D01*
X59071431Y39664229D02*
X59166669Y39711848D01*
X59166669Y39711848D02*
X59357145Y39711848D01*
X59357145Y39711848D02*
X59452383Y39664229D01*
X59452383Y39664229D02*
X59500002Y39568991D01*
X59500002Y39568991D02*
X59500002Y39473753D01*
X59500002Y39473753D02*
X59023812Y39378515D01*
X60357145Y39045181D02*
X60357145Y40045181D01*
X60357145Y39092800D02*
X60261907Y39045181D01*
X60261907Y39045181D02*
X60071431Y39045181D01*
X60071431Y39045181D02*
X59976193Y39092800D01*
X59976193Y39092800D02*
X59928574Y39140420D01*
X59928574Y39140420D02*
X59880955Y39235658D01*
X59880955Y39235658D02*
X59880955Y39521372D01*
X59880955Y39521372D02*
X59928574Y39616610D01*
X59928574Y39616610D02*
X59976193Y39664229D01*
X59976193Y39664229D02*
X60071431Y39711848D01*
X60071431Y39711848D02*
X60261907Y39711848D01*
X60261907Y39711848D02*
X60357145Y39664229D01*
X25952378Y36545181D02*
X25380950Y36545181D01*
X25666664Y36545181D02*
X25666664Y37545181D01*
X25666664Y37545181D02*
X25571426Y37402324D01*
X25571426Y37402324D02*
X25476188Y37307086D01*
X25476188Y37307086D02*
X25380950Y37259467D01*
X26333331Y37449943D02*
X26380950Y37497562D01*
X26380950Y37497562D02*
X26476188Y37545181D01*
X26476188Y37545181D02*
X26714283Y37545181D01*
X26714283Y37545181D02*
X26809521Y37497562D01*
X26809521Y37497562D02*
X26857140Y37449943D01*
X26857140Y37449943D02*
X26904759Y37354705D01*
X26904759Y37354705D02*
X26904759Y37259467D01*
X26904759Y37259467D02*
X26857140Y37116610D01*
X26857140Y37116610D02*
X26285712Y36545181D01*
X26285712Y36545181D02*
X26904759Y36545181D01*
X27190474Y37545181D02*
X27523807Y36545181D01*
X27523807Y36545181D02*
X27857140Y37545181D01*
X29142855Y37545181D02*
X29333331Y37545181D01*
X29333331Y37545181D02*
X29428569Y37497562D01*
X29428569Y37497562D02*
X29523807Y37402324D01*
X29523807Y37402324D02*
X29571426Y37211848D01*
X29571426Y37211848D02*
X29571426Y36878515D01*
X29571426Y36878515D02*
X29523807Y36688039D01*
X29523807Y36688039D02*
X29428569Y36592800D01*
X29428569Y36592800D02*
X29333331Y36545181D01*
X29333331Y36545181D02*
X29142855Y36545181D01*
X29142855Y36545181D02*
X29047617Y36592800D01*
X29047617Y36592800D02*
X28952379Y36688039D01*
X28952379Y36688039D02*
X28904760Y36878515D01*
X28904760Y36878515D02*
X28904760Y37211848D01*
X28904760Y37211848D02*
X28952379Y37402324D01*
X28952379Y37402324D02*
X29047617Y37497562D01*
X29047617Y37497562D02*
X29142855Y37545181D01*
X29999998Y36545181D02*
X29999998Y37545181D01*
X29999998Y37545181D02*
X30571426Y36545181D01*
X30571426Y36545181D02*
X30571426Y37545181D01*
X31523807Y36545181D02*
X31047617Y36545181D01*
X31047617Y36545181D02*
X31047617Y37545181D01*
X32047617Y37021372D02*
X32047617Y36545181D01*
X31714284Y37545181D02*
X32047617Y37021372D01*
X32047617Y37021372D02*
X32380950Y37545181D01*
X33476189Y36926134D02*
X34238094Y36926134D01*
X35904760Y36592800D02*
X35809522Y36545181D01*
X35809522Y36545181D02*
X35619046Y36545181D01*
X35619046Y36545181D02*
X35523808Y36592800D01*
X35523808Y36592800D02*
X35476189Y36640420D01*
X35476189Y36640420D02*
X35428570Y36735658D01*
X35428570Y36735658D02*
X35428570Y37021372D01*
X35428570Y37021372D02*
X35476189Y37116610D01*
X35476189Y37116610D02*
X35523808Y37164229D01*
X35523808Y37164229D02*
X35619046Y37211848D01*
X35619046Y37211848D02*
X35809522Y37211848D01*
X35809522Y37211848D02*
X35904760Y37164229D01*
X36333332Y36545181D02*
X36333332Y37545181D01*
X36761903Y36545181D02*
X36761903Y37068991D01*
X36761903Y37068991D02*
X36714284Y37164229D01*
X36714284Y37164229D02*
X36619046Y37211848D01*
X36619046Y37211848D02*
X36476189Y37211848D01*
X36476189Y37211848D02*
X36380951Y37164229D01*
X36380951Y37164229D02*
X36333332Y37116610D01*
X37619046Y36592800D02*
X37523808Y36545181D01*
X37523808Y36545181D02*
X37333332Y36545181D01*
X37333332Y36545181D02*
X37238094Y36592800D01*
X37238094Y36592800D02*
X37190475Y36688039D01*
X37190475Y36688039D02*
X37190475Y37068991D01*
X37190475Y37068991D02*
X37238094Y37164229D01*
X37238094Y37164229D02*
X37333332Y37211848D01*
X37333332Y37211848D02*
X37523808Y37211848D01*
X37523808Y37211848D02*
X37619046Y37164229D01*
X37619046Y37164229D02*
X37666665Y37068991D01*
X37666665Y37068991D02*
X37666665Y36973753D01*
X37666665Y36973753D02*
X37190475Y36878515D01*
X38523808Y36592800D02*
X38428570Y36545181D01*
X38428570Y36545181D02*
X38238094Y36545181D01*
X38238094Y36545181D02*
X38142856Y36592800D01*
X38142856Y36592800D02*
X38095237Y36640420D01*
X38095237Y36640420D02*
X38047618Y36735658D01*
X38047618Y36735658D02*
X38047618Y37021372D01*
X38047618Y37021372D02*
X38095237Y37116610D01*
X38095237Y37116610D02*
X38142856Y37164229D01*
X38142856Y37164229D02*
X38238094Y37211848D01*
X38238094Y37211848D02*
X38428570Y37211848D01*
X38428570Y37211848D02*
X38523808Y37164229D01*
X38952380Y36545181D02*
X38952380Y37545181D01*
X39047618Y36926134D02*
X39333332Y36545181D01*
X39333332Y37211848D02*
X38952380Y36830896D01*
X40523809Y37211848D02*
X40523809Y36211848D01*
X40523809Y37164229D02*
X40619047Y37211848D01*
X40619047Y37211848D02*
X40809523Y37211848D01*
X40809523Y37211848D02*
X40904761Y37164229D01*
X40904761Y37164229D02*
X40952380Y37116610D01*
X40952380Y37116610D02*
X40999999Y37021372D01*
X40999999Y37021372D02*
X40999999Y36735658D01*
X40999999Y36735658D02*
X40952380Y36640420D01*
X40952380Y36640420D02*
X40904761Y36592800D01*
X40904761Y36592800D02*
X40809523Y36545181D01*
X40809523Y36545181D02*
X40619047Y36545181D01*
X40619047Y36545181D02*
X40523809Y36592800D01*
X41571428Y36545181D02*
X41476190Y36592800D01*
X41476190Y36592800D02*
X41428571Y36640420D01*
X41428571Y36640420D02*
X41380952Y36735658D01*
X41380952Y36735658D02*
X41380952Y37021372D01*
X41380952Y37021372D02*
X41428571Y37116610D01*
X41428571Y37116610D02*
X41476190Y37164229D01*
X41476190Y37164229D02*
X41571428Y37211848D01*
X41571428Y37211848D02*
X41714285Y37211848D01*
X41714285Y37211848D02*
X41809523Y37164229D01*
X41809523Y37164229D02*
X41857142Y37116610D01*
X41857142Y37116610D02*
X41904761Y37021372D01*
X41904761Y37021372D02*
X41904761Y36735658D01*
X41904761Y36735658D02*
X41857142Y36640420D01*
X41857142Y36640420D02*
X41809523Y36592800D01*
X41809523Y36592800D02*
X41714285Y36545181D01*
X41714285Y36545181D02*
X41571428Y36545181D01*
X42476190Y36545181D02*
X42380952Y36592800D01*
X42380952Y36592800D02*
X42333333Y36688039D01*
X42333333Y36688039D02*
X42333333Y37545181D01*
X43285714Y36545181D02*
X43285714Y37068991D01*
X43285714Y37068991D02*
X43238095Y37164229D01*
X43238095Y37164229D02*
X43142857Y37211848D01*
X43142857Y37211848D02*
X42952381Y37211848D01*
X42952381Y37211848D02*
X42857143Y37164229D01*
X43285714Y36592800D02*
X43190476Y36545181D01*
X43190476Y36545181D02*
X42952381Y36545181D01*
X42952381Y36545181D02*
X42857143Y36592800D01*
X42857143Y36592800D02*
X42809524Y36688039D01*
X42809524Y36688039D02*
X42809524Y36783277D01*
X42809524Y36783277D02*
X42857143Y36878515D01*
X42857143Y36878515D02*
X42952381Y36926134D01*
X42952381Y36926134D02*
X43190476Y36926134D01*
X43190476Y36926134D02*
X43285714Y36973753D01*
X43761905Y36545181D02*
X43761905Y37211848D01*
X43761905Y37021372D02*
X43809524Y37116610D01*
X43809524Y37116610D02*
X43857143Y37164229D01*
X43857143Y37164229D02*
X43952381Y37211848D01*
X43952381Y37211848D02*
X44047619Y37211848D01*
X44380953Y36545181D02*
X44380953Y37211848D01*
X44380953Y37545181D02*
X44333334Y37497562D01*
X44333334Y37497562D02*
X44380953Y37449943D01*
X44380953Y37449943D02*
X44428572Y37497562D01*
X44428572Y37497562D02*
X44380953Y37545181D01*
X44380953Y37545181D02*
X44380953Y37449943D01*
X44714286Y37211848D02*
X45095238Y37211848D01*
X44857143Y37545181D02*
X44857143Y36688039D01*
X44857143Y36688039D02*
X44904762Y36592800D01*
X44904762Y36592800D02*
X45000000Y36545181D01*
X45000000Y36545181D02*
X45095238Y36545181D01*
X45333334Y37211848D02*
X45571429Y36545181D01*
X45809524Y37211848D02*
X45571429Y36545181D01*
X45571429Y36545181D02*
X45476191Y36307086D01*
X45476191Y36307086D02*
X45428572Y36259467D01*
X45428572Y36259467D02*
X45333334Y36211848D01*
X46952382Y36545181D02*
X46952382Y37545181D01*
X46952382Y37164229D02*
X47047620Y37211848D01*
X47047620Y37211848D02*
X47238096Y37211848D01*
X47238096Y37211848D02*
X47333334Y37164229D01*
X47333334Y37164229D02*
X47380953Y37116610D01*
X47380953Y37116610D02*
X47428572Y37021372D01*
X47428572Y37021372D02*
X47428572Y36735658D01*
X47428572Y36735658D02*
X47380953Y36640420D01*
X47380953Y36640420D02*
X47333334Y36592800D01*
X47333334Y36592800D02*
X47238096Y36545181D01*
X47238096Y36545181D02*
X47047620Y36545181D01*
X47047620Y36545181D02*
X46952382Y36592800D01*
X48238096Y36592800D02*
X48142858Y36545181D01*
X48142858Y36545181D02*
X47952382Y36545181D01*
X47952382Y36545181D02*
X47857144Y36592800D01*
X47857144Y36592800D02*
X47809525Y36688039D01*
X47809525Y36688039D02*
X47809525Y37068991D01*
X47809525Y37068991D02*
X47857144Y37164229D01*
X47857144Y37164229D02*
X47952382Y37211848D01*
X47952382Y37211848D02*
X48142858Y37211848D01*
X48142858Y37211848D02*
X48238096Y37164229D01*
X48238096Y37164229D02*
X48285715Y37068991D01*
X48285715Y37068991D02*
X48285715Y36973753D01*
X48285715Y36973753D02*
X47809525Y36878515D01*
X48571430Y37211848D02*
X48952382Y37211848D01*
X48714287Y36545181D02*
X48714287Y37402324D01*
X48714287Y37402324D02*
X48761906Y37497562D01*
X48761906Y37497562D02*
X48857144Y37545181D01*
X48857144Y37545181D02*
X48952382Y37545181D01*
X49428573Y36545181D02*
X49333335Y36592800D01*
X49333335Y36592800D02*
X49285716Y36640420D01*
X49285716Y36640420D02*
X49238097Y36735658D01*
X49238097Y36735658D02*
X49238097Y37021372D01*
X49238097Y37021372D02*
X49285716Y37116610D01*
X49285716Y37116610D02*
X49333335Y37164229D01*
X49333335Y37164229D02*
X49428573Y37211848D01*
X49428573Y37211848D02*
X49571430Y37211848D01*
X49571430Y37211848D02*
X49666668Y37164229D01*
X49666668Y37164229D02*
X49714287Y37116610D01*
X49714287Y37116610D02*
X49761906Y37021372D01*
X49761906Y37021372D02*
X49761906Y36735658D01*
X49761906Y36735658D02*
X49714287Y36640420D01*
X49714287Y36640420D02*
X49666668Y36592800D01*
X49666668Y36592800D02*
X49571430Y36545181D01*
X49571430Y36545181D02*
X49428573Y36545181D01*
X50190478Y36545181D02*
X50190478Y37211848D01*
X50190478Y37021372D02*
X50238097Y37116610D01*
X50238097Y37116610D02*
X50285716Y37164229D01*
X50285716Y37164229D02*
X50380954Y37211848D01*
X50380954Y37211848D02*
X50476192Y37211848D01*
X51190478Y36592800D02*
X51095240Y36545181D01*
X51095240Y36545181D02*
X50904764Y36545181D01*
X50904764Y36545181D02*
X50809526Y36592800D01*
X50809526Y36592800D02*
X50761907Y36688039D01*
X50761907Y36688039D02*
X50761907Y37068991D01*
X50761907Y37068991D02*
X50809526Y37164229D01*
X50809526Y37164229D02*
X50904764Y37211848D01*
X50904764Y37211848D02*
X51095240Y37211848D01*
X51095240Y37211848D02*
X51190478Y37164229D01*
X51190478Y37164229D02*
X51238097Y37068991D01*
X51238097Y37068991D02*
X51238097Y36973753D01*
X51238097Y36973753D02*
X50761907Y36878515D01*
X52428574Y37211848D02*
X52428574Y36211848D01*
X52428574Y37164229D02*
X52523812Y37211848D01*
X52523812Y37211848D02*
X52714288Y37211848D01*
X52714288Y37211848D02*
X52809526Y37164229D01*
X52809526Y37164229D02*
X52857145Y37116610D01*
X52857145Y37116610D02*
X52904764Y37021372D01*
X52904764Y37021372D02*
X52904764Y36735658D01*
X52904764Y36735658D02*
X52857145Y36640420D01*
X52857145Y36640420D02*
X52809526Y36592800D01*
X52809526Y36592800D02*
X52714288Y36545181D01*
X52714288Y36545181D02*
X52523812Y36545181D01*
X52523812Y36545181D02*
X52428574Y36592800D01*
X53476193Y36545181D02*
X53380955Y36592800D01*
X53380955Y36592800D02*
X53333336Y36640420D01*
X53333336Y36640420D02*
X53285717Y36735658D01*
X53285717Y36735658D02*
X53285717Y37021372D01*
X53285717Y37021372D02*
X53333336Y37116610D01*
X53333336Y37116610D02*
X53380955Y37164229D01*
X53380955Y37164229D02*
X53476193Y37211848D01*
X53476193Y37211848D02*
X53619050Y37211848D01*
X53619050Y37211848D02*
X53714288Y37164229D01*
X53714288Y37164229D02*
X53761907Y37116610D01*
X53761907Y37116610D02*
X53809526Y37021372D01*
X53809526Y37021372D02*
X53809526Y36735658D01*
X53809526Y36735658D02*
X53761907Y36640420D01*
X53761907Y36640420D02*
X53714288Y36592800D01*
X53714288Y36592800D02*
X53619050Y36545181D01*
X53619050Y36545181D02*
X53476193Y36545181D01*
X54142860Y37211848D02*
X54333336Y36545181D01*
X54333336Y36545181D02*
X54523812Y37021372D01*
X54523812Y37021372D02*
X54714288Y36545181D01*
X54714288Y36545181D02*
X54904764Y37211848D01*
X55666669Y36592800D02*
X55571431Y36545181D01*
X55571431Y36545181D02*
X55380955Y36545181D01*
X55380955Y36545181D02*
X55285717Y36592800D01*
X55285717Y36592800D02*
X55238098Y36688039D01*
X55238098Y36688039D02*
X55238098Y37068991D01*
X55238098Y37068991D02*
X55285717Y37164229D01*
X55285717Y37164229D02*
X55380955Y37211848D01*
X55380955Y37211848D02*
X55571431Y37211848D01*
X55571431Y37211848D02*
X55666669Y37164229D01*
X55666669Y37164229D02*
X55714288Y37068991D01*
X55714288Y37068991D02*
X55714288Y36973753D01*
X55714288Y36973753D02*
X55238098Y36878515D01*
X56142860Y36545181D02*
X56142860Y37211848D01*
X56142860Y37021372D02*
X56190479Y37116610D01*
X56190479Y37116610D02*
X56238098Y37164229D01*
X56238098Y37164229D02*
X56333336Y37211848D01*
X56333336Y37211848D02*
X56428574Y37211848D01*
X56761908Y36545181D02*
X56761908Y37211848D01*
X56761908Y37545181D02*
X56714289Y37497562D01*
X56714289Y37497562D02*
X56761908Y37449943D01*
X56761908Y37449943D02*
X56809527Y37497562D01*
X56809527Y37497562D02*
X56761908Y37545181D01*
X56761908Y37545181D02*
X56761908Y37449943D01*
X57238098Y37211848D02*
X57238098Y36545181D01*
X57238098Y37116610D02*
X57285717Y37164229D01*
X57285717Y37164229D02*
X57380955Y37211848D01*
X57380955Y37211848D02*
X57523812Y37211848D01*
X57523812Y37211848D02*
X57619050Y37164229D01*
X57619050Y37164229D02*
X57666669Y37068991D01*
X57666669Y37068991D02*
X57666669Y36545181D01*
X58571431Y37211848D02*
X58571431Y36402324D01*
X58571431Y36402324D02*
X58523812Y36307086D01*
X58523812Y36307086D02*
X58476193Y36259467D01*
X58476193Y36259467D02*
X58380955Y36211848D01*
X58380955Y36211848D02*
X58238098Y36211848D01*
X58238098Y36211848D02*
X58142860Y36259467D01*
X58571431Y36592800D02*
X58476193Y36545181D01*
X58476193Y36545181D02*
X58285717Y36545181D01*
X58285717Y36545181D02*
X58190479Y36592800D01*
X58190479Y36592800D02*
X58142860Y36640420D01*
X58142860Y36640420D02*
X58095241Y36735658D01*
X58095241Y36735658D02*
X58095241Y37021372D01*
X58095241Y37021372D02*
X58142860Y37116610D01*
X58142860Y37116610D02*
X58190479Y37164229D01*
X58190479Y37164229D02*
X58285717Y37211848D01*
X58285717Y37211848D02*
X58476193Y37211848D01*
X58476193Y37211848D02*
X58571431Y37164229D01*
X42261905Y71545181D02*
X42261905Y72545181D01*
X42261905Y72545181D02*
X42642857Y72545181D01*
X42642857Y72545181D02*
X42738095Y72497562D01*
X42738095Y72497562D02*
X42785714Y72449943D01*
X42785714Y72449943D02*
X42833333Y72354705D01*
X42833333Y72354705D02*
X42833333Y72211848D01*
X42833333Y72211848D02*
X42785714Y72116610D01*
X42785714Y72116610D02*
X42738095Y72068991D01*
X42738095Y72068991D02*
X42642857Y72021372D01*
X42642857Y72021372D02*
X42261905Y72021372D01*
X43690476Y72211848D02*
X43690476Y71545181D01*
X43452381Y72592800D02*
X43214286Y71878515D01*
X43214286Y71878515D02*
X43833333Y71878515D01*
X52666667Y71545181D02*
X52666667Y72545181D01*
X52666667Y72545181D02*
X53047619Y72545181D01*
X53047619Y72545181D02*
X53142857Y72497562D01*
X53142857Y72497562D02*
X53190476Y72449943D01*
X53190476Y72449943D02*
X53238095Y72354705D01*
X53238095Y72354705D02*
X53238095Y72211848D01*
X53238095Y72211848D02*
X53190476Y72116610D01*
X53190476Y72116610D02*
X53142857Y72068991D01*
X53142857Y72068991D02*
X53047619Y72021372D01*
X53047619Y72021372D02*
X52666667Y72021372D01*
X53571429Y72545181D02*
X53809524Y71545181D01*
X53809524Y71545181D02*
X54000000Y72259467D01*
X54000000Y72259467D02*
X54190476Y71545181D01*
X54190476Y71545181D02*
X54428572Y72545181D01*
X55380952Y71545181D02*
X55047619Y72021372D01*
X54809524Y71545181D02*
X54809524Y72545181D01*
X54809524Y72545181D02*
X55190476Y72545181D01*
X55190476Y72545181D02*
X55285714Y72497562D01*
X55285714Y72497562D02*
X55333333Y72449943D01*
X55333333Y72449943D02*
X55380952Y72354705D01*
X55380952Y72354705D02*
X55380952Y72211848D01*
X55380952Y72211848D02*
X55333333Y72116610D01*
X55333333Y72116610D02*
X55285714Y72068991D01*
X55285714Y72068991D02*
X55190476Y72021372D01*
X55190476Y72021372D02*
X54809524Y72021372D01*
X53238095Y65045181D02*
X53428571Y65045181D01*
X53428571Y65045181D02*
X53523809Y64997562D01*
X53523809Y64997562D02*
X53619047Y64902324D01*
X53619047Y64902324D02*
X53666666Y64711848D01*
X53666666Y64711848D02*
X53666666Y64378515D01*
X53666666Y64378515D02*
X53619047Y64188039D01*
X53619047Y64188039D02*
X53523809Y64092800D01*
X53523809Y64092800D02*
X53428571Y64045181D01*
X53428571Y64045181D02*
X53238095Y64045181D01*
X53238095Y64045181D02*
X53142857Y64092800D01*
X53142857Y64092800D02*
X53047619Y64188039D01*
X53047619Y64188039D02*
X53000000Y64378515D01*
X53000000Y64378515D02*
X53000000Y64711848D01*
X53000000Y64711848D02*
X53047619Y64902324D01*
X53047619Y64902324D02*
X53142857Y64997562D01*
X53142857Y64997562D02*
X53238095Y65045181D01*
X53952381Y65045181D02*
X54285714Y64045181D01*
X54285714Y64045181D02*
X54619047Y65045181D01*
X54952381Y64568991D02*
X55285714Y64568991D01*
X55428571Y64045181D02*
X54952381Y64045181D01*
X54952381Y64045181D02*
X54952381Y65045181D01*
X54952381Y65045181D02*
X55428571Y65045181D01*
X56428571Y64045181D02*
X56095238Y64521372D01*
X55857143Y64045181D02*
X55857143Y65045181D01*
X55857143Y65045181D02*
X56238095Y65045181D01*
X56238095Y65045181D02*
X56333333Y64997562D01*
X56333333Y64997562D02*
X56380952Y64949943D01*
X56380952Y64949943D02*
X56428571Y64854705D01*
X56428571Y64854705D02*
X56428571Y64711848D01*
X56428571Y64711848D02*
X56380952Y64616610D01*
X56380952Y64616610D02*
X56333333Y64568991D01*
X56333333Y64568991D02*
X56238095Y64521372D01*
X56238095Y64521372D02*
X55857143Y64521372D01*
X57476191Y65045181D02*
X58047619Y65045181D01*
X57761905Y64045181D02*
X57761905Y65045181D01*
X58380953Y64568991D02*
X58714286Y64568991D01*
X58857143Y64045181D02*
X58380953Y64045181D01*
X58380953Y64045181D02*
X58380953Y65045181D01*
X58380953Y65045181D02*
X58857143Y65045181D01*
X59285715Y64045181D02*
X59285715Y65045181D01*
X59285715Y65045181D02*
X59619048Y64330896D01*
X59619048Y64330896D02*
X59952381Y65045181D01*
X59952381Y65045181D02*
X59952381Y64045181D01*
X60428572Y64045181D02*
X60428572Y65045181D01*
X60428572Y65045181D02*
X60809524Y65045181D01*
X60809524Y65045181D02*
X60904762Y64997562D01*
X60904762Y64997562D02*
X60952381Y64949943D01*
X60952381Y64949943D02*
X61000000Y64854705D01*
X61000000Y64854705D02*
X61000000Y64711848D01*
X61000000Y64711848D02*
X60952381Y64616610D01*
X60952381Y64616610D02*
X60904762Y64568991D01*
X60904762Y64568991D02*
X60809524Y64521372D01*
X60809524Y64521372D02*
X60428572Y64521372D01*
X55357140Y51545181D02*
X55357140Y52545181D01*
X55357140Y52545181D02*
X55690473Y51830896D01*
X55690473Y51830896D02*
X56023806Y52545181D01*
X56023806Y52545181D02*
X56023806Y51545181D01*
X56833330Y52068991D02*
X56499997Y52068991D01*
X56499997Y51545181D02*
X56499997Y52545181D01*
X56499997Y52545181D02*
X56976187Y52545181D01*
X57357140Y51926134D02*
X58119045Y51926134D01*
X59166663Y51545181D02*
X58833330Y52021372D01*
X58595235Y51545181D02*
X58595235Y52545181D01*
X58595235Y52545181D02*
X58976187Y52545181D01*
X58976187Y52545181D02*
X59071425Y52497562D01*
X59071425Y52497562D02*
X59119044Y52449943D01*
X59119044Y52449943D02*
X59166663Y52354705D01*
X59166663Y52354705D02*
X59166663Y52211848D01*
X59166663Y52211848D02*
X59119044Y52116610D01*
X59119044Y52116610D02*
X59071425Y52068991D01*
X59071425Y52068991D02*
X58976187Y52021372D01*
X58976187Y52021372D02*
X58595235Y52021372D01*
X60023806Y52545181D02*
X59833330Y52545181D01*
X59833330Y52545181D02*
X59738092Y52497562D01*
X59738092Y52497562D02*
X59690473Y52449943D01*
X59690473Y52449943D02*
X59595235Y52307086D01*
X59595235Y52307086D02*
X59547616Y52116610D01*
X59547616Y52116610D02*
X59547616Y51735658D01*
X59547616Y51735658D02*
X59595235Y51640420D01*
X59595235Y51640420D02*
X59642854Y51592800D01*
X59642854Y51592800D02*
X59738092Y51545181D01*
X59738092Y51545181D02*
X59928568Y51545181D01*
X59928568Y51545181D02*
X60023806Y51592800D01*
X60023806Y51592800D02*
X60071425Y51640420D01*
X60071425Y51640420D02*
X60119044Y51735658D01*
X60119044Y51735658D02*
X60119044Y51973753D01*
X60119044Y51973753D02*
X60071425Y52068991D01*
X60071425Y52068991D02*
X60023806Y52116610D01*
X60023806Y52116610D02*
X59928568Y52164229D01*
X59928568Y52164229D02*
X59738092Y52164229D01*
X59738092Y52164229D02*
X59642854Y52116610D01*
X59642854Y52116610D02*
X59595235Y52068991D01*
X59595235Y52068991D02*
X59547616Y51973753D01*
X60738092Y52545181D02*
X60833330Y52545181D01*
X60833330Y52545181D02*
X60928568Y52497562D01*
X60928568Y52497562D02*
X60976187Y52449943D01*
X60976187Y52449943D02*
X61023806Y52354705D01*
X61023806Y52354705D02*
X61071425Y52164229D01*
X61071425Y52164229D02*
X61071425Y51926134D01*
X61071425Y51926134D02*
X61023806Y51735658D01*
X61023806Y51735658D02*
X60976187Y51640420D01*
X60976187Y51640420D02*
X60928568Y51592800D01*
X60928568Y51592800D02*
X60833330Y51545181D01*
X60833330Y51545181D02*
X60738092Y51545181D01*
X60738092Y51545181D02*
X60642854Y51592800D01*
X60642854Y51592800D02*
X60595235Y51640420D01*
X60595235Y51640420D02*
X60547616Y51735658D01*
X60547616Y51735658D02*
X60499997Y51926134D01*
X60499997Y51926134D02*
X60499997Y52164229D01*
X60499997Y52164229D02*
X60547616Y52354705D01*
X60547616Y52354705D02*
X60595235Y52449943D01*
X60595235Y52449943D02*
X60642854Y52497562D01*
X60642854Y52497562D02*
X60738092Y52545181D01*
X61690473Y52545181D02*
X61785711Y52545181D01*
X61785711Y52545181D02*
X61880949Y52497562D01*
X61880949Y52497562D02*
X61928568Y52449943D01*
X61928568Y52449943D02*
X61976187Y52354705D01*
X61976187Y52354705D02*
X62023806Y52164229D01*
X62023806Y52164229D02*
X62023806Y51926134D01*
X62023806Y51926134D02*
X61976187Y51735658D01*
X61976187Y51735658D02*
X61928568Y51640420D01*
X61928568Y51640420D02*
X61880949Y51592800D01*
X61880949Y51592800D02*
X61785711Y51545181D01*
X61785711Y51545181D02*
X61690473Y51545181D01*
X61690473Y51545181D02*
X61595235Y51592800D01*
X61595235Y51592800D02*
X61547616Y51640420D01*
X61547616Y51640420D02*
X61499997Y51735658D01*
X61499997Y51735658D02*
X61452378Y51926134D01*
X61452378Y51926134D02*
X61452378Y52164229D01*
X61452378Y52164229D02*
X61499997Y52354705D01*
X61499997Y52354705D02*
X61547616Y52449943D01*
X61547616Y52449943D02*
X61595235Y52497562D01*
X61595235Y52497562D02*
X61690473Y52545181D01*
X63642854Y52545181D02*
X63452378Y52545181D01*
X63452378Y52545181D02*
X63357140Y52497562D01*
X63357140Y52497562D02*
X63309521Y52449943D01*
X63309521Y52449943D02*
X63214283Y52307086D01*
X63214283Y52307086D02*
X63166664Y52116610D01*
X63166664Y52116610D02*
X63166664Y51735658D01*
X63166664Y51735658D02*
X63214283Y51640420D01*
X63214283Y51640420D02*
X63261902Y51592800D01*
X63261902Y51592800D02*
X63357140Y51545181D01*
X63357140Y51545181D02*
X63547616Y51545181D01*
X63547616Y51545181D02*
X63642854Y51592800D01*
X63642854Y51592800D02*
X63690473Y51640420D01*
X63690473Y51640420D02*
X63738092Y51735658D01*
X63738092Y51735658D02*
X63738092Y51973753D01*
X63738092Y51973753D02*
X63690473Y52068991D01*
X63690473Y52068991D02*
X63642854Y52116610D01*
X63642854Y52116610D02*
X63547616Y52164229D01*
X63547616Y52164229D02*
X63357140Y52164229D01*
X63357140Y52164229D02*
X63261902Y52116610D01*
X63261902Y52116610D02*
X63214283Y52068991D01*
X63214283Y52068991D02*
X63166664Y51973753D01*
X64119045Y51830896D02*
X64595235Y51830896D01*
X64023807Y51545181D02*
X64357140Y52545181D01*
X64357140Y52545181D02*
X64690473Y51545181D01*
X65738092Y52592800D02*
X64880950Y51307086D01*
X66595235Y51545181D02*
X66023807Y51545181D01*
X66309521Y51545181D02*
X66309521Y52545181D01*
X66309521Y52545181D02*
X66214283Y52402324D01*
X66214283Y52402324D02*
X66119045Y52307086D01*
X66119045Y52307086D02*
X66023807Y52259467D01*
X66976188Y52449943D02*
X67023807Y52497562D01*
X67023807Y52497562D02*
X67119045Y52545181D01*
X67119045Y52545181D02*
X67357140Y52545181D01*
X67357140Y52545181D02*
X67452378Y52497562D01*
X67452378Y52497562D02*
X67499997Y52449943D01*
X67499997Y52449943D02*
X67547616Y52354705D01*
X67547616Y52354705D02*
X67547616Y52259467D01*
X67547616Y52259467D02*
X67499997Y52116610D01*
X67499997Y52116610D02*
X66928569Y51545181D01*
X66928569Y51545181D02*
X67547616Y51545181D01*
X67928569Y51830896D02*
X68404759Y51830896D01*
X67833331Y51545181D02*
X68166664Y52545181D01*
X68166664Y52545181D02*
X68499997Y51545181D01*
X69595236Y51926134D02*
X70357141Y51926134D01*
X72071426Y51545181D02*
X71595236Y51545181D01*
X71595236Y51545181D02*
X71595236Y52545181D01*
X72404760Y52068991D02*
X72738093Y52068991D01*
X72880950Y51545181D02*
X72404760Y51545181D01*
X72404760Y51545181D02*
X72404760Y52545181D01*
X72404760Y52545181D02*
X72880950Y52545181D01*
X73309522Y51545181D02*
X73309522Y52545181D01*
X73309522Y52545181D02*
X73547617Y52545181D01*
X73547617Y52545181D02*
X73690474Y52497562D01*
X73690474Y52497562D02*
X73785712Y52402324D01*
X73785712Y52402324D02*
X73833331Y52307086D01*
X73833331Y52307086D02*
X73880950Y52116610D01*
X73880950Y52116610D02*
X73880950Y51973753D01*
X73880950Y51973753D02*
X73833331Y51783277D01*
X73833331Y51783277D02*
X73785712Y51688039D01*
X73785712Y51688039D02*
X73690474Y51592800D01*
X73690474Y51592800D02*
X73547617Y51545181D01*
X73547617Y51545181D02*
X73309522Y51545181D01*
X75214284Y51545181D02*
X75119046Y51592800D01*
X75119046Y51592800D02*
X75071427Y51688039D01*
X75071427Y51688039D02*
X75071427Y52545181D01*
X75595237Y51545181D02*
X75595237Y52211848D01*
X75595237Y52545181D02*
X75547618Y52497562D01*
X75547618Y52497562D02*
X75595237Y52449943D01*
X75595237Y52449943D02*
X75642856Y52497562D01*
X75642856Y52497562D02*
X75595237Y52545181D01*
X75595237Y52545181D02*
X75595237Y52449943D01*
X76499998Y52211848D02*
X76499998Y51402324D01*
X76499998Y51402324D02*
X76452379Y51307086D01*
X76452379Y51307086D02*
X76404760Y51259467D01*
X76404760Y51259467D02*
X76309522Y51211848D01*
X76309522Y51211848D02*
X76166665Y51211848D01*
X76166665Y51211848D02*
X76071427Y51259467D01*
X76499998Y51592800D02*
X76404760Y51545181D01*
X76404760Y51545181D02*
X76214284Y51545181D01*
X76214284Y51545181D02*
X76119046Y51592800D01*
X76119046Y51592800D02*
X76071427Y51640420D01*
X76071427Y51640420D02*
X76023808Y51735658D01*
X76023808Y51735658D02*
X76023808Y52021372D01*
X76023808Y52021372D02*
X76071427Y52116610D01*
X76071427Y52116610D02*
X76119046Y52164229D01*
X76119046Y52164229D02*
X76214284Y52211848D01*
X76214284Y52211848D02*
X76404760Y52211848D01*
X76404760Y52211848D02*
X76499998Y52164229D01*
X76976189Y51545181D02*
X76976189Y52545181D01*
X77404760Y51545181D02*
X77404760Y52068991D01*
X77404760Y52068991D02*
X77357141Y52164229D01*
X77357141Y52164229D02*
X77261903Y52211848D01*
X77261903Y52211848D02*
X77119046Y52211848D01*
X77119046Y52211848D02*
X77023808Y52164229D01*
X77023808Y52164229D02*
X76976189Y52116610D01*
X77738094Y52211848D02*
X78119046Y52211848D01*
X77880951Y52545181D02*
X77880951Y51688039D01*
X77880951Y51688039D02*
X77928570Y51592800D01*
X77928570Y51592800D02*
X78023808Y51545181D01*
X78023808Y51545181D02*
X78119046Y51545181D01*
X78404761Y51592800D02*
X78499999Y51545181D01*
X78499999Y51545181D02*
X78690475Y51545181D01*
X78690475Y51545181D02*
X78785713Y51592800D01*
X78785713Y51592800D02*
X78833332Y51688039D01*
X78833332Y51688039D02*
X78833332Y51735658D01*
X78833332Y51735658D02*
X78785713Y51830896D01*
X78785713Y51830896D02*
X78690475Y51878515D01*
X78690475Y51878515D02*
X78547618Y51878515D01*
X78547618Y51878515D02*
X78452380Y51926134D01*
X78452380Y51926134D02*
X78404761Y52021372D01*
X78404761Y52021372D02*
X78404761Y52068991D01*
X78404761Y52068991D02*
X78452380Y52164229D01*
X78452380Y52164229D02*
X78547618Y52211848D01*
X78547618Y52211848D02*
X78690475Y52211848D01*
X78690475Y52211848D02*
X78785713Y52164229D01*
X79928571Y52211848D02*
X80119047Y51545181D01*
X80119047Y51545181D02*
X80309523Y52021372D01*
X80309523Y52021372D02*
X80499999Y51545181D01*
X80499999Y51545181D02*
X80690475Y52211848D01*
X81071428Y51545181D02*
X81071428Y52545181D01*
X81499999Y51545181D02*
X81499999Y52068991D01*
X81499999Y52068991D02*
X81452380Y52164229D01*
X81452380Y52164229D02*
X81357142Y52211848D01*
X81357142Y52211848D02*
X81214285Y52211848D01*
X81214285Y52211848D02*
X81119047Y52164229D01*
X81119047Y52164229D02*
X81071428Y52116610D01*
X82357142Y51592800D02*
X82261904Y51545181D01*
X82261904Y51545181D02*
X82071428Y51545181D01*
X82071428Y51545181D02*
X81976190Y51592800D01*
X81976190Y51592800D02*
X81928571Y51688039D01*
X81928571Y51688039D02*
X81928571Y52068991D01*
X81928571Y52068991D02*
X81976190Y52164229D01*
X81976190Y52164229D02*
X82071428Y52211848D01*
X82071428Y52211848D02*
X82261904Y52211848D01*
X82261904Y52211848D02*
X82357142Y52164229D01*
X82357142Y52164229D02*
X82404761Y52068991D01*
X82404761Y52068991D02*
X82404761Y51973753D01*
X82404761Y51973753D02*
X81928571Y51878515D01*
X82833333Y52211848D02*
X82833333Y51545181D01*
X82833333Y52116610D02*
X82880952Y52164229D01*
X82880952Y52164229D02*
X82976190Y52211848D01*
X82976190Y52211848D02*
X83119047Y52211848D01*
X83119047Y52211848D02*
X83214285Y52164229D01*
X83214285Y52164229D02*
X83261904Y52068991D01*
X83261904Y52068991D02*
X83261904Y51545181D01*
X84357143Y52211848D02*
X84738095Y52211848D01*
X84500000Y52545181D02*
X84500000Y51688039D01*
X84500000Y51688039D02*
X84547619Y51592800D01*
X84547619Y51592800D02*
X84642857Y51545181D01*
X84642857Y51545181D02*
X84738095Y51545181D01*
X85071429Y51545181D02*
X85071429Y52545181D01*
X85500000Y51545181D02*
X85500000Y52068991D01*
X85500000Y52068991D02*
X85452381Y52164229D01*
X85452381Y52164229D02*
X85357143Y52211848D01*
X85357143Y52211848D02*
X85214286Y52211848D01*
X85214286Y52211848D02*
X85119048Y52164229D01*
X85119048Y52164229D02*
X85071429Y52116610D01*
X86404762Y51545181D02*
X86404762Y52068991D01*
X86404762Y52068991D02*
X86357143Y52164229D01*
X86357143Y52164229D02*
X86261905Y52211848D01*
X86261905Y52211848D02*
X86071429Y52211848D01*
X86071429Y52211848D02*
X85976191Y52164229D01*
X86404762Y51592800D02*
X86309524Y51545181D01*
X86309524Y51545181D02*
X86071429Y51545181D01*
X86071429Y51545181D02*
X85976191Y51592800D01*
X85976191Y51592800D02*
X85928572Y51688039D01*
X85928572Y51688039D02*
X85928572Y51783277D01*
X85928572Y51783277D02*
X85976191Y51878515D01*
X85976191Y51878515D02*
X86071429Y51926134D01*
X86071429Y51926134D02*
X86309524Y51926134D01*
X86309524Y51926134D02*
X86404762Y51973753D01*
X86738096Y52211848D02*
X87119048Y52211848D01*
X86880953Y52545181D02*
X86880953Y51688039D01*
X86880953Y51688039D02*
X86928572Y51592800D01*
X86928572Y51592800D02*
X87023810Y51545181D01*
X87023810Y51545181D02*
X87119048Y51545181D01*
X88357144Y51545181D02*
X88261906Y51592800D01*
X88261906Y51592800D02*
X88214287Y51640420D01*
X88214287Y51640420D02*
X88166668Y51735658D01*
X88166668Y51735658D02*
X88166668Y52021372D01*
X88166668Y52021372D02*
X88214287Y52116610D01*
X88214287Y52116610D02*
X88261906Y52164229D01*
X88261906Y52164229D02*
X88357144Y52211848D01*
X88357144Y52211848D02*
X88500001Y52211848D01*
X88500001Y52211848D02*
X88595239Y52164229D01*
X88595239Y52164229D02*
X88642858Y52116610D01*
X88642858Y52116610D02*
X88690477Y52021372D01*
X88690477Y52021372D02*
X88690477Y51735658D01*
X88690477Y51735658D02*
X88642858Y51640420D01*
X88642858Y51640420D02*
X88595239Y51592800D01*
X88595239Y51592800D02*
X88500001Y51545181D01*
X88500001Y51545181D02*
X88357144Y51545181D01*
X89547620Y52211848D02*
X89547620Y51545181D01*
X89119049Y52211848D02*
X89119049Y51688039D01*
X89119049Y51688039D02*
X89166668Y51592800D01*
X89166668Y51592800D02*
X89261906Y51545181D01*
X89261906Y51545181D02*
X89404763Y51545181D01*
X89404763Y51545181D02*
X89500001Y51592800D01*
X89500001Y51592800D02*
X89547620Y51640420D01*
X89880954Y52211848D02*
X90261906Y52211848D01*
X90023811Y52545181D02*
X90023811Y51688039D01*
X90023811Y51688039D02*
X90071430Y51592800D01*
X90071430Y51592800D02*
X90166668Y51545181D01*
X90166668Y51545181D02*
X90261906Y51545181D01*
X90595240Y52211848D02*
X90595240Y51211848D01*
X90595240Y52164229D02*
X90690478Y52211848D01*
X90690478Y52211848D02*
X90880954Y52211848D01*
X90880954Y52211848D02*
X90976192Y52164229D01*
X90976192Y52164229D02*
X91023811Y52116610D01*
X91023811Y52116610D02*
X91071430Y52021372D01*
X91071430Y52021372D02*
X91071430Y51735658D01*
X91071430Y51735658D02*
X91023811Y51640420D01*
X91023811Y51640420D02*
X90976192Y51592800D01*
X90976192Y51592800D02*
X90880954Y51545181D01*
X90880954Y51545181D02*
X90690478Y51545181D01*
X90690478Y51545181D02*
X90595240Y51592800D01*
X91928573Y52211848D02*
X91928573Y51545181D01*
X91500002Y52211848D02*
X91500002Y51688039D01*
X91500002Y51688039D02*
X91547621Y51592800D01*
X91547621Y51592800D02*
X91642859Y51545181D01*
X91642859Y51545181D02*
X91785716Y51545181D01*
X91785716Y51545181D02*
X91880954Y51592800D01*
X91880954Y51592800D02*
X91928573Y51640420D01*
X92261907Y52211848D02*
X92642859Y52211848D01*
X92404764Y52545181D02*
X92404764Y51688039D01*
X92404764Y51688039D02*
X92452383Y51592800D01*
X92452383Y51592800D02*
X92547621Y51545181D01*
X92547621Y51545181D02*
X92642859Y51545181D01*
X93595241Y52211848D02*
X93976193Y52211848D01*
X93738098Y52545181D02*
X93738098Y51688039D01*
X93738098Y51688039D02*
X93785717Y51592800D01*
X93785717Y51592800D02*
X93880955Y51545181D01*
X93880955Y51545181D02*
X93976193Y51545181D01*
X94309527Y51545181D02*
X94309527Y52211848D01*
X94309527Y52021372D02*
X94357146Y52116610D01*
X94357146Y52116610D02*
X94404765Y52164229D01*
X94404765Y52164229D02*
X94500003Y52211848D01*
X94500003Y52211848D02*
X94595241Y52211848D01*
X94928575Y51545181D02*
X94928575Y52211848D01*
X94928575Y52545181D02*
X94880956Y52497562D01*
X94880956Y52497562D02*
X94928575Y52449943D01*
X94928575Y52449943D02*
X94976194Y52497562D01*
X94976194Y52497562D02*
X94928575Y52545181D01*
X94928575Y52545181D02*
X94928575Y52449943D01*
X95404765Y52211848D02*
X95404765Y51211848D01*
X95404765Y52164229D02*
X95500003Y52211848D01*
X95500003Y52211848D02*
X95690479Y52211848D01*
X95690479Y52211848D02*
X95785717Y52164229D01*
X95785717Y52164229D02*
X95833336Y52116610D01*
X95833336Y52116610D02*
X95880955Y52021372D01*
X95880955Y52021372D02*
X95880955Y51735658D01*
X95880955Y51735658D02*
X95833336Y51640420D01*
X95833336Y51640420D02*
X95785717Y51592800D01*
X95785717Y51592800D02*
X95690479Y51545181D01*
X95690479Y51545181D02*
X95500003Y51545181D01*
X95500003Y51545181D02*
X95404765Y51592800D01*
X96261908Y51592800D02*
X96357146Y51545181D01*
X96357146Y51545181D02*
X96547622Y51545181D01*
X96547622Y51545181D02*
X96642860Y51592800D01*
X96642860Y51592800D02*
X96690479Y51688039D01*
X96690479Y51688039D02*
X96690479Y51735658D01*
X96690479Y51735658D02*
X96642860Y51830896D01*
X96642860Y51830896D02*
X96547622Y51878515D01*
X96547622Y51878515D02*
X96404765Y51878515D01*
X96404765Y51878515D02*
X96309527Y51926134D01*
X96309527Y51926134D02*
X96261908Y52021372D01*
X96261908Y52021372D02*
X96261908Y52068991D01*
X96261908Y52068991D02*
X96309527Y52164229D01*
X96309527Y52164229D02*
X96404765Y52211848D01*
X96404765Y52211848D02*
X96547622Y52211848D01*
X96547622Y52211848D02*
X96642860Y52164229D01*
X98047618Y56545181D02*
X97714285Y57021372D01*
X97476190Y56545181D02*
X97476190Y57545181D01*
X97476190Y57545181D02*
X97857142Y57545181D01*
X97857142Y57545181D02*
X97952380Y57497562D01*
X97952380Y57497562D02*
X97999999Y57449943D01*
X97999999Y57449943D02*
X98047618Y57354705D01*
X98047618Y57354705D02*
X98047618Y57211848D01*
X98047618Y57211848D02*
X97999999Y57116610D01*
X97999999Y57116610D02*
X97952380Y57068991D01*
X97952380Y57068991D02*
X97857142Y57021372D01*
X97857142Y57021372D02*
X97476190Y57021372D01*
X98476190Y57068991D02*
X98809523Y57068991D01*
X98952380Y56545181D02*
X98476190Y56545181D01*
X98476190Y56545181D02*
X98476190Y57545181D01*
X98476190Y57545181D02*
X98952380Y57545181D01*
X99238095Y57545181D02*
X99571428Y56545181D01*
X99571428Y56545181D02*
X99904761Y57545181D01*
X100238095Y57068991D02*
X100571428Y57068991D01*
X100714285Y56545181D02*
X100238095Y56545181D01*
X100238095Y56545181D02*
X100238095Y57545181D01*
X100238095Y57545181D02*
X100714285Y57545181D01*
X101714285Y56545181D02*
X101380952Y57021372D01*
X101142857Y56545181D02*
X101142857Y57545181D01*
X101142857Y57545181D02*
X101523809Y57545181D01*
X101523809Y57545181D02*
X101619047Y57497562D01*
X101619047Y57497562D02*
X101666666Y57449943D01*
X101666666Y57449943D02*
X101714285Y57354705D01*
X101714285Y57354705D02*
X101714285Y57211848D01*
X101714285Y57211848D02*
X101666666Y57116610D01*
X101666666Y57116610D02*
X101619047Y57068991D01*
X101619047Y57068991D02*
X101523809Y57021372D01*
X101523809Y57021372D02*
X101142857Y57021372D01*
X102095238Y56592800D02*
X102238095Y56545181D01*
X102238095Y56545181D02*
X102476190Y56545181D01*
X102476190Y56545181D02*
X102571428Y56592800D01*
X102571428Y56592800D02*
X102619047Y56640420D01*
X102619047Y56640420D02*
X102666666Y56735658D01*
X102666666Y56735658D02*
X102666666Y56830896D01*
X102666666Y56830896D02*
X102619047Y56926134D01*
X102619047Y56926134D02*
X102571428Y56973753D01*
X102571428Y56973753D02*
X102476190Y57021372D01*
X102476190Y57021372D02*
X102285714Y57068991D01*
X102285714Y57068991D02*
X102190476Y57116610D01*
X102190476Y57116610D02*
X102142857Y57164229D01*
X102142857Y57164229D02*
X102095238Y57259467D01*
X102095238Y57259467D02*
X102095238Y57354705D01*
X102095238Y57354705D02*
X102142857Y57449943D01*
X102142857Y57449943D02*
X102190476Y57497562D01*
X102190476Y57497562D02*
X102285714Y57545181D01*
X102285714Y57545181D02*
X102523809Y57545181D01*
X102523809Y57545181D02*
X102666666Y57497562D01*
X103095238Y57068991D02*
X103428571Y57068991D01*
X103571428Y56545181D02*
X103095238Y56545181D01*
X103095238Y56545181D02*
X103095238Y57545181D01*
X103095238Y57545181D02*
X103571428Y57545181D01*
X104000000Y56545181D02*
X104000000Y57545181D01*
X104000000Y57545181D02*
X104238095Y57545181D01*
X104238095Y57545181D02*
X104380952Y57497562D01*
X104380952Y57497562D02*
X104476190Y57402324D01*
X104476190Y57402324D02*
X104523809Y57307086D01*
X104523809Y57307086D02*
X104571428Y57116610D01*
X104571428Y57116610D02*
X104571428Y56973753D01*
X104571428Y56973753D02*
X104523809Y56783277D01*
X104523809Y56783277D02*
X104476190Y56688039D01*
X104476190Y56688039D02*
X104380952Y56592800D01*
X104380952Y56592800D02*
X104238095Y56545181D01*
X104238095Y56545181D02*
X104000000Y56545181D01*
X90119048Y73545181D02*
X90119048Y74545181D01*
X90547619Y74449943D02*
X90595238Y74497562D01*
X90595238Y74497562D02*
X90690476Y74545181D01*
X90690476Y74545181D02*
X90928571Y74545181D01*
X90928571Y74545181D02*
X91023809Y74497562D01*
X91023809Y74497562D02*
X91071428Y74449943D01*
X91071428Y74449943D02*
X91119047Y74354705D01*
X91119047Y74354705D02*
X91119047Y74259467D01*
X91119047Y74259467D02*
X91071428Y74116610D01*
X91071428Y74116610D02*
X90500000Y73545181D01*
X90500000Y73545181D02*
X91119047Y73545181D01*
X92119047Y73640420D02*
X92071428Y73592800D01*
X92071428Y73592800D02*
X91928571Y73545181D01*
X91928571Y73545181D02*
X91833333Y73545181D01*
X91833333Y73545181D02*
X91690476Y73592800D01*
X91690476Y73592800D02*
X91595238Y73688039D01*
X91595238Y73688039D02*
X91547619Y73783277D01*
X91547619Y73783277D02*
X91500000Y73973753D01*
X91500000Y73973753D02*
X91500000Y74116610D01*
X91500000Y74116610D02*
X91547619Y74307086D01*
X91547619Y74307086D02*
X91595238Y74402324D01*
X91595238Y74402324D02*
X91690476Y74497562D01*
X91690476Y74497562D02*
X91833333Y74545181D01*
X91833333Y74545181D02*
X91928571Y74545181D01*
X91928571Y74545181D02*
X92071428Y74497562D01*
X92071428Y74497562D02*
X92119047Y74449943D01*
X94595238Y74497562D02*
X94500000Y74545181D01*
X94500000Y74545181D02*
X94357143Y74545181D01*
X94357143Y74545181D02*
X94214286Y74497562D01*
X94214286Y74497562D02*
X94119048Y74402324D01*
X94119048Y74402324D02*
X94071429Y74307086D01*
X94071429Y74307086D02*
X94023810Y74116610D01*
X94023810Y74116610D02*
X94023810Y73973753D01*
X94023810Y73973753D02*
X94071429Y73783277D01*
X94071429Y73783277D02*
X94119048Y73688039D01*
X94119048Y73688039D02*
X94214286Y73592800D01*
X94214286Y73592800D02*
X94357143Y73545181D01*
X94357143Y73545181D02*
X94452381Y73545181D01*
X94452381Y73545181D02*
X94595238Y73592800D01*
X94595238Y73592800D02*
X94642857Y73640420D01*
X94642857Y73640420D02*
X94642857Y73973753D01*
X94642857Y73973753D02*
X94452381Y73973753D01*
X95690477Y74545181D02*
X96023810Y73545181D01*
X96023810Y73545181D02*
X96357143Y74545181D01*
X96690477Y73545181D02*
X96690477Y74545181D01*
X97357143Y74545181D02*
X97547619Y74545181D01*
X97547619Y74545181D02*
X97642857Y74497562D01*
X97642857Y74497562D02*
X97738095Y74402324D01*
X97738095Y74402324D02*
X97785714Y74211848D01*
X97785714Y74211848D02*
X97785714Y73878515D01*
X97785714Y73878515D02*
X97738095Y73688039D01*
X97738095Y73688039D02*
X97642857Y73592800D01*
X97642857Y73592800D02*
X97547619Y73545181D01*
X97547619Y73545181D02*
X97357143Y73545181D01*
X97357143Y73545181D02*
X97261905Y73592800D01*
X97261905Y73592800D02*
X97166667Y73688039D01*
X97166667Y73688039D02*
X97119048Y73878515D01*
X97119048Y73878515D02*
X97119048Y74211848D01*
X97119048Y74211848D02*
X97166667Y74402324D01*
X97166667Y74402324D02*
X97261905Y74497562D01*
X97261905Y74497562D02*
X97357143Y74545181D01*
X98928572Y73592800D02*
X99071429Y73545181D01*
X99071429Y73545181D02*
X99309524Y73545181D01*
X99309524Y73545181D02*
X99404762Y73592800D01*
X99404762Y73592800D02*
X99452381Y73640420D01*
X99452381Y73640420D02*
X99500000Y73735658D01*
X99500000Y73735658D02*
X99500000Y73830896D01*
X99500000Y73830896D02*
X99452381Y73926134D01*
X99452381Y73926134D02*
X99404762Y73973753D01*
X99404762Y73973753D02*
X99309524Y74021372D01*
X99309524Y74021372D02*
X99119048Y74068991D01*
X99119048Y74068991D02*
X99023810Y74116610D01*
X99023810Y74116610D02*
X98976191Y74164229D01*
X98976191Y74164229D02*
X98928572Y74259467D01*
X98928572Y74259467D02*
X98928572Y74354705D01*
X98928572Y74354705D02*
X98976191Y74449943D01*
X98976191Y74449943D02*
X99023810Y74497562D01*
X99023810Y74497562D02*
X99119048Y74545181D01*
X99119048Y74545181D02*
X99357143Y74545181D01*
X99357143Y74545181D02*
X99500000Y74497562D01*
X99928572Y73545181D02*
X99928572Y74545181D01*
X99928572Y74545181D02*
X100166667Y74545181D01*
X100166667Y74545181D02*
X100309524Y74497562D01*
X100309524Y74497562D02*
X100404762Y74402324D01*
X100404762Y74402324D02*
X100452381Y74307086D01*
X100452381Y74307086D02*
X100500000Y74116610D01*
X100500000Y74116610D02*
X100500000Y73973753D01*
X100500000Y73973753D02*
X100452381Y73783277D01*
X100452381Y73783277D02*
X100404762Y73688039D01*
X100404762Y73688039D02*
X100309524Y73592800D01*
X100309524Y73592800D02*
X100166667Y73545181D01*
X100166667Y73545181D02*
X99928572Y73545181D01*
X100880953Y73830896D02*
X101357143Y73830896D01*
X100785715Y73545181D02*
X101119048Y74545181D01*
X101119048Y74545181D02*
X101452381Y73545181D01*
X102500001Y73592800D02*
X102642858Y73545181D01*
X102642858Y73545181D02*
X102880953Y73545181D01*
X102880953Y73545181D02*
X102976191Y73592800D01*
X102976191Y73592800D02*
X103023810Y73640420D01*
X103023810Y73640420D02*
X103071429Y73735658D01*
X103071429Y73735658D02*
X103071429Y73830896D01*
X103071429Y73830896D02*
X103023810Y73926134D01*
X103023810Y73926134D02*
X102976191Y73973753D01*
X102976191Y73973753D02*
X102880953Y74021372D01*
X102880953Y74021372D02*
X102690477Y74068991D01*
X102690477Y74068991D02*
X102595239Y74116610D01*
X102595239Y74116610D02*
X102547620Y74164229D01*
X102547620Y74164229D02*
X102500001Y74259467D01*
X102500001Y74259467D02*
X102500001Y74354705D01*
X102500001Y74354705D02*
X102547620Y74449943D01*
X102547620Y74449943D02*
X102595239Y74497562D01*
X102595239Y74497562D02*
X102690477Y74545181D01*
X102690477Y74545181D02*
X102928572Y74545181D01*
X102928572Y74545181D02*
X103071429Y74497562D01*
X104071429Y73640420D02*
X104023810Y73592800D01*
X104023810Y73592800D02*
X103880953Y73545181D01*
X103880953Y73545181D02*
X103785715Y73545181D01*
X103785715Y73545181D02*
X103642858Y73592800D01*
X103642858Y73592800D02*
X103547620Y73688039D01*
X103547620Y73688039D02*
X103500001Y73783277D01*
X103500001Y73783277D02*
X103452382Y73973753D01*
X103452382Y73973753D02*
X103452382Y74116610D01*
X103452382Y74116610D02*
X103500001Y74307086D01*
X103500001Y74307086D02*
X103547620Y74402324D01*
X103547620Y74402324D02*
X103642858Y74497562D01*
X103642858Y74497562D02*
X103785715Y74545181D01*
X103785715Y74545181D02*
X103880953Y74545181D01*
X103880953Y74545181D02*
X104023810Y74497562D01*
X104023810Y74497562D02*
X104071429Y74449943D01*
X104976191Y73545181D02*
X104500001Y73545181D01*
X104500001Y73545181D02*
X104500001Y74545181D01*
X107452383Y74545181D02*
X107785716Y73545181D01*
X107785716Y73545181D02*
X108119049Y74545181D01*
X108452383Y73545181D02*
X108452383Y74545181D01*
X109119049Y74545181D02*
X109309525Y74545181D01*
X109309525Y74545181D02*
X109404763Y74497562D01*
X109404763Y74497562D02*
X109500001Y74402324D01*
X109500001Y74402324D02*
X109547620Y74211848D01*
X109547620Y74211848D02*
X109547620Y73878515D01*
X109547620Y73878515D02*
X109500001Y73688039D01*
X109500001Y73688039D02*
X109404763Y73592800D01*
X109404763Y73592800D02*
X109309525Y73545181D01*
X109309525Y73545181D02*
X109119049Y73545181D01*
X109119049Y73545181D02*
X109023811Y73592800D01*
X109023811Y73592800D02*
X108928573Y73688039D01*
X108928573Y73688039D02*
X108880954Y73878515D01*
X108880954Y73878515D02*
X108880954Y74211848D01*
X108880954Y74211848D02*
X108928573Y74402324D01*
X108928573Y74402324D02*
X109023811Y74497562D01*
X109023811Y74497562D02*
X109119049Y74545181D01*
X109976192Y74068991D02*
X110738097Y74068991D01*
X110738097Y73783277D02*
X109976192Y73783277D01*
X111214287Y73545181D02*
X111214287Y74545181D01*
X111690477Y73545181D02*
X111690477Y74545181D01*
X111690477Y74545181D02*
X112261905Y73545181D01*
X112261905Y73545181D02*
X112261905Y74545181D01*
X113452382Y74449943D02*
X113500001Y74497562D01*
X113500001Y74497562D02*
X113595239Y74545181D01*
X113595239Y74545181D02*
X113833334Y74545181D01*
X113833334Y74545181D02*
X113928572Y74497562D01*
X113928572Y74497562D02*
X113976191Y74449943D01*
X113976191Y74449943D02*
X114023810Y74354705D01*
X114023810Y74354705D02*
X114023810Y74259467D01*
X114023810Y74259467D02*
X113976191Y74116610D01*
X113976191Y74116610D02*
X113404763Y73545181D01*
X113404763Y73545181D02*
X114023810Y73545181D01*
X114452382Y73640420D02*
X114500001Y73592800D01*
X114500001Y73592800D02*
X114452382Y73545181D01*
X114452382Y73545181D02*
X114404763Y73592800D01*
X114404763Y73592800D02*
X114452382Y73640420D01*
X114452382Y73640420D02*
X114452382Y73545181D01*
X115071429Y74116610D02*
X114976191Y74164229D01*
X114976191Y74164229D02*
X114928572Y74211848D01*
X114928572Y74211848D02*
X114880953Y74307086D01*
X114880953Y74307086D02*
X114880953Y74354705D01*
X114880953Y74354705D02*
X114928572Y74449943D01*
X114928572Y74449943D02*
X114976191Y74497562D01*
X114976191Y74497562D02*
X115071429Y74545181D01*
X115071429Y74545181D02*
X115261905Y74545181D01*
X115261905Y74545181D02*
X115357143Y74497562D01*
X115357143Y74497562D02*
X115404762Y74449943D01*
X115404762Y74449943D02*
X115452381Y74354705D01*
X115452381Y74354705D02*
X115452381Y74307086D01*
X115452381Y74307086D02*
X115404762Y74211848D01*
X115404762Y74211848D02*
X115357143Y74164229D01*
X115357143Y74164229D02*
X115261905Y74116610D01*
X115261905Y74116610D02*
X115071429Y74116610D01*
X115071429Y74116610D02*
X114976191Y74068991D01*
X114976191Y74068991D02*
X114928572Y74021372D01*
X114928572Y74021372D02*
X114880953Y73926134D01*
X114880953Y73926134D02*
X114880953Y73735658D01*
X114880953Y73735658D02*
X114928572Y73640420D01*
X114928572Y73640420D02*
X114976191Y73592800D01*
X114976191Y73592800D02*
X115071429Y73545181D01*
X115071429Y73545181D02*
X115261905Y73545181D01*
X115261905Y73545181D02*
X115357143Y73592800D01*
X115357143Y73592800D02*
X115404762Y73640420D01*
X115404762Y73640420D02*
X115452381Y73735658D01*
X115452381Y73735658D02*
X115452381Y73926134D01*
X115452381Y73926134D02*
X115404762Y74021372D01*
X115404762Y74021372D02*
X115357143Y74068991D01*
X115357143Y74068991D02*
X115261905Y74116610D01*
X115880953Y73926134D02*
X116642858Y73926134D01*
X117595238Y74545181D02*
X117119048Y74545181D01*
X117119048Y74545181D02*
X117071429Y74068991D01*
X117071429Y74068991D02*
X117119048Y74116610D01*
X117119048Y74116610D02*
X117214286Y74164229D01*
X117214286Y74164229D02*
X117452381Y74164229D01*
X117452381Y74164229D02*
X117547619Y74116610D01*
X117547619Y74116610D02*
X117595238Y74068991D01*
X117595238Y74068991D02*
X117642857Y73973753D01*
X117642857Y73973753D02*
X117642857Y73735658D01*
X117642857Y73735658D02*
X117595238Y73640420D01*
X117595238Y73640420D02*
X117547619Y73592800D01*
X117547619Y73592800D02*
X117452381Y73545181D01*
X117452381Y73545181D02*
X117214286Y73545181D01*
X117214286Y73545181D02*
X117119048Y73592800D01*
X117119048Y73592800D02*
X117071429Y73640420D01*
X118071429Y73640420D02*
X118119048Y73592800D01*
X118119048Y73592800D02*
X118071429Y73545181D01*
X118071429Y73545181D02*
X118023810Y73592800D01*
X118023810Y73592800D02*
X118071429Y73640420D01*
X118071429Y73640420D02*
X118071429Y73545181D01*
X119023809Y74545181D02*
X118547619Y74545181D01*
X118547619Y74545181D02*
X118500000Y74068991D01*
X118500000Y74068991D02*
X118547619Y74116610D01*
X118547619Y74116610D02*
X118642857Y74164229D01*
X118642857Y74164229D02*
X118880952Y74164229D01*
X118880952Y74164229D02*
X118976190Y74116610D01*
X118976190Y74116610D02*
X119023809Y74068991D01*
X119023809Y74068991D02*
X119071428Y73973753D01*
X119071428Y73973753D02*
X119071428Y73735658D01*
X119071428Y73735658D02*
X119023809Y73640420D01*
X119023809Y73640420D02*
X118976190Y73592800D01*
X118976190Y73592800D02*
X118880952Y73545181D01*
X118880952Y73545181D02*
X118642857Y73545181D01*
X118642857Y73545181D02*
X118547619Y73592800D01*
X118547619Y73592800D02*
X118500000Y73640420D01*
X119357143Y74545181D02*
X119690476Y73545181D01*
X119690476Y73545181D02*
X120023809Y74545181D01*
D11*
X9542857Y90011360D02*
X10457143Y90011360D01*
X10000000Y89554218D02*
X10000000Y90468503D01*
X9542857Y9511360D02*
X10457143Y9511360D01*
X10000000Y9054218D02*
X10000000Y9968503D01*
X12042857Y32911360D02*
X12957143Y32911360D01*
X12500000Y32454218D02*
X12500000Y33368503D01*
X12042857Y27911360D02*
X12957143Y27911360D01*
X12814285Y23597075D02*
X12700000Y23654218D01*
X12700000Y23654218D02*
X12528571Y23654218D01*
X12528571Y23654218D02*
X12357142Y23597075D01*
X12357142Y23597075D02*
X12242857Y23482789D01*
X12242857Y23482789D02*
X12185714Y23368503D01*
X12185714Y23368503D02*
X12128571Y23139932D01*
X12128571Y23139932D02*
X12128571Y22968503D01*
X12128571Y22968503D02*
X12185714Y22739932D01*
X12185714Y22739932D02*
X12242857Y22625646D01*
X12242857Y22625646D02*
X12357142Y22511360D01*
X12357142Y22511360D02*
X12528571Y22454218D01*
X12528571Y22454218D02*
X12642857Y22454218D01*
X12642857Y22454218D02*
X12814285Y22511360D01*
X12814285Y22511360D02*
X12871428Y22568503D01*
X12871428Y22568503D02*
X12871428Y22968503D01*
X12871428Y22968503D02*
X12642857Y22968503D01*
X14685714Y89554218D02*
X14685714Y90754218D01*
X14685714Y90754218D02*
X14971428Y90754218D01*
X14971428Y90754218D02*
X15142857Y90697075D01*
X15142857Y90697075D02*
X15257142Y90582789D01*
X15257142Y90582789D02*
X15314285Y90468503D01*
X15314285Y90468503D02*
X15371428Y90239932D01*
X15371428Y90239932D02*
X15371428Y90068503D01*
X15371428Y90068503D02*
X15314285Y89839932D01*
X15314285Y89839932D02*
X15257142Y89725646D01*
X15257142Y89725646D02*
X15142857Y89611360D01*
X15142857Y89611360D02*
X14971428Y89554218D01*
X14971428Y89554218D02*
X14685714Y89554218D01*
X14685714Y9054218D02*
X14685714Y10254218D01*
X14685714Y10254218D02*
X14971428Y10254218D01*
X14971428Y10254218D02*
X15142857Y10197075D01*
X15142857Y10197075D02*
X15257142Y10082789D01*
X15257142Y10082789D02*
X15314285Y9968503D01*
X15314285Y9968503D02*
X15371428Y9739932D01*
X15371428Y9739932D02*
X15371428Y9568503D01*
X15371428Y9568503D02*
X15314285Y9339932D01*
X15314285Y9339932D02*
X15257142Y9225646D01*
X15257142Y9225646D02*
X15142857Y9111360D01*
X15142857Y9111360D02*
X14971428Y9054218D01*
X14971428Y9054218D02*
X14685714Y9054218D01*
X19542857Y90011360D02*
X20457143Y90011360D01*
X19542857Y9511360D02*
X20457143Y9511360D01*
X29542857Y90011360D02*
X30457143Y90011360D01*
X30000000Y89554218D02*
X30000000Y90468503D01*
X29542857Y9511360D02*
X30457143Y9511360D01*
X30000000Y9054218D02*
X30000000Y9968503D01*
X34685714Y89554218D02*
X34685714Y90754218D01*
X34685714Y90754218D02*
X34971428Y90754218D01*
X34971428Y90754218D02*
X35142857Y90697075D01*
X35142857Y90697075D02*
X35257142Y90582789D01*
X35257142Y90582789D02*
X35314285Y90468503D01*
X35314285Y90468503D02*
X35371428Y90239932D01*
X35371428Y90239932D02*
X35371428Y90068503D01*
X35371428Y90068503D02*
X35314285Y89839932D01*
X35314285Y89839932D02*
X35257142Y89725646D01*
X35257142Y89725646D02*
X35142857Y89611360D01*
X35142857Y89611360D02*
X34971428Y89554218D01*
X34971428Y89554218D02*
X34685714Y89554218D01*
X34685714Y9054218D02*
X34685714Y10254218D01*
X34685714Y10254218D02*
X34971428Y10254218D01*
X34971428Y10254218D02*
X35142857Y10197075D01*
X35142857Y10197075D02*
X35257142Y10082789D01*
X35257142Y10082789D02*
X35314285Y9968503D01*
X35314285Y9968503D02*
X35371428Y9739932D01*
X35371428Y9739932D02*
X35371428Y9568503D01*
X35371428Y9568503D02*
X35314285Y9339932D01*
X35314285Y9339932D02*
X35257142Y9225646D01*
X35257142Y9225646D02*
X35142857Y9111360D01*
X35142857Y9111360D02*
X34971428Y9054218D01*
X34971428Y9054218D02*
X34685714Y9054218D01*
X39542857Y90011360D02*
X40457143Y90011360D01*
X39542857Y9511360D02*
X40457143Y9511360D01*
X49542857Y90011360D02*
X50457143Y90011360D01*
X50000000Y89554218D02*
X50000000Y90468503D01*
X49542857Y9511360D02*
X50457143Y9511360D01*
X50000000Y9054218D02*
X50000000Y9968503D01*
X54685714Y89554218D02*
X54685714Y90754218D01*
X54685714Y90754218D02*
X54971428Y90754218D01*
X54971428Y90754218D02*
X55142857Y90697075D01*
X55142857Y90697075D02*
X55257142Y90582789D01*
X55257142Y90582789D02*
X55314285Y90468503D01*
X55314285Y90468503D02*
X55371428Y90239932D01*
X55371428Y90239932D02*
X55371428Y90068503D01*
X55371428Y90068503D02*
X55314285Y89839932D01*
X55314285Y89839932D02*
X55257142Y89725646D01*
X55257142Y89725646D02*
X55142857Y89611360D01*
X55142857Y89611360D02*
X54971428Y89554218D01*
X54971428Y89554218D02*
X54685714Y89554218D01*
X54685714Y9054218D02*
X54685714Y10254218D01*
X54685714Y10254218D02*
X54971428Y10254218D01*
X54971428Y10254218D02*
X55142857Y10197075D01*
X55142857Y10197075D02*
X55257142Y10082789D01*
X55257142Y10082789D02*
X55314285Y9968503D01*
X55314285Y9968503D02*
X55371428Y9739932D01*
X55371428Y9739932D02*
X55371428Y9568503D01*
X55371428Y9568503D02*
X55314285Y9339932D01*
X55314285Y9339932D02*
X55257142Y9225646D01*
X55257142Y9225646D02*
X55142857Y9111360D01*
X55142857Y9111360D02*
X54971428Y9054218D01*
X54971428Y9054218D02*
X54685714Y9054218D01*
X59542857Y90011360D02*
X60457143Y90011360D01*
X59542857Y9511360D02*
X60457143Y9511360D01*
X69542857Y90011360D02*
X70457143Y90011360D01*
X70000000Y89554218D02*
X70000000Y90468503D01*
X69542857Y9511360D02*
X70457143Y9511360D01*
X70000000Y9054218D02*
X70000000Y9968503D01*
X74685714Y89554218D02*
X74685714Y90754218D01*
X74685714Y90754218D02*
X74971428Y90754218D01*
X74971428Y90754218D02*
X75142857Y90697075D01*
X75142857Y90697075D02*
X75257142Y90582789D01*
X75257142Y90582789D02*
X75314285Y90468503D01*
X75314285Y90468503D02*
X75371428Y90239932D01*
X75371428Y90239932D02*
X75371428Y90068503D01*
X75371428Y90068503D02*
X75314285Y89839932D01*
X75314285Y89839932D02*
X75257142Y89725646D01*
X75257142Y89725646D02*
X75142857Y89611360D01*
X75142857Y89611360D02*
X74971428Y89554218D01*
X74971428Y89554218D02*
X74685714Y89554218D01*
X74685714Y9054218D02*
X74685714Y10254218D01*
X74685714Y10254218D02*
X74971428Y10254218D01*
X74971428Y10254218D02*
X75142857Y10197075D01*
X75142857Y10197075D02*
X75257142Y10082789D01*
X75257142Y10082789D02*
X75314285Y9968503D01*
X75314285Y9968503D02*
X75371428Y9739932D01*
X75371428Y9739932D02*
X75371428Y9568503D01*
X75371428Y9568503D02*
X75314285Y9339932D01*
X75314285Y9339932D02*
X75257142Y9225646D01*
X75257142Y9225646D02*
X75142857Y9111360D01*
X75142857Y9111360D02*
X74971428Y9054218D01*
X74971428Y9054218D02*
X74685714Y9054218D01*
X79542857Y90011360D02*
X80457143Y90011360D01*
X79542857Y9511360D02*
X80457143Y9511360D01*
X89542857Y90011360D02*
X90457143Y90011360D01*
X90000000Y89554218D02*
X90000000Y90468503D01*
X89542857Y9511360D02*
X90457143Y9511360D01*
X90000000Y9054218D02*
X90000000Y9968503D01*
X94685714Y89554218D02*
X94685714Y90754218D01*
X94685714Y90754218D02*
X94971428Y90754218D01*
X94971428Y90754218D02*
X95142857Y90697075D01*
X95142857Y90697075D02*
X95257142Y90582789D01*
X95257142Y90582789D02*
X95314285Y90468503D01*
X95314285Y90468503D02*
X95371428Y90239932D01*
X95371428Y90239932D02*
X95371428Y90068503D01*
X95371428Y90068503D02*
X95314285Y89839932D01*
X95314285Y89839932D02*
X95257142Y89725646D01*
X95257142Y89725646D02*
X95142857Y89611360D01*
X95142857Y89611360D02*
X94971428Y89554218D01*
X94971428Y89554218D02*
X94685714Y89554218D01*
X94685714Y9054218D02*
X94685714Y10254218D01*
X94685714Y10254218D02*
X94971428Y10254218D01*
X94971428Y10254218D02*
X95142857Y10197075D01*
X95142857Y10197075D02*
X95257142Y10082789D01*
X95257142Y10082789D02*
X95314285Y9968503D01*
X95314285Y9968503D02*
X95371428Y9739932D01*
X95371428Y9739932D02*
X95371428Y9568503D01*
X95371428Y9568503D02*
X95314285Y9339932D01*
X95314285Y9339932D02*
X95257142Y9225646D01*
X95257142Y9225646D02*
X95142857Y9111360D01*
X95142857Y9111360D02*
X94971428Y9054218D01*
X94971428Y9054218D02*
X94685714Y9054218D01*
X99542857Y90011360D02*
X100457143Y90011360D01*
X86885714Y60754218D02*
X86885714Y61954218D01*
X86885714Y61954218D02*
X87285714Y61097075D01*
X87285714Y61097075D02*
X87685714Y61954218D01*
X87685714Y61954218D02*
X87685714Y60754218D01*
X88200000Y61097075D02*
X88771429Y61097075D01*
X88085714Y60754218D02*
X88485714Y61954218D01*
X88485714Y61954218D02*
X88885714Y60754218D01*
X89285714Y60754218D02*
X89285714Y61954218D01*
X89857143Y60754218D02*
X89857143Y61954218D01*
X89857143Y61954218D02*
X90542857Y60754218D01*
X90542857Y60754218D02*
X90542857Y61954218D01*
X92428572Y61382789D02*
X92028572Y61382789D01*
X92028572Y60754218D02*
X92028572Y61954218D01*
X92028572Y61954218D02*
X92600000Y61954218D01*
X93057143Y61954218D02*
X93057143Y60982789D01*
X93057143Y60982789D02*
X93114286Y60868503D01*
X93114286Y60868503D02*
X93171429Y60811360D01*
X93171429Y60811360D02*
X93285714Y60754218D01*
X93285714Y60754218D02*
X93514286Y60754218D01*
X93514286Y60754218D02*
X93628571Y60811360D01*
X93628571Y60811360D02*
X93685714Y60868503D01*
X93685714Y60868503D02*
X93742857Y60982789D01*
X93742857Y60982789D02*
X93742857Y61954218D01*
X94257143Y60811360D02*
X94428572Y60754218D01*
X94428572Y60754218D02*
X94714286Y60754218D01*
X94714286Y60754218D02*
X94828572Y60811360D01*
X94828572Y60811360D02*
X94885714Y60868503D01*
X94885714Y60868503D02*
X94942857Y60982789D01*
X94942857Y60982789D02*
X94942857Y61097075D01*
X94942857Y61097075D02*
X94885714Y61211360D01*
X94885714Y61211360D02*
X94828572Y61268503D01*
X94828572Y61268503D02*
X94714286Y61325646D01*
X94714286Y61325646D02*
X94485714Y61382789D01*
X94485714Y61382789D02*
X94371429Y61439932D01*
X94371429Y61439932D02*
X94314286Y61497075D01*
X94314286Y61497075D02*
X94257143Y61611360D01*
X94257143Y61611360D02*
X94257143Y61725646D01*
X94257143Y61725646D02*
X94314286Y61839932D01*
X94314286Y61839932D02*
X94371429Y61897075D01*
X94371429Y61897075D02*
X94485714Y61954218D01*
X94485714Y61954218D02*
X94771429Y61954218D01*
X94771429Y61954218D02*
X94942857Y61897075D01*
X95457143Y61382789D02*
X95857143Y61382789D01*
X96028571Y60754218D02*
X95457143Y60754218D01*
X95457143Y60754218D02*
X95457143Y61954218D01*
X95457143Y61954218D02*
X96028571Y61954218D01*
X97457143Y61211360D02*
X98371429Y61211360D01*
X99800000Y61097075D02*
X100371429Y61097075D01*
X99685714Y60754218D02*
X100085714Y61954218D01*
X100085714Y61954218D02*
X100485714Y60754218D01*
X100714285Y61954218D02*
X101400000Y61954218D01*
X101057142Y60754218D02*
X101057142Y61954218D01*
X102028571Y61954218D02*
X102257143Y61954218D01*
X102257143Y61954218D02*
X102371428Y61897075D01*
X102371428Y61897075D02*
X102485714Y61782789D01*
X102485714Y61782789D02*
X102542857Y61554218D01*
X102542857Y61554218D02*
X102542857Y61154218D01*
X102542857Y61154218D02*
X102485714Y60925646D01*
X102485714Y60925646D02*
X102371428Y60811360D01*
X102371428Y60811360D02*
X102257143Y60754218D01*
X102257143Y60754218D02*
X102028571Y60754218D01*
X102028571Y60754218D02*
X101914286Y60811360D01*
X101914286Y60811360D02*
X101800000Y60925646D01*
X101800000Y60925646D02*
X101742857Y61154218D01*
X101742857Y61154218D02*
X101742857Y61554218D01*
X101742857Y61554218D02*
X101800000Y61782789D01*
X101800000Y61782789D02*
X101914286Y61897075D01*
X101914286Y61897075D02*
X102028571Y61954218D01*
X103857143Y61954218D02*
X104600000Y61954218D01*
X104600000Y61954218D02*
X104200000Y61497075D01*
X104200000Y61497075D02*
X104371429Y61497075D01*
X104371429Y61497075D02*
X104485715Y61439932D01*
X104485715Y61439932D02*
X104542857Y61382789D01*
X104542857Y61382789D02*
X104600000Y61268503D01*
X104600000Y61268503D02*
X104600000Y60982789D01*
X104600000Y60982789D02*
X104542857Y60868503D01*
X104542857Y60868503D02*
X104485715Y60811360D01*
X104485715Y60811360D02*
X104371429Y60754218D01*
X104371429Y60754218D02*
X104028572Y60754218D01*
X104028572Y60754218D02*
X103914286Y60811360D01*
X103914286Y60811360D02*
X103857143Y60868503D01*
X105342857Y61954218D02*
X105457143Y61954218D01*
X105457143Y61954218D02*
X105571429Y61897075D01*
X105571429Y61897075D02*
X105628572Y61839932D01*
X105628572Y61839932D02*
X105685714Y61725646D01*
X105685714Y61725646D02*
X105742857Y61497075D01*
X105742857Y61497075D02*
X105742857Y61211360D01*
X105742857Y61211360D02*
X105685714Y60982789D01*
X105685714Y60982789D02*
X105628572Y60868503D01*
X105628572Y60868503D02*
X105571429Y60811360D01*
X105571429Y60811360D02*
X105457143Y60754218D01*
X105457143Y60754218D02*
X105342857Y60754218D01*
X105342857Y60754218D02*
X105228572Y60811360D01*
X105228572Y60811360D02*
X105171429Y60868503D01*
X105171429Y60868503D02*
X105114286Y60982789D01*
X105114286Y60982789D02*
X105057143Y61211360D01*
X105057143Y61211360D02*
X105057143Y61497075D01*
X105057143Y61497075D02*
X105114286Y61725646D01*
X105114286Y61725646D02*
X105171429Y61839932D01*
X105171429Y61839932D02*
X105228572Y61897075D01*
X105228572Y61897075D02*
X105342857Y61954218D01*
X106200000Y61097075D02*
X106771429Y61097075D01*
X106085714Y60754218D02*
X106485714Y61954218D01*
X106485714Y61954218D02*
X106885714Y60754218D01*
X108600000Y61382789D02*
X108771428Y61325646D01*
X108771428Y61325646D02*
X108828571Y61268503D01*
X108828571Y61268503D02*
X108885714Y61154218D01*
X108885714Y61154218D02*
X108885714Y60982789D01*
X108885714Y60982789D02*
X108828571Y60868503D01*
X108828571Y60868503D02*
X108771428Y60811360D01*
X108771428Y60811360D02*
X108657143Y60754218D01*
X108657143Y60754218D02*
X108200000Y60754218D01*
X108200000Y60754218D02*
X108200000Y61954218D01*
X108200000Y61954218D02*
X108600000Y61954218D01*
X108600000Y61954218D02*
X108714286Y61897075D01*
X108714286Y61897075D02*
X108771428Y61839932D01*
X108771428Y61839932D02*
X108828571Y61725646D01*
X108828571Y61725646D02*
X108828571Y61611360D01*
X108828571Y61611360D02*
X108771428Y61497075D01*
X108771428Y61497075D02*
X108714286Y61439932D01*
X108714286Y61439932D02*
X108600000Y61382789D01*
X108600000Y61382789D02*
X108200000Y61382789D01*
X109971428Y60754218D02*
X109400000Y60754218D01*
X109400000Y60754218D02*
X109400000Y61954218D01*
X110314286Y61097075D02*
X110885715Y61097075D01*
X110200000Y60754218D02*
X110600000Y61954218D01*
X110600000Y61954218D02*
X111000000Y60754218D01*
X111400000Y60754218D02*
X111400000Y61954218D01*
X111400000Y61954218D02*
X111685714Y61954218D01*
X111685714Y61954218D02*
X111857143Y61897075D01*
X111857143Y61897075D02*
X111971428Y61782789D01*
X111971428Y61782789D02*
X112028571Y61668503D01*
X112028571Y61668503D02*
X112085714Y61439932D01*
X112085714Y61439932D02*
X112085714Y61268503D01*
X112085714Y61268503D02*
X112028571Y61039932D01*
X112028571Y61039932D02*
X111971428Y60925646D01*
X111971428Y60925646D02*
X111857143Y60811360D01*
X111857143Y60811360D02*
X111685714Y60754218D01*
X111685714Y60754218D02*
X111400000Y60754218D01*
X112600000Y61382789D02*
X113000000Y61382789D01*
X113171428Y60754218D02*
X112600000Y60754218D01*
X112600000Y60754218D02*
X112600000Y61954218D01*
X112600000Y61954218D02*
X113171428Y61954218D01*
X99542857Y9511360D02*
X100457143Y9511360D01*
X109542857Y90011360D02*
X110457143Y90011360D01*
X110000000Y89554218D02*
X110000000Y90468503D01*
X109542857Y9511360D02*
X110457143Y9511360D01*
X110000000Y9054218D02*
X110000000Y9968503D01*
X114685714Y89554218D02*
X114685714Y90754218D01*
X114685714Y90754218D02*
X114971428Y90754218D01*
X114971428Y90754218D02*
X115142857Y90697075D01*
X115142857Y90697075D02*
X115257142Y90582789D01*
X115257142Y90582789D02*
X115314285Y90468503D01*
X115314285Y90468503D02*
X115371428Y90239932D01*
X115371428Y90239932D02*
X115371428Y90068503D01*
X115371428Y90068503D02*
X115314285Y89839932D01*
X115314285Y89839932D02*
X115257142Y89725646D01*
X115257142Y89725646D02*
X115142857Y89611360D01*
X115142857Y89611360D02*
X114971428Y89554218D01*
X114971428Y89554218D02*
X114685714Y89554218D01*
X114685714Y9054218D02*
X114685714Y10254218D01*
X114685714Y10254218D02*
X114971428Y10254218D01*
X114971428Y10254218D02*
X115142857Y10197075D01*
X115142857Y10197075D02*
X115257142Y10082789D01*
X115257142Y10082789D02*
X115314285Y9968503D01*
X115314285Y9968503D02*
X115371428Y9739932D01*
X115371428Y9739932D02*
X115371428Y9568503D01*
X115371428Y9568503D02*
X115314285Y9339932D01*
X115314285Y9339932D02*
X115257142Y9225646D01*
X115257142Y9225646D02*
X115142857Y9111360D01*
X115142857Y9111360D02*
X114971428Y9054218D01*
X114971428Y9054218D02*
X114685714Y9054218D01*
X119542857Y90011360D02*
X120457143Y90011360D01*
X119542857Y9511360D02*
X120457143Y9511360D01*
X120285715Y59911360D02*
X121200001Y59911360D01*
X120742858Y59454218D02*
X120742858Y60368503D01*
X122400000Y59454218D02*
X121714286Y59454218D01*
X122057143Y59454218D02*
X122057143Y60654218D01*
X122057143Y60654218D02*
X121942857Y60482789D01*
X121942857Y60482789D02*
X121828572Y60368503D01*
X121828572Y60368503D02*
X121714286Y60311360D01*
X122857143Y60539932D02*
X122914286Y60597075D01*
X122914286Y60597075D02*
X123028572Y60654218D01*
X123028572Y60654218D02*
X123314286Y60654218D01*
X123314286Y60654218D02*
X123428572Y60597075D01*
X123428572Y60597075D02*
X123485714Y60539932D01*
X123485714Y60539932D02*
X123542857Y60425646D01*
X123542857Y60425646D02*
X123542857Y60311360D01*
X123542857Y60311360D02*
X123485714Y60139932D01*
X123485714Y60139932D02*
X122800000Y59454218D01*
X122800000Y59454218D02*
X123542857Y59454218D01*
X123885714Y60654218D02*
X124285714Y59454218D01*
X124285714Y59454218D02*
X124685714Y60654218D01*
X121485714Y34097075D02*
X121371429Y34154218D01*
X121371429Y34154218D02*
X121200000Y34154218D01*
X121200000Y34154218D02*
X121028571Y34097075D01*
X121028571Y34097075D02*
X120914286Y33982789D01*
X120914286Y33982789D02*
X120857143Y33868503D01*
X120857143Y33868503D02*
X120800000Y33639932D01*
X120800000Y33639932D02*
X120800000Y33468503D01*
X120800000Y33468503D02*
X120857143Y33239932D01*
X120857143Y33239932D02*
X120914286Y33125646D01*
X120914286Y33125646D02*
X121028571Y33011360D01*
X121028571Y33011360D02*
X121200000Y32954218D01*
X121200000Y32954218D02*
X121314286Y32954218D01*
X121314286Y32954218D02*
X121485714Y33011360D01*
X121485714Y33011360D02*
X121542857Y33068503D01*
X121542857Y33068503D02*
X121542857Y33468503D01*
X121542857Y33468503D02*
X121314286Y33468503D01*
X122057143Y32954218D02*
X122057143Y34154218D01*
X122057143Y34154218D02*
X122742857Y32954218D01*
X122742857Y32954218D02*
X122742857Y34154218D01*
X123314286Y32954218D02*
X123314286Y34154218D01*
X123314286Y34154218D02*
X123600000Y34154218D01*
X123600000Y34154218D02*
X123771429Y34097075D01*
X123771429Y34097075D02*
X123885714Y33982789D01*
X123885714Y33982789D02*
X123942857Y33868503D01*
X123942857Y33868503D02*
X124000000Y33639932D01*
X124000000Y33639932D02*
X124000000Y33468503D01*
X124000000Y33468503D02*
X123942857Y33239932D01*
X123942857Y33239932D02*
X123885714Y33125646D01*
X123885714Y33125646D02*
X123771429Y33011360D01*
X123771429Y33011360D02*
X123600000Y32954218D01*
X123600000Y32954218D02*
X123314286Y32954218D01*
X119699999Y67954218D02*
X119014285Y67954218D01*
X119357142Y67954218D02*
X119357142Y69154218D01*
X119357142Y69154218D02*
X119242856Y68982789D01*
X119242856Y68982789D02*
X119128571Y68868503D01*
X119128571Y68868503D02*
X119014285Y68811360D01*
X120157142Y69039932D02*
X120214285Y69097075D01*
X120214285Y69097075D02*
X120328571Y69154218D01*
X120328571Y69154218D02*
X120614285Y69154218D01*
X120614285Y69154218D02*
X120728571Y69097075D01*
X120728571Y69097075D02*
X120785713Y69039932D01*
X120785713Y69039932D02*
X120842856Y68925646D01*
X120842856Y68925646D02*
X120842856Y68811360D01*
X120842856Y68811360D02*
X120785713Y68639932D01*
X120785713Y68639932D02*
X120099999Y67954218D01*
X120099999Y67954218D02*
X120842856Y67954218D01*
X121185713Y69154218D02*
X121585713Y67954218D01*
X121585713Y67954218D02*
X121985713Y69154218D01*
X123299999Y67954218D02*
X123299999Y69154218D01*
X123871428Y67954218D02*
X123871428Y69154218D01*
X123871428Y69154218D02*
X124557142Y67954218D01*
X124557142Y67954218D02*
X124557142Y69154218D01*
X125128571Y67954218D02*
X125128571Y69154218D01*
X125128571Y69154218D02*
X125585714Y69154218D01*
X125585714Y69154218D02*
X125699999Y69097075D01*
X125699999Y69097075D02*
X125757142Y69039932D01*
X125757142Y69039932D02*
X125814285Y68925646D01*
X125814285Y68925646D02*
X125814285Y68754218D01*
X125814285Y68754218D02*
X125757142Y68639932D01*
X125757142Y68639932D02*
X125699999Y68582789D01*
X125699999Y68582789D02*
X125585714Y68525646D01*
X125585714Y68525646D02*
X125128571Y68525646D01*
X126328571Y69154218D02*
X126328571Y68182789D01*
X126328571Y68182789D02*
X126385714Y68068503D01*
X126385714Y68068503D02*
X126442857Y68011360D01*
X126442857Y68011360D02*
X126557142Y67954218D01*
X126557142Y67954218D02*
X126785714Y67954218D01*
X126785714Y67954218D02*
X126899999Y68011360D01*
X126899999Y68011360D02*
X126957142Y68068503D01*
X126957142Y68068503D02*
X127014285Y68182789D01*
X127014285Y68182789D02*
X127014285Y69154218D01*
X127414285Y69154218D02*
X128100000Y69154218D01*
X127757142Y67954218D02*
X127757142Y69154218D01*
X119785714Y66654218D02*
X120528571Y66654218D01*
X120528571Y66654218D02*
X120128571Y66197075D01*
X120128571Y66197075D02*
X120300000Y66197075D01*
X120300000Y66197075D02*
X120414286Y66139932D01*
X120414286Y66139932D02*
X120471428Y66082789D01*
X120471428Y66082789D02*
X120528571Y65968503D01*
X120528571Y65968503D02*
X120528571Y65682789D01*
X120528571Y65682789D02*
X120471428Y65568503D01*
X120471428Y65568503D02*
X120414286Y65511360D01*
X120414286Y65511360D02*
X120300000Y65454218D01*
X120300000Y65454218D02*
X119957143Y65454218D01*
X119957143Y65454218D02*
X119842857Y65511360D01*
X119842857Y65511360D02*
X119785714Y65568503D01*
X121271428Y66654218D02*
X121385714Y66654218D01*
X121385714Y66654218D02*
X121500000Y66597075D01*
X121500000Y66597075D02*
X121557143Y66539932D01*
X121557143Y66539932D02*
X121614285Y66425646D01*
X121614285Y66425646D02*
X121671428Y66197075D01*
X121671428Y66197075D02*
X121671428Y65911360D01*
X121671428Y65911360D02*
X121614285Y65682789D01*
X121614285Y65682789D02*
X121557143Y65568503D01*
X121557143Y65568503D02*
X121500000Y65511360D01*
X121500000Y65511360D02*
X121385714Y65454218D01*
X121385714Y65454218D02*
X121271428Y65454218D01*
X121271428Y65454218D02*
X121157143Y65511360D01*
X121157143Y65511360D02*
X121100000Y65568503D01*
X121100000Y65568503D02*
X121042857Y65682789D01*
X121042857Y65682789D02*
X120985714Y65911360D01*
X120985714Y65911360D02*
X120985714Y66197075D01*
X120985714Y66197075D02*
X121042857Y66425646D01*
X121042857Y66425646D02*
X121100000Y66539932D01*
X121100000Y66539932D02*
X121157143Y66597075D01*
X121157143Y66597075D02*
X121271428Y66654218D01*
X122128571Y65797075D02*
X122700000Y65797075D01*
X122014285Y65454218D02*
X122414285Y66654218D01*
X122414285Y66654218D02*
X122814285Y65454218D01*
X124128571Y65454218D02*
X124128571Y66654218D01*
X124128571Y66654218D02*
X124528571Y65797075D01*
X124528571Y65797075D02*
X124928571Y66654218D01*
X124928571Y66654218D02*
X124928571Y65454218D01*
X125442857Y65797075D02*
X126014286Y65797075D01*
X125328571Y65454218D02*
X125728571Y66654218D01*
X125728571Y66654218D02*
X126128571Y65454218D01*
X126414285Y66654218D02*
X127214285Y65454218D01*
X127214285Y66654218D02*
X126414285Y65454218D01*
X119300000Y64039932D02*
X119357143Y64097075D01*
X119357143Y64097075D02*
X119471429Y64154218D01*
X119471429Y64154218D02*
X119757143Y64154218D01*
X119757143Y64154218D02*
X119871429Y64097075D01*
X119871429Y64097075D02*
X119928571Y64039932D01*
X119928571Y64039932D02*
X119985714Y63925646D01*
X119985714Y63925646D02*
X119985714Y63811360D01*
X119985714Y63811360D02*
X119928571Y63639932D01*
X119928571Y63639932D02*
X119242857Y62954218D01*
X119242857Y62954218D02*
X119985714Y62954218D01*
X121014286Y63754218D02*
X121014286Y62954218D01*
X120728571Y64211360D02*
X120442857Y63354218D01*
X120442857Y63354218D02*
X121185714Y63354218D01*
X121585714Y63297075D02*
X122157143Y63297075D01*
X121471428Y62954218D02*
X121871428Y64154218D01*
X121871428Y64154218D02*
X122271428Y62954218D01*
X124271428Y63068503D02*
X124214285Y63011360D01*
X124214285Y63011360D02*
X124042857Y62954218D01*
X124042857Y62954218D02*
X123928571Y62954218D01*
X123928571Y62954218D02*
X123757142Y63011360D01*
X123757142Y63011360D02*
X123642857Y63125646D01*
X123642857Y63125646D02*
X123585714Y63239932D01*
X123585714Y63239932D02*
X123528571Y63468503D01*
X123528571Y63468503D02*
X123528571Y63639932D01*
X123528571Y63639932D02*
X123585714Y63868503D01*
X123585714Y63868503D02*
X123642857Y63982789D01*
X123642857Y63982789D02*
X123757142Y64097075D01*
X123757142Y64097075D02*
X123928571Y64154218D01*
X123928571Y64154218D02*
X124042857Y64154218D01*
X124042857Y64154218D02*
X124214285Y64097075D01*
X124214285Y64097075D02*
X124271428Y64039932D01*
X125014285Y64154218D02*
X125242857Y64154218D01*
X125242857Y64154218D02*
X125357142Y64097075D01*
X125357142Y64097075D02*
X125471428Y63982789D01*
X125471428Y63982789D02*
X125528571Y63754218D01*
X125528571Y63754218D02*
X125528571Y63354218D01*
X125528571Y63354218D02*
X125471428Y63125646D01*
X125471428Y63125646D02*
X125357142Y63011360D01*
X125357142Y63011360D02*
X125242857Y62954218D01*
X125242857Y62954218D02*
X125014285Y62954218D01*
X125014285Y62954218D02*
X124900000Y63011360D01*
X124900000Y63011360D02*
X124785714Y63125646D01*
X124785714Y63125646D02*
X124728571Y63354218D01*
X124728571Y63354218D02*
X124728571Y63754218D01*
X124728571Y63754218D02*
X124785714Y63982789D01*
X124785714Y63982789D02*
X124900000Y64097075D01*
X124900000Y64097075D02*
X125014285Y64154218D01*
X126042857Y62954218D02*
X126042857Y64154218D01*
X126042857Y64154218D02*
X126728571Y62954218D01*
X126728571Y62954218D02*
X126728571Y64154218D01*
X127128571Y64154218D02*
X127814286Y64154218D01*
X127471428Y62954218D02*
X127471428Y64154218D01*
D12*
X9119047Y79908736D02*
X9119047Y81208736D01*
X9119047Y81208736D02*
X9614285Y81208736D01*
X9614285Y81208736D02*
X9738095Y81146831D01*
X9738095Y81146831D02*
X9800000Y81084926D01*
X9800000Y81084926D02*
X9861904Y80961117D01*
X9861904Y80961117D02*
X9861904Y80775402D01*
X9861904Y80775402D02*
X9800000Y80651593D01*
X9800000Y80651593D02*
X9738095Y80589688D01*
X9738095Y80589688D02*
X9614285Y80527783D01*
X9614285Y80527783D02*
X9119047Y80527783D01*
X11100000Y79908736D02*
X10357143Y79908736D01*
X10728571Y79908736D02*
X10728571Y81208736D01*
X10728571Y81208736D02*
X10604762Y81023021D01*
X10604762Y81023021D02*
X10480952Y80899212D01*
X10480952Y80899212D02*
X10357143Y80837307D01*
X12647618Y79908736D02*
X12647618Y81208736D01*
X12647618Y81208736D02*
X12957142Y81208736D01*
X12957142Y81208736D02*
X13142856Y81146831D01*
X13142856Y81146831D02*
X13266666Y81023021D01*
X13266666Y81023021D02*
X13328571Y80899212D01*
X13328571Y80899212D02*
X13390475Y80651593D01*
X13390475Y80651593D02*
X13390475Y80465879D01*
X13390475Y80465879D02*
X13328571Y80218260D01*
X13328571Y80218260D02*
X13266666Y80094450D01*
X13266666Y80094450D02*
X13142856Y79970640D01*
X13142856Y79970640D02*
X12957142Y79908736D01*
X12957142Y79908736D02*
X12647618Y79908736D01*
X13885714Y80280164D02*
X14504761Y80280164D01*
X13761904Y79908736D02*
X14195237Y81208736D01*
X14195237Y81208736D02*
X14628571Y79908736D01*
X14876190Y81208736D02*
X15619047Y81208736D01*
X15247619Y79908736D02*
X15247619Y81208736D01*
X15990476Y80280164D02*
X16609523Y80280164D01*
X15866666Y79908736D02*
X16299999Y81208736D01*
X16299999Y81208736D02*
X16733333Y79908736D01*
X19580952Y80589688D02*
X19147618Y80589688D01*
X19147618Y79908736D02*
X19147618Y81208736D01*
X19147618Y81208736D02*
X19766666Y81208736D01*
X20942857Y79908736D02*
X20200000Y79908736D01*
X20571428Y79908736D02*
X20571428Y81208736D01*
X20571428Y81208736D02*
X20447619Y81023021D01*
X20447619Y81023021D02*
X20323809Y80899212D01*
X20323809Y80899212D02*
X20200000Y80837307D01*
X8500000Y18908736D02*
X8500000Y20208736D01*
X8500000Y20208736D02*
X8995238Y20208736D01*
X8995238Y20208736D02*
X9119048Y20146831D01*
X9119048Y20146831D02*
X9180953Y20084926D01*
X9180953Y20084926D02*
X9242857Y19961117D01*
X9242857Y19961117D02*
X9242857Y19775402D01*
X9242857Y19775402D02*
X9180953Y19651593D01*
X9180953Y19651593D02*
X9119048Y19589688D01*
X9119048Y19589688D02*
X8995238Y19527783D01*
X8995238Y19527783D02*
X8500000Y19527783D01*
X10357143Y19775402D02*
X10357143Y18908736D01*
X10047619Y20270640D02*
X9738096Y19342069D01*
X9738096Y19342069D02*
X10542857Y19342069D01*
X12028571Y18908736D02*
X12028571Y20208736D01*
X12028571Y20208736D02*
X12338095Y20208736D01*
X12338095Y20208736D02*
X12523809Y20146831D01*
X12523809Y20146831D02*
X12647619Y20023021D01*
X12647619Y20023021D02*
X12709524Y19899212D01*
X12709524Y19899212D02*
X12771428Y19651593D01*
X12771428Y19651593D02*
X12771428Y19465879D01*
X12771428Y19465879D02*
X12709524Y19218260D01*
X12709524Y19218260D02*
X12647619Y19094450D01*
X12647619Y19094450D02*
X12523809Y18970640D01*
X12523809Y18970640D02*
X12338095Y18908736D01*
X12338095Y18908736D02*
X12028571Y18908736D01*
X13266667Y19280164D02*
X13885714Y19280164D01*
X13142857Y18908736D02*
X13576190Y20208736D01*
X13576190Y20208736D02*
X14009524Y18908736D01*
X14257143Y20208736D02*
X15000000Y20208736D01*
X14628572Y18908736D02*
X14628572Y20208736D01*
X15371429Y19280164D02*
X15990476Y19280164D01*
X15247619Y18908736D02*
X15680952Y20208736D01*
X15680952Y20208736D02*
X16114286Y18908736D01*
X18961905Y19589688D02*
X18528571Y19589688D01*
X18528571Y18908736D02*
X18528571Y20208736D01*
X18528571Y20208736D02*
X19147619Y20208736D01*
X20323810Y18908736D02*
X19580953Y18908736D01*
X19952381Y18908736D02*
X19952381Y20208736D01*
X19952381Y20208736D02*
X19828572Y20023021D01*
X19828572Y20023021D02*
X19704762Y19899212D01*
X19704762Y19899212D02*
X19580953Y19837307D01*
X21128571Y20208736D02*
X21252381Y20208736D01*
X21252381Y20208736D02*
X21376190Y20146831D01*
X21376190Y20146831D02*
X21438095Y20084926D01*
X21438095Y20084926D02*
X21500000Y19961117D01*
X21500000Y19961117D02*
X21561905Y19713498D01*
X21561905Y19713498D02*
X21561905Y19403974D01*
X21561905Y19403974D02*
X21500000Y19156355D01*
X21500000Y19156355D02*
X21438095Y19032545D01*
X21438095Y19032545D02*
X21376190Y18970640D01*
X21376190Y18970640D02*
X21252381Y18908736D01*
X21252381Y18908736D02*
X21128571Y18908736D01*
X21128571Y18908736D02*
X21004762Y18970640D01*
X21004762Y18970640D02*
X20942857Y19032545D01*
X20942857Y19032545D02*
X20880952Y19156355D01*
X20880952Y19156355D02*
X20819048Y19403974D01*
X20819048Y19403974D02*
X20819048Y19713498D01*
X20819048Y19713498D02*
X20880952Y19961117D01*
X20880952Y19961117D02*
X20942857Y20084926D01*
X20942857Y20084926D02*
X21004762Y20146831D01*
X21004762Y20146831D02*
X21128571Y20208736D01*
X28840476Y79908736D02*
X28840476Y81208736D01*
X28840476Y81208736D02*
X29335714Y81208736D01*
X29335714Y81208736D02*
X29459524Y81146831D01*
X29459524Y81146831D02*
X29521429Y81084926D01*
X29521429Y81084926D02*
X29583333Y80961117D01*
X29583333Y80961117D02*
X29583333Y80775402D01*
X29583333Y80775402D02*
X29521429Y80651593D01*
X29521429Y80651593D02*
X29459524Y80589688D01*
X29459524Y80589688D02*
X29335714Y80527783D01*
X29335714Y80527783D02*
X28840476Y80527783D01*
X30821429Y79908736D02*
X30078572Y79908736D01*
X30450000Y79908736D02*
X30450000Y81208736D01*
X30450000Y81208736D02*
X30326191Y81023021D01*
X30326191Y81023021D02*
X30202381Y80899212D01*
X30202381Y80899212D02*
X30078572Y80837307D01*
X32369047Y79908736D02*
X32369047Y81208736D01*
X32988095Y79908736D02*
X32988095Y81208736D01*
X32988095Y81208736D02*
X33730952Y79908736D01*
X33730952Y79908736D02*
X33730952Y81208736D01*
X34721429Y81208736D02*
X34721429Y80280164D01*
X34721429Y80280164D02*
X34659524Y80094450D01*
X34659524Y80094450D02*
X34535715Y79970640D01*
X34535715Y79970640D02*
X34350000Y79908736D01*
X34350000Y79908736D02*
X34226191Y79908736D01*
X36269048Y80280164D02*
X36888095Y80280164D01*
X36145238Y79908736D02*
X36578571Y81208736D01*
X36578571Y81208736D02*
X37011905Y79908736D01*
X39859524Y80589688D02*
X39426190Y80589688D01*
X39426190Y79908736D02*
X39426190Y81208736D01*
X39426190Y81208736D02*
X40045238Y81208736D01*
X40478572Y81084926D02*
X40540476Y81146831D01*
X40540476Y81146831D02*
X40664286Y81208736D01*
X40664286Y81208736D02*
X40973810Y81208736D01*
X40973810Y81208736D02*
X41097619Y81146831D01*
X41097619Y81146831D02*
X41159524Y81084926D01*
X41159524Y81084926D02*
X41221429Y80961117D01*
X41221429Y80961117D02*
X41221429Y80837307D01*
X41221429Y80837307D02*
X41159524Y80651593D01*
X41159524Y80651593D02*
X40416667Y79908736D01*
X40416667Y79908736D02*
X41221429Y79908736D01*
X28221428Y18908736D02*
X28221428Y20208736D01*
X28221428Y20208736D02*
X28716666Y20208736D01*
X28716666Y20208736D02*
X28840476Y20146831D01*
X28840476Y20146831D02*
X28902381Y20084926D01*
X28902381Y20084926D02*
X28964285Y19961117D01*
X28964285Y19961117D02*
X28964285Y19775402D01*
X28964285Y19775402D02*
X28902381Y19651593D01*
X28902381Y19651593D02*
X28840476Y19589688D01*
X28840476Y19589688D02*
X28716666Y19527783D01*
X28716666Y19527783D02*
X28221428Y19527783D01*
X30078571Y19775402D02*
X30078571Y18908736D01*
X29769047Y20270640D02*
X29459524Y19342069D01*
X29459524Y19342069D02*
X30264285Y19342069D01*
X31749999Y18908736D02*
X31749999Y20208736D01*
X32369047Y18908736D02*
X32369047Y20208736D01*
X32369047Y20208736D02*
X33111904Y18908736D01*
X33111904Y18908736D02*
X33111904Y20208736D01*
X34102381Y20208736D02*
X34102381Y19280164D01*
X34102381Y19280164D02*
X34040476Y19094450D01*
X34040476Y19094450D02*
X33916667Y18970640D01*
X33916667Y18970640D02*
X33730952Y18908736D01*
X33730952Y18908736D02*
X33607143Y18908736D01*
X35650000Y19280164D02*
X36269047Y19280164D01*
X35526190Y18908736D02*
X35959523Y20208736D01*
X35959523Y20208736D02*
X36392857Y18908736D01*
X39240476Y19589688D02*
X38807142Y19589688D01*
X38807142Y18908736D02*
X38807142Y20208736D01*
X38807142Y20208736D02*
X39426190Y20208736D01*
X40602381Y18908736D02*
X39859524Y18908736D01*
X40230952Y18908736D02*
X40230952Y20208736D01*
X40230952Y20208736D02*
X40107143Y20023021D01*
X40107143Y20023021D02*
X39983333Y19899212D01*
X39983333Y19899212D02*
X39859524Y19837307D01*
X41840476Y18908736D02*
X41097619Y18908736D01*
X41469047Y18908736D02*
X41469047Y20208736D01*
X41469047Y20208736D02*
X41345238Y20023021D01*
X41345238Y20023021D02*
X41221428Y19899212D01*
X41221428Y19899212D02*
X41097619Y19837307D01*
X48747619Y79908736D02*
X48747619Y81208736D01*
X48747619Y81208736D02*
X49242857Y81208736D01*
X49242857Y81208736D02*
X49366667Y81146831D01*
X49366667Y81146831D02*
X49428572Y81084926D01*
X49428572Y81084926D02*
X49490476Y80961117D01*
X49490476Y80961117D02*
X49490476Y80775402D01*
X49490476Y80775402D02*
X49428572Y80651593D01*
X49428572Y80651593D02*
X49366667Y80589688D01*
X49366667Y80589688D02*
X49242857Y80527783D01*
X49242857Y80527783D02*
X48747619Y80527783D01*
X50728572Y79908736D02*
X49985715Y79908736D01*
X50357143Y79908736D02*
X50357143Y81208736D01*
X50357143Y81208736D02*
X50233334Y81023021D01*
X50233334Y81023021D02*
X50109524Y80899212D01*
X50109524Y80899212D02*
X49985715Y80837307D01*
X52276190Y79908736D02*
X52276190Y81208736D01*
X52895238Y79908736D02*
X52895238Y81208736D01*
X52895238Y81208736D02*
X53638095Y79908736D01*
X53638095Y79908736D02*
X53638095Y81208736D01*
X54628572Y81208736D02*
X54628572Y80280164D01*
X54628572Y80280164D02*
X54566667Y80094450D01*
X54566667Y80094450D02*
X54442858Y79970640D01*
X54442858Y79970640D02*
X54257143Y79908736D01*
X54257143Y79908736D02*
X54133334Y79908736D01*
X56671429Y80589688D02*
X56857143Y80527783D01*
X56857143Y80527783D02*
X56919048Y80465879D01*
X56919048Y80465879D02*
X56980952Y80342069D01*
X56980952Y80342069D02*
X56980952Y80156355D01*
X56980952Y80156355D02*
X56919048Y80032545D01*
X56919048Y80032545D02*
X56857143Y79970640D01*
X56857143Y79970640D02*
X56733333Y79908736D01*
X56733333Y79908736D02*
X56238095Y79908736D01*
X56238095Y79908736D02*
X56238095Y81208736D01*
X56238095Y81208736D02*
X56671429Y81208736D01*
X56671429Y81208736D02*
X56795238Y81146831D01*
X56795238Y81146831D02*
X56857143Y81084926D01*
X56857143Y81084926D02*
X56919048Y80961117D01*
X56919048Y80961117D02*
X56919048Y80837307D01*
X56919048Y80837307D02*
X56857143Y80713498D01*
X56857143Y80713498D02*
X56795238Y80651593D01*
X56795238Y80651593D02*
X56671429Y80589688D01*
X56671429Y80589688D02*
X56238095Y80589688D01*
X59952381Y80589688D02*
X59519047Y80589688D01*
X59519047Y79908736D02*
X59519047Y81208736D01*
X59519047Y81208736D02*
X60138095Y81208736D01*
X60509524Y81208736D02*
X61314286Y81208736D01*
X61314286Y81208736D02*
X60880952Y80713498D01*
X60880952Y80713498D02*
X61066667Y80713498D01*
X61066667Y80713498D02*
X61190476Y80651593D01*
X61190476Y80651593D02*
X61252381Y80589688D01*
X61252381Y80589688D02*
X61314286Y80465879D01*
X61314286Y80465879D02*
X61314286Y80156355D01*
X61314286Y80156355D02*
X61252381Y80032545D01*
X61252381Y80032545D02*
X61190476Y79970640D01*
X61190476Y79970640D02*
X61066667Y79908736D01*
X61066667Y79908736D02*
X60695238Y79908736D01*
X60695238Y79908736D02*
X60571429Y79970640D01*
X60571429Y79970640D02*
X60509524Y80032545D01*
X48128571Y18908736D02*
X48128571Y20208736D01*
X48128571Y20208736D02*
X48623809Y20208736D01*
X48623809Y20208736D02*
X48747619Y20146831D01*
X48747619Y20146831D02*
X48809524Y20084926D01*
X48809524Y20084926D02*
X48871428Y19961117D01*
X48871428Y19961117D02*
X48871428Y19775402D01*
X48871428Y19775402D02*
X48809524Y19651593D01*
X48809524Y19651593D02*
X48747619Y19589688D01*
X48747619Y19589688D02*
X48623809Y19527783D01*
X48623809Y19527783D02*
X48128571Y19527783D01*
X49985714Y19775402D02*
X49985714Y18908736D01*
X49676190Y20270640D02*
X49366667Y19342069D01*
X49366667Y19342069D02*
X50171428Y19342069D01*
X51657142Y18908736D02*
X51657142Y20208736D01*
X52276190Y18908736D02*
X52276190Y20208736D01*
X52276190Y20208736D02*
X53019047Y18908736D01*
X53019047Y18908736D02*
X53019047Y20208736D01*
X54009524Y20208736D02*
X54009524Y19280164D01*
X54009524Y19280164D02*
X53947619Y19094450D01*
X53947619Y19094450D02*
X53823810Y18970640D01*
X53823810Y18970640D02*
X53638095Y18908736D01*
X53638095Y18908736D02*
X53514286Y18908736D01*
X56052381Y19589688D02*
X56238095Y19527783D01*
X56238095Y19527783D02*
X56300000Y19465879D01*
X56300000Y19465879D02*
X56361904Y19342069D01*
X56361904Y19342069D02*
X56361904Y19156355D01*
X56361904Y19156355D02*
X56300000Y19032545D01*
X56300000Y19032545D02*
X56238095Y18970640D01*
X56238095Y18970640D02*
X56114285Y18908736D01*
X56114285Y18908736D02*
X55619047Y18908736D01*
X55619047Y18908736D02*
X55619047Y20208736D01*
X55619047Y20208736D02*
X56052381Y20208736D01*
X56052381Y20208736D02*
X56176190Y20146831D01*
X56176190Y20146831D02*
X56238095Y20084926D01*
X56238095Y20084926D02*
X56300000Y19961117D01*
X56300000Y19961117D02*
X56300000Y19837307D01*
X56300000Y19837307D02*
X56238095Y19713498D01*
X56238095Y19713498D02*
X56176190Y19651593D01*
X56176190Y19651593D02*
X56052381Y19589688D01*
X56052381Y19589688D02*
X55619047Y19589688D01*
X59333333Y19589688D02*
X58899999Y19589688D01*
X58899999Y18908736D02*
X58899999Y20208736D01*
X58899999Y20208736D02*
X59519047Y20208736D01*
X60695238Y18908736D02*
X59952381Y18908736D01*
X60323809Y18908736D02*
X60323809Y20208736D01*
X60323809Y20208736D02*
X60200000Y20023021D01*
X60200000Y20023021D02*
X60076190Y19899212D01*
X60076190Y19899212D02*
X59952381Y19837307D01*
X61190476Y20084926D02*
X61252380Y20146831D01*
X61252380Y20146831D02*
X61376190Y20208736D01*
X61376190Y20208736D02*
X61685714Y20208736D01*
X61685714Y20208736D02*
X61809523Y20146831D01*
X61809523Y20146831D02*
X61871428Y20084926D01*
X61871428Y20084926D02*
X61933333Y19961117D01*
X61933333Y19961117D02*
X61933333Y19837307D01*
X61933333Y19837307D02*
X61871428Y19651593D01*
X61871428Y19651593D02*
X61128571Y18908736D01*
X61128571Y18908736D02*
X61933333Y18908736D01*
X69119047Y79908736D02*
X69119047Y81208736D01*
X69119047Y81208736D02*
X69614285Y81208736D01*
X69614285Y81208736D02*
X69738095Y81146831D01*
X69738095Y81146831D02*
X69800000Y81084926D01*
X69800000Y81084926D02*
X69861904Y80961117D01*
X69861904Y80961117D02*
X69861904Y80775402D01*
X69861904Y80775402D02*
X69800000Y80651593D01*
X69800000Y80651593D02*
X69738095Y80589688D01*
X69738095Y80589688D02*
X69614285Y80527783D01*
X69614285Y80527783D02*
X69119047Y80527783D01*
X70357143Y81084926D02*
X70419047Y81146831D01*
X70419047Y81146831D02*
X70542857Y81208736D01*
X70542857Y81208736D02*
X70852381Y81208736D01*
X70852381Y81208736D02*
X70976190Y81146831D01*
X70976190Y81146831D02*
X71038095Y81084926D01*
X71038095Y81084926D02*
X71100000Y80961117D01*
X71100000Y80961117D02*
X71100000Y80837307D01*
X71100000Y80837307D02*
X71038095Y80651593D01*
X71038095Y80651593D02*
X70295238Y79908736D01*
X70295238Y79908736D02*
X71100000Y79908736D01*
X72647618Y79908736D02*
X72647618Y81208736D01*
X72647618Y81208736D02*
X72957142Y81208736D01*
X72957142Y81208736D02*
X73142856Y81146831D01*
X73142856Y81146831D02*
X73266666Y81023021D01*
X73266666Y81023021D02*
X73328571Y80899212D01*
X73328571Y80899212D02*
X73390475Y80651593D01*
X73390475Y80651593D02*
X73390475Y80465879D01*
X73390475Y80465879D02*
X73328571Y80218260D01*
X73328571Y80218260D02*
X73266666Y80094450D01*
X73266666Y80094450D02*
X73142856Y79970640D01*
X73142856Y79970640D02*
X72957142Y79908736D01*
X72957142Y79908736D02*
X72647618Y79908736D01*
X73885714Y80280164D02*
X74504761Y80280164D01*
X73761904Y79908736D02*
X74195237Y81208736D01*
X74195237Y81208736D02*
X74628571Y79908736D01*
X74876190Y81208736D02*
X75619047Y81208736D01*
X75247619Y79908736D02*
X75247619Y81208736D01*
X75990476Y80280164D02*
X76609523Y80280164D01*
X75866666Y79908736D02*
X76299999Y81208736D01*
X76299999Y81208736D02*
X76733333Y79908736D01*
X79580952Y80589688D02*
X79147618Y80589688D01*
X79147618Y79908736D02*
X79147618Y81208736D01*
X79147618Y81208736D02*
X79766666Y81208736D01*
X80819047Y80775402D02*
X80819047Y79908736D01*
X80509523Y81270640D02*
X80200000Y80342069D01*
X80200000Y80342069D02*
X81004761Y80342069D01*
X69119047Y18908736D02*
X69119047Y20208736D01*
X69119047Y20208736D02*
X69614285Y20208736D01*
X69614285Y20208736D02*
X69738095Y20146831D01*
X69738095Y20146831D02*
X69800000Y20084926D01*
X69800000Y20084926D02*
X69861904Y19961117D01*
X69861904Y19961117D02*
X69861904Y19775402D01*
X69861904Y19775402D02*
X69800000Y19651593D01*
X69800000Y19651593D02*
X69738095Y19589688D01*
X69738095Y19589688D02*
X69614285Y19527783D01*
X69614285Y19527783D02*
X69119047Y19527783D01*
X70295238Y20208736D02*
X71100000Y20208736D01*
X71100000Y20208736D02*
X70666666Y19713498D01*
X70666666Y19713498D02*
X70852381Y19713498D01*
X70852381Y19713498D02*
X70976190Y19651593D01*
X70976190Y19651593D02*
X71038095Y19589688D01*
X71038095Y19589688D02*
X71100000Y19465879D01*
X71100000Y19465879D02*
X71100000Y19156355D01*
X71100000Y19156355D02*
X71038095Y19032545D01*
X71038095Y19032545D02*
X70976190Y18970640D01*
X70976190Y18970640D02*
X70852381Y18908736D01*
X70852381Y18908736D02*
X70480952Y18908736D01*
X70480952Y18908736D02*
X70357143Y18970640D01*
X70357143Y18970640D02*
X70295238Y19032545D01*
X72647618Y18908736D02*
X72647618Y20208736D01*
X72647618Y20208736D02*
X72957142Y20208736D01*
X72957142Y20208736D02*
X73142856Y20146831D01*
X73142856Y20146831D02*
X73266666Y20023021D01*
X73266666Y20023021D02*
X73328571Y19899212D01*
X73328571Y19899212D02*
X73390475Y19651593D01*
X73390475Y19651593D02*
X73390475Y19465879D01*
X73390475Y19465879D02*
X73328571Y19218260D01*
X73328571Y19218260D02*
X73266666Y19094450D01*
X73266666Y19094450D02*
X73142856Y18970640D01*
X73142856Y18970640D02*
X72957142Y18908736D01*
X72957142Y18908736D02*
X72647618Y18908736D01*
X73885714Y19280164D02*
X74504761Y19280164D01*
X73761904Y18908736D02*
X74195237Y20208736D01*
X74195237Y20208736D02*
X74628571Y18908736D01*
X74876190Y20208736D02*
X75619047Y20208736D01*
X75247619Y18908736D02*
X75247619Y20208736D01*
X75990476Y19280164D02*
X76609523Y19280164D01*
X75866666Y18908736D02*
X76299999Y20208736D01*
X76299999Y20208736D02*
X76733333Y18908736D01*
X79580952Y19589688D02*
X79147618Y19589688D01*
X79147618Y18908736D02*
X79147618Y20208736D01*
X79147618Y20208736D02*
X79766666Y20208736D01*
X80138095Y20208736D02*
X81004761Y20208736D01*
X81004761Y20208736D02*
X80447619Y18908736D01*
X88840476Y79908736D02*
X88840476Y81208736D01*
X88840476Y81208736D02*
X89335714Y81208736D01*
X89335714Y81208736D02*
X89459524Y81146831D01*
X89459524Y81146831D02*
X89521429Y81084926D01*
X89521429Y81084926D02*
X89583333Y80961117D01*
X89583333Y80961117D02*
X89583333Y80775402D01*
X89583333Y80775402D02*
X89521429Y80651593D01*
X89521429Y80651593D02*
X89459524Y80589688D01*
X89459524Y80589688D02*
X89335714Y80527783D01*
X89335714Y80527783D02*
X88840476Y80527783D01*
X90078572Y81084926D02*
X90140476Y81146831D01*
X90140476Y81146831D02*
X90264286Y81208736D01*
X90264286Y81208736D02*
X90573810Y81208736D01*
X90573810Y81208736D02*
X90697619Y81146831D01*
X90697619Y81146831D02*
X90759524Y81084926D01*
X90759524Y81084926D02*
X90821429Y80961117D01*
X90821429Y80961117D02*
X90821429Y80837307D01*
X90821429Y80837307D02*
X90759524Y80651593D01*
X90759524Y80651593D02*
X90016667Y79908736D01*
X90016667Y79908736D02*
X90821429Y79908736D01*
X92369047Y79908736D02*
X92369047Y81208736D01*
X92988095Y79908736D02*
X92988095Y81208736D01*
X92988095Y81208736D02*
X93730952Y79908736D01*
X93730952Y79908736D02*
X93730952Y81208736D01*
X94721429Y81208736D02*
X94721429Y80280164D01*
X94721429Y80280164D02*
X94659524Y80094450D01*
X94659524Y80094450D02*
X94535715Y79970640D01*
X94535715Y79970640D02*
X94350000Y79908736D01*
X94350000Y79908736D02*
X94226191Y79908736D01*
X96269048Y80280164D02*
X96888095Y80280164D01*
X96145238Y79908736D02*
X96578571Y81208736D01*
X96578571Y81208736D02*
X97011905Y79908736D01*
X99859524Y80589688D02*
X99426190Y80589688D01*
X99426190Y79908736D02*
X99426190Y81208736D01*
X99426190Y81208736D02*
X100045238Y81208736D01*
X101159524Y81208736D02*
X100540476Y81208736D01*
X100540476Y81208736D02*
X100478572Y80589688D01*
X100478572Y80589688D02*
X100540476Y80651593D01*
X100540476Y80651593D02*
X100664286Y80713498D01*
X100664286Y80713498D02*
X100973810Y80713498D01*
X100973810Y80713498D02*
X101097619Y80651593D01*
X101097619Y80651593D02*
X101159524Y80589688D01*
X101159524Y80589688D02*
X101221429Y80465879D01*
X101221429Y80465879D02*
X101221429Y80156355D01*
X101221429Y80156355D02*
X101159524Y80032545D01*
X101159524Y80032545D02*
X101097619Y79970640D01*
X101097619Y79970640D02*
X100973810Y79908736D01*
X100973810Y79908736D02*
X100664286Y79908736D01*
X100664286Y79908736D02*
X100540476Y79970640D01*
X100540476Y79970640D02*
X100478572Y80032545D01*
X88840476Y18908736D02*
X88840476Y20208736D01*
X88840476Y20208736D02*
X89335714Y20208736D01*
X89335714Y20208736D02*
X89459524Y20146831D01*
X89459524Y20146831D02*
X89521429Y20084926D01*
X89521429Y20084926D02*
X89583333Y19961117D01*
X89583333Y19961117D02*
X89583333Y19775402D01*
X89583333Y19775402D02*
X89521429Y19651593D01*
X89521429Y19651593D02*
X89459524Y19589688D01*
X89459524Y19589688D02*
X89335714Y19527783D01*
X89335714Y19527783D02*
X88840476Y19527783D01*
X90016667Y20208736D02*
X90821429Y20208736D01*
X90821429Y20208736D02*
X90388095Y19713498D01*
X90388095Y19713498D02*
X90573810Y19713498D01*
X90573810Y19713498D02*
X90697619Y19651593D01*
X90697619Y19651593D02*
X90759524Y19589688D01*
X90759524Y19589688D02*
X90821429Y19465879D01*
X90821429Y19465879D02*
X90821429Y19156355D01*
X90821429Y19156355D02*
X90759524Y19032545D01*
X90759524Y19032545D02*
X90697619Y18970640D01*
X90697619Y18970640D02*
X90573810Y18908736D01*
X90573810Y18908736D02*
X90202381Y18908736D01*
X90202381Y18908736D02*
X90078572Y18970640D01*
X90078572Y18970640D02*
X90016667Y19032545D01*
X92369047Y18908736D02*
X92369047Y20208736D01*
X92988095Y18908736D02*
X92988095Y20208736D01*
X92988095Y20208736D02*
X93730952Y18908736D01*
X93730952Y18908736D02*
X93730952Y20208736D01*
X94721429Y20208736D02*
X94721429Y19280164D01*
X94721429Y19280164D02*
X94659524Y19094450D01*
X94659524Y19094450D02*
X94535715Y18970640D01*
X94535715Y18970640D02*
X94350000Y18908736D01*
X94350000Y18908736D02*
X94226191Y18908736D01*
X96269048Y19280164D02*
X96888095Y19280164D01*
X96145238Y18908736D02*
X96578571Y20208736D01*
X96578571Y20208736D02*
X97011905Y18908736D01*
X99859524Y19589688D02*
X99426190Y19589688D01*
X99426190Y18908736D02*
X99426190Y20208736D01*
X99426190Y20208736D02*
X100045238Y20208736D01*
X100726191Y19651593D02*
X100602381Y19713498D01*
X100602381Y19713498D02*
X100540476Y19775402D01*
X100540476Y19775402D02*
X100478572Y19899212D01*
X100478572Y19899212D02*
X100478572Y19961117D01*
X100478572Y19961117D02*
X100540476Y20084926D01*
X100540476Y20084926D02*
X100602381Y20146831D01*
X100602381Y20146831D02*
X100726191Y20208736D01*
X100726191Y20208736D02*
X100973810Y20208736D01*
X100973810Y20208736D02*
X101097619Y20146831D01*
X101097619Y20146831D02*
X101159524Y20084926D01*
X101159524Y20084926D02*
X101221429Y19961117D01*
X101221429Y19961117D02*
X101221429Y19899212D01*
X101221429Y19899212D02*
X101159524Y19775402D01*
X101159524Y19775402D02*
X101097619Y19713498D01*
X101097619Y19713498D02*
X100973810Y19651593D01*
X100973810Y19651593D02*
X100726191Y19651593D01*
X100726191Y19651593D02*
X100602381Y19589688D01*
X100602381Y19589688D02*
X100540476Y19527783D01*
X100540476Y19527783D02*
X100478572Y19403974D01*
X100478572Y19403974D02*
X100478572Y19156355D01*
X100478572Y19156355D02*
X100540476Y19032545D01*
X100540476Y19032545D02*
X100602381Y18970640D01*
X100602381Y18970640D02*
X100726191Y18908736D01*
X100726191Y18908736D02*
X100973810Y18908736D01*
X100973810Y18908736D02*
X101097619Y18970640D01*
X101097619Y18970640D02*
X101159524Y19032545D01*
X101159524Y19032545D02*
X101221429Y19156355D01*
X101221429Y19156355D02*
X101221429Y19403974D01*
X101221429Y19403974D02*
X101159524Y19527783D01*
X101159524Y19527783D02*
X101097619Y19589688D01*
X101097619Y19589688D02*
X100973810Y19651593D01*
X108747619Y79908736D02*
X108747619Y81208736D01*
X108747619Y81208736D02*
X109242857Y81208736D01*
X109242857Y81208736D02*
X109366667Y81146831D01*
X109366667Y81146831D02*
X109428572Y81084926D01*
X109428572Y81084926D02*
X109490476Y80961117D01*
X109490476Y80961117D02*
X109490476Y80775402D01*
X109490476Y80775402D02*
X109428572Y80651593D01*
X109428572Y80651593D02*
X109366667Y80589688D01*
X109366667Y80589688D02*
X109242857Y80527783D01*
X109242857Y80527783D02*
X108747619Y80527783D01*
X109985715Y81084926D02*
X110047619Y81146831D01*
X110047619Y81146831D02*
X110171429Y81208736D01*
X110171429Y81208736D02*
X110480953Y81208736D01*
X110480953Y81208736D02*
X110604762Y81146831D01*
X110604762Y81146831D02*
X110666667Y81084926D01*
X110666667Y81084926D02*
X110728572Y80961117D01*
X110728572Y80961117D02*
X110728572Y80837307D01*
X110728572Y80837307D02*
X110666667Y80651593D01*
X110666667Y80651593D02*
X109923810Y79908736D01*
X109923810Y79908736D02*
X110728572Y79908736D01*
X112276190Y79908736D02*
X112276190Y81208736D01*
X112895238Y79908736D02*
X112895238Y81208736D01*
X112895238Y81208736D02*
X113638095Y79908736D01*
X113638095Y79908736D02*
X113638095Y81208736D01*
X114628572Y81208736D02*
X114628572Y80280164D01*
X114628572Y80280164D02*
X114566667Y80094450D01*
X114566667Y80094450D02*
X114442858Y79970640D01*
X114442858Y79970640D02*
X114257143Y79908736D01*
X114257143Y79908736D02*
X114133334Y79908736D01*
X116671429Y80589688D02*
X116857143Y80527783D01*
X116857143Y80527783D02*
X116919048Y80465879D01*
X116919048Y80465879D02*
X116980952Y80342069D01*
X116980952Y80342069D02*
X116980952Y80156355D01*
X116980952Y80156355D02*
X116919048Y80032545D01*
X116919048Y80032545D02*
X116857143Y79970640D01*
X116857143Y79970640D02*
X116733333Y79908736D01*
X116733333Y79908736D02*
X116238095Y79908736D01*
X116238095Y79908736D02*
X116238095Y81208736D01*
X116238095Y81208736D02*
X116671429Y81208736D01*
X116671429Y81208736D02*
X116795238Y81146831D01*
X116795238Y81146831D02*
X116857143Y81084926D01*
X116857143Y81084926D02*
X116919048Y80961117D01*
X116919048Y80961117D02*
X116919048Y80837307D01*
X116919048Y80837307D02*
X116857143Y80713498D01*
X116857143Y80713498D02*
X116795238Y80651593D01*
X116795238Y80651593D02*
X116671429Y80589688D01*
X116671429Y80589688D02*
X116238095Y80589688D01*
X119952381Y80589688D02*
X119519047Y80589688D01*
X119519047Y79908736D02*
X119519047Y81208736D01*
X119519047Y81208736D02*
X120138095Y81208736D01*
X121190476Y81208736D02*
X120942857Y81208736D01*
X120942857Y81208736D02*
X120819048Y81146831D01*
X120819048Y81146831D02*
X120757143Y81084926D01*
X120757143Y81084926D02*
X120633333Y80899212D01*
X120633333Y80899212D02*
X120571429Y80651593D01*
X120571429Y80651593D02*
X120571429Y80156355D01*
X120571429Y80156355D02*
X120633333Y80032545D01*
X120633333Y80032545D02*
X120695238Y79970640D01*
X120695238Y79970640D02*
X120819048Y79908736D01*
X120819048Y79908736D02*
X121066667Y79908736D01*
X121066667Y79908736D02*
X121190476Y79970640D01*
X121190476Y79970640D02*
X121252381Y80032545D01*
X121252381Y80032545D02*
X121314286Y80156355D01*
X121314286Y80156355D02*
X121314286Y80465879D01*
X121314286Y80465879D02*
X121252381Y80589688D01*
X121252381Y80589688D02*
X121190476Y80651593D01*
X121190476Y80651593D02*
X121066667Y80713498D01*
X121066667Y80713498D02*
X120819048Y80713498D01*
X120819048Y80713498D02*
X120695238Y80651593D01*
X120695238Y80651593D02*
X120633333Y80589688D01*
X120633333Y80589688D02*
X120571429Y80465879D01*
X108747619Y18908736D02*
X108747619Y20208736D01*
X108747619Y20208736D02*
X109242857Y20208736D01*
X109242857Y20208736D02*
X109366667Y20146831D01*
X109366667Y20146831D02*
X109428572Y20084926D01*
X109428572Y20084926D02*
X109490476Y19961117D01*
X109490476Y19961117D02*
X109490476Y19775402D01*
X109490476Y19775402D02*
X109428572Y19651593D01*
X109428572Y19651593D02*
X109366667Y19589688D01*
X109366667Y19589688D02*
X109242857Y19527783D01*
X109242857Y19527783D02*
X108747619Y19527783D01*
X109923810Y20208736D02*
X110728572Y20208736D01*
X110728572Y20208736D02*
X110295238Y19713498D01*
X110295238Y19713498D02*
X110480953Y19713498D01*
X110480953Y19713498D02*
X110604762Y19651593D01*
X110604762Y19651593D02*
X110666667Y19589688D01*
X110666667Y19589688D02*
X110728572Y19465879D01*
X110728572Y19465879D02*
X110728572Y19156355D01*
X110728572Y19156355D02*
X110666667Y19032545D01*
X110666667Y19032545D02*
X110604762Y18970640D01*
X110604762Y18970640D02*
X110480953Y18908736D01*
X110480953Y18908736D02*
X110109524Y18908736D01*
X110109524Y18908736D02*
X109985715Y18970640D01*
X109985715Y18970640D02*
X109923810Y19032545D01*
X112276190Y18908736D02*
X112276190Y20208736D01*
X112895238Y18908736D02*
X112895238Y20208736D01*
X112895238Y20208736D02*
X113638095Y18908736D01*
X113638095Y18908736D02*
X113638095Y20208736D01*
X114628572Y20208736D02*
X114628572Y19280164D01*
X114628572Y19280164D02*
X114566667Y19094450D01*
X114566667Y19094450D02*
X114442858Y18970640D01*
X114442858Y18970640D02*
X114257143Y18908736D01*
X114257143Y18908736D02*
X114133334Y18908736D01*
X116671429Y19589688D02*
X116857143Y19527783D01*
X116857143Y19527783D02*
X116919048Y19465879D01*
X116919048Y19465879D02*
X116980952Y19342069D01*
X116980952Y19342069D02*
X116980952Y19156355D01*
X116980952Y19156355D02*
X116919048Y19032545D01*
X116919048Y19032545D02*
X116857143Y18970640D01*
X116857143Y18970640D02*
X116733333Y18908736D01*
X116733333Y18908736D02*
X116238095Y18908736D01*
X116238095Y18908736D02*
X116238095Y20208736D01*
X116238095Y20208736D02*
X116671429Y20208736D01*
X116671429Y20208736D02*
X116795238Y20146831D01*
X116795238Y20146831D02*
X116857143Y20084926D01*
X116857143Y20084926D02*
X116919048Y19961117D01*
X116919048Y19961117D02*
X116919048Y19837307D01*
X116919048Y19837307D02*
X116857143Y19713498D01*
X116857143Y19713498D02*
X116795238Y19651593D01*
X116795238Y19651593D02*
X116671429Y19589688D01*
X116671429Y19589688D02*
X116238095Y19589688D01*
X119952381Y19589688D02*
X119519047Y19589688D01*
X119519047Y18908736D02*
X119519047Y20208736D01*
X119519047Y20208736D02*
X120138095Y20208736D01*
X120695238Y18908736D02*
X120942857Y18908736D01*
X120942857Y18908736D02*
X121066667Y18970640D01*
X121066667Y18970640D02*
X121128571Y19032545D01*
X121128571Y19032545D02*
X121252381Y19218260D01*
X121252381Y19218260D02*
X121314286Y19465879D01*
X121314286Y19465879D02*
X121314286Y19961117D01*
X121314286Y19961117D02*
X121252381Y20084926D01*
X121252381Y20084926D02*
X121190476Y20146831D01*
X121190476Y20146831D02*
X121066667Y20208736D01*
X121066667Y20208736D02*
X120819048Y20208736D01*
X120819048Y20208736D02*
X120695238Y20146831D01*
X120695238Y20146831D02*
X120633333Y20084926D01*
X120633333Y20084926D02*
X120571429Y19961117D01*
X120571429Y19961117D02*
X120571429Y19651593D01*
X120571429Y19651593D02*
X120633333Y19527783D01*
X120633333Y19527783D02*
X120695238Y19465879D01*
X120695238Y19465879D02*
X120819048Y19403974D01*
X120819048Y19403974D02*
X121066667Y19403974D01*
X121066667Y19403974D02*
X121190476Y19465879D01*
X121190476Y19465879D02*
X121252381Y19527783D01*
X121252381Y19527783D02*
X121314286Y19651593D01*
D13*
X49266664Y54496587D02*
X49199997Y54429920D01*
X49199997Y54429920D02*
X48999997Y54363254D01*
X48999997Y54363254D02*
X48866664Y54363254D01*
X48866664Y54363254D02*
X48666664Y54429920D01*
X48666664Y54429920D02*
X48533331Y54563254D01*
X48533331Y54563254D02*
X48466664Y54696587D01*
X48466664Y54696587D02*
X48399997Y54963254D01*
X48399997Y54963254D02*
X48399997Y55163254D01*
X48399997Y55163254D02*
X48466664Y55429920D01*
X48466664Y55429920D02*
X48533331Y55563254D01*
X48533331Y55563254D02*
X48666664Y55696587D01*
X48666664Y55696587D02*
X48866664Y55763254D01*
X48866664Y55763254D02*
X48999997Y55763254D01*
X48999997Y55763254D02*
X49199997Y55696587D01*
X49199997Y55696587D02*
X49266664Y55629920D01*
X49866664Y54363254D02*
X49866664Y55763254D01*
X50466664Y54363254D02*
X50466664Y55096587D01*
X50466664Y55096587D02*
X50399997Y55229920D01*
X50399997Y55229920D02*
X50266664Y55296587D01*
X50266664Y55296587D02*
X50066664Y55296587D01*
X50066664Y55296587D02*
X49933331Y55229920D01*
X49933331Y55229920D02*
X49866664Y55163254D01*
X51733331Y54363254D02*
X51733331Y55096587D01*
X51733331Y55096587D02*
X51666664Y55229920D01*
X51666664Y55229920D02*
X51533331Y55296587D01*
X51533331Y55296587D02*
X51266664Y55296587D01*
X51266664Y55296587D02*
X51133331Y55229920D01*
X51733331Y54429920D02*
X51599998Y54363254D01*
X51599998Y54363254D02*
X51266664Y54363254D01*
X51266664Y54363254D02*
X51133331Y54429920D01*
X51133331Y54429920D02*
X51066664Y54563254D01*
X51066664Y54563254D02*
X51066664Y54696587D01*
X51066664Y54696587D02*
X51133331Y54829920D01*
X51133331Y54829920D02*
X51266664Y54896587D01*
X51266664Y54896587D02*
X51599998Y54896587D01*
X51599998Y54896587D02*
X51733331Y54963254D01*
X52399998Y55296587D02*
X52399998Y54363254D01*
X52399998Y55163254D02*
X52466665Y55229920D01*
X52466665Y55229920D02*
X52599998Y55296587D01*
X52599998Y55296587D02*
X52799998Y55296587D01*
X52799998Y55296587D02*
X52933331Y55229920D01*
X52933331Y55229920D02*
X52999998Y55096587D01*
X52999998Y55096587D02*
X52999998Y54363254D01*
X54266665Y54363254D02*
X54266665Y55763254D01*
X54266665Y54429920D02*
X54133332Y54363254D01*
X54133332Y54363254D02*
X53866665Y54363254D01*
X53866665Y54363254D02*
X53733332Y54429920D01*
X53733332Y54429920D02*
X53666665Y54496587D01*
X53666665Y54496587D02*
X53599998Y54629920D01*
X53599998Y54629920D02*
X53599998Y55029920D01*
X53599998Y55029920D02*
X53666665Y55163254D01*
X53666665Y55163254D02*
X53733332Y55229920D01*
X53733332Y55229920D02*
X53866665Y55296587D01*
X53866665Y55296587D02*
X54133332Y55296587D01*
X54133332Y55296587D02*
X54266665Y55229920D01*
X55133332Y54363254D02*
X54999999Y54429920D01*
X54999999Y54429920D02*
X54933332Y54563254D01*
X54933332Y54563254D02*
X54933332Y55763254D01*
X56199998Y54429920D02*
X56066665Y54363254D01*
X56066665Y54363254D02*
X55799998Y54363254D01*
X55799998Y54363254D02*
X55666665Y54429920D01*
X55666665Y54429920D02*
X55599998Y54563254D01*
X55599998Y54563254D02*
X55599998Y55096587D01*
X55599998Y55096587D02*
X55666665Y55229920D01*
X55666665Y55229920D02*
X55799998Y55296587D01*
X55799998Y55296587D02*
X56066665Y55296587D01*
X56066665Y55296587D02*
X56199998Y55229920D01*
X56199998Y55229920D02*
X56266665Y55096587D01*
X56266665Y55096587D02*
X56266665Y54963254D01*
X56266665Y54963254D02*
X55599998Y54829920D01*
X56866665Y54363254D02*
X56866665Y55296587D01*
X56866665Y55029920D02*
X56933332Y55163254D01*
X56933332Y55163254D02*
X56999998Y55229920D01*
X56999998Y55229920D02*
X57133332Y55296587D01*
X57133332Y55296587D02*
X57266665Y55296587D01*
X59399999Y55296587D02*
X59399999Y54363254D01*
X59066666Y55829920D02*
X58733332Y54829920D01*
X58733332Y54829920D02*
X59599999Y54829920D01*
X60133332Y54363254D02*
X60133332Y55763254D01*
X60133332Y55763254D02*
X60466665Y55763254D01*
X60466665Y55763254D02*
X60666665Y55696587D01*
X60666665Y55696587D02*
X60799999Y55563254D01*
X60799999Y55563254D02*
X60866665Y55429920D01*
X60866665Y55429920D02*
X60933332Y55163254D01*
X60933332Y55163254D02*
X60933332Y54963254D01*
X60933332Y54963254D02*
X60866665Y54696587D01*
X60866665Y54696587D02*
X60799999Y54563254D01*
X60799999Y54563254D02*
X60666665Y54429920D01*
X60666665Y54429920D02*
X60466665Y54363254D01*
X60466665Y54363254D02*
X60133332Y54363254D01*
X62533332Y55829920D02*
X61333332Y54029920D01*
X63199999Y55163254D02*
X63066666Y55229920D01*
X63066666Y55229920D02*
X62999999Y55296587D01*
X62999999Y55296587D02*
X62933332Y55429920D01*
X62933332Y55429920D02*
X62933332Y55496587D01*
X62933332Y55496587D02*
X62999999Y55629920D01*
X62999999Y55629920D02*
X63066666Y55696587D01*
X63066666Y55696587D02*
X63199999Y55763254D01*
X63199999Y55763254D02*
X63466666Y55763254D01*
X63466666Y55763254D02*
X63599999Y55696587D01*
X63599999Y55696587D02*
X63666666Y55629920D01*
X63666666Y55629920D02*
X63733332Y55496587D01*
X63733332Y55496587D02*
X63733332Y55429920D01*
X63733332Y55429920D02*
X63666666Y55296587D01*
X63666666Y55296587D02*
X63599999Y55229920D01*
X63599999Y55229920D02*
X63466666Y55163254D01*
X63466666Y55163254D02*
X63199999Y55163254D01*
X63199999Y55163254D02*
X63066666Y55096587D01*
X63066666Y55096587D02*
X62999999Y55029920D01*
X62999999Y55029920D02*
X62933332Y54896587D01*
X62933332Y54896587D02*
X62933332Y54629920D01*
X62933332Y54629920D02*
X62999999Y54496587D01*
X62999999Y54496587D02*
X63066666Y54429920D01*
X63066666Y54429920D02*
X63199999Y54363254D01*
X63199999Y54363254D02*
X63466666Y54363254D01*
X63466666Y54363254D02*
X63599999Y54429920D01*
X63599999Y54429920D02*
X63666666Y54496587D01*
X63666666Y54496587D02*
X63733332Y54629920D01*
X63733332Y54629920D02*
X63733332Y54896587D01*
X63733332Y54896587D02*
X63666666Y55029920D01*
X63666666Y55029920D02*
X63599999Y55096587D01*
X63599999Y55096587D02*
X63466666Y55163254D01*
X64333332Y54363254D02*
X64333332Y55763254D01*
X64333332Y55763254D02*
X64866665Y55763254D01*
X64866665Y55763254D02*
X64999999Y55696587D01*
X64999999Y55696587D02*
X65066665Y55629920D01*
X65066665Y55629920D02*
X65133332Y55496587D01*
X65133332Y55496587D02*
X65133332Y55296587D01*
X65133332Y55296587D02*
X65066665Y55163254D01*
X65066665Y55163254D02*
X64999999Y55096587D01*
X64999999Y55096587D02*
X64866665Y55029920D01*
X64866665Y55029920D02*
X64333332Y55029920D01*
X66799999Y54363254D02*
X66799999Y55763254D01*
X66799999Y55763254D02*
X67133332Y55763254D01*
X67133332Y55763254D02*
X67333332Y55696587D01*
X67333332Y55696587D02*
X67466666Y55563254D01*
X67466666Y55563254D02*
X67533332Y55429920D01*
X67533332Y55429920D02*
X67599999Y55163254D01*
X67599999Y55163254D02*
X67599999Y54963254D01*
X67599999Y54963254D02*
X67533332Y54696587D01*
X67533332Y54696587D02*
X67466666Y54563254D01*
X67466666Y54563254D02*
X67333332Y54429920D01*
X67333332Y54429920D02*
X67133332Y54363254D01*
X67133332Y54363254D02*
X66799999Y54363254D01*
X68199999Y54363254D02*
X68199999Y55296587D01*
X68199999Y55763254D02*
X68133332Y55696587D01*
X68133332Y55696587D02*
X68199999Y55629920D01*
X68199999Y55629920D02*
X68266666Y55696587D01*
X68266666Y55696587D02*
X68199999Y55763254D01*
X68199999Y55763254D02*
X68199999Y55629920D01*
X68666666Y55296587D02*
X69199999Y55296587D01*
X68866666Y54363254D02*
X68866666Y55563254D01*
X68866666Y55563254D02*
X68933333Y55696587D01*
X68933333Y55696587D02*
X69066666Y55763254D01*
X69066666Y55763254D02*
X69199999Y55763254D01*
X69466666Y55296587D02*
X69999999Y55296587D01*
X69666666Y54363254D02*
X69666666Y55563254D01*
X69666666Y55563254D02*
X69733333Y55696587D01*
X69733333Y55696587D02*
X69866666Y55763254D01*
X69866666Y55763254D02*
X69999999Y55763254D01*
X70999999Y54429920D02*
X70866666Y54363254D01*
X70866666Y54363254D02*
X70599999Y54363254D01*
X70599999Y54363254D02*
X70466666Y54429920D01*
X70466666Y54429920D02*
X70399999Y54563254D01*
X70399999Y54563254D02*
X70399999Y55096587D01*
X70399999Y55096587D02*
X70466666Y55229920D01*
X70466666Y55229920D02*
X70599999Y55296587D01*
X70599999Y55296587D02*
X70866666Y55296587D01*
X70866666Y55296587D02*
X70999999Y55229920D01*
X70999999Y55229920D02*
X71066666Y55096587D01*
X71066666Y55096587D02*
X71066666Y54963254D01*
X71066666Y54963254D02*
X70399999Y54829920D01*
X71666666Y54363254D02*
X71666666Y55296587D01*
X71666666Y55029920D02*
X71733333Y55163254D01*
X71733333Y55163254D02*
X71799999Y55229920D01*
X71799999Y55229920D02*
X71933333Y55296587D01*
X71933333Y55296587D02*
X72066666Y55296587D01*
X73066666Y54429920D02*
X72933333Y54363254D01*
X72933333Y54363254D02*
X72666666Y54363254D01*
X72666666Y54363254D02*
X72533333Y54429920D01*
X72533333Y54429920D02*
X72466666Y54563254D01*
X72466666Y54563254D02*
X72466666Y55096587D01*
X72466666Y55096587D02*
X72533333Y55229920D01*
X72533333Y55229920D02*
X72666666Y55296587D01*
X72666666Y55296587D02*
X72933333Y55296587D01*
X72933333Y55296587D02*
X73066666Y55229920D01*
X73066666Y55229920D02*
X73133333Y55096587D01*
X73133333Y55096587D02*
X73133333Y54963254D01*
X73133333Y54963254D02*
X72466666Y54829920D01*
X73733333Y55296587D02*
X73733333Y54363254D01*
X73733333Y55163254D02*
X73800000Y55229920D01*
X73800000Y55229920D02*
X73933333Y55296587D01*
X73933333Y55296587D02*
X74133333Y55296587D01*
X74133333Y55296587D02*
X74266666Y55229920D01*
X74266666Y55229920D02*
X74333333Y55096587D01*
X74333333Y55096587D02*
X74333333Y54363254D01*
X74800000Y55296587D02*
X75333333Y55296587D01*
X75000000Y55763254D02*
X75000000Y54563254D01*
X75000000Y54563254D02*
X75066667Y54429920D01*
X75066667Y54429920D02*
X75200000Y54363254D01*
X75200000Y54363254D02*
X75333333Y54363254D01*
X75800000Y54363254D02*
X75800000Y55296587D01*
X75800000Y55763254D02*
X75733333Y55696587D01*
X75733333Y55696587D02*
X75800000Y55629920D01*
X75800000Y55629920D02*
X75866667Y55696587D01*
X75866667Y55696587D02*
X75800000Y55763254D01*
X75800000Y55763254D02*
X75800000Y55629920D01*
X77066667Y54363254D02*
X77066667Y55096587D01*
X77066667Y55096587D02*
X77000000Y55229920D01*
X77000000Y55229920D02*
X76866667Y55296587D01*
X76866667Y55296587D02*
X76600000Y55296587D01*
X76600000Y55296587D02*
X76466667Y55229920D01*
X77066667Y54429920D02*
X76933334Y54363254D01*
X76933334Y54363254D02*
X76600000Y54363254D01*
X76600000Y54363254D02*
X76466667Y54429920D01*
X76466667Y54429920D02*
X76400000Y54563254D01*
X76400000Y54563254D02*
X76400000Y54696587D01*
X76400000Y54696587D02*
X76466667Y54829920D01*
X76466667Y54829920D02*
X76600000Y54896587D01*
X76600000Y54896587D02*
X76933334Y54896587D01*
X76933334Y54896587D02*
X77066667Y54963254D01*
X77933334Y54363254D02*
X77800001Y54429920D01*
X77800001Y54429920D02*
X77733334Y54563254D01*
X77733334Y54563254D02*
X77733334Y55763254D01*
X80333334Y54363254D02*
X79866667Y55029920D01*
X79533334Y54363254D02*
X79533334Y55763254D01*
X79533334Y55763254D02*
X80066667Y55763254D01*
X80066667Y55763254D02*
X80200001Y55696587D01*
X80200001Y55696587D02*
X80266667Y55629920D01*
X80266667Y55629920D02*
X80333334Y55496587D01*
X80333334Y55496587D02*
X80333334Y55296587D01*
X80333334Y55296587D02*
X80266667Y55163254D01*
X80266667Y55163254D02*
X80200001Y55096587D01*
X80200001Y55096587D02*
X80066667Y55029920D01*
X80066667Y55029920D02*
X79533334Y55029920D01*
X81466667Y54429920D02*
X81333334Y54363254D01*
X81333334Y54363254D02*
X81066667Y54363254D01*
X81066667Y54363254D02*
X80933334Y54429920D01*
X80933334Y54429920D02*
X80866667Y54563254D01*
X80866667Y54563254D02*
X80866667Y55096587D01*
X80866667Y55096587D02*
X80933334Y55229920D01*
X80933334Y55229920D02*
X81066667Y55296587D01*
X81066667Y55296587D02*
X81333334Y55296587D01*
X81333334Y55296587D02*
X81466667Y55229920D01*
X81466667Y55229920D02*
X81533334Y55096587D01*
X81533334Y55096587D02*
X81533334Y54963254D01*
X81533334Y54963254D02*
X80866667Y54829920D01*
X82733334Y54429920D02*
X82600001Y54363254D01*
X82600001Y54363254D02*
X82333334Y54363254D01*
X82333334Y54363254D02*
X82200001Y54429920D01*
X82200001Y54429920D02*
X82133334Y54496587D01*
X82133334Y54496587D02*
X82066667Y54629920D01*
X82066667Y54629920D02*
X82066667Y55029920D01*
X82066667Y55029920D02*
X82133334Y55163254D01*
X82133334Y55163254D02*
X82200001Y55229920D01*
X82200001Y55229920D02*
X82333334Y55296587D01*
X82333334Y55296587D02*
X82600001Y55296587D01*
X82600001Y55296587D02*
X82733334Y55229920D01*
X83866667Y54429920D02*
X83733334Y54363254D01*
X83733334Y54363254D02*
X83466667Y54363254D01*
X83466667Y54363254D02*
X83333334Y54429920D01*
X83333334Y54429920D02*
X83266667Y54563254D01*
X83266667Y54563254D02*
X83266667Y55096587D01*
X83266667Y55096587D02*
X83333334Y55229920D01*
X83333334Y55229920D02*
X83466667Y55296587D01*
X83466667Y55296587D02*
X83733334Y55296587D01*
X83733334Y55296587D02*
X83866667Y55229920D01*
X83866667Y55229920D02*
X83933334Y55096587D01*
X83933334Y55096587D02*
X83933334Y54963254D01*
X83933334Y54963254D02*
X83266667Y54829920D01*
X84533334Y54363254D02*
X84533334Y55296587D01*
X84533334Y55763254D02*
X84466667Y55696587D01*
X84466667Y55696587D02*
X84533334Y55629920D01*
X84533334Y55629920D02*
X84600001Y55696587D01*
X84600001Y55696587D02*
X84533334Y55763254D01*
X84533334Y55763254D02*
X84533334Y55629920D01*
X85066668Y55296587D02*
X85400001Y54363254D01*
X85400001Y54363254D02*
X85733334Y55296587D01*
X86800001Y54429920D02*
X86666668Y54363254D01*
X86666668Y54363254D02*
X86400001Y54363254D01*
X86400001Y54363254D02*
X86266668Y54429920D01*
X86266668Y54429920D02*
X86200001Y54563254D01*
X86200001Y54563254D02*
X86200001Y55096587D01*
X86200001Y55096587D02*
X86266668Y55229920D01*
X86266668Y55229920D02*
X86400001Y55296587D01*
X86400001Y55296587D02*
X86666668Y55296587D01*
X86666668Y55296587D02*
X86800001Y55229920D01*
X86800001Y55229920D02*
X86866668Y55096587D01*
X86866668Y55096587D02*
X86866668Y54963254D01*
X86866668Y54963254D02*
X86200001Y54829920D01*
X87466668Y54363254D02*
X87466668Y55296587D01*
X87466668Y55029920D02*
X87533335Y55163254D01*
X87533335Y55163254D02*
X87600001Y55229920D01*
X87600001Y55229920D02*
X87733335Y55296587D01*
X87733335Y55296587D02*
X87866668Y55296587D01*
X90333336Y55296587D02*
X90666669Y54363254D01*
X90666669Y54363254D02*
X91000002Y55296587D01*
X92266669Y54363254D02*
X91466669Y54363254D01*
X91866669Y54363254D02*
X91866669Y55763254D01*
X91866669Y55763254D02*
X91733336Y55563254D01*
X91733336Y55563254D02*
X91600003Y55429920D01*
X91600003Y55429920D02*
X91466669Y55363254D01*
X92866669Y54496587D02*
X92933336Y54429920D01*
X92933336Y54429920D02*
X92866669Y54363254D01*
X92866669Y54363254D02*
X92800002Y54429920D01*
X92800002Y54429920D02*
X92866669Y54496587D01*
X92866669Y54496587D02*
X92866669Y54363254D01*
X93800003Y55763254D02*
X93933336Y55763254D01*
X93933336Y55763254D02*
X94066669Y55696587D01*
X94066669Y55696587D02*
X94133336Y55629920D01*
X94133336Y55629920D02*
X94200003Y55496587D01*
X94200003Y55496587D02*
X94266669Y55229920D01*
X94266669Y55229920D02*
X94266669Y54896587D01*
X94266669Y54896587D02*
X94200003Y54629920D01*
X94200003Y54629920D02*
X94133336Y54496587D01*
X94133336Y54496587D02*
X94066669Y54429920D01*
X94066669Y54429920D02*
X93933336Y54363254D01*
X93933336Y54363254D02*
X93800003Y54363254D01*
X93800003Y54363254D02*
X93666669Y54429920D01*
X93666669Y54429920D02*
X93600003Y54496587D01*
X93600003Y54496587D02*
X93533336Y54629920D01*
X93533336Y54629920D02*
X93466669Y54896587D01*
X93466669Y54896587D02*
X93466669Y55229920D01*
X93466669Y55229920D02*
X93533336Y55496587D01*
X93533336Y55496587D02*
X93600003Y55629920D01*
X93600003Y55629920D02*
X93666669Y55696587D01*
X93666669Y55696587D02*
X93800003Y55763254D01*
X95133336Y55763254D02*
X95266669Y55763254D01*
X95266669Y55763254D02*
X95400002Y55696587D01*
X95400002Y55696587D02*
X95466669Y55629920D01*
X95466669Y55629920D02*
X95533336Y55496587D01*
X95533336Y55496587D02*
X95600002Y55229920D01*
X95600002Y55229920D02*
X95600002Y54896587D01*
X95600002Y54896587D02*
X95533336Y54629920D01*
X95533336Y54629920D02*
X95466669Y54496587D01*
X95466669Y54496587D02*
X95400002Y54429920D01*
X95400002Y54429920D02*
X95266669Y54363254D01*
X95266669Y54363254D02*
X95133336Y54363254D01*
X95133336Y54363254D02*
X95000002Y54429920D01*
X95000002Y54429920D02*
X94933336Y54496587D01*
X94933336Y54496587D02*
X94866669Y54629920D01*
X94866669Y54629920D02*
X94800002Y54896587D01*
X94800002Y54896587D02*
X94800002Y55229920D01*
X94800002Y55229920D02*
X94866669Y55496587D01*
X94866669Y55496587D02*
X94933336Y55629920D01*
X94933336Y55629920D02*
X95000002Y55696587D01*
X95000002Y55696587D02*
X95133336Y55763254D01*
D10*
X104190476Y78545181D02*
X104190476Y77830896D01*
X104190476Y77830896D02*
X104142857Y77688039D01*
X104142857Y77688039D02*
X104047619Y77592800D01*
X104047619Y77592800D02*
X103904762Y77545181D01*
X103904762Y77545181D02*
X103809524Y77545181D01*
X105190476Y77545181D02*
X104619048Y77545181D01*
X104904762Y77545181D02*
X104904762Y78545181D01*
X104904762Y78545181D02*
X104809524Y78402324D01*
X104809524Y78402324D02*
X104714286Y78307086D01*
X104714286Y78307086D02*
X104619048Y78259467D01*
X106095238Y78545181D02*
X105619048Y78545181D01*
X105619048Y78545181D02*
X105571429Y78068991D01*
X105571429Y78068991D02*
X105619048Y78116610D01*
X105619048Y78116610D02*
X105714286Y78164229D01*
X105714286Y78164229D02*
X105952381Y78164229D01*
X105952381Y78164229D02*
X106047619Y78116610D01*
X106047619Y78116610D02*
X106095238Y78068991D01*
X106095238Y78068991D02*
X106142857Y77973753D01*
X106142857Y77973753D02*
X106142857Y77735658D01*
X106142857Y77735658D02*
X106095238Y77640420D01*
X106095238Y77640420D02*
X106047619Y77592800D01*
X106047619Y77592800D02*
X105952381Y77545181D01*
X105952381Y77545181D02*
X105714286Y77545181D01*
X105714286Y77545181D02*
X105619048Y77592800D01*
X105619048Y77592800D02*
X105571429Y77640420D01*
X67904761Y35449943D02*
X67809523Y35497562D01*
X67809523Y35497562D02*
X67714285Y35592800D01*
X67714285Y35592800D02*
X67571428Y35735658D01*
X67571428Y35735658D02*
X67476190Y35783277D01*
X67476190Y35783277D02*
X67380952Y35783277D01*
X67428571Y35545181D02*
X67333333Y35592800D01*
X67333333Y35592800D02*
X67238095Y35688039D01*
X67238095Y35688039D02*
X67190476Y35878515D01*
X67190476Y35878515D02*
X67190476Y36211848D01*
X67190476Y36211848D02*
X67238095Y36402324D01*
X67238095Y36402324D02*
X67333333Y36497562D01*
X67333333Y36497562D02*
X67428571Y36545181D01*
X67428571Y36545181D02*
X67619047Y36545181D01*
X67619047Y36545181D02*
X67714285Y36497562D01*
X67714285Y36497562D02*
X67809523Y36402324D01*
X67809523Y36402324D02*
X67857142Y36211848D01*
X67857142Y36211848D02*
X67857142Y35878515D01*
X67857142Y35878515D02*
X67809523Y35688039D01*
X67809523Y35688039D02*
X67714285Y35592800D01*
X67714285Y35592800D02*
X67619047Y35545181D01*
X67619047Y35545181D02*
X67428571Y35545181D01*
X68809523Y35545181D02*
X68238095Y35545181D01*
X68523809Y35545181D02*
X68523809Y36545181D01*
X68523809Y36545181D02*
X68428571Y36402324D01*
X68428571Y36402324D02*
X68333333Y36307086D01*
X68333333Y36307086D02*
X68238095Y36259467D01*
X109238095Y35045181D02*
X109238095Y34235658D01*
X109238095Y34235658D02*
X109285714Y34140420D01*
X109285714Y34140420D02*
X109333333Y34092800D01*
X109333333Y34092800D02*
X109428571Y34045181D01*
X109428571Y34045181D02*
X109619047Y34045181D01*
X109619047Y34045181D02*
X109714285Y34092800D01*
X109714285Y34092800D02*
X109761904Y34140420D01*
X109761904Y34140420D02*
X109809523Y34235658D01*
X109809523Y34235658D02*
X109809523Y35045181D01*
X110190476Y35045181D02*
X110809523Y35045181D01*
X110809523Y35045181D02*
X110476190Y34664229D01*
X110476190Y34664229D02*
X110619047Y34664229D01*
X110619047Y34664229D02*
X110714285Y34616610D01*
X110714285Y34616610D02*
X110761904Y34568991D01*
X110761904Y34568991D02*
X110809523Y34473753D01*
X110809523Y34473753D02*
X110809523Y34235658D01*
X110809523Y34235658D02*
X110761904Y34140420D01*
X110761904Y34140420D02*
X110714285Y34092800D01*
X110714285Y34092800D02*
X110619047Y34045181D01*
X110619047Y34045181D02*
X110333333Y34045181D01*
X110333333Y34045181D02*
X110238095Y34092800D01*
X110238095Y34092800D02*
X110190476Y34140420D01*
X6238095Y70545181D02*
X6238095Y69735658D01*
X6238095Y69735658D02*
X6285714Y69640420D01*
X6285714Y69640420D02*
X6333333Y69592800D01*
X6333333Y69592800D02*
X6428571Y69545181D01*
X6428571Y69545181D02*
X6619047Y69545181D01*
X6619047Y69545181D02*
X6714285Y69592800D01*
X6714285Y69592800D02*
X6761904Y69640420D01*
X6761904Y69640420D02*
X6809523Y69735658D01*
X6809523Y69735658D02*
X6809523Y70545181D01*
X7761904Y70545181D02*
X7285714Y70545181D01*
X7285714Y70545181D02*
X7238095Y70068991D01*
X7238095Y70068991D02*
X7285714Y70116610D01*
X7285714Y70116610D02*
X7380952Y70164229D01*
X7380952Y70164229D02*
X7619047Y70164229D01*
X7619047Y70164229D02*
X7714285Y70116610D01*
X7714285Y70116610D02*
X7761904Y70068991D01*
X7761904Y70068991D02*
X7809523Y69973753D01*
X7809523Y69973753D02*
X7809523Y69735658D01*
X7809523Y69735658D02*
X7761904Y69640420D01*
X7761904Y69640420D02*
X7714285Y69592800D01*
X7714285Y69592800D02*
X7619047Y69545181D01*
X7619047Y69545181D02*
X7380952Y69545181D01*
X7380952Y69545181D02*
X7285714Y69592800D01*
X7285714Y69592800D02*
X7238095Y69640420D01*
X24904761Y17449943D02*
X24809523Y17497562D01*
X24809523Y17497562D02*
X24714285Y17592800D01*
X24714285Y17592800D02*
X24571428Y17735658D01*
X24571428Y17735658D02*
X24476190Y17783277D01*
X24476190Y17783277D02*
X24380952Y17783277D01*
X24428571Y17545181D02*
X24333333Y17592800D01*
X24333333Y17592800D02*
X24238095Y17688039D01*
X24238095Y17688039D02*
X24190476Y17878515D01*
X24190476Y17878515D02*
X24190476Y18211848D01*
X24190476Y18211848D02*
X24238095Y18402324D01*
X24238095Y18402324D02*
X24333333Y18497562D01*
X24333333Y18497562D02*
X24428571Y18545181D01*
X24428571Y18545181D02*
X24619047Y18545181D01*
X24619047Y18545181D02*
X24714285Y18497562D01*
X24714285Y18497562D02*
X24809523Y18402324D01*
X24809523Y18402324D02*
X24857142Y18211848D01*
X24857142Y18211848D02*
X24857142Y17878515D01*
X24857142Y17878515D02*
X24809523Y17688039D01*
X24809523Y17688039D02*
X24714285Y17592800D01*
X24714285Y17592800D02*
X24619047Y17545181D01*
X24619047Y17545181D02*
X24428571Y17545181D01*
X25761904Y18545181D02*
X25285714Y18545181D01*
X25285714Y18545181D02*
X25238095Y18068991D01*
X25238095Y18068991D02*
X25285714Y18116610D01*
X25285714Y18116610D02*
X25380952Y18164229D01*
X25380952Y18164229D02*
X25619047Y18164229D01*
X25619047Y18164229D02*
X25714285Y18116610D01*
X25714285Y18116610D02*
X25761904Y18068991D01*
X25761904Y18068991D02*
X25809523Y17973753D01*
X25809523Y17973753D02*
X25809523Y17735658D01*
X25809523Y17735658D02*
X25761904Y17640420D01*
X25761904Y17640420D02*
X25714285Y17592800D01*
X25714285Y17592800D02*
X25619047Y17545181D01*
X25619047Y17545181D02*
X25380952Y17545181D01*
X25380952Y17545181D02*
X25285714Y17592800D01*
X25285714Y17592800D02*
X25238095Y17640420D01*
X111666666Y55545181D02*
X111666666Y54830896D01*
X111666666Y54830896D02*
X111619047Y54688039D01*
X111619047Y54688039D02*
X111523809Y54592800D01*
X111523809Y54592800D02*
X111380952Y54545181D01*
X111380952Y54545181D02*
X111285714Y54545181D01*
X112666666Y54545181D02*
X112095238Y54545181D01*
X112380952Y54545181D02*
X112380952Y55545181D01*
X112380952Y55545181D02*
X112285714Y55402324D01*
X112285714Y55402324D02*
X112190476Y55307086D01*
X112190476Y55307086D02*
X112095238Y55259467D01*
X67238095Y67045181D02*
X67238095Y66235658D01*
X67238095Y66235658D02*
X67285714Y66140420D01*
X67285714Y66140420D02*
X67333333Y66092800D01*
X67333333Y66092800D02*
X67428571Y66045181D01*
X67428571Y66045181D02*
X67619047Y66045181D01*
X67619047Y66045181D02*
X67714285Y66092800D01*
X67714285Y66092800D02*
X67761904Y66140420D01*
X67761904Y66140420D02*
X67809523Y66235658D01*
X67809523Y66235658D02*
X67809523Y67045181D01*
X68714285Y67045181D02*
X68523809Y67045181D01*
X68523809Y67045181D02*
X68428571Y66997562D01*
X68428571Y66997562D02*
X68380952Y66949943D01*
X68380952Y66949943D02*
X68285714Y66807086D01*
X68285714Y66807086D02*
X68238095Y66616610D01*
X68238095Y66616610D02*
X68238095Y66235658D01*
X68238095Y66235658D02*
X68285714Y66140420D01*
X68285714Y66140420D02*
X68333333Y66092800D01*
X68333333Y66092800D02*
X68428571Y66045181D01*
X68428571Y66045181D02*
X68619047Y66045181D01*
X68619047Y66045181D02*
X68714285Y66092800D01*
X68714285Y66092800D02*
X68761904Y66140420D01*
X68761904Y66140420D02*
X68809523Y66235658D01*
X68809523Y66235658D02*
X68809523Y66473753D01*
X68809523Y66473753D02*
X68761904Y66568991D01*
X68761904Y66568991D02*
X68714285Y66616610D01*
X68714285Y66616610D02*
X68619047Y66664229D01*
X68619047Y66664229D02*
X68428571Y66664229D01*
X68428571Y66664229D02*
X68333333Y66616610D01*
X68333333Y66616610D02*
X68285714Y66568991D01*
X68285714Y66568991D02*
X68238095Y66473753D01*
X83904761Y35449943D02*
X83809523Y35497562D01*
X83809523Y35497562D02*
X83714285Y35592800D01*
X83714285Y35592800D02*
X83571428Y35735658D01*
X83571428Y35735658D02*
X83476190Y35783277D01*
X83476190Y35783277D02*
X83380952Y35783277D01*
X83428571Y35545181D02*
X83333333Y35592800D01*
X83333333Y35592800D02*
X83238095Y35688039D01*
X83238095Y35688039D02*
X83190476Y35878515D01*
X83190476Y35878515D02*
X83190476Y36211848D01*
X83190476Y36211848D02*
X83238095Y36402324D01*
X83238095Y36402324D02*
X83333333Y36497562D01*
X83333333Y36497562D02*
X83428571Y36545181D01*
X83428571Y36545181D02*
X83619047Y36545181D01*
X83619047Y36545181D02*
X83714285Y36497562D01*
X83714285Y36497562D02*
X83809523Y36402324D01*
X83809523Y36402324D02*
X83857142Y36211848D01*
X83857142Y36211848D02*
X83857142Y35878515D01*
X83857142Y35878515D02*
X83809523Y35688039D01*
X83809523Y35688039D02*
X83714285Y35592800D01*
X83714285Y35592800D02*
X83619047Y35545181D01*
X83619047Y35545181D02*
X83428571Y35545181D01*
X84190476Y36545181D02*
X84809523Y36545181D01*
X84809523Y36545181D02*
X84476190Y36164229D01*
X84476190Y36164229D02*
X84619047Y36164229D01*
X84619047Y36164229D02*
X84714285Y36116610D01*
X84714285Y36116610D02*
X84761904Y36068991D01*
X84761904Y36068991D02*
X84809523Y35973753D01*
X84809523Y35973753D02*
X84809523Y35735658D01*
X84809523Y35735658D02*
X84761904Y35640420D01*
X84761904Y35640420D02*
X84714285Y35592800D01*
X84714285Y35592800D02*
X84619047Y35545181D01*
X84619047Y35545181D02*
X84333333Y35545181D01*
X84333333Y35545181D02*
X84238095Y35592800D01*
X84238095Y35592800D02*
X84190476Y35640420D01*
X75904761Y35449943D02*
X75809523Y35497562D01*
X75809523Y35497562D02*
X75714285Y35592800D01*
X75714285Y35592800D02*
X75571428Y35735658D01*
X75571428Y35735658D02*
X75476190Y35783277D01*
X75476190Y35783277D02*
X75380952Y35783277D01*
X75428571Y35545181D02*
X75333333Y35592800D01*
X75333333Y35592800D02*
X75238095Y35688039D01*
X75238095Y35688039D02*
X75190476Y35878515D01*
X75190476Y35878515D02*
X75190476Y36211848D01*
X75190476Y36211848D02*
X75238095Y36402324D01*
X75238095Y36402324D02*
X75333333Y36497562D01*
X75333333Y36497562D02*
X75428571Y36545181D01*
X75428571Y36545181D02*
X75619047Y36545181D01*
X75619047Y36545181D02*
X75714285Y36497562D01*
X75714285Y36497562D02*
X75809523Y36402324D01*
X75809523Y36402324D02*
X75857142Y36211848D01*
X75857142Y36211848D02*
X75857142Y35878515D01*
X75857142Y35878515D02*
X75809523Y35688039D01*
X75809523Y35688039D02*
X75714285Y35592800D01*
X75714285Y35592800D02*
X75619047Y35545181D01*
X75619047Y35545181D02*
X75428571Y35545181D01*
X76238095Y36449943D02*
X76285714Y36497562D01*
X76285714Y36497562D02*
X76380952Y36545181D01*
X76380952Y36545181D02*
X76619047Y36545181D01*
X76619047Y36545181D02*
X76714285Y36497562D01*
X76714285Y36497562D02*
X76761904Y36449943D01*
X76761904Y36449943D02*
X76809523Y36354705D01*
X76809523Y36354705D02*
X76809523Y36259467D01*
X76809523Y36259467D02*
X76761904Y36116610D01*
X76761904Y36116610D02*
X76190476Y35545181D01*
X76190476Y35545181D02*
X76809523Y35545181D01*
X61238095Y78045181D02*
X61238095Y77235658D01*
X61238095Y77235658D02*
X61285714Y77140420D01*
X61285714Y77140420D02*
X61333333Y77092800D01*
X61333333Y77092800D02*
X61428571Y77045181D01*
X61428571Y77045181D02*
X61619047Y77045181D01*
X61619047Y77045181D02*
X61714285Y77092800D01*
X61714285Y77092800D02*
X61761904Y77140420D01*
X61761904Y77140420D02*
X61809523Y77235658D01*
X61809523Y77235658D02*
X61809523Y78045181D01*
X62714285Y77711848D02*
X62714285Y77045181D01*
X62476190Y78092800D02*
X62238095Y77378515D01*
X62238095Y77378515D02*
X62857142Y77378515D01*
X91904761Y35449943D02*
X91809523Y35497562D01*
X91809523Y35497562D02*
X91714285Y35592800D01*
X91714285Y35592800D02*
X91571428Y35735658D01*
X91571428Y35735658D02*
X91476190Y35783277D01*
X91476190Y35783277D02*
X91380952Y35783277D01*
X91428571Y35545181D02*
X91333333Y35592800D01*
X91333333Y35592800D02*
X91238095Y35688039D01*
X91238095Y35688039D02*
X91190476Y35878515D01*
X91190476Y35878515D02*
X91190476Y36211848D01*
X91190476Y36211848D02*
X91238095Y36402324D01*
X91238095Y36402324D02*
X91333333Y36497562D01*
X91333333Y36497562D02*
X91428571Y36545181D01*
X91428571Y36545181D02*
X91619047Y36545181D01*
X91619047Y36545181D02*
X91714285Y36497562D01*
X91714285Y36497562D02*
X91809523Y36402324D01*
X91809523Y36402324D02*
X91857142Y36211848D01*
X91857142Y36211848D02*
X91857142Y35878515D01*
X91857142Y35878515D02*
X91809523Y35688039D01*
X91809523Y35688039D02*
X91714285Y35592800D01*
X91714285Y35592800D02*
X91619047Y35545181D01*
X91619047Y35545181D02*
X91428571Y35545181D01*
X92714285Y36211848D02*
X92714285Y35545181D01*
X92476190Y36592800D02*
X92238095Y35878515D01*
X92238095Y35878515D02*
X92857142Y35878515D01*
X91666666Y58568991D02*
X91333333Y58568991D01*
X91333333Y58045181D02*
X91333333Y59045181D01*
X91333333Y59045181D02*
X91809523Y59045181D01*
X92380952Y59045181D02*
X92476190Y59045181D01*
X92476190Y59045181D02*
X92571428Y58997562D01*
X92571428Y58997562D02*
X92619047Y58949943D01*
X92619047Y58949943D02*
X92666666Y58854705D01*
X92666666Y58854705D02*
X92714285Y58664229D01*
X92714285Y58664229D02*
X92714285Y58426134D01*
X92714285Y58426134D02*
X92666666Y58235658D01*
X92666666Y58235658D02*
X92619047Y58140420D01*
X92619047Y58140420D02*
X92571428Y58092800D01*
X92571428Y58092800D02*
X92476190Y58045181D01*
X92476190Y58045181D02*
X92380952Y58045181D01*
X92380952Y58045181D02*
X92285714Y58092800D01*
X92285714Y58092800D02*
X92238095Y58140420D01*
X92238095Y58140420D02*
X92190476Y58235658D01*
X92190476Y58235658D02*
X92142857Y58426134D01*
X92142857Y58426134D02*
X92142857Y58664229D01*
X92142857Y58664229D02*
X92190476Y58854705D01*
X92190476Y58854705D02*
X92238095Y58949943D01*
X92238095Y58949943D02*
X92285714Y58997562D01*
X92285714Y58997562D02*
X92380952Y59045181D01*
X9190476Y40045181D02*
X9190476Y39330896D01*
X9190476Y39330896D02*
X9142857Y39188039D01*
X9142857Y39188039D02*
X9047619Y39092800D01*
X9047619Y39092800D02*
X8904762Y39045181D01*
X8904762Y39045181D02*
X8809524Y39045181D01*
X10190476Y39045181D02*
X9619048Y39045181D01*
X9904762Y39045181D02*
X9904762Y40045181D01*
X9904762Y40045181D02*
X9809524Y39902324D01*
X9809524Y39902324D02*
X9714286Y39807086D01*
X9714286Y39807086D02*
X9619048Y39759467D01*
X11047619Y39711848D02*
X11047619Y39045181D01*
X10809524Y40092800D02*
X10571429Y39378515D01*
X10571429Y39378515D02*
X11190476Y39378515D01*
X69261905Y25545181D02*
X69261905Y26545181D01*
X69261905Y26545181D02*
X69500000Y26545181D01*
X69500000Y26545181D02*
X69642857Y26497562D01*
X69642857Y26497562D02*
X69738095Y26402324D01*
X69738095Y26402324D02*
X69785714Y26307086D01*
X69785714Y26307086D02*
X69833333Y26116610D01*
X69833333Y26116610D02*
X69833333Y25973753D01*
X69833333Y25973753D02*
X69785714Y25783277D01*
X69785714Y25783277D02*
X69738095Y25688039D01*
X69738095Y25688039D02*
X69642857Y25592800D01*
X69642857Y25592800D02*
X69500000Y25545181D01*
X69500000Y25545181D02*
X69261905Y25545181D01*
X70214286Y26449943D02*
X70261905Y26497562D01*
X70261905Y26497562D02*
X70357143Y26545181D01*
X70357143Y26545181D02*
X70595238Y26545181D01*
X70595238Y26545181D02*
X70690476Y26497562D01*
X70690476Y26497562D02*
X70738095Y26449943D01*
X70738095Y26449943D02*
X70785714Y26354705D01*
X70785714Y26354705D02*
X70785714Y26259467D01*
X70785714Y26259467D02*
X70738095Y26116610D01*
X70738095Y26116610D02*
X70166667Y25545181D01*
X70166667Y25545181D02*
X70785714Y25545181D01*
X35238095Y57545181D02*
X35238095Y56735658D01*
X35238095Y56735658D02*
X35285714Y56640420D01*
X35285714Y56640420D02*
X35333333Y56592800D01*
X35333333Y56592800D02*
X35428571Y56545181D01*
X35428571Y56545181D02*
X35619047Y56545181D01*
X35619047Y56545181D02*
X35714285Y56592800D01*
X35714285Y56592800D02*
X35761904Y56640420D01*
X35761904Y56640420D02*
X35809523Y56735658D01*
X35809523Y56735658D02*
X35809523Y57545181D01*
X36809523Y56545181D02*
X36238095Y56545181D01*
X36523809Y56545181D02*
X36523809Y57545181D01*
X36523809Y57545181D02*
X36428571Y57402324D01*
X36428571Y57402324D02*
X36333333Y57307086D01*
X36333333Y57307086D02*
X36238095Y57259467D01*
X16190476Y37045181D02*
X16190476Y36330896D01*
X16190476Y36330896D02*
X16142857Y36188039D01*
X16142857Y36188039D02*
X16047619Y36092800D01*
X16047619Y36092800D02*
X15904762Y36045181D01*
X15904762Y36045181D02*
X15809524Y36045181D01*
X17190476Y36045181D02*
X16619048Y36045181D01*
X16904762Y36045181D02*
X16904762Y37045181D01*
X16904762Y37045181D02*
X16809524Y36902324D01*
X16809524Y36902324D02*
X16714286Y36807086D01*
X16714286Y36807086D02*
X16619048Y36759467D01*
X18047619Y37045181D02*
X17857143Y37045181D01*
X17857143Y37045181D02*
X17761905Y36997562D01*
X17761905Y36997562D02*
X17714286Y36949943D01*
X17714286Y36949943D02*
X17619048Y36807086D01*
X17619048Y36807086D02*
X17571429Y36616610D01*
X17571429Y36616610D02*
X17571429Y36235658D01*
X17571429Y36235658D02*
X17619048Y36140420D01*
X17619048Y36140420D02*
X17666667Y36092800D01*
X17666667Y36092800D02*
X17761905Y36045181D01*
X17761905Y36045181D02*
X17952381Y36045181D01*
X17952381Y36045181D02*
X18047619Y36092800D01*
X18047619Y36092800D02*
X18095238Y36140420D01*
X18095238Y36140420D02*
X18142857Y36235658D01*
X18142857Y36235658D02*
X18142857Y36473753D01*
X18142857Y36473753D02*
X18095238Y36568991D01*
X18095238Y36568991D02*
X18047619Y36616610D01*
X18047619Y36616610D02*
X17952381Y36664229D01*
X17952381Y36664229D02*
X17761905Y36664229D01*
X17761905Y36664229D02*
X17666667Y36616610D01*
X17666667Y36616610D02*
X17619048Y36568991D01*
X17619048Y36568991D02*
X17571429Y36473753D01*
%TO.C,U3*%
X108600000Y33400000D02*
X111400000Y33400000D01*
X108600000Y26600000D02*
X108600000Y33400000D01*
X111400000Y33400000D02*
X111400000Y26600000D01*
X111400000Y26600000D02*
X108600000Y26600000D01*
D14*
X106530000Y33250000D02*
G75*
G02*
X106470000Y33250000I-30000J0D01*
G01*
X106470000Y33250000D02*
G75*
G02*
X106530000Y33250000I30000J0D01*
G01*
%TO.C,U5*%
D15*
X5500000Y78500000D02*
X8500000Y78500000D01*
X5500000Y73500000D02*
X5500000Y78500000D01*
X5500000Y73500000D02*
X6270000Y73500000D01*
X8500000Y73500000D02*
X7730000Y73500000D01*
X8500000Y73500000D02*
X8500000Y78500000D01*
X6270000Y73500000D02*
G75*
G02*
X7729713Y73504933I730000J-40000D01*
G01*
D16*
X8170000Y74220000D02*
G75*
G02*
X7870000Y74220000I-150000J0D01*
G01*
X7870000Y74220000D02*
G75*
G02*
X8170000Y74220000I150000J0D01*
G01*
D14*
X10030000Y73590000D02*
G75*
G02*
X9970000Y73590000I-30000J0D01*
G01*
X9970000Y73590000D02*
G75*
G02*
X10030000Y73590000I30000J0D01*
G01*
%TO.C,Q5*%
D10*
X22270000Y24530000D02*
X22270000Y23490000D01*
X22270000Y21470000D02*
X22270000Y22510000D01*
X23730000Y24530000D02*
X22270000Y24530000D01*
X23730000Y23460000D02*
X23730000Y22540000D01*
X23730000Y21470000D02*
X22270000Y21470000D01*
D14*
X24230000Y21550000D02*
G75*
G02*
X24170000Y21550000I-30000J0D01*
G01*
X24170000Y21550000D02*
G75*
G02*
X24230000Y21550000I30000J0D01*
G01*
%TO.C,J1*%
D15*
X116900000Y56500000D02*
X129500000Y56500000D01*
X116900000Y37500000D02*
X116900000Y56500000D01*
X116900000Y37500000D02*
X129500000Y37500000D01*
X118170000Y37500000D02*
X118170000Y56500000D01*
X118170000Y37500000D02*
X118170000Y36850000D01*
X118170000Y36850000D02*
X119200000Y36850000D01*
X119200000Y36850000D02*
X119200000Y37500000D01*
X120060000Y37500000D02*
X120060000Y56500000D01*
X125090000Y37500000D02*
X125090000Y56500000D01*
X127600000Y37450000D02*
X127600000Y36800000D01*
X127600000Y36800000D02*
X128630000Y36800000D01*
X128630000Y36800000D02*
X128630000Y37450000D01*
X128760000Y37500000D02*
X128760000Y56500000D01*
X129500000Y37500000D02*
X129500000Y56500000D01*
D14*
X129660000Y36670000D02*
G75*
G02*
X129600000Y36670000I-30000J0D01*
G01*
X129600000Y36670000D02*
G75*
G02*
X129660000Y36670000I30000J0D01*
G01*
%TO.C,U6*%
D10*
X66480000Y64530000D02*
X66480000Y64070000D01*
X66480000Y64530000D02*
X69520000Y64530000D01*
X66480000Y63740000D02*
X66480000Y62800000D01*
X66480000Y62470000D02*
X66480000Y61530000D01*
X66480000Y61200000D02*
X66480000Y60260000D01*
X66480000Y59930000D02*
X66480000Y59470000D01*
X66480000Y59470000D02*
X66480000Y64530000D01*
X67550000Y59470000D02*
X66480000Y59470000D01*
X68440000Y59470000D02*
X69520000Y59470000D01*
X69520000Y64530000D02*
X69520000Y64070000D01*
X69520000Y63740000D02*
X69520000Y62800000D01*
X69520000Y62470000D02*
X69520000Y61530000D01*
X69520000Y61200000D02*
X69520000Y60260000D01*
X69520000Y59930000D02*
X69520000Y59470000D01*
X69520000Y59470000D02*
X69520000Y64530000D01*
X67550000Y59470000D02*
G75*
G02*
X68429998Y59468694I440000J1D01*
G01*
D16*
X69170000Y60100000D02*
G75*
G02*
X68870000Y60100000I-150000J0D01*
G01*
X68870000Y60100000D02*
G75*
G02*
X69170000Y60100000I150000J0D01*
G01*
D14*
X71030000Y59550000D02*
G75*
G02*
X70970000Y59550000I-30000J0D01*
G01*
X70970000Y59550000D02*
G75*
G02*
X71030000Y59550000I30000J0D01*
G01*
%TO.C,D8*%
D10*
X26400000Y24430000D02*
X31600000Y24430000D01*
X26400000Y21570000D02*
X31600000Y21570000D01*
X28120000Y24430000D02*
X28120000Y21570000D01*
X31590000Y21820000D02*
X31600000Y21590000D01*
X31600000Y24430000D02*
X31600000Y24190000D01*
D14*
X26420000Y21700000D02*
G75*
G02*
X26360000Y21700000I-30000J0D01*
G01*
X26360000Y21700000D02*
G75*
G02*
X26420000Y21700000I30000J0D01*
G01*
D17*
G36*
X26478669Y24095807D02*
G01*
X26019132Y24100328D01*
X26022790Y24502410D01*
X26479990Y24502410D01*
X26478669Y24095807D01*
G37*
G36*
X26486899Y21497438D02*
G01*
X26027362Y21501959D01*
X26031019Y21904041D01*
X26488219Y21904041D01*
X26486899Y21497438D01*
G37*
%TO.C,U4*%
D15*
X66500000Y76500000D02*
X69500000Y76500000D01*
X66500000Y71500000D02*
X66500000Y76500000D01*
X66500000Y71500000D02*
X67270000Y71500000D01*
X69500000Y71500000D02*
X68730000Y71500000D01*
X69500000Y71500000D02*
X69500000Y76500000D01*
X67270000Y71500000D02*
G75*
G02*
X68729713Y71504933I730000J-40000D01*
G01*
D16*
X69170000Y72220000D02*
G75*
G02*
X68870000Y72220000I-150000J0D01*
G01*
X68870000Y72220000D02*
G75*
G02*
X69170000Y72220000I150000J0D01*
G01*
D14*
X71030000Y71590000D02*
G75*
G02*
X70970000Y71590000I-30000J0D01*
G01*
X70970000Y71590000D02*
G75*
G02*
X71030000Y71590000I30000J0D01*
G01*
%TO.C,D1*%
D10*
X108920000Y47370000D02*
X109090000Y47370000D01*
X108920000Y47260000D02*
X108920000Y47370000D01*
X108920000Y47260000D02*
X109090000Y47260000D01*
X108920000Y45740000D02*
X109090000Y45740000D01*
X108920000Y45630000D02*
X108920000Y45740000D01*
X109090000Y47370000D02*
X109090000Y47260000D01*
X109090000Y47370000D02*
X111910000Y47370000D01*
X109090000Y45740000D02*
X109090000Y45630000D01*
X109090000Y45630000D02*
X108920000Y45630000D01*
X109090000Y45630000D02*
X111910000Y45630000D01*
X109530000Y47370000D02*
X109530000Y45630000D01*
X109670000Y47370000D02*
X109670000Y45630000D01*
X111910000Y47370000D02*
X111910000Y47200000D01*
X111910000Y45630000D02*
X111910000Y45800000D01*
D14*
X108680000Y45600000D02*
G75*
G02*
X108620000Y45600000I-30000J0D01*
G01*
X108620000Y45600000D02*
G75*
G02*
X108680000Y45600000I30000J0D01*
G01*
%TO.C,D7*%
D10*
X44420000Y28870000D02*
X44590000Y28870000D01*
X44420000Y28760000D02*
X44420000Y28870000D01*
X44420000Y28760000D02*
X44590000Y28760000D01*
X44420000Y27240000D02*
X44590000Y27240000D01*
X44420000Y27130000D02*
X44420000Y27240000D01*
X44590000Y28870000D02*
X44590000Y28760000D01*
X44590000Y28870000D02*
X47410000Y28870000D01*
X44590000Y27240000D02*
X44590000Y27130000D01*
X44590000Y27130000D02*
X44420000Y27130000D01*
X44590000Y27130000D02*
X47410000Y27130000D01*
X45030000Y28870000D02*
X45030000Y27130000D01*
X45170000Y28870000D02*
X45170000Y27130000D01*
X47410000Y28870000D02*
X47410000Y28700000D01*
X47410000Y27130000D02*
X47410000Y27300000D01*
D14*
X44180000Y27100000D02*
G75*
G02*
X44120000Y27100000I-30000J0D01*
G01*
X44120000Y27100000D02*
G75*
G02*
X44180000Y27100000I30000J0D01*
G01*
%TO.C,F0*%
D15*
X90090000Y70370000D02*
X90090000Y63630000D01*
X90090000Y63630000D02*
X109910000Y63630000D01*
X109910000Y70370000D02*
X90140000Y70370000D01*
X109910000Y63630000D02*
X109910000Y70370000D01*
D14*
X90120000Y70360000D02*
G75*
G02*
X90080000Y70360000I-20000J0D01*
G01*
X90080000Y70360000D02*
G75*
G02*
X90120000Y70360000I20000J0D01*
G01*
%TO.C,D2*%
D10*
X66020000Y33530000D02*
X73980000Y33530000D01*
X66020000Y27470000D02*
X73980000Y27470000D01*
X67930000Y33530000D02*
X67930000Y27470000D01*
D15*
X69490000Y30500000D02*
X69490000Y29990000D01*
X69490000Y30500000D02*
X70510000Y29990000D01*
X69490000Y29990000D02*
X69490000Y31010000D01*
X70510000Y31010000D02*
X69490000Y30500000D01*
X70510000Y29990000D02*
X70510000Y31010000D01*
X71020000Y30500000D02*
X68980000Y30500000D01*
D10*
X73980000Y33530000D02*
X73980000Y32320000D01*
X73980000Y27470000D02*
X73980000Y28680000D01*
D14*
X66080000Y27550000D02*
G75*
G02*
X66020000Y27550000I-30000J0D01*
G01*
X66020000Y27550000D02*
G75*
G02*
X66080000Y27550000I30000J0D01*
G01*
D17*
G36*
X66100008Y32272412D02*
G01*
X65642808Y32272412D01*
X65642808Y33602407D01*
X66100008Y33602407D01*
X66100008Y32272412D01*
G37*
G36*
X66100008Y27397593D02*
G01*
X65642808Y27397593D01*
X65642808Y28727588D01*
X66100008Y28727588D01*
X66100008Y27397593D01*
G37*
%TO.C,U1*%
D10*
X34480000Y55030000D02*
X37520000Y55030000D01*
X34480000Y44970000D02*
X34480000Y55030000D01*
X37520000Y55030000D02*
X37520000Y44970000D01*
X37520000Y44970000D02*
X34480000Y44970000D01*
D14*
X33030000Y54950000D02*
G75*
G02*
X32970000Y54950000I-30000J0D01*
G01*
X32970000Y54950000D02*
G75*
G02*
X33030000Y54950000I30000J0D01*
G01*
D16*
X33480000Y55210000D02*
G75*
G02*
X33180000Y55210000I-150000J0D01*
G01*
X33180000Y55210000D02*
G75*
G02*
X33480000Y55210000I150000J0D01*
G01*
X35390000Y54450000D02*
G75*
G02*
X35070000Y54450000I-160000J0D01*
G01*
X35070000Y54450000D02*
G75*
G02*
X35390000Y54450000I160000J0D01*
G01*
%TD*%
%LPC*%
D18*
%TO.C,RF3*%
X54175000Y75500000D03*
X55825000Y75500000D03*
%TD*%
D19*
%TO.C,Z2*%
X25000000Y88500000D03*
%TD*%
D18*
%TO.C,R28*%
X100175000Y50500000D03*
X101825000Y50500000D03*
%TD*%
D20*
%TO.C,LF6*%
X116050000Y78500000D03*
X113950000Y78500000D03*
%TD*%
D18*
%TO.C,RF4*%
X74175000Y75500000D03*
X75825000Y75500000D03*
%TD*%
D20*
%TO.C,LED5*%
X55050000Y69000000D03*
X52950000Y69000000D03*
%TD*%
D18*
%TO.C,R40*%
X110175000Y72000000D03*
X111825000Y72000000D03*
%TD*%
D20*
%TO.C,LF12*%
X53950000Y21500000D03*
X56050000Y21500000D03*
%TD*%
D18*
%TO.C,RB8*%
X35175000Y62000000D03*
X36825000Y62000000D03*
%TD*%
D21*
%TO.C,J15*%
X101190000Y76000000D03*
D22*
X103730000Y76000000D03*
X106270000Y76000000D03*
X108810000Y76000000D03*
%TD*%
D20*
%TO.C,LF5*%
X96050000Y78500000D03*
X93950000Y78500000D03*
%TD*%
%TO.C,LF9*%
X113950000Y21500000D03*
X116050000Y21500000D03*
%TD*%
D18*
%TO.C,RF6*%
X114175000Y75500000D03*
X115825000Y75500000D03*
%TD*%
D19*
%TO.C,Z9*%
X25000000Y11500000D03*
%TD*%
D23*
%TO.C,H3*%
X4000000Y4000000D03*
%TD*%
D22*
%TO.C,F11*%
X29900000Y17000000D03*
X40100000Y15000000D03*
%TD*%
D19*
%TO.C,Z10*%
X45000000Y11500000D03*
%TD*%
D20*
%TO.C,LF8*%
X93950000Y21500000D03*
X96050000Y21500000D03*
%TD*%
D24*
%TO.C,J2*%
X20000000Y95500000D03*
X15000000Y95500000D03*
X10000000Y95500000D03*
%TD*%
D25*
%TO.C,Q1*%
X70270000Y47290000D03*
D26*
X68000000Y40710000D03*
D25*
X65730000Y47290000D03*
%TD*%
D18*
%TO.C,RS2*%
X51175000Y48100000D03*
X52825000Y48100000D03*
%TD*%
D27*
%TO.C,RL4*%
X48825000Y69000000D03*
X47175000Y69000000D03*
%TD*%
%TO.C,RL1*%
X15825000Y69000000D03*
X14175000Y69000000D03*
%TD*%
D28*
%TO.C,U3*%
X107140000Y32300000D03*
X107140000Y30000000D03*
X107140000Y27700000D03*
D29*
X112860000Y30000000D03*
%TD*%
D30*
%TO.C,RT5*%
X81087500Y70000000D03*
X82912500Y70000000D03*
%TD*%
D31*
%TO.C,U5*%
X9710000Y74100000D03*
X9710000Y75370000D03*
X9710000Y76630000D03*
X9710000Y77900000D03*
X4290000Y77900000D03*
X4290000Y76630000D03*
X4290000Y75370000D03*
X4290000Y74100000D03*
%TD*%
D32*
%TO.C,C2*%
X98525000Y28000000D03*
X101475000Y28000000D03*
%TD*%
D33*
%TO.C,C9*%
X60962500Y58000000D03*
X63037500Y58000000D03*
%TD*%
D34*
%TO.C,TP7*%
X45000000Y55000000D03*
%TD*%
D33*
%TO.C,C4*%
X116962500Y28000000D03*
X119037500Y28000000D03*
%TD*%
D18*
%TO.C,R35*%
X57175000Y66000000D03*
X58825000Y66000000D03*
%TD*%
D27*
%TO.C,RF8*%
X95825000Y24500000D03*
X94175000Y24500000D03*
%TD*%
D22*
%TO.C,F5*%
X100100000Y83000000D03*
X89900000Y85000000D03*
%TD*%
D18*
%TO.C,R30*%
X75175000Y64000000D03*
X76825000Y64000000D03*
%TD*%
D34*
%TO.C,TP2*%
X56000000Y28000000D03*
%TD*%
D20*
%TO.C,LED4*%
X44050000Y69000000D03*
X41950000Y69000000D03*
%TD*%
D19*
%TO.C,Z3*%
X45000000Y88500000D03*
%TD*%
D22*
%TO.C,F6*%
X120100000Y83000000D03*
X109900000Y85000000D03*
%TD*%
D33*
%TO.C,C5*%
X122962500Y30000000D03*
X125037500Y30000000D03*
%TD*%
D20*
%TO.C,LF11*%
X33950000Y21500000D03*
X36050000Y21500000D03*
%TD*%
D19*
%TO.C,Z4*%
X65000000Y88500000D03*
%TD*%
D35*
%TO.C,F13*%
X43400000Y23000000D03*
X46600000Y23000000D03*
%TD*%
D34*
%TO.C,TP6*%
X56000000Y58000000D03*
%TD*%
D20*
%TO.C,LED7*%
X102050000Y54500000D03*
X99950000Y54500000D03*
%TD*%
D19*
%TO.C,Z6*%
X105000000Y88500000D03*
%TD*%
%TO.C,Z8*%
X5000000Y11500000D03*
%TD*%
D20*
%TO.C,LF1*%
X16050000Y78500000D03*
X13950000Y78500000D03*
%TD*%
D19*
%TO.C,Z11*%
X65000000Y11500000D03*
%TD*%
D20*
%TO.C,LED6*%
X59050000Y62000000D03*
X56950000Y62000000D03*
%TD*%
D36*
%TO.C,Q5*%
X24000000Y22050000D03*
X24000000Y23950000D03*
X22000000Y23000000D03*
%TD*%
D24*
%TO.C,J8*%
X70000000Y4500000D03*
X75000000Y4500000D03*
X80000000Y4500000D03*
%TD*%
D18*
%TO.C,RF2*%
X34175000Y75500000D03*
X35825000Y75500000D03*
%TD*%
D37*
%TO.C,J1*%
X122400000Y42250000D03*
X122400000Y51750000D03*
%TD*%
D34*
%TO.C,TP1*%
X52000000Y28000000D03*
%TD*%
D18*
%TO.C,RB2*%
X38175000Y41500000D03*
X39825000Y41500000D03*
%TD*%
D22*
%TO.C,F7*%
X69900000Y17000000D03*
X80100000Y15000000D03*
%TD*%
%TO.C,F1*%
X20100000Y83000000D03*
X9900000Y85000000D03*
%TD*%
D27*
%TO.C,RL3*%
X37825000Y69000000D03*
X36175000Y69000000D03*
%TD*%
D18*
%TO.C,RB7*%
X30175000Y62000000D03*
X31825000Y62000000D03*
%TD*%
D33*
%TO.C,C7*%
X58962500Y74000000D03*
X61037500Y74000000D03*
%TD*%
D38*
%TO.C,U6*%
X70600000Y60100000D03*
X70600000Y61370000D03*
X70600000Y62630000D03*
X70600000Y63900000D03*
X65400000Y63900000D03*
X65400000Y62630000D03*
X65400000Y61370000D03*
X65400000Y60100000D03*
%TD*%
D19*
%TO.C,Z13*%
X105000000Y11500000D03*
%TD*%
D20*
%TO.C,LED3*%
X33050000Y69000000D03*
X30950000Y69000000D03*
%TD*%
D25*
%TO.C,Q3*%
X86270000Y47290000D03*
D26*
X84000000Y40710000D03*
D25*
X81730000Y47290000D03*
%TD*%
D39*
%TO.C,RT3*%
X26537500Y30000000D03*
X29462500Y30000000D03*
%TD*%
D18*
%TO.C,RB3*%
X53175000Y45000000D03*
X54825000Y45000000D03*
%TD*%
D25*
%TO.C,Q2*%
X78270000Y47290000D03*
D26*
X76000000Y40710000D03*
D25*
X73730000Y47290000D03*
%TD*%
D40*
%TO.C,D8*%
X26800000Y23000000D03*
X31200000Y23000000D03*
%TD*%
D20*
%TO.C,LF2*%
X36050000Y78500000D03*
X33950000Y78500000D03*
%TD*%
D19*
%TO.C,Z1*%
X5000000Y88500000D03*
%TD*%
D22*
%TO.C,F2*%
X40100000Y83000000D03*
X29900000Y85000000D03*
%TD*%
D18*
%TO.C,R27*%
X92175000Y30500000D03*
X93825000Y30500000D03*
%TD*%
%TO.C,R39*%
X98175000Y72000000D03*
X99825000Y72000000D03*
%TD*%
D31*
%TO.C,U4*%
X70710000Y72100000D03*
X70710000Y73370000D03*
X70710000Y74630000D03*
X70710000Y75900000D03*
X65290000Y75900000D03*
X65290000Y74630000D03*
X65290000Y73370000D03*
X65290000Y72100000D03*
%TD*%
D18*
%TO.C,R29*%
X75175000Y70000000D03*
X76825000Y70000000D03*
%TD*%
D20*
%TO.C,LED2*%
X22050000Y69000000D03*
X19950000Y69000000D03*
%TD*%
D27*
%TO.C,RF11*%
X35825000Y24500000D03*
X34175000Y24500000D03*
%TD*%
D24*
%TO.C,J10*%
X110000000Y4500000D03*
X115000000Y4500000D03*
X120000000Y4500000D03*
%TD*%
D23*
%TO.C,H1*%
X4000000Y96000000D03*
%TD*%
D41*
%TO.C,D3*%
X21100000Y40550000D03*
X21100000Y42450000D03*
X18900000Y41500000D03*
%TD*%
D42*
%TO.C,D1*%
X108810000Y46500000D03*
X112190000Y46500000D03*
%TD*%
%TO.C,D7*%
X44310000Y28000000D03*
X47690000Y28000000D03*
%TD*%
D18*
%TO.C,RB6*%
X39175000Y30000000D03*
X40825000Y30000000D03*
%TD*%
D19*
%TO.C,Z14*%
X125000000Y11500000D03*
%TD*%
D18*
%TO.C,R32*%
X87175000Y64000000D03*
X88825000Y64000000D03*
%TD*%
D27*
%TO.C,RL2*%
X26825000Y69000000D03*
X25175000Y69000000D03*
%TD*%
%TO.C,RF9*%
X115825000Y24500000D03*
X114175000Y24500000D03*
%TD*%
D23*
%TO.C,H2*%
X126000000Y96000000D03*
%TD*%
D25*
%TO.C,Q4*%
X94270000Y47290000D03*
D26*
X92000000Y40710000D03*
D25*
X89730000Y47290000D03*
%TD*%
D22*
%TO.C,F3*%
X60100000Y83000000D03*
X49900000Y85000000D03*
%TD*%
D43*
%TO.C,F0*%
X93260000Y68700000D03*
X93260000Y65300000D03*
X106740000Y68700000D03*
X106740000Y65300000D03*
%TD*%
D27*
%TO.C,RF12*%
X55825000Y24500000D03*
X54175000Y24500000D03*
%TD*%
D22*
%TO.C,F12*%
X49900000Y17000000D03*
X60100000Y15000000D03*
%TD*%
D19*
%TO.C,Z5*%
X85000000Y88500000D03*
%TD*%
D39*
%TO.C,RT2*%
X50537500Y42000000D03*
X53462500Y42000000D03*
%TD*%
D20*
%TO.C,LED1*%
X11050000Y69000000D03*
X8950000Y69000000D03*
%TD*%
D22*
%TO.C,F10*%
X9900000Y17000000D03*
X20100000Y15000000D03*
%TD*%
D23*
%TO.C,H4*%
X126000000Y4000000D03*
%TD*%
D41*
%TO.C,D4*%
X45100000Y41050000D03*
X45100000Y42950000D03*
X42900000Y42000000D03*
%TD*%
D27*
%TO.C,RF7*%
X75825000Y24500000D03*
X74175000Y24500000D03*
%TD*%
D24*
%TO.C,J11*%
X10000000Y4500000D03*
X15000000Y4500000D03*
X20000000Y4500000D03*
%TD*%
D18*
%TO.C,R1*%
X98175000Y46500000D03*
X99825000Y46500000D03*
%TD*%
D41*
%TO.C,D6*%
X17100000Y61050000D03*
X17100000Y62950000D03*
X14900000Y62000000D03*
%TD*%
D24*
%TO.C,J7*%
X120000000Y95500000D03*
X115000000Y95500000D03*
X110000000Y95500000D03*
%TD*%
D44*
%TO.C,J14*%
X4929999Y56350000D03*
X4929999Y43650000D03*
D45*
X7469999Y46430000D03*
X9249999Y47450000D03*
X7469999Y48470000D03*
X9249999Y49490000D03*
X7469999Y50510000D03*
X9249999Y51530000D03*
X7469999Y52550000D03*
X9249999Y53570000D03*
%TD*%
D27*
%TO.C,RF10*%
X15825000Y24500000D03*
X14175000Y24500000D03*
%TD*%
D41*
%TO.C,D5*%
X21100000Y29050000D03*
X21100000Y30950000D03*
X18900000Y30000000D03*
%TD*%
D34*
%TO.C,TP4*%
X45000000Y58000000D03*
%TD*%
D20*
%TO.C,LF7*%
X73950000Y21500000D03*
X76050000Y21500000D03*
%TD*%
D24*
%TO.C,J4*%
X60000000Y95500000D03*
X55000000Y95500000D03*
X50000000Y95500000D03*
%TD*%
D18*
%TO.C,R31*%
X81175000Y64000000D03*
X82825000Y64000000D03*
%TD*%
D19*
%TO.C,Z12*%
X85000000Y11500000D03*
%TD*%
D20*
%TO.C,LF10*%
X13950000Y21500000D03*
X16050000Y21500000D03*
%TD*%
D22*
%TO.C,F8*%
X89900000Y17000000D03*
X100100000Y15000000D03*
%TD*%
D18*
%TO.C,R3*%
X99175000Y31500000D03*
X100825000Y31500000D03*
%TD*%
D46*
%TO.C,D2*%
X66310000Y30500000D03*
X73690000Y30500000D03*
%TD*%
D24*
%TO.C,J13*%
X50000000Y4500000D03*
X55000000Y4500000D03*
X60000000Y4500000D03*
%TD*%
D27*
%TO.C,RS4*%
X28825000Y51900000D03*
X27175000Y51900000D03*
%TD*%
D20*
%TO.C,LF4*%
X76050000Y78500000D03*
X73950000Y78500000D03*
%TD*%
D18*
%TO.C,R34*%
X53175000Y66000000D03*
X54825000Y66000000D03*
%TD*%
D24*
%TO.C,J5*%
X80000000Y95500000D03*
X75000000Y95500000D03*
X70000000Y95500000D03*
%TD*%
D18*
%TO.C,R37*%
X81175000Y58000000D03*
X82825000Y58000000D03*
%TD*%
D47*
%TO.C,U1*%
X33260000Y54450000D03*
X33260000Y53170000D03*
X33260000Y51900000D03*
X33260000Y50630000D03*
X33260000Y49370000D03*
X33260000Y48100000D03*
X33260000Y46830000D03*
X33260000Y45550000D03*
X38740000Y45550000D03*
X38740000Y46830000D03*
X38740000Y48100000D03*
X38740000Y49370000D03*
X38740000Y50630000D03*
X38740000Y51900000D03*
X38740000Y53170000D03*
X38740000Y54450000D03*
%TD*%
D33*
%TO.C,C3*%
X116962500Y32500000D03*
X119037500Y32500000D03*
%TD*%
D39*
%TO.C,RT4*%
X22537500Y62000000D03*
X25462500Y62000000D03*
%TD*%
D34*
%TO.C,TP8*%
X88000000Y70000000D03*
%TD*%
D18*
%TO.C,R36*%
X51175000Y62000000D03*
X52825000Y62000000D03*
%TD*%
D34*
%TO.C,TP3*%
X60000000Y28000000D03*
%TD*%
D20*
%TO.C,LF3*%
X56050000Y78500000D03*
X53950000Y78500000D03*
%TD*%
D18*
%TO.C,RS3*%
X51175000Y50630000D03*
X52825000Y50630000D03*
%TD*%
%TO.C,RF5*%
X94175000Y75500000D03*
X95825000Y75500000D03*
%TD*%
D27*
%TO.C,RS1*%
X28825000Y49370000D03*
X27175000Y49370000D03*
%TD*%
D18*
%TO.C,R33*%
X75175000Y58000000D03*
X76825000Y58000000D03*
%TD*%
%TO.C,RF1*%
X14175000Y75500000D03*
X15825000Y75500000D03*
%TD*%
D33*
%TO.C,C6*%
X40462500Y54450000D03*
X42537500Y54450000D03*
%TD*%
D48*
%TO.C,C1*%
X82730000Y30500000D03*
X89270000Y30500000D03*
%TD*%
D18*
%TO.C,RB1*%
X33175000Y41500000D03*
X34825000Y41500000D03*
%TD*%
D34*
%TO.C,TP5*%
X52000000Y58000000D03*
%TD*%
D33*
%TO.C,C8*%
X2962500Y71000000D03*
X5037500Y71000000D03*
%TD*%
D22*
%TO.C,F9*%
X109900000Y17000000D03*
X120100000Y15000000D03*
%TD*%
D18*
%TO.C,R2*%
X104175000Y46500000D03*
X105825000Y46500000D03*
%TD*%
D24*
%TO.C,J16*%
X7000000Y33000000D03*
X7000000Y28000000D03*
X7000000Y23000000D03*
%TD*%
%TO.C,J3*%
X40000000Y95500000D03*
X35000000Y95500000D03*
X30000000Y95500000D03*
%TD*%
D19*
%TO.C,Z7*%
X125000000Y88500000D03*
%TD*%
D27*
%TO.C,RL5*%
X59825000Y69000000D03*
X58175000Y69000000D03*
%TD*%
D24*
%TO.C,J9*%
X90000000Y4500000D03*
X95000000Y4500000D03*
X100000000Y4500000D03*
%TD*%
D18*
%TO.C,RB5*%
X34175000Y30000000D03*
X35825000Y30000000D03*
%TD*%
%TO.C,RB4*%
X57175000Y45000000D03*
X58825000Y45000000D03*
%TD*%
D24*
%TO.C,J12*%
X30000000Y4500000D03*
X35000000Y4500000D03*
X40000000Y4500000D03*
%TD*%
%TO.C,J6*%
X100000000Y95500000D03*
X95000000Y95500000D03*
X90000000Y95500000D03*
%TD*%
D22*
%TO.C,F4*%
X80100000Y83000000D03*
X69900000Y85000000D03*
%TD*%
D39*
%TO.C,RT1*%
X25537500Y41500000D03*
X28462500Y41500000D03*
%TD*%
%LPD*%
M02*
