#VRML V2.0 utf8
# 3D model generated by easyeda2kicad.py (https://github.com/uPesy/easyeda2kicad.py)

Shape{
    appearance Appearance {
        material  Material 	{
            diffuseColor 0.5019607843137255 0.5019607843137255 0.5019607843137255
            specularColor 0.25098039215686274 0.25098039215686274 0.25098039215686274
            ambientIntensity 0.502
            transparency 0.0
            shininess 0.5
        }
    }
    geometry IndexedFaceSet {
        ccw TRUE
        solid FALSE
        coord DEF co Coordinate {
            point [
                -0.2357 -0.0742 -0.2362, -0.2362 -0.0905 -0.2362, -0.2362 -0.0905 -0.0394, -0.2357 -0.1069 -0.0394, -0.2357 -0.1069 -0.2362, -0.2319 -0.1393 -0.2362, -0.2319 -0.1393 -0.0394, -0.2242 -0.171 -0.2362, -0.2242 -0.171 -0.0394, -0.2128 -0.2016 -0.2362, -0.2128 -0.2016 -0.0394, -0.1979 -0.2307 -0.2362, -0.1979 -0.2307 -0.0394, -0.1797 -0.2578 -0.2362, -0.1797 -0.2578 -0.0394, -0.1584 -0.2825 -0.2362, -0.1584 -0.2825 -0.0394, -0.1343 -0.3045 -0.2362, -0.1343 -0.3045 -0.0394, -0.1077 -0.3236 -0.2362, -0.1077 -0.3236 -0.0394, -0.0792 -0.3394 -0.2362, -0.0792 -0.3394 -0.0394, -0.0489 -0.3516 -0.2362, -0.0489 -0.3516 -0.0394, -0.0174 -0.3602 -0.2362, -0.0174 -0.3602 -0.0394, 0.0149 -0.365 -0.2362, 0.0149 -0.365 -0.0394, 0.0475 -0.366 -0.2362, 0.0475 -0.366 -0.0394, 0.0801 -0.3631 -0.2362, 0.0801 -0.3631 -0.0394, 0.112 -0.3564 -0.2362, 0.112 -0.3564 -0.0394, 0.1429 -0.3459 -0.2362, 0.1429 -0.3459 -0.0394, 0.1724 -0.3319 -0.2362, 0.1724 -0.3319 -0.0394, 0.2 -0.3145 -0.2362, 0.2 -0.3145 -0.0394, 0.2254 -0.2939 -0.2362, 0.2254 -0.2939 -0.0394, 0.2481 -0.2705 -0.2362, 0.2481 -0.2705 -0.0394, 0.2679 -0.2445 -0.2362, 0.2679 -0.2445 -0.0394, 0.2846 -0.2164 -0.2362, 0.2846 -0.2164 -0.0394, 0.2977 -0.1865 -0.2362, 0.2977 -0.1865 -0.0394, 0.3073 -0.1553 -0.2362, 0.3073 -0.1553 -0.0394, 0.313 -0.1231 -0.2362, 0.313 -0.1231 -0.0394, 0.315 -0.0905 -0.2362, 0.315 -0.0905 -0.0394, 0.313 -0.058 -0.2362, 0.313 -0.058 -0.0394, 0.3073 -0.0258 -0.2362, 0.3073 -0.0258 -0.0394, 0.2977 0.0054 -0.2362, 0.2977 0.0054 -0.0394, 0.2846 0.0353 -0.2362, 0.2846 0.0353 -0.0394, 0.2679 0.0634 -0.2362, 0.2679 0.0634 -0.0394, 0.2481 0.0894 -0.2362, 0.2481 0.0894 -0.0394, 0.2254 0.1128 -0.2362, 0.2254 0.1128 -0.0394, 0.2 0.1334 -0.2362, 0.2 0.1334 -0.0394, 0.1724 0.1508 -0.2362, 0.1724 0.1508 -0.0394, 0.1429 0.1648 -0.2362, 0.1429 0.1648 -0.0394, 0.112 0.1753 -0.2362, 0.112 0.1753 -0.0394, 0.0801 0.182 -0.2362, 0.0801 0.182 -0.0394, 0.0475 0.1849 -0.2362, 0.0475 0.1849 -0.0394, 0.0149 0.184 -0.2362, 0.0149 0.184 -0.0394, -0.0174 0.1791 -0.2362, -0.0174 0.1791 -0.0394, -0.0489 0.1705 -0.2362, -0.0489 0.1705 -0.0394, -0.0792 0.1583 -0.2362, -0.0792 0.1583 -0.0394, -0.1077 0.1425 -0.2362, -0.1077 0.1425 -0.0394, -0.1343 0.1235 -0.2362, -0.1343 0.1235 -0.0394, -0.1584 0.1014 -0.2362, -0.1584 0.1014 -0.0394, -0.1797 0.0767 -0.2362, -0.1797 0.0767 -0.0394, -0.1979 0.0496 -0.2362, -0.1979 0.0496 -0.0394, -0.2128 0.0205 -0.2362, -0.2128 0.0205 -0.0394, -0.2242 -0.0101 -0.2362, -0.2242 -0.0101 -0.0394, -0.2319 -0.0418 -0.2362, -0.2319 -0.0418 -0.0394, -0.2357 -0.0742 -0.0394, 0.0394 -0.0905 -0.2362, 0.0394 -0.0905 -0.0394
            ]
        }
        coordIndex [
            0,1,2,-1,2,1,3,-1,1,4,3,-1,3,4,5,-1,3,5,6,-1,6,5,7,-1,6,7,8,-1,8,7,9,-1,8,9,10,-1,10,9,11,-1,10,11,12,-1,12,11,13,-1,12,13,14,-1,14,13,15,-1,14,15,16,-1,16,15,17,-1,16,17,18,-1,18,17,19,-1,18,19,20,-1,20,19,21,-1,20,21,22,-1,22,21,23,-1,22,23,24,-1,24,23,25,-1,24,25,26,-1,26,25,27,-1,26,27,28,-1,28,27,29,-1,28,29,30,-1,30,29,31,-1,30,31,32,-1,32,31,33,-1,32,33,34,-1,34,33,35,-1,34,35,36,-1,36,35,37,-1,36,37,38,-1,38,37,39,-1,38,39,40,-1,40,39,41,-1,40,41,42,-1,42,41,43,-1,42,43,44,-1,44,43,45,-1,44,45,46,-1,46,45,47,-1,46,47,48,-1,48,47,49,-1,48,49,50,-1,50,49,51,-1,50,51,52,-1,52,51,53,-1,52,53,54,-1,54,53,55,-1,54,55,56,-1,56,55,57,-1,56,57,58,-1,58,57,59,-1,58,59,60,-1,60,59,61,-1,60,61,62,-1,62,61,63,-1,62,63,64,-1,64,63,65,-1,64,65,66,-1,66,65,67,-1,66,67,68,-1,68,67,69,-1,68,69,70,-1,70,69,71,-1,70,71,72,-1,72,71,73,-1,72,73,74,-1,74,73,75,-1,74,75,76,-1,76,75,77,-1,76,77,78,-1,78,77,79,-1,78,79,80,-1,80,79,81,-1,80,81,82,-1,82,81,83,-1,82,83,84,-1,84,83,85,-1,84,85,86,-1,86,85,87,-1,86,87,88,-1,88,87,89,-1,88,89,90,-1,90,89,91,-1,90,91,92,-1,92,91,93,-1,92,93,94,-1,94,93,95,-1,94,95,96,-1,96,95,97,-1,96,97,98,-1,98,97,99,-1,98,99,100,-1,100,99,101,-1,100,101,102,-1,102,101,103,-1,102,103,104,-1,104,103,105,-1,104,105,106,-1,106,105,0,-1,106,0,107,-1,107,0,2,-1,5,4,108,-1,108,4,1,-1,108,1,0,-1,11,9,108,-1,108,9,7,-1,108,7,5,-1,17,15,108,-1,108,15,13,-1,108,13,11,-1,23,21,108,-1,108,21,19,-1,108,19,17,-1,29,27,108,-1,108,27,25,-1,108,25,23,-1,35,33,108,-1,108,33,31,-1,108,31,29,-1,41,39,108,-1,108,39,37,-1,108,37,35,-1,47,45,108,-1,108,45,43,-1,108,43,41,-1,53,51,108,-1,108,51,49,-1,108,49,47,-1,59,57,108,-1,108,57,55,-1,108,55,53,-1,65,63,108,-1,108,63,61,-1,108,61,59,-1,71,69,108,-1,108,69,67,-1,108,67,65,-1,77,75,108,-1,108,75,73,-1,108,73,71,-1,83,81,108,-1,108,81,79,-1,108,79,77,-1,89,87,108,-1,108,87,85,-1,108,85,83,-1,95,93,108,-1,108,93,91,-1,108,91,89,-1,101,99,108,-1,108,99,97,-1,108,97,95,-1,0,105,108,-1,108,105,103,-1,108,103,101,-1,106,107,109,-1,109,107,2,-1,109,2,3,-1,100,102,109,-1,109,102,104,-1,109,104,106,-1,94,96,109,-1,109,96,98,-1,109,98,100,-1,88,90,109,-1,109,90,92,-1,109,92,94,-1,82,84,109,-1,109,84,86,-1,109,86,88,-1,76,78,109,-1,109,78,80,-1,109,80,82,-1,70,72,109,-1,109,72,74,-1,109,74,76,-1,64,66,109,-1,109,66,68,-1,109,68,70,-1,58,60,109,-1,109,60,62,-1,109,62,64,-1,52,54,109,-1,109,54,56,-1,109,56,58,-1,46,48,109,-1,109,48,50,-1,109,50,52,-1,40,42,109,-1,109,42,44,-1,109,44,46,-1,34,36,109,-1,109,36,38,-1,109,38,40,-1,28,30,109,-1,109,30,32,-1,109,32,34,-1,22,24,109,-1,109,24,26,-1,109,26,28,-1,16,18,109,-1,109,18,20,-1,109,20,22,-1,10,12,109,-1,109,12,14,-1,109,14,16,-1,3,6,109,-1,109,6,8,-1,109,8,10,-1,
        ]
    }
}
Shape{
    appearance Appearance {
        material  Material 	{
            diffuseColor 1.0 1.0 1.0
            specularColor 0.5019607843137255 0.5019607843137255 0.5019607843137255
            ambientIntensity 1.0
            transparency 0.0
            shininess 0.5
        }
    }
    geometry IndexedFaceSet {
        ccw TRUE
        solid FALSE
        coord DEF co Coordinate {
            point [
                -1.0433 3.0118 1.5638, -1.1614 3.0118 1.5638, -1.1614 3.4055 1.5638, -0.8898 3.248 1.5638, -0.8898 2.9331 1.5638, -1.0433 2.5 1.5638, -0.7717 2.9331 1.5638, -0.6102 3.0118 1.5638, -0.1037 3.0118 1.5638, -0.9852 2.5 1.5638, -0.1037 2.0669 1.5638, -0.9852 2.0669 1.5638, -0.7717 3.248 1.5638, -0.6102 3.4055 1.5638, 1.122 1.0039 1.5354, 1.0039 1.0039 1.5354, 1.122 2.0669 1.5354, 1.0039 2.0669 1.5354, 1.0039 2.0669 1.9291, 1.0039 1.0039 1.9291, 1.122 2.0669 1.9291, 1.122 1.0039 1.9291, 1.122 2.9255 1.5354, 1.122 2.9255 1.2252, 1.122 2.6181 1.2252, 1.122 2.6181 -0.1181, 1.122 2.0669 -0.1181, 1.122 2.2712 -0.3843, 1.122 2.3425 -0.3937, 1.122 3.2874 1.9291, 1.122 3.0118 1.9291, 1.122 3.2874 1.5354, 1.122 3.0118 1.811, 1.122 2.0669 1.811, 1.122 2.1039 -0.2559, 1.122 2.1477 -0.313, 1.122 2.2047 -0.3568, 1.122 2.0763 -0.1894, 1.122 2.4139 -0.3843, 1.122 2.4803 -0.3568, 1.122 2.5374 -0.313, 1.122 2.5812 -0.2559, 1.122 2.6087 -0.1894, 1.0039 3.2874 1.9291, 1.0039 3.2874 1.5354, 1.0039 3.0118 1.9291, 1.0039 3.0118 1.811, 1.0039 3.0118 1.6929, 1.0039 2.9255 1.5354, 1.0039 2.0669 1.6929, 1.0039 2.0669 1.811, 1.0039 2.9255 1.2252, 1.0039 2.6181 1.2252, 1.0039 2.0669 -0.1181, 1.0039 2.6181 -0.1181, 1.0039 2.0763 -0.1894, 1.0039 2.2047 -0.3568, 1.0039 2.2712 -0.3843, 1.0039 2.3425 -0.3937, 1.0039 2.5812 -0.2559, 1.0039 2.5374 -0.313, 1.0039 2.6087 -0.1894, 1.0039 2.4803 -0.3568, 1.0039 2.4139 -0.3843, 1.0039 2.1477 -0.313, 1.0039 2.1039 -0.2559, 0.6647 3.0118 1.811, 0.6647 2.0669 1.811, -0.1037 2.0669 1.6819, -0.1037 3.0118 1.6819, -0.6102 3.0118 1.6819, -1.1614 3.4055 1.6819, -1.1614 3.0118 1.6819, -0.6102 3.4055 1.6819, -1.0433 3.0118 1.6819, -0.9852 2.0669 1.6819, -0.9852 2.5 1.6819, -1.0433 2.5 1.6819, -0.0492 3.0118 1.5686, -0.0492 2.0669 1.5686, 0.6511 2.0669 1.6917, 0.6511 3.0118 1.6917, 0.6647 2.0669 1.6929, 0.6647 3.0118 1.6929, 0.6306 3.0118 1.808, 0.6306 2.0669 1.808, -0.0697 3.0118 1.6849, -0.0697 2.0669 1.6849, -0.8898 2.9331 -0.2362, -0.8898 3.248 -0.2362, -0.8898 2.9384 -0.277, -0.8898 2.9542 -0.315, -0.8898 3.2427 -0.277, -0.8898 3.2269 -0.315, -0.8898 2.9792 -0.3476, -0.8898 3.0118 -0.3726, -0.8898 3.1693 -0.3726, -0.8898 3.1313 -0.3883, -0.8898 3.2019 -0.3476, -0.8898 3.0906 -0.3937, -0.8898 3.0498 -0.3883, -0.7717 3.248 -0.2362, -0.7717 2.9331 -0.2362, -0.7717 2.9384 -0.277, -0.7717 2.9542 -0.315, -0.7717 3.2427 -0.277, -0.7717 3.0118 -0.3726, -0.7717 3.0498 -0.3883, -0.7717 3.2269 -0.315, -0.7717 2.9792 -0.3476, -0.7717 3.0906 -0.3937, -0.7717 3.1313 -0.3883, -0.7717 3.2019 -0.3476, -0.7717 3.1693 -0.3726
            ]
        }
        coordIndex [
            0,1,2,-1,3,4,5,-1,5,4,6,-1,7,8,9,-1,9,8,10,-1,9,10,11,-1,5,0,3,-1,3,0,2,-1,3,2,12,-1,12,2,13,-1,12,13,6,-1,6,13,7,-1,6,7,5,-1,5,7,9,-1,14,15,16,-1,16,15,17,-1,18,19,20,-1,20,19,21,-1,22,21,16,-1,16,21,14,-1,23,22,24,-1,24,22,16,-1,24,16,25,-1,25,16,26,-1,27,28,26,-1,29,30,31,-1,31,30,32,-1,31,32,22,-1,22,32,33,-1,22,33,21,-1,21,33,20,-1,34,35,36,-1,27,26,36,-1,36,26,37,-1,36,37,34,-1,28,38,26,-1,26,38,39,-1,26,39,40,-1,40,41,26,-1,26,41,42,-1,26,42,25,-1,43,29,44,-1,44,29,31,-1,45,43,46,-1,46,43,44,-1,46,44,47,-1,44,48,47,-1,47,48,17,-1,47,17,49,-1,49,17,15,-1,49,15,50,-1,50,15,19,-1,50,19,18,-1,48,51,17,-1,17,51,52,-1,17,52,53,-1,53,52,54,-1,53,54,55,-1,56,54,57,-1,57,54,58,-1,59,60,61,-1,61,60,62,-1,61,62,54,-1,54,62,63,-1,54,63,58,-1,56,64,54,-1,54,64,65,-1,54,65,55,-1,21,19,14,-1,14,19,15,-1,30,29,45,-1,45,29,43,-1,44,31,48,-1,48,31,22,-1,20,33,18,-1,18,33,50,-1,66,67,46,-1,46,67,50,-1,46,50,32,-1,32,50,33,-1,32,30,46,-1,46,30,45,-1,68,69,70,-1,71,72,73,-1,73,72,74,-1,73,74,70,-1,75,68,76,-1,76,68,70,-1,76,70,77,-1,77,70,74,-1,11,75,9,-1,9,75,76,-1,8,78,10,-1,10,78,79,-1,79,78,80,-1,80,78,81,-1,80,81,82,-1,82,81,83,-1,82,83,49,-1,49,83,47,-1,66,84,67,-1,67,84,85,-1,84,86,85,-1,85,86,87,-1,87,86,68,-1,68,86,69,-1,46,47,66,-1,66,47,83,-1,66,83,84,-1,84,83,81,-1,84,81,86,-1,86,81,78,-1,86,78,69,-1,69,78,8,-1,69,8,70,-1,70,8,7,-1,49,50,82,-1,82,50,67,-1,82,67,80,-1,80,67,85,-1,80,85,79,-1,79,85,87,-1,79,87,10,-1,10,87,68,-1,10,68,11,-1,11,68,75,-1,5,9,77,-1,77,9,76,-1,0,5,74,-1,74,5,77,-1,1,0,72,-1,72,0,74,-1,2,1,71,-1,71,1,72,-1,13,2,73,-1,73,2,71,-1,7,13,70,-1,70,13,73,-1,24,25,52,-1,52,25,54,-1,26,16,53,-1,53,16,17,-1,4,3,88,-1,88,3,89,-1,88,89,90,-1,90,89,91,-1,89,92,91,-1,91,92,93,-1,91,93,94,-1,94,93,95,-1,96,97,98,-1,98,97,99,-1,98,99,93,-1,93,99,100,-1,93,100,95,-1,89,3,101,-1,101,3,12,-1,12,6,101,-1,101,6,102,-1,102,103,101,-1,101,103,104,-1,101,104,105,-1,106,107,108,-1,105,104,108,-1,108,104,109,-1,108,109,106,-1,107,110,108,-1,108,110,111,-1,108,111,112,-1,112,111,113,-1,102,6,88,-1,88,6,4,-1,28,58,63,-1,28,63,38,-1,38,63,62,-1,38,62,39,-1,39,62,60,-1,39,60,40,-1,40,60,59,-1,40,59,41,-1,41,59,61,-1,41,61,42,-1,42,61,54,-1,42,54,25,-1,58,28,27,-1,58,27,57,-1,57,27,36,-1,57,36,56,-1,56,36,35,-1,56,35,64,-1,64,35,34,-1,64,34,65,-1,65,34,37,-1,65,37,55,-1,55,37,26,-1,55,26,53,-1,110,99,97,-1,110,97,111,-1,111,97,96,-1,111,96,113,-1,113,96,98,-1,113,98,112,-1,112,98,93,-1,112,93,108,-1,108,93,92,-1,108,92,105,-1,105,92,89,-1,105,89,101,-1,99,110,107,-1,99,107,100,-1,100,107,106,-1,100,106,95,-1,95,106,109,-1,95,109,94,-1,94,109,104,-1,94,104,91,-1,91,104,103,-1,91,103,90,-1,90,103,102,-1,90,102,88,-1,
        ]
    }
}
Shape{
    appearance Appearance {
        material  Material 	{
            diffuseColor 0.5019607843137255 0.25098039215686274 0.0
            specularColor 0.44313725490196076 0.2196078431372549 0.0
            ambientIntensity 0.2974
            transparency 0.0
            shininess 0.5
        }
    }
    geometry IndexedFaceSet {
        ccw TRUE
        solid FALSE
        coord DEF co Coordinate {
            point [
                1.0039 2.9255 1.2252, 1.0039 2.9255 1.5354, 1.122 2.9255 1.2252, 1.122 2.9255 1.5354, 1.0039 2.6181 1.2252, 1.122 2.6181 1.2252
            ]
        }
        coordIndex [
            0,1,2,-1,2,1,3,-1,4,0,5,-1,5,0,2,-1,
        ]
    }
}
Shape{
    appearance Appearance {
        material  Material 	{
            diffuseColor 0.5019607843137255 0.5019607843137255 0.5019607843137255
            specularColor 0.25098039215686274 0.25098039215686274 0.25098039215686274
            ambientIntensity 0.502
            transparency 0.0
            shininess 0.5
        }
    }
    geometry IndexedFaceSet {
        ccw TRUE
        solid FALSE
        coord DEF co Coordinate {
            point [
                -0.2357 2.3037 -0.2362, -0.2362 2.2874 -0.2362, -0.2362 2.2874 -0.0394, -0.2357 2.2711 -0.0394, -0.2357 2.2711 -0.2362, -0.2319 2.2387 -0.2362, -0.2319 2.2387 -0.0394, -0.2242 2.2069 -0.2362, -0.2242 2.2069 -0.0394, -0.2128 2.1763 -0.2362, -0.2128 2.1763 -0.0394, -0.1979 2.1473 -0.2362, -0.1979 2.1473 -0.0394, -0.1797 2.1202 -0.2362, -0.1797 2.1202 -0.0394, -0.1584 2.0954 -0.2362, -0.1584 2.0954 -0.0394, -0.1343 2.0734 -0.2362, -0.1343 2.0734 -0.0394, -0.1077 2.0544 -0.2362, -0.1077 2.0544 -0.0394, -0.0792 2.0386 -0.2362, -0.0792 2.0386 -0.0394, -0.0489 2.0263 -0.2362, -0.0489 2.0263 -0.0394, -0.0174 2.0177 -0.2362, -0.0174 2.0177 -0.0394, 0.0149 2.0129 -0.2362, 0.0149 2.0129 -0.0394, 0.0475 2.0119 -0.2362, 0.0475 2.0119 -0.0394, 0.0801 2.0148 -0.2362, 0.0801 2.0148 -0.0394, 0.112 2.0216 -0.2362, 0.112 2.0216 -0.0394, 0.1429 2.032 -0.2362, 0.1429 2.032 -0.0394, 0.1724 2.0461 -0.2362, 0.1724 2.0461 -0.0394, 0.2 2.0635 -0.2362, 0.2 2.0635 -0.0394, 0.2254 2.0841 -0.2362, 0.2254 2.0841 -0.0394, 0.2481 2.1075 -0.2362, 0.2481 2.1075 -0.0394, 0.2679 2.1334 -0.2362, 0.2679 2.1334 -0.0394, 0.2846 2.1616 -0.2362, 0.2846 2.1616 -0.0394, 0.2977 2.1914 -0.2362, 0.2977 2.1914 -0.0394, 0.3073 2.2227 -0.2362, 0.3073 2.2227 -0.0394, 0.313 2.2548 -0.2362, 0.313 2.2548 -0.0394, 0.315 2.2874 -0.2362, 0.315 2.2874 -0.0394, 0.313 2.32 -0.2362, 0.313 2.32 -0.0394, 0.3073 2.3521 -0.2362, 0.3073 2.3521 -0.0394, 0.2977 2.3834 -0.2362, 0.2977 2.3834 -0.0394, 0.2846 2.4132 -0.2362, 0.2846 2.4132 -0.0394, 0.2679 2.4414 -0.2362, 0.2679 2.4414 -0.0394, 0.2481 2.4673 -0.2362, 0.2481 2.4673 -0.0394, 0.2254 2.4907 -0.2362, 0.2254 2.4907 -0.0394, 0.2 2.5113 -0.2362, 0.2 2.5113 -0.0394, 0.1724 2.5287 -0.2362, 0.1724 2.5287 -0.0394, 0.1429 2.5428 -0.2362, 0.1429 2.5428 -0.0394, 0.112 2.5532 -0.2362, 0.112 2.5532 -0.0394, 0.0801 2.56 -0.2362, 0.0801 2.56 -0.0394, 0.0475 2.5629 -0.2362, 0.0475 2.5629 -0.0394, 0.0149 2.5619 -0.2362, 0.0149 2.5619 -0.0394, -0.0174 2.5571 -0.2362, -0.0174 2.5571 -0.0394, -0.0489 2.5485 -0.2362, -0.0489 2.5485 -0.0394, -0.0792 2.5362 -0.2362, -0.0792 2.5362 -0.0394, -0.1077 2.5204 -0.2362, -0.1077 2.5204 -0.0394, -0.1343 2.5014 -0.2362, -0.1343 2.5014 -0.0394, -0.1584 2.4794 -0.2362, -0.1584 2.4794 -0.0394, -0.1797 2.4546 -0.2362, -0.1797 2.4546 -0.0394, -0.1979 2.4276 -0.2362, -0.1979 2.4276 -0.0394, -0.2128 2.3985 -0.2362, -0.2128 2.3985 -0.0394, -0.2242 2.3679 -0.2362, -0.2242 2.3679 -0.0394, -0.2319 2.3362 -0.2362, -0.2319 2.3362 -0.0394, -0.2357 2.3037 -0.0394, 0.0394 2.2874 -0.2362, 0.0394 2.2874 -0.0394, 0.2372 1.2035 -0.0394, 0.2341 1.2084 -0.0394, 0.256 1.2084 -0.0394, 0.3388 1.2084 -0.0394, 0.3388 1.0801 -0.0394, 0.2644 1.0801 -0.0394, 0.256 1.0572 -0.0394, 0.2644 1.0584 -0.0394, 0.3652 1.0584 -0.0394, 0.0363 1.1689 -0.0394, -0.0333 1.1689 -0.0394, -0.0621 1.2084 -0.0394, 0.0627 1.0584 -0.0394, 0.0819 1.0572 -0.0394, -0.0621 1.0572 -0.0394, 0.0363 1.1473 -0.0394, 0.0363 1.0801 -0.0394, -0.0333 1.1473 -0.0394, -0.0429 1.0801 -0.0394, -0.0429 1.0584 -0.0394, 0.0819 1.2084 -0.0394, 0.0627 1.2084 -0.0394, 0.0627 1.2553 -0.0394, -0.0381 1.2553 -0.0394, -0.0621 1.6229 -0.0394, 0.0819 1.6229 -0.0394, -0.0381 1.2337 -0.0394, 0.0363 1.2084 -0.0394, 0.0363 1.2337 -0.0394, -0.5919 1.6229 -0.0394, -0.247 1.6229 -0.0394, -0.3286 1.2553 -0.0394, -0.403 1.0584 -0.0394, -0.3831 1.1137 -0.0394, -0.3018 1.1137 -0.0394, -0.3109 1.2084 -0.0394, -0.247 1.2084 -0.0394, -0.2542 1.0584 -0.0394, -0.247 1.0572 -0.0394, -0.283 1.0584 -0.0394, -0.4318 1.0584 -0.0394, -0.5919 1.0572 -0.0394, -0.3733 1.2084 -0.0394, -0.5919 1.2084 -0.0394, -0.355 1.2553 -0.0394, -0.9862 1.1614 -0.0394, -0.9862 1.2084 -0.0394, -0.9055 1.1614 -0.0394, -0.9055 1.0572 -0.0394, -0.9055 0.4528 -0.0394, -0.5919 0.2362 -0.0394, -0.9862 0.2362 -0.0394, -0.9862 0.4528 -0.0394, -1.063 0.4528 -0.0394, -1.2008 0.2362 -0.0394, -1.063 1.0572 -0.0394, -1.2008 1.0572 -0.0394, -1.063 1.1614 -0.0394, -1.2008 1.2084 -0.0394, -0.2271 1.2084 -0.0394, -0.2331 1.1973 -0.0394, -0.2299 1.1124 -0.0394, -0.2187 1.0948 -0.0394, -0.2025 1.0793 -0.0394, -0.1819 1.0673 -0.0394, -0.2383 1.1779 -0.0394, -0.2398 1.1594 -0.0394, -0.237 1.133 -0.0394, -0.1592 1.0606 -0.0394, -0.1349 1.0584 -0.0394, -0.0813 1.0584 -0.0394, -0.0813 1.2084 -0.0394, -0.0813 1.2553 -0.0394, -0.1653 1.2523 -0.0394, -0.1884 1.2442 -0.0394, -0.1369 1.2553 -0.0394, -0.2098 1.2298 -0.0394, -0.21 1.2296 -0.0394, -0.2239 1.2142 -0.0394, 0.1046 1.0883 -0.0394, 0.1011 1.0903 -0.0394, 0.1011 1.0687 -0.0394, 0.1221 1.06 -0.0394, 0.215 1.1912 -0.0394, 0.2202 1.1701 -0.0394, 0.2211 1.1548 -0.0394, 0.2192 1.1335 -0.0394, 0.2138 1.1165 -0.0394, 0.17 1.0797 -0.0394, 0.1516 1.0777 -0.0394, 0.1843 1.085 -0.0394, 0.1964 1.0931 -0.0394, 0.2057 1.1029 -0.0394, 0.1255 1.0806 -0.0394, 0.1472 1.2361 -0.0394, 0.1666 1.2339 -0.0394, 0.1813 1.2286 -0.0394, 0.256 1.6229 -0.0394, 0.2256 1.2219 -0.0394, 0.2079 1.2389 -0.0394, 0.1233 1.233 -0.0394, 0.1011 1.2235 -0.0394, 0.1011 1.2499 -0.0394, 0.1239 1.2561 -0.0394, 0.195 1.2195 -0.0394, 0.205 1.2084 -0.0394, 0.2068 1.2064 -0.0394, 0.1892 1.2497 -0.0394, 0.1672 1.2561 -0.0394, 0.1474 1.2577 -0.0394, 0.2292 1.0908 -0.0394, 0.2397 1.1095 -0.0394, 0.1795 1.0586 -0.0394, 0.1986 1.0651 -0.0394, 0.2145 1.0752 -0.0394, 0.2456 1.1304 -0.0394, 0.2476 1.1532 -0.0394, 0.2447 1.1811 -0.0394, 0.142 1.0572 -0.0394, 0.1499 1.0561 -0.0394, 0.0819 0.2362 -0.0394, 0.1669 1.0572 -0.0394, 0.256 0.2362 -0.0394, 0.1553 1.056 -0.0394, 1.1417 0.0197 -0.0394, 1.2795 0.2362 -0.0394, 1.1417 -0.689 -0.0394, 1.2795 -1.0827 -0.0394, 0.9843 -0.689 -0.0394, 0.6747 -1.0827 -0.0394, 0.9843 0.0197 -0.0394, 0.6747 0.2362 -0.0394, 0.256 -1.0827 -0.0394, -1.2008 -1.0827 -0.0394, -0.9862 -1.0827 -0.0394, -0.5919 -1.0827 -0.0394, -0.247 -1.0827 -0.0394, -0.247 0.2362 -0.0394, -0.0621 -1.0827 -0.0394, -0.0621 0.2362 -0.0394, 0.0394 -1.0827 -0.0394, 0.0819 -1.0827 -0.0394, 0.3388 1.2553 -0.0394, 0.3652 1.2553 -0.0394, 0.6747 1.6229 -0.0394, 0.3652 1.2084 -0.0394, 0.6747 1.2084 -0.0394, 0.6747 1.0572 -0.0394, 1.2795 1.0572 -0.0394, 1.2795 1.2084 -0.0394, 1.2795 1.6229 -0.0394, -0.9862 1.6229 -0.0394, 0.9843 2.6969 -0.0394, 0.9843 1.9882 -0.0394, 1.1417 1.9882 -0.0394, 1.2795 2.7756 -0.0394, -0.9862 2.7756 -0.0394, -0.5919 2.7756 -0.0394, -0.247 2.7756 -0.0394, -0.0621 2.7756 -0.0394, 0.0819 2.7756 -0.0394, 0.256 2.7756 -0.0394, 0.6747 2.7756 -0.0394, 1.1417 2.6969 -0.0394, -0.5919 3.4449 -0.0394, -0.247 3.4449 -0.0394, -0.0621 3.4449 -0.0394, 0.0819 3.4449 -0.0394, 0.256 3.4449 -0.0394, 0.6747 3.4449 -0.0394, 1.2795 3.4449 -0.0394, -0.752 3.3268 -0.0394, -0.752 2.8543 -0.0394, -0.9094 2.8543 -0.0394, -0.9094 3.3268 -0.0394, -0.9862 3.4449 -0.0394, -1.2008 1.6229 -0.0394, -1.2008 2.7756 -0.0394, -1.2008 3.4449 -0.0394, 1.1417 2.9255 1.9291, 1.2795 2.9255 1.9291, 1.1417 3.3268 1.9291, 1.2795 3.4449 1.9291, 0.9843 3.3268 1.9291, -0.5709 3.4449 1.9291, 0.9843 3.0906 1.9291, -0.5709 3.0906 1.9291, 1.1417 2.9255 1.5354, 1.1417 3.3268 1.5354, -0.3772 3.4449 1.5182, -0.3524 3.0906 1.5354, -0.3524 1.9882 1.5354, -0.2489 3.0906 1.5923, -0.2489 3.4449 1.5923, -0.108 3.0906 1.6381, -0.108 3.4449 1.6381, 0.0394 3.0906 1.6535, 0.0394 3.4449 1.6535, 0.1867 3.0906 1.6381, 0.1867 3.4449 1.6381, 0.3276 3.0906 1.5923, 0.3276 3.4449 1.5923, 0.4311 3.0906 1.5354, 0.4559 3.4449 1.5182, 0.4311 1.9882 1.5354, 0.1867 1.9882 1.6381, 0.1865 -1.9882 1.6372, 0.0394 1.9882 1.6535, 0.1776 -1.9882 1.6399, 0.0394 -1.9882 1.6535, -0.0989 -1.9882 1.6399, -0.108 1.9882 1.6381, -0.1077 -1.9882 1.6372, -0.2318 -1.9882 1.5996, -0.2489 1.9882 1.5923, 0.7133 -0.5709 1.1639, 0.6941 -1.9882 1.2161, 0.6693 -0.5709 1.2695, 0.6504 -1.9882 1.2978, 0.6693 -0.0984 1.2695, 0.6504 -1.9882 0.592, 0.6941 -1.9882 0.6737, 0.6693 -0.5709 0.6202, 0.7133 -0.5709 0.7259, 0.6531 3.4449 1.2992, 0.7133 -0.0984 1.1639, 0.7133 3.4449 1.1639, 0.7441 -0.0984 1.019, 0.7441 3.4449 1.019, 0.7441 -0.0984 0.8708, 0.7441 3.4449 0.8708, 0.7133 -0.0984 0.7259, 0.7133 3.4449 0.7259, 0.6693 -0.0984 0.6202, 0.6531 3.4449 0.5906, 0.7102 -1.9882 0.7268, 0.7344 -1.9882 0.8066, 0.7441 -0.5709 0.8708, 0.7408 -1.9882 0.8711, 0.748 -1.9882 0.9449, 0.7441 -0.5709 1.019, 0.7408 -1.9882 1.0186, 0.7344 -1.9882 1.0831, 0.7102 -1.9882 1.1629, -0.5906 0.5709 1.2695, -0.5906 1.0433 1.2695, -0.5743 3.4449 1.2992, -0.6557 -1.9882 1.0831, -0.6654 0.5709 1.019, -0.6346 0.5709 1.1639, -0.662 -1.9882 1.0186, -0.6693 -1.9882 0.9449, -0.6654 0.5709 0.8708, -0.662 -1.9882 0.8711, -0.6557 -1.9882 0.8066, -0.6346 0.5709 0.7259, -0.6346 3.4449 1.1639, -0.6346 1.0433 1.1639, -0.6654 3.4449 1.019, -0.6654 1.0433 1.019, -0.6654 3.4449 0.8708, -0.6654 1.0433 0.8708, -0.6346 3.4449 0.7259, -0.6346 1.0433 0.7259, -0.5743 3.4449 0.5906, -0.5906 1.0433 0.6202, -0.5906 0.5709 0.6202, 0.0394 -1.9882 0.2362, 0.1776 -1.9882 0.2498, 0.0394 3.4449 0.2362, 0.1867 3.4449 0.2517, 0.1865 -1.9882 0.2525, 0.3106 -1.9882 0.2902, 0.3276 3.4449 0.2975, 0.3269 -1.9882 0.2989, 0.4331 -1.9882 0.3557, 0.4559 3.4449 0.3716, 0.4545 -1.9882 0.3733, 0.5405 -1.9882 0.4438, 0.566 3.4449 0.4707, 0.6286 -1.9882 0.5512, 0.5639 -1.9882 0.4724, 0.6286 -1.9882 1.3386, 0.566 3.4449 1.4191, 0.5639 -1.9882 1.4174, 0.5405 -1.9882 1.446, 0.4545 -1.9882 1.5165, 0.4331 -1.9882 1.5341, 0.3276 1.9882 1.5923, 0.3269 -1.9882 1.5909, 0.3106 -1.9882 1.5996, -0.2481 -1.9882 1.5909, -0.3543 -1.9882 1.5341, -0.3758 -1.9882 1.5165, -0.4617 -1.9882 1.446, -0.4873 3.4449 1.4191, -0.4852 -1.9882 1.4174, -0.5499 -1.9882 1.3386, -0.5717 -1.9882 1.2978, -0.6153 -1.9882 1.2161, -0.6315 -1.9882 1.1629, -0.6315 -1.9882 0.7268, -0.6153 -1.9882 0.6737, -0.5717 -1.9882 0.592, -0.5499 -1.9882 0.5512, -0.4873 3.4449 0.4707, -0.4852 -1.9882 0.4724, -0.4617 -1.9882 0.4438, -0.3772 3.4449 0.3716, -0.3758 -1.9882 0.3733, -0.3543 -1.9882 0.3557, -0.2489 3.4449 0.2975, -0.2481 -1.9882 0.2989, -0.108 3.4449 0.2517, -0.2318 -1.9882 0.2902, -0.1077 -1.9882 0.2525, -0.0989 -1.9882 0.2498, -0.5906 0.5709 0.3543, -0.5906 1.0433 0.3543, -0.9055 0.5709 0.3543, -0.9055 1.0433 0.3543, 0.6693 -0.0984 0.3543, 0.6693 -0.5709 0.3543, 0.9843 -0.0984 0.3543, 0.9843 -0.5709 0.3543, 0.376 -1.0827 1.8698, 1.2795 -1.0827 1.9291, 0.2103 -1.0827 1.9142, 0.0394 -1.0827 1.9291, 0.672 -1.0827 0.1909, 1.0087 -1.0827 1.1158, 1.0236 -1.0827 0.9449, 0.2103 -1.0827 -0.0244, 0.376 -1.0827 0.02, 0.5315 -1.0827 0.0925, 0.5315 -1.0827 1.7973, 0.672 -1.0827 1.6989, 0.7934 -1.0827 1.5775, 1.0087 -1.0827 0.774, 0.9643 -1.0827 0.6082, 0.8918 -1.0827 1.437, 0.9643 -1.0827 1.2815, 0.8918 -1.0827 0.4528, 0.7934 -1.0827 0.3122, 1.2795 2.164 1.2252, 1.2795 2.9255 1.2252, 1.2795 2.164 1.9291, 1.2795 0.0197 1.9291, 1.2795 0.0197 0.3543, 1.2795 -0.689 1.9291, 1.2795 -0.689 0.3543, -0.5709 3.4449 1.5354, -1.2008 3.4449 1.5354, -1.2008 0.4528 0.3543, -1.2008 -1.0827 1.9291, -1.2008 0.4528 1.9291, -1.2008 1.1614 1.9291, -1.2008 2.5787 1.9291, -1.2008 1.1614 0.3543, -1.2008 2.5787 1.5354, -0.5933 -1.0827 1.6989, -0.4528 -1.0827 1.7973, -0.2973 -1.0827 1.8698, -0.1315 -1.0827 1.9142, -0.7146 -1.0827 0.3122, -0.813 -1.0827 0.4528, -0.8855 -1.0827 0.6082, -0.5933 -1.0827 0.1909, -0.4528 -1.0827 0.0925, -0.2973 -1.0827 0.02, -0.1315 -1.0827 -0.0244, -0.9299 -1.0827 0.774, -0.9449 -1.0827 0.9449, -0.9299 -1.0827 1.1158, -0.8855 -1.0827 1.2815, -0.813 -1.0827 1.437, -0.7146 -1.0827 1.5775, 0.9843 -0.689 1.9291, -1.122 1.9882 1.9291, -1.122 2.5787 1.9291, 1.1417 2.164 1.9291, 1.1417 0.9646 1.9291, 0.9449 1.5945 1.9291, 0.8465 1.5945 1.9291, 0.9843 0.9646 1.9291, 0.9843 0.0197 1.9291, -0.9055 0.5709 1.9291, -0.9055 0.4528 1.9291, -0.5906 0.5709 1.9291, 0.6693 -0.5709 1.9291, -0.5906 1.0433 1.9291, 0.6693 -0.0984 1.9291, -0.9055 1.0433 1.9291, -0.9055 1.1614 1.9291, 0.9843 -0.5709 1.9291, 0.9843 -0.0984 1.9291, 0.8465 1.9882 1.9291, 0.2103 -1.9882 1.9142, 0.376 -1.9882 1.8698, 0.5315 -1.9882 1.7973, 0.672 -1.9882 1.6989, 0.7934 -1.9882 1.5775, 0.8918 -1.9882 1.437, 0.9643 -1.9882 1.2815, 1.0087 -1.9882 1.1158, 1.0236 -1.9882 0.9449, 1.0087 -1.9882 0.774, 0.9643 -1.9882 0.6082, 0.8918 -1.9882 0.4528, 0.7934 -1.9882 0.3122, 0.672 -1.9882 0.1909, 0.5315 -1.9882 0.0925, 0.376 -1.9882 0.02, 0.2103 -1.9882 -0.0244, 0.0394 -1.9882 -0.0394, -0.1315 -1.9882 -0.0244, -0.2973 -1.9882 0.02, -0.4528 -1.9882 0.0925, -0.5933 -1.9882 0.1909, -0.7146 -1.9882 0.3122, -0.813 -1.9882 0.4528, -0.8855 -1.9882 0.6082, -0.9299 -1.9882 0.774, -0.9449 -1.9882 0.9449, -0.9299 -1.9882 1.1158, -0.8855 -1.9882 1.2815, -0.813 -1.9882 1.437, -0.7146 -1.9882 1.5775, -0.5933 -1.9882 1.6989, -0.4528 -1.9882 1.7973, -0.2973 -1.9882 1.8698, -0.1315 -1.9882 1.9142, 0.0394 -1.9882 1.9291, 0.5961 -2.0669 1.5017, 0.6214 -2.0669 1.6385, 0.4768 -2.0669 1.5996, 0.4921 -2.0669 1.7291, 0.3407 -2.0669 1.6723, 0.3491 -2.0669 1.7958, 0.193 -2.0669 1.7172, 0.1966 -2.0669 1.8366, 0.0394 -2.0669 1.7323, 0.0394 -2.0669 1.8504, -0.1142 -2.0669 1.7172, -0.1179 -2.0669 1.8366, -0.262 -2.0669 1.6723, -0.2703 -2.0669 1.7958, -0.3981 -2.0669 1.5996, -0.4134 -2.0669 1.7291, -0.5174 -2.0669 1.5017, -0.5174 -2.0669 0.3881, -0.5427 -2.0669 0.2512, -0.3981 -2.0669 0.2902, -0.4134 -2.0669 0.1607, -0.262 -2.0669 0.2174, -0.2703 -2.0669 0.094, -0.1142 -2.0669 0.1726, -0.1179 -2.0669 0.0531, 0.0394 -2.0669 0.1575, 0.0394 -2.0669 0.0394, 0.193 -2.0669 0.1726, 0.1966 -2.0669 0.0531, 0.3407 -2.0669 0.2174, 0.3491 -2.0669 0.094, 0.4768 -2.0669 0.2902, 0.4921 -2.0669 0.1607, 0.5961 -2.0669 0.3881, -0.5427 -2.0669 1.6385, -0.6543 -2.0669 1.5269, -0.6153 -2.0669 1.3823, -0.7448 -2.0669 1.3976, -0.6881 -2.0669 1.2462, -0.8115 -2.0669 1.2546, -0.7329 -2.0669 1.0985, -0.8524 -2.0669 1.1021, -0.748 -2.0669 0.9449, -0.8661 -2.0669 0.9449, -0.7329 -2.0669 0.7913, -0.8524 -2.0669 0.7876, -0.6881 -2.0669 0.6436, -0.8115 -2.0669 0.6352, -0.6153 -2.0669 0.5074, -0.7448 -2.0669 0.4921, -0.6543 -2.0669 0.3628, 0.6214 -2.0669 0.2512, 0.733 -2.0669 0.3628, 0.6941 -2.0669 0.5074, 0.8236 -2.0669 0.4921, 0.7668 -2.0669 0.6436, 0.8903 -2.0669 0.6352, 0.8116 -2.0669 0.7913, 0.9311 -2.0669 0.7876, 0.8268 -2.0669 0.9449, 0.9449 -2.0669 0.9449, 0.8116 -2.0669 1.0985, 0.9311 -2.0669 1.1021, 0.7668 -2.0669 1.2462, 0.8903 -2.0669 1.2546, 0.6941 -2.0669 1.3823, 0.8236 -2.0669 1.3976, 0.733 -2.0669 1.5269, -1.063 0.4528 0.3543, -1.063 1.1614 0.3543, 1.1417 0.0197 0.3543, 1.1417 -0.689 0.3543, -0.5709 3.0906 1.5354, 0.9843 3.0906 1.5354, -1.122 1.9882 1.5354, 0.8465 1.9882 1.5354, -0.752 2.8543 1.5354, -0.752 3.3268 1.5354, -0.9094 3.3268 1.5354, -0.9094 2.8543 1.5354, -1.122 2.5787 1.5354, 0.9843 0.9646 1.5354, 1.1417 0.9646 1.5354, 0.9449 1.5945 1.5354, 1.1417 1.9882 1.5354, 0.8465 1.5945 1.5354, 0.9843 1.9882 1.5354, 0.9843 2.164 1.5354, 0.9646 2.164 1.5354, 0.9843 3.3268 1.5354, 0.9646 2.9255 1.5354, 1.1417 2.164 1.2252, 1.1417 2.6969 1.2252
            ]
        }
        coordIndex [
            0,1,2,-1,2,1,3,-1,1,4,3,-1,3,4,5,-1,3,5,6,-1,6,5,7,-1,6,7,8,-1,8,7,9,-1,8,9,10,-1,10,9,11,-1,10,11,12,-1,12,11,13,-1,12,13,14,-1,14,13,15,-1,14,15,16,-1,16,15,17,-1,16,17,18,-1,18,17,19,-1,18,19,20,-1,20,19,21,-1,20,21,22,-1,22,21,23,-1,22,23,24,-1,24,23,25,-1,24,25,26,-1,26,25,27,-1,26,27,28,-1,28,27,29,-1,28,29,30,-1,30,29,31,-1,30,31,32,-1,32,31,33,-1,32,33,34,-1,34,33,35,-1,34,35,36,-1,36,35,37,-1,36,37,38,-1,38,37,39,-1,38,39,40,-1,40,39,41,-1,40,41,42,-1,42,41,43,-1,42,43,44,-1,44,43,45,-1,44,45,46,-1,46,45,47,-1,46,47,48,-1,48,47,49,-1,48,49,50,-1,50,49,51,-1,50,51,52,-1,52,51,53,-1,52,53,54,-1,54,53,55,-1,54,55,56,-1,56,55,57,-1,56,57,58,-1,58,57,59,-1,58,59,60,-1,60,59,61,-1,60,61,62,-1,62,61,63,-1,62,63,64,-1,64,63,65,-1,64,65,66,-1,66,65,67,-1,66,67,68,-1,68,67,69,-1,68,69,70,-1,70,69,71,-1,70,71,72,-1,72,71,73,-1,72,73,74,-1,74,73,75,-1,74,75,76,-1,76,75,77,-1,76,77,78,-1,78,77,79,-1,78,79,80,-1,80,79,81,-1,80,81,82,-1,82,81,83,-1,82,83,84,-1,84,83,85,-1,84,85,86,-1,86,85,87,-1,86,87,88,-1,88,87,89,-1,88,89,90,-1,90,89,91,-1,90,91,92,-1,92,91,93,-1,92,93,94,-1,94,93,95,-1,94,95,96,-1,96,95,97,-1,96,97,98,-1,98,97,99,-1,98,99,100,-1,100,99,101,-1,100,101,102,-1,102,101,103,-1,102,103,104,-1,104,103,105,-1,104,105,106,-1,106,105,0,-1,106,0,107,-1,107,0,2,-1,5,4,108,-1,108,4,1,-1,108,1,0,-1,11,9,108,-1,108,9,7,-1,108,7,5,-1,17,15,108,-1,108,15,13,-1,108,13,11,-1,23,21,108,-1,108,21,19,-1,108,19,17,-1,29,27,108,-1,108,27,25,-1,108,25,23,-1,35,33,108,-1,108,33,31,-1,108,31,29,-1,41,39,108,-1,108,39,37,-1,108,37,35,-1,47,45,108,-1,108,45,43,-1,108,43,41,-1,53,51,108,-1,108,51,49,-1,108,49,47,-1,59,57,108,-1,108,57,55,-1,108,55,53,-1,65,63,108,-1,108,63,61,-1,108,61,59,-1,71,69,108,-1,108,69,67,-1,108,67,65,-1,77,75,108,-1,108,75,73,-1,108,73,71,-1,83,81,108,-1,108,81,79,-1,108,79,77,-1,89,87,108,-1,108,87,85,-1,108,85,83,-1,95,93,108,-1,108,93,91,-1,108,91,89,-1,101,99,108,-1,108,99,97,-1,108,97,95,-1,0,105,108,-1,108,105,103,-1,108,103,101,-1,106,107,109,-1,109,107,2,-1,109,2,3,-1,100,102,109,-1,109,102,104,-1,109,104,106,-1,94,96,109,-1,109,96,98,-1,109,98,100,-1,88,90,109,-1,109,90,92,-1,109,92,94,-1,82,84,109,-1,109,84,86,-1,109,86,88,-1,76,78,109,-1,109,78,80,-1,109,80,82,-1,70,72,109,-1,109,72,74,-1,109,74,76,-1,64,66,109,-1,109,66,68,-1,109,68,70,-1,58,60,109,-1,109,60,62,-1,109,62,64,-1,52,54,109,-1,109,54,56,-1,109,56,58,-1,46,48,109,-1,109,48,50,-1,109,50,52,-1,40,42,109,-1,109,42,44,-1,109,44,46,-1,34,36,109,-1,109,36,38,-1,109,38,40,-1,28,30,109,-1,109,30,32,-1,109,32,34,-1,22,24,109,-1,109,24,26,-1,109,26,28,-1,16,18,109,-1,109,18,20,-1,109,20,22,-1,10,12,109,-1,109,12,14,-1,109,14,16,-1,3,6,109,-1,109,6,8,-1,109,8,10,-1,110,111,112,-1,113,114,112,-1,112,114,115,-1,112,115,116,-1,116,115,117,-1,116,117,118,-1,119,120,121,-1,122,123,124,-1,125,126,127,-1,127,126,128,-1,120,127,121,-1,121,127,128,-1,121,128,124,-1,124,128,129,-1,124,129,122,-1,123,122,130,-1,130,122,131,-1,130,131,132,-1,133,134,132,-1,132,134,135,-1,132,135,130,-1,133,136,121,-1,119,121,137,-1,137,121,136,-1,137,136,138,-1,139,140,141,-1,142,143,144,-1,141,140,145,-1,145,140,146,-1,145,146,147,-1,147,146,148,-1,147,148,149,-1,144,149,142,-1,142,149,148,-1,142,148,150,-1,150,148,151,-1,150,151,152,-1,152,151,153,-1,152,153,154,-1,155,156,157,-1,157,156,153,-1,157,153,158,-1,158,153,151,-1,158,151,159,-1,160,161,162,-1,162,161,163,-1,163,161,164,-1,163,164,165,-1,165,164,166,-1,165,166,167,-1,167,166,168,-1,167,168,155,-1,146,169,170,-1,171,172,148,-1,148,172,173,-1,148,173,174,-1,170,175,146,-1,146,175,176,-1,146,176,148,-1,148,176,177,-1,148,177,171,-1,174,178,148,-1,148,178,179,-1,148,179,124,-1,124,179,180,-1,124,180,121,-1,121,180,181,-1,121,181,182,-1,183,184,140,-1,133,121,134,-1,134,121,182,-1,134,182,140,-1,140,182,185,-1,140,185,183,-1,184,186,140,-1,140,186,187,-1,140,187,146,-1,146,187,188,-1,146,188,169,-1,189,190,130,-1,130,190,123,-1,123,190,191,-1,123,191,192,-1,193,194,189,-1,194,195,189,-1,189,195,196,-1,189,196,197,-1,198,199,200,-1,200,199,201,-1,197,202,189,-1,189,202,201,-1,189,201,203,-1,203,201,199,-1,204,205,130,-1,130,205,206,-1,112,111,207,-1,207,111,208,-1,207,208,209,-1,210,204,211,-1,211,204,130,-1,211,130,212,-1,212,130,135,-1,212,135,213,-1,206,214,130,-1,130,214,215,-1,130,215,189,-1,189,215,216,-1,189,216,193,-1,209,217,207,-1,207,217,218,-1,207,218,135,-1,135,218,219,-1,135,219,213,-1,116,220,221,-1,222,223,116,-1,116,223,224,-1,116,224,220,-1,221,225,116,-1,116,225,226,-1,116,226,112,-1,112,226,227,-1,112,227,110,-1,228,229,230,-1,222,116,231,-1,231,116,232,-1,231,232,233,-1,234,235,236,-1,236,235,237,-1,236,237,238,-1,238,237,239,-1,238,239,240,-1,240,239,241,-1,240,241,234,-1,242,230,232,-1,232,230,229,-1,232,229,233,-1,243,164,244,-1,244,164,161,-1,244,161,245,-1,245,161,160,-1,245,160,246,-1,246,160,247,-1,246,247,248,-1,248,247,249,-1,248,249,250,-1,250,249,230,-1,250,230,251,-1,251,230,242,-1,113,112,252,-1,252,112,207,-1,252,207,253,-1,253,207,254,-1,253,254,255,-1,255,254,256,-1,255,256,118,-1,118,256,257,-1,118,257,116,-1,116,257,241,-1,116,241,232,-1,232,241,239,-1,232,239,242,-1,162,159,160,-1,160,159,151,-1,160,151,247,-1,247,151,148,-1,247,148,249,-1,249,148,124,-1,249,124,230,-1,230,124,123,-1,230,123,228,-1,228,123,192,-1,234,241,235,-1,235,241,257,-1,235,257,258,-1,258,257,256,-1,258,256,259,-1,259,256,254,-1,259,254,260,-1,156,261,153,-1,153,261,139,-1,153,139,154,-1,154,139,141,-1,262,263,254,-1,254,263,260,-1,260,263,264,-1,260,264,265,-1,261,266,139,-1,139,266,267,-1,139,267,140,-1,140,267,268,-1,140,268,134,-1,134,268,269,-1,134,269,135,-1,135,269,270,-1,135,270,207,-1,207,270,271,-1,207,271,254,-1,254,271,272,-1,254,272,262,-1,262,272,265,-1,262,265,273,-1,273,265,264,-1,267,274,268,-1,268,274,275,-1,268,275,269,-1,269,275,276,-1,269,276,270,-1,270,276,277,-1,270,277,271,-1,271,277,278,-1,271,278,272,-1,272,278,279,-1,272,279,265,-1,265,279,280,-1,281,274,282,-1,282,274,267,-1,282,267,283,-1,283,267,266,-1,283,266,284,-1,284,266,285,-1,284,285,281,-1,281,285,274,-1,155,168,156,-1,156,168,286,-1,156,286,261,-1,261,286,287,-1,261,287,266,-1,266,287,288,-1,266,288,285,-1,289,290,291,-1,291,290,292,-1,291,292,293,-1,293,292,294,-1,293,294,295,-1,295,294,296,-1,289,291,297,-1,297,291,298,-1,299,300,301,-1,300,299,302,-1,302,299,303,-1,302,303,304,-1,304,303,305,-1,304,305,306,-1,306,305,307,-1,306,307,308,-1,308,307,309,-1,308,309,310,-1,310,309,311,-1,310,311,312,-1,312,311,313,-1,312,313,314,-1,315,316,317,-1,317,316,318,-1,318,319,317,-1,317,319,320,-1,317,320,321,-1,320,322,321,-1,321,322,323,-1,321,323,324,-1,325,326,327,-1,327,326,328,-1,327,328,329,-1,330,331,332,-1,332,331,333,-1,329,334,335,-1,335,334,336,-1,335,336,337,-1,337,336,338,-1,337,338,339,-1,339,338,340,-1,339,340,341,-1,341,340,342,-1,341,342,343,-1,343,342,344,-1,331,345,333,-1,333,345,346,-1,333,346,347,-1,346,348,347,-1,347,348,349,-1,347,349,350,-1,349,351,350,-1,350,351,352,-1,350,352,325,-1,325,352,353,-1,325,353,326,-1,354,355,356,-1,357,358,359,-1,357,360,358,-1,358,360,361,-1,358,361,362,-1,361,363,362,-1,362,363,364,-1,362,364,365,-1,356,355,366,-1,366,355,367,-1,366,367,368,-1,368,367,369,-1,368,369,370,-1,370,369,371,-1,370,371,372,-1,372,371,373,-1,372,373,374,-1,374,373,375,-1,374,375,376,-1,377,378,379,-1,379,378,380,-1,378,381,380,-1,380,381,382,-1,380,382,383,-1,382,384,383,-1,383,384,385,-1,383,385,386,-1,385,387,386,-1,386,387,388,-1,386,388,389,-1,332,343,330,-1,330,343,344,-1,330,344,390,-1,390,344,389,-1,390,389,391,-1,391,389,388,-1,329,328,334,-1,334,328,392,-1,334,392,393,-1,392,394,393,-1,393,394,395,-1,393,395,313,-1,313,395,396,-1,313,396,314,-1,314,396,397,-1,314,397,398,-1,398,397,399,-1,398,399,315,-1,315,399,400,-1,315,400,316,-1,323,401,324,-1,324,401,402,-1,324,402,301,-1,301,402,403,-1,301,403,299,-1,299,403,404,-1,299,404,405,-1,404,406,405,-1,405,406,407,-1,405,407,356,-1,356,407,408,-1,356,408,354,-1,354,408,409,-1,354,409,359,-1,359,409,410,-1,359,410,357,-1,364,411,365,-1,365,411,412,-1,365,412,376,-1,376,412,413,-1,376,413,374,-1,374,413,414,-1,374,414,415,-1,414,416,415,-1,415,416,417,-1,415,417,418,-1,417,419,418,-1,418,419,420,-1,418,420,421,-1,421,420,422,-1,421,422,423,-1,422,424,423,-1,423,424,425,-1,423,425,379,-1,379,425,426,-1,379,426,377,-1,427,428,429,-1,429,428,430,-1,431,432,433,-1,433,432,434,-1,435,436,437,-1,437,436,438,-1,239,237,439,-1,440,441,436,-1,250,251,442,-1,442,251,242,-1,442,242,443,-1,443,242,239,-1,443,239,444,-1,444,239,439,-1,435,445,436,-1,436,445,446,-1,436,446,447,-1,436,441,237,-1,237,441,448,-1,237,448,449,-1,447,450,436,-1,436,450,451,-1,436,451,440,-1,449,452,237,-1,237,452,453,-1,237,453,439,-1,454,258,259,-1,292,290,280,-1,280,290,455,-1,280,455,265,-1,265,455,454,-1,265,454,260,-1,260,454,259,-1,456,457,454,-1,454,457,458,-1,454,458,258,-1,459,436,460,-1,460,436,237,-1,460,237,458,-1,458,237,235,-1,458,235,258,-1,294,305,461,-1,461,305,303,-1,303,299,461,-1,461,299,405,-1,461,405,462,-1,462,405,356,-1,356,366,462,-1,462,366,368,-1,462,368,288,-1,288,368,370,-1,370,372,288,-1,288,372,374,-1,288,374,285,-1,285,374,415,-1,285,415,274,-1,415,418,274,-1,274,418,421,-1,274,421,275,-1,275,421,423,-1,275,423,276,-1,276,423,379,-1,276,379,277,-1,277,379,278,-1,278,379,380,-1,278,380,279,-1,344,342,280,-1,280,342,340,-1,280,340,292,-1,292,340,338,-1,292,338,336,-1,336,334,292,-1,292,334,393,-1,292,393,313,-1,313,311,292,-1,292,311,309,-1,292,309,294,-1,294,309,307,-1,294,307,305,-1,380,383,279,-1,279,383,386,-1,279,386,280,-1,280,386,389,-1,280,389,344,-1,164,243,463,-1,463,243,464,-1,463,464,465,-1,466,467,468,-1,468,467,469,-1,164,463,166,-1,166,463,468,-1,166,468,168,-1,462,288,469,-1,469,288,287,-1,469,287,468,-1,468,287,286,-1,468,286,168,-1,470,471,464,-1,471,472,464,-1,464,472,473,-1,464,473,438,-1,474,475,243,-1,243,475,476,-1,474,243,477,-1,477,243,244,-1,477,244,478,-1,478,244,245,-1,478,245,479,-1,479,245,246,-1,479,246,480,-1,480,246,248,-1,480,248,250,-1,476,481,243,-1,243,481,482,-1,243,482,464,-1,464,482,483,-1,464,483,484,-1,484,485,464,-1,464,485,486,-1,464,486,470,-1,436,459,438,-1,438,459,487,-1,488,489,467,-1,456,490,491,-1,492,493,494,-1,494,493,495,-1,494,495,491,-1,491,495,457,-1,491,457,456,-1,496,497,498,-1,498,497,499,-1,498,499,500,-1,500,499,501,-1,502,500,503,-1,503,500,488,-1,503,488,466,-1,466,488,467,-1,487,504,438,-1,438,504,499,-1,438,499,464,-1,464,499,497,-1,464,497,465,-1,501,505,500,-1,500,505,495,-1,500,495,488,-1,488,495,493,-1,488,493,506,-1,438,507,437,-1,437,507,508,-1,437,508,435,-1,435,508,509,-1,435,509,445,-1,445,509,510,-1,445,510,446,-1,446,510,511,-1,446,511,447,-1,447,511,512,-1,447,512,450,-1,450,512,513,-1,450,513,451,-1,451,513,514,-1,451,514,440,-1,440,514,515,-1,440,515,441,-1,441,515,516,-1,441,516,448,-1,448,516,517,-1,448,517,449,-1,449,517,518,-1,449,518,452,-1,452,518,519,-1,452,519,453,-1,453,519,520,-1,453,520,439,-1,439,520,521,-1,439,521,444,-1,444,521,522,-1,444,522,443,-1,443,522,523,-1,443,523,442,-1,442,523,524,-1,442,524,250,-1,250,524,525,-1,250,525,480,-1,480,525,526,-1,480,526,479,-1,479,526,527,-1,479,527,478,-1,478,527,528,-1,478,528,477,-1,477,528,529,-1,477,529,474,-1,474,529,530,-1,474,530,475,-1,475,530,531,-1,475,531,476,-1,476,531,532,-1,476,532,481,-1,481,532,533,-1,481,533,482,-1,482,533,534,-1,482,534,483,-1,483,534,535,-1,483,535,484,-1,484,535,536,-1,484,536,485,-1,485,536,537,-1,485,537,486,-1,486,537,538,-1,486,538,470,-1,470,538,539,-1,470,539,471,-1,471,539,540,-1,471,540,472,-1,472,540,541,-1,472,541,473,-1,473,541,542,-1,473,542,438,-1,438,542,507,-1,543,544,545,-1,545,544,546,-1,545,546,547,-1,547,546,548,-1,547,548,549,-1,549,548,550,-1,549,550,551,-1,551,550,552,-1,551,552,553,-1,553,552,554,-1,553,554,555,-1,555,554,556,-1,555,556,557,-1,557,556,558,-1,557,558,559,-1,560,561,562,-1,562,561,563,-1,562,563,564,-1,564,563,565,-1,564,565,566,-1,566,565,567,-1,566,567,568,-1,568,567,569,-1,568,569,570,-1,570,569,571,-1,570,571,572,-1,572,571,573,-1,572,573,574,-1,574,573,575,-1,574,575,576,-1,558,577,559,-1,559,577,578,-1,559,578,579,-1,579,578,580,-1,579,580,581,-1,581,580,582,-1,581,582,583,-1,583,582,584,-1,583,584,585,-1,585,584,586,-1,585,586,587,-1,587,586,588,-1,587,588,589,-1,589,588,590,-1,589,590,591,-1,591,590,592,-1,591,592,560,-1,560,592,593,-1,560,593,561,-1,575,594,576,-1,576,594,595,-1,576,595,596,-1,596,595,597,-1,596,597,598,-1,598,597,599,-1,598,599,600,-1,600,599,601,-1,600,601,602,-1,602,601,603,-1,602,603,604,-1,604,603,605,-1,604,605,606,-1,606,605,607,-1,606,607,608,-1,608,607,609,-1,608,609,543,-1,543,609,610,-1,543,610,544,-1,355,500,367,-1,367,500,502,-1,367,502,369,-1,369,502,430,-1,369,430,371,-1,428,375,430,-1,430,375,373,-1,430,373,371,-1,500,355,498,-1,498,355,354,-1,427,376,428,-1,428,376,375,-1,496,498,354,-1,354,359,496,-1,496,359,358,-1,496,358,429,-1,376,427,365,-1,365,427,429,-1,365,429,362,-1,362,429,358,-1,430,502,503,-1,497,496,429,-1,503,157,430,-1,430,157,158,-1,430,158,429,-1,429,158,159,-1,429,159,497,-1,463,465,611,-1,611,465,497,-1,163,611,162,-1,162,611,497,-1,162,497,159,-1,167,612,165,-1,165,612,611,-1,165,611,163,-1,155,157,503,-1,167,155,612,-1,612,155,503,-1,612,503,468,-1,468,503,466,-1,327,499,325,-1,325,499,504,-1,325,504,350,-1,350,504,434,-1,350,434,347,-1,432,332,434,-1,434,332,333,-1,434,333,347,-1,431,343,432,-1,432,343,332,-1,499,327,501,-1,501,327,329,-1,505,501,329,-1,329,335,505,-1,505,335,337,-1,505,337,433,-1,343,431,341,-1,341,431,433,-1,341,433,339,-1,339,433,337,-1,613,234,614,-1,614,234,236,-1,236,238,614,-1,614,238,487,-1,614,487,460,-1,460,487,459,-1,495,505,433,-1,504,487,434,-1,434,487,238,-1,434,238,433,-1,433,238,240,-1,433,240,495,-1,240,234,613,-1,458,457,613,-1,613,457,495,-1,613,495,240,-1,615,300,296,-1,296,300,302,-1,302,304,296,-1,296,304,306,-1,296,306,295,-1,312,616,310,-1,310,616,295,-1,310,295,308,-1,308,295,306,-1,315,317,506,-1,506,317,488,-1,301,617,324,-1,324,617,488,-1,324,488,321,-1,321,488,317,-1,618,314,506,-1,506,314,398,-1,506,398,315,-1,301,300,615,-1,617,301,619,-1,619,301,615,-1,619,615,620,-1,620,615,461,-1,620,461,621,-1,621,461,462,-1,621,462,622,-1,622,462,469,-1,622,469,619,-1,619,469,623,-1,619,623,617,-1,624,625,626,-1,626,625,627,-1,626,627,628,-1,628,627,629,-1,628,629,618,-1,618,629,630,-1,618,630,631,-1,298,632,297,-1,297,632,616,-1,297,616,633,-1,633,616,312,-1,633,312,631,-1,631,312,314,-1,631,314,618,-1,461,615,294,-1,294,615,296,-1,616,632,295,-1,295,632,293,-1,632,298,293,-1,293,298,291,-1,634,635,273,-1,627,625,491,-1,273,264,634,-1,634,264,627,-1,634,627,490,-1,490,627,491,-1,625,624,491,-1,491,624,494,-1,624,626,494,-1,494,626,492,-1,626,628,492,-1,492,628,493,-1,628,618,493,-1,493,618,506,-1,617,623,488,-1,488,623,489,-1,623,469,489,-1,489,469,467,-1,468,463,612,-1,612,463,611,-1,460,458,614,-1,614,458,613,-1,
        ]
    }
}
Shape{
    appearance Appearance {
        material  Material 	{
            diffuseColor 0.5019607843137255 0.25098039215686274 0.0
            specularColor 0.44313725490196076 0.2196078431372549 0.0
            ambientIntensity 0.2974
            transparency 0.0
            shininess 0.5
        }
    }
    geometry IndexedFaceSet {
        ccw TRUE
        solid FALSE
        coord DEF co Coordinate {
            point [
                1.1417 1.9882 -0.0394, 0.9843 1.9882 -0.0394, 1.1417 1.9882 1.5354, 0.9843 1.9882 1.5354, 0.9843 2.6969 1.2252, 0.9843 2.6969 -0.0394, 1.1417 2.6969 1.2252, 1.1417 2.6969 -0.0394, 0.9843 2.164 1.5354, 0.9843 2.164 1.2252, -0.752 2.8543 -0.0394, -0.9094 2.8543 -0.0394, -0.752 2.8543 1.5354, -0.9094 2.8543 1.5354, -0.752 3.3268 -0.0394, -0.752 3.3268 1.5354, -0.9094 3.3268 -0.0394, -0.9094 3.3268 1.5354
            ]
        }
        coordIndex [
            0,1,2,-1,2,1,3,-1,4,5,6,-1,6,5,7,-1,8,3,9,-1,9,3,1,-1,9,1,4,-1,4,1,5,-1,10,11,12,-1,12,11,13,-1,14,10,15,-1,15,10,12,-1,16,14,17,-1,17,14,15,-1,11,16,13,-1,13,16,17,-1,
        ]
    }
}
Shape{
    appearance Appearance {
        material  Material 	{
            diffuseColor 0.5019607843137255 0.5019607843137255 0.5019607843137255
            specularColor 0.25098039215686274 0.25098039215686274 0.25098039215686274
            ambientIntensity 0.502
            transparency 0.0
            shininess 0.5
        }
    }
    geometry IndexedFaceSet {
        ccw TRUE
        solid FALSE
        coord DEF co Coordinate {
            point [
                0.9646 2.164 1.2252, 0.9843 2.164 1.2252, 0.9843 2.6969 1.2252, 1.1417 2.164 1.2252, 1.2795 2.164 1.2252, 1.1417 2.6969 1.2252, 1.2795 2.9255 1.2252, 0.9646 2.9255 1.2252, 1.2795 2.164 1.9291, 1.1417 2.164 1.9291, 0.9646 2.9255 1.5354, 1.1417 2.9255 1.5354, 1.1417 2.9255 1.9291, 1.2795 2.9255 1.9291, 0.9843 2.164 1.5354, 0.9646 2.164 1.5354
            ]
        }
        coordIndex [
            0,1,2,-1,3,4,5,-1,5,4,6,-1,5,6,2,-1,2,6,7,-1,2,7,0,-1,4,3,8,-1,8,3,9,-1,10,7,11,-1,11,7,6,-1,11,6,12,-1,12,6,13,-1,1,0,14,-1,14,0,15,-1,0,7,15,-1,15,7,10,-1,
        ]
    }
}
Shape{
    appearance Appearance {
        material  Material 	{
            diffuseColor 0.0 0.0 0.0
            specularColor 0.0 0.0 0.0
            ambientIntensity 0.0
            transparency 0.0
            shininess 0.5
        }
    }
    geometry IndexedFaceSet {
        ccw TRUE
        solid FALSE
        coord DEF co Coordinate {
            point [
                -0.355 1.2553 -0.0394, -0.355 1.2553 -0.039, -0.3733 1.2084 -0.0394, -0.4318 1.0584 -0.039, -0.4318 1.0584 -0.0394, -0.403 1.0584 -0.039, -0.403 1.0584 -0.0394, -0.3831 1.1137 -0.039, -0.3831 1.1137 -0.0394, -0.3018 1.1137 -0.039, -0.3018 1.1137 -0.0394, -0.283 1.0584 -0.039, -0.283 1.0584 -0.0394, -0.2542 1.0584 -0.039, -0.2542 1.0584 -0.0394, -0.3109 1.2084 -0.0394, -0.3286 1.2553 -0.039, -0.3286 1.2553 -0.0394, -0.3084 1.1353 -0.039, -0.3742 1.1353 -0.039, -0.3378 1.2175 -0.039, -0.3397 1.2243 -0.039, -0.3409 1.2313 -0.039, -0.3416 1.2313 -0.039, -0.3429 1.2243 -0.039, -0.3446 1.2175 -0.039, -0.3084 1.1353 -0.0394, -0.3742 1.1353 -0.0394, -0.3378 1.2175 -0.0394, -0.3397 1.2243 -0.0394, -0.3409 1.2313 -0.0394, -0.3416 1.2313 -0.0394, -0.3429 1.2243 -0.0394, -0.3446 1.2175 -0.0394, -0.1349 1.0584 -0.039, -0.0813 1.0584 -0.039, -0.1349 1.0584 -0.0394, -0.0813 1.0584 -0.0394, -0.0813 1.2084 -0.0394, -0.0813 1.2553 -0.039, -0.0813 1.2553 -0.0394, -0.1369 1.2553 -0.039, -0.1369 1.2553 -0.0394, -0.2398 1.1594 -0.039, -0.2398 1.1594 -0.0394, -0.2383 1.1779 -0.0394, -0.2383 1.1779 -0.039, -0.2331 1.1973 -0.0394, -0.2331 1.1973 -0.039, -0.2271 1.2084 -0.0394, -0.2239 1.2142 -0.039, -0.2239 1.2142 -0.0394, -0.21 1.2296 -0.0394, -0.21 1.2296 -0.039, -0.2098 1.2298 -0.0394, -0.2098 1.2298 -0.039, -0.1884 1.2442 -0.0394, -0.1884 1.2442 -0.039, -0.1653 1.2523 -0.0394, -0.1653 1.2523 -0.039, -0.1592 1.0606 -0.0394, -0.1592 1.0606 -0.039, -0.1819 1.0673 -0.0394, -0.1819 1.0673 -0.039, -0.2025 1.0793 -0.0394, -0.2025 1.0793 -0.039, -0.2187 1.0948 -0.0394, -0.2187 1.0948 -0.039, -0.2299 1.1124 -0.0394, -0.2299 1.1124 -0.039, -0.237 1.133 -0.0394, -0.237 1.133 -0.039, -0.2003 1.2061 -0.039, -0.1907 1.2162 -0.039, -0.1763 1.2255 -0.039, -0.1601 1.2312 -0.039, -0.1368 1.2337 -0.039, -0.1077 1.2337 -0.039, -0.1077 1.0801 -0.039, -0.1357 1.0801 -0.039, -0.1565 1.082 -0.039, -0.173 1.0872 -0.039, -0.1864 1.0951 -0.039, -0.1975 1.106 -0.039, -0.2058 1.1196 -0.039, -0.2116 1.1381 -0.039, -0.2134 1.1588 -0.039, -0.2117 1.1784 -0.039, -0.2071 1.1939 -0.039, -0.1368 1.2337 -0.0394, -0.1077 1.2337 -0.0394, -0.1601 1.2312 -0.0394, -0.1763 1.2255 -0.0394, -0.1907 1.2162 -0.0394, -0.2003 1.2061 -0.0394, -0.2071 1.1939 -0.0394, -0.2117 1.1784 -0.0394, -0.2134 1.1588 -0.0394, -0.2116 1.1381 -0.0394, -0.2058 1.1196 -0.0394, -0.1975 1.106 -0.0394, -0.1864 1.0951 -0.0394, -0.173 1.0872 -0.0394, -0.1565 1.082 -0.0394, -0.1357 1.0801 -0.0394, -0.1077 1.0801 -0.0394, -0.0429 1.0801 -0.039, -0.0429 1.0584 -0.039, -0.0429 1.0801 -0.0394, -0.0429 1.0584 -0.0394, 0.0627 1.0584 -0.039, 0.0627 1.0584 -0.0394, 0.0627 1.2084 -0.0394, 0.0627 1.2553 -0.039, 0.0627 1.2553 -0.0394, -0.0381 1.2553 -0.039, -0.0381 1.2553 -0.0394, -0.0381 1.2337 -0.039, -0.0381 1.2337 -0.0394, 0.0363 1.2337 -0.039, 0.0363 1.2337 -0.0394, 0.0363 1.2084 -0.0394, 0.0363 1.1689 -0.039, 0.0363 1.1689 -0.0394, -0.0333 1.1689 -0.039, -0.0333 1.1689 -0.0394, -0.0333 1.1473 -0.039, -0.0333 1.1473 -0.0394, 0.0363 1.1473 -0.039, 0.0363 1.1473 -0.0394, 0.0363 1.0801 -0.039, 0.0363 1.0801 -0.0394, 0.1011 1.0903 -0.039, 0.1011 1.0687 -0.039, 0.1011 1.0903 -0.0394, 0.1011 1.0687 -0.0394, 0.1221 1.06 -0.039, 0.1553 1.056 -0.039, 0.1553 1.056 -0.0394, 0.1499 1.0561 -0.0394, 0.1499 1.0561 -0.039, 0.142 1.0572 -0.0394, 0.1221 1.06 -0.0394, 0.1669 1.0572 -0.0394, 0.1795 1.0586 -0.039, 0.1795 1.0586 -0.0394, 0.1986 1.0651 -0.039, 0.1986 1.0651 -0.0394, 0.2145 1.0752 -0.039, 0.2145 1.0752 -0.0394, 0.2292 1.0908 -0.039, 0.2292 1.0908 -0.0394, 0.2397 1.1095 -0.039, 0.2397 1.1095 -0.0394, 0.2456 1.1304 -0.039, 0.2456 1.1304 -0.0394, 0.2476 1.1532 -0.039, 0.2476 1.1532 -0.0394, 0.1474 1.2577 -0.039, 0.1474 1.2577 -0.0394, 0.1672 1.2561 -0.0394, 0.1672 1.2561 -0.039, 0.1892 1.2497 -0.0394, 0.1892 1.2497 -0.039, 0.2079 1.2389 -0.0394, 0.2079 1.2389 -0.039, 0.2256 1.2219 -0.0394, 0.2256 1.2219 -0.039, 0.2341 1.2084 -0.0394, 0.2372 1.2035 -0.039, 0.2372 1.2035 -0.0394, 0.2447 1.1811 -0.0394, 0.2447 1.1811 -0.039, 0.1011 1.2499 -0.039, 0.1011 1.2499 -0.0394, 0.1239 1.2561 -0.0394, 0.1239 1.2561 -0.039, 0.1011 1.2235 -0.039, 0.1011 1.2235 -0.0394, 0.1472 1.2361 -0.039, 0.1472 1.2361 -0.0394, 0.1233 1.233 -0.0394, 0.1233 1.233 -0.039, 0.2211 1.1548 -0.039, 0.2211 1.1548 -0.0394, 0.2202 1.1701 -0.0394, 0.2202 1.1701 -0.039, 0.215 1.1912 -0.0394, 0.215 1.1912 -0.039, 0.2068 1.2064 -0.0394, 0.2068 1.2064 -0.039, 0.205 1.2084 -0.0394, 0.195 1.2195 -0.039, 0.195 1.2195 -0.0394, 0.1813 1.2286 -0.0394, 0.1813 1.2286 -0.039, 0.1666 1.2339 -0.0394, 0.1666 1.2339 -0.039, 0.1516 1.0777 -0.039, 0.1516 1.0777 -0.0394, 0.17 1.0797 -0.0394, 0.17 1.0797 -0.039, 0.1843 1.085 -0.0394, 0.1843 1.085 -0.039, 0.1964 1.0931 -0.0394, 0.1964 1.0931 -0.039, 0.2057 1.1029 -0.0394, 0.2057 1.1029 -0.039, 0.2138 1.1165 -0.0394, 0.2138 1.1165 -0.039, 0.2192 1.1335 -0.0394, 0.2192 1.1335 -0.039, 0.1046 1.0883 -0.0394, 0.1046 1.0883 -0.039, 0.1255 1.0806 -0.0394, 0.1255 1.0806 -0.039, 0.2644 1.0801 -0.039, 0.2644 1.0584 -0.039, 0.2644 1.0801 -0.0394, 0.2644 1.0584 -0.0394, 0.3652 1.0584 -0.039, 0.3652 1.0584 -0.0394, 0.3652 1.2084 -0.0394, 0.3652 1.2553 -0.039, 0.3652 1.2553 -0.0394, 0.3388 1.2553 -0.039, 0.3388 1.2553 -0.0394, 0.3388 1.2084 -0.0394, 0.3388 1.0801 -0.039, 0.3388 1.0801 -0.0394
            ]
        }
        coordIndex [
            0,1,2,-1,2,1,3,-1,2,3,4,-1,3,5,4,-1,4,5,6,-1,5,7,6,-1,6,7,8,-1,7,9,8,-1,8,9,10,-1,9,11,10,-1,10,11,12,-1,11,13,12,-1,12,13,14,-1,14,13,15,-1,15,13,16,-1,15,16,17,-1,16,1,17,-1,17,1,0,-1,18,9,19,-1,19,9,7,-1,20,16,18,-1,18,16,13,-1,18,13,9,-1,9,13,11,-1,20,21,16,-1,16,21,22,-1,16,22,1,-1,1,22,23,-1,1,23,24,-1,24,25,1,-1,1,25,19,-1,1,19,3,-1,3,19,7,-1,3,7,5,-1,18,19,26,-1,26,19,27,-1,20,18,28,-1,28,18,26,-1,20,28,29,-1,20,29,21,-1,21,29,30,-1,21,30,22,-1,23,22,31,-1,31,22,30,-1,23,31,32,-1,23,32,24,-1,24,32,33,-1,24,33,25,-1,19,25,27,-1,27,25,33,-1,34,35,36,-1,36,35,37,-1,37,35,38,-1,38,35,39,-1,38,39,40,-1,39,41,40,-1,40,41,42,-1,43,44,45,-1,43,45,46,-1,46,45,47,-1,46,47,48,-1,48,47,49,-1,48,49,50,-1,49,51,50,-1,50,51,52,-1,50,52,53,-1,53,52,54,-1,53,54,55,-1,55,54,56,-1,55,56,57,-1,57,56,58,-1,57,58,59,-1,59,58,42,-1,59,42,41,-1,34,36,60,-1,34,60,61,-1,61,60,62,-1,61,62,63,-1,63,62,64,-1,63,64,65,-1,65,64,66,-1,65,66,67,-1,67,66,68,-1,67,68,69,-1,69,68,70,-1,69,70,71,-1,71,70,44,-1,71,44,43,-1,48,50,72,-1,72,50,53,-1,72,53,73,-1,73,53,55,-1,73,55,74,-1,74,55,57,-1,74,57,75,-1,75,57,59,-1,75,59,76,-1,76,59,41,-1,76,41,77,-1,77,41,39,-1,77,39,78,-1,78,39,35,-1,78,35,79,-1,79,35,34,-1,79,34,80,-1,80,34,61,-1,80,61,81,-1,81,61,63,-1,81,63,82,-1,82,63,65,-1,82,65,83,-1,83,65,67,-1,83,67,84,-1,84,67,69,-1,84,69,85,-1,85,69,71,-1,85,71,86,-1,86,71,43,-1,86,43,87,-1,87,43,46,-1,87,46,88,-1,88,46,48,-1,88,48,72,-1,76,77,89,-1,89,77,90,-1,76,89,91,-1,76,91,75,-1,75,91,92,-1,75,92,74,-1,74,92,93,-1,74,93,73,-1,73,93,94,-1,73,94,72,-1,72,94,95,-1,72,95,88,-1,88,95,96,-1,88,96,87,-1,87,96,97,-1,87,97,86,-1,86,97,98,-1,86,98,85,-1,85,98,99,-1,85,99,84,-1,84,99,100,-1,84,100,83,-1,83,100,101,-1,83,101,82,-1,82,101,102,-1,82,102,81,-1,81,102,103,-1,81,103,80,-1,80,103,104,-1,80,104,79,-1,78,79,105,-1,105,79,104,-1,77,78,90,-1,90,78,105,-1,106,107,108,-1,108,107,109,-1,107,110,109,-1,109,110,111,-1,111,110,112,-1,112,110,113,-1,112,113,114,-1,113,115,114,-1,114,115,116,-1,115,117,116,-1,116,117,118,-1,117,119,118,-1,118,119,120,-1,120,119,121,-1,121,119,122,-1,121,122,123,-1,122,124,123,-1,123,124,125,-1,124,126,125,-1,125,126,127,-1,126,128,127,-1,127,128,129,-1,128,130,129,-1,129,130,131,-1,130,106,131,-1,131,106,108,-1,110,107,106,-1,106,130,110,-1,110,130,128,-1,110,128,113,-1,117,115,119,-1,119,115,113,-1,119,113,122,-1,122,113,128,-1,122,128,124,-1,124,128,126,-1,132,133,134,-1,134,133,135,-1,135,133,136,-1,137,138,139,-1,137,139,140,-1,140,139,141,-1,140,141,136,-1,136,141,142,-1,136,142,135,-1,138,137,143,-1,143,137,144,-1,143,144,145,-1,145,144,146,-1,145,146,147,-1,147,146,148,-1,147,148,149,-1,149,148,150,-1,149,150,151,-1,151,150,152,-1,151,152,153,-1,153,152,154,-1,153,154,155,-1,155,154,156,-1,155,156,157,-1,158,159,160,-1,158,160,161,-1,161,160,162,-1,161,162,163,-1,163,162,164,-1,163,164,165,-1,165,164,166,-1,165,166,167,-1,167,166,168,-1,167,168,169,-1,168,170,169,-1,169,170,171,-1,169,171,172,-1,172,171,157,-1,172,157,156,-1,173,174,175,-1,173,175,176,-1,176,175,159,-1,176,159,158,-1,173,177,174,-1,174,177,178,-1,179,180,181,-1,179,181,182,-1,182,181,178,-1,182,178,177,-1,183,184,185,-1,183,185,186,-1,186,185,187,-1,186,187,188,-1,188,187,189,-1,188,189,190,-1,190,189,191,-1,190,191,192,-1,191,193,192,-1,192,193,194,-1,192,194,195,-1,195,194,196,-1,195,196,197,-1,197,196,180,-1,197,180,179,-1,198,199,200,-1,198,200,201,-1,201,200,202,-1,201,202,203,-1,203,202,204,-1,203,204,205,-1,205,204,206,-1,205,206,207,-1,207,206,208,-1,207,208,209,-1,209,208,210,-1,209,210,211,-1,211,210,184,-1,211,184,183,-1,132,134,212,-1,132,212,213,-1,213,212,214,-1,213,214,215,-1,215,214,199,-1,215,199,198,-1,201,137,198,-1,198,137,140,-1,198,140,215,-1,215,140,136,-1,215,136,213,-1,213,136,133,-1,213,133,132,-1,177,173,182,-1,182,173,176,-1,182,176,179,-1,179,176,158,-1,179,158,197,-1,197,158,161,-1,197,161,195,-1,195,161,163,-1,195,163,192,-1,192,163,165,-1,192,165,190,-1,190,165,167,-1,190,167,188,-1,188,167,169,-1,188,169,186,-1,186,169,172,-1,186,172,183,-1,183,172,156,-1,183,156,211,-1,211,156,154,-1,211,154,209,-1,209,154,152,-1,209,152,207,-1,207,152,150,-1,207,150,205,-1,205,150,148,-1,205,148,203,-1,203,148,146,-1,203,146,201,-1,201,146,144,-1,201,144,137,-1,216,217,218,-1,218,217,219,-1,217,220,219,-1,219,220,221,-1,221,220,222,-1,222,220,223,-1,222,223,224,-1,223,225,224,-1,224,225,226,-1,226,225,227,-1,227,225,228,-1,227,228,229,-1,228,216,229,-1,229,216,218,-1,225,223,228,-1,228,223,220,-1,228,220,216,-1,216,220,217,-1,
        ]
    }
}
Shape{
    appearance Appearance {
        material  Material 	{
            diffuseColor 0.5019607843137255 0.5019607843137255 0.5019607843137255
            specularColor 0.25098039215686274 0.25098039215686274 0.25098039215686274
            ambientIntensity 0.502
            transparency 0.0
            shininess 0.5
        }
    }
    geometry IndexedFaceSet {
        ccw TRUE
        solid FALSE
        coord DEF co Coordinate {
            point [
                -0.3084 1.1353 -0.0394, -0.3742 1.1353 -0.0394, -0.3378 1.2175 -0.0394, -0.3446 1.2175 -0.0394, -0.3397 1.2243 -0.0394, -0.3429 1.2243 -0.0394, -0.3409 1.2313 -0.0394, -0.3416 1.2313 -0.0394, -0.1077 1.2337 -0.0394, -0.1077 1.0801 -0.0394, -0.1368 1.2337 -0.0394, -0.1357 1.0801 -0.0394, -0.1565 1.082 -0.0394, -0.2134 1.1588 -0.0394, -0.2117 1.1784 -0.0394, -0.2071 1.1939 -0.0394, -0.1601 1.2312 -0.0394, -0.173 1.0872 -0.0394, -0.1864 1.0951 -0.0394, -0.1975 1.106 -0.0394, -0.2058 1.1196 -0.0394, -0.2116 1.1381 -0.0394, -0.2003 1.2061 -0.0394, -0.1907 1.2162 -0.0394, -0.1763 1.2255 -0.0394, 0.0394 -1.9882 1.9291, 0.1966 -2.0669 1.8366, 0.2103 -1.9882 1.9142, 0.3491 -2.0669 1.7958, 0.376 -1.9882 1.8698, 0.4921 -2.0669 1.7291, 0.5315 -1.9882 1.7973, 0.6214 -2.0669 1.6385, 0.672 -1.9882 1.6989, 0.733 -2.0669 1.5269, 0.7934 -1.9882 1.5775, 0.8236 -2.0669 1.3976, 0.8918 -1.9882 1.437, 0.8903 -2.0669 1.2546, 0.9643 -1.9882 1.2815, 0.9311 -2.0669 1.1021, 1.0087 -1.9882 1.1158, 0.9449 -2.0669 0.9449, 1.0236 -1.9882 0.9449, 0.9311 -2.0669 0.7876, 1.0087 -1.9882 0.774, 0.8903 -2.0669 0.6352, 0.9643 -1.9882 0.6082, 0.8236 -2.0669 0.4921, 0.8918 -1.9882 0.4528, 0.733 -2.0669 0.3628, 0.7934 -1.9882 0.3122, 0.6214 -2.0669 0.2512, 0.672 -1.9882 0.1909, 0.4921 -2.0669 0.1607, 0.5315 -1.9882 0.0925, 0.3491 -2.0669 0.094, 0.376 -1.9882 0.02, 0.1966 -2.0669 0.0531, 0.2103 -1.9882 -0.0244, 0.0394 -2.0669 0.0394, 0.0394 -1.9882 -0.0394, -0.1179 -2.0669 0.0531, -0.1315 -1.9882 -0.0244, -0.2703 -2.0669 0.094, -0.2973 -1.9882 0.02, -0.4134 -2.0669 0.1607, -0.4528 -1.9882 0.0925, -0.5427 -2.0669 0.2512, -0.5933 -1.9882 0.1909, -0.6543 -2.0669 0.3628, -0.7146 -1.9882 0.3122, -0.7448 -2.0669 0.4921, -0.813 -1.9882 0.4528, -0.8115 -2.0669 0.6352, -0.8855 -1.9882 0.6082, -0.8524 -2.0669 0.7876, -0.9299 -1.9882 0.774, -0.8661 -2.0669 0.9449, -0.9449 -1.9882 0.9449, -0.8524 -2.0669 1.1021, -0.9299 -1.9882 1.1158, -0.8115 -2.0669 1.2546, -0.8855 -1.9882 1.2815, -0.7448 -2.0669 1.3976, -0.813 -1.9882 1.437, -0.6543 -2.0669 1.5269, -0.7146 -1.9882 1.5775, -0.5427 -2.0669 1.6385, -0.5933 -1.9882 1.6989, -0.4134 -2.0669 1.7291, -0.4528 -1.9882 1.7973, -0.2703 -2.0669 1.7958, -0.2973 -1.9882 1.8698, -0.1179 -2.0669 1.8366, -0.1315 -1.9882 1.9142, 0.0394 -2.0669 1.8504, -0.262 -2.0669 0.2174, -0.1142 -2.0669 0.1726, -0.1077 -1.9882 0.2525, -0.2318 -1.9882 0.2902, -0.2481 -1.9882 0.2989, -0.3981 -2.0669 0.2902, -0.3543 -1.9882 0.3557, -0.3758 -1.9882 0.3733, -0.5174 -2.0669 0.3881, -0.4617 -1.9882 0.4438, -0.4852 -1.9882 0.4724, -0.6153 -2.0669 0.5074, -0.5499 -1.9882 0.5512, -0.5717 -1.9882 0.592, -0.6881 -2.0669 0.6436, -0.6153 -1.9882 0.6737, -0.6315 -1.9882 0.7268, -0.7329 -2.0669 0.7913, -0.6557 -1.9882 0.8066, -0.662 -1.9882 0.8711, -0.748 -2.0669 0.9449, -0.6693 -1.9882 0.9449, -0.7329 -2.0669 1.0985, -0.662 -1.9882 1.0186, -0.6557 -1.9882 1.0831, -0.6315 -1.9882 1.1629, -0.6881 -2.0669 1.2462, -0.6153 -1.9882 1.2161, -0.5717 -1.9882 1.2978, -0.6153 -2.0669 1.3823, -0.5499 -1.9882 1.3386, -0.4852 -1.9882 1.4174, -0.5174 -2.0669 1.5017, -0.4617 -1.9882 1.446, -0.3758 -1.9882 1.5165, -0.3981 -2.0669 1.5996, -0.3543 -1.9882 1.5341, -0.2481 -1.9882 1.5909, -0.262 -2.0669 1.6723, -0.2318 -1.9882 1.5996, -0.1077 -1.9882 1.6372, -0.1142 -2.0669 1.7172, -0.0989 -1.9882 1.6399, 0.0394 -2.0669 1.7323, 0.0394 -1.9882 1.6535, 0.193 -2.0669 1.7172, 0.1776 -1.9882 1.6399, 0.1865 -1.9882 1.6372, 0.3407 -2.0669 1.6723, 0.3106 -1.9882 1.5996, 0.3269 -1.9882 1.5909, 0.4768 -2.0669 1.5996, 0.4331 -1.9882 1.5341, 0.4545 -1.9882 1.5165, 0.5961 -2.0669 1.5017, 0.5405 -1.9882 1.446, 0.5639 -1.9882 1.4174, 0.6941 -2.0669 1.3823, 0.6286 -1.9882 1.3386, 0.6504 -1.9882 1.2978, 0.7668 -2.0669 1.2462, 0.6941 -1.9882 1.2161, 0.7102 -1.9882 1.1629, 0.8116 -2.0669 1.0985, 0.7344 -1.9882 1.0831, 0.7408 -1.9882 1.0186, 0.8268 -2.0669 0.9449, 0.748 -1.9882 0.9449, 0.8116 -2.0669 0.7913, 0.7408 -1.9882 0.8711, 0.7344 -1.9882 0.8066, 0.7102 -1.9882 0.7268, 0.7668 -2.0669 0.6436, 0.6941 -1.9882 0.6737, 0.6504 -1.9882 0.592, 0.6941 -2.0669 0.5074, 0.6286 -1.9882 0.5512, 0.5639 -1.9882 0.4724, 0.5961 -2.0669 0.3881, 0.5405 -1.9882 0.4438, 0.4545 -1.9882 0.3733, 0.4768 -2.0669 0.2902, 0.4331 -1.9882 0.3557, 0.3269 -1.9882 0.2989, 0.3407 -2.0669 0.2174, 0.3106 -1.9882 0.2902, 0.1865 -1.9882 0.2525, 0.193 -2.0669 0.1726, 0.1776 -1.9882 0.2498, 0.0394 -2.0669 0.1575, 0.0394 -1.9882 0.2362, -0.0989 -1.9882 0.2498
            ]
        }
        coordIndex [
            0,1,2,-1,2,1,3,-1,2,3,4,-1,4,3,5,-1,4,5,6,-1,6,5,7,-1,8,9,10,-1,10,9,11,-1,10,11,12,-1,13,14,10,-1,10,14,15,-1,10,15,16,-1,12,17,10,-1,10,17,18,-1,10,18,19,-1,19,20,10,-1,10,20,21,-1,10,21,13,-1,22,23,15,-1,15,23,24,-1,15,24,16,-1,25,26,27,-1,27,26,28,-1,27,28,29,-1,29,28,30,-1,29,30,31,-1,31,30,32,-1,31,32,33,-1,33,32,34,-1,33,34,35,-1,35,34,36,-1,35,36,37,-1,37,36,38,-1,37,38,39,-1,39,38,40,-1,39,40,41,-1,41,40,42,-1,41,42,43,-1,43,42,44,-1,43,44,45,-1,45,44,46,-1,45,46,47,-1,47,46,48,-1,47,48,49,-1,49,48,50,-1,49,50,51,-1,51,50,52,-1,51,52,53,-1,53,52,54,-1,53,54,55,-1,55,54,56,-1,55,56,57,-1,57,56,58,-1,57,58,59,-1,59,58,60,-1,59,60,61,-1,61,60,62,-1,61,62,63,-1,63,62,64,-1,63,64,65,-1,65,64,66,-1,65,66,67,-1,67,66,68,-1,67,68,69,-1,69,68,70,-1,69,70,71,-1,71,70,72,-1,71,72,73,-1,73,72,74,-1,73,74,75,-1,75,74,76,-1,75,76,77,-1,77,76,78,-1,77,78,79,-1,79,78,80,-1,79,80,81,-1,81,80,82,-1,81,82,83,-1,83,82,84,-1,83,84,85,-1,85,84,86,-1,85,86,87,-1,87,86,88,-1,87,88,89,-1,89,88,90,-1,89,90,91,-1,91,90,92,-1,91,92,93,-1,93,92,94,-1,93,94,95,-1,95,94,96,-1,95,96,25,-1,25,96,26,-1,97,98,99,-1,99,100,97,-1,97,100,101,-1,97,101,102,-1,101,103,102,-1,102,103,104,-1,102,104,105,-1,104,106,105,-1,105,106,107,-1,105,107,108,-1,107,109,108,-1,108,109,110,-1,108,110,111,-1,110,112,111,-1,111,112,113,-1,111,113,114,-1,113,115,114,-1,114,115,116,-1,114,116,117,-1,117,116,118,-1,117,118,119,-1,119,118,120,-1,120,121,119,-1,119,121,122,-1,119,122,123,-1,122,124,123,-1,123,124,125,-1,123,125,126,-1,125,127,126,-1,126,127,128,-1,126,128,129,-1,128,130,129,-1,129,130,131,-1,129,131,132,-1,131,133,132,-1,132,133,134,-1,132,134,135,-1,134,136,135,-1,135,136,137,-1,135,137,138,-1,138,137,139,-1,138,139,140,-1,140,139,141,-1,140,141,142,-1,141,143,142,-1,142,143,144,-1,142,144,145,-1,144,146,145,-1,145,146,147,-1,145,147,148,-1,147,149,148,-1,148,149,150,-1,148,150,151,-1,150,152,151,-1,151,152,153,-1,151,153,154,-1,153,155,154,-1,154,155,156,-1,154,156,157,-1,156,158,157,-1,157,158,159,-1,157,159,160,-1,159,161,160,-1,160,161,162,-1,160,162,163,-1,163,162,164,-1,163,164,165,-1,165,164,166,-1,166,167,165,-1,165,167,168,-1,165,168,169,-1,168,170,169,-1,169,170,171,-1,169,171,172,-1,171,173,172,-1,172,173,174,-1,172,174,175,-1,174,176,175,-1,175,176,177,-1,175,177,178,-1,177,179,178,-1,178,179,180,-1,178,180,181,-1,180,182,181,-1,181,182,183,-1,181,183,184,-1,184,183,185,-1,184,185,186,-1,186,185,187,-1,186,187,98,-1,98,187,188,-1,98,188,99,-1,
        ]
    }
}
Shape{
    appearance Appearance {
        material  Material 	{
            diffuseColor 1.0 1.0 1.0
            specularColor 0.5019607843137255 0.5019607843137255 0.5019607843137255
            ambientIntensity 1.0
            transparency 0.0
            shininess 0.5
        }
    }
    geometry IndexedFaceSet {
        ccw TRUE
        solid FALSE
        coord DEF co Coordinate {
            point [
                -1.0433 0.6102 0.4331, -0.9252 0.6102 0.4331, -1.0433 0.6496 0.4331, -0.9252 0.6496 0.4331, -1.0433 0.6496 0.8014, -1.0433 0.9646 0.8014, -1.0433 0.5315 -0.1181, -1.0433 0.5315 1.811, -1.0433 0.6102 1.6142, -1.0433 1.0039 1.6142, -1.0433 1.0827 1.811, -1.0433 1.0039 0.4331, -1.0433 1.0827 -0.1181, -1.0433 0.9646 0.4331, -1.0433 1.002 -0.313, -1.0433 1.0362 -0.2712, -1.0433 1.0617 -0.2236, -1.0433 0.9602 -0.3473, -1.0433 0.9126 -0.3727, -1.0433 0.8609 -0.3884, -1.0433 0.8071 -0.3937, -1.0433 0.7533 -0.3884, -1.0433 0.7016 -0.3727, -1.0433 1.0774 -0.1719, -1.0433 0.654 -0.3473, -1.0433 0.6122 -0.313, -1.0433 0.5779 -0.2712, -1.0433 0.5525 -0.2236, -1.0433 0.5368 -0.1719, -0.9252 0.9646 0.7806, -0.9252 0.6496 0.7806, -0.9252 0.9646 0.4331, -0.9252 0.5315 -0.1181, -0.9252 0.5779 -0.2712, -0.9252 0.6122 -0.313, -0.9252 0.7533 -0.3884, -0.9252 0.8071 -0.3937, -0.9252 0.5525 -0.2236, -0.9252 0.8609 -0.3884, -0.9252 0.9126 -0.3727, -0.9252 0.9602 -0.3473, -0.9252 1.002 -0.313, -0.9252 1.0362 -0.2712, -0.9252 1.0617 -0.2236, -0.9252 0.5315 1.811, -0.9252 0.6102 1.6142, -0.9252 1.0827 1.811, -0.9252 0.654 -0.3473, -0.9252 0.7016 -0.3727, -0.9252 1.0774 -0.1719, -0.9252 1.0827 -0.1181, -0.9252 1.0039 0.4331, -0.9252 1.0039 1.6142, -0.9252 0.5368 -0.1719, -0.5933 0.6496 1.6941, -0.5933 0.9646 1.6941, -0.7043 0.6496 1.7344, -0.7043 0.9646 1.7344, 1.122 -0.1772 0.6709, 1.122 -0.0591 -0.1181, 1.122 -0.0591 1.811, 1.122 -0.6102 -0.1181, 1.122 -0.4921 0.6709, 1.122 -0.6102 1.811, 1.122 -0.4921 1.6142, 1.122 -0.1772 1.6142, 1.122 -0.5295 -0.313, 1.122 -0.4878 -0.3473, 1.122 -0.1398 -0.313, 1.122 -0.1055 -0.2712, 1.122 -0.08 -0.2236, 1.122 -0.6049 -0.1719, 1.122 -0.5638 -0.2712, 1.122 -0.0643 -0.1719, 1.122 -0.5893 -0.2236, 1.122 -0.2809 -0.3884, 1.122 -0.2292 -0.3727, 1.122 -0.3346 -0.3937, 1.122 -0.3884 -0.3884, 1.122 -0.4401 -0.3727, 1.122 -0.1815 -0.3473, 1.0039 -0.6102 1.811, 1.0039 -0.0591 1.811, 1.0039 -0.1772 0.6709, 1.0039 -0.1772 1.1314, 1.0039 -0.1772 1.6142, 1.0039 -0.4921 1.6142, 1.0039 -0.0591 -0.1181, 1.0039 -0.6049 -0.1719, 1.0039 -0.6102 -0.1181, 1.0039 -0.4921 0.6709, 1.0039 -0.4921 1.1314, 1.0039 -0.0643 -0.1719, 1.0039 -0.08 -0.2236, 1.0039 -0.1055 -0.2712, 1.0039 -0.1398 -0.313, 1.0039 -0.1815 -0.3473, 1.0039 -0.2292 -0.3727, 1.0039 -0.4878 -0.3473, 1.0039 -0.4401 -0.3727, 1.0039 -0.3884 -0.3884, 1.0039 -0.2809 -0.3884, 1.0039 -0.3346 -0.3937, 1.0039 -0.5295 -0.313, 1.0039 -0.5638 -0.2712, 1.0039 -0.5893 -0.2236, 1.1203 -0.4921 0.697, 1.1151 -0.4921 0.7226, 1.1203 -0.1772 0.697, 1.1151 -0.1772 0.7226, 0.8128 -0.1772 1.8339, 0.8128 -0.4921 1.8339, 0.6989 -0.4921 1.8029, 0.6989 -0.1772 1.8029, 1.0012 -0.4921 0.6916, 1.0012 -0.1772 0.6916, 1.0032 -0.4921 0.6814, 1.0032 -0.1772 0.6814
            ]
        }
        coordIndex [
            0,1,2,-1,2,1,3,-1,2,4,5,-1,6,7,0,-1,0,7,8,-1,8,7,9,-1,9,7,10,-1,9,10,11,-1,11,10,12,-1,11,12,13,-1,14,0,15,-1,15,0,16,-1,14,17,0,-1,0,17,18,-1,0,18,19,-1,19,20,0,-1,0,20,21,-1,0,21,22,-1,5,13,2,-1,2,13,12,-1,2,12,0,-1,0,12,23,-1,0,23,16,-1,22,24,0,-1,0,24,25,-1,0,25,26,-1,26,27,0,-1,0,27,28,-1,0,28,6,-1,29,30,31,-1,31,30,3,-1,3,1,32,-1,33,34,31,-1,31,35,36,-1,33,31,37,-1,36,38,31,-1,31,38,39,-1,31,39,40,-1,40,41,31,-1,31,41,42,-1,31,42,43,-1,32,1,44,-1,44,1,45,-1,44,45,46,-1,34,47,31,-1,31,47,48,-1,31,48,35,-1,43,49,31,-1,31,49,50,-1,31,50,51,-1,51,50,46,-1,51,46,52,-1,52,46,45,-1,3,32,31,-1,31,32,53,-1,31,53,37,-1,7,44,10,-1,10,44,46,-1,32,44,6,-1,6,44,7,-1,12,10,50,-1,50,10,46,-1,8,9,45,-1,45,9,52,-1,9,11,52,-1,52,11,51,-1,31,51,13,-1,13,51,11,-1,0,8,1,-1,1,8,45,-1,54,30,55,-1,55,30,29,-1,56,54,57,-1,57,54,55,-1,4,56,5,-1,5,56,57,-1,54,56,30,-1,30,56,4,-1,30,4,3,-1,3,4,2,-1,31,13,29,-1,29,13,5,-1,29,5,55,-1,55,5,57,-1,20,36,35,-1,20,35,21,-1,21,35,48,-1,21,48,22,-1,22,48,47,-1,22,47,24,-1,24,47,34,-1,24,34,25,-1,25,34,33,-1,25,33,26,-1,26,33,37,-1,26,37,27,-1,27,37,53,-1,27,53,28,-1,28,53,32,-1,28,32,6,-1,36,20,19,-1,36,19,38,-1,38,19,18,-1,38,18,39,-1,39,18,17,-1,39,17,40,-1,40,17,14,-1,40,14,41,-1,41,14,15,-1,41,15,42,-1,42,15,16,-1,42,16,43,-1,43,16,23,-1,43,23,49,-1,49,23,12,-1,49,12,50,-1,58,59,60,-1,61,62,63,-1,63,62,64,-1,63,64,60,-1,60,64,65,-1,60,65,58,-1,66,67,68,-1,69,70,71,-1,66,68,72,-1,70,73,71,-1,71,73,59,-1,71,59,61,-1,61,59,58,-1,61,58,62,-1,69,71,68,-1,68,71,74,-1,68,74,72,-1,75,76,77,-1,77,76,78,-1,67,79,68,-1,68,79,78,-1,68,78,80,-1,80,78,76,-1,81,63,82,-1,82,63,60,-1,83,84,82,-1,82,84,85,-1,82,85,81,-1,81,85,86,-1,87,88,89,-1,82,87,83,-1,83,87,89,-1,83,89,90,-1,90,89,81,-1,90,81,91,-1,91,81,86,-1,87,92,88,-1,88,92,93,-1,88,93,94,-1,94,95,88,-1,88,95,96,-1,88,96,97,-1,98,88,99,-1,99,88,100,-1,97,101,88,-1,88,101,102,-1,88,102,100,-1,98,103,88,-1,88,103,104,-1,88,104,105,-1,61,63,89,-1,89,63,81,-1,87,82,59,-1,59,82,60,-1,65,64,85,-1,85,64,86,-1,64,62,106,-1,64,106,86,-1,86,106,107,-1,86,107,91,-1,108,58,65,-1,85,84,65,-1,65,84,109,-1,65,109,108,-1,110,111,84,-1,84,111,91,-1,84,91,109,-1,109,91,107,-1,112,111,113,-1,113,111,110,-1,114,112,115,-1,115,112,113,-1,114,115,116,-1,116,115,117,-1,116,117,90,-1,90,117,83,-1,62,58,108,-1,62,108,106,-1,106,108,109,-1,106,109,107,-1,116,90,91,-1,111,112,91,-1,91,112,114,-1,91,114,116,-1,84,83,117,-1,84,117,110,-1,110,117,115,-1,110,115,113,-1,102,77,78,-1,102,78,100,-1,100,78,79,-1,100,79,99,-1,99,79,67,-1,99,67,98,-1,98,67,66,-1,98,66,103,-1,103,66,72,-1,103,72,104,-1,104,72,74,-1,104,74,105,-1,105,74,71,-1,105,71,88,-1,88,71,61,-1,88,61,89,-1,77,102,101,-1,77,101,75,-1,75,101,97,-1,75,97,76,-1,76,97,96,-1,76,96,80,-1,80,96,95,-1,80,95,68,-1,68,95,94,-1,68,94,69,-1,69,94,93,-1,69,93,70,-1,70,93,92,-1,70,92,73,-1,73,92,87,-1,73,87,59,-1,
        ]
    }
}