#VRML V2.0 utf8
# 3D model generated by easyeda2kicad.py (https://github.com/uPesy/easyeda2kicad.py)

Shape{
    appearance Appearance {
        material  Material 	{
            diffuseColor 1.0 1.0 1.0
            specularColor 0.5019607843137255 0.5019607843137255 0.5019607843137255
            ambientIntensity 1.0
            transparency 0.0
            shininess 0.5
        }
    }
    geometry IndexedFaceSet {
        ccw TRUE
        solid FALSE
        coord DEF co Coordinate {
            point [
                1.6142 0.5925 0.3937, 1.5748 0.5925 0.3937, 1.6142 0.1201 0.3937, 1.5748 0.1201 0.3937, 0.9646 0.5925 0.0, 1.5945 0.5925 0.0, 0.9646 -0.5886 0.0, 1.5945 -0.5886 0.0, 0.9646 0.5925 0.0984, 0.9646 -0.5886 0.0984, 1.5748 0.5925 0.0984, 1.5748 -0.5886 0.0984, 1.5748 0.1201 0.2756, 1.5748 -0.1161 0.2756, 1.5748 -0.1161 0.3937, 1.5748 -0.5886 0.3937, 1.6142 -0.1161 0.3937, 1.6142 -0.5886 0.3937, 1.6732 -0.1161 0.3346, 1.6732 -0.5886 0.3346, 1.6732 -0.1161 0.2756, 1.6732 -0.5886 0.0787, 1.6732 0.1201 0.2756, 1.6732 0.5925 0.0787, 1.6732 0.1201 0.3346, 1.6732 0.5925 0.3346, 1.6705 -0.5886 0.0584, 1.6705 0.5925 0.0584, 1.6627 -0.5886 0.0394, 1.6627 0.5925 0.0394, 1.6502 -0.5886 0.0231, 1.6502 0.5925 0.0231, 1.6339 -0.5886 0.0105, 1.6339 0.5925 0.0105, 1.6149 -0.5886 0.0027, 1.6149 0.5925 0.0027, 1.6712 0.5925 0.3499, 1.6437 0.5925 0.3858, 1.6559 0.5925 0.3764, 1.6653 0.5925 0.3642, 1.6295 0.5925 0.3917, 1.6653 -0.5886 0.3642, 1.6559 -0.5886 0.3764, 1.6437 -0.5886 0.3858, 1.6712 -0.5886 0.3499, 1.6295 -0.5886 0.3917, 1.6712 0.1201 0.3499, 1.6653 0.1201 0.3642, 1.6559 0.1201 0.3764, 1.6437 0.1201 0.3858, 1.6295 0.1201 0.3917, 1.6712 -0.1161 0.3499, 1.6295 -0.1161 0.3917, 1.6437 -0.1161 0.3858, 1.6559 -0.1161 0.3764, 1.6653 -0.1161 0.3642, -1.6142 0.1201 0.3937, -1.5748 0.1201 0.3937, -1.6142 0.5925 0.3937, -1.5748 0.5925 0.3937, -1.5945 0.5925 0.0, -0.9646 0.5925 0.0, -1.5945 -0.5886 0.0, -0.9646 -0.5886 0.0, -0.9646 0.5925 0.0984, -0.9646 -0.5886 0.0984, -1.5748 0.5925 0.0984, -1.5748 -0.5886 0.0984, -1.5748 -0.1161 0.3937, -1.5748 -0.5886 0.3937, -1.5748 -0.1161 0.2756, -1.5748 0.1201 0.2756, -1.6142 -0.5886 0.3937, -1.6142 -0.1161 0.3937, -1.6732 0.1201 0.3346, -1.6732 0.5925 0.3346, -1.6732 0.1201 0.2756, -1.6732 0.5925 0.0787, -1.6732 -0.1161 0.2756, -1.6732 -0.5886 0.0787, -1.6732 -0.1161 0.3346, -1.6732 -0.5886 0.3346, -1.6149 -0.5886 0.0027, -1.6149 0.5925 0.0027, -1.6339 -0.5886 0.0105, -1.6339 0.5925 0.0105, -1.6502 -0.5886 0.0231, -1.6502 0.5925 0.0231, -1.6627 -0.5886 0.0394, -1.6627 0.5925 0.0394, -1.6705 -0.5886 0.0584, -1.6705 0.5925 0.0584, -1.6653 0.5925 0.3642, -1.6559 0.5925 0.3764, -1.6437 0.5925 0.3858, -1.6712 0.5925 0.3499, -1.6295 0.5925 0.3917, -1.6712 -0.5886 0.3499, -1.6437 -0.5886 0.3858, -1.6559 -0.5886 0.3764, -1.6653 -0.5886 0.3642, -1.6295 -0.5886 0.3917, -1.6712 0.1201 0.3499, -1.6295 0.1201 0.3917, -1.6437 0.1201 0.3858, -1.6559 0.1201 0.3764, -1.6653 0.1201 0.3642, -1.6712 -0.1161 0.3499, -1.6653 -0.1161 0.3642, -1.6559 -0.1161 0.3764, -1.6437 -0.1161 0.3858, -1.6295 -0.1161 0.3917
            ]
        }
        coordIndex [
            0,1,2,-1,2,1,3,-1,4,5,6,-1,6,5,7,-1,8,4,9,-1,9,4,6,-1,10,8,11,-1,11,8,9,-1,3,1,12,-1,12,1,10,-1,12,10,13,-1,13,10,11,-1,13,11,14,-1,14,11,15,-1,16,14,17,-1,17,14,15,-1,18,19,20,-1,20,19,21,-1,20,21,22,-1,22,21,23,-1,22,23,24,-1,24,23,25,-1,23,21,26,-1,23,26,27,-1,27,26,28,-1,27,28,29,-1,29,28,30,-1,29,30,31,-1,31,30,32,-1,31,32,33,-1,33,32,34,-1,33,34,35,-1,35,34,7,-1,35,7,5,-1,4,8,5,-1,5,8,10,-1,5,10,35,-1,35,10,33,-1,36,25,0,-1,0,25,1,-1,37,38,39,-1,27,29,10,-1,10,29,31,-1,10,31,33,-1,1,25,10,-1,10,25,23,-1,10,23,27,-1,36,0,39,-1,39,0,40,-1,39,40,37,-1,9,6,11,-1,11,6,7,-1,11,7,34,-1,28,26,11,-1,11,26,21,-1,11,21,15,-1,15,21,19,-1,15,19,17,-1,34,32,11,-1,11,32,30,-1,11,30,28,-1,41,42,43,-1,19,44,17,-1,17,44,41,-1,17,41,45,-1,45,41,43,-1,22,24,12,-1,12,24,46,-1,46,47,12,-1,12,47,48,-1,12,48,49,-1,49,50,12,-1,12,50,2,-1,12,2,3,-1,20,22,13,-1,13,22,12,-1,18,20,13,-1,18,13,51,-1,14,16,13,-1,13,16,52,-1,13,52,53,-1,53,54,13,-1,13,54,55,-1,13,55,51,-1,24,25,36,-1,24,36,46,-1,46,36,39,-1,46,39,47,-1,47,39,38,-1,47,38,48,-1,48,38,37,-1,48,37,49,-1,49,37,40,-1,49,40,50,-1,50,40,0,-1,50,0,2,-1,19,18,51,-1,19,51,44,-1,44,51,55,-1,44,55,41,-1,41,55,54,-1,41,54,42,-1,42,54,53,-1,42,53,43,-1,43,53,52,-1,43,52,45,-1,45,52,16,-1,45,16,17,-1,56,57,58,-1,58,57,59,-1,60,61,62,-1,62,61,63,-1,61,64,63,-1,63,64,65,-1,64,66,65,-1,65,66,67,-1,68,69,70,-1,70,69,67,-1,70,67,71,-1,71,67,66,-1,71,66,57,-1,57,66,59,-1,72,69,73,-1,73,69,68,-1,74,75,76,-1,76,75,77,-1,76,77,78,-1,78,77,79,-1,78,79,80,-1,80,79,81,-1,60,62,82,-1,60,82,83,-1,83,82,84,-1,83,84,85,-1,85,84,86,-1,85,86,87,-1,87,86,88,-1,87,88,89,-1,89,88,90,-1,89,90,91,-1,91,90,79,-1,91,79,77,-1,64,61,66,-1,66,61,60,-1,66,60,83,-1,89,91,66,-1,66,91,77,-1,66,77,59,-1,59,77,75,-1,59,75,58,-1,83,85,66,-1,66,85,87,-1,66,87,89,-1,92,93,94,-1,75,95,58,-1,58,95,92,-1,58,92,96,-1,96,92,94,-1,88,86,67,-1,63,65,62,-1,62,65,67,-1,88,67,90,-1,86,84,67,-1,67,84,82,-1,67,82,62,-1,97,81,72,-1,72,81,69,-1,69,81,67,-1,67,81,79,-1,67,79,90,-1,98,99,100,-1,97,72,100,-1,100,72,101,-1,100,101,98,-1,74,76,71,-1,74,71,102,-1,57,56,71,-1,71,56,103,-1,71,103,104,-1,104,105,71,-1,71,105,106,-1,71,106,102,-1,76,78,71,-1,71,78,70,-1,78,80,70,-1,70,80,107,-1,107,108,70,-1,70,108,109,-1,70,109,110,-1,110,111,70,-1,70,111,73,-1,70,73,68,-1,56,58,96,-1,56,96,103,-1,103,96,94,-1,103,94,104,-1,104,94,93,-1,104,93,105,-1,105,93,92,-1,105,92,106,-1,106,92,95,-1,106,95,102,-1,102,95,75,-1,102,75,74,-1,72,73,111,-1,72,111,101,-1,101,111,110,-1,101,110,98,-1,98,110,109,-1,98,109,99,-1,99,109,108,-1,99,108,100,-1,100,108,107,-1,100,107,97,-1,97,107,80,-1,97,80,81,-1,
        ]
    }
}
Shape{
    appearance Appearance {
        material  Material 	{
            diffuseColor 0.5019607843137255 0.5019607843137255 0.5019607843137255
            specularColor 0.25098039215686274 0.25098039215686274 0.25098039215686274
            ambientIntensity 0.502
            transparency 0.0
            shininess 0.5
        }
    }
    geometry IndexedFaceSet {
        ccw TRUE
        solid FALSE
        coord DEF co Coordinate {
            point [
                -1.0 -1.5728 0.8422, -1.0 -1.5728 0.8105, -0.9229 -1.5728 0.8105, -1.0 -1.5728 0.9693, -1.0 -1.5728 0.9458, -0.9229 -1.5728 0.9458, -0.8923 -1.5728 1.0499, -0.8863 -1.5728 1.0507, -0.9181 -1.5728 1.0507, -0.8354 -1.5728 1.0408, -0.8354 -1.5728 1.0152, -0.8137 -1.5728 1.0152, -0.8305 -1.5728 0.8426, -0.8337 -1.5728 0.8422, -0.8137 -1.5728 0.8422, -0.7351 -1.5728 0.879, -0.7351 -1.5728 0.852, -0.7201 -1.5728 0.852, -1.0694 -1.5728 0.9876, -1.0539 -1.5728 0.9745, -1.0 -1.5728 1.0507, -1.1325 -1.5728 1.0507, -1.1198 -1.5728 1.0419, -1.0998 -1.5728 1.0183, -1.0891 -1.5728 0.9969, -1.0863 -1.5728 0.996, -1.1973 -1.5728 1.0715, -1.1696 -1.5728 1.0681, -1.0 -1.5728 1.1614, -1.1415 -1.5728 1.057, -1.2223 -1.5728 1.0688, -1.446 -1.5728 1.1614, -1.2488 -1.5728 1.0594, -1.446 -1.5728 1.0507, -1.3261 -1.5728 1.0226, -1.3037 -1.5728 1.0254, -1.446 -1.5728 0.9693, -1.3879 -1.5728 0.9693, -1.3829 -1.5728 0.9805, -1.3692 -1.5728 0.9981, -1.2633 -1.5728 1.0507, -1.2656 -1.5728 1.0493, -1.279 -1.5728 1.0378, -1.2972 -1.5728 1.025, -1.2906 -1.5728 1.0242, -1.3653 -1.5728 1.0018, -1.3472 -1.5728 1.0145, -1.3265 -1.5728 0.8438, -1.3341 -1.5728 0.8461, -1.446 -1.5728 0.8422, -1.3546 -1.5728 0.8562, -1.372 -1.5728 0.8711, -1.3851 -1.5728 0.8897, -1.3932 -1.5728 0.9109, -1.446 -1.5728 0.9458, -1.396 -1.5728 0.9332, -1.3958 -1.5728 0.9386, -1.3945 -1.5728 0.9458, -1.392 -1.5728 0.96, -1.3012 -1.5728 0.8127, -1.3123 -1.5728 0.8211, -1.446 -1.5728 0.8105, -1.3208 -1.5728 0.8316, -1.3258 -1.5728 0.8422, -1.2724 -1.5728 0.8051, -1.446 -1.5728 0.0394, -1.2586 -1.5728 0.8068, -1.0 -1.5728 0.0394, -1.2488 -1.5728 0.8105, -1.2746 -1.5728 0.8051, -1.2881 -1.5728 0.8072, -1.296 -1.5728 0.8105, -1.2191 -1.5728 0.8422, -1.2191 -1.5728 0.842, -1.2258 -1.5728 0.8293, -1.2346 -1.5728 0.8195, -1.2459 -1.5728 0.8116, -1.0353 -1.5728 0.9409, -1.0327 -1.5728 0.9223, -1.1464 -1.5728 0.8758, -1.1425 -1.5728 0.8774, -1.1358 -1.5728 0.9098, -1.0538 -1.5728 0.8683, -1.0693 -1.5728 0.8551, -1.2297 -1.5728 0.9001, -1.1534 -1.5728 0.94, -1.2397 -1.5728 0.9092, -1.2517 -1.5728 0.9157, -1.1499 -1.5728 0.8733, -1.0425 -1.5728 0.884, -1.0683 -1.5728 0.9267, -1.071 -1.5728 0.9377, -1.0754 -1.5728 0.9458, -1.3587 -1.5728 0.9458, -1.0354 -1.5728 0.902, -1.1381 -1.5728 0.8779, -1.1375 -1.5728 0.8779, -1.1358 -1.5728 0.8775, -1.3553 -1.5728 0.9116, -1.3485 -1.5728 0.9, -1.3196 -1.5728 0.8942, -1.3383 -1.5728 0.8896, -1.3259 -1.5728 0.8819, -1.2986 -1.5728 0.913, -1.3102 -1.5728 0.9049, -1.3601 -1.5728 0.9343, -1.3594 -1.5728 0.9255, -1.286 -1.5728 0.9178, -1.2724 -1.5728 0.9195, -1.2655 -1.5728 0.9191, -1.1557 -1.5728 0.8603, -1.1556 -1.5728 0.8625, -1.2155 -1.5728 0.8677, -1.1544 -1.5728 0.8669, -1.1522 -1.5728 0.8707, -1.0796 -1.5728 0.8917, -1.0733 -1.5728 0.9005, -1.0694 -1.5728 0.9107, -1.068 -1.5728 0.9218, -1.1424 -1.5728 0.8432, -1.1462 -1.5728 0.8446, -1.1499 -1.5728 0.8473, -1.1512 -1.5728 0.8486, -1.1537 -1.5728 0.8522, -1.1552 -1.5728 0.856, -1.2158 -1.5728 0.8561, -1.2155 -1.5728 0.862, -1.0867 -1.5728 0.8466, -1.1056 -1.5728 0.8426, -1.1392 -1.5728 0.8426, -1.1347 -1.5728 0.8774, -1.109 -1.5728 0.8774, -1.0988 -1.5728 0.8793, -1.0888 -1.5728 0.884, -1.0804 -1.5728 0.8908, -1.117 -1.5728 0.9662, -1.3535 -1.5728 0.9608, -1.3584 -1.5728 0.9481, -1.1124 -1.5728 0.9662, -1.0763 -1.5728 0.9475, -1.0829 -1.5728 0.9548, -1.0917 -1.5728 0.961, -1.1016 -1.5728 0.9648, -1.1293 -1.5728 1.0003, -1.1421 -1.5728 1.0157, -1.273 -1.5728 0.9827, -1.1436 -1.5728 1.017, -1.1596 -1.5728 1.0281, -1.2643 -1.5728 1.0007, -1.3476 -1.5728 0.9693, -1.2771 -1.5728 0.9849, -1.1177 -1.5728 0.9693, -1.1205 -1.5728 0.982, -1.2898 -1.5728 0.9896, -1.3032 -1.5728 0.9912, -1.3091 -1.5728 0.9909, -1.2515 -1.5728 1.0159, -1.1774 -1.5728 1.035, -1.2363 -1.5728 1.0271, -1.1967 -1.5728 1.0373, -1.2177 -1.5728 1.0346, -1.3231 -1.5728 0.9876, -1.3358 -1.5728 0.9809, -1.3456 -1.5728 0.9721, -1.0502 -1.5728 0.9693, -1.0423 -1.5728 0.9583, -1.0373 -1.5728 0.9458, -0.7201 -1.5728 0.8422, -0.6948 -1.5728 0.8422, -0.7024 -1.5728 0.8429, -0.6948 -1.5728 0.9458, -0.7042 -1.5728 0.923, -0.7042 -1.5728 0.9138, -0.7065 -1.5728 0.8881, -0.7065 -1.5728 0.879, -0.7024 -1.5728 0.852, -0.7201 -1.5728 0.879, -0.7201 -1.5728 0.9138, -0.7201 -1.5728 0.8881, -0.7351 -1.5728 0.9138, -0.7351 -1.5728 0.8881, -0.7201 -1.5728 0.8429, -0.7454 -1.5728 0.8429, -0.7508 -1.5728 0.8422, -0.7454 -1.5728 0.923, -0.9108 -1.5728 0.8698, -0.9089 -1.5728 0.8863, -0.9128 -1.5728 0.8666, -0.914 -1.5728 0.8629, -0.8686 -1.5728 0.8429, -0.8786 -1.5728 0.8429, -0.8908 -1.5728 0.8422, -0.8868 -1.5728 0.8929, -0.8902 -1.5728 0.8933, -0.8955 -1.5728 0.8769, -0.855 -1.5728 0.8553, -0.8686 -1.5728 0.8797, -0.855 -1.5728 0.8449, -0.9024 -1.5728 0.8423, -0.9062 -1.5728 0.8437, -0.9181 -1.5728 0.8422, -0.8994 -1.5728 0.9002, -0.9181 -1.5728 0.9458, -0.9068 -1.5728 0.8973, -0.9089 -1.5728 0.8961, -0.9078 -1.5728 0.8725, -0.9038 -1.5728 0.8748, -0.902 -1.5728 0.8907, -0.8957 -1.5728 0.8927, -0.8786 -1.5728 0.8518, -0.8789 -1.5728 0.8518, -0.8812 -1.5728 0.8484, -0.8845 -1.5728 0.8453, -0.8868 -1.5728 0.8438, -0.9096 -1.5728 0.8461, -0.9107 -1.5728 0.8472, -0.9128 -1.5728 0.8503, -0.914 -1.5728 0.8536, -0.9145 -1.5728 0.8582, -0.8786 -1.5728 0.8793, -0.8789 -1.5728 0.8837, -0.88 -1.5728 0.8873, -0.8812 -1.5728 0.8893, -0.8508 -1.5728 0.8527, -0.8503 -1.5728 0.8526, -0.8503 -1.5728 0.8738, -0.8892 -1.5728 0.9014, -0.8829 -1.5728 0.9008, -0.8787 -1.5728 0.8995, -0.8533 -1.5728 0.8915, -0.8728 -1.5728 0.8949, -0.8545 -1.5728 0.8882, -0.8708 -1.5728 0.8916, -0.8549 -1.5728 0.8847, -0.8692 -1.5728 0.8869, -0.8545 -1.5728 0.8808, -0.8827 -1.5728 0.8909, -0.8845 -1.5728 0.8921, -0.8504 -1.5728 0.8739, -0.8521 -1.5728 0.8756, -0.8534 -1.5728 0.8777, -0.8503 -1.5728 0.8432, -0.8503 -1.5728 0.8422, -0.849 -1.5728 0.8427, -0.8451 -1.5728 0.8422, -0.8191 -1.5728 0.8989, -0.8191 -1.5728 0.8891, -0.8515 -1.5728 0.8942, -0.8503 -1.5728 0.8952, -0.8503 -1.5728 0.9458, -0.8485 -1.5728 0.8969, -0.8451 -1.5728 0.8988, -0.8168 -1.5728 0.8544, -0.8181 -1.5728 0.8513, -0.8199 -1.5728 0.8486, -0.8395 -1.5728 0.9007, -0.8326 -1.5728 0.9014, -0.8137 -1.5728 0.9458, -0.8256 -1.5728 0.9008, -0.8197 -1.5728 0.8679, -0.8178 -1.5728 0.8652, -0.8168 -1.5728 0.8622, -0.8163 -1.5728 0.8585, -0.8228 -1.5728 0.8461, -0.8252 -1.5728 0.8447, -0.8336 -1.5728 0.8933, -0.8366 -1.5728 0.893, -0.8446 -1.5728 0.8856, -0.8393 -1.5728 0.8923, -0.8415 -1.5728 0.8911, -0.8445 -1.5728 0.8842, -0.8441 -1.5728 0.8827, -0.8434 -1.5728 0.8813, -0.8424 -1.5728 0.8802, -0.8388 -1.5728 0.878, -0.8274 -1.5728 0.8926, -0.8326 -1.5728 0.8753, -0.8217 -1.5728 0.8906, -0.8288 -1.5728 0.8738, -0.8221 -1.5728 0.8701, -0.843 -1.5728 0.8898, -0.8439 -1.5728 0.8885, -0.8444 -1.5728 0.8872, -0.8445 -1.5728 0.8504, -0.8397 -1.5728 0.868, -0.8457 -1.5728 0.8708, -0.8385 -1.5728 0.8497, -0.838 -1.5728 0.8498, -0.8331 -1.5728 0.8653, -0.8329 -1.5728 0.8503, -0.8266 -1.5728 0.8575, -0.8267 -1.5728 0.8587, -0.8303 -1.5728 0.8513, -0.8294 -1.5728 0.8518, -0.8282 -1.5728 0.8529, -0.8274 -1.5728 0.8541, -0.8268 -1.5728 0.8556, -0.8272 -1.5728 0.8603, -0.828 -1.5728 0.8616, -0.8292 -1.5728 0.8629, -0.6654 -1.5728 0.9918, -0.6948 -1.5728 0.9918, -0.6573 -1.5728 0.9699, -0.6948 -1.5728 0.9693, -0.6458 -1.5728 0.9699, 1.4961 -1.5728 0.9693, 1.4961 -1.5728 1.0507, -0.6763 -1.5728 1.05, -0.6948 -1.5728 1.0507, -0.6988 -1.5728 0.9918, -0.7065 -1.5728 0.9699, -0.7201 -1.5728 0.9693, -0.7179 -1.5728 0.9699, -0.7201 -1.5728 1.0507, -0.6948 -1.5728 1.0305, -0.6874 -1.5728 1.05, -0.7508 -1.5728 0.9693, -0.7519 -1.5728 0.9716, -0.7655 -1.5728 0.9699, -0.7647 -1.5728 1.05, -0.7508 -1.5728 1.0507, -0.7951 -1.5728 1.0507, -0.7951 -1.5728 0.9693, -0.7875 -1.5728 0.9699, -0.7875 -1.5728 1.05, -0.7245 -1.5728 0.9965, -0.7284 -1.5728 0.9882, -0.7316 -1.5728 1.0366, -0.7266 -1.5728 1.0297, -0.7344 -1.5728 0.9812, -0.7428 -1.5728 0.9752, -0.7508 -1.5728 0.972, -0.7344 -1.5728 1.0394, -0.7524 -1.5728 1.0487, -0.7508 -1.5728 1.0481, -0.7428 -1.5728 1.0451, -0.7237 -1.5728 1.022, -0.7223 -1.5728 1.011, -0.7226 -1.5728 1.0059, -0.8137 -1.5728 1.0507, -0.8045 -1.5728 1.05, -0.8137 -1.5728 1.05, -0.8354 -1.5728 0.9791, -0.8137 -1.5728 0.9791, -0.8354 -1.5728 1.006, -0.8137 -1.5728 1.006, -0.8067 -1.5728 1.006, -0.8026 -1.5728 0.9791, -0.8067 -1.5728 1.0152, -0.8045 -1.5728 1.0408, -0.8137 -1.5728 1.0408, -0.8457 -1.5728 0.9699, -0.8503 -1.5728 0.9693, -0.8137 -1.5728 0.9693, -0.8026 -1.5728 0.9699, -0.8137 -1.5728 0.9699, -0.8457 -1.5728 1.05, -0.8503 -1.5728 1.0507, -0.8721 -1.5728 1.0507, -0.8702 -1.5728 1.0505, -0.8617 -1.5728 1.0481, -0.8617 -1.5728 1.0373, -0.8617 -1.5728 0.9832, -0.8617 -1.5728 0.9733, -0.8631 -1.5728 0.9726, -0.8717 -1.5728 0.9698, -0.8768 -1.5728 0.9693, -0.8707 -1.5728 1.0408, -0.8806 -1.5728 1.042, -0.8626 -1.5728 1.0378, -0.8846 -1.5728 1.0418, -0.8914 -1.5728 1.0403, -0.8976 -1.5728 1.0372, -0.9095 -1.5728 1.0201, -0.9108 -1.5728 1.0091, -0.8824 -1.5728 0.9778, -0.9024 -1.5728 1.0331, -0.9029 -1.5728 1.0326, -0.8696 -1.5728 0.9796, -0.8787 -1.5728 0.9779, -0.9068 -1.5728 1.027, -0.9107 -1.5728 1.0052, -0.9093 -1.5728 0.9974, -0.9066 -1.5728 0.9911, -0.903 -1.5728 0.9862, -0.9006 -1.5728 0.984, -0.8892 -1.5728 0.9785, -0.8951 -1.5728 0.9805, -0.8503 -1.5728 1.1614, -0.8807 -1.5728 1.0514, -0.9159 -1.5728 1.032, -0.9101 -1.5728 1.0396, -0.9081 -1.5728 1.0414, -0.9006 -1.5728 1.0467, -0.9181 -1.5728 0.9903, -0.9201 -1.5728 0.9954, -0.9229 -1.5728 0.9693, -0.9217 -1.5728 1.0085, -0.9215 -1.5728 1.0126, -0.9229 -1.5728 1.0507, -0.9197 -1.5728 1.0231, -0.9181 -1.5728 1.0269, -0.905 -1.5728 0.9742, -0.9114 -1.5728 0.9795, -0.9181 -1.5728 0.9693, -0.9121 -1.5728 0.9802, -0.9168 -1.5728 0.9871, -0.8839 -1.5728 0.9686, -0.8887 -1.5728 0.9688, -0.8909 -1.5728 0.9693, -0.8974 -1.5728 0.9706, -0.8754 -1.5728 0.8975, -0.8395 -1.5728 0.8416, -0.8503 -1.5728 0.8105, -0.9181 -1.5728 0.8105, -0.9022 -1.5728 0.8422, -0.8964 -1.5728 0.8416, -0.7666 -1.5728 0.9001, -0.7562 -1.5728 0.9001, -0.7508 -1.5728 0.9458, -0.7201 -1.5728 0.923, -0.7201 -1.5728 0.9458, -0.779 -1.5728 0.8422, -0.785 -1.5728 0.8571, -0.7837 -1.5728 0.8524, -0.7835 -1.5728 0.8524, -0.7951 -1.5728 0.9458, -0.7951 -1.5728 0.8862, -0.7822 -1.5728 0.857, -0.783 -1.5728 0.8544, -0.7951 -1.5728 0.8422, -0.7951 -1.5728 0.8593, -0.8111 -1.5728 0.9001, -0.7999 -1.5728 0.9001, -0.7887 -1.5728 0.843, -0.789 -1.5728 0.8422, -0.7931 -1.5728 0.8326, -0.8137 -1.5728 0.8105, -0.8091 -1.5728 0.8168, -0.8091 -1.5728 0.8257, -0.797 -1.5728 0.8269, -0.7951 -1.5728 0.829, -0.7951 -1.5728 0.829, -0.807 -1.5728 0.825, -0.8034 -1.5728 0.8246, -0.7951 -1.5728 0.8178, -0.7985 -1.5728 0.8164, -0.7951 -1.5728 0.8105, -0.8026 -1.5728 0.816, -0.8048 -1.5728 0.8161, -0.8008 -1.5728 0.8249, -0.7986 -1.5728 0.8257, -0.7822 -1.5728 0.8343, -0.7867 -1.5728 0.8254, -0.7508 -1.5728 0.8105, -0.7904 -1.5728 0.821, -0.7911 -1.5728 0.8204, -0.7946 -1.5728 0.818, -1.4961 -1.5728 0.0394, -1.4961 -1.5728 0.8105, -1.4961 -1.5728 0.8422, -1.4961 -1.5728 0.9458, -1.4961 -1.5728 0.9693, -1.4961 -1.5728 1.0507, -1.4961 -1.5728 1.1614, -0.9249 -1.5728 0.9791, -0.9249 -1.5728 0.9699, -0.9672 -1.5728 0.9699, -0.9568 -1.5728 1.05, -0.9568 -1.5728 0.9791, -0.9672 -1.5728 1.05, -0.9229 -1.5728 0.8422, -0.9241 -1.5728 0.8429, -0.9672 -1.5728 0.8429, -0.9241 -1.5728 0.852, -0.9259 -1.5728 0.9138, -0.9568 -1.5728 0.879, -0.9568 -1.5728 0.852, -0.9282 -1.5728 0.879, -0.9282 -1.5728 0.8881, -0.9568 -1.5728 0.8881, -0.9568 -1.5728 0.9138, -0.9672 -1.5728 0.923, -0.9259 -1.5728 0.923, -0.9181 -1.5728 1.1614, -0.9229 -1.5728 1.1614, -0.8137 -1.5728 1.1614, -0.7951 -1.5728 1.1614, -0.7508 -1.5728 1.1614, -0.7201 -1.5728 1.1614, -0.6948 -1.5728 1.1614, 1.4961 -1.5728 1.1614, -0.6872 -1.5728 0.8429, -0.6872 -1.5728 0.923, -0.6062 -1.5728 0.8429, -0.6176 -1.5728 0.8429, -0.6652 -1.5728 0.8429, 1.4961 -1.5728 0.9458, -0.5761 -1.5728 0.923, 1.4961 -1.5728 0.8422, -0.5456 -1.5728 0.8429, -0.557 -1.5728 0.8429, -0.5651 -1.5728 0.8648, -0.5985 -1.5728 0.8648, -0.5871 -1.5728 0.923, -0.6282 -1.5728 0.8612, -0.6341 -1.5728 0.8541, -0.6425 -1.5728 0.8481, -0.6516 -1.5728 0.8446, -0.6341 -1.5728 0.9124, -0.6313 -1.5728 0.9096, -0.6263 -1.5728 0.9026, -0.6234 -1.5728 0.895, -0.6644 -1.5728 0.923, -0.6522 -1.5728 0.9216, -0.6425 -1.5728 0.9181, -0.622 -1.5728 0.884, -0.6223 -1.5728 0.8789, -0.6242 -1.5728 0.8695, -0.7201 -1.5728 0.8105, -0.6948 -1.5728 0.8105, 1.4961 -1.5728 0.8105, -0.9229 -1.5728 0.0394, -0.9181 -1.5728 0.0394, -0.8503 -1.5728 0.0394, -0.8137 -1.5728 0.0394, -0.7951 -1.5728 0.0394, -0.7508 -1.5728 0.0394, -0.7201 -1.5728 0.0394, -0.6948 -1.5728 0.0394, 1.4961 -1.5728 0.0394, -1.5748 -0.7854 0.0394, -1.5748 -1.4941 0.0394, -1.5748 -0.7854 0.0984, -1.5748 -1.4941 1.1614, -1.5748 0.7894 0.0984, -1.5748 1.498 1.1614, -1.5748 0.7894 0.0394, -1.5748 1.498 0.0394, -0.7874 -0.7854 0.0394, -0.7874 0.7894 0.0394, 0.7874 0.7894 0.0394, 0.7874 -0.7854 0.0394, -1.5164 -1.5702 0.0394, 1.4961 1.5768 0.0394, -1.4961 1.5768 0.0394, -1.5721 1.5184 0.0394, -1.5354 -1.5623 0.0394, -1.5517 -1.5498 0.0394, -1.5721 -1.5145 0.0394, -1.5643 -1.5335 0.0394, 1.5748 -0.7854 0.0394, 1.5748 -1.4941 0.0394, 1.5517 1.5537 0.0394, 1.5643 1.5374 0.0394, -1.5643 1.5374 0.0394, -1.5517 1.5537 0.0394, 1.5354 1.5662 0.0394, 1.5721 1.5184 0.0394, 1.5748 1.498 0.0394, 1.5748 0.7894 0.0394, -1.5354 1.5662 0.0394, -1.5164 1.5741 0.0394, 1.5164 1.5741 0.0394, 1.5721 -1.5145 0.0394, 1.5643 -1.5335 0.0394, 1.5517 -1.5498 0.0394, 1.5354 -1.5623 0.0394, 1.5164 -1.5702 0.0394, 1.5748 0.7894 0.0984, 1.5748 1.498 1.1614, 1.5748 -0.7854 0.0984, 1.5748 -1.4941 1.1614, 1.4961 1.5768 1.1614, -1.4961 1.5768 1.1614, 1.5551 -1.4941 1.1811, 1.5551 1.498 1.1811, -1.5551 1.498 1.1811, -1.5551 -1.4941 1.1811, -1.4961 -1.5531 1.1811, 1.4961 -1.5531 1.1811, 1.5256 -1.5452 1.1811, 1.5378 -1.5359 1.1811, 1.5472 -1.5236 1.1811, 1.5531 1.5133 1.1811, 1.5113 1.5551 1.1811, 1.4961 1.5571 1.1811, -1.4961 1.5571 1.1811, -1.5113 1.5551 1.1811, 1.5472 1.5276 1.1811, 1.5378 1.5398 1.1811, 1.5256 1.5492 1.1811, 1.5113 -1.5511 1.1811, 1.5531 -1.5094 1.1811, -1.5256 1.5492 1.1811, -1.5378 1.5398 1.1811, -1.5472 -1.5236 1.1811, -1.5378 -1.5359 1.1811, -1.5531 -1.5094 1.1811, -1.5256 -1.5452 1.1811, -1.5113 -1.5511 1.1811, -1.5472 1.5276 1.1811, -1.5531 1.5133 1.1811, 0.7874 -0.7854 0.0984, 0.7874 0.7894 0.0984, -0.7874 -0.7854 0.0984, -0.7874 0.7894 0.0984, -1.5721 -1.5145 1.1614, -1.5643 -1.5335 1.1614, -1.5517 -1.5498 1.1614, -1.5354 -1.5623 1.1614, -1.5164 -1.5702 1.1614, -1.5164 1.5741 1.1614, -1.5354 1.5662 1.1614, -1.5517 1.5537 1.1614, -1.5643 1.5374 1.1614, -1.5721 1.5184 1.1614, 1.5164 -1.5702 1.1614, 1.5354 -1.5623 1.1614, 1.5517 -1.5498 1.1614, 1.5643 -1.5335 1.1614, 1.5721 -1.5145 1.1614, 1.5721 1.5184 1.1614, 1.5643 1.5374 1.1614, 1.5517 1.5537 1.1614, 1.5354 1.5662 1.1614, 1.5164 1.5741 1.1614, 1.5602 -1.4941 1.1804, 1.558 -1.5107 1.1804, 1.565 -1.4941 1.1785, 1.5626 -1.5119 1.1785, 1.569 -1.4941 1.1753, 1.5666 -1.513 1.1753, 1.5722 -1.4941 1.1713, 1.5696 -1.5138 1.1713, 1.5741 -1.4941 1.1665, 1.5715 -1.5143 1.1665, 1.5516 -1.5262 1.1804, 1.5557 -1.5285 1.1785, 1.5593 -1.5306 1.1753, 1.562 -1.5321 1.1713, 1.5637 -1.5331 1.1665, 1.5414 -1.5395 1.1804, 1.5448 -1.5428 1.1785, 1.5477 -1.5457 1.1753, 1.5499 -1.5479 1.1713, 1.5513 -1.5493 1.1665, 1.5281 -1.5496 1.1804, 1.5305 -1.5538 1.1785, 1.5326 -1.5573 1.1753, 1.5341 -1.56 1.1713, 1.5351 -1.5617 1.1665, 1.5127 -1.5561 1.1804, 1.5139 -1.5606 1.1785, 1.515 -1.5646 1.1753, 1.5158 -1.5676 1.1713, 1.5163 -1.5695 1.1665, 1.4961 -1.5582 1.1804, 1.4961 -1.563 1.1785, 1.4961 -1.5671 1.1753, 1.4961 -1.5702 1.1713, 1.4961 -1.5722 1.1665, 1.5602 1.498 1.1804, 1.565 1.498 1.1785, 1.569 1.498 1.1753, 1.5722 1.498 1.1713, 1.5741 1.498 1.1665, -1.4961 -1.5575 1.1806, -1.4961 -1.5582 1.1804, -1.4961 -1.5617 1.1792, -1.4961 -1.5629 1.1784, -1.4961 -1.5654 1.1768, -1.4961 -1.567 1.1752, -1.4961 -1.5685 1.1737, -1.4961 -1.5701 1.1712, -1.4961 -1.5709 1.17, -1.4961 -1.5721 1.1665, -1.4961 -1.5723 1.1658, 1.4961 1.5622 1.1804, 1.5127 1.56 1.1804, 1.4961 1.5669 1.1785, 1.5139 1.5646 1.1785, 1.4961 1.571 1.1753, 1.515 1.5685 1.1753, 1.4961 1.5741 1.1713, 1.5158 1.5715 1.1713, 1.4961 1.5761 1.1665, 1.5163 1.5734 1.1665, 1.5281 1.5536 1.1804, 1.5305 1.5577 1.1785, 1.5326 1.5612 1.1753, 1.5341 1.5639 1.1713, 1.5351 1.5656 1.1665, 1.5414 1.5434 1.1804, 1.5448 1.5467 1.1785, 1.5477 1.5496 1.1753, 1.5499 1.5518 1.1713, 1.5513 1.5532 1.1665, 1.5516 1.5301 1.1804, 1.5557 1.5325 1.1785, 1.5593 1.5345 1.1753, 1.562 1.5361 1.1713, 1.5637 1.5371 1.1665, 1.558 1.5146 1.1804, 1.5626 1.5159 1.1785, 1.5666 1.5169 1.1753, 1.5696 1.5177 1.1713, 1.5715 1.5182 1.1665, -1.5573 -1.5105 1.1806, -1.5125 -1.5554 1.1806, -1.5136 -1.5594 1.1792, -1.5595 -1.4941 1.1806, -1.5602 -1.4941 1.1804, -1.5614 -1.5116 1.1792, -1.5145 -1.563 1.1768, -1.5637 -1.4941 1.1792, -1.5649 -1.4941 1.1784, -1.565 -1.5126 1.1768, -1.5153 -1.566 1.1737, -1.5674 -1.4941 1.1768, -1.5689 -1.4941 1.1752, -1.568 -1.5134 1.1737, -1.5159 -1.5683 1.17, -1.5278 -1.549 1.1806, -1.5299 -1.5526 1.1792, -1.5317 -1.5559 1.1768, -1.5333 -1.5586 1.1737, -1.5345 -1.5606 1.17, -1.5409 -1.539 1.1806, -1.5439 -1.5419 1.1792, -1.5465 -1.5445 1.1768, -1.5487 -1.5467 1.1737, -1.5504 -1.5484 1.17, -1.551 -1.5258 1.1806, -1.5546 -1.5279 1.1792, -1.5578 -1.5298 1.1768, -1.5605 -1.5313 1.1737, -1.5626 -1.5325 1.17, -1.5702 -1.514 1.17, -1.5163 -1.5697 1.1658, -1.5705 -1.4941 1.1737, -1.5721 -1.4941 1.1712, -1.5729 -1.4941 1.17, -1.5741 -1.4941 1.1665, -1.5352 -1.5619 1.1658, -1.5514 -1.5494 1.1658, -1.5638 -1.5332 1.1658, -1.5716 -1.5143 1.1658, -1.5743 -1.4941 1.1658, -1.4961 1.5622 1.1804, -1.4961 1.5669 1.1785, -1.4961 1.571 1.1753, -1.4961 1.5741 1.1713, -1.4961 1.5761 1.1665, -1.5602 1.498 1.1804, -1.565 1.498 1.1785, -1.569 1.498 1.1753, -1.5722 1.498 1.1713, -1.5741 1.498 1.1665, -1.558 1.5146 1.1804, -1.5626 1.5159 1.1785, -1.5666 1.5169 1.1753, -1.5696 1.5177 1.1713, -1.5715 1.5182 1.1665, -1.5516 1.5301 1.1804, -1.5557 1.5325 1.1785, -1.5593 1.5345 1.1753, -1.562 1.5361 1.1713, -1.5637 1.5371 1.1665, -1.5414 1.5434 1.1804, -1.5448 1.5467 1.1785, -1.5477 1.5496 1.1753, -1.5499 1.5518 1.1713, -1.5513 1.5532 1.1665, -1.5281 1.5536 1.1804, -1.5305 1.5577 1.1785, -1.5326 1.5612 1.1753, -1.5341 1.5639 1.1713, -1.5351 1.5656 1.1665, -1.5127 1.56 1.1804, -1.5139 1.5646 1.1785, -1.515 1.5685 1.1753, -1.5158 1.5715 1.1713, -1.5163 1.5734 1.1665
            ]
        }
        coordIndex [
            0,1,2,-1,3,4,5,-1,6,7,8,-1,9,10,11,-1,12,13,14,-1,15,16,17,-1,18,19,20,-1,20,19,3,-1,21,22,20,-1,20,22,23,-1,23,24,20,-1,20,24,25,-1,20,25,18,-1,26,27,28,-1,28,27,29,-1,26,28,30,-1,30,28,31,-1,30,31,32,-1,33,34,35,-1,36,37,33,-1,33,37,38,-1,33,38,39,-1,32,31,40,-1,40,31,33,-1,40,33,41,-1,41,33,35,-1,41,35,42,-1,42,35,43,-1,42,43,44,-1,39,45,33,-1,33,45,46,-1,33,46,34,-1,47,48,49,-1,49,48,50,-1,49,50,51,-1,51,52,49,-1,49,52,53,-1,49,53,54,-1,54,53,55,-1,55,56,54,-1,54,56,57,-1,54,57,36,-1,36,57,58,-1,36,58,37,-1,59,60,61,-1,61,60,62,-1,61,62,49,-1,49,62,63,-1,49,63,47,-1,64,65,66,-1,66,65,67,-1,66,67,68,-1,64,69,65,-1,65,69,70,-1,65,70,61,-1,61,70,71,-1,61,71,59,-1,0,72,1,-1,1,72,73,-1,1,73,74,-1,74,75,1,-1,1,75,76,-1,1,76,68,-1,77,78,4,-1,79,80,81,-1,82,83,0,-1,84,85,86,-1,86,85,87,-1,79,81,88,-1,82,0,89,-1,90,91,85,-1,85,91,92,-1,85,92,93,-1,4,78,0,-1,0,78,94,-1,0,94,89,-1,80,95,81,-1,81,95,96,-1,81,96,97,-1,98,99,100,-1,100,99,101,-1,100,101,102,-1,103,93,104,-1,104,93,105,-1,104,105,100,-1,100,105,106,-1,100,106,98,-1,103,107,93,-1,93,107,108,-1,93,108,85,-1,85,108,109,-1,85,109,87,-1,110,111,112,-1,112,111,113,-1,112,113,81,-1,81,113,114,-1,81,114,88,-1,115,116,81,-1,81,116,117,-1,81,117,85,-1,85,117,118,-1,85,118,90,-1,119,120,72,-1,72,120,121,-1,72,121,122,-1,122,123,72,-1,72,123,124,-1,72,124,125,-1,125,124,110,-1,125,110,126,-1,126,110,112,-1,83,127,0,-1,0,127,128,-1,0,128,72,-1,72,128,129,-1,72,129,119,-1,97,130,81,-1,81,130,131,-1,81,131,132,-1,132,133,81,-1,81,133,134,-1,81,134,115,-1,135,136,137,-1,137,93,135,-1,135,93,92,-1,135,92,138,-1,138,92,139,-1,139,140,138,-1,138,140,141,-1,138,141,142,-1,143,144,145,-1,144,146,145,-1,145,146,147,-1,145,147,148,-1,149,145,150,-1,136,135,149,-1,149,135,151,-1,149,151,145,-1,145,151,152,-1,145,152,143,-1,150,153,149,-1,149,153,154,-1,149,154,155,-1,148,147,156,-1,156,147,157,-1,156,157,158,-1,158,157,159,-1,158,159,160,-1,161,162,155,-1,155,162,163,-1,155,163,149,-1,19,164,3,-1,3,164,165,-1,3,165,4,-1,4,165,166,-1,4,166,77,-1,167,168,169,-1,170,171,172,-1,173,174,168,-1,169,168,175,-1,175,168,174,-1,175,174,17,-1,17,174,176,-1,17,176,15,-1,172,177,178,-1,178,177,179,-1,178,179,180,-1,169,181,167,-1,167,181,182,-1,167,182,183,-1,183,182,184,-1,185,186,187,-1,187,186,188,-1,189,190,191,-1,192,193,194,-1,195,196,197,-1,197,196,189,-1,198,199,200,-1,201,202,203,-1,203,202,204,-1,185,205,186,-1,186,205,206,-1,186,206,207,-1,207,206,194,-1,207,194,208,-1,208,194,193,-1,209,210,190,-1,190,210,211,-1,211,212,190,-1,190,212,213,-1,190,213,191,-1,199,214,200,-1,200,214,215,-1,200,215,216,-1,216,217,200,-1,200,217,218,-1,200,218,202,-1,202,218,188,-1,202,188,204,-1,204,188,186,-1,219,220,194,-1,194,220,221,-1,194,221,222,-1,223,224,225,-1,201,226,202,-1,202,226,227,-1,202,227,228,-1,229,230,231,-1,231,230,232,-1,231,232,233,-1,233,232,234,-1,233,234,235,-1,235,234,196,-1,222,236,194,-1,194,236,237,-1,194,237,192,-1,223,225,195,-1,225,238,195,-1,195,238,239,-1,195,239,196,-1,196,239,240,-1,196,240,235,-1,241,242,243,-1,243,242,244,-1,245,246,14,-1,247,248,249,-1,249,248,250,-1,249,250,251,-1,252,253,14,-1,14,253,254,-1,251,255,249,-1,249,255,256,-1,249,256,257,-1,257,256,258,-1,257,258,245,-1,259,260,246,-1,246,260,261,-1,246,261,14,-1,14,261,262,-1,14,262,252,-1,254,263,14,-1,14,263,264,-1,14,264,12,-1,265,266,267,-1,267,266,268,-1,267,268,269,-1,267,270,265,-1,265,270,271,-1,265,271,272,-1,272,273,265,-1,265,273,274,-1,265,274,275,-1,275,274,276,-1,275,276,277,-1,277,276,278,-1,277,278,246,-1,246,278,279,-1,246,279,259,-1,280,281,269,-1,269,281,282,-1,269,282,267,-1,283,284,224,-1,224,284,285,-1,224,285,225,-1,283,286,284,-1,284,286,287,-1,284,287,288,-1,288,287,289,-1,288,290,291,-1,289,292,288,-1,288,292,293,-1,288,293,294,-1,294,295,288,-1,288,295,296,-1,288,296,290,-1,291,297,288,-1,288,297,298,-1,288,298,299,-1,300,301,302,-1,302,301,303,-1,302,303,304,-1,305,306,307,-1,307,306,308,-1,301,309,303,-1,303,309,310,-1,303,310,311,-1,311,310,312,-1,311,312,313,-1,313,312,314,-1,313,314,308,-1,308,314,315,-1,308,315,307,-1,316,317,318,-1,319,320,321,-1,316,318,322,-1,322,318,323,-1,322,323,321,-1,321,323,324,-1,321,324,319,-1,325,326,311,-1,327,328,313,-1,326,329,311,-1,311,329,330,-1,311,330,316,-1,316,330,331,-1,316,331,317,-1,327,313,332,-1,319,333,320,-1,320,333,334,-1,320,334,313,-1,313,334,335,-1,313,335,332,-1,328,336,313,-1,313,336,337,-1,313,337,311,-1,311,337,338,-1,311,338,325,-1,321,339,340,-1,340,339,341,-1,342,343,344,-1,344,343,345,-1,345,343,346,-1,346,343,347,-1,346,347,348,-1,348,347,349,-1,348,349,11,-1,11,349,350,-1,11,350,9,-1,351,352,353,-1,340,349,321,-1,321,349,347,-1,321,347,322,-1,322,347,354,-1,322,354,353,-1,353,354,355,-1,353,355,351,-1,341,339,356,-1,356,339,357,-1,356,357,351,-1,358,359,357,-1,357,359,360,-1,357,360,361,-1,362,363,352,-1,363,364,352,-1,352,364,365,-1,352,365,366,-1,367,368,362,-1,351,357,352,-1,352,357,361,-1,352,361,362,-1,362,361,369,-1,362,369,367,-1,368,370,362,-1,362,370,371,-1,362,371,372,-1,373,374,375,-1,372,376,362,-1,362,376,377,-1,362,377,378,-1,378,377,379,-1,379,377,375,-1,375,377,380,-1,375,380,373,-1,374,381,375,-1,375,381,382,-1,375,382,383,-1,383,384,375,-1,375,384,385,-1,375,385,386,-1,386,385,387,-1,388,389,358,-1,8,390,391,-1,391,392,8,-1,8,392,393,-1,8,393,6,-1,394,395,396,-1,397,398,399,-1,399,398,400,-1,399,400,8,-1,8,400,401,-1,8,401,390,-1,402,403,404,-1,404,403,405,-1,404,405,406,-1,407,408,202,-1,202,408,409,-1,202,409,404,-1,404,409,410,-1,404,410,402,-1,366,407,249,-1,249,407,202,-1,249,202,247,-1,247,202,228,-1,247,228,229,-1,229,228,411,-1,229,411,230,-1,412,244,413,-1,413,244,242,-1,413,242,414,-1,198,200,415,-1,415,200,414,-1,415,414,416,-1,416,414,191,-1,191,414,242,-1,191,242,189,-1,189,242,241,-1,189,241,197,-1,417,418,419,-1,171,170,420,-1,420,170,421,-1,420,421,184,-1,184,421,419,-1,184,419,183,-1,183,419,418,-1,183,418,422,-1,423,424,425,-1,419,426,417,-1,417,426,427,-1,417,427,428,-1,428,427,423,-1,428,423,429,-1,429,423,425,-1,430,431,14,-1,14,431,432,-1,245,14,257,-1,257,14,432,-1,257,432,426,-1,426,432,433,-1,426,433,427,-1,434,431,435,-1,435,431,430,-1,435,430,436,-1,437,438,439,-1,440,441,430,-1,430,441,442,-1,430,442,436,-1,412,413,13,-1,13,413,437,-1,13,437,14,-1,14,437,439,-1,14,439,430,-1,430,439,443,-1,430,443,444,-1,445,446,447,-1,447,446,448,-1,447,448,437,-1,437,448,449,-1,437,449,438,-1,444,450,430,-1,430,450,451,-1,430,451,440,-1,452,453,454,-1,452,454,422,-1,453,455,454,-1,454,455,456,-1,454,456,447,-1,447,456,457,-1,447,457,445,-1,458,65,459,-1,459,65,61,-1,459,61,460,-1,460,61,49,-1,460,49,461,-1,461,49,54,-1,461,54,462,-1,462,54,36,-1,462,36,463,-1,463,36,33,-1,463,33,464,-1,464,33,31,-1,465,466,396,-1,396,466,467,-1,468,399,20,-1,395,397,396,-1,396,397,399,-1,396,399,465,-1,465,399,468,-1,465,468,469,-1,5,396,3,-1,3,396,467,-1,3,467,20,-1,20,467,470,-1,20,470,468,-1,471,472,473,-1,472,471,474,-1,474,471,5,-1,474,5,475,-1,476,477,478,-1,478,477,474,-1,478,474,479,-1,479,474,475,-1,479,475,480,-1,480,475,481,-1,2,471,0,-1,0,471,473,-1,0,473,4,-1,4,473,482,-1,4,482,5,-1,5,482,483,-1,5,483,475,-1,389,388,7,-1,7,388,484,-1,7,484,8,-1,8,484,485,-1,8,485,399,-1,399,485,28,-1,399,28,20,-1,20,28,29,-1,20,29,21,-1,2,414,471,-1,471,414,200,-1,471,200,5,-1,5,200,202,-1,5,202,396,-1,396,202,404,-1,396,404,394,-1,394,404,406,-1,366,249,352,-1,352,249,257,-1,352,257,353,-1,353,257,426,-1,353,426,322,-1,322,426,419,-1,322,419,316,-1,316,419,421,-1,316,421,311,-1,311,421,170,-1,311,170,303,-1,358,357,388,-1,388,357,339,-1,388,339,486,-1,486,339,321,-1,486,321,487,-1,487,321,320,-1,487,320,488,-1,488,320,313,-1,488,313,489,-1,489,313,308,-1,489,308,490,-1,490,308,306,-1,490,306,491,-1,178,173,172,-1,172,173,168,-1,172,168,170,-1,170,168,492,-1,170,492,493,-1,494,495,168,-1,168,495,496,-1,168,496,492,-1,497,498,499,-1,499,498,500,-1,499,500,168,-1,168,500,501,-1,168,501,494,-1,494,501,502,-1,494,502,503,-1,307,304,305,-1,305,304,303,-1,305,303,497,-1,497,303,170,-1,497,170,498,-1,498,170,504,-1,495,505,506,-1,506,507,495,-1,495,507,508,-1,495,508,496,-1,509,510,504,-1,504,510,511,-1,504,511,512,-1,493,513,170,-1,170,513,514,-1,170,514,504,-1,504,514,515,-1,504,515,509,-1,512,516,504,-1,504,516,517,-1,504,517,495,-1,495,517,518,-1,495,518,505,-1,422,454,183,-1,183,454,519,-1,183,519,167,-1,167,519,520,-1,167,520,168,-1,168,520,521,-1,168,521,499,-1,68,67,1,-1,1,67,522,-1,1,522,2,-1,2,522,523,-1,2,523,414,-1,414,523,524,-1,414,524,413,-1,413,524,525,-1,413,525,437,-1,437,525,526,-1,437,526,447,-1,447,526,527,-1,447,527,454,-1,454,527,528,-1,454,528,519,-1,519,528,529,-1,519,529,520,-1,520,529,530,-1,520,530,521,-1,531,532,533,-1,533,532,534,-1,533,534,535,-1,535,534,536,-1,535,536,537,-1,537,536,538,-1,532,531,539,-1,539,540,541,-1,541,542,539,-1,539,542,530,-1,539,530,532,-1,532,530,458,-1,532,458,543,-1,540,537,544,-1,544,537,538,-1,544,538,545,-1,545,538,546,-1,543,547,532,-1,532,547,548,-1,532,548,549,-1,549,548,550,-1,542,551,552,-1,553,554,541,-1,546,555,556,-1,553,541,557,-1,554,558,541,-1,541,558,559,-1,541,559,560,-1,556,561,546,-1,546,561,562,-1,546,562,545,-1,540,544,541,-1,541,544,563,-1,541,563,557,-1,552,564,542,-1,542,564,565,-1,542,565,566,-1,566,567,542,-1,542,567,568,-1,542,568,530,-1,560,559,569,-1,569,559,570,-1,569,570,571,-1,571,570,572,-1,571,572,551,-1,551,572,552,-1,573,544,574,-1,574,544,545,-1,575,576,577,-1,577,578,575,-1,575,578,579,-1,575,579,580,-1,581,582,583,-1,584,585,576,-1,576,585,586,-1,576,586,577,-1,577,586,587,-1,577,587,588,-1,584,589,585,-1,585,589,590,-1,585,590,591,-1,580,592,575,-1,575,592,581,-1,575,581,593,-1,593,581,583,-1,588,594,595,-1,596,597,598,-1,598,597,599,-1,598,599,578,-1,578,599,600,-1,578,600,579,-1,595,601,588,-1,588,601,602,-1,588,602,577,-1,603,604,571,-1,571,604,569,-1,603,571,542,-1,542,571,551,-1,604,541,569,-1,569,541,560,-1,604,603,541,-1,541,603,542,-1,533,605,531,-1,531,605,539,-1,605,606,539,-1,539,606,540,-1,606,535,540,-1,540,535,537,-1,535,606,533,-1,533,606,605,-1,534,532,549,-1,534,549,607,-1,607,549,550,-1,607,550,608,-1,608,550,548,-1,608,548,609,-1,609,548,547,-1,609,547,610,-1,610,547,543,-1,610,543,611,-1,611,543,458,-1,611,458,464,-1,574,545,562,-1,574,562,612,-1,612,562,561,-1,612,561,613,-1,613,561,556,-1,613,556,614,-1,614,556,555,-1,614,555,615,-1,615,555,546,-1,615,546,616,-1,616,546,538,-1,616,538,536,-1,491,530,568,-1,491,568,617,-1,617,568,567,-1,617,567,618,-1,618,567,566,-1,618,566,619,-1,619,566,565,-1,619,565,620,-1,620,565,564,-1,620,564,621,-1,621,564,552,-1,621,552,572,-1,570,559,558,-1,570,558,622,-1,622,558,554,-1,622,554,623,-1,623,554,553,-1,623,553,624,-1,624,553,557,-1,624,557,625,-1,625,557,563,-1,625,563,626,-1,626,563,544,-1,626,544,573,-1,575,593,627,-1,627,593,628,-1,627,628,629,-1,629,628,630,-1,629,630,631,-1,631,630,632,-1,631,632,633,-1,633,632,634,-1,633,634,635,-1,635,634,636,-1,635,636,572,-1,572,636,621,-1,593,583,628,-1,628,583,637,-1,628,637,630,-1,630,637,638,-1,630,638,632,-1,632,638,639,-1,632,639,634,-1,634,639,640,-1,634,640,636,-1,636,640,641,-1,636,641,621,-1,621,641,620,-1,583,582,637,-1,637,582,642,-1,637,642,638,-1,638,642,643,-1,638,643,639,-1,639,643,644,-1,639,644,640,-1,640,644,645,-1,640,645,641,-1,641,645,646,-1,641,646,620,-1,620,646,619,-1,582,581,642,-1,642,581,647,-1,642,647,643,-1,643,647,648,-1,643,648,644,-1,644,648,649,-1,644,649,645,-1,645,649,650,-1,645,650,646,-1,646,650,651,-1,646,651,619,-1,619,651,618,-1,581,592,647,-1,647,592,652,-1,647,652,648,-1,648,652,653,-1,648,653,649,-1,649,653,654,-1,649,654,650,-1,650,654,655,-1,650,655,651,-1,651,655,656,-1,651,656,618,-1,618,656,617,-1,592,580,652,-1,652,580,657,-1,652,657,653,-1,653,657,658,-1,653,658,654,-1,654,658,659,-1,654,659,655,-1,655,659,660,-1,655,660,656,-1,656,660,661,-1,656,661,617,-1,617,661,491,-1,576,575,627,-1,576,627,662,-1,662,627,629,-1,662,629,663,-1,663,629,631,-1,663,631,664,-1,664,631,633,-1,664,633,665,-1,665,633,635,-1,665,635,666,-1,666,635,572,-1,666,572,570,-1,579,667,580,-1,580,667,657,-1,667,668,657,-1,657,668,669,-1,657,669,658,-1,669,670,658,-1,658,670,671,-1,658,671,659,-1,659,671,672,-1,659,672,660,-1,672,673,660,-1,660,673,674,-1,660,674,661,-1,674,675,661,-1,661,675,676,-1,661,676,491,-1,491,676,677,-1,491,677,464,-1,586,585,678,-1,678,585,679,-1,678,679,680,-1,680,679,681,-1,680,681,682,-1,682,681,683,-1,682,683,684,-1,684,683,685,-1,684,685,686,-1,686,685,687,-1,686,687,573,-1,573,687,626,-1,585,591,679,-1,679,591,688,-1,679,688,681,-1,681,688,689,-1,681,689,683,-1,683,689,690,-1,683,690,685,-1,685,690,691,-1,685,691,687,-1,687,691,692,-1,687,692,626,-1,626,692,625,-1,591,590,688,-1,688,590,693,-1,688,693,689,-1,689,693,694,-1,689,694,690,-1,690,694,695,-1,690,695,691,-1,691,695,696,-1,691,696,692,-1,692,696,697,-1,692,697,625,-1,625,697,624,-1,590,589,693,-1,693,589,698,-1,693,698,694,-1,694,698,699,-1,694,699,695,-1,695,699,700,-1,695,700,696,-1,696,700,701,-1,696,701,697,-1,697,701,702,-1,697,702,624,-1,624,702,623,-1,589,584,698,-1,698,584,703,-1,698,703,699,-1,699,703,704,-1,699,704,700,-1,700,704,705,-1,700,705,701,-1,701,705,706,-1,701,706,702,-1,702,706,707,-1,702,707,623,-1,623,707,622,-1,584,576,703,-1,703,576,662,-1,703,662,704,-1,704,662,663,-1,704,663,705,-1,705,663,664,-1,705,664,706,-1,706,664,665,-1,706,665,707,-1,707,665,666,-1,707,666,622,-1,622,666,570,-1,708,598,578,-1,579,600,667,-1,667,600,709,-1,667,709,668,-1,668,709,710,-1,578,711,708,-1,708,711,712,-1,708,712,713,-1,714,670,710,-1,710,670,669,-1,710,669,668,-1,712,715,713,-1,713,715,716,-1,713,716,717,-1,718,672,714,-1,714,672,671,-1,714,671,670,-1,716,719,717,-1,717,719,720,-1,717,720,721,-1,676,675,722,-1,722,675,674,-1,722,674,718,-1,718,674,673,-1,718,673,672,-1,600,599,709,-1,709,599,723,-1,709,723,710,-1,710,723,724,-1,710,724,714,-1,714,724,725,-1,714,725,718,-1,718,725,726,-1,718,726,722,-1,722,726,727,-1,599,597,723,-1,723,597,728,-1,723,728,724,-1,724,728,729,-1,724,729,725,-1,725,729,730,-1,725,730,726,-1,726,730,731,-1,726,731,727,-1,727,731,732,-1,597,596,728,-1,728,596,733,-1,728,733,729,-1,729,733,734,-1,729,734,730,-1,730,734,735,-1,730,735,731,-1,731,735,736,-1,731,736,732,-1,732,736,737,-1,596,598,733,-1,733,598,708,-1,733,708,734,-1,734,708,713,-1,734,713,735,-1,735,713,717,-1,735,717,736,-1,736,717,721,-1,736,721,737,-1,737,721,738,-1,464,677,739,-1,739,677,676,-1,720,740,721,-1,721,740,741,-1,721,741,738,-1,738,741,742,-1,738,742,743,-1,676,722,739,-1,739,722,727,-1,739,727,744,-1,744,727,732,-1,744,732,745,-1,745,732,737,-1,745,737,746,-1,746,737,738,-1,746,738,747,-1,747,738,743,-1,747,743,748,-1,464,739,611,-1,611,739,744,-1,611,744,610,-1,610,744,745,-1,610,745,609,-1,609,745,746,-1,609,746,608,-1,608,746,747,-1,608,747,607,-1,607,747,748,-1,607,748,534,-1,587,586,678,-1,587,678,749,-1,749,678,680,-1,749,680,750,-1,750,680,682,-1,750,682,751,-1,751,682,684,-1,751,684,752,-1,752,684,686,-1,752,686,753,-1,753,686,573,-1,753,573,574,-1,711,578,577,-1,711,577,712,-1,712,577,754,-1,712,754,715,-1,715,754,716,-1,716,754,755,-1,716,755,719,-1,719,755,720,-1,720,755,756,-1,720,756,740,-1,740,756,757,-1,740,757,741,-1,741,757,742,-1,742,757,758,-1,742,758,743,-1,743,758,748,-1,748,758,536,-1,748,536,534,-1,577,602,754,-1,754,602,759,-1,754,759,755,-1,755,759,760,-1,755,760,756,-1,756,760,761,-1,756,761,757,-1,757,761,762,-1,757,762,758,-1,758,762,763,-1,758,763,536,-1,536,763,616,-1,602,601,759,-1,759,601,764,-1,759,764,760,-1,760,764,765,-1,760,765,761,-1,761,765,766,-1,761,766,762,-1,762,766,767,-1,762,767,763,-1,763,767,768,-1,763,768,616,-1,616,768,615,-1,601,595,764,-1,764,595,769,-1,764,769,765,-1,765,769,770,-1,765,770,766,-1,766,770,771,-1,766,771,767,-1,767,771,772,-1,767,772,768,-1,768,772,773,-1,768,773,615,-1,615,773,614,-1,595,594,769,-1,769,594,774,-1,769,774,770,-1,770,774,775,-1,770,775,771,-1,771,775,776,-1,771,776,772,-1,772,776,777,-1,772,777,773,-1,773,777,778,-1,773,778,614,-1,614,778,613,-1,594,588,774,-1,774,588,779,-1,774,779,775,-1,775,779,780,-1,775,780,776,-1,776,780,781,-1,776,781,777,-1,777,781,782,-1,777,782,778,-1,778,782,783,-1,778,783,613,-1,613,783,612,-1,588,587,779,-1,779,587,749,-1,779,749,780,-1,780,749,750,-1,780,750,781,-1,781,750,751,-1,781,751,782,-1,782,751,752,-1,782,752,783,-1,783,752,753,-1,783,753,612,-1,612,753,574,-1,
        ]
    }
}
Shape{
    appearance Appearance {
        material  Material 	{
            diffuseColor 0.0 0.0 0.0
            specularColor 0.0 0.0 0.0
            ambientIntensity 0.0
            transparency 0.0
            shininess 0.5
        }
    }
    geometry IndexedFaceSet {
        ccw TRUE
        solid FALSE
        coord DEF co Coordinate {
            point [
                -0.9249 -1.5768 0.9791, -0.9249 -1.5768 0.9699, -0.9249 -1.5728 0.9791, -0.9249 -1.5728 0.9699, -0.9568 -1.5768 0.9791, -0.9568 -1.5728 0.9791, -0.9568 -1.5768 1.05, -0.9568 -1.5728 1.05, -0.9672 -1.5768 1.05, -0.9672 -1.5728 1.05, -0.9672 -1.5768 0.9699, -0.9672 -1.5728 0.9699, -0.8839 -1.5768 0.9686, -0.8839 -1.5728 0.9686, -0.8717 -1.5768 0.9698, -0.8768 -1.5728 0.9693, -0.8717 -1.5728 0.9698, -0.8631 -1.5728 0.9726, -0.8631 -1.5768 0.9726, -0.8617 -1.5728 0.9733, -0.8617 -1.5768 0.9733, -0.8617 -1.5768 0.9832, -0.8617 -1.5728 0.9832, -0.8696 -1.5728 0.9796, -0.8696 -1.5768 0.9796, -0.8787 -1.5728 0.9779, -0.8787 -1.5768 0.9779, -0.8824 -1.5728 0.9778, -0.8824 -1.5768 0.9778, -0.8892 -1.5728 0.9785, -0.8892 -1.5768 0.9785, -0.8951 -1.5728 0.9805, -0.8951 -1.5768 0.9805, -0.9006 -1.5728 0.984, -0.9006 -1.5768 0.984, -0.903 -1.5728 0.9862, -0.903 -1.5768 0.9862, -0.9066 -1.5728 0.9911, -0.9066 -1.5768 0.9911, -0.9093 -1.5728 0.9974, -0.9093 -1.5768 0.9974, -0.9107 -1.5728 1.0052, -0.9107 -1.5768 1.0052, -0.9108 -1.5728 1.0091, -0.9108 -1.5768 1.0091, -0.9095 -1.5728 1.0201, -0.9095 -1.5768 1.0201, -0.9068 -1.5728 1.027, -0.9068 -1.5768 1.027, -0.9029 -1.5728 1.0326, -0.9029 -1.5768 1.0326, -0.9024 -1.5728 1.0331, -0.9024 -1.5768 1.0331, -0.8976 -1.5728 1.0372, -0.8976 -1.5768 1.0372, -0.8914 -1.5728 1.0403, -0.8914 -1.5768 1.0403, -0.8846 -1.5728 1.0418, -0.8846 -1.5768 1.0418, -0.8806 -1.5728 1.042, -0.8806 -1.5768 1.042, -0.8707 -1.5728 1.0408, -0.8707 -1.5768 1.0408, -0.8626 -1.5728 1.0378, -0.8626 -1.5768 1.0378, -0.8617 -1.5728 1.0373, -0.8617 -1.5768 1.0373, -0.8617 -1.5768 1.0481, -0.8617 -1.5728 1.0481, -0.8807 -1.5728 1.0514, -0.8807 -1.5768 1.0514, -0.8721 -1.5728 1.0507, -0.8702 -1.5768 1.0505, -0.8702 -1.5728 1.0505, -0.8863 -1.5728 1.0507, -0.8923 -1.5768 1.0499, -0.8923 -1.5728 1.0499, -0.9006 -1.5728 1.0467, -0.9006 -1.5768 1.0467, -0.9081 -1.5728 1.0414, -0.9081 -1.5768 1.0414, -0.9101 -1.5728 1.0396, -0.9101 -1.5768 1.0396, -0.9159 -1.5728 1.032, -0.9181 -1.5728 1.0269, -0.9197 -1.5768 1.0231, -0.9159 -1.5768 1.032, -0.9197 -1.5728 1.0231, -0.9215 -1.5728 1.0126, -0.9215 -1.5768 1.0126, -0.9217 -1.5728 1.0085, -0.9217 -1.5768 1.0085, -0.9201 -1.5728 0.9954, -0.9181 -1.5728 0.9903, -0.9168 -1.5768 0.9871, -0.9201 -1.5768 0.9954, -0.9168 -1.5728 0.9871, -0.9121 -1.5728 0.9802, -0.9121 -1.5768 0.9802, -0.9114 -1.5728 0.9795, -0.9114 -1.5768 0.9795, -0.8887 -1.5768 0.9688, -0.905 -1.5728 0.9742, -0.905 -1.5768 0.9742, -0.8974 -1.5728 0.9706, -0.8974 -1.5768 0.9706, -0.8909 -1.5728 0.9693, -0.8887 -1.5728 0.9688, -0.8026 -1.5768 0.9791, -0.8026 -1.5768 0.9699, -0.8026 -1.5728 0.9791, -0.8026 -1.5728 0.9699, -0.8354 -1.5728 0.9791, -0.8354 -1.5768 0.9791, -0.8137 -1.5728 0.9791, -0.8354 -1.5768 1.006, -0.8354 -1.5728 1.006, -0.8067 -1.5768 1.006, -0.8137 -1.5728 1.006, -0.8067 -1.5728 1.006, -0.8067 -1.5768 1.0152, -0.8067 -1.5728 1.0152, -0.8354 -1.5728 1.0152, -0.8354 -1.5768 1.0152, -0.8137 -1.5728 1.0152, -0.8354 -1.5768 1.0408, -0.8354 -1.5728 1.0408, -0.8045 -1.5768 1.0408, -0.8137 -1.5728 1.0408, -0.8045 -1.5728 1.0408, -0.8045 -1.5768 1.05, -0.8045 -1.5728 1.05, -0.8457 -1.5728 1.05, -0.8457 -1.5768 1.05, -0.8137 -1.5728 1.05, -0.8457 -1.5768 0.9699, -0.8457 -1.5728 0.9699, -0.8137 -1.5728 0.9699, -0.7344 -1.5768 0.9812, -0.7427 -1.5768 0.9865, -0.7428 -1.5768 0.9752, -0.7478 -1.5768 0.983, -0.7519 -1.5768 0.9716, -0.7544 -1.5768 0.9804, -0.7655 -1.5768 0.9699, -0.7655 -1.5768 0.9791, -0.7875 -1.5768 0.9699, -0.7772 -1.5768 0.9791, -0.7875 -1.5768 1.05, -0.7772 -1.5768 1.0408, -0.7647 -1.5768 1.05, -0.7651 -1.5768 1.0408, -0.764 -1.5768 1.0408, -0.7524 -1.5768 1.0487, -0.7539 -1.5768 1.0394, -0.7428 -1.5768 1.0451, -0.7471 -1.5768 1.0368, -0.7344 -1.5768 1.0394, -0.742 -1.5768 1.0333, -0.7316 -1.5768 1.0366, -0.7397 -1.5768 1.0311, -0.7266 -1.5768 1.0297, -0.7366 -1.5768 1.0266, -0.7237 -1.5768 1.022, -0.7344 -1.5768 1.0207, -0.7223 -1.5768 1.011, -0.7332 -1.5768 1.0107, -0.7226 -1.5768 1.0059, -0.7335 -1.5768 1.005, -0.7245 -1.5768 0.9965, -0.7352 -1.5768 0.9978, -0.7284 -1.5768 0.9882, -0.738 -1.5768 0.992, -0.7417 -1.5768 0.9874, -0.7655 -1.5728 0.9699, -0.7875 -1.5728 0.9699, -0.7344 -1.5728 0.9812, -0.7519 -1.5728 0.9716, -0.7508 -1.5728 0.972, -0.7428 -1.5728 0.9752, -0.7284 -1.5728 0.9882, -0.7245 -1.5728 0.9965, -0.7226 -1.5728 1.0059, -0.7223 -1.5728 1.011, -0.7237 -1.5728 1.022, -0.7266 -1.5728 1.0297, -0.7316 -1.5728 1.0366, -0.7344 -1.5728 1.0394, -0.7647 -1.5728 1.05, -0.7428 -1.5728 1.0451, -0.7508 -1.5728 1.0481, -0.7524 -1.5728 1.0487, -0.7875 -1.5728 1.05, -0.7651 -1.5728 1.0408, -0.7772 -1.5728 1.0408, -0.7772 -1.5728 0.9791, -0.7655 -1.5728 0.9791, -0.7417 -1.5728 0.9874, -0.7427 -1.5728 0.9865, -0.7478 -1.5728 0.983, -0.7544 -1.5728 0.9804, -0.7332 -1.5728 1.0107, -0.7335 -1.5728 1.005, -0.7352 -1.5728 0.9978, -0.738 -1.5728 0.992, -0.742 -1.5728 1.0333, -0.7397 -1.5728 1.0311, -0.7366 -1.5728 1.0266, -0.7344 -1.5728 1.0207, -0.764 -1.5728 1.0408, -0.7539 -1.5728 1.0394, -0.7471 -1.5728 1.0368
            ]
        }
        coordIndex [
            0,1,2,-1,2,1,3,-1,4,0,5,-1,5,0,2,-1,6,4,7,-1,7,4,5,-1,8,6,9,-1,9,6,7,-1,10,8,11,-1,11,8,9,-1,1,10,3,-1,3,10,11,-1,6,8,4,-1,4,8,10,-1,4,10,0,-1,0,10,1,-1,12,13,14,-1,14,13,15,-1,15,16,14,-1,14,16,17,-1,14,17,18,-1,18,17,19,-1,18,19,20,-1,21,20,22,-1,22,20,19,-1,21,22,23,-1,21,23,24,-1,24,23,25,-1,24,25,26,-1,26,25,27,-1,26,27,28,-1,28,27,29,-1,28,29,30,-1,30,29,31,-1,30,31,32,-1,32,31,33,-1,32,33,34,-1,34,33,35,-1,34,35,36,-1,36,35,37,-1,36,37,38,-1,38,37,39,-1,38,39,40,-1,40,39,41,-1,40,41,42,-1,42,41,43,-1,42,43,44,-1,44,43,45,-1,44,45,46,-1,46,45,47,-1,46,47,48,-1,48,47,49,-1,48,49,50,-1,50,49,51,-1,50,51,52,-1,52,51,53,-1,52,53,54,-1,54,53,55,-1,54,55,56,-1,56,55,57,-1,56,57,58,-1,58,57,59,-1,58,59,60,-1,60,59,61,-1,60,61,62,-1,62,61,63,-1,62,63,64,-1,64,63,65,-1,64,65,66,-1,67,66,68,-1,68,66,65,-1,69,70,71,-1,71,70,72,-1,71,72,73,-1,73,72,67,-1,73,67,68,-1,70,69,74,-1,70,74,75,-1,74,76,75,-1,75,76,77,-1,75,77,78,-1,78,77,79,-1,78,79,80,-1,80,79,81,-1,80,81,82,-1,82,81,83,-1,84,85,83,-1,83,85,86,-1,83,86,82,-1,84,87,85,-1,85,87,88,-1,85,88,89,-1,89,88,90,-1,89,90,91,-1,91,90,92,-1,93,94,92,-1,92,94,95,-1,92,95,91,-1,93,96,94,-1,94,96,97,-1,94,97,98,-1,98,97,99,-1,98,99,100,-1,13,12,101,-1,100,99,102,-1,100,102,103,-1,103,102,104,-1,103,104,105,-1,105,104,106,-1,105,106,101,-1,101,106,107,-1,101,107,13,-1,54,56,75,-1,46,48,86,-1,86,48,82,-1,75,56,70,-1,91,44,89,-1,89,44,46,-1,89,46,85,-1,85,46,86,-1,56,58,70,-1,70,58,60,-1,70,60,72,-1,72,60,62,-1,72,62,67,-1,67,62,64,-1,67,64,66,-1,20,21,18,-1,18,21,24,-1,18,24,14,-1,14,24,26,-1,14,26,12,-1,12,26,28,-1,12,28,101,-1,101,28,30,-1,101,30,105,-1,105,30,32,-1,105,32,103,-1,103,32,34,-1,103,34,100,-1,100,34,36,-1,100,36,98,-1,98,36,38,-1,98,38,94,-1,94,38,95,-1,95,38,40,-1,95,40,91,-1,91,40,42,-1,91,42,44,-1,48,50,82,-1,82,50,52,-1,82,52,80,-1,80,52,54,-1,80,54,78,-1,78,54,75,-1,108,109,110,-1,110,109,111,-1,112,113,114,-1,114,113,108,-1,114,108,110,-1,115,113,116,-1,116,113,112,-1,115,116,117,-1,117,116,118,-1,117,118,119,-1,120,117,121,-1,121,117,119,-1,122,123,124,-1,124,123,120,-1,124,120,121,-1,125,123,126,-1,126,123,122,-1,125,126,127,-1,127,126,128,-1,127,128,129,-1,130,127,131,-1,131,127,129,-1,132,133,134,-1,134,133,130,-1,134,130,131,-1,135,133,136,-1,136,133,132,-1,135,136,109,-1,109,136,137,-1,109,137,111,-1,135,109,108,-1,108,113,135,-1,135,113,115,-1,135,115,133,-1,127,130,125,-1,125,130,133,-1,125,133,123,-1,123,133,115,-1,123,115,120,-1,120,115,117,-1,138,139,140,-1,140,139,141,-1,140,141,142,-1,142,141,143,-1,142,143,144,-1,144,143,145,-1,144,145,146,-1,146,145,147,-1,146,147,148,-1,148,147,149,-1,148,149,150,-1,149,151,150,-1,150,151,152,-1,150,152,153,-1,153,152,154,-1,153,154,155,-1,155,154,156,-1,155,156,157,-1,157,156,158,-1,157,158,159,-1,159,158,160,-1,159,160,161,-1,161,160,162,-1,161,162,163,-1,163,162,164,-1,163,164,165,-1,165,164,166,-1,165,166,167,-1,167,166,168,-1,167,168,169,-1,169,168,170,-1,169,170,171,-1,171,170,172,-1,171,172,138,-1,138,172,173,-1,138,173,139,-1,144,146,174,-1,174,146,175,-1,176,138,140,-1,144,174,177,-1,144,177,142,-1,142,177,178,-1,142,178,140,-1,140,178,179,-1,140,179,176,-1,138,176,180,-1,138,180,171,-1,171,180,181,-1,171,181,169,-1,169,181,182,-1,169,182,167,-1,167,182,183,-1,167,183,165,-1,165,183,184,-1,165,184,163,-1,163,184,185,-1,163,185,161,-1,161,185,186,-1,161,186,159,-1,159,186,187,-1,159,187,157,-1,188,150,153,-1,157,187,189,-1,157,189,155,-1,155,189,190,-1,155,190,153,-1,153,190,191,-1,153,191,188,-1,148,150,192,-1,192,150,188,-1,146,148,175,-1,175,148,192,-1,151,149,193,-1,193,149,194,-1,149,147,194,-1,194,147,195,-1,147,145,195,-1,195,145,196,-1,173,197,198,-1,173,198,139,-1,139,198,199,-1,139,199,141,-1,141,199,200,-1,141,200,143,-1,143,200,196,-1,143,196,145,-1,166,201,202,-1,166,202,168,-1,168,202,203,-1,168,203,170,-1,170,203,204,-1,170,204,172,-1,172,204,197,-1,172,197,173,-1,158,205,206,-1,158,206,160,-1,160,206,207,-1,160,207,162,-1,162,207,208,-1,162,208,164,-1,164,208,201,-1,164,201,166,-1,151,193,209,-1,151,209,152,-1,152,209,210,-1,152,210,154,-1,154,210,211,-1,154,211,156,-1,156,211,205,-1,156,205,158,-1,
        ]
    }
}
Shape{
    appearance Appearance {
        material  Material 	{
            diffuseColor 0.5019607843137255 0.5019607843137255 0.5019607843137255
            specularColor 0.25098039215686274 0.25098039215686274 0.25098039215686274
            ambientIntensity 0.502
            transparency 0.0
            shininess 0.5
        }
    }
    geometry IndexedFaceSet {
        ccw TRUE
        solid FALSE
        coord DEF co Coordinate {
            point [
                -0.7772 -1.5728 1.0408, -0.7772 -1.5728 0.9791, -0.7651 -1.5728 1.0408, -0.7655 -1.5728 0.9791, -0.764 -1.5728 1.0408, -0.7544 -1.5728 0.9804, -0.7478 -1.5728 0.983, -0.7427 -1.5728 0.9865, -0.7417 -1.5728 0.9874, -0.738 -1.5728 0.992, -0.7332 -1.5728 1.0107, -0.742 -1.5728 1.0333, -0.7335 -1.5728 1.005, -0.7471 -1.5728 1.0368, -0.7352 -1.5728 0.9978, -0.7539 -1.5728 1.0394, -0.7344 -1.5728 1.0207, -0.7366 -1.5728 1.0266, -0.7397 -1.5728 1.0311
            ]
        }
        coordIndex [
            0,1,2,-1,2,1,3,-1,2,3,4,-1,4,3,5,-1,4,5,6,-1,6,7,4,-1,4,7,8,-1,4,8,9,-1,10,11,12,-1,12,11,13,-1,9,14,4,-1,4,14,12,-1,4,12,15,-1,15,12,13,-1,16,17,10,-1,10,17,18,-1,10,18,11,-1,
        ]
    }
}
Shape{
    appearance Appearance {
        material  Material 	{
            diffuseColor 0.0 0.0 0.0
            specularColor 0.0 0.0 0.0
            ambientIntensity 0.0
            transparency 0.0
            shininess 0.5
        }
    }
    geometry IndexedFaceSet {
        ccw TRUE
        solid FALSE
        coord DEF co Coordinate {
            point [
                -0.6955 -1.5768 1.0009, -0.6988 -1.5768 0.9918, -0.6686 -1.5768 1.0009, -0.6654 -1.5768 0.9918, -0.6835 -1.5768 1.0342, -0.6874 -1.5768 1.05, -0.7179 -1.5768 0.9699, -0.7065 -1.5768 0.9699, -0.6828 -1.5768 1.0366, -0.6822 -1.5768 1.0398, -0.6763 -1.5768 1.05, -0.682 -1.5768 1.0398, -0.6813 -1.5768 1.0364, -0.6807 -1.5768 1.0342, -0.6458 -1.5768 0.9699, -0.6573 -1.5768 0.9699, -0.6763 -1.5728 1.05, -0.6458 -1.5728 0.9699, -0.6874 -1.5728 1.05, -0.7179 -1.5728 0.9699, -0.6948 -1.5728 1.0305, -0.7065 -1.5728 0.9699, -0.6988 -1.5728 0.9918, -0.6654 -1.5728 0.9918, -0.6948 -1.5728 0.9918, -0.6573 -1.5728 0.9699, -0.6955 -1.5728 1.0009, -0.6686 -1.5728 1.0009, -0.6807 -1.5728 1.0342, -0.682 -1.5728 1.0398, -0.6813 -1.5728 1.0364, -0.6822 -1.5728 1.0398, -0.6835 -1.5728 1.0342, -0.6828 -1.5728 1.0366
            ]
        }
        coordIndex [
            0,1,2,-1,2,1,3,-1,4,5,0,-1,0,5,6,-1,0,6,1,-1,1,6,7,-1,4,8,5,-1,5,8,9,-1,5,9,10,-1,10,9,11,-1,10,11,12,-1,12,13,10,-1,10,13,2,-1,10,2,14,-1,14,2,3,-1,14,3,15,-1,10,14,16,-1,16,14,17,-1,5,10,18,-1,18,10,16,-1,19,6,20,-1,20,6,5,-1,20,5,18,-1,7,6,21,-1,21,6,19,-1,1,7,22,-1,22,7,21,-1,23,3,24,-1,24,3,1,-1,24,1,22,-1,15,3,25,-1,25,3,23,-1,14,15,17,-1,17,15,25,-1,0,2,26,-1,26,2,27,-1,2,13,27,-1,27,13,28,-1,11,29,30,-1,11,30,12,-1,12,30,28,-1,12,28,13,-1,11,9,29,-1,29,9,31,-1,4,32,33,-1,4,33,8,-1,8,33,31,-1,8,31,9,-1,4,0,32,-1,32,0,26,-1,
        ]
    }
}
Shape{
    appearance Appearance {
        material  Material 	{
            diffuseColor 0.5019607843137255 0.5019607843137255 0.5019607843137255
            specularColor 0.25098039215686274 0.25098039215686274 0.25098039215686274
            ambientIntensity 0.502
            transparency 0.0
            shininess 0.5
        }
    }
    geometry IndexedFaceSet {
        ccw TRUE
        solid FALSE
        coord DEF co Coordinate {
            point [
                -0.682 -1.5728 1.0398, -0.6822 -1.5728 1.0398, -0.6813 -1.5728 1.0364, -0.6828 -1.5728 1.0366, -0.6807 -1.5728 1.0342, -0.6835 -1.5728 1.0342, -0.6686 -1.5728 1.0009, -0.6955 -1.5728 1.0009
            ]
        }
        coordIndex [
            0,1,2,-1,2,1,3,-1,2,3,4,-1,4,3,5,-1,4,5,6,-1,6,5,7,-1,
        ]
    }
}
Shape{
    appearance Appearance {
        material  Material 	{
            diffuseColor 0.0 0.0 0.0
            specularColor 0.0 0.0 0.0
            ambientIntensity 0.0
            transparency 0.0
            shininess 0.5
        }
    }
    geometry IndexedFaceSet {
        ccw TRUE
        solid FALSE
        coord DEF co Coordinate {
            point [
                -0.9241 -1.5768 0.852, -0.9241 -1.5768 0.8429, -0.9241 -1.5728 0.852, -0.9241 -1.5728 0.8429, -0.9568 -1.5768 0.852, -0.9568 -1.5728 0.852, -0.9568 -1.5768 0.879, -0.9568 -1.5728 0.879, -0.9282 -1.5768 0.879, -0.9282 -1.5728 0.879, -0.9282 -1.5768 0.8881, -0.9282 -1.5728 0.8881, -0.9568 -1.5768 0.8881, -0.9568 -1.5728 0.8881, -0.9568 -1.5768 0.9138, -0.9568 -1.5728 0.9138, -0.9259 -1.5768 0.9138, -0.9259 -1.5728 0.9138, -0.9259 -1.5768 0.923, -0.9259 -1.5728 0.923, -0.9672 -1.5768 0.923, -0.9672 -1.5728 0.923, -0.9672 -1.5768 0.8429, -0.9672 -1.5728 0.8429, -0.8786 -1.5768 0.8793, -0.8786 -1.5768 0.8716, -0.8692 -1.5768 0.8869, -0.892 -1.5768 0.8698, -0.8955 -1.5768 0.8769, -0.8986 -1.5768 0.8682, -0.9038 -1.5768 0.8748, -0.9008 -1.5768 0.867, -0.8789 -1.5768 0.8518, -0.8786 -1.5768 0.8518, -0.8792 -1.5768 0.861, -0.8786 -1.5768 0.8429, -0.8686 -1.5768 0.8429, -0.8686 -1.5768 0.8797, -0.8786 -1.5768 0.8655, -0.8786 -1.5768 0.8661, -0.9089 -1.5768 0.8961, -0.9089 -1.5768 0.8863, -0.9068 -1.5768 0.8973, -0.902 -1.5768 0.8907, -0.8994 -1.5768 0.9002, -0.8957 -1.5768 0.8927, -0.8892 -1.5768 0.9014, -0.8902 -1.5768 0.8933, -0.8829 -1.5768 0.9008, -0.8868 -1.5768 0.8929, -0.8787 -1.5768 0.8995, -0.8845 -1.5768 0.8921, -0.8754 -1.5768 0.8975, -0.8827 -1.5768 0.8909, -0.8728 -1.5768 0.8949, -0.8812 -1.5768 0.8893, -0.8708 -1.5768 0.8916, -0.88 -1.5768 0.8873, -0.8789 -1.5768 0.8837, -0.8807 -1.5768 0.8574, -0.8829 -1.5768 0.8545, -0.8812 -1.5768 0.8484, -0.8841 -1.5768 0.8532, -0.8845 -1.5768 0.8453, -0.887 -1.5768 0.8513, -0.8868 -1.5768 0.8438, -0.89 -1.5768 0.8502, -0.8908 -1.5768 0.8422, -0.8938 -1.5768 0.8498, -0.8964 -1.5768 0.8416, -0.8972 -1.5768 0.8502, -0.9024 -1.5768 0.8423, -0.8994 -1.5768 0.851, -0.9062 -1.5768 0.8437, -0.9014 -1.5768 0.8524, -0.9096 -1.5768 0.8461, -0.9023 -1.5768 0.8532, -0.9017 -1.5768 0.8663, -0.9078 -1.5768 0.8725, -0.9029 -1.5768 0.8648, -0.9108 -1.5768 0.8698, -0.9038 -1.5768 0.8629, -0.9128 -1.5768 0.8666, -0.9043 -1.5768 0.8606, -0.914 -1.5768 0.8629, -0.9043 -1.5768 0.859, -0.9145 -1.5768 0.8582, -0.9041 -1.5768 0.8567, -0.914 -1.5768 0.8536, -0.9034 -1.5768 0.8549, -0.9128 -1.5768 0.8503, -0.9107 -1.5768 0.8472, -0.8892 -1.5728 0.9014, -0.8994 -1.5728 0.9002, -0.9068 -1.5728 0.8973, -0.9089 -1.5728 0.8961, -0.9089 -1.5728 0.8863, -0.902 -1.5728 0.8907, -0.8957 -1.5728 0.8927, -0.8902 -1.5728 0.8933, -0.8868 -1.5728 0.8929, -0.8845 -1.5728 0.8921, -0.8827 -1.5728 0.8909, -0.8812 -1.5728 0.8893, -0.88 -1.5728 0.8873, -0.8789 -1.5728 0.8837, -0.8786 -1.5728 0.8793, -0.8955 -1.5728 0.8769, -0.9038 -1.5728 0.8748, -0.9078 -1.5728 0.8725, -0.9108 -1.5728 0.8698, -0.9128 -1.5728 0.8666, -0.914 -1.5728 0.8629, -0.9145 -1.5728 0.8582, -0.914 -1.5728 0.8536, -0.9128 -1.5728 0.8503, -0.9107 -1.5728 0.8472, -0.9096 -1.5728 0.8461, -0.8964 -1.5728 0.8416, -0.9022 -1.5728 0.8422, -0.9024 -1.5728 0.8423, -0.9062 -1.5728 0.8437, -0.8908 -1.5728 0.8422, -0.8868 -1.5728 0.8438, -0.8845 -1.5728 0.8453, -0.8812 -1.5728 0.8484, -0.8789 -1.5728 0.8518, -0.8786 -1.5728 0.8518, -0.8786 -1.5728 0.8429, -0.8686 -1.5728 0.8429, -0.8686 -1.5728 0.8797, -0.8692 -1.5728 0.8869, -0.8708 -1.5728 0.8916, -0.8728 -1.5728 0.8949, -0.8754 -1.5728 0.8975, -0.8787 -1.5728 0.8995, -0.8829 -1.5728 0.9008, -0.9017 -1.5728 0.8663, -0.9008 -1.5728 0.867, -0.8986 -1.5728 0.8682, -0.892 -1.5728 0.8698, -0.9043 -1.5728 0.859, -0.9043 -1.5728 0.8606, -0.9038 -1.5728 0.8629, -0.9029 -1.5728 0.8648, -0.9014 -1.5728 0.8524, -0.9023 -1.5728 0.8532, -0.9034 -1.5728 0.8549, -0.9041 -1.5728 0.8567, -0.8938 -1.5728 0.8498, -0.8972 -1.5728 0.8502, -0.8994 -1.5728 0.851, -0.8829 -1.5728 0.8545, -0.8841 -1.5728 0.8532, -0.887 -1.5728 0.8513, -0.89 -1.5728 0.8502, -0.8786 -1.5728 0.8661, -0.8786 -1.5728 0.8655, -0.8792 -1.5728 0.861, -0.8807 -1.5728 0.8574, -0.8786 -1.5728 0.8716
            ]
        }
        coordIndex [
            0,1,2,-1,2,1,3,-1,4,0,5,-1,5,0,2,-1,6,4,7,-1,7,4,5,-1,8,6,9,-1,9,6,7,-1,10,8,11,-1,11,8,9,-1,12,10,13,-1,13,10,11,-1,14,12,15,-1,15,12,13,-1,16,14,17,-1,17,14,15,-1,18,16,19,-1,19,16,17,-1,20,18,21,-1,21,18,19,-1,22,20,23,-1,23,20,21,-1,1,22,3,-1,3,22,23,-1,22,1,0,-1,0,4,22,-1,22,4,6,-1,22,6,20,-1,16,18,14,-1,14,18,20,-1,14,20,12,-1,12,20,6,-1,12,6,10,-1,10,6,8,-1,24,25,26,-1,25,24,27,-1,27,24,28,-1,27,28,29,-1,29,28,30,-1,29,30,31,-1,32,33,34,-1,35,36,33,-1,33,36,37,-1,33,37,34,-1,34,37,38,-1,26,25,37,-1,37,25,39,-1,37,39,38,-1,40,41,42,-1,42,41,43,-1,42,43,44,-1,44,43,45,-1,44,45,46,-1,46,45,47,-1,46,47,48,-1,48,47,49,-1,48,49,50,-1,50,49,51,-1,50,51,52,-1,52,51,53,-1,52,53,54,-1,54,53,55,-1,54,55,56,-1,56,55,57,-1,56,57,26,-1,26,57,58,-1,26,58,24,-1,34,59,32,-1,32,59,60,-1,32,60,61,-1,61,60,62,-1,61,62,63,-1,63,62,64,-1,63,64,65,-1,65,64,66,-1,65,66,67,-1,67,66,68,-1,67,68,69,-1,69,68,70,-1,69,70,71,-1,71,70,72,-1,71,72,73,-1,73,72,74,-1,73,74,75,-1,75,74,76,-1,31,30,77,-1,77,30,78,-1,77,78,79,-1,79,78,80,-1,79,80,81,-1,81,80,82,-1,81,82,83,-1,83,82,84,-1,83,84,85,-1,85,84,86,-1,85,86,87,-1,87,86,88,-1,87,88,89,-1,89,88,90,-1,89,90,76,-1,76,90,91,-1,76,91,75,-1,46,92,93,-1,46,93,44,-1,44,93,94,-1,44,94,42,-1,42,94,95,-1,42,95,40,-1,41,40,96,-1,96,40,95,-1,41,96,97,-1,41,97,43,-1,43,97,98,-1,43,98,45,-1,45,98,99,-1,45,99,47,-1,47,99,100,-1,47,100,49,-1,49,100,101,-1,49,101,51,-1,51,101,102,-1,51,102,53,-1,53,102,103,-1,53,103,55,-1,55,103,104,-1,55,104,57,-1,57,104,105,-1,57,105,58,-1,58,105,106,-1,58,106,24,-1,28,24,107,-1,107,24,106,-1,28,107,108,-1,28,108,30,-1,30,108,109,-1,30,109,78,-1,78,109,110,-1,78,110,80,-1,80,110,111,-1,80,111,82,-1,82,111,112,-1,82,112,84,-1,84,112,113,-1,84,113,86,-1,86,113,114,-1,86,114,88,-1,88,114,115,-1,88,115,90,-1,90,115,116,-1,90,116,91,-1,91,116,117,-1,91,117,75,-1,118,69,119,-1,119,69,71,-1,119,71,120,-1,120,71,73,-1,120,73,121,-1,121,73,75,-1,121,75,117,-1,69,118,122,-1,69,122,67,-1,67,122,123,-1,67,123,65,-1,65,123,124,-1,65,124,63,-1,63,124,125,-1,63,125,61,-1,61,125,126,-1,61,126,32,-1,33,32,127,-1,127,32,126,-1,35,33,128,-1,128,33,127,-1,36,35,129,-1,129,35,128,-1,37,36,130,-1,130,36,129,-1,37,130,131,-1,37,131,26,-1,26,131,132,-1,26,132,56,-1,56,132,133,-1,56,133,54,-1,54,133,134,-1,54,134,52,-1,52,134,135,-1,52,135,50,-1,50,135,136,-1,50,136,48,-1,48,136,92,-1,48,92,46,-1,77,137,138,-1,77,138,31,-1,31,138,139,-1,31,139,29,-1,29,139,140,-1,29,140,27,-1,85,141,142,-1,85,142,83,-1,83,142,143,-1,83,143,81,-1,81,143,144,-1,81,144,79,-1,79,144,137,-1,79,137,77,-1,74,145,146,-1,74,146,76,-1,76,146,147,-1,76,147,89,-1,89,147,148,-1,89,148,87,-1,87,148,141,-1,87,141,85,-1,68,149,150,-1,68,150,70,-1,70,150,151,-1,70,151,72,-1,72,151,145,-1,72,145,74,-1,60,152,153,-1,60,153,62,-1,62,153,154,-1,62,154,64,-1,64,154,155,-1,64,155,66,-1,66,155,149,-1,66,149,68,-1,39,156,157,-1,39,157,38,-1,38,157,158,-1,38,158,34,-1,34,158,159,-1,34,159,59,-1,59,159,152,-1,59,152,60,-1,39,25,156,-1,156,25,160,-1,25,27,160,-1,160,27,140,-1,
        ]
    }
}
Shape{
    appearance Appearance {
        material  Material 	{
            diffuseColor 0.5019607843137255 0.5019607843137255 0.5019607843137255
            specularColor 0.25098039215686274 0.25098039215686274 0.25098039215686274
            ambientIntensity 0.502
            transparency 0.0
            shininess 0.5
        }
    }
    geometry IndexedFaceSet {
        ccw TRUE
        solid FALSE
        coord DEF co Coordinate {
            point [
                -0.8786 -1.5728 0.8655, -0.8786 -1.5728 0.8661, -0.9017 -1.5728 0.8663, -0.8786 -1.5728 0.8716, -0.892 -1.5728 0.8698, -0.8986 -1.5728 0.8682, -0.9008 -1.5728 0.867, -0.8792 -1.5728 0.861, -0.9029 -1.5728 0.8648, -0.8807 -1.5728 0.8574, -0.9023 -1.5728 0.8532, -0.9014 -1.5728 0.8524, -0.8841 -1.5728 0.8532, -0.9034 -1.5728 0.8549, -0.887 -1.5728 0.8513, -0.89 -1.5728 0.8502, -0.8938 -1.5728 0.8498, -0.9038 -1.5728 0.8629, -0.9043 -1.5728 0.8606, -0.8829 -1.5728 0.8545, -0.9043 -1.5728 0.859, -0.9041 -1.5728 0.8567, -0.8994 -1.5728 0.851, -0.8972 -1.5728 0.8502
            ]
        }
        coordIndex [
            0,1,2,-1,1,3,4,-1,4,5,1,-1,1,5,6,-1,1,6,2,-1,0,2,7,-1,7,2,8,-1,7,8,9,-1,10,11,12,-1,10,12,13,-1,14,12,15,-1,15,12,16,-1,8,17,9,-1,9,17,18,-1,9,18,19,-1,19,18,20,-1,19,20,12,-1,12,20,21,-1,12,21,13,-1,11,22,12,-1,12,22,23,-1,12,23,16,-1,
        ]
    }
}
Shape{
    appearance Appearance {
        material  Material 	{
            diffuseColor 0.0 0.0 0.0
            specularColor 0.0 0.0 0.0
            ambientIntensity 0.0
            transparency 0.0
            shininess 0.5
        }
    }
    geometry IndexedFaceSet {
        ccw TRUE
        solid FALSE
        coord DEF co Coordinate {
            point [
                -0.855 -1.5728 0.8553, -0.855 -1.5768 0.8553, -0.8508 -1.5768 0.8527, -0.8385 -1.5768 0.8497, -0.8385 -1.5728 0.8497, -0.8445 -1.5728 0.8504, -0.8445 -1.5768 0.8504, -0.8503 -1.5728 0.8526, -0.8508 -1.5728 0.8527, -0.855 -1.5768 0.8449, -0.855 -1.5728 0.8449, -0.8503 -1.5728 0.8432, -0.849 -1.5768 0.8427, -0.8395 -1.5728 0.8416, -0.8395 -1.5768 0.8416, -0.8451 -1.5728 0.8422, -0.849 -1.5728 0.8427, -0.8305 -1.5768 0.8426, -0.8337 -1.5728 0.8422, -0.8305 -1.5728 0.8426, -0.8252 -1.5728 0.8447, -0.8252 -1.5768 0.8447, -0.8228 -1.5728 0.8461, -0.8228 -1.5768 0.8461, -0.8199 -1.5728 0.8486, -0.8199 -1.5768 0.8486, -0.8181 -1.5728 0.8513, -0.8181 -1.5768 0.8513, -0.8168 -1.5728 0.8544, -0.8168 -1.5768 0.8544, -0.8163 -1.5728 0.8585, -0.8163 -1.5768 0.8585, -0.8168 -1.5728 0.8622, -0.8168 -1.5768 0.8622, -0.8178 -1.5728 0.8652, -0.8178 -1.5768 0.8652, -0.8197 -1.5728 0.8679, -0.8197 -1.5768 0.8679, -0.8221 -1.5728 0.8701, -0.8221 -1.5768 0.8701, -0.8288 -1.5728 0.8738, -0.8288 -1.5768 0.8738, -0.8326 -1.5728 0.8753, -0.8326 -1.5768 0.8753, -0.8388 -1.5728 0.878, -0.8388 -1.5768 0.878, -0.8424 -1.5728 0.8802, -0.8424 -1.5768 0.8802, -0.8434 -1.5728 0.8813, -0.8434 -1.5768 0.8813, -0.8441 -1.5728 0.8827, -0.8441 -1.5768 0.8827, -0.8445 -1.5728 0.8842, -0.8445 -1.5768 0.8842, -0.8446 -1.5728 0.8856, -0.8446 -1.5768 0.8856, -0.8444 -1.5728 0.8872, -0.8444 -1.5768 0.8872, -0.8439 -1.5728 0.8885, -0.8439 -1.5768 0.8885, -0.843 -1.5728 0.8898, -0.843 -1.5768 0.8898, -0.8415 -1.5728 0.8911, -0.8415 -1.5768 0.8911, -0.8393 -1.5728 0.8923, -0.8393 -1.5768 0.8923, -0.8366 -1.5728 0.893, -0.8366 -1.5768 0.893, -0.8336 -1.5728 0.8933, -0.8336 -1.5768 0.8933, -0.8274 -1.5728 0.8926, -0.8274 -1.5768 0.8926, -0.8217 -1.5728 0.8906, -0.8217 -1.5768 0.8906, -0.8191 -1.5728 0.8891, -0.8191 -1.5768 0.8891, -0.8191 -1.5768 0.8989, -0.8191 -1.5728 0.8989, -0.8256 -1.5728 0.9008, -0.8256 -1.5768 0.9008, -0.8326 -1.5728 0.9014, -0.8326 -1.5768 0.9014, -0.8395 -1.5728 0.9007, -0.8395 -1.5768 0.9007, -0.8451 -1.5728 0.8988, -0.8451 -1.5768 0.8988, -0.8485 -1.5728 0.8969, -0.8485 -1.5768 0.8969, -0.8503 -1.5728 0.8952, -0.8515 -1.5768 0.8942, -0.8515 -1.5728 0.8942, -0.8533 -1.5728 0.8915, -0.8533 -1.5768 0.8915, -0.8545 -1.5728 0.8882, -0.8545 -1.5768 0.8882, -0.8549 -1.5728 0.8847, -0.8549 -1.5768 0.8847, -0.8545 -1.5728 0.8808, -0.8545 -1.5768 0.8808, -0.8534 -1.5728 0.8777, -0.8534 -1.5768 0.8777, -0.8521 -1.5728 0.8756, -0.8521 -1.5768 0.8756, -0.8397 -1.5728 0.868, -0.8397 -1.5768 0.868, -0.8457 -1.5768 0.8708, -0.8504 -1.5728 0.8739, -0.8504 -1.5768 0.8739, -0.8503 -1.5728 0.8738, -0.8457 -1.5728 0.8708, -0.8331 -1.5728 0.8653, -0.8331 -1.5768 0.8653, -0.8292 -1.5728 0.8629, -0.8292 -1.5768 0.8629, -0.828 -1.5728 0.8616, -0.828 -1.5768 0.8616, -0.8272 -1.5728 0.8603, -0.8272 -1.5768 0.8603, -0.8267 -1.5728 0.8587, -0.8267 -1.5768 0.8587, -0.8266 -1.5728 0.8575, -0.8266 -1.5768 0.8575, -0.8268 -1.5728 0.8556, -0.8268 -1.5768 0.8556, -0.8274 -1.5728 0.8541, -0.8274 -1.5768 0.8541, -0.8282 -1.5728 0.8529, -0.8282 -1.5768 0.8529, -0.8294 -1.5728 0.8518, -0.8294 -1.5768 0.8518, -0.8303 -1.5728 0.8513, -0.8303 -1.5768 0.8513, -0.8329 -1.5728 0.8503, -0.8329 -1.5768 0.8503, -0.838 -1.5728 0.8498, -0.838 -1.5768 0.8498, -0.7666 -1.5768 0.9001, -0.7562 -1.5768 0.9001, -0.7666 -1.5728 0.9001, -0.7562 -1.5728 0.9001, -0.7822 -1.5768 0.857, -0.7822 -1.5728 0.857, -0.783 -1.5728 0.8544, -0.783 -1.5768 0.8544, -0.7835 -1.5728 0.8524, -0.7835 -1.5768 0.8524, -0.7837 -1.5768 0.8524, -0.7837 -1.5728 0.8524, -0.785 -1.5768 0.8571, -0.785 -1.5728 0.8571, -0.7999 -1.5728 0.9001, -0.7999 -1.5768 0.9001, -0.7951 -1.5728 0.8862, -0.8111 -1.5768 0.9001, -0.8111 -1.5728 0.9001, -0.7887 -1.5728 0.843, -0.7887 -1.5768 0.843, -0.7951 -1.5728 0.8593, -0.7931 -1.5728 0.8326, -0.7931 -1.5768 0.8326, -0.789 -1.5728 0.8422, -0.7951 -1.5728 0.829, -0.7951 -1.5768 0.829, -0.7951 -1.5728 0.829, -0.797 -1.5728 0.8269, -0.797 -1.5768 0.8269, -0.7986 -1.5728 0.8257, -0.7986 -1.5768 0.8257, -0.8008 -1.5728 0.8249, -0.8008 -1.5768 0.8249, -0.8034 -1.5728 0.8246, -0.8034 -1.5768 0.8246, -0.807 -1.5728 0.825, -0.807 -1.5768 0.825, -0.8091 -1.5728 0.8257, -0.8091 -1.5768 0.8257, -0.8091 -1.5768 0.8168, -0.8091 -1.5728 0.8168, -0.8048 -1.5728 0.8161, -0.8048 -1.5768 0.8161, -0.8026 -1.5728 0.816, -0.8026 -1.5768 0.816, -0.7985 -1.5728 0.8164, -0.7985 -1.5768 0.8164, -0.7951 -1.5728 0.8178, -0.7946 -1.5768 0.818, -0.7946 -1.5728 0.818, -0.7911 -1.5728 0.8204, -0.7911 -1.5768 0.8204, -0.7904 -1.5728 0.821, -0.7904 -1.5768 0.821, -0.7867 -1.5728 0.8254, -0.7867 -1.5768 0.8254, -0.7822 -1.5728 0.8343, -0.7822 -1.5768 0.8343, -0.779 -1.5728 0.8422, -0.7024 -1.5768 0.852, -0.7024 -1.5768 0.8429, -0.7024 -1.5728 0.852, -0.7024 -1.5728 0.8429, -0.7351 -1.5728 0.852, -0.7351 -1.5768 0.852, -0.7201 -1.5728 0.852, -0.7351 -1.5768 0.879, -0.7351 -1.5728 0.879, -0.7065 -1.5728 0.879, -0.7065 -1.5768 0.879, -0.7201 -1.5728 0.879, -0.7065 -1.5768 0.8881, -0.7065 -1.5728 0.8881, -0.7351 -1.5728 0.8881, -0.7351 -1.5768 0.8881, -0.7201 -1.5728 0.8881, -0.7351 -1.5768 0.9138, -0.7351 -1.5728 0.9138, -0.7042 -1.5728 0.9138, -0.7042 -1.5768 0.9138, -0.7201 -1.5728 0.9138, -0.7042 -1.5768 0.923, -0.7042 -1.5728 0.923, -0.7454 -1.5728 0.923, -0.7454 -1.5768 0.923, -0.7201 -1.5728 0.923, -0.7454 -1.5768 0.8429, -0.7454 -1.5728 0.8429, -0.7201 -1.5728 0.8429, -0.6341 -1.5768 0.8541, -0.6424 -1.5768 0.8595, -0.6425 -1.5768 0.8481, -0.6476 -1.5768 0.8559, -0.6516 -1.5768 0.8446, -0.6542 -1.5768 0.8534, -0.6652 -1.5768 0.8429, -0.6653 -1.5768 0.852, -0.6872 -1.5768 0.8429, -0.6769 -1.5768 0.852, -0.6872 -1.5768 0.923, -0.6769 -1.5768 0.9138, -0.6644 -1.5768 0.923, -0.6648 -1.5768 0.9138, -0.6637 -1.5768 0.9138, -0.6522 -1.5768 0.9216, -0.6536 -1.5768 0.9124, -0.6425 -1.5768 0.9181, -0.6468 -1.5768 0.9097, -0.6341 -1.5768 0.9124, -0.6417 -1.5768 0.9062, -0.6313 -1.5768 0.9096, -0.6395 -1.5768 0.904, -0.6263 -1.5768 0.9026, -0.6364 -1.5768 0.8996, -0.6234 -1.5768 0.895, -0.6341 -1.5768 0.8937, -0.622 -1.5768 0.884, -0.6329 -1.5768 0.8837, -0.6223 -1.5768 0.8789, -0.6333 -1.5768 0.878, -0.6242 -1.5768 0.8695, -0.6349 -1.5768 0.8708, -0.6282 -1.5768 0.8612, -0.6377 -1.5768 0.8649, -0.6415 -1.5768 0.8604, -0.6652 -1.5728 0.8429, -0.6872 -1.5728 0.8429, -0.6516 -1.5728 0.8446, -0.6425 -1.5728 0.8481, -0.6341 -1.5728 0.8541, -0.6282 -1.5728 0.8612, -0.6242 -1.5728 0.8695, -0.6223 -1.5728 0.8789, -0.622 -1.5728 0.884, -0.6234 -1.5728 0.895, -0.6263 -1.5728 0.9026, -0.6313 -1.5728 0.9096, -0.6341 -1.5728 0.9124, -0.6425 -1.5728 0.9181, -0.6522 -1.5728 0.9216, -0.6644 -1.5728 0.923, -0.6872 -1.5728 0.923, -0.6648 -1.5728 0.9138, -0.6769 -1.5728 0.9138, -0.6769 -1.5728 0.852, -0.6653 -1.5728 0.852, -0.6415 -1.5728 0.8604, -0.6424 -1.5728 0.8595, -0.6476 -1.5728 0.8559, -0.6542 -1.5728 0.8534, -0.6329 -1.5728 0.8837, -0.6333 -1.5728 0.878, -0.6349 -1.5728 0.8708, -0.6377 -1.5728 0.8649, -0.6417 -1.5728 0.9062, -0.6395 -1.5728 0.904, -0.6364 -1.5728 0.8996, -0.6341 -1.5728 0.8937, -0.6637 -1.5728 0.9138, -0.6536 -1.5728 0.9124, -0.6468 -1.5728 0.9097
            ]
        }
        coordIndex [
            0,1,2,-1,3,4,5,-1,3,5,6,-1,6,5,7,-1,6,7,2,-1,2,7,8,-1,2,8,0,-1,9,1,10,-1,10,1,0,-1,10,11,9,-1,9,11,12,-1,13,14,15,-1,15,14,12,-1,15,12,16,-1,16,12,11,-1,14,13,17,-1,17,13,18,-1,18,19,17,-1,17,19,20,-1,17,20,21,-1,21,20,22,-1,21,22,23,-1,23,22,24,-1,23,24,25,-1,25,24,26,-1,25,26,27,-1,27,26,28,-1,27,28,29,-1,29,28,30,-1,29,30,31,-1,31,30,32,-1,31,32,33,-1,33,32,34,-1,33,34,35,-1,35,34,36,-1,35,36,37,-1,37,36,38,-1,37,38,39,-1,39,38,40,-1,39,40,41,-1,41,40,42,-1,41,42,43,-1,43,42,44,-1,43,44,45,-1,45,44,46,-1,45,46,47,-1,47,46,48,-1,47,48,49,-1,49,48,50,-1,49,50,51,-1,51,50,52,-1,51,52,53,-1,53,52,54,-1,53,54,55,-1,55,54,56,-1,55,56,57,-1,57,56,58,-1,57,58,59,-1,59,58,60,-1,59,60,61,-1,61,60,62,-1,61,62,63,-1,63,62,64,-1,63,64,65,-1,65,64,66,-1,65,66,67,-1,67,66,68,-1,67,68,69,-1,69,68,70,-1,69,70,71,-1,71,70,72,-1,71,72,73,-1,73,72,74,-1,73,74,75,-1,76,75,77,-1,77,75,74,-1,76,77,78,-1,76,78,79,-1,79,78,80,-1,79,80,81,-1,81,80,82,-1,81,82,83,-1,83,82,84,-1,83,84,85,-1,85,84,86,-1,85,86,87,-1,86,88,87,-1,87,88,89,-1,88,90,89,-1,89,90,91,-1,89,91,92,-1,92,91,93,-1,92,93,94,-1,94,93,95,-1,94,95,96,-1,96,95,97,-1,96,97,98,-1,98,97,99,-1,98,99,100,-1,100,99,101,-1,100,101,102,-1,103,104,105,-1,102,101,106,-1,102,106,107,-1,107,106,108,-1,107,108,105,-1,105,108,109,-1,105,109,103,-1,104,103,110,-1,104,110,111,-1,111,110,112,-1,111,112,113,-1,113,112,114,-1,113,114,115,-1,115,114,116,-1,115,116,117,-1,117,116,118,-1,117,118,119,-1,119,118,120,-1,119,120,121,-1,121,120,122,-1,121,122,123,-1,123,122,124,-1,123,124,125,-1,125,124,126,-1,125,126,127,-1,127,126,128,-1,127,128,129,-1,129,128,130,-1,129,130,131,-1,131,130,132,-1,131,132,133,-1,133,132,134,-1,133,134,135,-1,135,134,4,-1,135,4,3,-1,61,63,85,-1,85,63,83,-1,111,43,104,-1,104,43,45,-1,21,23,127,-1,127,23,25,-1,127,25,125,-1,125,25,27,-1,125,27,123,-1,123,27,29,-1,123,29,121,-1,121,29,31,-1,121,31,119,-1,119,31,33,-1,119,33,117,-1,117,33,35,-1,117,35,115,-1,115,35,37,-1,115,37,113,-1,113,37,39,-1,113,39,111,-1,111,39,41,-1,111,41,43,-1,14,3,12,-1,12,3,6,-1,12,6,9,-1,9,6,2,-1,9,2,1,-1,63,65,83,-1,83,65,67,-1,83,67,81,-1,81,67,69,-1,81,69,79,-1,79,69,71,-1,79,71,76,-1,76,71,73,-1,76,73,75,-1,127,129,21,-1,21,129,131,-1,21,131,17,-1,17,131,133,-1,17,133,14,-1,14,133,135,-1,14,135,3,-1,85,87,61,-1,61,87,89,-1,61,89,59,-1,59,89,92,-1,59,92,57,-1,57,92,94,-1,57,94,55,-1,55,94,96,-1,55,96,53,-1,53,96,98,-1,53,98,51,-1,51,98,100,-1,51,100,49,-1,49,100,102,-1,49,102,47,-1,47,102,107,-1,47,107,45,-1,45,107,105,-1,45,105,104,-1,136,137,138,-1,138,137,139,-1,140,136,141,-1,141,136,138,-1,140,141,142,-1,140,142,143,-1,143,142,144,-1,143,144,145,-1,146,145,147,-1,147,145,144,-1,148,146,149,-1,149,146,147,-1,150,151,152,-1,152,151,148,-1,152,148,149,-1,153,151,154,-1,154,151,150,-1,155,156,157,-1,157,156,153,-1,157,153,154,-1,158,159,160,-1,160,159,156,-1,160,156,155,-1,158,161,159,-1,159,161,162,-1,161,163,162,-1,162,163,164,-1,162,164,165,-1,165,164,166,-1,165,166,167,-1,167,166,168,-1,167,168,169,-1,169,168,170,-1,169,170,171,-1,171,170,172,-1,171,172,173,-1,173,172,174,-1,173,174,175,-1,176,175,177,-1,177,175,174,-1,176,177,178,-1,176,178,179,-1,179,178,180,-1,179,180,181,-1,181,180,182,-1,181,182,183,-1,183,182,184,-1,183,184,185,-1,184,186,185,-1,185,186,187,-1,185,187,188,-1,188,187,189,-1,188,189,190,-1,190,189,191,-1,190,191,192,-1,192,191,193,-1,192,193,194,-1,139,137,195,-1,195,137,194,-1,195,194,193,-1,143,145,194,-1,137,136,194,-1,194,136,140,-1,194,140,143,-1,151,153,148,-1,148,153,156,-1,148,156,146,-1,175,176,173,-1,173,176,179,-1,173,179,171,-1,171,179,181,-1,171,181,169,-1,169,181,183,-1,169,183,167,-1,167,183,185,-1,167,185,165,-1,145,146,194,-1,194,146,156,-1,194,156,192,-1,156,159,192,-1,192,159,162,-1,192,162,190,-1,190,162,165,-1,190,165,188,-1,188,165,185,-1,196,197,198,-1,198,197,199,-1,200,201,202,-1,202,201,196,-1,202,196,198,-1,203,201,204,-1,204,201,200,-1,205,206,207,-1,207,206,203,-1,207,203,204,-1,208,206,209,-1,209,206,205,-1,210,211,212,-1,212,211,208,-1,212,208,209,-1,213,211,214,-1,214,211,210,-1,215,216,217,-1,217,216,213,-1,217,213,214,-1,218,216,219,-1,219,216,215,-1,220,221,222,-1,222,221,218,-1,222,218,219,-1,223,221,224,-1,224,221,220,-1,199,197,225,-1,225,197,223,-1,225,223,224,-1,223,197,196,-1,196,201,223,-1,223,201,203,-1,223,203,221,-1,216,218,213,-1,213,218,221,-1,213,221,211,-1,211,221,203,-1,211,203,208,-1,208,203,206,-1,226,227,228,-1,228,227,229,-1,228,229,230,-1,230,229,231,-1,230,231,232,-1,232,231,233,-1,232,233,234,-1,234,233,235,-1,234,235,236,-1,236,235,237,-1,236,237,238,-1,237,239,238,-1,238,239,240,-1,238,240,241,-1,241,240,242,-1,241,242,243,-1,243,242,244,-1,243,244,245,-1,245,244,246,-1,245,246,247,-1,247,246,248,-1,247,248,249,-1,249,248,250,-1,249,250,251,-1,251,250,252,-1,251,252,253,-1,253,252,254,-1,253,254,255,-1,255,254,256,-1,255,256,257,-1,257,256,258,-1,257,258,259,-1,259,258,260,-1,259,260,226,-1,226,260,261,-1,226,261,227,-1,232,234,262,-1,262,234,263,-1,232,262,264,-1,232,264,230,-1,230,264,265,-1,230,265,228,-1,228,265,266,-1,228,266,226,-1,226,266,267,-1,226,267,259,-1,259,267,268,-1,259,268,257,-1,257,268,269,-1,257,269,255,-1,255,269,270,-1,255,270,253,-1,253,270,271,-1,253,271,251,-1,251,271,272,-1,251,272,249,-1,249,272,273,-1,249,273,247,-1,247,273,274,-1,247,274,245,-1,245,274,275,-1,245,275,243,-1,243,275,276,-1,243,276,241,-1,241,276,277,-1,241,277,238,-1,236,238,278,-1,278,238,277,-1,234,236,263,-1,263,236,278,-1,239,237,279,-1,279,237,280,-1,237,235,280,-1,280,235,281,-1,235,233,281,-1,281,233,282,-1,261,283,284,-1,261,284,227,-1,227,284,285,-1,227,285,229,-1,229,285,286,-1,229,286,231,-1,231,286,282,-1,231,282,233,-1,254,287,288,-1,254,288,256,-1,256,288,289,-1,256,289,258,-1,258,289,290,-1,258,290,260,-1,260,290,283,-1,260,283,261,-1,246,291,292,-1,246,292,248,-1,248,292,293,-1,248,293,250,-1,250,293,294,-1,250,294,252,-1,252,294,287,-1,252,287,254,-1,239,279,295,-1,239,295,240,-1,240,295,296,-1,240,296,242,-1,242,296,297,-1,242,297,244,-1,244,297,291,-1,244,291,246,-1,
        ]
    }
}
Shape{
    appearance Appearance {
        material  Material 	{
            diffuseColor 0.5019607843137255 0.5019607843137255 0.5019607843137255
            specularColor 0.25098039215686274 0.25098039215686274 0.25098039215686274
            ambientIntensity 0.502
            transparency 0.0
            shininess 0.5
        }
    }
    geometry IndexedFaceSet {
        ccw TRUE
        solid FALSE
        coord DEF co Coordinate {
            point [
                -0.6769 -1.5728 0.9138, -0.6769 -1.5728 0.852, -0.6648 -1.5728 0.9138, -0.6653 -1.5728 0.852, -0.6637 -1.5728 0.9138, -0.6542 -1.5728 0.8534, -0.6476 -1.5728 0.8559, -0.6424 -1.5728 0.8595, -0.6415 -1.5728 0.8604, -0.6377 -1.5728 0.8649, -0.6329 -1.5728 0.8837, -0.6417 -1.5728 0.9062, -0.6333 -1.5728 0.878, -0.6468 -1.5728 0.9097, -0.6349 -1.5728 0.8708, -0.6536 -1.5728 0.9124, -0.6341 -1.5728 0.8937, -0.6364 -1.5728 0.8996, -0.6395 -1.5728 0.904
            ]
        }
        coordIndex [
            0,1,2,-1,2,1,3,-1,2,3,4,-1,4,3,5,-1,4,5,6,-1,6,7,4,-1,4,7,8,-1,4,8,9,-1,10,11,12,-1,12,11,13,-1,9,14,4,-1,4,14,12,-1,4,12,15,-1,15,12,13,-1,16,17,10,-1,10,17,18,-1,10,18,11,-1,
        ]
    }
}
Shape{
    appearance Appearance {
        material  Material 	{
            diffuseColor 0.0 0.0 0.0
            specularColor 0.0 0.0 0.0
            ambientIntensity 0.0
            transparency 0.0
            shininess 0.5
        }
    }
    geometry IndexedFaceSet {
        ccw TRUE
        solid FALSE
        coord DEF co Coordinate {
            point [
                -0.5952 -1.5768 0.8739, -0.5985 -1.5768 0.8648, -0.5683 -1.5768 0.8739, -0.5651 -1.5768 0.8648, -0.5832 -1.5768 0.9071, -0.5871 -1.5768 0.923, -0.6176 -1.5768 0.8429, -0.6062 -1.5768 0.8429, -0.5825 -1.5768 0.9095, -0.5819 -1.5768 0.9127, -0.5761 -1.5768 0.923, -0.5817 -1.5768 0.9127, -0.581 -1.5768 0.9094, -0.5804 -1.5768 0.9071, -0.5456 -1.5768 0.8429, -0.557 -1.5768 0.8429, -0.5761 -1.5728 0.923, -0.5456 -1.5728 0.8429, -0.5871 -1.5728 0.923, -0.6176 -1.5728 0.8429, -0.6062 -1.5728 0.8429, -0.5985 -1.5728 0.8648, -0.5651 -1.5728 0.8648, -0.557 -1.5728 0.8429, -0.5952 -1.5728 0.8739, -0.5683 -1.5728 0.8739, -0.5804 -1.5728 0.9071, -0.5817 -1.5728 0.9127, -0.581 -1.5728 0.9094, -0.5819 -1.5728 0.9127, -0.5832 -1.5728 0.9071, -0.5825 -1.5728 0.9095
            ]
        }
        coordIndex [
            0,1,2,-1,2,1,3,-1,4,5,0,-1,0,5,6,-1,0,6,1,-1,1,6,7,-1,4,8,5,-1,5,8,9,-1,5,9,10,-1,10,9,11,-1,10,11,12,-1,12,13,10,-1,10,13,2,-1,10,2,14,-1,14,2,3,-1,14,3,15,-1,10,14,16,-1,16,14,17,-1,5,10,18,-1,18,10,16,-1,6,5,19,-1,19,5,18,-1,7,6,20,-1,20,6,19,-1,1,7,21,-1,21,7,20,-1,3,1,22,-1,22,1,21,-1,15,3,23,-1,23,3,22,-1,14,15,17,-1,17,15,23,-1,0,2,24,-1,24,2,25,-1,2,13,25,-1,25,13,26,-1,11,27,28,-1,11,28,12,-1,12,28,26,-1,12,26,13,-1,11,9,27,-1,27,9,29,-1,4,30,31,-1,4,31,8,-1,8,31,29,-1,8,29,9,-1,4,0,30,-1,30,0,24,-1,
        ]
    }
}
Shape{
    appearance Appearance {
        material  Material 	{
            diffuseColor 0.5019607843137255 0.5019607843137255 0.5019607843137255
            specularColor 0.25098039215686274 0.25098039215686274 0.25098039215686274
            ambientIntensity 0.502
            transparency 0.0
            shininess 0.5
        }
    }
    geometry IndexedFaceSet {
        ccw TRUE
        solid FALSE
        coord DEF co Coordinate {
            point [
                -0.5817 -1.5728 0.9127, -0.5819 -1.5728 0.9127, -0.581 -1.5728 0.9094, -0.5825 -1.5728 0.9095, -0.5804 -1.5728 0.9071, -0.5832 -1.5728 0.9071, -0.5683 -1.5728 0.8739, -0.5952 -1.5728 0.8739
            ]
        }
        coordIndex [
            0,1,2,-1,2,1,3,-1,2,3,4,-1,4,3,5,-1,4,5,6,-1,6,5,7,-1,
        ]
    }
}
Shape{
    appearance Appearance {
        material  Material 	{
            diffuseColor 0.0 0.0 0.0
            specularColor 0.0 0.0 0.0
            ambientIntensity 0.0
            transparency 0.0
            shininess 0.5
        }
    }
    geometry IndexedFaceSet {
        ccw TRUE
        solid FALSE
        coord DEF co Coordinate {
            point [
                -1.3208 -1.5768 0.8316, -1.3123 -1.5768 0.8211, -1.3259 -1.5768 0.8819, -1.3358 -1.5768 0.9809, -1.3231 -1.5768 0.9876, -1.3261 -1.5768 1.0226, -1.2258 -1.5768 0.8293, -1.2191 -1.5768 0.842, -1.2158 -1.5768 0.8561, -1.2906 -1.5768 1.0242, -1.273 -1.5768 0.9827, -1.2643 -1.5768 1.0007, -1.3383 -1.5768 0.8896, -1.3341 -1.5768 0.8461, -1.3265 -1.5768 0.8438, -1.3037 -1.5768 1.0254, -1.1358 -1.5768 0.9098, -1.1534 -1.5768 0.94, -1.2155 -1.5768 0.8677, -1.2297 -1.5768 0.9001, -1.2155 -1.5768 0.862, -1.2459 -1.5768 0.8116, -1.2346 -1.5768 0.8195, -1.2877 -1.5768 0.8448, -1.2831 -1.5768 0.8417, -1.3012 -1.5768 0.8127, -1.2778 -1.5768 0.8398, -1.2525 -1.5768 0.8701, -1.251 -1.5768 0.8649, -1.2509 -1.5768 0.8593, -1.2521 -1.5768 0.8539, -1.2547 -1.5768 0.8489, -1.117 -1.5768 0.9662, -1.1124 -1.5768 0.9662, -1.0891 -1.5768 0.9969, -1.1016 -1.5768 0.9648, -1.0863 -1.5768 0.996, -1.0917 -1.5768 0.961, -1.0694 -1.5768 0.9876, -1.0539 -1.5768 0.9745, -1.279 -1.5768 1.0378, -1.2515 -1.5768 1.0159, -1.2656 -1.5768 1.0493, -1.2363 -1.5768 1.0271, -1.2488 -1.5768 1.0594, -1.3091 -1.5768 0.9909, -1.3032 -1.5768 0.9912, -1.2972 -1.5768 1.025, -1.2898 -1.5768 0.9896, -1.2771 -1.5768 0.9849, -1.295 -1.5768 0.8588, -1.2938 -1.5768 0.8536, -1.2913 -1.5768 0.8489, -1.2881 -1.5768 0.8072, -1.2746 -1.5768 0.8051, -1.273 -1.5768 0.8392, -1.2724 -1.5768 0.8051, -1.2677 -1.5768 0.8399, -1.2586 -1.5768 0.8068, -1.2627 -1.5768 0.8417, -1.2583 -1.5768 0.8448, -1.0538 -1.5768 0.8683, -1.0804 -1.5768 0.8908, -1.0693 -1.5768 0.8551, -1.0888 -1.5768 0.884, -1.0867 -1.5768 0.8466, -1.0988 -1.5768 0.8793, -1.1056 -1.5768 0.8426, -1.109 -1.5768 0.8774, -1.1392 -1.5768 0.8426, -1.1347 -1.5768 0.8774, -1.1424 -1.5768 0.8432, -1.0829 -1.5768 0.9548, -1.0763 -1.5768 0.9475, -1.0423 -1.5768 0.9583, -1.071 -1.5768 0.9377, -1.0353 -1.5768 0.9409, -1.0683 -1.5768 0.9267, -1.0327 -1.5768 0.9223, -1.068 -1.5768 0.9218, -1.0354 -1.5768 0.902, -1.0694 -1.5768 0.9107, -1.0425 -1.5768 0.884, -1.0733 -1.5768 0.9005, -1.0796 -1.5768 0.8917, -1.1198 -1.5768 1.0419, -1.1421 -1.5768 1.0157, -1.0998 -1.5768 1.0183, -1.1293 -1.5768 1.0003, -1.1205 -1.5768 0.982, -1.3584 -1.5768 0.9481, -1.3958 -1.5768 0.9386, -1.3601 -1.5768 0.9343, -1.396 -1.5768 0.9332, -1.3594 -1.5768 0.9255, -1.3932 -1.5768 0.9109, -1.3553 -1.5768 0.9116, -1.3851 -1.5768 0.8897, -1.3485 -1.5768 0.9, -1.372 -1.5768 0.8711, -1.3546 -1.5768 0.8562, -1.295 -1.5768 0.8644, -1.2936 -1.5768 0.8698, -1.3196 -1.5768 0.8942, -1.2908 -1.5768 0.8747, -1.3102 -1.5768 0.9049, -1.2877 -1.5768 0.878, -1.2986 -1.5768 0.913, -1.2833 -1.5768 0.8811, -1.286 -1.5768 0.9178, -1.2783 -1.5768 0.883, -1.2724 -1.5768 0.9195, -1.273 -1.5768 0.8836, -1.2655 -1.5768 0.9191, -1.269 -1.5768 0.8833, -1.2517 -1.5768 0.9157, -1.2637 -1.5768 0.8816, -1.2397 -1.5768 0.9092, -1.259 -1.5768 0.8786, -1.2552 -1.5768 0.8746, -1.2223 -1.5768 1.0688, -1.2177 -1.5768 1.0346, -1.1973 -1.5768 1.0715, -1.1967 -1.5768 1.0373, -1.1696 -1.5768 1.0681, -1.1774 -1.5768 1.035, -1.1415 -1.5768 1.057, -1.1596 -1.5768 1.0281, -1.1436 -1.5768 1.017, -1.3472 -1.5768 1.0145, -1.3653 -1.5768 1.0018, -1.3456 -1.5768 0.9721, -1.3692 -1.5768 0.9981, -1.3535 -1.5768 0.9608, -1.3829 -1.5768 0.9805, -1.392 -1.5768 0.96, -1.1375 -1.5768 0.8779, -1.1512 -1.5768 0.8486, -1.1499 -1.5768 0.8473, -1.1358 -1.5768 0.8775, -1.1462 -1.5768 0.8446, -1.1557 -1.5768 0.8603, -1.1552 -1.5768 0.856, -1.1537 -1.5768 0.8522, -1.1425 -1.5768 0.8774, -1.1464 -1.5768 0.8758, -1.1556 -1.5768 0.8625, -1.1499 -1.5768 0.8733, -1.1522 -1.5768 0.8707, -1.1544 -1.5768 0.8669, -1.1381 -1.5768 0.8779, -1.0502 -1.5728 0.9693, -1.0423 -1.5728 0.9583, -1.0373 -1.5728 0.9458, -1.0353 -1.5728 0.9409, -1.0327 -1.5728 0.9223, -1.0539 -1.5728 0.9745, -1.0694 -1.5728 0.9876, -1.0863 -1.5728 0.996, -1.0891 -1.5728 0.9969, -1.0998 -1.5728 1.0183, -1.1198 -1.5728 1.0419, -1.1325 -1.5728 1.0507, -1.1415 -1.5728 1.057, -1.1696 -1.5728 1.0681, -1.1973 -1.5728 1.0715, -1.2223 -1.5728 1.0688, -1.2488 -1.5728 1.0594, -1.2633 -1.5728 1.0507, -1.2656 -1.5728 1.0493, -1.279 -1.5728 1.0378, -1.2906 -1.5728 1.0242, -1.2972 -1.5728 1.025, -1.3037 -1.5728 1.0254, -1.3261 -1.5728 1.0226, -1.3472 -1.5728 1.0145, -1.3653 -1.5728 1.0018, -1.3692 -1.5728 0.9981, -1.3829 -1.5728 0.9805, -1.3879 -1.5728 0.9693, -1.392 -1.5728 0.96, -1.3945 -1.5728 0.9458, -1.3958 -1.5728 0.9386, -1.396 -1.5728 0.9332, -1.3932 -1.5728 0.9109, -1.3851 -1.5728 0.8897, -1.372 -1.5728 0.8711, -1.3546 -1.5728 0.8562, -1.3341 -1.5728 0.8461, -1.3265 -1.5728 0.8438, -1.3258 -1.5728 0.8422, -1.3208 -1.5728 0.8316, -1.3123 -1.5728 0.8211, -1.3012 -1.5728 0.8127, -1.296 -1.5728 0.8105, -1.2881 -1.5728 0.8072, -1.2746 -1.5728 0.8051, -1.2724 -1.5728 0.8051, -1.2155 -1.5728 0.862, -1.2586 -1.5728 0.8068, -1.2488 -1.5728 0.8105, -1.2459 -1.5728 0.8116, -1.2346 -1.5728 0.8195, -1.2258 -1.5728 0.8293, -1.2191 -1.5728 0.842, -1.2191 -1.5728 0.8422, -1.2158 -1.5728 0.8561, -1.2155 -1.5728 0.8677, -1.1358 -1.5728 0.9098, -1.1534 -1.5728 0.94, -1.2297 -1.5728 0.9001, -1.2397 -1.5728 0.9092, -1.2517 -1.5728 0.9157, -1.2655 -1.5728 0.9191, -1.2724 -1.5728 0.9195, -1.286 -1.5728 0.9178, -1.2986 -1.5728 0.913, -1.3102 -1.5728 0.9049, -1.3196 -1.5728 0.8942, -1.3259 -1.5728 0.8819, -1.3383 -1.5728 0.8896, -1.3485 -1.5728 0.9, -1.3553 -1.5728 0.9116, -1.3594 -1.5728 0.9255, -1.3601 -1.5728 0.9343, -1.3587 -1.5728 0.9458, -1.3584 -1.5728 0.9481, -1.3535 -1.5728 0.9608, -1.3476 -1.5728 0.9693, -1.3456 -1.5728 0.9721, -1.3358 -1.5728 0.9809, -1.3231 -1.5728 0.9876, -1.3091 -1.5728 0.9909, -1.3032 -1.5728 0.9912, -1.2898 -1.5728 0.9896, -1.2771 -1.5728 0.9849, -1.273 -1.5728 0.9827, -1.2643 -1.5728 1.0007, -1.2515 -1.5728 1.0159, -1.2363 -1.5728 1.0271, -1.2177 -1.5728 1.0346, -1.1967 -1.5728 1.0373, -1.1774 -1.5728 1.035, -1.1596 -1.5728 1.0281, -1.1436 -1.5728 1.017, -1.1421 -1.5728 1.0157, -1.1293 -1.5728 1.0003, -1.1205 -1.5728 0.982, -1.1177 -1.5728 0.9693, -1.117 -1.5728 0.9662, -1.1124 -1.5728 0.9662, -1.1016 -1.5728 0.9648, -1.0917 -1.5728 0.961, -1.0829 -1.5728 0.9548, -1.0763 -1.5728 0.9475, -1.0754 -1.5728 0.9458, -1.071 -1.5728 0.9377, -1.0683 -1.5728 0.9267, -1.068 -1.5728 0.9218, -1.0694 -1.5728 0.9107, -1.0733 -1.5728 0.9005, -1.0796 -1.5728 0.8917, -1.0804 -1.5728 0.8908, -1.0888 -1.5728 0.884, -1.0988 -1.5728 0.8793, -1.109 -1.5728 0.8774, -1.1347 -1.5728 0.8774, -1.1358 -1.5728 0.8775, -1.1375 -1.5728 0.8779, -1.1381 -1.5728 0.8779, -1.1425 -1.5728 0.8774, -1.1464 -1.5728 0.8758, -1.1499 -1.5728 0.8733, -1.1522 -1.5728 0.8707, -1.1544 -1.5728 0.8669, -1.1556 -1.5728 0.8625, -1.1557 -1.5728 0.8603, -1.1552 -1.5728 0.856, -1.1537 -1.5728 0.8522, -1.1512 -1.5728 0.8486, -1.1499 -1.5728 0.8473, -1.1462 -1.5728 0.8446, -1.1424 -1.5728 0.8432, -1.1392 -1.5728 0.8426, -1.1056 -1.5728 0.8426, -1.0867 -1.5728 0.8466, -1.0693 -1.5728 0.8551, -1.0538 -1.5728 0.8683, -1.0425 -1.5728 0.884, -1.0354 -1.5728 0.902, -1.273 -1.5728 0.8836, -1.269 -1.5728 0.8833, -1.2637 -1.5728 0.8816, -1.259 -1.5728 0.8786, -1.2552 -1.5728 0.8746, -1.2525 -1.5728 0.8701, -1.251 -1.5728 0.8649, -1.2509 -1.5728 0.8593, -1.2521 -1.5728 0.8539, -1.2547 -1.5728 0.8489, -1.2583 -1.5728 0.8448, -1.2627 -1.5728 0.8417, -1.2677 -1.5728 0.8399, -1.273 -1.5728 0.8392, -1.2778 -1.5728 0.8398, -1.2831 -1.5728 0.8417, -1.2877 -1.5728 0.8448, -1.2913 -1.5728 0.8489, -1.2938 -1.5728 0.8536, -1.295 -1.5728 0.8588, -1.295 -1.5728 0.8644, -1.2936 -1.5728 0.8698, -1.2908 -1.5728 0.8747, -1.2877 -1.5728 0.878, -1.2833 -1.5728 0.8811, -1.2783 -1.5728 0.883
            ]
        }
        coordIndex [
            0,1,2,-1,3,4,5,-1,6,7,8,-1,9,10,11,-1,12,13,2,-1,2,13,14,-1,2,14,0,-1,5,4,15,-1,16,17,18,-1,18,17,19,-1,18,19,20,-1,20,19,21,-1,20,21,8,-1,8,21,22,-1,8,22,6,-1,23,1,24,-1,24,1,25,-1,24,25,26,-1,27,28,19,-1,19,28,29,-1,19,29,21,-1,21,29,30,-1,21,30,31,-1,32,33,34,-1,34,33,35,-1,34,35,36,-1,36,35,37,-1,36,37,38,-1,38,37,39,-1,9,11,40,-1,40,11,41,-1,40,41,42,-1,42,41,43,-1,42,43,44,-1,4,45,15,-1,15,45,46,-1,15,46,47,-1,47,46,48,-1,47,48,9,-1,9,48,49,-1,9,49,10,-1,50,2,51,-1,51,2,1,-1,51,1,52,-1,52,1,23,-1,25,53,26,-1,26,53,54,-1,26,54,55,-1,55,54,56,-1,55,56,57,-1,57,56,58,-1,57,58,59,-1,59,58,21,-1,59,21,60,-1,60,21,31,-1,61,62,63,-1,63,62,64,-1,63,64,65,-1,65,64,66,-1,65,66,67,-1,67,66,68,-1,67,68,69,-1,69,68,70,-1,69,70,71,-1,37,72,39,-1,39,72,73,-1,39,73,74,-1,74,73,75,-1,74,75,76,-1,76,75,77,-1,76,77,78,-1,78,77,79,-1,78,79,80,-1,80,79,81,-1,80,81,82,-1,82,81,83,-1,82,83,61,-1,61,83,84,-1,61,84,62,-1,85,86,87,-1,87,86,88,-1,87,88,34,-1,34,88,89,-1,34,89,32,-1,90,91,92,-1,92,91,93,-1,92,93,94,-1,94,93,95,-1,94,95,96,-1,96,95,97,-1,96,97,98,-1,98,97,99,-1,98,99,12,-1,12,99,100,-1,12,100,13,-1,50,101,2,-1,2,101,102,-1,2,102,103,-1,103,102,104,-1,103,104,105,-1,105,104,106,-1,105,106,107,-1,107,106,108,-1,107,108,109,-1,109,108,110,-1,109,110,111,-1,111,110,112,-1,111,112,113,-1,113,112,114,-1,113,114,115,-1,115,114,116,-1,115,116,117,-1,117,116,118,-1,117,118,19,-1,19,118,119,-1,19,119,27,-1,44,43,120,-1,120,43,121,-1,120,121,122,-1,122,121,123,-1,122,123,124,-1,124,123,125,-1,124,125,126,-1,126,125,127,-1,126,127,85,-1,85,127,128,-1,85,128,86,-1,5,129,3,-1,3,129,130,-1,3,130,131,-1,131,130,132,-1,131,132,133,-1,133,132,134,-1,133,134,90,-1,90,134,135,-1,90,135,91,-1,136,137,138,-1,70,139,71,-1,71,139,136,-1,71,136,140,-1,140,136,138,-1,141,142,136,-1,136,142,143,-1,136,143,137,-1,144,145,146,-1,145,147,146,-1,146,147,148,-1,146,148,149,-1,141,136,146,-1,146,136,150,-1,146,150,144,-1,151,39,152,-1,152,39,74,-1,152,74,153,-1,153,74,76,-1,153,76,154,-1,154,76,78,-1,154,78,155,-1,151,156,39,-1,39,156,157,-1,39,157,38,-1,38,157,158,-1,38,158,36,-1,36,158,159,-1,36,159,34,-1,34,159,160,-1,34,160,87,-1,87,160,161,-1,87,161,85,-1,85,161,126,-1,126,161,162,-1,162,163,126,-1,126,163,164,-1,126,164,124,-1,124,164,165,-1,124,165,122,-1,122,165,166,-1,122,166,120,-1,120,166,167,-1,120,167,44,-1,44,167,42,-1,42,167,168,-1,42,168,169,-1,42,169,170,-1,42,170,40,-1,40,170,171,-1,40,171,9,-1,9,171,172,-1,9,172,47,-1,47,172,173,-1,47,173,15,-1,15,173,174,-1,15,174,5,-1,5,174,175,-1,5,175,129,-1,129,175,176,-1,129,176,130,-1,130,176,177,-1,130,177,132,-1,135,134,178,-1,178,134,132,-1,178,132,177,-1,178,179,135,-1,135,179,180,-1,135,180,91,-1,91,180,181,-1,181,182,91,-1,91,182,183,-1,91,183,93,-1,93,183,184,-1,93,184,95,-1,95,184,185,-1,95,185,97,-1,97,185,186,-1,97,186,99,-1,99,186,187,-1,99,187,100,-1,100,187,188,-1,100,188,13,-1,13,188,189,-1,13,189,14,-1,14,189,190,-1,14,190,0,-1,190,191,0,-1,0,191,192,-1,0,192,1,-1,1,192,193,-1,1,193,25,-1,25,193,194,-1,25,194,53,-1,194,195,53,-1,53,195,196,-1,53,196,54,-1,54,196,197,-1,54,197,56,-1,198,20,8,-1,56,197,199,-1,200,21,199,-1,199,21,58,-1,199,58,56,-1,200,201,21,-1,21,201,202,-1,21,202,22,-1,22,202,203,-1,22,203,6,-1,6,203,204,-1,6,204,7,-1,7,204,205,-1,7,205,8,-1,8,205,206,-1,8,206,198,-1,18,20,207,-1,207,20,198,-1,16,18,208,-1,208,18,207,-1,17,16,209,-1,209,16,208,-1,19,17,210,-1,210,17,209,-1,19,210,211,-1,19,211,117,-1,117,211,212,-1,117,212,115,-1,115,212,213,-1,115,213,113,-1,113,213,214,-1,113,214,111,-1,111,214,215,-1,111,215,109,-1,109,215,216,-1,109,216,107,-1,107,216,217,-1,107,217,105,-1,105,217,218,-1,105,218,103,-1,103,218,219,-1,103,219,2,-1,2,219,220,-1,2,220,12,-1,12,220,221,-1,12,221,98,-1,98,221,222,-1,98,222,96,-1,96,222,223,-1,96,223,94,-1,94,223,224,-1,94,224,92,-1,90,92,224,-1,224,225,90,-1,90,225,226,-1,90,226,227,-1,228,131,227,-1,227,131,133,-1,227,133,90,-1,228,229,131,-1,131,229,230,-1,131,230,3,-1,3,230,231,-1,3,231,4,-1,4,231,232,-1,4,232,45,-1,45,232,233,-1,45,233,46,-1,46,233,234,-1,46,234,48,-1,48,234,235,-1,48,235,49,-1,49,235,236,-1,49,236,10,-1,10,236,237,-1,10,237,11,-1,11,237,238,-1,11,238,41,-1,41,238,239,-1,41,239,43,-1,43,239,240,-1,43,240,121,-1,121,240,241,-1,121,241,123,-1,123,241,242,-1,123,242,125,-1,125,242,243,-1,125,243,127,-1,127,243,244,-1,127,244,128,-1,128,244,245,-1,128,245,86,-1,86,245,246,-1,86,246,88,-1,88,246,247,-1,88,247,89,-1,89,247,32,-1,32,247,248,-1,32,248,249,-1,33,32,250,-1,250,32,249,-1,33,250,251,-1,33,251,35,-1,35,251,252,-1,35,252,37,-1,37,252,253,-1,37,253,72,-1,72,253,254,-1,72,254,73,-1,73,254,255,-1,73,255,75,-1,255,256,75,-1,75,256,257,-1,75,257,77,-1,77,257,258,-1,77,258,79,-1,79,258,259,-1,79,259,81,-1,81,259,260,-1,81,260,83,-1,83,260,261,-1,83,261,84,-1,84,261,262,-1,84,262,62,-1,62,262,263,-1,62,263,64,-1,64,263,264,-1,64,264,66,-1,66,264,265,-1,66,265,68,-1,70,68,266,-1,266,68,265,-1,70,266,267,-1,70,267,139,-1,139,267,268,-1,139,268,136,-1,136,268,269,-1,136,269,150,-1,150,269,270,-1,150,270,144,-1,144,270,271,-1,144,271,145,-1,145,271,272,-1,145,272,147,-1,147,272,273,-1,147,273,148,-1,148,273,274,-1,148,274,149,-1,149,274,275,-1,149,275,146,-1,146,275,276,-1,146,276,141,-1,141,276,277,-1,141,277,142,-1,142,277,278,-1,142,278,143,-1,143,278,279,-1,143,279,137,-1,137,279,280,-1,137,280,138,-1,138,280,281,-1,138,281,140,-1,140,281,282,-1,140,282,71,-1,71,282,283,-1,71,283,69,-1,67,69,284,-1,284,69,283,-1,67,284,285,-1,67,285,65,-1,65,285,286,-1,65,286,63,-1,63,286,287,-1,63,287,61,-1,61,287,288,-1,61,288,82,-1,82,288,289,-1,82,289,80,-1,80,289,155,-1,80,155,78,-1,112,290,291,-1,112,291,114,-1,114,291,292,-1,114,292,116,-1,116,292,293,-1,116,293,118,-1,118,293,294,-1,118,294,119,-1,119,294,295,-1,119,295,27,-1,27,295,296,-1,27,296,28,-1,28,296,297,-1,28,297,29,-1,29,297,298,-1,29,298,30,-1,30,298,299,-1,30,299,31,-1,31,299,300,-1,31,300,60,-1,60,300,301,-1,60,301,59,-1,59,301,302,-1,59,302,57,-1,57,302,303,-1,57,303,55,-1,55,303,304,-1,55,304,26,-1,26,304,305,-1,26,305,24,-1,24,305,306,-1,24,306,23,-1,23,306,307,-1,23,307,52,-1,52,307,308,-1,52,308,51,-1,51,308,309,-1,51,309,50,-1,50,309,310,-1,50,310,101,-1,101,310,311,-1,101,311,102,-1,102,311,312,-1,102,312,104,-1,104,312,313,-1,104,313,106,-1,106,313,314,-1,106,314,108,-1,108,314,315,-1,108,315,110,-1,110,315,290,-1,110,290,112,-1,
        ]
    }
}
Shape{
    appearance Appearance {
        material  Material 	{
            diffuseColor 0.5019607843137255 0.5019607843137255 0.5019607843137255
            specularColor 0.25098039215686274 0.25098039215686274 0.25098039215686274
            ambientIntensity 0.502
            transparency 0.0
            shininess 0.5
        }
    }
    geometry IndexedFaceSet {
        ccw TRUE
        solid FALSE
        coord DEF co Coordinate {
            point [
                -1.2677 -1.5728 0.8399, -1.269 -1.5728 0.8833, -1.273 -1.5728 0.8392, -1.273 -1.5728 0.8836, -1.2783 -1.5728 0.883, -1.2833 -1.5728 0.8811, -1.2877 -1.5728 0.878, -1.2908 -1.5728 0.8747, -1.2583 -1.5728 0.8448, -1.2552 -1.5728 0.8746, -1.259 -1.5728 0.8786, -1.2938 -1.5728 0.8536, -1.2913 -1.5728 0.8489, -1.2877 -1.5728 0.8448, -1.2627 -1.5728 0.8417, -1.2637 -1.5728 0.8816, -1.2831 -1.5728 0.8417, -1.2778 -1.5728 0.8398, -1.2936 -1.5728 0.8698, -1.295 -1.5728 0.8644, -1.295 -1.5728 0.8588, -1.2521 -1.5728 0.8539, -1.2509 -1.5728 0.8593, -1.2547 -1.5728 0.8489, -1.251 -1.5728 0.8649, -1.2525 -1.5728 0.8701
            ]
        }
        coordIndex [
            0,1,2,-1,2,1,3,-1,2,3,4,-1,4,5,2,-1,2,5,6,-1,2,6,7,-1,8,9,10,-1,11,12,7,-1,7,12,13,-1,0,14,1,-1,1,14,8,-1,1,8,15,-1,15,8,10,-1,13,16,7,-1,7,16,17,-1,7,17,2,-1,18,19,7,-1,7,19,20,-1,7,20,11,-1,21,22,23,-1,23,22,24,-1,23,24,8,-1,8,24,25,-1,8,25,9,-1,
        ]
    }
}