#VRML V2.0 utf8
# 3D model generated by easyeda2kicad.py (https://github.com/uPesy/easyeda2kicad.py)

Shape{
    appearance Appearance {
        material  Material 	{
            diffuseColor 0.2235294117647059 0.2235294117647059 0.2235294117647059
            specularColor 0.11372549019607843 0.11372549019607843 0.11372549019607843
            ambientIntensity 0.2235
            transparency 0.0
            shininess 0.5
        }
    }
    geometry IndexedFaceSet {
        ccw TRUE
        solid FALSE
        coord DEF co Coordinate {
            point [
                0.2106 -0.0039 0.0079, 0.3114 0.5906 0.0079, 0.3114 -0.1535 0.0079, 0.4642 -0.1476 0.0079, 0.6063 -0.1476 0.0079, 0.4642 -0.1535 0.0079, 0.6063 -0.2041 0.0079, 0.2106 -0.2041 0.0079, -0.458 -0.1465 0.0079, -0.448 -0.143 0.0079, -0.2673 -0.2041 0.0079, -0.3012 0.4843 0.0079, -0.3012 0.5906 0.0079, -0.1437 0.5906 0.0079, -0.3729 0.4417 0.0079, -0.3629 0.4382 0.0079, -0.4213 0.3445 0.0079, -0.4685 -0.1476 0.0079, -0.5748 -0.2041 0.0079, -0.5748 -0.1476 0.0079, -0.4259 -0.1209 0.0079, -0.4224 -0.1109 0.0079, -0.1299 -0.2041 0.0079, -0.4213 -0.1004 0.0079, -0.4213 -0.0965 0.0079, -0.4224 0.1109 0.0079, -0.4213 0.2461 0.0079, -0.4259 0.1209 0.0079, 0.0138 0.5906 0.0079, 0.1122 -0.0039 0.0079, 0.0138 -0.1535 0.0079, 0.1122 -0.2041 0.0079, -0.1299 -0.1535 0.0079, -0.1437 -0.1535 0.0079, -0.4224 0.0859 0.0079, -0.4213 0.0965 0.0079, -0.4213 0.1004 0.0079, -0.4316 0.1298 0.0079, -0.439 0.1373 0.0079, -0.448 0.143 0.0079, -0.5748 0.1476 0.0079, -0.5748 0.2461 0.0079, -0.4685 0.1476 0.0079, -0.458 0.1465 0.0079, -0.3115 0.4548 0.0079, -0.3059 0.4638 0.0079, -0.3024 0.4737 0.0079, -0.3984 0.4737 0.0079, -0.5748 0.3445 0.0079, -0.3996 0.4843 0.0079, -0.5748 0.5906 0.0079, -0.3996 0.5906 0.0079, -0.3524 0.437 0.0079, -0.3484 0.437 0.0079, -0.3379 0.4382 0.0079, -0.3279 0.4417 0.0079, -0.319 0.4473 0.0079, -0.4316 -0.067 0.0079, -0.4259 -0.076 0.0079, -0.4224 -0.0859 0.0079, -0.439 -0.1373 0.0079, -0.4316 -0.1298 0.0079, -0.2604 -0.2034 0.0079, -0.439 0.0595 0.0079, -0.4316 0.067 0.0079, -0.4259 0.076 0.0079, -0.3949 0.4638 0.0079, -0.3893 0.4548 0.0079, -0.3818 0.4473 0.0079, -0.439 -0.0595 0.0079, -0.458 0.0504 0.0079, -0.448 0.0539 0.0079, -0.5748 -0.0492 0.0079, -0.5748 0.0492 0.0079, -0.4685 -0.0492 0.0079, -0.4685 0.0492 0.0079, -0.458 -0.0504 0.0079, -0.448 -0.0539 0.0079, -0.2048 -0.2048 0.0079, -0.2048 -0.3229 0.0079, -0.2279 -0.2239 0.0079, -0.2279 -0.2109 0.0079, -0.2404 -0.2058 0.0079, -0.2524 -0.2041 0.0079, -0.1414 -0.2178 0.0079, -0.1414 -0.2048 0.0079, -0.5748 -0.5906 0.0079, -0.5748 -0.3445 0.0079, -0.4685 -0.3445 0.0079, -0.458 -0.3433 0.0079, -0.448 -0.3398 0.0079, -0.3863 -0.3229 0.0079, -0.439 -0.3342 0.0079, -0.4316 -0.3267 0.0079, -0.2571 -0.2034 0.0079, -0.4213 -0.2933 0.0079, -0.4224 -0.2828 0.0079, -0.3863 -0.2048 0.0079, -0.4259 -0.2728 0.0079, -0.3279 -0.4417 0.0079, -0.3379 -0.4382 0.0079, -0.3705 -0.3229 0.0079, -0.3996 -0.5906 0.0079, -0.3996 -0.4843 0.0079, -0.3984 -0.4737 0.0079, -0.2864 -0.2088 0.0079, -0.2959 -0.2149 0.0079, -0.3258 -0.2048 0.0079, -0.3047 -0.2242 0.0079, -0.3258 -0.2178 0.0079, -0.1443 -0.3229 0.0079, -0.1299 -0.5906 0.0079, -0.1443 -0.31 0.0079, -0.189 -0.2581 0.0079, -0.189 -0.2178 0.0079, -0.1472 -0.2581 0.0079, -0.1472 -0.2711 0.0079, -0.189 -0.2711 0.0079, -0.189 -0.31 0.0079, -0.2671 -0.3101 0.0079, -0.276 -0.3069 0.0079, -0.23 -0.2227 0.0079, -0.2842 -0.3014 0.0079, -0.2913 -0.2936 0.0079, -0.2999 -0.2626 0.0079, -0.2987 -0.2498 0.0079, -0.2955 -0.2397 0.0079, -0.2692 -0.2176 0.0079, -0.2582 -0.2164 0.0079, -0.2778 -0.2208 0.0079, -0.285 -0.2256 0.0079, -0.2906 -0.2315 0.0079, -0.2425 -0.2181 0.0079, -0.4259 -0.3177 0.0079, -0.4224 -0.3078 0.0079, -0.4213 -0.2972 0.0079, -0.2962 -0.2845 0.0079, -0.2993 -0.2718 0.0079, -0.3095 -0.2919 0.0079, -0.3025 -0.3029 0.0079, -0.2918 -0.3132 0.0079, -0.4316 -0.2639 0.0079, -0.439 -0.2564 0.0079, -0.448 -0.2507 0.0079, -0.3024 -0.4737 0.0079, -0.3012 -0.4843 0.0079, -0.3012 -0.5906 0.0079, -0.3059 -0.4638 0.0079, -0.3115 -0.4548 0.0079, -0.319 -0.4473 0.0079, -0.3484 -0.437 0.0079, -0.3524 -0.437 0.0079, -0.3629 -0.4382 0.0079, -0.3729 -0.4417 0.0079, -0.311 -0.2355 0.0079, -0.3146 -0.248 0.0079, -0.3705 -0.2178 0.0079, -0.3157 -0.2617 0.0079, -0.314 -0.2784 0.0079, -0.3818 -0.4473 0.0079, -0.3893 -0.4548 0.0079, -0.3949 -0.4638 0.0079, -0.2806 -0.3196 0.0079, -0.2675 -0.3234 0.0079, -0.2556 -0.3244 0.0079, -0.458 -0.2472 0.0079, -0.4685 -0.2461 0.0079, -0.5748 -0.2461 0.0079, -0.2415 -0.3234 0.0079, -0.2279 -0.3197 0.0079, -0.2279 -0.3039 0.0079, -0.2412 -0.3095 0.0079, -0.2555 -0.3114 0.0079, -0.2749 -0.2049 0.0079, -0.1184 -0.2048 0.0079, -0.1184 -0.3229 0.0079, 0.03 -0.3229 0.0079, 0.1122 -0.5906 0.0079, 0.0458 -0.3229 0.0079, 0.0919 -0.2048 0.0079, 0.0746 -0.2048 0.0079, -0.0851 -0.3229 0.0079, -0.0412 -0.3075 0.0079, -0.0328 -0.2982 0.0079, -0.0273 -0.2881 0.0079, -0.0457 -0.2173 0.0079, -0.0147 -0.2048 0.0079, -0.036 -0.2266 0.0079, -0.0292 -0.2372 0.0079, -0.068 -0.3211 0.0079, -0.0542 -0.3163 0.0079, -0.0413 -0.3077 0.0079, -0.058 -0.2102 0.0079, -0.0717 -0.2061 0.0079, -0.0863 -0.2048 0.0079, 0.0627 -0.238 0.0079, 0.0139 -0.238 0.0079, 0.0026 -0.2048 0.0079, -0.0242 -0.2764 0.0079, -0.0233 -0.2654 0.0079, -0.025 -0.2496 0.0079, 0.3563 -0.437 0.0079, 0.3458 -0.4382 0.0079, 0.4063 -0.4737 0.0079, 0.4075 -0.4843 0.0079, 0.6063 -0.5906 0.0079, 0.4075 -0.5906 0.0079, 0.4028 -0.4638 0.0079, 0.3972 -0.4548 0.0079, 0.3897 -0.4473 0.0079, 0.3358 -0.4417 0.0079, 0.3268 -0.4473 0.0079, 0.3194 -0.4548 0.0079, 0.3807 -0.4417 0.0079, 0.3708 -0.4382 0.0079, 0.3602 -0.437 0.0079, 0.3137 -0.4638 0.0079, 0.3102 -0.4737 0.0079, 0.2106 -0.5906 0.0079, 0.3091 -0.4843 0.0079, 0.3091 -0.5906 0.0079, 0.4642 -0.0492 0.0079, 0.4642 0.0492 0.0079, 0.6063 -0.0492 0.0079, 0.6063 0.0492 0.0079, 0.4642 0.1476 0.0079, 0.4642 0.2461 0.0079, 0.6063 0.1476 0.0079, 0.6063 0.2461 0.0079, -0.5748 0.5906 0.3622, -0.5748 0.3445 0.0394, -0.5748 -0.5906 0.3622, -0.5748 0.2461 0.0394, -0.5748 0.0492 0.0394, -0.5748 -0.0492 0.0394, -0.5748 -0.1476 0.0394, -0.5748 0.1476 0.0394, -0.5748 -0.2461 0.0394, -0.5748 -0.3445 0.0394, -0.3012 -0.5906 0.0394, 0.2106 -0.5906 0.0394, 0.3091 -0.5906 0.0394, -0.3996 -0.5906 0.0394, 0.1122 -0.5906 0.0394, 0.4075 -0.5906 0.0394, 0.6063 -0.5906 0.3622, 0.6063 -0.0492 0.0394, 0.6063 0.1476 0.0394, 0.6063 0.2461 0.0394, 0.6063 0.0492 0.0394, 0.6063 -0.1476 0.0394, 0.6063 0.3445 0.0079, 0.6063 0.5906 0.0079, 0.6063 0.3445 0.0394, 0.6063 0.5906 0.3622, 0.3114 0.5906 0.0394, 0.0138 0.5906 0.0394, -0.1437 0.5906 0.0394, 0.4642 0.5906 0.0394, 0.4642 0.5906 0.0079, -0.3996 0.5906 0.0394, -0.3012 0.5906 0.0394, -0.4032 0.437 0.3622, -0.4074 0.427 0.3622, -0.4433 0.4062 0.3622, -0.454 0.4077 0.3622, -0.4641 0.4118 0.3622, -0.4726 0.4184 0.3622, -0.414 0.4771 0.3622, -0.4074 0.4685 0.3622, -0.414 0.4184 0.3622, -0.4226 0.4118 0.3622, -0.4326 0.4077 0.3622, -0.4834 0.4585 0.3622, -0.4792 0.4685 0.3622, -0.4032 0.4585 0.3622, -0.4018 0.4477 0.3622, -0.4792 0.427 0.3622, -0.4834 0.437 0.3622, -0.4848 0.4477 0.3622, -0.4726 0.4771 0.3622, -0.4641 0.4837 0.3622, -0.454 0.4878 0.3622, -0.4433 0.4892 0.3622, -0.4326 0.4878 0.3622, -0.4226 0.4837 0.3622, 0.4642 0.3445 0.0079
            ]
        }
        coordIndex [
            0,1,2,-1,3,4,5,-1,5,4,6,-1,5,6,2,-1,2,6,7,-1,2,7,0,-1,8,9,10,-1,11,12,13,-1,14,15,16,-1,8,10,17,-1,17,10,18,-1,17,18,19,-1,20,21,22,-1,22,21,23,-1,22,23,24,-1,22,25,26,-1,26,25,27,-1,1,0,28,-1,28,0,29,-1,28,29,30,-1,30,29,31,-1,30,31,32,-1,32,31,22,-1,32,22,33,-1,33,22,26,-1,33,26,16,-1,34,35,22,-1,22,35,36,-1,22,36,25,-1,27,37,26,-1,26,37,38,-1,26,38,39,-1,40,41,42,-1,42,41,26,-1,42,26,43,-1,43,26,39,-1,16,44,33,-1,33,44,45,-1,33,45,13,-1,13,45,46,-1,13,46,11,-1,47,48,49,-1,49,48,50,-1,49,50,51,-1,15,52,16,-1,16,52,53,-1,16,53,54,-1,54,55,16,-1,16,55,56,-1,16,56,44,-1,57,34,58,-1,58,34,22,-1,58,22,59,-1,59,22,24,-1,9,60,10,-1,10,60,61,-1,10,61,62,-1,62,61,20,-1,63,64,57,-1,57,64,65,-1,57,65,34,-1,47,66,48,-1,48,66,67,-1,48,67,16,-1,16,67,68,-1,16,68,14,-1,69,70,57,-1,57,70,71,-1,57,71,63,-1,72,73,74,-1,74,73,75,-1,74,75,76,-1,76,75,70,-1,76,70,77,-1,77,70,69,-1,78,79,80,-1,80,81,78,-1,78,81,82,-1,78,82,83,-1,84,85,22,-1,86,87,88,-1,88,89,86,-1,86,89,90,-1,86,90,91,-1,91,90,92,-1,91,92,93,-1,85,78,22,-1,22,78,83,-1,22,83,20,-1,20,83,94,-1,20,94,62,-1,95,96,97,-1,97,96,98,-1,99,100,101,-1,102,86,103,-1,103,86,104,-1,105,106,107,-1,107,106,108,-1,107,108,109,-1,79,110,111,-1,111,110,112,-1,111,112,84,-1,113,114,115,-1,115,114,84,-1,115,84,116,-1,116,84,112,-1,116,112,117,-1,117,112,118,-1,119,120,121,-1,121,120,122,-1,121,122,123,-1,124,125,121,-1,121,125,126,-1,127,128,129,-1,129,128,130,-1,126,131,121,-1,121,131,130,-1,121,130,132,-1,132,130,128,-1,93,133,91,-1,91,133,134,-1,91,134,97,-1,97,134,135,-1,97,135,95,-1,123,136,121,-1,121,136,137,-1,121,137,124,-1,138,139,101,-1,101,139,140,-1,101,140,111,-1,98,141,97,-1,97,141,142,-1,97,142,143,-1,144,111,145,-1,145,111,146,-1,144,147,111,-1,111,147,148,-1,111,148,101,-1,101,148,149,-1,101,149,99,-1,100,150,101,-1,101,150,151,-1,101,151,91,-1,91,151,152,-1,91,152,153,-1,108,154,109,-1,109,154,155,-1,109,155,156,-1,156,155,157,-1,156,157,101,-1,101,157,158,-1,101,158,138,-1,153,159,91,-1,91,159,160,-1,91,160,86,-1,86,160,161,-1,86,161,104,-1,140,162,111,-1,111,162,163,-1,111,163,164,-1,143,165,97,-1,97,165,166,-1,97,166,167,-1,164,168,111,-1,111,168,169,-1,111,169,79,-1,79,169,170,-1,79,170,80,-1,80,170,171,-1,80,171,121,-1,121,171,172,-1,121,172,119,-1,167,18,97,-1,97,18,10,-1,97,10,107,-1,107,10,173,-1,107,173,105,-1,22,174,175,-1,111,176,177,-1,177,176,178,-1,177,178,31,-1,31,178,179,-1,31,179,180,-1,84,22,111,-1,111,22,175,-1,111,175,181,-1,182,183,176,-1,176,183,184,-1,185,186,187,-1,187,186,188,-1,181,189,111,-1,111,189,190,-1,111,190,176,-1,176,190,191,-1,176,191,182,-1,185,192,186,-1,186,192,193,-1,186,193,194,-1,195,196,180,-1,180,196,197,-1,180,197,31,-1,31,197,186,-1,31,186,22,-1,22,186,194,-1,22,194,174,-1,184,198,176,-1,176,198,199,-1,176,199,186,-1,186,199,200,-1,186,200,188,-1,201,202,7,-1,203,6,204,-1,204,6,205,-1,204,205,206,-1,203,207,6,-1,6,207,208,-1,6,208,209,-1,202,210,7,-1,7,210,211,-1,7,211,212,-1,209,213,6,-1,6,213,214,-1,6,214,7,-1,7,214,215,-1,7,215,201,-1,212,216,7,-1,7,216,217,-1,7,217,218,-1,218,217,219,-1,218,219,220,-1,221,222,223,-1,223,222,224,-1,225,226,227,-1,227,226,228,-1,50,48,229,-1,229,48,230,-1,229,230,231,-1,231,230,232,-1,233,73,72,-1,234,235,231,-1,72,234,233,-1,233,234,231,-1,233,231,236,-1,236,231,232,-1,236,232,40,-1,40,232,41,-1,18,167,237,-1,18,237,19,-1,87,86,238,-1,238,86,231,-1,238,231,237,-1,237,231,235,-1,237,235,19,-1,231,86,102,-1,239,146,111,-1,218,220,240,-1,240,220,241,-1,102,242,231,-1,231,242,239,-1,231,239,243,-1,243,239,111,-1,243,111,177,-1,206,205,244,-1,244,205,245,-1,244,245,241,-1,241,245,231,-1,241,231,240,-1,240,231,243,-1,246,223,224,-1,245,205,6,-1,227,228,247,-1,247,228,248,-1,224,249,246,-1,246,249,245,-1,246,245,250,-1,250,245,6,-1,250,6,4,-1,251,252,253,-1,253,252,254,-1,253,254,248,-1,248,254,245,-1,248,245,247,-1,247,245,249,-1,255,1,28,-1,256,257,229,-1,28,256,255,-1,255,256,229,-1,255,229,258,-1,258,229,254,-1,258,254,259,-1,259,254,252,-1,51,50,260,-1,260,50,229,-1,260,229,261,-1,261,229,257,-1,261,257,12,-1,12,257,13,-1,254,262,245,-1,245,262,263,-1,264,265,231,-1,231,265,266,-1,231,266,267,-1,254,268,269,-1,263,270,245,-1,245,270,271,-1,245,271,231,-1,231,271,272,-1,231,272,264,-1,273,274,229,-1,269,275,254,-1,254,275,276,-1,254,276,262,-1,267,277,231,-1,231,277,278,-1,231,278,229,-1,229,278,279,-1,229,279,273,-1,274,280,229,-1,229,280,281,-1,229,281,282,-1,282,283,229,-1,229,283,284,-1,229,284,254,-1,254,284,285,-1,254,285,268,-1,259,252,286,-1,286,252,251,-1,
        ]
    }
}
Shape{
    appearance Appearance {
        material  Material 	{
            diffuseColor 0.9686274509803922 0.8784313725490196 0.6
            specularColor 0.6784313725490196 0.615686274509804 0.4196078431372549
            ambientIntensity 0.8737
            transparency 0.0
            shininess 0.5
        }
    }
    geometry IndexedFaceSet {
        ccw TRUE
        solid FALSE
        coord DEF co Coordinate {
            point [
                -0.3996 -0.5945 0.0394, -0.3012 -0.5945 0.0394, -0.3996 -0.5906 0.0394, -0.3012 -0.5906 0.0394, -0.3012 -0.5906 0.0079, -0.3012 -0.5945 0.0, -0.3012 -0.4843 0.0079, -0.3012 -0.4843 0.0, -0.3024 -0.4737 0.0, -0.3024 -0.4737 0.0079, -0.3059 -0.4638 0.0, -0.3059 -0.4638 0.0079, -0.3115 -0.4548 0.0, -0.3115 -0.4548 0.0079, -0.319 -0.4473 0.0, -0.319 -0.4473 0.0079, -0.3279 -0.4417 0.0, -0.3279 -0.4417 0.0079, -0.3379 -0.4382 0.0, -0.3379 -0.4382 0.0079, -0.3484 -0.437 0.0, -0.3484 -0.437 0.0079, -0.3524 -0.437 0.0, -0.3524 -0.437 0.0079, -0.3629 -0.4382 0.0, -0.3629 -0.4382 0.0079, -0.3729 -0.4417 0.0, -0.3729 -0.4417 0.0079, -0.3818 -0.4473 0.0, -0.3818 -0.4473 0.0079, -0.3893 -0.4548 0.0, -0.3893 -0.4548 0.0079, -0.3949 -0.4638 0.0, -0.3949 -0.4638 0.0079, -0.3984 -0.4737 0.0, -0.3984 -0.4737 0.0079, -0.3996 -0.4843 0.0, -0.3996 -0.4843 0.0079, -0.3996 -0.5906 0.0079, -0.3996 -0.5945 0.0, -0.5787 -0.2461 0.0394, -0.5787 -0.3445 0.0394, -0.5748 -0.2461 0.0394, -0.5748 -0.3445 0.0394, -0.5748 -0.3445 0.0079, -0.5787 -0.3445 0.0, -0.4685 -0.3445 0.0079, -0.4685 -0.3445 0.0, -0.458 -0.3433 0.0, -0.458 -0.3433 0.0079, -0.448 -0.3398 0.0, -0.448 -0.3398 0.0079, -0.439 -0.3342 0.0, -0.439 -0.3342 0.0079, -0.4316 -0.3267 0.0, -0.4316 -0.3267 0.0079, -0.4259 -0.3177 0.0, -0.4259 -0.3177 0.0079, -0.4224 -0.3078 0.0, -0.4224 -0.3078 0.0079, -0.4213 -0.2972 0.0, -0.4213 -0.2972 0.0079, -0.4213 -0.2933 0.0, -0.4213 -0.2933 0.0079, -0.4224 -0.2828 0.0, -0.4224 -0.2828 0.0079, -0.4259 -0.2728 0.0, -0.4259 -0.2728 0.0079, -0.4316 -0.2639 0.0, -0.4316 -0.2639 0.0079, -0.439 -0.2564 0.0, -0.439 -0.2564 0.0079, -0.448 -0.2507 0.0, -0.448 -0.2507 0.0079, -0.458 -0.2472 0.0, -0.458 -0.2472 0.0079, -0.4685 -0.2461 0.0, -0.4685 -0.2461 0.0079, -0.5748 -0.2461 0.0079, -0.5787 -0.2461 0.0, -0.5748 -0.0492 0.0394, -0.5787 -0.0492 0.0394, -0.5748 -0.1476 0.0394, -0.5787 -0.1476 0.0394, -0.4685 -0.0492 0.0079, -0.4685 -0.0492 0.0, -0.5748 -0.0492 0.0079, -0.5787 -0.0492 0.0, -0.5748 -0.1476 0.0079, -0.5787 -0.1476 0.0, -0.4685 -0.1476 0.0079, -0.4685 -0.1476 0.0, -0.458 -0.1465 0.0, -0.458 -0.1465 0.0079, -0.448 -0.143 0.0, -0.448 -0.143 0.0079, -0.439 -0.1373 0.0, -0.439 -0.1373 0.0079, -0.4316 -0.1298 0.0, -0.4316 -0.1298 0.0079, -0.4259 -0.1209 0.0, -0.4259 -0.1209 0.0079, -0.4224 -0.1109 0.0, -0.4224 -0.1109 0.0079, -0.4213 -0.1004 0.0, -0.4213 -0.1004 0.0079, -0.4213 -0.0965 0.0, -0.4213 -0.0965 0.0079, -0.4224 -0.0859 0.0, -0.4224 -0.0859 0.0079, -0.4259 -0.076 0.0, -0.4259 -0.076 0.0079, -0.4316 -0.067 0.0, -0.4316 -0.067 0.0079, -0.439 -0.0595 0.0, -0.439 -0.0595 0.0079, -0.448 -0.0539 0.0, -0.448 -0.0539 0.0079, -0.458 -0.0504 0.0, -0.458 -0.0504 0.0079, -0.5748 0.1476 0.0394, -0.5787 0.1476 0.0394, -0.5748 0.0492 0.0394, -0.5787 0.0492 0.0394, -0.4685 0.1476 0.0079, -0.4685 0.1476 0.0, -0.5748 0.1476 0.0079, -0.5787 0.1476 0.0, -0.5748 0.0492 0.0079, -0.5787 0.0492 0.0, -0.4685 0.0492 0.0079, -0.4685 0.0492 0.0, -0.458 0.0504 0.0, -0.458 0.0504 0.0079, -0.448 0.0539 0.0, -0.448 0.0539 0.0079, -0.439 0.0595 0.0, -0.439 0.0595 0.0079, -0.4316 0.067 0.0, -0.4316 0.067 0.0079, -0.4259 0.076 0.0, -0.4259 0.076 0.0079, -0.4224 0.0859 0.0, -0.4224 0.0859 0.0079, -0.4213 0.0965 0.0, -0.4213 0.0965 0.0079, -0.4213 0.1004 0.0, -0.4213 0.1004 0.0079, -0.4224 0.1109 0.0, -0.4224 0.1109 0.0079, -0.4259 0.1209 0.0, -0.4259 0.1209 0.0079, -0.4316 0.1298 0.0, -0.4316 0.1298 0.0079, -0.439 0.1373 0.0, -0.439 0.1373 0.0079, -0.448 0.143 0.0, -0.448 0.143 0.0079, -0.458 0.1465 0.0, -0.458 0.1465 0.0079, -0.5748 0.3445 0.0394, -0.5787 0.3445 0.0394, -0.5748 0.2461 0.0394, -0.5787 0.2461 0.0394, -0.4213 0.3445 0.0079, -0.4213 0.3445 0.0, -0.5748 0.3445 0.0079, -0.5787 0.3445 0.0, -0.5748 0.2461 0.0079, -0.5787 0.2461 0.0, -0.4213 0.2461 0.0079, -0.4213 0.2461 0.0, -0.3012 0.5906 0.0394, -0.3012 0.5945 0.0394, -0.3996 0.5906 0.0394, -0.3996 0.5945 0.0394, -0.3996 0.5906 0.0079, -0.3996 0.5945 0.0, -0.3996 0.4843 0.0079, -0.3996 0.4843 0.0, -0.3984 0.4737 0.0, -0.3984 0.4737 0.0079, -0.3949 0.4638 0.0, -0.3949 0.4638 0.0079, -0.3893 0.4548 0.0, -0.3893 0.4548 0.0079, -0.3818 0.4473 0.0, -0.3818 0.4473 0.0079, -0.3729 0.4417 0.0, -0.3729 0.4417 0.0079, -0.3629 0.4382 0.0, -0.3629 0.4382 0.0079, -0.3524 0.437 0.0, -0.3524 0.437 0.0079, -0.3484 0.437 0.0, -0.3484 0.437 0.0079, -0.3379 0.4382 0.0, -0.3379 0.4382 0.0079, -0.3279 0.4417 0.0, -0.3279 0.4417 0.0079, -0.319 0.4473 0.0, -0.319 0.4473 0.0079, -0.3115 0.4548 0.0, -0.3115 0.4548 0.0079, -0.3059 0.4638 0.0, -0.3059 0.4638 0.0079, -0.3024 0.4737 0.0, -0.3024 0.4737 0.0079, -0.3012 0.4843 0.0, -0.3012 0.4843 0.0079, -0.3012 0.5906 0.0079, -0.3012 0.5945 0.0, 0.0138 0.5906 0.0394, 0.0138 0.5945 0.0394, -0.1437 0.5906 0.0394, -0.1437 0.5945 0.0394, 0.0138 -0.1535 0.0079, 0.0138 -0.1535 0.0, 0.0138 0.5906 0.0079, 0.0138 0.5945 0.0, -0.1437 0.5906 0.0079, -0.1437 0.5945 0.0, -0.1437 -0.1535 0.0079, -0.1437 -0.1535 0.0, -0.1299 -0.1535 0.0079, 0.1122 -0.5945 0.0394, 0.2106 -0.5945 0.0394, 0.1122 -0.5906 0.0394, 0.2106 -0.5906 0.0394, 0.2106 -0.5906 0.0079, 0.2106 -0.5945 0.0, 0.2106 -0.2041 0.0079, 0.2106 -0.0039 0.0, 0.2106 -0.0039 0.0079, 0.1122 -0.0039 0.0, 0.1122 -0.0039 0.0079, 0.1122 -0.5945 0.0, 0.1122 -0.5906 0.0079, 0.1122 -0.2041 0.0079, 0.3091 -0.5906 0.0394, 0.3091 -0.5945 0.0394, 0.4075 -0.5906 0.0394, 0.4075 -0.5945 0.0394, 0.3091 -0.4843 0.0079, 0.3091 -0.4843 0.0, 0.3091 -0.5906 0.0079, 0.3091 -0.5945 0.0, 0.4075 -0.5906 0.0079, 0.4075 -0.5945 0.0, 0.4075 -0.4843 0.0079, 0.4075 -0.4843 0.0, 0.4063 -0.4737 0.0, 0.4063 -0.4737 0.0079, 0.4028 -0.4638 0.0, 0.4028 -0.4638 0.0079, 0.3972 -0.4548 0.0, 0.3972 -0.4548 0.0079, 0.3897 -0.4473 0.0, 0.3897 -0.4473 0.0079, 0.3807 -0.4417 0.0, 0.3807 -0.4417 0.0079, 0.3708 -0.4382 0.0, 0.3708 -0.4382 0.0079, 0.3602 -0.437 0.0, 0.3602 -0.437 0.0079, 0.3563 -0.437 0.0, 0.3563 -0.437 0.0079, 0.3458 -0.4382 0.0, 0.3458 -0.4382 0.0079, 0.3358 -0.4417 0.0, 0.3358 -0.4417 0.0079, 0.3268 -0.4473 0.0, 0.3268 -0.4473 0.0079, 0.3194 -0.4548 0.0, 0.3194 -0.4548 0.0079, 0.3137 -0.4638 0.0, 0.3137 -0.4638 0.0079, 0.3102 -0.4737 0.0, 0.3102 -0.4737 0.0079, 0.6063 0.2461 0.0394, 0.6102 0.2461 0.0394, 0.6063 0.3445 0.0394, 0.6102 0.3445 0.0394, 0.6063 0.0492 0.0394, 0.6102 0.0492 0.0394, 0.6063 0.1476 0.0394, 0.6102 0.1476 0.0394, 0.6063 -0.1476 0.0394, 0.6102 -0.1476 0.0394, 0.6063 -0.0492 0.0394, 0.6102 -0.0492 0.0394, 0.4642 0.5906 0.0394, 0.4642 0.5945 0.0394, 0.3114 0.5906 0.0394, 0.3114 0.5945 0.0394, 0.4642 0.3445 0.0079, 0.4642 0.3445 0.0, 0.4642 0.5906 0.0079, 0.4642 0.5945 0.0, 0.3114 0.5906 0.0079, 0.3114 0.5945 0.0, 0.3114 -0.1535 0.0079, 0.3114 -0.1535 0.0, 0.4642 -0.1535 0.0, 0.4642 -0.1535 0.0079, 0.4642 -0.1476 0.0, 0.4642 -0.1476 0.0079, 0.6063 -0.1476 0.0079, 0.6102 -0.1476 0.0, 0.6063 -0.0492 0.0079, 0.6102 -0.0492 0.0, 0.4642 -0.0492 0.0079, 0.4642 -0.0492 0.0, 0.4642 0.0492 0.0, 0.4642 0.0492 0.0079, 0.6063 0.0492 0.0079, 0.6102 0.0492 0.0, 0.6063 0.1476 0.0079, 0.6102 0.1476 0.0, 0.4642 0.1476 0.0079, 0.4642 0.1476 0.0, 0.4642 0.2461 0.0, 0.4642 0.2461 0.0079, 0.6063 0.2461 0.0079, 0.6102 0.2461 0.0, 0.6063 0.3445 0.0079, 0.6102 0.3445 0.0
            ]
        }
        coordIndex [
            0,1,2,-1,2,1,3,-1,3,1,4,-1,4,1,5,-1,4,5,6,-1,6,5,7,-1,6,7,8,-1,6,8,9,-1,9,8,10,-1,9,10,11,-1,11,10,12,-1,11,12,13,-1,13,12,14,-1,13,14,15,-1,15,14,16,-1,15,16,17,-1,17,16,18,-1,17,18,19,-1,19,18,20,-1,19,20,21,-1,20,22,21,-1,21,22,23,-1,23,22,24,-1,23,24,25,-1,25,24,26,-1,25,26,27,-1,27,26,28,-1,27,28,29,-1,29,28,30,-1,29,30,31,-1,31,30,32,-1,31,32,33,-1,33,32,34,-1,33,34,35,-1,35,34,36,-1,35,36,37,-1,37,36,38,-1,38,36,39,-1,38,39,2,-1,2,39,0,-1,5,1,39,-1,39,1,0,-1,7,5,39,-1,7,39,8,-1,32,30,22,-1,18,16,39,-1,39,16,14,-1,18,39,20,-1,20,39,36,-1,20,36,22,-1,22,36,34,-1,22,34,32,-1,30,28,22,-1,22,28,26,-1,22,26,24,-1,14,12,39,-1,39,12,10,-1,39,10,8,-1,40,41,42,-1,42,41,43,-1,43,41,44,-1,44,41,45,-1,44,45,46,-1,46,45,47,-1,46,47,48,-1,46,48,49,-1,49,48,50,-1,49,50,51,-1,51,50,52,-1,51,52,53,-1,53,52,54,-1,53,54,55,-1,55,54,56,-1,55,56,57,-1,57,56,58,-1,57,58,59,-1,59,58,60,-1,59,60,61,-1,60,62,61,-1,61,62,63,-1,63,62,64,-1,63,64,65,-1,65,64,66,-1,65,66,67,-1,67,66,68,-1,67,68,69,-1,69,68,70,-1,69,70,71,-1,71,70,72,-1,71,72,73,-1,73,72,74,-1,73,74,75,-1,75,74,76,-1,75,76,77,-1,77,76,78,-1,78,76,79,-1,78,79,42,-1,42,79,40,-1,45,41,79,-1,79,41,40,-1,47,45,79,-1,76,60,79,-1,79,60,58,-1,66,76,74,-1,66,64,76,-1,76,64,62,-1,76,62,60,-1,58,56,79,-1,79,56,54,-1,79,54,52,-1,74,72,66,-1,66,72,70,-1,66,70,68,-1,52,50,79,-1,79,50,48,-1,79,48,47,-1,80,81,82,-1,82,81,83,-1,84,85,86,-1,86,85,87,-1,86,87,80,-1,80,87,81,-1,82,83,88,-1,88,83,89,-1,88,89,90,-1,90,89,91,-1,90,91,92,-1,90,92,93,-1,93,92,94,-1,93,94,95,-1,95,94,96,-1,95,96,97,-1,97,96,98,-1,97,98,99,-1,99,98,100,-1,99,100,101,-1,101,100,102,-1,101,102,103,-1,103,102,104,-1,103,104,105,-1,104,106,105,-1,105,106,107,-1,107,106,108,-1,107,108,109,-1,109,108,110,-1,109,110,111,-1,111,110,112,-1,111,112,113,-1,113,112,114,-1,113,114,115,-1,115,114,116,-1,115,116,117,-1,117,116,118,-1,117,118,119,-1,119,118,85,-1,119,85,84,-1,89,83,87,-1,87,83,81,-1,91,89,87,-1,118,116,114,-1,85,110,108,-1,108,106,85,-1,85,106,104,-1,85,104,87,-1,87,104,102,-1,102,100,87,-1,87,100,98,-1,87,98,96,-1,118,114,85,-1,85,114,112,-1,85,112,110,-1,96,94,87,-1,87,94,92,-1,87,92,91,-1,120,121,122,-1,122,121,123,-1,124,125,126,-1,126,125,127,-1,126,127,120,-1,120,127,121,-1,122,123,128,-1,128,123,129,-1,128,129,130,-1,130,129,131,-1,130,131,132,-1,130,132,133,-1,133,132,134,-1,133,134,135,-1,135,134,136,-1,135,136,137,-1,137,136,138,-1,137,138,139,-1,139,138,140,-1,139,140,141,-1,141,140,142,-1,141,142,143,-1,143,142,144,-1,143,144,145,-1,144,146,145,-1,145,146,147,-1,147,146,148,-1,147,148,149,-1,149,148,150,-1,149,150,151,-1,151,150,152,-1,151,152,153,-1,153,152,154,-1,153,154,155,-1,155,154,156,-1,155,156,157,-1,157,156,158,-1,157,158,159,-1,159,158,125,-1,159,125,124,-1,129,123,127,-1,127,123,121,-1,146,144,125,-1,125,144,127,-1,127,144,142,-1,127,142,140,-1,140,138,127,-1,127,138,136,-1,127,136,134,-1,134,132,127,-1,127,132,131,-1,127,131,129,-1,152,150,154,-1,154,150,156,-1,125,158,146,-1,146,158,156,-1,146,156,148,-1,148,156,150,-1,160,161,162,-1,162,161,163,-1,164,165,166,-1,166,165,167,-1,166,167,160,-1,160,167,161,-1,162,163,168,-1,168,163,169,-1,168,169,170,-1,170,169,171,-1,171,165,170,-1,170,165,164,-1,169,163,167,-1,167,163,161,-1,171,169,165,-1,165,169,167,-1,172,173,174,-1,174,173,175,-1,174,175,176,-1,176,175,177,-1,176,177,178,-1,178,177,179,-1,178,179,180,-1,178,180,181,-1,181,180,182,-1,181,182,183,-1,183,182,184,-1,183,184,185,-1,185,184,186,-1,185,186,187,-1,187,186,188,-1,187,188,189,-1,189,188,190,-1,189,190,191,-1,191,190,192,-1,191,192,193,-1,192,194,193,-1,193,194,195,-1,195,194,196,-1,195,196,197,-1,197,196,198,-1,197,198,199,-1,199,198,200,-1,199,200,201,-1,201,200,202,-1,201,202,203,-1,203,202,204,-1,203,204,205,-1,205,204,206,-1,205,206,207,-1,207,206,208,-1,207,208,209,-1,209,208,210,-1,210,208,211,-1,210,211,172,-1,172,211,173,-1,177,175,211,-1,211,175,173,-1,196,194,206,-1,206,194,208,-1,208,194,192,-1,208,192,211,-1,211,192,190,-1,211,190,188,-1,188,186,211,-1,211,186,184,-1,211,184,182,-1,182,180,211,-1,211,180,179,-1,211,179,177,-1,206,204,202,-1,202,200,206,-1,206,200,198,-1,206,198,196,-1,212,213,214,-1,214,213,215,-1,216,217,218,-1,218,217,219,-1,218,219,212,-1,212,219,213,-1,214,215,220,-1,220,215,221,-1,220,221,222,-1,222,221,223,-1,217,216,223,-1,223,216,224,-1,223,224,222,-1,221,215,219,-1,219,215,213,-1,223,221,217,-1,217,221,219,-1,225,226,227,-1,227,226,228,-1,228,226,229,-1,229,226,230,-1,229,230,231,-1,231,230,232,-1,231,232,233,-1,232,234,233,-1,233,234,235,-1,236,225,227,-1,227,237,236,-1,236,237,238,-1,236,238,234,-1,234,238,235,-1,230,226,236,-1,236,226,225,-1,236,234,230,-1,230,234,232,-1,239,240,241,-1,241,240,242,-1,243,244,245,-1,245,244,246,-1,245,246,239,-1,239,246,240,-1,241,242,247,-1,247,242,248,-1,247,248,249,-1,249,248,250,-1,249,250,251,-1,249,251,252,-1,252,251,253,-1,252,253,254,-1,254,253,255,-1,254,255,256,-1,256,255,257,-1,256,257,258,-1,258,257,259,-1,258,259,260,-1,260,259,261,-1,260,261,262,-1,262,261,263,-1,262,263,264,-1,263,265,264,-1,264,265,266,-1,266,265,267,-1,266,267,268,-1,268,267,269,-1,268,269,270,-1,270,269,271,-1,270,271,272,-1,272,271,273,-1,272,273,274,-1,274,273,275,-1,274,275,276,-1,276,275,277,-1,276,277,278,-1,278,277,244,-1,278,244,243,-1,248,242,246,-1,246,242,240,-1,250,248,246,-1,263,246,244,-1,250,246,251,-1,269,244,277,-1,269,267,244,-1,244,267,265,-1,244,265,263,-1,263,261,246,-1,246,261,259,-1,246,259,257,-1,257,255,246,-1,246,255,253,-1,246,253,251,-1,277,275,269,-1,269,275,273,-1,269,273,271,-1,279,280,281,-1,281,280,282,-1,283,284,285,-1,285,284,286,-1,287,288,289,-1,289,288,290,-1,291,292,293,-1,293,292,294,-1,295,296,297,-1,297,296,298,-1,297,298,291,-1,291,298,292,-1,293,294,299,-1,299,294,300,-1,299,300,301,-1,301,300,302,-1,302,303,301,-1,301,303,304,-1,303,305,304,-1,304,305,306,-1,306,305,307,-1,307,305,308,-1,307,308,287,-1,287,308,288,-1,289,290,309,-1,309,290,310,-1,309,310,311,-1,311,310,312,-1,312,313,311,-1,311,313,314,-1,314,313,315,-1,315,313,316,-1,315,316,283,-1,283,316,284,-1,285,286,317,-1,317,286,318,-1,317,318,319,-1,319,318,320,-1,320,321,319,-1,319,321,322,-1,322,321,323,-1,323,321,324,-1,323,324,279,-1,279,324,280,-1,281,282,325,-1,325,282,326,-1,325,326,295,-1,295,326,296,-1,300,294,298,-1,298,294,292,-1,310,290,308,-1,308,290,288,-1,318,286,316,-1,316,286,284,-1,326,282,324,-1,324,282,280,-1,305,303,302,-1,320,318,316,-1,300,313,312,-1,310,308,312,-1,312,308,305,-1,312,305,300,-1,300,305,302,-1,300,298,296,-1,326,324,296,-1,296,324,321,-1,296,321,300,-1,300,321,320,-1,300,320,313,-1,313,320,316,-1,
        ]
    }
}
Shape{
    appearance Appearance {
        material  Material 	{
            diffuseColor 0.0 0.0 0.0
            specularColor 0.0 0.0 0.0
            ambientIntensity 0.0
            transparency 0.0
            shininess 0.5
        }
    }
    geometry IndexedFaceSet {
        ccw TRUE
        solid FALSE
        coord DEF co Coordinate {
            point [
                0.0458 -0.3229 0.0083, 0.0919 -0.2048 0.0083, 0.0458 -0.3229 0.0079, 0.0919 -0.2048 0.0079, 0.0746 -0.2048 0.0083, 0.0746 -0.2048 0.0079, 0.0627 -0.238 0.0083, 0.0627 -0.238 0.0079, 0.0139 -0.238 0.0083, 0.0139 -0.238 0.0079, 0.0026 -0.2048 0.0083, 0.0026 -0.2048 0.0079, -0.0147 -0.2048 0.0083, -0.0147 -0.2048 0.0079, 0.03 -0.3229 0.0083, 0.03 -0.3229 0.0079, 0.0179 -0.2509 0.0083, 0.0355 -0.3003 0.0083, 0.0366 -0.3043 0.0083, 0.0374 -0.3085 0.0083, 0.0378 -0.3085 0.0083, 0.0385 -0.3044 0.0083, 0.0574 -0.2509 0.0083, 0.0396 -0.3003 0.0083, 0.0179 -0.2509 0.0079, 0.0574 -0.2509 0.0079, 0.0355 -0.3003 0.0079, 0.0366 -0.3043 0.0079, 0.0374 -0.3085 0.0079, 0.0378 -0.3085 0.0079, 0.0385 -0.3044 0.0079, 0.0396 -0.3003 0.0079, -0.0863 -0.2048 0.0083, -0.1184 -0.2048 0.0083, -0.0863 -0.2048 0.0079, -0.1184 -0.2048 0.0079, -0.1184 -0.3229 0.0083, -0.1184 -0.3229 0.0079, -0.0851 -0.3229 0.0083, -0.0851 -0.3229 0.0079, -0.0233 -0.2654 0.0083, -0.0233 -0.2654 0.0079, -0.0242 -0.2764 0.0079, -0.0242 -0.2764 0.0083, -0.0273 -0.2881 0.0079, -0.0273 -0.2881 0.0083, -0.0328 -0.2982 0.0079, -0.0328 -0.2982 0.0083, -0.0412 -0.3075 0.0079, -0.0412 -0.3075 0.0083, -0.0413 -0.3077 0.0079, -0.0413 -0.3077 0.0083, -0.0542 -0.3163 0.0079, -0.0542 -0.3163 0.0083, -0.068 -0.3211 0.0079, -0.068 -0.3211 0.0083, -0.0717 -0.2061 0.0079, -0.0717 -0.2061 0.0083, -0.058 -0.2102 0.0079, -0.058 -0.2102 0.0083, -0.0457 -0.2173 0.0079, -0.0457 -0.2173 0.0083, -0.036 -0.2266 0.0079, -0.036 -0.2266 0.0083, -0.0292 -0.2372 0.0079, -0.0292 -0.2372 0.0083, -0.025 -0.2496 0.0079, -0.025 -0.2496 0.0083, -0.047 -0.2934 0.0083, -0.0528 -0.2995 0.0083, -0.0614 -0.3051 0.0083, -0.0711 -0.3085 0.0083, -0.0851 -0.31 0.0083, -0.1025 -0.31 0.0083, -0.1025 -0.2178 0.0083, -0.0858 -0.2178 0.0083, -0.0733 -0.219 0.0083, -0.0634 -0.2221 0.0083, -0.0553 -0.2268 0.0083, -0.0487 -0.2334 0.0083, -0.0437 -0.2415 0.0083, -0.0403 -0.2526 0.0083, -0.0392 -0.265 0.0083, -0.0402 -0.2768 0.0083, -0.0429 -0.2861 0.0083, -0.0851 -0.31 0.0079, -0.1025 -0.31 0.0079, -0.0711 -0.3085 0.0079, -0.0614 -0.3051 0.0079, -0.0528 -0.2995 0.0079, -0.047 -0.2934 0.0079, -0.0429 -0.2861 0.0079, -0.0402 -0.2768 0.0079, -0.0392 -0.265 0.0079, -0.0403 -0.2526 0.0079, -0.0437 -0.2415 0.0079, -0.0487 -0.2334 0.0079, -0.0553 -0.2268 0.0079, -0.0634 -0.2221 0.0079, -0.0733 -0.219 0.0079, -0.0858 -0.2178 0.0079, -0.1025 -0.2178 0.0079, -0.1414 -0.2178 0.0083, -0.1414 -0.2048 0.0083, -0.1414 -0.2178 0.0079, -0.1414 -0.2048 0.0079, -0.2048 -0.2048 0.0083, -0.2048 -0.2048 0.0079, -0.2048 -0.3229 0.0083, -0.2048 -0.3229 0.0079, -0.1443 -0.3229 0.0083, -0.1443 -0.3229 0.0079, -0.1443 -0.31 0.0083, -0.1443 -0.31 0.0079, -0.189 -0.31 0.0083, -0.189 -0.31 0.0079, -0.189 -0.2711 0.0083, -0.189 -0.2711 0.0079, -0.1472 -0.2711 0.0083, -0.1472 -0.2711 0.0079, -0.1472 -0.2581 0.0083, -0.1472 -0.2581 0.0079, -0.189 -0.2581 0.0083, -0.189 -0.2581 0.0079, -0.189 -0.2178 0.0083, -0.189 -0.2178 0.0079, -0.2279 -0.2239 0.0083, -0.2279 -0.2109 0.0083, -0.2279 -0.2239 0.0079, -0.2279 -0.2109 0.0079, -0.2404 -0.2058 0.0083, -0.2604 -0.2034 0.0083, -0.2604 -0.2034 0.0079, -0.2571 -0.2034 0.0079, -0.2571 -0.2034 0.0083, -0.2524 -0.2041 0.0079, -0.2404 -0.2058 0.0079, -0.2673 -0.2041 0.0079, -0.2749 -0.2049 0.0083, -0.2749 -0.2049 0.0079, -0.2864 -0.2088 0.0083, -0.2864 -0.2088 0.0079, -0.2959 -0.2149 0.0083, -0.2959 -0.2149 0.0079, -0.3047 -0.2242 0.0083, -0.3047 -0.2242 0.0079, -0.311 -0.2355 0.0083, -0.311 -0.2355 0.0079, -0.3146 -0.248 0.0083, -0.3146 -0.248 0.0079, -0.3157 -0.2617 0.0083, -0.3157 -0.2617 0.0079, -0.2556 -0.3244 0.0083, -0.2556 -0.3244 0.0079, -0.2675 -0.3234 0.0079, -0.2675 -0.3234 0.0083, -0.2806 -0.3196 0.0079, -0.2806 -0.3196 0.0083, -0.2918 -0.3132 0.0079, -0.2918 -0.3132 0.0083, -0.3025 -0.3029 0.0079, -0.3025 -0.3029 0.0083, -0.3095 -0.2919 0.0079, -0.3095 -0.2919 0.0083, -0.314 -0.2784 0.0079, -0.314 -0.2784 0.0083, -0.2279 -0.3197 0.0083, -0.2279 -0.3197 0.0079, -0.2415 -0.3234 0.0079, -0.2415 -0.3234 0.0083, -0.2279 -0.3039 0.0083, -0.2279 -0.3039 0.0079, -0.2555 -0.3114 0.0083, -0.2555 -0.3114 0.0079, -0.2412 -0.3095 0.0079, -0.2412 -0.3095 0.0083, -0.2999 -0.2626 0.0083, -0.2999 -0.2626 0.0079, -0.2993 -0.2718 0.0079, -0.2993 -0.2718 0.0083, -0.2962 -0.2845 0.0079, -0.2962 -0.2845 0.0083, -0.2913 -0.2936 0.0079, -0.2913 -0.2936 0.0083, -0.2842 -0.3014 0.0079, -0.2842 -0.3014 0.0083, -0.276 -0.3069 0.0079, -0.276 -0.3069 0.0083, -0.2671 -0.3101 0.0079, -0.2671 -0.3101 0.0083, -0.2582 -0.2164 0.0083, -0.2582 -0.2164 0.0079, -0.2692 -0.2176 0.0079, -0.2692 -0.2176 0.0083, -0.2778 -0.2208 0.0079, -0.2778 -0.2208 0.0083, -0.285 -0.2256 0.0079, -0.285 -0.2256 0.0083, -0.2906 -0.2315 0.0079, -0.2906 -0.2315 0.0083, -0.2955 -0.2397 0.0079, -0.2955 -0.2397 0.0083, -0.2987 -0.2498 0.0079, -0.2987 -0.2498 0.0083, -0.23 -0.2227 0.0079, -0.23 -0.2227 0.0083, -0.2425 -0.2181 0.0079, -0.2425 -0.2181 0.0083, -0.3258 -0.2178 0.0083, -0.3258 -0.2048 0.0083, -0.3258 -0.2178 0.0079, -0.3258 -0.2048 0.0079, -0.3863 -0.2048 0.0083, -0.3863 -0.2048 0.0079, -0.3863 -0.3229 0.0083, -0.3863 -0.3229 0.0079, -0.3705 -0.3229 0.0083, -0.3705 -0.3229 0.0079, -0.3705 -0.2178 0.0083, -0.3705 -0.2178 0.0079
            ]
        }
        coordIndex [
            0,1,2,-1,2,1,3,-1,1,4,3,-1,3,4,5,-1,4,6,5,-1,5,6,7,-1,6,8,7,-1,7,8,9,-1,8,10,9,-1,9,10,11,-1,10,12,11,-1,11,12,13,-1,12,14,13,-1,13,14,15,-1,14,0,15,-1,15,0,2,-1,16,17,14,-1,12,10,8,-1,17,18,14,-1,14,18,19,-1,14,19,0,-1,0,19,20,-1,0,20,21,-1,14,12,16,-1,16,12,8,-1,16,8,22,-1,22,8,6,-1,21,23,0,-1,0,23,22,-1,0,22,1,-1,1,22,6,-1,1,6,4,-1,16,22,24,-1,24,22,25,-1,17,16,26,-1,26,16,24,-1,17,26,27,-1,17,27,18,-1,18,27,28,-1,18,28,19,-1,20,19,29,-1,29,19,28,-1,20,29,30,-1,20,30,21,-1,21,30,31,-1,21,31,23,-1,22,23,25,-1,25,23,31,-1,32,33,34,-1,34,33,35,-1,33,36,35,-1,35,36,37,-1,36,38,37,-1,37,38,39,-1,40,41,42,-1,40,42,43,-1,43,42,44,-1,43,44,45,-1,45,44,46,-1,45,46,47,-1,47,46,48,-1,47,48,49,-1,49,48,50,-1,49,50,51,-1,51,50,52,-1,51,52,53,-1,53,52,54,-1,53,54,55,-1,55,54,39,-1,55,39,38,-1,32,34,56,-1,32,56,57,-1,57,56,58,-1,57,58,59,-1,59,58,60,-1,59,60,61,-1,61,60,62,-1,61,62,63,-1,63,62,64,-1,63,64,65,-1,65,64,66,-1,65,66,67,-1,67,66,41,-1,67,41,40,-1,45,47,68,-1,68,47,49,-1,68,49,69,-1,69,49,51,-1,69,51,70,-1,70,51,53,-1,70,53,71,-1,71,53,55,-1,71,55,72,-1,72,55,38,-1,72,38,73,-1,73,38,36,-1,73,36,74,-1,74,36,33,-1,74,33,75,-1,75,33,32,-1,75,32,76,-1,76,32,57,-1,76,57,77,-1,77,57,59,-1,77,59,78,-1,78,59,61,-1,78,61,79,-1,79,61,63,-1,79,63,80,-1,80,63,65,-1,80,65,81,-1,81,65,67,-1,81,67,82,-1,82,67,40,-1,82,40,83,-1,83,40,43,-1,83,43,84,-1,84,43,45,-1,84,45,68,-1,72,73,85,-1,85,73,86,-1,72,85,87,-1,72,87,71,-1,71,87,88,-1,71,88,70,-1,70,88,89,-1,70,89,69,-1,69,89,90,-1,69,90,68,-1,68,90,91,-1,68,91,84,-1,84,91,92,-1,84,92,83,-1,83,92,93,-1,83,93,82,-1,82,93,94,-1,82,94,81,-1,81,94,95,-1,81,95,80,-1,80,95,96,-1,80,96,79,-1,79,96,97,-1,79,97,78,-1,78,97,98,-1,78,98,77,-1,77,98,99,-1,77,99,76,-1,76,99,100,-1,76,100,75,-1,74,75,101,-1,101,75,100,-1,73,74,86,-1,86,74,101,-1,102,103,104,-1,104,103,105,-1,103,106,105,-1,105,106,107,-1,106,108,107,-1,107,108,109,-1,108,110,109,-1,109,110,111,-1,110,112,111,-1,111,112,113,-1,112,114,113,-1,113,114,115,-1,114,116,115,-1,115,116,117,-1,116,118,117,-1,117,118,119,-1,118,120,119,-1,119,120,121,-1,120,122,121,-1,121,122,123,-1,122,124,123,-1,123,124,125,-1,124,102,125,-1,125,102,104,-1,112,110,114,-1,114,110,108,-1,114,108,116,-1,103,102,106,-1,106,102,124,-1,106,124,122,-1,120,118,122,-1,122,118,116,-1,122,116,106,-1,106,116,108,-1,126,127,128,-1,128,127,129,-1,129,127,130,-1,131,132,133,-1,131,133,134,-1,134,133,135,-1,134,135,130,-1,130,135,136,-1,130,136,129,-1,132,131,137,-1,137,131,138,-1,137,138,139,-1,139,138,140,-1,139,140,141,-1,141,140,142,-1,141,142,143,-1,143,142,144,-1,143,144,145,-1,145,144,146,-1,145,146,147,-1,147,146,148,-1,147,148,149,-1,149,148,150,-1,149,150,151,-1,152,153,154,-1,152,154,155,-1,155,154,156,-1,155,156,157,-1,157,156,158,-1,157,158,159,-1,159,158,160,-1,159,160,161,-1,161,160,162,-1,161,162,163,-1,163,162,164,-1,163,164,165,-1,165,164,151,-1,165,151,150,-1,166,167,168,-1,166,168,169,-1,169,168,153,-1,169,153,152,-1,166,170,167,-1,167,170,171,-1,172,173,174,-1,172,174,175,-1,175,174,171,-1,175,171,170,-1,176,177,178,-1,176,178,179,-1,179,178,180,-1,179,180,181,-1,181,180,182,-1,181,182,183,-1,183,182,184,-1,183,184,185,-1,185,184,186,-1,185,186,187,-1,187,186,188,-1,187,188,189,-1,189,188,173,-1,189,173,172,-1,190,191,192,-1,190,192,193,-1,193,192,194,-1,193,194,195,-1,195,194,196,-1,195,196,197,-1,197,196,198,-1,197,198,199,-1,199,198,200,-1,199,200,201,-1,201,200,202,-1,201,202,203,-1,203,202,177,-1,203,177,176,-1,126,128,204,-1,126,204,205,-1,205,204,206,-1,205,206,207,-1,207,206,191,-1,207,191,190,-1,193,131,190,-1,190,131,134,-1,190,134,207,-1,207,134,130,-1,207,130,205,-1,205,130,127,-1,205,127,126,-1,170,166,175,-1,175,166,169,-1,175,169,172,-1,172,169,152,-1,172,152,189,-1,189,152,155,-1,189,155,187,-1,187,155,157,-1,187,157,185,-1,185,157,159,-1,185,159,183,-1,183,159,161,-1,183,161,181,-1,181,161,163,-1,181,163,179,-1,179,163,165,-1,179,165,176,-1,176,165,150,-1,176,150,203,-1,203,150,148,-1,203,148,201,-1,201,148,146,-1,201,146,199,-1,199,146,144,-1,199,144,197,-1,197,144,142,-1,197,142,195,-1,195,142,140,-1,195,140,193,-1,193,140,138,-1,193,138,131,-1,208,209,210,-1,210,209,211,-1,209,212,211,-1,211,212,213,-1,212,214,213,-1,213,214,215,-1,214,216,215,-1,215,216,217,-1,216,218,217,-1,217,218,219,-1,218,208,219,-1,219,208,210,-1,216,214,218,-1,218,214,212,-1,218,212,208,-1,208,212,209,-1,
        ]
    }
}
Shape{
    appearance Appearance {
        material  Material 	{
            diffuseColor 0.2235294117647059 0.2235294117647059 0.2235294117647059
            specularColor 0.11372549019607843 0.11372549019607843 0.11372549019607843
            ambientIntensity 0.2235
            transparency 0.0
            shininess 0.5
        }
    }
    geometry IndexedFaceSet {
        ccw TRUE
        solid FALSE
        coord DEF co Coordinate {
            point [
                0.0179 -0.2509 0.0079, 0.0574 -0.2509 0.0079, 0.0355 -0.3003 0.0079, 0.0396 -0.3003 0.0079, 0.0366 -0.3043 0.0079, 0.0385 -0.3044 0.0079, 0.0374 -0.3085 0.0079, 0.0378 -0.3085 0.0079, -0.1025 -0.31 0.0079, -0.1025 -0.2178 0.0079, -0.0851 -0.31 0.0079, -0.0858 -0.2178 0.0079, -0.0733 -0.219 0.0079, -0.0392 -0.265 0.0079, -0.0402 -0.2768 0.0079, -0.0429 -0.2861 0.0079, -0.0711 -0.3085 0.0079, -0.0634 -0.2221 0.0079, -0.0553 -0.2268 0.0079, -0.0487 -0.2334 0.0079, -0.0437 -0.2415 0.0079, -0.0403 -0.2526 0.0079, -0.047 -0.2934 0.0079, -0.0528 -0.2995 0.0079, -0.0614 -0.3051 0.0079
            ]
        }
        coordIndex [
            0,1,2,-1,2,1,3,-1,2,3,4,-1,4,3,5,-1,4,5,6,-1,6,5,7,-1,8,9,10,-1,10,9,11,-1,10,11,12,-1,13,14,10,-1,10,14,15,-1,10,15,16,-1,12,17,10,-1,10,17,18,-1,10,18,19,-1,19,20,10,-1,10,20,21,-1,10,21,13,-1,22,23,15,-1,15,23,24,-1,15,24,16,-1,
        ]
    }
}
Shape{
    appearance Appearance {
        material  Material 	{
            diffuseColor 0.0 0.0 0.0
            specularColor 0.0 0.0 0.0
            ambientIntensity 0.0
            transparency 0.0
            shininess 0.5
        }
    }
    geometry IndexedFaceSet {
        ccw TRUE
        solid FALSE
        coord DEF co Coordinate {
            point [
                -0.4848 0.4477 0.3583, -0.4848 0.4477 0.3622, -0.4834 0.437 0.3583, -0.4834 0.437 0.3622, -0.4792 0.427 0.3583, -0.4792 0.427 0.3622, -0.4726 0.4184 0.3583, -0.4726 0.4184 0.3622, -0.4641 0.4118 0.3583, -0.4641 0.4118 0.3622, -0.454 0.4077 0.3583, -0.454 0.4077 0.3622, -0.4433 0.4062 0.3583, -0.4433 0.4062 0.3622, -0.4326 0.4077 0.3583, -0.4326 0.4077 0.3622, -0.4226 0.4118 0.3583, -0.4226 0.4118 0.3622, -0.414 0.4184 0.3583, -0.414 0.4184 0.3622, -0.4074 0.427 0.3583, -0.4074 0.427 0.3622, -0.4032 0.437 0.3583, -0.4032 0.437 0.3622, -0.4018 0.4477 0.3583, -0.4018 0.4477 0.3622, -0.4032 0.4585 0.3583, -0.4032 0.4585 0.3622, -0.4074 0.4685 0.3583, -0.4074 0.4685 0.3622, -0.414 0.4771 0.3583, -0.414 0.4771 0.3622, -0.4226 0.4837 0.3583, -0.4226 0.4837 0.3622, -0.4326 0.4878 0.3583, -0.4326 0.4878 0.3622, -0.4433 0.4892 0.3583, -0.4433 0.4892 0.3622, -0.454 0.4878 0.3583, -0.454 0.4878 0.3622, -0.4641 0.4837 0.3583, -0.4641 0.4837 0.3622, -0.4726 0.4771 0.3583, -0.4726 0.4771 0.3622, -0.4792 0.4685 0.3583, -0.4792 0.4685 0.3622, -0.4834 0.4585 0.3583, -0.4834 0.4585 0.3622, -0.4433 0.4477 0.3583
            ]
        }
        coordIndex [
            0,1,2,-1,2,1,3,-1,2,3,4,-1,4,3,5,-1,4,5,6,-1,6,5,7,-1,6,7,8,-1,8,7,9,-1,8,9,10,-1,10,9,11,-1,10,11,12,-1,12,11,13,-1,12,13,14,-1,14,13,15,-1,14,15,16,-1,16,15,17,-1,16,17,18,-1,18,17,19,-1,18,19,20,-1,20,19,21,-1,20,21,22,-1,22,21,23,-1,22,23,24,-1,24,23,25,-1,24,25,26,-1,26,25,27,-1,26,27,28,-1,28,27,29,-1,28,29,30,-1,30,29,31,-1,30,31,32,-1,32,31,33,-1,32,33,34,-1,34,33,35,-1,34,35,36,-1,36,35,37,-1,36,37,38,-1,38,37,39,-1,38,39,40,-1,40,39,41,-1,40,41,42,-1,42,41,43,-1,42,43,44,-1,44,43,45,-1,44,45,46,-1,46,45,47,-1,46,47,0,-1,0,47,1,-1,44,46,48,-1,48,46,0,-1,48,0,2,-1,38,40,48,-1,48,40,42,-1,48,42,44,-1,32,34,48,-1,48,34,36,-1,48,36,38,-1,26,28,48,-1,48,28,30,-1,48,30,32,-1,20,22,48,-1,48,22,24,-1,48,24,26,-1,14,16,48,-1,48,16,18,-1,48,18,20,-1,8,10,48,-1,48,10,12,-1,48,12,14,-1,2,4,48,-1,48,4,6,-1,48,6,8,-1,
        ]
    }
}