%TF.GenerationSoftware,KiCad,Pcbnew,10.0.6*%
%TF.CreationDate,2026-09-20T21:21:10-05:00*%
%TF.ProjectId,difftx,64696666-7478-42e6-9b69-6361645f7063,rev?*%
%TF.SameCoordinates,Original*%
%TF.FileFunction,Paste,Top*%
%TF.FilePolarity,Positive*%
%FSLAX46Y46*%
G04 Gerber Fmt 4.6, Leading zero omitted, Abs format (unit mm)*
G04 Created by KiCad (PCBNEW 10.0.6) date 2026-09-20 21:21:10*
%MOMM*%
%LPD*%
G01*
G04 APERTURE LIST*
G04 Aperture macros list*
%AMRoundRect*
0 Rectangle with rounded corners*
0 $1 Rounding radius*
0 $2 $3 $4 $5 $6 $7 $8 $9 X,Y pos of 4 corners*
0 Add a 4 corners polygon primitive as box body*
4,1,4,$2,$3,$4,$5,$6,$7,$8,$9,$2,$3,0*
0 Add four circle primitives for the rounded corners*
1,1,$1+$1,$2,$3*
1,1,$1+$1,$4,$5*
1,1,$1+$1,$6,$7*
1,1,$1+$1,$8,$9*
0 Add four rect primitives between the rounded corners*
20,1,$1+$1,$2,$3,$4,$5,0*
20,1,$1+$1,$4,$5,$6,$7,0*
20,1,$1+$1,$6,$7,$8,$9,0*
20,1,$1+$1,$8,$9,$2,$3,0*%
G04 Aperture macros list end*
%ADD10RoundRect,0.250000X-0.650000X0.325000X-0.650000X-0.325000X0.650000X-0.325000X0.650000X0.325000X0*%
%ADD11O,1.971000X0.602000*%
%ADD12RoundRect,0.250000X-0.475000X0.337500X-0.475000X-0.337500X0.475000X-0.337500X0.475000X0.337500X0*%
%ADD13RoundRect,0.250000X-0.337500X-0.475000X0.337500X-0.475000X0.337500X0.475000X-0.337500X0.475000X0*%
%ADD14O,1.800000X0.588000*%
%ADD15R,2.063000X1.539000*%
%ADD16R,1.407000X3.499000*%
%ADD17RoundRect,0.200000X-0.275000X0.200000X-0.275000X-0.200000X0.275000X-0.200000X0.275000X0.200000X0*%
%ADD18RoundRect,0.250000X0.337500X0.475000X-0.337500X0.475000X-0.337500X-0.475000X0.337500X-0.475000X0*%
G04 APERTURE END LIST*
D10*
%TO.C,C3*%
X28200000Y6675000D03*
X28200000Y3725000D03*
%TD*%
D11*
%TO.C,U2*%
X39640000Y12550000D03*
X39640000Y13830000D03*
X39640000Y15100000D03*
X39640000Y16370000D03*
X39640000Y17630000D03*
X39640000Y18900000D03*
X39640000Y20170000D03*
X39640000Y21450000D03*
X34160000Y21450000D03*
X34160000Y20170000D03*
X34160000Y18900000D03*
X34160000Y17630000D03*
X34160000Y16370000D03*
X34160000Y15100000D03*
X34160000Y13830000D03*
X34160000Y12550000D03*
%TD*%
D12*
%TO.C,C1*%
X33000000Y11037500D03*
X33000000Y8962500D03*
%TD*%
D13*
%TO.C,C2*%
X9462500Y13900000D03*
X11537500Y13900000D03*
%TD*%
D10*
%TO.C,C5*%
X34600000Y6675000D03*
X34600000Y3725000D03*
%TD*%
D14*
%TO.C,U3*%
X14600000Y16100000D03*
X14600000Y17370000D03*
X14600000Y18630000D03*
X14600000Y19900000D03*
X9400000Y19900000D03*
X9400000Y18630000D03*
X9400000Y17370000D03*
X9400000Y16100000D03*
%TD*%
D15*
%TO.C,D1*%
X17900000Y9000000D03*
X22900000Y9000000D03*
%TD*%
D16*
%TO.C,F1*%
X10650000Y10400000D03*
X14350000Y10400000D03*
%TD*%
D17*
%TO.C,R1*%
X5000000Y19325000D03*
X5000000Y17675000D03*
%TD*%
D18*
%TO.C,C6*%
X27037500Y21300000D03*
X24962500Y21300000D03*
%TD*%
D10*
%TO.C,C4*%
X31400000Y6675000D03*
X31400000Y3725000D03*
%TD*%
M02*
