%TF.GenerationSoftware,KiCad,Pcbnew,10.0.6*%
%TF.CreationDate,2026-09-19T16:50:13-05:00*%
%TF.ProjectId,difftx,64696666-7478-42e6-9b69-6361645f7063,rev?*%
%TF.SameCoordinates,Original*%
%TF.FileFunction,Copper,L2,Bot*%
%TF.FilePolarity,Positive*%
%FSLAX46Y46*%
G04 Gerber Fmt 4.6, Leading zero omitted, Abs format (unit mm)*
G04 Created by KiCad (PCBNEW 10.0.6) date 2026-09-19 16:50:13*
%MOMM*%
%LPD*%
G01*
G04 APERTURE LIST*
%TA.AperFunction,ComponentPad*%
%ADD10C,2.200000*%
%TD*%
%TA.AperFunction,ComponentPad*%
%ADD11C,1.524000*%
%TD*%
%TA.AperFunction,ComponentPad*%
%ADD12C,1.600000*%
%TD*%
%TA.AperFunction,ComponentPad*%
%ADD13C,1.700000*%
%TD*%
%TA.AperFunction,ComponentPad*%
%ADD14R,1.700000X1.700000*%
%TD*%
%TA.AperFunction,ViaPad*%
%ADD15C,0.800000*%
%TD*%
%TA.AperFunction,Conductor*%
%ADD16C,0.500000*%
%TD*%
%TA.AperFunction,Conductor*%
%ADD17C,0.800000*%
%TD*%
%TA.AperFunction,Conductor*%
%ADD18C,0.250000*%
%TD*%
G04 APERTURE END LIST*
D10*
%TO.P,J4,1*%
%TO.N,/12V_IN*%
X54500000Y-61500000D03*
%TO.P,J4,2*%
%TO.N,GND*%
X59500000Y-61500000D03*
%TD*%
D11*
%TO.P,J1,1*%
%TO.N,/P1+*%
X7930000Y-53570000D03*
%TO.P,J1,2*%
%TO.N,/P1-*%
X9710000Y-52550000D03*
%TO.P,J1,3*%
%TO.N,/P2+*%
X7930000Y-51530000D03*
%TO.P,J1,4*%
%TO.N,/P3+*%
X9710000Y-50510000D03*
%TO.P,J1,5*%
%TO.N,/P3-*%
X7930000Y-49490000D03*
%TO.P,J1,6*%
%TO.N,/P2-*%
X9710000Y-48470000D03*
%TO.P,J1,7*%
%TO.N,/P4+*%
X7930000Y-47450000D03*
%TO.P,J1,8*%
%TO.N,/P4-*%
X9710000Y-46430000D03*
%TD*%
D12*
%TO.P,U4,1*%
%TO.N,+12V*%
X51460000Y-38000000D03*
%TO.P,U4,2*%
%TO.N,GND*%
X54000000Y-38000000D03*
%TO.P,U4,3*%
%TO.N,+5V*%
X56540000Y-38000000D03*
%TD*%
D13*
%TO.P,J3,1*%
%TO.N,+3V3*%
X8870000Y-5270000D03*
D14*
%TO.P,J3,2*%
%TO.N,+5V*%
X8870000Y-2730000D03*
D13*
%TO.P,J3,3*%
%TO.N,/SDA1*%
X11410000Y-5270000D03*
%TO.P,J3,4*%
%TO.N,+5V*%
X11410000Y-2730000D03*
%TO.P,J3,5*%
%TO.N,/SCL1*%
X13950000Y-5270000D03*
%TO.P,J3,6*%
%TO.N,GND*%
X13950000Y-2730000D03*
%TO.P,J3,7*%
%TO.N,/DPI_D0*%
X16490000Y-5270000D03*
%TO.P,J3,8*%
%TO.N,unconnected-(J3-Pin_8-Pad8)*%
X16490000Y-2730000D03*
%TO.P,J3,9*%
%TO.N,GND*%
X19030000Y-5270000D03*
%TO.P,J3,10*%
%TO.N,unconnected-(J3-Pin_10-Pad10)*%
X19030000Y-2730000D03*
%TO.P,J3,11*%
%TO.N,unconnected-(J3-Pin_11-Pad11)*%
X21570000Y-5270000D03*
%TO.P,J3,12*%
%TO.N,unconnected-(J3-Pin_12-Pad12)*%
X21570000Y-2730000D03*
%TO.P,J3,13*%
%TO.N,unconnected-(J3-Pin_13-Pad13)*%
X24110000Y-5270000D03*
%TO.P,J3,14*%
%TO.N,GND*%
X24110000Y-2730000D03*
%TO.P,J3,15*%
%TO.N,unconnected-(J3-Pin_15-Pad15)*%
X26650000Y-5270000D03*
%TO.P,J3,16*%
%TO.N,unconnected-(J3-Pin_16-Pad16)*%
X26650000Y-2730000D03*
%TO.P,J3,17*%
%TO.N,+3V3*%
X29190000Y-5270000D03*
%TO.P,J3,18*%
%TO.N,unconnected-(J3-Pin_18-Pad18)*%
X29190000Y-2730000D03*
%TO.P,J3,19*%
%TO.N,unconnected-(J3-Pin_19-Pad19)*%
X31730000Y-5270000D03*
%TO.P,J3,20*%
%TO.N,GND*%
X31730000Y-2730000D03*
%TO.P,J3,21*%
%TO.N,unconnected-(J3-Pin_21-Pad21)*%
X34270000Y-5270000D03*
%TO.P,J3,22*%
%TO.N,unconnected-(J3-Pin_22-Pad22)*%
X34270000Y-2730000D03*
%TO.P,J3,23*%
%TO.N,unconnected-(J3-Pin_23-Pad23)*%
X36810000Y-5270000D03*
%TO.P,J3,24*%
%TO.N,unconnected-(J3-Pin_24-Pad24)*%
X36810000Y-2730000D03*
%TO.P,J3,25*%
%TO.N,GND*%
X39350000Y-5270000D03*
%TO.P,J3,26*%
%TO.N,/DPI_D3*%
X39350000Y-2730000D03*
%TO.P,J3,27*%
%TO.N,unconnected-(J3-Pin_27-Pad27)*%
X41890000Y-5270000D03*
%TO.P,J3,28*%
%TO.N,unconnected-(J3-Pin_28-Pad28)*%
X41890000Y-2730000D03*
%TO.P,J3,29*%
%TO.N,/DPI_D1*%
X44430000Y-5270000D03*
%TO.P,J3,30*%
%TO.N,GND*%
X44430000Y-2730000D03*
%TO.P,J3,31*%
%TO.N,/DPI_D2*%
X46970000Y-5270000D03*
%TO.P,J3,32*%
%TO.N,unconnected-(J3-Pin_32-Pad32)*%
X46970000Y-2730000D03*
%TO.P,J3,33*%
%TO.N,unconnected-(J3-Pin_33-Pad33)*%
X49510000Y-5270000D03*
%TO.P,J3,34*%
%TO.N,GND*%
X49510000Y-2730000D03*
%TO.P,J3,35*%
%TO.N,unconnected-(J3-Pin_35-Pad35)*%
X52050000Y-5270000D03*
%TO.P,J3,36*%
%TO.N,unconnected-(J3-Pin_36-Pad36)*%
X52050000Y-2730000D03*
%TO.P,J3,37*%
%TO.N,unconnected-(J3-Pin_37-Pad37)*%
X54590000Y-5270000D03*
%TO.P,J3,38*%
%TO.N,unconnected-(J3-Pin_38-Pad38)*%
X54590000Y-2730000D03*
%TO.P,J3,39*%
%TO.N,GND*%
X57130000Y-5270000D03*
%TO.P,J3,40*%
%TO.N,unconnected-(J3-Pin_40-Pad40)*%
X57130000Y-2730000D03*
%TD*%
D15*
%TO.N,+5V*%
X57462000Y-32200000D03*
X35000000Y-38200000D03*
%TO.N,/DPI_D0*%
X22600000Y-32500000D03*
%TO.N,/DPI_D3*%
X25000000Y-37700000D03*
X27800000Y-44320000D03*
%TO.N,/P2+*%
X27800000Y-45590000D03*
%TO.N,/P2-*%
X26200000Y-46860000D03*
%TO.N,/P3+*%
X26200000Y-50670000D03*
%TO.N,/P3-*%
X26200000Y-49400000D03*
%TO.N,/P4+*%
X22700000Y-44320000D03*
%TO.N,/SDA1*%
X19000000Y-19000000D03*
%TO.N,/WP*%
X16000000Y-23900000D03*
X18900000Y-21540000D03*
%TO.N,GND*%
X16000000Y-28200000D03*
X15000000Y-43000000D03*
X12000000Y-62000000D03*
X20000000Y-43500000D03*
X26200000Y-51940000D03*
X33800000Y-44000000D03*
X20000000Y-27800000D03*
X47500000Y-55500000D03*
X33000000Y-10000000D03*
X60800000Y-33800000D03*
X44000000Y-48500000D03*
X20000000Y-38700000D03*
X25200000Y-24300000D03*
X45000000Y-62000000D03*
X22900000Y-46860000D03*
X10000000Y-30000000D03*
X31400000Y-48130000D03*
X36000000Y-58000000D03*
X25000000Y-56000000D03*
X61500000Y-45000000D03*
X39350000Y-7500000D03*
X43000000Y-20000000D03*
X56000000Y-20000000D03*
%TD*%
%TO.N,+5V*%
D16*
X35000000Y-34000000D02*
X35000000Y-38200000D01*
X11410000Y-1500000D02*
X11410000Y-2730000D01*
X8870000Y-1500000D02*
X11410000Y-1500000D01*
D17*
X8870000Y-1500000D02*
X8870000Y-2730000D01*
X7200000Y-34000000D02*
X7200000Y-1500000D01*
X57462000Y-34000000D02*
X7200000Y-34000000D01*
X57462000Y-32200000D02*
X57462000Y-34000000D01*
X7200000Y-1500000D02*
X8870000Y-1500000D01*
%TO.N,/DPI_D0*%
D18*
X16489999Y-8500000D02*
X22600000Y-8500000D01*
X22600000Y-8500000D02*
X22600000Y-32500000D01*
X16489999Y-5270000D02*
X16489999Y-8500000D01*
%TO.N,/DPI_D3*%
X25000000Y-39900000D02*
X27800000Y-39900000D01*
X25000000Y-37700000D02*
X25000000Y-39900000D01*
X27800000Y-39900000D02*
X27800000Y-44320000D01*
%TO.N,/P2+*%
X2500000Y-59300000D02*
X2500000Y-51530000D01*
X27800000Y-59300000D02*
X2500000Y-59300000D01*
X2500000Y-51530000D02*
X7930000Y-51530000D01*
X27800000Y-45590000D02*
X27800000Y-59300000D01*
%TO.N,/P2-*%
X26200000Y-46860000D02*
X24600000Y-48470000D01*
X24600000Y-48470000D02*
X9710000Y-48470000D01*
%TO.N,/P3+*%
X26040000Y-50510000D02*
X9710000Y-50510000D01*
X26200000Y-50670000D02*
X26040000Y-50510000D01*
%TO.N,/P3-*%
X27000000Y-40700000D02*
X1000000Y-40700000D01*
X1000000Y-49490000D02*
X7930000Y-49490000D01*
X27000000Y-48600000D02*
X27000000Y-40700000D01*
X1000000Y-40700000D02*
X1000000Y-49490000D01*
X26200000Y-49400000D02*
X27000000Y-48600000D01*
%TO.N,/P4+*%
X22700000Y-44320000D02*
X22700000Y-41200000D01*
X1800000Y-47450000D02*
X7930000Y-47450000D01*
X1800000Y-41200000D02*
X1800000Y-47450000D01*
X22700000Y-41200000D02*
X1800000Y-41200000D01*
%TO.N,/SDA1*%
X11410000Y-19000000D02*
X19000000Y-19000000D01*
X11410000Y-5270000D02*
X11410000Y-19000000D01*
%TO.N,/WP*%
X18900000Y-23900000D02*
X16000000Y-23900000D01*
X18900000Y-21540000D02*
X18900000Y-23900000D01*
%TD*%
%TA.AperFunction,Conductor*%
%TO.N,GND*%
G36*
X15256630Y-5280253D02*
G01*
X15314863Y-5318863D01*
X15342473Y-5379321D01*
X15367829Y-5539410D01*
X15423787Y-5711636D01*
X15423788Y-5711639D01*
X15459910Y-5782530D01*
X15486988Y-5835674D01*
X15506006Y-5872997D01*
X15612441Y-6019494D01*
X15612445Y-6019499D01*
X15740500Y-6147554D01*
X15740505Y-6147558D01*
X15887004Y-6253995D01*
X15887006Y-6253996D01*
X15996794Y-6309936D01*
X16047590Y-6357909D01*
X16064499Y-6420420D01*
X16064499Y-8556018D01*
X16093496Y-8664237D01*
X16149514Y-8761263D01*
X16228736Y-8840485D01*
X16325762Y-8896503D01*
X16433981Y-8925500D01*
X16546017Y-8925500D01*
X22050500Y-8925500D01*
X22117539Y-8945185D01*
X22163294Y-8997989D01*
X22174500Y-9049500D01*
X22174500Y-31883481D01*
X22154815Y-31950520D01*
X22138181Y-31971162D01*
X22055888Y-32053454D01*
X22055885Y-32053458D01*
X21979228Y-32168182D01*
X21979221Y-32168195D01*
X21926421Y-32295667D01*
X21926418Y-32295677D01*
X21899500Y-32431004D01*
X21899500Y-32431007D01*
X21899500Y-32568993D01*
X21899500Y-32568995D01*
X21899499Y-32568995D01*
X21926418Y-32704322D01*
X21926421Y-32704332D01*
X21979221Y-32831804D01*
X21979228Y-32831817D01*
X22055885Y-32946541D01*
X22055888Y-32946545D01*
X22153454Y-33044111D01*
X22153458Y-33044114D01*
X22195787Y-33072398D01*
X22240592Y-33126011D01*
X22249299Y-33195336D01*
X22219144Y-33258363D01*
X22159701Y-33295082D01*
X22126896Y-33299500D01*
X8024500Y-33299500D01*
X7957461Y-33279815D01*
X7911706Y-33227011D01*
X7900500Y-33175500D01*
X7900500Y-23968995D01*
X15299499Y-23968995D01*
X15326418Y-24104322D01*
X15326421Y-24104332D01*
X15379221Y-24231804D01*
X15379228Y-24231817D01*
X15455885Y-24346541D01*
X15455888Y-24346545D01*
X15553454Y-24444111D01*
X15553458Y-24444114D01*
X15668182Y-24520771D01*
X15668195Y-24520778D01*
X15795667Y-24573578D01*
X15795672Y-24573580D01*
X15795676Y-24573580D01*
X15795677Y-24573581D01*
X15931004Y-24600500D01*
X15931007Y-24600500D01*
X16068995Y-24600500D01*
X16160041Y-24582389D01*
X16204328Y-24573580D01*
X16331811Y-24520775D01*
X16446542Y-24444114D01*
X16446545Y-24444111D01*
X16528838Y-24361819D01*
X16590161Y-24328334D01*
X16616519Y-24325500D01*
X18956016Y-24325500D01*
X18956018Y-24325500D01*
X19064237Y-24296503D01*
X19161263Y-24240485D01*
X19240485Y-24161263D01*
X19296503Y-24064237D01*
X19325500Y-23956018D01*
X19325500Y-22156518D01*
X19345185Y-22089479D01*
X19361814Y-22068841D01*
X19444114Y-21986542D01*
X19520775Y-21871811D01*
X19573580Y-21744328D01*
X19600500Y-21608993D01*
X19600500Y-21471007D01*
X19600500Y-21471004D01*
X19573581Y-21335677D01*
X19573580Y-21335676D01*
X19573580Y-21335672D01*
X19573578Y-21335667D01*
X19520778Y-21208195D01*
X19520771Y-21208182D01*
X19444114Y-21093458D01*
X19444111Y-21093454D01*
X19346545Y-20995888D01*
X19346541Y-20995885D01*
X19231817Y-20919228D01*
X19231804Y-20919221D01*
X19104332Y-20866421D01*
X19104322Y-20866418D01*
X18968995Y-20839500D01*
X18968993Y-20839500D01*
X18831007Y-20839500D01*
X18831005Y-20839500D01*
X18695677Y-20866418D01*
X18695667Y-20866421D01*
X18568195Y-20919221D01*
X18568182Y-20919228D01*
X18453458Y-20995885D01*
X18453454Y-20995888D01*
X18355888Y-21093454D01*
X18355885Y-21093458D01*
X18279228Y-21208182D01*
X18279221Y-21208195D01*
X18226421Y-21335667D01*
X18226418Y-21335677D01*
X18199500Y-21471004D01*
X18199500Y-21471007D01*
X18199500Y-21608993D01*
X18199500Y-21608995D01*
X18199499Y-21608995D01*
X18226418Y-21744322D01*
X18226421Y-21744332D01*
X18279221Y-21871804D01*
X18279228Y-21871817D01*
X18355884Y-21986540D01*
X18355885Y-21986541D01*
X18355886Y-21986542D01*
X18438182Y-22068838D01*
X18471666Y-22130159D01*
X18474500Y-22156518D01*
X18474500Y-23350500D01*
X18454815Y-23417539D01*
X18402011Y-23463294D01*
X18350500Y-23474500D01*
X16616519Y-23474500D01*
X16549480Y-23454815D01*
X16528838Y-23438181D01*
X16446545Y-23355888D01*
X16446541Y-23355885D01*
X16331817Y-23279228D01*
X16331804Y-23279221D01*
X16204332Y-23226421D01*
X16204322Y-23226418D01*
X16068995Y-23199500D01*
X16068993Y-23199500D01*
X15931007Y-23199500D01*
X15931005Y-23199500D01*
X15795677Y-23226418D01*
X15795667Y-23226421D01*
X15668195Y-23279221D01*
X15668182Y-23279228D01*
X15553458Y-23355885D01*
X15553454Y-23355888D01*
X15455888Y-23453454D01*
X15455885Y-23453458D01*
X15379228Y-23568182D01*
X15379221Y-23568195D01*
X15326421Y-23695667D01*
X15326418Y-23695677D01*
X15299500Y-23831004D01*
X15299500Y-23831007D01*
X15299500Y-23968993D01*
X15299500Y-23968995D01*
X15299499Y-23968995D01*
X7900500Y-23968995D01*
X7900500Y-6226916D01*
X7920185Y-6159877D01*
X7972989Y-6114122D01*
X8042147Y-6104178D01*
X8105703Y-6133203D01*
X8112181Y-6139235D01*
X8120500Y-6147554D01*
X8120505Y-6147558D01*
X8146028Y-6166101D01*
X8267006Y-6253996D01*
X8372484Y-6307740D01*
X8428360Y-6336211D01*
X8428363Y-6336212D01*
X8495145Y-6357910D01*
X8600591Y-6392171D01*
X8683429Y-6405291D01*
X8779449Y-6420500D01*
X8779454Y-6420500D01*
X8960551Y-6420500D01*
X9047259Y-6406765D01*
X9139409Y-6392171D01*
X9311639Y-6336211D01*
X9472994Y-6253996D01*
X9619501Y-6147553D01*
X9747553Y-6019501D01*
X9853996Y-5872994D01*
X9936211Y-5711639D01*
X9992171Y-5539409D01*
X10006422Y-5449425D01*
X10017527Y-5379321D01*
X10047456Y-5316186D01*
X10106768Y-5279255D01*
X10176630Y-5280253D01*
X10234863Y-5318863D01*
X10262473Y-5379321D01*
X10287829Y-5539410D01*
X10343787Y-5711636D01*
X10343788Y-5711639D01*
X10379910Y-5782530D01*
X10406988Y-5835674D01*
X10426006Y-5872997D01*
X10532441Y-6019494D01*
X10532445Y-6019499D01*
X10660500Y-6147554D01*
X10660505Y-6147558D01*
X10807001Y-6253993D01*
X10807003Y-6253994D01*
X10807006Y-6253996D01*
X10916796Y-6309937D01*
X10967591Y-6357910D01*
X10984500Y-6420420D01*
X10984500Y-19056018D01*
X11013497Y-19164237D01*
X11069515Y-19261263D01*
X11148737Y-19340485D01*
X11245763Y-19396503D01*
X11353982Y-19425500D01*
X11466018Y-19425500D01*
X18383481Y-19425500D01*
X18450520Y-19445185D01*
X18471162Y-19461819D01*
X18553454Y-19544111D01*
X18553458Y-19544114D01*
X18668182Y-19620771D01*
X18668195Y-19620778D01*
X18795667Y-19673578D01*
X18795672Y-19673580D01*
X18795676Y-19673580D01*
X18795677Y-19673581D01*
X18931004Y-19700500D01*
X18931007Y-19700500D01*
X19068995Y-19700500D01*
X19160041Y-19682389D01*
X19204328Y-19673580D01*
X19331811Y-19620775D01*
X19446542Y-19544114D01*
X19544114Y-19446542D01*
X19620775Y-19331811D01*
X19673580Y-19204328D01*
X19700500Y-19068993D01*
X19700500Y-18931007D01*
X19700500Y-18931004D01*
X19673581Y-18795677D01*
X19673580Y-18795676D01*
X19673580Y-18795672D01*
X19673578Y-18795667D01*
X19620778Y-18668195D01*
X19620771Y-18668182D01*
X19544114Y-18553458D01*
X19544111Y-18553454D01*
X19446545Y-18455888D01*
X19446541Y-18455885D01*
X19331817Y-18379228D01*
X19331804Y-18379221D01*
X19204332Y-18326421D01*
X19204322Y-18326418D01*
X19068995Y-18299500D01*
X19068993Y-18299500D01*
X18931007Y-18299500D01*
X18931005Y-18299500D01*
X18795677Y-18326418D01*
X18795667Y-18326421D01*
X18668195Y-18379221D01*
X18668182Y-18379228D01*
X18553458Y-18455885D01*
X18553454Y-18455888D01*
X18471162Y-18538181D01*
X18409839Y-18571666D01*
X18383481Y-18574500D01*
X11959500Y-18574500D01*
X11892461Y-18554815D01*
X11846706Y-18502011D01*
X11835500Y-18450500D01*
X11835500Y-6420421D01*
X11855185Y-6353382D01*
X11903203Y-6309937D01*
X12012994Y-6253996D01*
X12159501Y-6147553D01*
X12287553Y-6019501D01*
X12393996Y-5872994D01*
X12476211Y-5711639D01*
X12532171Y-5539409D01*
X12546422Y-5449425D01*
X12557527Y-5379321D01*
X12587456Y-5316186D01*
X12646768Y-5279255D01*
X12716630Y-5280253D01*
X12774863Y-5318863D01*
X12802473Y-5379321D01*
X12827829Y-5539410D01*
X12883787Y-5711636D01*
X12883788Y-5711639D01*
X12919910Y-5782530D01*
X12946988Y-5835674D01*
X12966006Y-5872997D01*
X13072441Y-6019494D01*
X13072445Y-6019499D01*
X13200500Y-6147554D01*
X13200505Y-6147558D01*
X13226028Y-6166101D01*
X13347006Y-6253996D01*
X13452484Y-6307740D01*
X13508360Y-6336211D01*
X13508363Y-6336212D01*
X13575145Y-6357910D01*
X13680591Y-6392171D01*
X13763429Y-6405291D01*
X13859449Y-6420500D01*
X13859454Y-6420500D01*
X14040551Y-6420500D01*
X14127259Y-6406765D01*
X14219409Y-6392171D01*
X14391639Y-6336211D01*
X14552994Y-6253996D01*
X14699501Y-6147553D01*
X14827553Y-6019501D01*
X14933996Y-5872994D01*
X15016211Y-5711639D01*
X15072171Y-5539409D01*
X15086422Y-5449425D01*
X15097527Y-5379321D01*
X15127456Y-5316186D01*
X15186768Y-5279255D01*
X15256630Y-5280253D01*
G37*
%TD.AperFunction*%
%TA.AperFunction,Conductor*%
G36*
X43917470Y-2942297D02*
G01*
X43989881Y-3067715D01*
X44092285Y-3170119D01*
X44217703Y-3242530D01*
X44259754Y-3253797D01*
X43739873Y-3773677D01*
X43739873Y-3773678D01*
X43774858Y-3799096D01*
X43950164Y-3888418D01*
X44091612Y-3934378D01*
X44149288Y-3973815D01*
X44176486Y-4038174D01*
X44164571Y-4107020D01*
X44117327Y-4158496D01*
X44091612Y-4170240D01*
X43988363Y-4203787D01*
X43988360Y-4203788D01*
X43827002Y-4286006D01*
X43680505Y-4392441D01*
X43680500Y-4392445D01*
X43552445Y-4520500D01*
X43552441Y-4520505D01*
X43446006Y-4667002D01*
X43363788Y-4828360D01*
X43363787Y-4828363D01*
X43307829Y-5000589D01*
X43282473Y-5160678D01*
X43252544Y-5223813D01*
X43193232Y-5260744D01*
X43123369Y-5259746D01*
X43065137Y-5221136D01*
X43037527Y-5160678D01*
X43023740Y-5073639D01*
X43012171Y-5000591D01*
X42956211Y-4828361D01*
X42956211Y-4828360D01*
X42920090Y-4757470D01*
X42873996Y-4667006D01*
X42836109Y-4614859D01*
X42767558Y-4520505D01*
X42767554Y-4520500D01*
X42639499Y-4392445D01*
X42639494Y-4392441D01*
X42492997Y-4286006D01*
X42492996Y-4286005D01*
X42492994Y-4286004D01*
X42441300Y-4259664D01*
X42331639Y-4203788D01*
X42331636Y-4203787D01*
X42159410Y-4147829D01*
X41999321Y-4122473D01*
X41936186Y-4092544D01*
X41899255Y-4033232D01*
X41900253Y-3963370D01*
X41938863Y-3905137D01*
X41999321Y-3877527D01*
X42069425Y-3866422D01*
X42159409Y-3852171D01*
X42331639Y-3796211D01*
X42492994Y-3713996D01*
X42639501Y-3607553D01*
X42767553Y-3479501D01*
X42873996Y-3332994D01*
X42956211Y-3171639D01*
X42956705Y-3170119D01*
X42989759Y-3068388D01*
X43029196Y-3010712D01*
X43093554Y-2983513D01*
X43162401Y-2995427D01*
X43213877Y-3042671D01*
X43225621Y-3068386D01*
X43271581Y-3209837D01*
X43360905Y-3385145D01*
X43386319Y-3420125D01*
X43386320Y-3420125D01*
X43906202Y-2900243D01*
X43917470Y-2942297D01*
G37*
%TD.AperFunction*%
%TA.AperFunction,Conductor*%
G36*
X45473678Y-3420126D02*
G01*
X45473678Y-3420125D01*
X45499095Y-3385143D01*
X45588418Y-3209835D01*
X45634378Y-3068387D01*
X45673815Y-3010712D01*
X45738174Y-2983513D01*
X45807020Y-2995428D01*
X45858496Y-3042672D01*
X45870240Y-3068387D01*
X45903787Y-3171636D01*
X45903788Y-3171639D01*
X45986006Y-3332997D01*
X46092441Y-3479494D01*
X46092445Y-3479499D01*
X46220500Y-3607554D01*
X46220505Y-3607558D01*
X46348287Y-3700396D01*
X46367006Y-3713996D01*
X46443094Y-3752765D01*
X46528360Y-3796211D01*
X46528363Y-3796212D01*
X46614476Y-3824191D01*
X46700591Y-3852171D01*
X46773639Y-3863740D01*
X46860678Y-3877527D01*
X46923813Y-3907456D01*
X46960744Y-3966768D01*
X46959746Y-4036631D01*
X46921136Y-4094863D01*
X46860678Y-4122473D01*
X46700589Y-4147829D01*
X46528363Y-4203787D01*
X46528360Y-4203788D01*
X46367002Y-4286006D01*
X46220505Y-4392441D01*
X46220500Y-4392445D01*
X46092445Y-4520500D01*
X46092441Y-4520505D01*
X45986006Y-4667002D01*
X45903788Y-4828360D01*
X45903787Y-4828363D01*
X45847829Y-5000589D01*
X45822473Y-5160678D01*
X45792544Y-5223813D01*
X45733232Y-5260744D01*
X45663369Y-5259746D01*
X45605137Y-5221136D01*
X45577527Y-5160678D01*
X45563740Y-5073639D01*
X45552171Y-5000591D01*
X45496211Y-4828361D01*
X45496211Y-4828360D01*
X45460090Y-4757470D01*
X45413996Y-4667006D01*
X45376109Y-4614859D01*
X45307558Y-4520505D01*
X45307554Y-4520500D01*
X45179499Y-4392445D01*
X45179494Y-4392441D01*
X45032997Y-4286006D01*
X45032996Y-4286005D01*
X45032994Y-4286004D01*
X44981300Y-4259664D01*
X44871639Y-4203788D01*
X44871636Y-4203787D01*
X44768387Y-4170240D01*
X44710711Y-4130803D01*
X44683513Y-4066444D01*
X44695428Y-3997598D01*
X44742672Y-3946122D01*
X44768387Y-3934378D01*
X44909835Y-3888418D01*
X45085143Y-3799095D01*
X45120125Y-3773678D01*
X45120126Y-3773678D01*
X44600245Y-3253797D01*
X44642297Y-3242530D01*
X44767715Y-3170119D01*
X44870119Y-3067715D01*
X44942530Y-2942297D01*
X44953797Y-2900245D01*
X45473678Y-3420126D01*
G37*
%TD.AperFunction*%
%TA.AperFunction,Conductor*%
G36*
X48997470Y-2942297D02*
G01*
X49069881Y-3067715D01*
X49172285Y-3170119D01*
X49297703Y-3242530D01*
X49339754Y-3253797D01*
X48819873Y-3773677D01*
X48819873Y-3773678D01*
X48854858Y-3799096D01*
X49030164Y-3888418D01*
X49171612Y-3934378D01*
X49229288Y-3973815D01*
X49256486Y-4038174D01*
X49244571Y-4107020D01*
X49197327Y-4158496D01*
X49171612Y-4170240D01*
X49068363Y-4203787D01*
X49068360Y-4203788D01*
X48907002Y-4286006D01*
X48760505Y-4392441D01*
X48760500Y-4392445D01*
X48632445Y-4520500D01*
X48632441Y-4520505D01*
X48526006Y-4667002D01*
X48443788Y-4828360D01*
X48443787Y-4828363D01*
X48387829Y-5000589D01*
X48362473Y-5160678D01*
X48332544Y-5223813D01*
X48273232Y-5260744D01*
X48203369Y-5259746D01*
X48145137Y-5221136D01*
X48117527Y-5160678D01*
X48103740Y-5073639D01*
X48092171Y-5000591D01*
X48036211Y-4828361D01*
X48036211Y-4828360D01*
X48000090Y-4757470D01*
X47953996Y-4667006D01*
X47916109Y-4614859D01*
X47847558Y-4520505D01*
X47847554Y-4520500D01*
X47719499Y-4392445D01*
X47719494Y-4392441D01*
X47572997Y-4286006D01*
X47572996Y-4286005D01*
X47572994Y-4286004D01*
X47521300Y-4259664D01*
X47411639Y-4203788D01*
X47411636Y-4203787D01*
X47239410Y-4147829D01*
X47079321Y-4122473D01*
X47016186Y-4092544D01*
X46979255Y-4033232D01*
X46980253Y-3963370D01*
X47018863Y-3905137D01*
X47079321Y-3877527D01*
X47149425Y-3866422D01*
X47239409Y-3852171D01*
X47411639Y-3796211D01*
X47572994Y-3713996D01*
X47719501Y-3607553D01*
X47847553Y-3479501D01*
X47953996Y-3332994D01*
X48036211Y-3171639D01*
X48036705Y-3170119D01*
X48069759Y-3068388D01*
X48109196Y-3010712D01*
X48173554Y-2983513D01*
X48242401Y-2995427D01*
X48293877Y-3042671D01*
X48305621Y-3068386D01*
X48351581Y-3209837D01*
X48440905Y-3385145D01*
X48466319Y-3420125D01*
X48466320Y-3420125D01*
X48986202Y-2900243D01*
X48997470Y-2942297D01*
G37*
%TD.AperFunction*%
%TA.AperFunction,Conductor*%
G36*
X50553678Y-3420126D02*
G01*
X50553678Y-3420125D01*
X50579095Y-3385143D01*
X50668418Y-3209835D01*
X50714378Y-3068387D01*
X50753815Y-3010712D01*
X50818174Y-2983513D01*
X50887020Y-2995428D01*
X50938496Y-3042672D01*
X50950240Y-3068387D01*
X50983787Y-3171636D01*
X50983788Y-3171639D01*
X51066006Y-3332997D01*
X51172441Y-3479494D01*
X51172445Y-3479499D01*
X51300500Y-3607554D01*
X51300505Y-3607558D01*
X51428287Y-3700396D01*
X51447006Y-3713996D01*
X51523094Y-3752765D01*
X51608360Y-3796211D01*
X51608363Y-3796212D01*
X51694476Y-3824191D01*
X51780591Y-3852171D01*
X51853639Y-3863740D01*
X51940678Y-3877527D01*
X52003813Y-3907456D01*
X52040744Y-3966768D01*
X52039746Y-4036631D01*
X52001136Y-4094863D01*
X51940678Y-4122473D01*
X51780589Y-4147829D01*
X51608363Y-4203787D01*
X51608360Y-4203788D01*
X51447002Y-4286006D01*
X51300505Y-4392441D01*
X51300500Y-4392445D01*
X51172445Y-4520500D01*
X51172441Y-4520505D01*
X51066006Y-4667002D01*
X50983788Y-4828360D01*
X50983787Y-4828363D01*
X50927829Y-5000589D01*
X50902473Y-5160678D01*
X50872544Y-5223813D01*
X50813232Y-5260744D01*
X50743369Y-5259746D01*
X50685137Y-5221136D01*
X50657527Y-5160678D01*
X50643740Y-5073639D01*
X50632171Y-5000591D01*
X50576211Y-4828361D01*
X50576211Y-4828360D01*
X50540090Y-4757470D01*
X50493996Y-4667006D01*
X50456109Y-4614859D01*
X50387558Y-4520505D01*
X50387554Y-4520500D01*
X50259499Y-4392445D01*
X50259494Y-4392441D01*
X50112997Y-4286006D01*
X50112996Y-4286005D01*
X50112994Y-4286004D01*
X50061300Y-4259664D01*
X49951639Y-4203788D01*
X49951636Y-4203787D01*
X49848387Y-4170240D01*
X49790711Y-4130803D01*
X49763513Y-4066444D01*
X49775428Y-3997598D01*
X49822672Y-3946122D01*
X49848387Y-3934378D01*
X49989835Y-3888418D01*
X50165143Y-3799095D01*
X50200125Y-3773678D01*
X50200126Y-3773678D01*
X49680245Y-3253797D01*
X49722297Y-3242530D01*
X49847715Y-3170119D01*
X49950119Y-3067715D01*
X50022530Y-2942297D01*
X50033797Y-2900245D01*
X50553678Y-3420126D01*
G37*
%TD.AperFunction*%
%TA.AperFunction,Conductor*%
G36*
X65443039Y-519685D02*
G01*
X65488794Y-572489D01*
X65500000Y-624000D01*
X65500000Y-65376000D01*
X65480315Y-65443039D01*
X65427511Y-65488794D01*
X65376000Y-65500000D01*
X31229164Y-65500000D01*
X31162125Y-65480315D01*
X31116370Y-65427511D01*
X31106426Y-65358353D01*
X31135451Y-65294797D01*
X31175362Y-65264280D01*
X31242984Y-65231714D01*
X31453686Y-65130246D01*
X31739039Y-64950946D01*
X32002523Y-64740825D01*
X32240825Y-64502523D01*
X32450946Y-64239039D01*
X32630246Y-63953686D01*
X32776469Y-63650051D01*
X32887776Y-63331954D01*
X32962767Y-63003394D01*
X33000500Y-62668504D01*
X33000500Y-62331496D01*
X32962767Y-61996606D01*
X32887776Y-61668046D01*
X32887772Y-61668034D01*
X32803032Y-61425861D01*
X32790406Y-61389778D01*
X53099500Y-61389778D01*
X53099500Y-61610222D01*
X53114382Y-61704182D01*
X53133985Y-61827952D01*
X53202103Y-62037603D01*
X53202104Y-62037606D01*
X53302187Y-62234025D01*
X53431752Y-62412358D01*
X53431756Y-62412363D01*
X53587636Y-62568243D01*
X53587641Y-62568247D01*
X53725635Y-62668504D01*
X53765978Y-62697815D01*
X53894375Y-62763237D01*
X53962393Y-62797895D01*
X53962396Y-62797896D01*
X54067221Y-62831955D01*
X54172049Y-62866015D01*
X54389778Y-62900500D01*
X54389779Y-62900500D01*
X54610221Y-62900500D01*
X54610222Y-62900500D01*
X54827951Y-62866015D01*
X55037606Y-62797895D01*
X55234022Y-62697815D01*
X55318376Y-62636528D01*
X55402953Y-62575081D01*
X55402954Y-62575080D01*
X55412361Y-62568245D01*
X55412361Y-62568244D01*
X55412365Y-62568242D01*
X55568242Y-62412365D01*
X55697815Y-62234022D01*
X55797895Y-62037606D01*
X55866015Y-61827951D01*
X55900500Y-61610222D01*
X55900500Y-61389778D01*
X55899260Y-61381947D01*
X58000000Y-61381947D01*
X58000000Y-61618052D01*
X58036934Y-61851247D01*
X58109897Y-62075802D01*
X58217087Y-62286174D01*
X58277338Y-62369104D01*
X58277340Y-62369105D01*
X58860690Y-61785755D01*
X58879669Y-61831574D01*
X58956275Y-61946223D01*
X59053777Y-62043725D01*
X59168426Y-62120331D01*
X59214243Y-62139309D01*
X58630893Y-62722658D01*
X58713828Y-62782914D01*
X58924197Y-62890102D01*
X59148752Y-62963065D01*
X59148751Y-62963065D01*
X59381948Y-63000000D01*
X59618052Y-63000000D01*
X59851247Y-62963065D01*
X60075802Y-62890102D01*
X60286163Y-62782918D01*
X60286169Y-62782914D01*
X60369104Y-62722658D01*
X60369105Y-62722658D01*
X59785755Y-62139309D01*
X59831574Y-62120331D01*
X59946223Y-62043725D01*
X60043725Y-61946223D01*
X60120331Y-61831574D01*
X60139309Y-61785756D01*
X60722658Y-62369105D01*
X60722658Y-62369104D01*
X60782914Y-62286169D01*
X60782918Y-62286163D01*
X60890102Y-62075802D01*
X60963065Y-61851247D01*
X61000000Y-61618052D01*
X61000000Y-61381947D01*
X60963065Y-61148752D01*
X60890102Y-60924197D01*
X60782914Y-60713828D01*
X60722658Y-60630894D01*
X60722658Y-60630893D01*
X60139308Y-61214243D01*
X60120331Y-61168426D01*
X60043725Y-61053777D01*
X59946223Y-60956275D01*
X59831574Y-60879669D01*
X59785755Y-60860690D01*
X60369105Y-60277340D01*
X60369104Y-60277338D01*
X60286174Y-60217087D01*
X60075802Y-60109897D01*
X59851247Y-60036934D01*
X59851248Y-60036934D01*
X59618052Y-60000000D01*
X59381948Y-60000000D01*
X59148752Y-60036934D01*
X58924197Y-60109897D01*
X58713830Y-60217084D01*
X58630894Y-60277340D01*
X59214244Y-60860690D01*
X59168426Y-60879669D01*
X59053777Y-60956275D01*
X58956275Y-61053777D01*
X58879669Y-61168426D01*
X58860690Y-61214244D01*
X58277340Y-60630894D01*
X58217084Y-60713830D01*
X58109897Y-60924197D01*
X58036934Y-61148752D01*
X58000000Y-61381947D01*
X55899260Y-61381947D01*
X55866015Y-61172049D01*
X55827587Y-61053777D01*
X55797896Y-60962396D01*
X55797895Y-60962393D01*
X55755744Y-60879669D01*
X55697815Y-60765978D01*
X55681260Y-60743192D01*
X55568247Y-60587641D01*
X55568243Y-60587636D01*
X55412363Y-60431756D01*
X55412364Y-60431756D01*
X55402952Y-60424919D01*
X55402951Y-60424917D01*
X55234025Y-60302187D01*
X55234024Y-60302186D01*
X55234022Y-60302185D01*
X55149609Y-60259174D01*
X55037606Y-60202104D01*
X55037603Y-60202103D01*
X54827952Y-60133985D01*
X54719086Y-60116742D01*
X54610222Y-60099500D01*
X54389778Y-60099500D01*
X54324134Y-60109897D01*
X54172047Y-60133985D01*
X53962396Y-60202103D01*
X53962393Y-60202104D01*
X53765974Y-60302187D01*
X53587641Y-60431752D01*
X53587636Y-60431756D01*
X53431756Y-60587636D01*
X53431752Y-60587641D01*
X53302187Y-60765974D01*
X53202104Y-60962393D01*
X53202103Y-60962396D01*
X53133985Y-61172047D01*
X53133985Y-61172049D01*
X53099500Y-61389778D01*
X32790406Y-61389778D01*
X32790404Y-61389772D01*
X32776469Y-61349949D01*
X32630246Y-61046314D01*
X32450946Y-60760961D01*
X32240825Y-60497477D01*
X32002523Y-60259175D01*
X31739039Y-60049054D01*
X31453686Y-59869754D01*
X31453683Y-59869752D01*
X31150054Y-59723532D01*
X30831965Y-59612227D01*
X30831953Y-59612223D01*
X30503397Y-59537233D01*
X30503381Y-59537231D01*
X30168508Y-59499500D01*
X30168504Y-59499500D01*
X29831496Y-59499500D01*
X29831491Y-59499500D01*
X29496618Y-59537231D01*
X29496602Y-59537233D01*
X29168046Y-59612223D01*
X29168034Y-59612227D01*
X28849945Y-59723532D01*
X28546316Y-59869752D01*
X28260962Y-60049053D01*
X27997477Y-60259174D01*
X27759174Y-60497477D01*
X27549053Y-60760962D01*
X27369752Y-61046316D01*
X27223532Y-61349945D01*
X27112227Y-61668034D01*
X27112223Y-61668046D01*
X27037233Y-61996602D01*
X27037231Y-61996618D01*
X26999500Y-62331491D01*
X26999500Y-62668508D01*
X27037231Y-63003381D01*
X27037233Y-63003397D01*
X27112223Y-63331953D01*
X27112227Y-63331965D01*
X27223532Y-63650054D01*
X27369752Y-63953683D01*
X27369754Y-63953686D01*
X27549054Y-64239039D01*
X27759175Y-64502523D01*
X27997477Y-64740825D01*
X28260961Y-64950946D01*
X28546314Y-65130246D01*
X28546316Y-65130247D01*
X28824638Y-65264280D01*
X28876497Y-65311102D01*
X28894810Y-65378529D01*
X28873762Y-65445153D01*
X28820036Y-65489822D01*
X28770836Y-65500000D01*
X4729164Y-65500000D01*
X4662125Y-65480315D01*
X4616370Y-65427511D01*
X4606426Y-65358353D01*
X4635451Y-65294797D01*
X4675362Y-65264280D01*
X4742984Y-65231714D01*
X4953686Y-65130246D01*
X5239039Y-64950946D01*
X5502523Y-64740825D01*
X5740825Y-64502523D01*
X5950946Y-64239039D01*
X6130246Y-63953686D01*
X6276469Y-63650051D01*
X6387776Y-63331954D01*
X6462767Y-63003394D01*
X6500500Y-62668504D01*
X6500500Y-62331496D01*
X6462767Y-61996606D01*
X6387776Y-61668046D01*
X6367542Y-61610222D01*
X6328974Y-61499999D01*
X6276469Y-61349949D01*
X6130246Y-61046314D01*
X5950946Y-60760961D01*
X5740825Y-60497477D01*
X5502523Y-60259175D01*
X5239039Y-60049054D01*
X5088547Y-59954493D01*
X5042257Y-59902159D01*
X5031609Y-59833106D01*
X5059984Y-59769257D01*
X5118374Y-59730885D01*
X5154520Y-59725500D01*
X27856016Y-59725500D01*
X27856018Y-59725500D01*
X27964237Y-59696503D01*
X28061263Y-59640485D01*
X28140485Y-59561263D01*
X28196503Y-59464237D01*
X28225500Y-59356018D01*
X28225500Y-46206518D01*
X28245185Y-46139479D01*
X28261814Y-46118841D01*
X28344114Y-46036542D01*
X28420775Y-45921811D01*
X28473580Y-45794328D01*
X28500500Y-45658993D01*
X28500500Y-45521007D01*
X28500500Y-45521004D01*
X28473581Y-45385677D01*
X28473580Y-45385676D01*
X28473580Y-45385672D01*
X28466053Y-45367500D01*
X28420778Y-45258195D01*
X28420771Y-45258182D01*
X28344114Y-45143458D01*
X28344111Y-45143454D01*
X28243338Y-45042681D01*
X28209853Y-44981358D01*
X28214837Y-44911666D01*
X28243338Y-44867319D01*
X28344111Y-44766545D01*
X28344114Y-44766542D01*
X28420775Y-44651811D01*
X28473580Y-44524328D01*
X28500500Y-44388993D01*
X28500500Y-44251007D01*
X28500500Y-44251004D01*
X28473581Y-44115677D01*
X28473580Y-44115676D01*
X28473580Y-44115672D01*
X28438648Y-44031338D01*
X28420778Y-43988195D01*
X28420771Y-43988182D01*
X28344114Y-43873458D01*
X28344111Y-43873454D01*
X28261819Y-43791162D01*
X28228334Y-43729839D01*
X28225500Y-43703481D01*
X28225500Y-39843984D01*
X28225500Y-39843982D01*
X28196503Y-39735763D01*
X28140485Y-39638737D01*
X28061263Y-39559515D01*
X27964237Y-39503497D01*
X27856018Y-39474500D01*
X27856017Y-39474500D01*
X25549500Y-39474500D01*
X25482461Y-39454815D01*
X25436706Y-39402011D01*
X25425500Y-39350500D01*
X25425500Y-38316518D01*
X25445185Y-38249479D01*
X25461814Y-38228841D01*
X25544114Y-38146542D01*
X25620775Y-38031811D01*
X25673580Y-37904328D01*
X25682389Y-37860041D01*
X25700500Y-37768995D01*
X25700500Y-37631004D01*
X25673581Y-37495677D01*
X25673580Y-37495676D01*
X25673580Y-37495672D01*
X25673578Y-37495667D01*
X25620778Y-37368195D01*
X25620771Y-37368182D01*
X25544114Y-37253458D01*
X25544111Y-37253454D01*
X25446545Y-37155888D01*
X25446541Y-37155885D01*
X25331817Y-37079228D01*
X25331804Y-37079221D01*
X25204332Y-37026421D01*
X25204322Y-37026418D01*
X25068995Y-36999500D01*
X25068993Y-36999500D01*
X24931007Y-36999500D01*
X24931005Y-36999500D01*
X24795677Y-37026418D01*
X24795667Y-37026421D01*
X24668195Y-37079221D01*
X24668182Y-37079228D01*
X24553458Y-37155885D01*
X24553454Y-37155888D01*
X24455888Y-37253454D01*
X24455885Y-37253458D01*
X24379228Y-37368182D01*
X24379221Y-37368195D01*
X24326421Y-37495667D01*
X24326418Y-37495677D01*
X24299500Y-37631004D01*
X24299500Y-37631007D01*
X24299500Y-37768993D01*
X24299500Y-37768995D01*
X24299499Y-37768995D01*
X24326418Y-37904322D01*
X24326421Y-37904332D01*
X24379221Y-38031804D01*
X24379228Y-38031817D01*
X24455884Y-38146540D01*
X24455885Y-38146541D01*
X24455886Y-38146542D01*
X24538182Y-38228838D01*
X24571666Y-38290159D01*
X24574500Y-38316518D01*
X24574500Y-39956017D01*
X24603497Y-40064236D01*
X24603500Y-40064243D01*
X24617505Y-40088501D01*
X24633978Y-40156401D01*
X24611125Y-40222428D01*
X24556204Y-40265618D01*
X24510118Y-40274500D01*
X943982Y-40274500D01*
X835763Y-40303497D01*
X835760Y-40303498D01*
X738740Y-40359513D01*
X738734Y-40359517D01*
X711681Y-40386571D01*
X650358Y-40420056D01*
X580666Y-40415072D01*
X524733Y-40373200D01*
X500316Y-40307736D01*
X500000Y-40298890D01*
X500000Y-3845528D01*
X1249500Y-3845528D01*
X1249500Y-4154471D01*
X1284086Y-4461437D01*
X1284089Y-4461455D01*
X1352831Y-4762635D01*
X1352835Y-4762647D01*
X1454862Y-5054222D01*
X1454868Y-5054236D01*
X1588903Y-5332562D01*
X1588905Y-5332565D01*
X1753265Y-5594143D01*
X1945880Y-5835674D01*
X2164326Y-6054120D01*
X2405857Y-6246735D01*
X2667435Y-6411095D01*
X2945771Y-6545135D01*
X2945777Y-6545137D01*
X3237352Y-6647164D01*
X3237364Y-6647168D01*
X3538548Y-6715911D01*
X3538554Y-6715911D01*
X3538562Y-6715913D01*
X3743206Y-6738970D01*
X3845529Y-6750499D01*
X3845532Y-6750500D01*
X3845535Y-6750500D01*
X4154468Y-6750500D01*
X4154469Y-6750499D01*
X4311356Y-6732822D01*
X4461437Y-6715913D01*
X4461442Y-6715912D01*
X4461452Y-6715911D01*
X4762636Y-6647168D01*
X5054229Y-6545135D01*
X5332565Y-6411095D01*
X5594143Y-6246735D01*
X5835674Y-6054120D01*
X6054120Y-5835674D01*
X6246735Y-5594143D01*
X6270506Y-5556312D01*
X6322840Y-5510020D01*
X6391893Y-5499371D01*
X6455742Y-5527746D01*
X6494114Y-5586135D01*
X6499500Y-5622283D01*
X6499500Y-25377716D01*
X6479815Y-25444755D01*
X6427011Y-25490510D01*
X6357853Y-25500454D01*
X6294297Y-25471429D01*
X6270506Y-25443688D01*
X6263587Y-25432677D01*
X6246735Y-25405857D01*
X6054120Y-25164326D01*
X5835674Y-24945880D01*
X5594143Y-24753265D01*
X5413485Y-24639750D01*
X5332562Y-24588903D01*
X5054236Y-24454868D01*
X5054222Y-24454862D01*
X4762647Y-24352835D01*
X4762635Y-24352831D01*
X4461455Y-24284089D01*
X4461437Y-24284086D01*
X4154471Y-24249500D01*
X4154465Y-24249500D01*
X3845535Y-24249500D01*
X3845528Y-24249500D01*
X3538562Y-24284086D01*
X3538544Y-24284089D01*
X3237364Y-24352831D01*
X3237352Y-24352835D01*
X2945777Y-24454862D01*
X2945763Y-24454868D01*
X2667437Y-24588903D01*
X2405858Y-24753264D01*
X2164326Y-24945879D01*
X1945879Y-25164326D01*
X1753264Y-25405858D01*
X1588903Y-25667437D01*
X1454868Y-25945763D01*
X1454862Y-25945777D01*
X1352835Y-26237352D01*
X1352831Y-26237364D01*
X1284089Y-26538544D01*
X1284086Y-26538562D01*
X1249500Y-26845528D01*
X1249500Y-27154471D01*
X1284086Y-27461437D01*
X1284089Y-27461455D01*
X1352831Y-27762635D01*
X1352835Y-27762647D01*
X1454862Y-28054222D01*
X1454868Y-28054236D01*
X1588903Y-28332562D01*
X1588905Y-28332565D01*
X1753265Y-28594143D01*
X1945880Y-28835674D01*
X2164326Y-29054120D01*
X2405857Y-29246735D01*
X2667435Y-29411095D01*
X2945771Y-29545135D01*
X2945777Y-29545137D01*
X3237352Y-29647164D01*
X3237364Y-29647168D01*
X3538548Y-29715911D01*
X3538554Y-29715911D01*
X3538562Y-29715913D01*
X3743206Y-29738970D01*
X3845529Y-29750499D01*
X3845532Y-29750500D01*
X3845535Y-29750500D01*
X4154468Y-29750500D01*
X4154469Y-29750499D01*
X4311356Y-29732822D01*
X4461437Y-29715913D01*
X4461442Y-29715912D01*
X4461452Y-29715911D01*
X4762636Y-29647168D01*
X5054229Y-29545135D01*
X5332565Y-29411095D01*
X5594143Y-29246735D01*
X5835674Y-29054120D01*
X6054120Y-28835674D01*
X6246735Y-28594143D01*
X6270506Y-28556312D01*
X6322840Y-28510020D01*
X6391893Y-28499371D01*
X6455742Y-28527746D01*
X6494114Y-28586135D01*
X6499500Y-28622283D01*
X6499500Y-33931007D01*
X6499500Y-34068993D01*
X6499500Y-34068995D01*
X6499499Y-34068995D01*
X6526418Y-34204322D01*
X6526421Y-34204332D01*
X6579221Y-34331804D01*
X6579228Y-34331817D01*
X6655885Y-34446541D01*
X6655888Y-34446545D01*
X6753454Y-34544111D01*
X6753458Y-34544114D01*
X6868182Y-34620771D01*
X6868195Y-34620778D01*
X6995667Y-34673578D01*
X6995672Y-34673580D01*
X6995676Y-34673580D01*
X6995677Y-34673581D01*
X7131004Y-34700500D01*
X7131007Y-34700500D01*
X34325500Y-34700500D01*
X34392539Y-34720185D01*
X34438294Y-34772989D01*
X34449500Y-34824500D01*
X34449500Y-37725399D01*
X34429815Y-37792438D01*
X34428602Y-37794290D01*
X34379228Y-37868182D01*
X34379221Y-37868195D01*
X34326421Y-37995667D01*
X34326418Y-37995677D01*
X34299500Y-38131004D01*
X34299500Y-38131007D01*
X34299500Y-38268993D01*
X34299500Y-38268995D01*
X34299499Y-38268995D01*
X34326418Y-38404322D01*
X34326421Y-38404332D01*
X34379221Y-38531804D01*
X34379228Y-38531817D01*
X34455885Y-38646541D01*
X34455888Y-38646545D01*
X34553454Y-38744111D01*
X34553458Y-38744114D01*
X34668182Y-38820771D01*
X34668195Y-38820778D01*
X34763623Y-38860305D01*
X34795672Y-38873580D01*
X34795676Y-38873580D01*
X34795677Y-38873581D01*
X34931004Y-38900500D01*
X34931007Y-38900500D01*
X35068995Y-38900500D01*
X35160041Y-38882389D01*
X35204328Y-38873580D01*
X35331811Y-38820775D01*
X35446542Y-38744114D01*
X35544114Y-38646542D01*
X35620775Y-38531811D01*
X35673580Y-38404328D01*
X35696290Y-38290159D01*
X35700500Y-38268995D01*
X35700500Y-38131004D01*
X35673581Y-37995677D01*
X35673580Y-37995676D01*
X35673580Y-37995672D01*
X35639497Y-37913389D01*
X50359500Y-37913389D01*
X50359500Y-38086611D01*
X50362844Y-38107722D01*
X50385295Y-38249479D01*
X50386598Y-38257701D01*
X50440127Y-38422445D01*
X50518768Y-38576788D01*
X50620586Y-38716928D01*
X50743072Y-38839414D01*
X50883212Y-38941232D01*
X51037555Y-39019873D01*
X51202299Y-39073402D01*
X51373389Y-39100500D01*
X51373390Y-39100500D01*
X51546610Y-39100500D01*
X51546611Y-39100500D01*
X51717701Y-39073402D01*
X51882445Y-39019873D01*
X52036788Y-38941232D01*
X52176928Y-38839414D01*
X52299414Y-38716928D01*
X52401232Y-38576788D01*
X52479873Y-38422445D01*
X52533402Y-38257701D01*
X52557156Y-38107720D01*
X52587085Y-38044587D01*
X52646396Y-38007655D01*
X52716259Y-38008653D01*
X52774492Y-38047262D01*
X52802102Y-38107720D01*
X52829548Y-38281002D01*
X52887914Y-38460637D01*
X52973666Y-38628933D01*
X52992116Y-38654328D01*
X53517038Y-38129407D01*
X53534076Y-38192992D01*
X53599902Y-38307006D01*
X53692994Y-38400098D01*
X53807008Y-38465924D01*
X53870591Y-38482961D01*
X53345669Y-39007882D01*
X53345670Y-39007883D01*
X53371059Y-39026329D01*
X53539362Y-39112085D01*
X53718997Y-39170451D01*
X53905553Y-39200000D01*
X54094447Y-39200000D01*
X54281002Y-39170451D01*
X54460637Y-39112085D01*
X54628937Y-39026331D01*
X54654328Y-39007883D01*
X54654328Y-39007882D01*
X54129408Y-38482961D01*
X54192992Y-38465924D01*
X54307006Y-38400098D01*
X54400098Y-38307006D01*
X54465924Y-38192992D01*
X54482961Y-38129407D01*
X55007882Y-38654328D01*
X55007883Y-38654328D01*
X55026331Y-38628937D01*
X55112085Y-38460637D01*
X55170451Y-38281002D01*
X55197897Y-38107721D01*
X55227826Y-38044586D01*
X55287138Y-38007655D01*
X55357000Y-38008653D01*
X55415233Y-38047263D01*
X55442843Y-38107721D01*
X55466597Y-38257696D01*
X55466598Y-38257701D01*
X55520127Y-38422445D01*
X55598768Y-38576788D01*
X55700586Y-38716928D01*
X55823072Y-38839414D01*
X55963212Y-38941232D01*
X56117555Y-39019873D01*
X56282299Y-39073402D01*
X56453389Y-39100500D01*
X56453390Y-39100500D01*
X56626610Y-39100500D01*
X56626611Y-39100500D01*
X56797701Y-39073402D01*
X56962445Y-39019873D01*
X57116788Y-38941232D01*
X57256928Y-38839414D01*
X57379414Y-38716928D01*
X57481232Y-38576788D01*
X57559873Y-38422445D01*
X57613402Y-38257701D01*
X57640500Y-38086611D01*
X57640500Y-37913389D01*
X57613402Y-37742299D01*
X57559873Y-37577555D01*
X57481232Y-37423212D01*
X57379414Y-37283072D01*
X57256928Y-37160586D01*
X57116788Y-37058768D01*
X56962445Y-36980127D01*
X56797701Y-36926598D01*
X56797699Y-36926597D01*
X56797698Y-36926597D01*
X56666271Y-36905781D01*
X56626611Y-36899500D01*
X56453389Y-36899500D01*
X56413728Y-36905781D01*
X56282302Y-36926597D01*
X56117552Y-36980128D01*
X55963211Y-37058768D01*
X55935055Y-37079225D01*
X55823072Y-37160586D01*
X55823070Y-37160588D01*
X55823069Y-37160588D01*
X55700588Y-37283069D01*
X55700588Y-37283070D01*
X55700586Y-37283072D01*
X55656859Y-37343256D01*
X55598768Y-37423211D01*
X55520128Y-37577552D01*
X55466597Y-37742302D01*
X55442843Y-37892278D01*
X55412914Y-37955413D01*
X55353602Y-37992344D01*
X55283739Y-37991346D01*
X55225507Y-37952736D01*
X55197897Y-37892278D01*
X55170451Y-37718997D01*
X55112085Y-37539362D01*
X55026329Y-37371059D01*
X55007883Y-37345670D01*
X55007882Y-37345669D01*
X54482961Y-37870591D01*
X54465924Y-37807008D01*
X54400098Y-37692994D01*
X54307006Y-37599902D01*
X54192992Y-37534076D01*
X54129408Y-37517038D01*
X54654328Y-36992116D01*
X54628933Y-36973666D01*
X54460637Y-36887914D01*
X54281002Y-36829548D01*
X54094447Y-36800000D01*
X53905553Y-36800000D01*
X53718997Y-36829548D01*
X53539362Y-36887914D01*
X53371060Y-36973669D01*
X53345670Y-36992116D01*
X53345669Y-36992116D01*
X53870592Y-37517038D01*
X53807008Y-37534076D01*
X53692994Y-37599902D01*
X53599902Y-37692994D01*
X53534076Y-37807008D01*
X53517038Y-37870591D01*
X52992116Y-37345669D01*
X52992116Y-37345670D01*
X52973669Y-37371060D01*
X52887914Y-37539362D01*
X52829548Y-37718997D01*
X52802102Y-37892279D01*
X52772172Y-37955413D01*
X52712861Y-37992344D01*
X52642998Y-37991346D01*
X52584766Y-37952736D01*
X52557156Y-37892277D01*
X52533403Y-37742303D01*
X52533402Y-37742302D01*
X52533402Y-37742299D01*
X52479873Y-37577555D01*
X52401232Y-37423212D01*
X52299414Y-37283072D01*
X52176928Y-37160586D01*
X52170458Y-37155885D01*
X52148194Y-37139708D01*
X52148171Y-37139693D01*
X52064944Y-37079225D01*
X52036788Y-37058768D01*
X51882445Y-36980127D01*
X51717701Y-36926598D01*
X51717699Y-36926597D01*
X51717698Y-36926597D01*
X51586271Y-36905781D01*
X51546611Y-36899500D01*
X51373389Y-36899500D01*
X51333728Y-36905781D01*
X51202302Y-36926597D01*
X51037552Y-36980128D01*
X50883211Y-37058768D01*
X50855055Y-37079225D01*
X50743072Y-37160586D01*
X50743070Y-37160588D01*
X50743069Y-37160588D01*
X50620588Y-37283069D01*
X50620588Y-37283070D01*
X50620586Y-37283072D01*
X50576859Y-37343256D01*
X50518768Y-37423211D01*
X50440128Y-37577552D01*
X50386597Y-37742302D01*
X50378363Y-37794290D01*
X50359500Y-37913389D01*
X35639497Y-37913389D01*
X35620775Y-37868189D01*
X35567914Y-37789077D01*
X35564972Y-37783534D01*
X35559158Y-37755202D01*
X35550520Y-37727612D01*
X35550500Y-37725399D01*
X35550500Y-34824500D01*
X35570185Y-34757461D01*
X35622989Y-34711706D01*
X35674500Y-34700500D01*
X57530995Y-34700500D01*
X57622041Y-34682389D01*
X57666328Y-34673580D01*
X57793811Y-34620775D01*
X57908542Y-34544114D01*
X58006114Y-34446542D01*
X58082775Y-34331811D01*
X58135580Y-34204328D01*
X58162500Y-34068993D01*
X58162500Y-32131007D01*
X58162500Y-32131004D01*
X58135581Y-31995677D01*
X58135580Y-31995676D01*
X58135580Y-31995672D01*
X58119100Y-31955886D01*
X58082778Y-31868195D01*
X58082771Y-31868182D01*
X58006114Y-31753458D01*
X58006111Y-31753454D01*
X57908545Y-31655888D01*
X57908541Y-31655885D01*
X57793817Y-31579228D01*
X57793804Y-31579221D01*
X57666332Y-31526421D01*
X57666322Y-31526418D01*
X57530995Y-31499500D01*
X57530993Y-31499500D01*
X57393007Y-31499500D01*
X57393005Y-31499500D01*
X57257677Y-31526418D01*
X57257667Y-31526421D01*
X57130195Y-31579221D01*
X57130182Y-31579228D01*
X57015458Y-31655885D01*
X57015454Y-31655888D01*
X56917888Y-31753454D01*
X56917885Y-31753458D01*
X56841228Y-31868182D01*
X56841221Y-31868195D01*
X56788421Y-31995667D01*
X56788418Y-31995677D01*
X56761500Y-32131004D01*
X56761500Y-33175500D01*
X56741815Y-33242539D01*
X56689011Y-33288294D01*
X56637500Y-33299500D01*
X23073104Y-33299500D01*
X23006065Y-33279815D01*
X22960310Y-33227011D01*
X22950366Y-33157853D01*
X22979391Y-33094297D01*
X23004213Y-33072398D01*
X23024130Y-33059088D01*
X23046542Y-33044114D01*
X23144114Y-32946542D01*
X23220775Y-32831811D01*
X23273580Y-32704328D01*
X23300500Y-32568993D01*
X23300500Y-32431007D01*
X23300500Y-32431004D01*
X23273581Y-32295677D01*
X23273580Y-32295676D01*
X23273580Y-32295672D01*
X23273578Y-32295667D01*
X23220778Y-32168195D01*
X23220771Y-32168182D01*
X23144114Y-32053458D01*
X23144111Y-32053454D01*
X23061819Y-31971162D01*
X23028334Y-31909839D01*
X23025500Y-31883481D01*
X23025500Y-26845528D01*
X59249500Y-26845528D01*
X59249500Y-27154471D01*
X59284086Y-27461437D01*
X59284089Y-27461455D01*
X59352831Y-27762635D01*
X59352835Y-27762647D01*
X59454862Y-28054222D01*
X59454868Y-28054236D01*
X59588903Y-28332562D01*
X59588905Y-28332565D01*
X59753265Y-28594143D01*
X59945880Y-28835674D01*
X60164326Y-29054120D01*
X60405857Y-29246735D01*
X60667435Y-29411095D01*
X60945771Y-29545135D01*
X60945777Y-29545137D01*
X61237352Y-29647164D01*
X61237364Y-29647168D01*
X61538548Y-29715911D01*
X61538554Y-29715911D01*
X61538562Y-29715913D01*
X61743206Y-29738970D01*
X61845529Y-29750499D01*
X61845532Y-29750500D01*
X61845535Y-29750500D01*
X62154468Y-29750500D01*
X62154469Y-29750499D01*
X62311356Y-29732822D01*
X62461437Y-29715913D01*
X62461442Y-29715912D01*
X62461452Y-29715911D01*
X62762636Y-29647168D01*
X63054229Y-29545135D01*
X63332565Y-29411095D01*
X63594143Y-29246735D01*
X63835674Y-29054120D01*
X64054120Y-28835674D01*
X64246735Y-28594143D01*
X64411095Y-28332565D01*
X64545135Y-28054229D01*
X64647168Y-27762636D01*
X64715911Y-27461452D01*
X64750500Y-27154465D01*
X64750500Y-26845535D01*
X64715911Y-26538548D01*
X64647168Y-26237364D01*
X64545135Y-25945771D01*
X64411095Y-25667435D01*
X64246735Y-25405857D01*
X64054120Y-25164326D01*
X63835674Y-24945880D01*
X63594143Y-24753265D01*
X63413485Y-24639750D01*
X63332562Y-24588903D01*
X63054236Y-24454868D01*
X63054222Y-24454862D01*
X62762647Y-24352835D01*
X62762635Y-24352831D01*
X62461455Y-24284089D01*
X62461437Y-24284086D01*
X62154471Y-24249500D01*
X62154465Y-24249500D01*
X61845535Y-24249500D01*
X61845528Y-24249500D01*
X61538562Y-24284086D01*
X61538544Y-24284089D01*
X61237364Y-24352831D01*
X61237352Y-24352835D01*
X60945777Y-24454862D01*
X60945763Y-24454868D01*
X60667437Y-24588903D01*
X60405858Y-24753264D01*
X60164326Y-24945879D01*
X59945879Y-25164326D01*
X59753264Y-25405858D01*
X59588903Y-25667437D01*
X59454868Y-25945763D01*
X59454862Y-25945777D01*
X59352835Y-26237352D01*
X59352831Y-26237364D01*
X59284089Y-26538544D01*
X59284086Y-26538562D01*
X59249500Y-26845528D01*
X23025500Y-26845528D01*
X23025500Y-8443984D01*
X23025500Y-8443982D01*
X22996503Y-8335763D01*
X22940485Y-8238737D01*
X22861263Y-8159515D01*
X22764237Y-8103497D01*
X22656018Y-8074500D01*
X22656017Y-8074500D01*
X17039499Y-8074500D01*
X16972460Y-8054815D01*
X16926705Y-8002011D01*
X16915499Y-7950500D01*
X16915499Y-6420422D01*
X16935184Y-6353383D01*
X16983204Y-6309937D01*
X16983208Y-6309935D01*
X17092994Y-6253996D01*
X17149990Y-6212586D01*
X17213973Y-6166101D01*
X17239495Y-6147558D01*
X17239497Y-6147555D01*
X17239501Y-6147553D01*
X17367553Y-6019501D01*
X17473996Y-5872994D01*
X17556211Y-5711639D01*
X17556705Y-5710119D01*
X17589759Y-5608388D01*
X17629196Y-5550712D01*
X17693554Y-5523513D01*
X17762401Y-5535427D01*
X17813877Y-5582671D01*
X17825621Y-5608386D01*
X17871581Y-5749837D01*
X17960905Y-5925145D01*
X17986319Y-5960125D01*
X17986320Y-5960125D01*
X18506202Y-5440243D01*
X18517470Y-5482297D01*
X18589881Y-5607715D01*
X18692285Y-5710119D01*
X18817703Y-5782530D01*
X18859754Y-5793797D01*
X18339873Y-6313677D01*
X18339873Y-6313678D01*
X18374858Y-6339096D01*
X18550164Y-6428418D01*
X18737294Y-6489221D01*
X18931618Y-6520000D01*
X19128382Y-6520000D01*
X19322705Y-6489221D01*
X19509835Y-6428418D01*
X19685143Y-6339095D01*
X19720125Y-6313678D01*
X19720126Y-6313678D01*
X19200245Y-5793797D01*
X19242297Y-5782530D01*
X19367715Y-5710119D01*
X19470119Y-5607715D01*
X19542530Y-5482297D01*
X19553797Y-5440245D01*
X20073678Y-5960126D01*
X20073678Y-5960125D01*
X20099095Y-5925143D01*
X20188418Y-5749835D01*
X20234378Y-5608387D01*
X20273815Y-5550712D01*
X20338174Y-5523513D01*
X20407020Y-5535428D01*
X20458496Y-5582672D01*
X20470240Y-5608387D01*
X20503787Y-5711636D01*
X20503788Y-5711639D01*
X20539910Y-5782530D01*
X20566988Y-5835674D01*
X20586006Y-5872997D01*
X20692441Y-6019494D01*
X20692445Y-6019499D01*
X20820500Y-6147554D01*
X20820505Y-6147558D01*
X20846028Y-6166101D01*
X20967006Y-6253996D01*
X21072484Y-6307740D01*
X21128360Y-6336211D01*
X21128363Y-6336212D01*
X21195145Y-6357910D01*
X21300591Y-6392171D01*
X21383429Y-6405291D01*
X21479449Y-6420500D01*
X21479454Y-6420500D01*
X21660551Y-6420500D01*
X21747259Y-6406765D01*
X21839409Y-6392171D01*
X22011639Y-6336211D01*
X22172994Y-6253996D01*
X22319501Y-6147553D01*
X22447553Y-6019501D01*
X22553996Y-5872994D01*
X22636211Y-5711639D01*
X22692171Y-5539409D01*
X22706422Y-5449425D01*
X22717527Y-5379321D01*
X22747456Y-5316186D01*
X22806768Y-5279255D01*
X22876630Y-5280253D01*
X22934863Y-5318863D01*
X22962473Y-5379321D01*
X22987829Y-5539410D01*
X23043787Y-5711636D01*
X23043788Y-5711639D01*
X23079910Y-5782530D01*
X23106988Y-5835674D01*
X23126006Y-5872997D01*
X23232441Y-6019494D01*
X23232445Y-6019499D01*
X23360500Y-6147554D01*
X23360505Y-6147558D01*
X23386028Y-6166101D01*
X23507006Y-6253996D01*
X23612484Y-6307740D01*
X23668360Y-6336211D01*
X23668363Y-6336212D01*
X23735145Y-6357910D01*
X23840591Y-6392171D01*
X23923429Y-6405291D01*
X24019449Y-6420500D01*
X24019454Y-6420500D01*
X24200551Y-6420500D01*
X24287259Y-6406765D01*
X24379409Y-6392171D01*
X24551639Y-6336211D01*
X24712994Y-6253996D01*
X24859501Y-6147553D01*
X24987553Y-6019501D01*
X25093996Y-5872994D01*
X25176211Y-5711639D01*
X25232171Y-5539409D01*
X25246422Y-5449425D01*
X25257527Y-5379321D01*
X25287456Y-5316186D01*
X25346768Y-5279255D01*
X25416630Y-5280253D01*
X25474863Y-5318863D01*
X25502473Y-5379321D01*
X25527829Y-5539410D01*
X25583787Y-5711636D01*
X25583788Y-5711639D01*
X25619910Y-5782530D01*
X25646988Y-5835674D01*
X25666006Y-5872997D01*
X25772441Y-6019494D01*
X25772445Y-6019499D01*
X25900500Y-6147554D01*
X25900505Y-6147558D01*
X25926028Y-6166101D01*
X26047006Y-6253996D01*
X26152484Y-6307740D01*
X26208360Y-6336211D01*
X26208363Y-6336212D01*
X26275145Y-6357910D01*
X26380591Y-6392171D01*
X26463429Y-6405291D01*
X26559449Y-6420500D01*
X26559454Y-6420500D01*
X26740551Y-6420500D01*
X26827259Y-6406765D01*
X26919409Y-6392171D01*
X27091639Y-6336211D01*
X27252994Y-6253996D01*
X27399501Y-6147553D01*
X27527553Y-6019501D01*
X27633996Y-5872994D01*
X27716211Y-5711639D01*
X27772171Y-5539409D01*
X27786422Y-5449425D01*
X27797527Y-5379321D01*
X27827456Y-5316186D01*
X27886768Y-5279255D01*
X27956630Y-5280253D01*
X28014863Y-5318863D01*
X28042473Y-5379321D01*
X28067829Y-5539410D01*
X28123787Y-5711636D01*
X28123788Y-5711639D01*
X28159910Y-5782530D01*
X28186988Y-5835674D01*
X28206006Y-5872997D01*
X28312441Y-6019494D01*
X28312445Y-6019499D01*
X28440500Y-6147554D01*
X28440505Y-6147558D01*
X28466028Y-6166101D01*
X28587006Y-6253996D01*
X28692484Y-6307740D01*
X28748360Y-6336211D01*
X28748363Y-6336212D01*
X28815145Y-6357910D01*
X28920591Y-6392171D01*
X29003429Y-6405291D01*
X29099449Y-6420500D01*
X29099454Y-6420500D01*
X29280551Y-6420500D01*
X29367259Y-6406765D01*
X29459409Y-6392171D01*
X29631639Y-6336211D01*
X29792994Y-6253996D01*
X29939501Y-6147553D01*
X30067553Y-6019501D01*
X30173996Y-5872994D01*
X30256211Y-5711639D01*
X30312171Y-5539409D01*
X30326422Y-5449425D01*
X30337527Y-5379321D01*
X30367456Y-5316186D01*
X30426768Y-5279255D01*
X30496630Y-5280253D01*
X30554863Y-5318863D01*
X30582473Y-5379321D01*
X30607829Y-5539410D01*
X30663787Y-5711636D01*
X30663788Y-5711639D01*
X30699910Y-5782530D01*
X30726988Y-5835674D01*
X30746006Y-5872997D01*
X30852441Y-6019494D01*
X30852445Y-6019499D01*
X30980500Y-6147554D01*
X30980505Y-6147558D01*
X31006028Y-6166101D01*
X31127006Y-6253996D01*
X31232484Y-6307740D01*
X31288360Y-6336211D01*
X31288363Y-6336212D01*
X31355145Y-6357910D01*
X31460591Y-6392171D01*
X31543429Y-6405291D01*
X31639449Y-6420500D01*
X31639454Y-6420500D01*
X31820551Y-6420500D01*
X31907259Y-6406765D01*
X31999409Y-6392171D01*
X32171639Y-6336211D01*
X32332994Y-6253996D01*
X32479501Y-6147553D01*
X32607553Y-6019501D01*
X32713996Y-5872994D01*
X32796211Y-5711639D01*
X32852171Y-5539409D01*
X32866422Y-5449425D01*
X32877527Y-5379321D01*
X32907456Y-5316186D01*
X32966768Y-5279255D01*
X33036630Y-5280253D01*
X33094863Y-5318863D01*
X33122473Y-5379321D01*
X33147829Y-5539410D01*
X33203787Y-5711636D01*
X33203788Y-5711639D01*
X33239910Y-5782530D01*
X33266988Y-5835674D01*
X33286006Y-5872997D01*
X33392441Y-6019494D01*
X33392445Y-6019499D01*
X33520500Y-6147554D01*
X33520505Y-6147558D01*
X33546028Y-6166101D01*
X33667006Y-6253996D01*
X33772484Y-6307740D01*
X33828360Y-6336211D01*
X33828363Y-6336212D01*
X33895145Y-6357910D01*
X34000591Y-6392171D01*
X34083429Y-6405291D01*
X34179449Y-6420500D01*
X34179454Y-6420500D01*
X34360551Y-6420500D01*
X34447259Y-6406765D01*
X34539409Y-6392171D01*
X34711639Y-6336211D01*
X34872994Y-6253996D01*
X35019501Y-6147553D01*
X35147553Y-6019501D01*
X35253996Y-5872994D01*
X35336211Y-5711639D01*
X35392171Y-5539409D01*
X35406422Y-5449425D01*
X35417527Y-5379321D01*
X35447456Y-5316186D01*
X35506768Y-5279255D01*
X35576630Y-5280253D01*
X35634863Y-5318863D01*
X35662473Y-5379321D01*
X35687829Y-5539410D01*
X35743787Y-5711636D01*
X35743788Y-5711639D01*
X35779910Y-5782530D01*
X35806988Y-5835674D01*
X35826006Y-5872997D01*
X35932441Y-6019494D01*
X35932445Y-6019499D01*
X36060500Y-6147554D01*
X36060505Y-6147558D01*
X36086028Y-6166101D01*
X36207006Y-6253996D01*
X36312484Y-6307740D01*
X36368360Y-6336211D01*
X36368363Y-6336212D01*
X36435145Y-6357910D01*
X36540591Y-6392171D01*
X36623429Y-6405291D01*
X36719449Y-6420500D01*
X36719454Y-6420500D01*
X36900551Y-6420500D01*
X36987259Y-6406765D01*
X37079409Y-6392171D01*
X37251639Y-6336211D01*
X37412994Y-6253996D01*
X37469990Y-6212586D01*
X37533973Y-6166101D01*
X37559495Y-6147558D01*
X37559497Y-6147555D01*
X37559501Y-6147553D01*
X37687553Y-6019501D01*
X37793996Y-5872994D01*
X37876211Y-5711639D01*
X37876705Y-5710119D01*
X37909759Y-5608388D01*
X37949196Y-5550712D01*
X38013554Y-5523513D01*
X38082401Y-5535427D01*
X38133877Y-5582671D01*
X38145621Y-5608386D01*
X38191581Y-5749837D01*
X38280905Y-5925145D01*
X38306319Y-5960125D01*
X38306320Y-5960125D01*
X38826202Y-5440243D01*
X38837470Y-5482297D01*
X38909881Y-5607715D01*
X39012285Y-5710119D01*
X39137703Y-5782530D01*
X39179754Y-5793797D01*
X38659873Y-6313677D01*
X38659873Y-6313678D01*
X38694858Y-6339096D01*
X38870164Y-6428418D01*
X39057294Y-6489221D01*
X39251618Y-6520000D01*
X39448382Y-6520000D01*
X39642705Y-6489221D01*
X39829835Y-6428418D01*
X40005143Y-6339095D01*
X40040125Y-6313678D01*
X40040126Y-6313678D01*
X39520245Y-5793797D01*
X39562297Y-5782530D01*
X39687715Y-5710119D01*
X39790119Y-5607715D01*
X39862530Y-5482297D01*
X39873797Y-5440245D01*
X40393678Y-5960126D01*
X40393678Y-5960125D01*
X40419095Y-5925143D01*
X40508418Y-5749835D01*
X40554378Y-5608387D01*
X40593815Y-5550712D01*
X40658174Y-5523513D01*
X40727020Y-5535428D01*
X40778496Y-5582672D01*
X40790240Y-5608387D01*
X40823787Y-5711636D01*
X40823788Y-5711639D01*
X40859910Y-5782530D01*
X40886988Y-5835674D01*
X40906006Y-5872997D01*
X41012441Y-6019494D01*
X41012445Y-6019499D01*
X41140500Y-6147554D01*
X41140505Y-6147558D01*
X41166028Y-6166101D01*
X41287006Y-6253996D01*
X41392484Y-6307740D01*
X41448360Y-6336211D01*
X41448363Y-6336212D01*
X41515145Y-6357910D01*
X41620591Y-6392171D01*
X41703429Y-6405291D01*
X41799449Y-6420500D01*
X41799454Y-6420500D01*
X41980551Y-6420500D01*
X42067259Y-6406765D01*
X42159409Y-6392171D01*
X42331639Y-6336211D01*
X42492994Y-6253996D01*
X42639501Y-6147553D01*
X42767553Y-6019501D01*
X42873996Y-5872994D01*
X42956211Y-5711639D01*
X43012171Y-5539409D01*
X43026422Y-5449425D01*
X43037527Y-5379321D01*
X43067456Y-5316186D01*
X43126768Y-5279255D01*
X43196630Y-5280253D01*
X43254863Y-5318863D01*
X43282473Y-5379321D01*
X43307829Y-5539410D01*
X43363787Y-5711636D01*
X43363788Y-5711639D01*
X43399910Y-5782530D01*
X43426988Y-5835674D01*
X43446006Y-5872997D01*
X43552441Y-6019494D01*
X43552445Y-6019499D01*
X43680500Y-6147554D01*
X43680505Y-6147558D01*
X43706028Y-6166101D01*
X43827006Y-6253996D01*
X43932484Y-6307740D01*
X43988360Y-6336211D01*
X43988363Y-6336212D01*
X44055145Y-6357910D01*
X44160591Y-6392171D01*
X44243429Y-6405291D01*
X44339449Y-6420500D01*
X44339454Y-6420500D01*
X44520551Y-6420500D01*
X44607259Y-6406765D01*
X44699409Y-6392171D01*
X44871639Y-6336211D01*
X45032994Y-6253996D01*
X45179501Y-6147553D01*
X45307553Y-6019501D01*
X45413996Y-5872994D01*
X45496211Y-5711639D01*
X45552171Y-5539409D01*
X45566422Y-5449425D01*
X45577527Y-5379321D01*
X45607456Y-5316186D01*
X45666768Y-5279255D01*
X45736630Y-5280253D01*
X45794863Y-5318863D01*
X45822473Y-5379321D01*
X45847829Y-5539410D01*
X45903787Y-5711636D01*
X45903788Y-5711639D01*
X45939910Y-5782530D01*
X45966988Y-5835674D01*
X45986006Y-5872997D01*
X46092441Y-6019494D01*
X46092445Y-6019499D01*
X46220500Y-6147554D01*
X46220505Y-6147558D01*
X46246028Y-6166101D01*
X46367006Y-6253996D01*
X46472484Y-6307740D01*
X46528360Y-6336211D01*
X46528363Y-6336212D01*
X46595145Y-6357910D01*
X46700591Y-6392171D01*
X46783429Y-6405291D01*
X46879449Y-6420500D01*
X46879454Y-6420500D01*
X47060551Y-6420500D01*
X47147259Y-6406765D01*
X47239409Y-6392171D01*
X47411639Y-6336211D01*
X47572994Y-6253996D01*
X47719501Y-6147553D01*
X47847553Y-6019501D01*
X47953996Y-5872994D01*
X48036211Y-5711639D01*
X48092171Y-5539409D01*
X48106422Y-5449425D01*
X48117527Y-5379321D01*
X48147456Y-5316186D01*
X48206768Y-5279255D01*
X48276630Y-5280253D01*
X48334863Y-5318863D01*
X48362473Y-5379321D01*
X48387829Y-5539410D01*
X48443787Y-5711636D01*
X48443788Y-5711639D01*
X48479910Y-5782530D01*
X48506988Y-5835674D01*
X48526006Y-5872997D01*
X48632441Y-6019494D01*
X48632445Y-6019499D01*
X48760500Y-6147554D01*
X48760505Y-6147558D01*
X48786028Y-6166101D01*
X48907006Y-6253996D01*
X49012484Y-6307740D01*
X49068360Y-6336211D01*
X49068363Y-6336212D01*
X49135145Y-6357910D01*
X49240591Y-6392171D01*
X49323429Y-6405291D01*
X49419449Y-6420500D01*
X49419454Y-6420500D01*
X49600551Y-6420500D01*
X49687259Y-6406765D01*
X49779409Y-6392171D01*
X49951639Y-6336211D01*
X50112994Y-6253996D01*
X50259501Y-6147553D01*
X50387553Y-6019501D01*
X50493996Y-5872994D01*
X50576211Y-5711639D01*
X50632171Y-5539409D01*
X50646422Y-5449425D01*
X50657527Y-5379321D01*
X50687456Y-5316186D01*
X50746768Y-5279255D01*
X50816630Y-5280253D01*
X50874863Y-5318863D01*
X50902473Y-5379321D01*
X50927829Y-5539410D01*
X50983787Y-5711636D01*
X50983788Y-5711639D01*
X51019910Y-5782530D01*
X51046988Y-5835674D01*
X51066006Y-5872997D01*
X51172441Y-6019494D01*
X51172445Y-6019499D01*
X51300500Y-6147554D01*
X51300505Y-6147558D01*
X51326028Y-6166101D01*
X51447006Y-6253996D01*
X51552484Y-6307740D01*
X51608360Y-6336211D01*
X51608363Y-6336212D01*
X51675145Y-6357910D01*
X51780591Y-6392171D01*
X51863429Y-6405291D01*
X51959449Y-6420500D01*
X51959454Y-6420500D01*
X52140551Y-6420500D01*
X52227259Y-6406765D01*
X52319409Y-6392171D01*
X52491639Y-6336211D01*
X52652994Y-6253996D01*
X52799501Y-6147553D01*
X52927553Y-6019501D01*
X53033996Y-5872994D01*
X53116211Y-5711639D01*
X53172171Y-5539409D01*
X53186422Y-5449425D01*
X53197527Y-5379321D01*
X53227456Y-5316186D01*
X53286768Y-5279255D01*
X53356630Y-5280253D01*
X53414863Y-5318863D01*
X53442473Y-5379321D01*
X53467829Y-5539410D01*
X53523787Y-5711636D01*
X53523788Y-5711639D01*
X53559910Y-5782530D01*
X53586988Y-5835674D01*
X53606006Y-5872997D01*
X53712441Y-6019494D01*
X53712445Y-6019499D01*
X53840500Y-6147554D01*
X53840505Y-6147558D01*
X53866028Y-6166101D01*
X53987006Y-6253996D01*
X54092484Y-6307740D01*
X54148360Y-6336211D01*
X54148363Y-6336212D01*
X54215145Y-6357910D01*
X54320591Y-6392171D01*
X54403429Y-6405291D01*
X54499449Y-6420500D01*
X54499454Y-6420500D01*
X54680551Y-6420500D01*
X54767259Y-6406765D01*
X54859409Y-6392171D01*
X55031639Y-6336211D01*
X55192994Y-6253996D01*
X55249990Y-6212586D01*
X55313973Y-6166101D01*
X55339495Y-6147558D01*
X55339497Y-6147555D01*
X55339501Y-6147553D01*
X55467553Y-6019501D01*
X55573996Y-5872994D01*
X55656211Y-5711639D01*
X55656705Y-5710119D01*
X55689759Y-5608388D01*
X55729196Y-5550712D01*
X55793554Y-5523513D01*
X55862401Y-5535427D01*
X55913877Y-5582671D01*
X55925621Y-5608386D01*
X55971581Y-5749837D01*
X56060905Y-5925145D01*
X56086319Y-5960125D01*
X56086320Y-5960125D01*
X56606202Y-5440243D01*
X56617470Y-5482297D01*
X56689881Y-5607715D01*
X56792285Y-5710119D01*
X56917703Y-5782530D01*
X56959754Y-5793797D01*
X56439873Y-6313677D01*
X56439873Y-6313678D01*
X56474858Y-6339096D01*
X56650164Y-6428418D01*
X56837294Y-6489221D01*
X57031618Y-6520000D01*
X57228382Y-6520000D01*
X57422705Y-6489221D01*
X57609835Y-6428418D01*
X57785143Y-6339095D01*
X57820125Y-6313678D01*
X57820126Y-6313678D01*
X57300245Y-5793797D01*
X57342297Y-5782530D01*
X57467715Y-5710119D01*
X57570119Y-5607715D01*
X57642530Y-5482297D01*
X57653797Y-5440245D01*
X58173678Y-5960126D01*
X58173678Y-5960125D01*
X58199095Y-5925143D01*
X58288418Y-5749835D01*
X58349221Y-5562705D01*
X58380000Y-5368382D01*
X58380000Y-5171617D01*
X58349221Y-4977294D01*
X58288418Y-4790164D01*
X58199096Y-4614858D01*
X58173678Y-4579873D01*
X58173677Y-4579873D01*
X57653797Y-5099754D01*
X57642530Y-5057703D01*
X57570119Y-4932285D01*
X57467715Y-4829881D01*
X57342297Y-4757470D01*
X57300244Y-4746202D01*
X57820125Y-4226320D01*
X57820125Y-4226319D01*
X57785145Y-4200905D01*
X57609837Y-4111581D01*
X57468386Y-4065621D01*
X57410711Y-4026183D01*
X57383513Y-3961824D01*
X57395428Y-3892978D01*
X57438977Y-3845528D01*
X59249500Y-3845528D01*
X59249500Y-4154471D01*
X59284086Y-4461437D01*
X59284089Y-4461455D01*
X59352831Y-4762635D01*
X59352835Y-4762647D01*
X59454862Y-5054222D01*
X59454868Y-5054236D01*
X59588903Y-5332562D01*
X59588905Y-5332565D01*
X59753265Y-5594143D01*
X59945880Y-5835674D01*
X60164326Y-6054120D01*
X60405857Y-6246735D01*
X60667435Y-6411095D01*
X60945771Y-6545135D01*
X60945777Y-6545137D01*
X61237352Y-6647164D01*
X61237364Y-6647168D01*
X61538548Y-6715911D01*
X61538554Y-6715911D01*
X61538562Y-6715913D01*
X61743206Y-6738970D01*
X61845529Y-6750499D01*
X61845532Y-6750500D01*
X61845535Y-6750500D01*
X62154468Y-6750500D01*
X62154469Y-6750499D01*
X62311356Y-6732822D01*
X62461437Y-6715913D01*
X62461442Y-6715912D01*
X62461452Y-6715911D01*
X62762636Y-6647168D01*
X63054229Y-6545135D01*
X63332565Y-6411095D01*
X63594143Y-6246735D01*
X63835674Y-6054120D01*
X64054120Y-5835674D01*
X64246735Y-5594143D01*
X64411095Y-5332565D01*
X64545135Y-5054229D01*
X64647168Y-4762636D01*
X64715911Y-4461452D01*
X64719538Y-4429266D01*
X64742404Y-4226319D01*
X64750500Y-4154465D01*
X64750500Y-3845535D01*
X64715911Y-3538548D01*
X64647168Y-3237364D01*
X64545135Y-2945771D01*
X64411095Y-2667435D01*
X64246735Y-2405857D01*
X64054120Y-2164326D01*
X63835674Y-1945880D01*
X63594143Y-1753265D01*
X63413485Y-1639750D01*
X63332562Y-1588903D01*
X63054236Y-1454868D01*
X63054222Y-1454862D01*
X62762647Y-1352835D01*
X62762635Y-1352831D01*
X62461455Y-1284089D01*
X62461437Y-1284086D01*
X62154471Y-1249500D01*
X62154465Y-1249500D01*
X61845535Y-1249500D01*
X61845528Y-1249500D01*
X61538562Y-1284086D01*
X61538544Y-1284089D01*
X61237364Y-1352831D01*
X61237352Y-1352835D01*
X60945777Y-1454862D01*
X60945763Y-1454868D01*
X60667437Y-1588903D01*
X60405858Y-1753264D01*
X60164326Y-1945879D01*
X59945879Y-2164326D01*
X59753264Y-2405858D01*
X59588903Y-2667437D01*
X59454868Y-2945763D01*
X59454862Y-2945777D01*
X59352835Y-3237352D01*
X59352831Y-3237364D01*
X59284089Y-3538544D01*
X59284086Y-3538562D01*
X59249500Y-3845528D01*
X57438977Y-3845528D01*
X57442672Y-3841502D01*
X57468388Y-3829759D01*
X57571633Y-3796213D01*
X57571639Y-3796211D01*
X57698501Y-3731571D01*
X57732994Y-3713996D01*
X57879501Y-3607553D01*
X58007553Y-3479501D01*
X58113996Y-3332994D01*
X58196211Y-3171639D01*
X58252171Y-2999409D01*
X58266765Y-2907259D01*
X58280500Y-2820551D01*
X58280500Y-2639448D01*
X58264019Y-2535397D01*
X58252171Y-2460591D01*
X58196211Y-2288361D01*
X58196211Y-2288360D01*
X58147187Y-2192147D01*
X58113996Y-2127006D01*
X58076109Y-2074859D01*
X58007558Y-1980505D01*
X58007554Y-1980500D01*
X57879499Y-1852445D01*
X57879494Y-1852441D01*
X57732997Y-1746006D01*
X57732996Y-1746005D01*
X57732994Y-1746004D01*
X57680498Y-1719256D01*
X57571639Y-1663788D01*
X57571636Y-1663787D01*
X57399410Y-1607829D01*
X57220551Y-1579500D01*
X57220546Y-1579500D01*
X57039454Y-1579500D01*
X57039449Y-1579500D01*
X56860589Y-1607829D01*
X56688363Y-1663787D01*
X56688360Y-1663788D01*
X56527002Y-1746006D01*
X56380505Y-1852441D01*
X56380500Y-1852445D01*
X56252445Y-1980500D01*
X56252441Y-1980505D01*
X56146006Y-2127002D01*
X56063788Y-2288360D01*
X56063787Y-2288363D01*
X56007829Y-2460589D01*
X55982473Y-2620678D01*
X55952544Y-2683813D01*
X55893232Y-2720744D01*
X55823369Y-2719746D01*
X55765137Y-2681136D01*
X55737527Y-2620678D01*
X55723740Y-2533639D01*
X55712171Y-2460591D01*
X55656211Y-2288361D01*
X55656211Y-2288360D01*
X55607187Y-2192147D01*
X55573996Y-2127006D01*
X55536109Y-2074859D01*
X55467558Y-1980505D01*
X55467554Y-1980500D01*
X55339499Y-1852445D01*
X55339494Y-1852441D01*
X55192997Y-1746006D01*
X55192996Y-1746005D01*
X55192994Y-1746004D01*
X55140498Y-1719256D01*
X55031639Y-1663788D01*
X55031636Y-1663787D01*
X54859410Y-1607829D01*
X54680551Y-1579500D01*
X54680546Y-1579500D01*
X54499454Y-1579500D01*
X54499449Y-1579500D01*
X54320589Y-1607829D01*
X54148363Y-1663787D01*
X54148360Y-1663788D01*
X53987002Y-1746006D01*
X53840505Y-1852441D01*
X53840500Y-1852445D01*
X53712445Y-1980500D01*
X53712441Y-1980505D01*
X53606006Y-2127002D01*
X53523788Y-2288360D01*
X53523787Y-2288363D01*
X53467829Y-2460589D01*
X53442473Y-2620678D01*
X53412544Y-2683813D01*
X53353232Y-2720744D01*
X53283369Y-2719746D01*
X53225137Y-2681136D01*
X53197527Y-2620678D01*
X53183740Y-2533639D01*
X53172171Y-2460591D01*
X53116211Y-2288361D01*
X53116211Y-2288360D01*
X53067187Y-2192147D01*
X53033996Y-2127006D01*
X52996109Y-2074859D01*
X52927558Y-1980505D01*
X52927554Y-1980500D01*
X52799499Y-1852445D01*
X52799494Y-1852441D01*
X52652997Y-1746006D01*
X52652996Y-1746005D01*
X52652994Y-1746004D01*
X52600498Y-1719256D01*
X52491639Y-1663788D01*
X52491636Y-1663787D01*
X52319410Y-1607829D01*
X52140551Y-1579500D01*
X52140546Y-1579500D01*
X51959454Y-1579500D01*
X51959449Y-1579500D01*
X51780589Y-1607829D01*
X51608363Y-1663787D01*
X51608360Y-1663788D01*
X51447002Y-1746006D01*
X51300505Y-1852441D01*
X51300500Y-1852445D01*
X51172445Y-1980500D01*
X51172441Y-1980505D01*
X51066006Y-2127002D01*
X50983788Y-2288360D01*
X50983787Y-2288363D01*
X50950240Y-2391612D01*
X50910802Y-2449288D01*
X50846444Y-2476486D01*
X50777597Y-2464571D01*
X50726122Y-2417327D01*
X50714378Y-2391612D01*
X50668418Y-2250164D01*
X50579096Y-2074858D01*
X50553678Y-2039873D01*
X50033797Y-2559754D01*
X50022530Y-2517703D01*
X49950119Y-2392285D01*
X49847715Y-2289881D01*
X49722297Y-2217470D01*
X49680244Y-2206202D01*
X50200125Y-1686320D01*
X50200125Y-1686319D01*
X50165145Y-1660905D01*
X49989835Y-1571581D01*
X49802705Y-1510778D01*
X49608382Y-1480000D01*
X49411618Y-1480000D01*
X49217294Y-1510778D01*
X49030161Y-1571582D01*
X48854863Y-1660899D01*
X48854859Y-1660902D01*
X48819873Y-1686320D01*
X48819872Y-1686320D01*
X49339755Y-2206202D01*
X49297703Y-2217470D01*
X49172285Y-2289881D01*
X49069881Y-2392285D01*
X48997470Y-2517703D01*
X48986202Y-2559755D01*
X48466320Y-2039872D01*
X48466320Y-2039873D01*
X48440902Y-2074859D01*
X48440899Y-2074863D01*
X48351582Y-2250159D01*
X48305621Y-2391613D01*
X48266183Y-2449288D01*
X48201824Y-2476486D01*
X48132978Y-2464571D01*
X48081502Y-2417327D01*
X48069759Y-2391611D01*
X48036213Y-2288366D01*
X48036211Y-2288360D01*
X47987187Y-2192147D01*
X47953996Y-2127006D01*
X47916109Y-2074859D01*
X47847558Y-1980505D01*
X47847554Y-1980500D01*
X47719501Y-1852447D01*
X47693970Y-1833898D01*
X47693968Y-1833895D01*
X47572997Y-1746006D01*
X47572996Y-1746005D01*
X47572994Y-1746004D01*
X47520498Y-1719256D01*
X47411639Y-1663788D01*
X47411636Y-1663787D01*
X47239410Y-1607829D01*
X47060551Y-1579500D01*
X47060546Y-1579500D01*
X46879454Y-1579500D01*
X46879449Y-1579500D01*
X46700589Y-1607829D01*
X46528363Y-1663787D01*
X46528360Y-1663788D01*
X46367002Y-1746006D01*
X46220505Y-1852441D01*
X46220500Y-1852445D01*
X46092445Y-1980500D01*
X46092441Y-1980505D01*
X45986006Y-2127002D01*
X45903788Y-2288360D01*
X45903787Y-2288363D01*
X45870240Y-2391612D01*
X45830802Y-2449288D01*
X45766444Y-2476486D01*
X45697597Y-2464571D01*
X45646122Y-2417327D01*
X45634378Y-2391612D01*
X45588418Y-2250164D01*
X45499096Y-2074858D01*
X45473678Y-2039873D01*
X45473677Y-2039873D01*
X44953797Y-2559754D01*
X44942530Y-2517703D01*
X44870119Y-2392285D01*
X44767715Y-2289881D01*
X44642297Y-2217470D01*
X44600244Y-2206202D01*
X45120125Y-1686320D01*
X45120125Y-1686319D01*
X45085145Y-1660905D01*
X44909835Y-1571581D01*
X44722705Y-1510778D01*
X44528382Y-1480000D01*
X44331618Y-1480000D01*
X44137294Y-1510778D01*
X43950161Y-1571582D01*
X43774863Y-1660899D01*
X43774859Y-1660902D01*
X43739873Y-1686320D01*
X43739872Y-1686320D01*
X44259755Y-2206202D01*
X44217703Y-2217470D01*
X44092285Y-2289881D01*
X43989881Y-2392285D01*
X43917470Y-2517703D01*
X43906202Y-2559755D01*
X43386320Y-2039872D01*
X43386320Y-2039873D01*
X43360902Y-2074859D01*
X43360899Y-2074863D01*
X43271582Y-2250159D01*
X43225621Y-2391613D01*
X43186183Y-2449288D01*
X43121824Y-2476486D01*
X43052978Y-2464571D01*
X43001502Y-2417327D01*
X42989759Y-2391611D01*
X42956213Y-2288366D01*
X42956211Y-2288360D01*
X42907187Y-2192147D01*
X42873996Y-2127006D01*
X42836109Y-2074859D01*
X42767558Y-1980505D01*
X42767554Y-1980500D01*
X42639501Y-1852447D01*
X42613970Y-1833898D01*
X42613968Y-1833895D01*
X42492997Y-1746006D01*
X42492996Y-1746005D01*
X42492994Y-1746004D01*
X42440498Y-1719256D01*
X42331639Y-1663788D01*
X42331636Y-1663787D01*
X42159410Y-1607829D01*
X41980551Y-1579500D01*
X41980546Y-1579500D01*
X41799454Y-1579500D01*
X41799449Y-1579500D01*
X41620589Y-1607829D01*
X41448363Y-1663787D01*
X41448360Y-1663788D01*
X41287002Y-1746006D01*
X41140505Y-1852441D01*
X41140500Y-1852445D01*
X41012445Y-1980500D01*
X41012441Y-1980505D01*
X40906006Y-2127002D01*
X40823788Y-2288360D01*
X40823787Y-2288363D01*
X40767829Y-2460589D01*
X40742473Y-2620678D01*
X40712544Y-2683813D01*
X40653232Y-2720744D01*
X40583369Y-2719746D01*
X40525137Y-2681136D01*
X40497527Y-2620678D01*
X40483740Y-2533639D01*
X40472171Y-2460591D01*
X40416211Y-2288361D01*
X40416211Y-2288360D01*
X40367187Y-2192147D01*
X40333996Y-2127006D01*
X40296109Y-2074859D01*
X40227558Y-1980505D01*
X40227554Y-1980500D01*
X40099499Y-1852445D01*
X40099494Y-1852441D01*
X39952997Y-1746006D01*
X39952996Y-1746005D01*
X39952994Y-1746004D01*
X39900498Y-1719256D01*
X39791639Y-1663788D01*
X39791636Y-1663787D01*
X39619410Y-1607829D01*
X39440551Y-1579500D01*
X39440546Y-1579500D01*
X39259454Y-1579500D01*
X39259449Y-1579500D01*
X39080589Y-1607829D01*
X38908363Y-1663787D01*
X38908360Y-1663788D01*
X38747002Y-1746006D01*
X38600505Y-1852441D01*
X38600500Y-1852445D01*
X38472445Y-1980500D01*
X38472441Y-1980505D01*
X38366006Y-2127002D01*
X38283788Y-2288360D01*
X38283787Y-2288363D01*
X38227829Y-2460589D01*
X38202473Y-2620678D01*
X38172544Y-2683813D01*
X38113232Y-2720744D01*
X38043369Y-2719746D01*
X37985137Y-2681136D01*
X37957527Y-2620678D01*
X37943740Y-2533639D01*
X37932171Y-2460591D01*
X37876211Y-2288361D01*
X37876211Y-2288360D01*
X37827187Y-2192147D01*
X37793996Y-2127006D01*
X37756109Y-2074859D01*
X37687558Y-1980505D01*
X37687554Y-1980500D01*
X37559499Y-1852445D01*
X37559494Y-1852441D01*
X37412997Y-1746006D01*
X37412996Y-1746005D01*
X37412994Y-1746004D01*
X37360498Y-1719256D01*
X37251639Y-1663788D01*
X37251636Y-1663787D01*
X37079410Y-1607829D01*
X36900551Y-1579500D01*
X36900546Y-1579500D01*
X36719454Y-1579500D01*
X36719449Y-1579500D01*
X36540589Y-1607829D01*
X36368363Y-1663787D01*
X36368360Y-1663788D01*
X36207002Y-1746006D01*
X36060505Y-1852441D01*
X36060500Y-1852445D01*
X35932445Y-1980500D01*
X35932441Y-1980505D01*
X35826006Y-2127002D01*
X35743788Y-2288360D01*
X35743787Y-2288363D01*
X35687829Y-2460589D01*
X35662473Y-2620678D01*
X35632544Y-2683813D01*
X35573232Y-2720744D01*
X35503369Y-2719746D01*
X35445137Y-2681136D01*
X35417527Y-2620678D01*
X35403740Y-2533639D01*
X35392171Y-2460591D01*
X35336211Y-2288361D01*
X35336211Y-2288360D01*
X35287187Y-2192147D01*
X35253996Y-2127006D01*
X35216109Y-2074859D01*
X35147558Y-1980505D01*
X35147554Y-1980500D01*
X35019499Y-1852445D01*
X35019494Y-1852441D01*
X34872997Y-1746006D01*
X34872996Y-1746005D01*
X34872994Y-1746004D01*
X34820498Y-1719256D01*
X34711639Y-1663788D01*
X34711636Y-1663787D01*
X34539410Y-1607829D01*
X34360551Y-1579500D01*
X34360546Y-1579500D01*
X34179454Y-1579500D01*
X34179449Y-1579500D01*
X34000589Y-1607829D01*
X33828363Y-1663787D01*
X33828360Y-1663788D01*
X33667002Y-1746006D01*
X33520505Y-1852441D01*
X33520500Y-1852445D01*
X33392445Y-1980500D01*
X33392441Y-1980505D01*
X33286006Y-2127002D01*
X33203788Y-2288360D01*
X33203787Y-2288363D01*
X33170240Y-2391612D01*
X33130802Y-2449288D01*
X33066444Y-2476486D01*
X32997597Y-2464571D01*
X32946122Y-2417327D01*
X32934378Y-2391612D01*
X32888418Y-2250164D01*
X32799096Y-2074858D01*
X32773678Y-2039873D01*
X32773677Y-2039873D01*
X32253797Y-2559754D01*
X32242530Y-2517703D01*
X32170119Y-2392285D01*
X32067715Y-2289881D01*
X31942297Y-2217470D01*
X31900244Y-2206202D01*
X32420125Y-1686320D01*
X32420125Y-1686319D01*
X32385145Y-1660905D01*
X32209835Y-1571581D01*
X32022705Y-1510778D01*
X31828382Y-1480000D01*
X31631618Y-1480000D01*
X31437294Y-1510778D01*
X31250161Y-1571582D01*
X31074863Y-1660899D01*
X31074859Y-1660902D01*
X31039873Y-1686320D01*
X31039872Y-1686320D01*
X31559755Y-2206202D01*
X31517703Y-2217470D01*
X31392285Y-2289881D01*
X31289881Y-2392285D01*
X31217470Y-2517703D01*
X31206202Y-2559755D01*
X30686320Y-2039872D01*
X30686320Y-2039873D01*
X30660902Y-2074859D01*
X30660899Y-2074863D01*
X30571582Y-2250159D01*
X30525621Y-2391613D01*
X30486183Y-2449288D01*
X30421824Y-2476486D01*
X30352978Y-2464571D01*
X30301502Y-2417327D01*
X30289759Y-2391611D01*
X30256213Y-2288366D01*
X30256211Y-2288360D01*
X30207187Y-2192147D01*
X30173996Y-2127006D01*
X30136109Y-2074859D01*
X30067558Y-1980505D01*
X30067554Y-1980500D01*
X29939501Y-1852447D01*
X29913970Y-1833898D01*
X29913968Y-1833895D01*
X29792997Y-1746006D01*
X29792996Y-1746005D01*
X29792994Y-1746004D01*
X29740498Y-1719256D01*
X29631639Y-1663788D01*
X29631636Y-1663787D01*
X29459410Y-1607829D01*
X29280551Y-1579500D01*
X29280546Y-1579500D01*
X29099454Y-1579500D01*
X29099449Y-1579500D01*
X28920589Y-1607829D01*
X28748363Y-1663787D01*
X28748360Y-1663788D01*
X28587002Y-1746006D01*
X28440505Y-1852441D01*
X28440500Y-1852445D01*
X28312445Y-1980500D01*
X28312441Y-1980505D01*
X28206006Y-2127002D01*
X28123788Y-2288360D01*
X28123787Y-2288363D01*
X28067829Y-2460589D01*
X28042473Y-2620678D01*
X28012544Y-2683813D01*
X27953232Y-2720744D01*
X27883369Y-2719746D01*
X27825137Y-2681136D01*
X27797527Y-2620678D01*
X27783740Y-2533639D01*
X27772171Y-2460591D01*
X27716211Y-2288361D01*
X27716211Y-2288360D01*
X27667187Y-2192147D01*
X27633996Y-2127006D01*
X27596109Y-2074859D01*
X27527558Y-1980505D01*
X27527554Y-1980500D01*
X27399499Y-1852445D01*
X27399494Y-1852441D01*
X27252997Y-1746006D01*
X27252996Y-1746005D01*
X27252994Y-1746004D01*
X27200498Y-1719256D01*
X27091639Y-1663788D01*
X27091636Y-1663787D01*
X26919410Y-1607829D01*
X26740551Y-1579500D01*
X26740546Y-1579500D01*
X26559454Y-1579500D01*
X26559449Y-1579500D01*
X26380589Y-1607829D01*
X26208363Y-1663787D01*
X26208360Y-1663788D01*
X26047002Y-1746006D01*
X25900505Y-1852441D01*
X25900500Y-1852445D01*
X25772445Y-1980500D01*
X25772441Y-1980505D01*
X25666006Y-2127002D01*
X25583788Y-2288360D01*
X25583787Y-2288363D01*
X25550240Y-2391612D01*
X25510802Y-2449288D01*
X25446444Y-2476486D01*
X25377597Y-2464571D01*
X25326122Y-2417327D01*
X25314378Y-2391612D01*
X25268418Y-2250164D01*
X25179096Y-2074858D01*
X25153678Y-2039873D01*
X25153677Y-2039873D01*
X24633797Y-2559754D01*
X24622530Y-2517703D01*
X24550119Y-2392285D01*
X24447715Y-2289881D01*
X24322297Y-2217470D01*
X24280244Y-2206202D01*
X24800125Y-1686320D01*
X24800125Y-1686319D01*
X24765145Y-1660905D01*
X24589835Y-1571581D01*
X24402705Y-1510778D01*
X24208382Y-1480000D01*
X24011618Y-1480000D01*
X23817294Y-1510778D01*
X23630161Y-1571582D01*
X23454863Y-1660899D01*
X23454859Y-1660902D01*
X23419873Y-1686320D01*
X23419872Y-1686320D01*
X23939755Y-2206202D01*
X23897703Y-2217470D01*
X23772285Y-2289881D01*
X23669881Y-2392285D01*
X23597470Y-2517703D01*
X23586202Y-2559755D01*
X23066320Y-2039872D01*
X23066320Y-2039873D01*
X23040902Y-2074859D01*
X23040899Y-2074863D01*
X22951582Y-2250159D01*
X22905621Y-2391613D01*
X22866183Y-2449288D01*
X22801824Y-2476486D01*
X22732978Y-2464571D01*
X22681502Y-2417327D01*
X22669759Y-2391611D01*
X22636213Y-2288366D01*
X22636211Y-2288360D01*
X22587187Y-2192147D01*
X22553996Y-2127006D01*
X22516109Y-2074859D01*
X22447558Y-1980505D01*
X22447554Y-1980500D01*
X22319501Y-1852447D01*
X22293970Y-1833898D01*
X22293968Y-1833895D01*
X22172997Y-1746006D01*
X22172996Y-1746005D01*
X22172994Y-1746004D01*
X22120498Y-1719256D01*
X22011639Y-1663788D01*
X22011636Y-1663787D01*
X21839410Y-1607829D01*
X21660551Y-1579500D01*
X21660546Y-1579500D01*
X21479454Y-1579500D01*
X21479449Y-1579500D01*
X21300589Y-1607829D01*
X21128363Y-1663787D01*
X21128360Y-1663788D01*
X20967002Y-1746006D01*
X20820505Y-1852441D01*
X20820500Y-1852445D01*
X20692445Y-1980500D01*
X20692441Y-1980505D01*
X20586006Y-2127002D01*
X20503788Y-2288360D01*
X20503787Y-2288363D01*
X20447829Y-2460589D01*
X20422473Y-2620678D01*
X20392544Y-2683813D01*
X20333232Y-2720744D01*
X20263369Y-2719746D01*
X20205137Y-2681136D01*
X20177527Y-2620678D01*
X20163740Y-2533639D01*
X20152171Y-2460591D01*
X20096211Y-2288361D01*
X20096211Y-2288360D01*
X20047187Y-2192147D01*
X20013996Y-2127006D01*
X19976109Y-2074859D01*
X19907558Y-1980505D01*
X19907554Y-1980500D01*
X19779499Y-1852445D01*
X19779494Y-1852441D01*
X19632997Y-1746006D01*
X19632996Y-1746005D01*
X19632994Y-1746004D01*
X19580498Y-1719256D01*
X19471639Y-1663788D01*
X19471636Y-1663787D01*
X19299410Y-1607829D01*
X19120551Y-1579500D01*
X19120546Y-1579500D01*
X18939454Y-1579500D01*
X18939449Y-1579500D01*
X18760589Y-1607829D01*
X18588363Y-1663787D01*
X18588360Y-1663788D01*
X18427002Y-1746006D01*
X18280505Y-1852441D01*
X18280500Y-1852445D01*
X18152445Y-1980500D01*
X18152441Y-1980505D01*
X18046006Y-2127002D01*
X17963788Y-2288360D01*
X17963787Y-2288363D01*
X17907829Y-2460589D01*
X17882473Y-2620678D01*
X17852544Y-2683813D01*
X17793232Y-2720744D01*
X17723369Y-2719746D01*
X17665137Y-2681136D01*
X17637527Y-2620678D01*
X17623740Y-2533639D01*
X17612171Y-2460591D01*
X17556211Y-2288361D01*
X17556211Y-2288360D01*
X17507187Y-2192147D01*
X17473996Y-2127006D01*
X17436109Y-2074859D01*
X17367558Y-1980505D01*
X17367554Y-1980500D01*
X17239499Y-1852445D01*
X17239494Y-1852441D01*
X17092997Y-1746006D01*
X17092996Y-1746005D01*
X17092994Y-1746004D01*
X17040498Y-1719256D01*
X16931639Y-1663788D01*
X16931636Y-1663787D01*
X16759410Y-1607829D01*
X16580551Y-1579500D01*
X16580546Y-1579500D01*
X16399454Y-1579500D01*
X16399449Y-1579500D01*
X16220589Y-1607829D01*
X16048363Y-1663787D01*
X16048360Y-1663788D01*
X15887002Y-1746006D01*
X15740505Y-1852441D01*
X15740500Y-1852445D01*
X15612445Y-1980500D01*
X15612441Y-1980505D01*
X15506006Y-2127002D01*
X15423788Y-2288360D01*
X15423787Y-2288363D01*
X15390240Y-2391612D01*
X15350802Y-2449288D01*
X15286444Y-2476486D01*
X15217597Y-2464571D01*
X15166122Y-2417327D01*
X15154378Y-2391612D01*
X15108418Y-2250164D01*
X15019096Y-2074858D01*
X14993678Y-2039873D01*
X14993677Y-2039873D01*
X14473797Y-2559754D01*
X14462530Y-2517703D01*
X14390119Y-2392285D01*
X14287715Y-2289881D01*
X14162297Y-2217470D01*
X14120244Y-2206202D01*
X14640125Y-1686320D01*
X14640125Y-1686319D01*
X14605145Y-1660905D01*
X14429835Y-1571581D01*
X14242705Y-1510778D01*
X14048382Y-1480000D01*
X13851618Y-1480000D01*
X13657294Y-1510778D01*
X13470161Y-1571582D01*
X13294863Y-1660899D01*
X13294859Y-1660902D01*
X13259873Y-1686320D01*
X13259872Y-1686320D01*
X13779755Y-2206202D01*
X13737703Y-2217470D01*
X13612285Y-2289881D01*
X13509881Y-2392285D01*
X13437470Y-2517703D01*
X13426202Y-2559755D01*
X12906320Y-2039872D01*
X12906320Y-2039873D01*
X12880902Y-2074859D01*
X12880899Y-2074863D01*
X12791582Y-2250159D01*
X12745621Y-2391613D01*
X12706183Y-2449288D01*
X12641824Y-2476486D01*
X12572978Y-2464571D01*
X12521502Y-2417327D01*
X12509759Y-2391611D01*
X12476213Y-2288366D01*
X12476211Y-2288360D01*
X12427187Y-2192147D01*
X12393996Y-2127006D01*
X12356109Y-2074859D01*
X12287558Y-1980505D01*
X12287554Y-1980500D01*
X12159501Y-1852447D01*
X12133970Y-1833898D01*
X12133970Y-1833897D01*
X12011615Y-1745001D01*
X11968949Y-1689671D01*
X11960500Y-1644683D01*
X11960500Y-1427527D01*
X11960500Y-1427525D01*
X11922984Y-1287515D01*
X11921004Y-1284086D01*
X11850511Y-1161988D01*
X11850506Y-1161982D01*
X11748017Y-1059493D01*
X11748011Y-1059488D01*
X11622488Y-987017D01*
X11622489Y-987017D01*
X11611006Y-983940D01*
X11482475Y-949500D01*
X11482472Y-949500D01*
X9344600Y-949500D01*
X9277561Y-929815D01*
X9275709Y-928602D01*
X9201816Y-879228D01*
X9201804Y-879221D01*
X9074332Y-826421D01*
X9074322Y-826418D01*
X8938995Y-799500D01*
X8938993Y-799500D01*
X7268993Y-799500D01*
X7131007Y-799500D01*
X7131005Y-799500D01*
X6995677Y-826418D01*
X6995667Y-826421D01*
X6868195Y-879221D01*
X6868182Y-879228D01*
X6753458Y-955885D01*
X6753454Y-955888D01*
X6655888Y-1053454D01*
X6655885Y-1053458D01*
X6579228Y-1168182D01*
X6579221Y-1168195D01*
X6526421Y-1295667D01*
X6526418Y-1295677D01*
X6499500Y-1431004D01*
X6499500Y-2377716D01*
X6479815Y-2444755D01*
X6427011Y-2490510D01*
X6357853Y-2500454D01*
X6294297Y-2471429D01*
X6270506Y-2443688D01*
X6253942Y-2417327D01*
X6246735Y-2405857D01*
X6054120Y-2164326D01*
X5835674Y-1945880D01*
X5594143Y-1753265D01*
X5413485Y-1639750D01*
X5332562Y-1588903D01*
X5054236Y-1454868D01*
X5054222Y-1454862D01*
X4762647Y-1352835D01*
X4762635Y-1352831D01*
X4461455Y-1284089D01*
X4461437Y-1284086D01*
X4154471Y-1249500D01*
X4154465Y-1249500D01*
X3845535Y-1249500D01*
X3845528Y-1249500D01*
X3538562Y-1284086D01*
X3538544Y-1284089D01*
X3237364Y-1352831D01*
X3237352Y-1352835D01*
X2945777Y-1454862D01*
X2945763Y-1454868D01*
X2667437Y-1588903D01*
X2405858Y-1753264D01*
X2164326Y-1945879D01*
X1945879Y-2164326D01*
X1753264Y-2405858D01*
X1588903Y-2667437D01*
X1454868Y-2945763D01*
X1454862Y-2945777D01*
X1352835Y-3237352D01*
X1352831Y-3237364D01*
X1284089Y-3538544D01*
X1284086Y-3538562D01*
X1249500Y-3845528D01*
X500000Y-3845528D01*
X500000Y-624000D01*
X519685Y-556961D01*
X572489Y-511206D01*
X624000Y-500000D01*
X65376000Y-500000D01*
X65443039Y-519685D01*
G37*
%TD.AperFunction*%
%TA.AperFunction,Conductor*%
G36*
X27293834Y-49010427D02*
G01*
X27349767Y-49052299D01*
X27374184Y-49117763D01*
X27374500Y-49126609D01*
X27374500Y-58750500D01*
X27354815Y-58817539D01*
X27302011Y-58863294D01*
X27250500Y-58874500D01*
X3049500Y-58874500D01*
X2982461Y-58854815D01*
X2936706Y-58802011D01*
X2925500Y-58750500D01*
X2925500Y-56222149D01*
X3439500Y-56222149D01*
X3439500Y-56477850D01*
X3465457Y-56675007D01*
X3472874Y-56731340D01*
X3539050Y-56978312D01*
X3539053Y-56978322D01*
X3636894Y-57214531D01*
X3636899Y-57214542D01*
X3764734Y-57435957D01*
X3764745Y-57435973D01*
X3920388Y-57638811D01*
X3920394Y-57638818D01*
X4101181Y-57819605D01*
X4101187Y-57819610D01*
X4304035Y-57975261D01*
X4304042Y-57975265D01*
X4525457Y-58103100D01*
X4525462Y-58103102D01*
X4525465Y-58103104D01*
X4761687Y-58200950D01*
X5008660Y-58267126D01*
X5262157Y-58300500D01*
X5262164Y-58300500D01*
X5517836Y-58300500D01*
X5517843Y-58300500D01*
X5771340Y-58267126D01*
X6018313Y-58200950D01*
X6254535Y-58103104D01*
X6475965Y-57975261D01*
X6678813Y-57819610D01*
X6859610Y-57638813D01*
X7015261Y-57435965D01*
X7143104Y-57214535D01*
X7240950Y-56978313D01*
X7307126Y-56731340D01*
X7340500Y-56477843D01*
X7340500Y-56222157D01*
X7307126Y-55968660D01*
X7240950Y-55721687D01*
X7143104Y-55485465D01*
X7143102Y-55485462D01*
X7143100Y-55485457D01*
X7015265Y-55264042D01*
X7015261Y-55264035D01*
X6859610Y-55061187D01*
X6859605Y-55061181D01*
X6678818Y-54880394D01*
X6678811Y-54880388D01*
X6475973Y-54724745D01*
X6475971Y-54724743D01*
X6475965Y-54724739D01*
X6475960Y-54724736D01*
X6475957Y-54724734D01*
X6254542Y-54596899D01*
X6254531Y-54596894D01*
X6018322Y-54499053D01*
X6018315Y-54499051D01*
X6018313Y-54499050D01*
X5771340Y-54432874D01*
X5715007Y-54425457D01*
X5517850Y-54399500D01*
X5517843Y-54399500D01*
X5262157Y-54399500D01*
X5262149Y-54399500D01*
X5036826Y-54429165D01*
X5008660Y-54432874D01*
X4761687Y-54499050D01*
X4761677Y-54499053D01*
X4525468Y-54596894D01*
X4525457Y-54596899D01*
X4304042Y-54724734D01*
X4304026Y-54724745D01*
X4101188Y-54880388D01*
X4101181Y-54880394D01*
X3920394Y-55061181D01*
X3920388Y-55061188D01*
X3764745Y-55264026D01*
X3764734Y-55264042D01*
X3636899Y-55485457D01*
X3636894Y-55485468D01*
X3539053Y-55721677D01*
X3539050Y-55721687D01*
X3472874Y-55968661D01*
X3439500Y-56222149D01*
X2925500Y-56222149D01*
X2925500Y-52079500D01*
X2945185Y-52012461D01*
X2997989Y-51966706D01*
X3049500Y-51955500D01*
X6873352Y-51955500D01*
X6940391Y-51975185D01*
X6986146Y-52027989D01*
X6987912Y-52032044D01*
X6988423Y-52033279D01*
X6988428Y-52033288D01*
X7104701Y-52207304D01*
X7252695Y-52355298D01*
X7389785Y-52446898D01*
X7434590Y-52500510D01*
X7443297Y-52569835D01*
X7413143Y-52632862D01*
X7389785Y-52653102D01*
X7252695Y-52744701D01*
X7104703Y-52892693D01*
X6988423Y-53066719D01*
X6908331Y-53260079D01*
X6908329Y-53260087D01*
X6867500Y-53465348D01*
X6867500Y-53674651D01*
X6908329Y-53879912D01*
X6908331Y-53879920D01*
X6988423Y-54073280D01*
X7104703Y-54247306D01*
X7252693Y-54395296D01*
X7426719Y-54511576D01*
X7523399Y-54551622D01*
X7620080Y-54591669D01*
X7825348Y-54632499D01*
X7825352Y-54632500D01*
X7825353Y-54632500D01*
X8034648Y-54632500D01*
X8034649Y-54632499D01*
X8239920Y-54591669D01*
X8433282Y-54511575D01*
X8607304Y-54395298D01*
X8755298Y-54247304D01*
X8871575Y-54073282D01*
X8951669Y-53879920D01*
X8992500Y-53674647D01*
X8992500Y-53580426D01*
X9012185Y-53513387D01*
X9064989Y-53467632D01*
X9134147Y-53457688D01*
X9185388Y-53477323D01*
X9206718Y-53491575D01*
X9400080Y-53571669D01*
X9605348Y-53612499D01*
X9605352Y-53612500D01*
X9605353Y-53612500D01*
X9814648Y-53612500D01*
X9814649Y-53612499D01*
X10019920Y-53571669D01*
X10213282Y-53491575D01*
X10387304Y-53375298D01*
X10535298Y-53227304D01*
X10651575Y-53053282D01*
X10731669Y-52859920D01*
X10772500Y-52654647D01*
X10772500Y-52445353D01*
X10731669Y-52240080D01*
X10665154Y-52079500D01*
X10651576Y-52046719D01*
X10535296Y-51872693D01*
X10387306Y-51724703D01*
X10250215Y-51633103D01*
X10205409Y-51579491D01*
X10196702Y-51510166D01*
X10226856Y-51447138D01*
X10250215Y-51426897D01*
X10252526Y-51425353D01*
X10387304Y-51335298D01*
X10535298Y-51187304D01*
X10651575Y-51013282D01*
X10652088Y-51012044D01*
X10652528Y-51011496D01*
X10654445Y-51007912D01*
X10655125Y-51008275D01*
X10695931Y-50957642D01*
X10762226Y-50935579D01*
X10766648Y-50935500D01*
X25469458Y-50935500D01*
X25536497Y-50955185D01*
X25575224Y-50997156D01*
X25575840Y-50996746D01*
X25578450Y-51000652D01*
X25578818Y-51001051D01*
X25579223Y-51001809D01*
X25655885Y-51116541D01*
X25655888Y-51116545D01*
X25753454Y-51214111D01*
X25753458Y-51214114D01*
X25868182Y-51290771D01*
X25868195Y-51290778D01*
X25975677Y-51335298D01*
X25995672Y-51343580D01*
X25995676Y-51343580D01*
X25995677Y-51343581D01*
X26131004Y-51370500D01*
X26131007Y-51370500D01*
X26268995Y-51370500D01*
X26360041Y-51352389D01*
X26404328Y-51343580D01*
X26531811Y-51290775D01*
X26646542Y-51214114D01*
X26744114Y-51116542D01*
X26820775Y-51001811D01*
X26873580Y-50874328D01*
X26882389Y-50830041D01*
X26900500Y-50738995D01*
X26900500Y-50601004D01*
X26873581Y-50465677D01*
X26873580Y-50465676D01*
X26873580Y-50465672D01*
X26848595Y-50405353D01*
X26820778Y-50338195D01*
X26820771Y-50338182D01*
X26744114Y-50223458D01*
X26744111Y-50223454D01*
X26643338Y-50122681D01*
X26609853Y-50061358D01*
X26614837Y-49991666D01*
X26643338Y-49947319D01*
X26744111Y-49846545D01*
X26744114Y-49846542D01*
X26820775Y-49731811D01*
X26873580Y-49604328D01*
X26886477Y-49539491D01*
X26900500Y-49468995D01*
X26900500Y-49352609D01*
X26920185Y-49285570D01*
X26936819Y-49264928D01*
X27083984Y-49117763D01*
X27162820Y-49038927D01*
X27224142Y-49005443D01*
X27293834Y-49010427D01*
G37*
%TD.AperFunction*%
%TA.AperFunction,Conductor*%
G36*
X26517539Y-41145185D02*
G01*
X26563294Y-41197989D01*
X26574500Y-41249500D01*
X26574500Y-46071328D01*
X26554815Y-46138367D01*
X26502011Y-46184122D01*
X26432853Y-46194066D01*
X26410252Y-46187867D01*
X26410155Y-46188188D01*
X26404322Y-46186418D01*
X26268995Y-46159500D01*
X26268993Y-46159500D01*
X26131007Y-46159500D01*
X26131005Y-46159500D01*
X25995677Y-46186418D01*
X25995667Y-46186421D01*
X25868195Y-46239221D01*
X25868182Y-46239228D01*
X25753458Y-46315885D01*
X25753454Y-46315888D01*
X25655888Y-46413454D01*
X25655885Y-46413458D01*
X25579228Y-46528182D01*
X25579221Y-46528195D01*
X25526421Y-46655667D01*
X25526418Y-46655677D01*
X25499500Y-46791004D01*
X25499500Y-46910108D01*
X25479815Y-46977147D01*
X25463454Y-46997516D01*
X24846830Y-47617995D01*
X24499044Y-47967956D01*
X24459340Y-48007908D01*
X24398122Y-48041583D01*
X24371386Y-48044500D01*
X10766648Y-48044500D01*
X10699609Y-48024815D01*
X10653854Y-47972011D01*
X10652088Y-47967956D01*
X10651576Y-47966720D01*
X10651571Y-47966711D01*
X10535298Y-47792695D01*
X10387306Y-47644703D01*
X10250215Y-47553103D01*
X10205409Y-47499491D01*
X10196702Y-47430166D01*
X10226856Y-47367138D01*
X10250215Y-47346897D01*
X10252526Y-47345353D01*
X10387304Y-47255298D01*
X10535298Y-47107304D01*
X10651575Y-46933282D01*
X10731669Y-46739920D01*
X10772500Y-46534647D01*
X10772500Y-46325353D01*
X10731669Y-46120080D01*
X10691622Y-46023399D01*
X10651576Y-45926719D01*
X10535296Y-45752693D01*
X10387306Y-45604703D01*
X10213280Y-45488423D01*
X10019920Y-45408331D01*
X10019912Y-45408329D01*
X9814651Y-45367500D01*
X9814647Y-45367500D01*
X9605353Y-45367500D01*
X9605348Y-45367500D01*
X9400087Y-45408329D01*
X9400079Y-45408331D01*
X9206719Y-45488423D01*
X9032693Y-45604703D01*
X8884703Y-45752693D01*
X8768423Y-45926719D01*
X8688331Y-46120079D01*
X8688329Y-46120087D01*
X8647500Y-46325348D01*
X8647500Y-46419573D01*
X8627815Y-46486612D01*
X8575011Y-46532367D01*
X8505853Y-46542311D01*
X8454610Y-46522676D01*
X8433282Y-46508425D01*
X8433277Y-46508423D01*
X8239920Y-46428331D01*
X8239912Y-46428329D01*
X8034651Y-46387500D01*
X8034647Y-46387500D01*
X7825353Y-46387500D01*
X7825348Y-46387500D01*
X7620087Y-46428329D01*
X7620079Y-46428331D01*
X7426719Y-46508423D01*
X7252693Y-46624703D01*
X7104701Y-46772695D01*
X6988428Y-46946711D01*
X6988423Y-46946720D01*
X6987912Y-46947956D01*
X6987471Y-46948503D01*
X6985555Y-46952088D01*
X6984874Y-46951724D01*
X6944069Y-47002358D01*
X6877774Y-47024421D01*
X6873352Y-47024500D01*
X2349500Y-47024500D01*
X2282461Y-47004815D01*
X2236706Y-46952011D01*
X2225500Y-46900500D01*
X2225500Y-41749500D01*
X2245185Y-41682461D01*
X2297989Y-41636706D01*
X2349500Y-41625500D01*
X4557282Y-41625500D01*
X4624321Y-41645185D01*
X4670076Y-41697989D01*
X4680020Y-41767147D01*
X4650995Y-41830703D01*
X4604735Y-41864061D01*
X4525468Y-41896894D01*
X4525457Y-41896899D01*
X4304042Y-42024734D01*
X4304026Y-42024745D01*
X4101188Y-42180388D01*
X4101181Y-42180394D01*
X3920394Y-42361181D01*
X3920388Y-42361188D01*
X3764745Y-42564026D01*
X3764734Y-42564042D01*
X3636899Y-42785457D01*
X3636894Y-42785468D01*
X3539053Y-43021677D01*
X3539050Y-43021687D01*
X3472874Y-43268661D01*
X3439500Y-43522149D01*
X3439500Y-43777850D01*
X3452088Y-43873458D01*
X3472874Y-44031340D01*
X3539050Y-44278312D01*
X3539053Y-44278322D01*
X3636894Y-44514531D01*
X3636899Y-44514542D01*
X3764734Y-44735957D01*
X3764745Y-44735973D01*
X3920388Y-44938811D01*
X3920394Y-44938818D01*
X4101181Y-45119605D01*
X4101187Y-45119610D01*
X4304035Y-45275261D01*
X4304042Y-45275265D01*
X4525457Y-45403100D01*
X4525462Y-45403102D01*
X4525465Y-45403104D01*
X4761687Y-45500950D01*
X5008660Y-45567126D01*
X5262157Y-45600500D01*
X5262164Y-45600500D01*
X5517836Y-45600500D01*
X5517843Y-45600500D01*
X5771340Y-45567126D01*
X6018313Y-45500950D01*
X6254535Y-45403104D01*
X6475965Y-45275261D01*
X6678813Y-45119610D01*
X6859610Y-44938813D01*
X7015261Y-44735965D01*
X7143104Y-44514535D01*
X7240950Y-44278313D01*
X7307126Y-44031340D01*
X7340500Y-43777843D01*
X7340500Y-43522157D01*
X7307126Y-43268660D01*
X7240950Y-43021687D01*
X7143104Y-42785465D01*
X7143102Y-42785462D01*
X7143100Y-42785457D01*
X7015265Y-42564042D01*
X7015261Y-42564035D01*
X6859610Y-42361187D01*
X6859605Y-42361181D01*
X6678818Y-42180394D01*
X6678811Y-42180388D01*
X6475973Y-42024745D01*
X6475971Y-42024743D01*
X6475965Y-42024739D01*
X6475960Y-42024736D01*
X6475957Y-42024734D01*
X6254542Y-41896899D01*
X6254531Y-41896894D01*
X6175265Y-41864061D01*
X6120862Y-41820220D01*
X6098797Y-41753926D01*
X6116076Y-41686227D01*
X6167213Y-41638616D01*
X6222718Y-41625500D01*
X22150500Y-41625500D01*
X22217539Y-41645185D01*
X22263294Y-41697989D01*
X22274500Y-41749500D01*
X22274500Y-43703481D01*
X22254815Y-43770520D01*
X22238181Y-43791162D01*
X22155888Y-43873454D01*
X22155885Y-43873458D01*
X22079228Y-43988182D01*
X22079221Y-43988195D01*
X22026421Y-44115667D01*
X22026418Y-44115677D01*
X21999500Y-44251004D01*
X21999500Y-44251007D01*
X21999500Y-44388993D01*
X21999500Y-44388995D01*
X21999499Y-44388995D01*
X22026418Y-44524322D01*
X22026421Y-44524332D01*
X22079221Y-44651804D01*
X22079228Y-44651817D01*
X22155885Y-44766541D01*
X22155888Y-44766545D01*
X22253454Y-44864111D01*
X22253458Y-44864114D01*
X22368182Y-44940771D01*
X22368195Y-44940778D01*
X22466165Y-44981358D01*
X22495672Y-44993580D01*
X22495676Y-44993580D01*
X22495677Y-44993581D01*
X22631004Y-45020500D01*
X22631007Y-45020500D01*
X22768995Y-45020500D01*
X22883374Y-44997748D01*
X22904328Y-44993580D01*
X23031811Y-44940775D01*
X23146542Y-44864114D01*
X23244114Y-44766542D01*
X23320775Y-44651811D01*
X23373580Y-44524328D01*
X23400500Y-44388993D01*
X23400500Y-44251007D01*
X23400500Y-44251004D01*
X23373581Y-44115677D01*
X23373580Y-44115676D01*
X23373580Y-44115672D01*
X23338648Y-44031338D01*
X23320778Y-43988195D01*
X23320771Y-43988182D01*
X23244114Y-43873458D01*
X23244111Y-43873454D01*
X23161819Y-43791162D01*
X23128334Y-43729839D01*
X23125500Y-43703481D01*
X23125500Y-41249500D01*
X23145185Y-41182461D01*
X23197989Y-41136706D01*
X23249500Y-41125500D01*
X26450500Y-41125500D01*
X26517539Y-41145185D01*
G37*
%TD.AperFunction*%
%TD*%
M02*
