%TF.GenerationSoftware,KiCad,Pcbnew,10.0.6*%
%TF.CreationDate,2026-09-19T16:50:13-05:00*%
%TF.ProjectId,difftx,64696666-7478-42e6-9b69-6361645f7063,rev?*%
%TF.SameCoordinates,Original*%
%TF.FileFunction,Drillmap*%
%TF.FilePolarity,Positive*%
%FSLAX45Y45*%
G04 Gerber Fmt 4.5, Leading zero omitted, Abs format (unit mm)*
G04 Created by KiCad (PCBNEW 10.0.6) date 2026-09-19 16:50:13*
%MOMM*%
%LPD*%
G01*
G04 APERTURE LIST*
%ADD10C,0.100000*%
%ADD11C,0.200000*%
%ADD12C,0.110002*%
%ADD13C,0.139999*%
%ADD14C,0.270000*%
%ADD15C,0.320000*%
%ADD16C,0.340000*%
G04 APERTURE END LIST*
D10*
X0Y0D02*
X6600000Y0D01*
X0Y-6600000D02*
X0Y0D01*
X6600000Y0D02*
X6600000Y-6600000D01*
X6600000Y-6600000D02*
X0Y-6600000D01*
D11*
D10*
X980000Y-2980000D02*
X1020000Y-3020000D01*
X1020000Y-2980000D02*
X980000Y-3020000D01*
X1180000Y-6180000D02*
X1220000Y-6220000D01*
X1220000Y-6180000D02*
X1180000Y-6220000D01*
X1480000Y-4280000D02*
X1520000Y-4320000D01*
X1520000Y-4280000D02*
X1480000Y-4320000D01*
X1580000Y-2370000D02*
X1620000Y-2410000D01*
X1620000Y-2370000D02*
X1580000Y-2410000D01*
X1580000Y-2800000D02*
X1620000Y-2840000D01*
X1620000Y-2800000D02*
X1580000Y-2840000D01*
X1870000Y-2134000D02*
X1910000Y-2174000D01*
X1910000Y-2134000D02*
X1870000Y-2174000D01*
X1880000Y-1880000D02*
X1920000Y-1920000D01*
X1920000Y-1880000D02*
X1880000Y-1920000D01*
X1980000Y-2760000D02*
X2020000Y-2800000D01*
X2020000Y-2760000D02*
X1980000Y-2800000D01*
X1980000Y-3850000D02*
X2020000Y-3890000D01*
X2020000Y-3850000D02*
X1980000Y-3890000D01*
X1980000Y-4330000D02*
X2020000Y-4370000D01*
X2020000Y-4330000D02*
X1980000Y-4370000D01*
X2240000Y-3230000D02*
X2280000Y-3270000D01*
X2280000Y-3230000D02*
X2240000Y-3270000D01*
X2250000Y-4412000D02*
X2290000Y-4452000D01*
X2290000Y-4412000D02*
X2250000Y-4452000D01*
X2270000Y-4666000D02*
X2310000Y-4706000D01*
X2310000Y-4666000D02*
X2270000Y-4706000D01*
X2480000Y-3750000D02*
X2520000Y-3790000D01*
X2520000Y-3750000D02*
X2480000Y-3790000D01*
X2480000Y-5580000D02*
X2520000Y-5620000D01*
X2520000Y-5580000D02*
X2480000Y-5620000D01*
X2500000Y-2410000D02*
X2540000Y-2450000D01*
X2540000Y-2410000D02*
X2500000Y-2450000D01*
X2600000Y-4666000D02*
X2640000Y-4706000D01*
X2640000Y-4666000D02*
X2600000Y-4706000D01*
X2600000Y-4920000D02*
X2640000Y-4960000D01*
X2640000Y-4920000D02*
X2600000Y-4960000D01*
X2600000Y-5047000D02*
X2640000Y-5087000D01*
X2640000Y-5047000D02*
X2600000Y-5087000D01*
X2600000Y-5174000D02*
X2640000Y-5214000D01*
X2640000Y-5174000D02*
X2600000Y-5214000D01*
X2760000Y-4412000D02*
X2800000Y-4452000D01*
X2800000Y-4412000D02*
X2760000Y-4452000D01*
X2760000Y-4539000D02*
X2800000Y-4579000D01*
X2800000Y-4539000D02*
X2760000Y-4579000D01*
X3120000Y-4793000D02*
X3160000Y-4833000D01*
X3160000Y-4793000D02*
X3120000Y-4833000D01*
X3280000Y-980000D02*
X3320000Y-1020000D01*
X3320000Y-980000D02*
X3280000Y-1020000D01*
X3360000Y-4380000D02*
X3400000Y-4420000D01*
X3400000Y-4380000D02*
X3360000Y-4420000D01*
X3480000Y-3800000D02*
X3520000Y-3840000D01*
X3520000Y-3800000D02*
X3480000Y-3840000D01*
X3580000Y-5780000D02*
X3620000Y-5820000D01*
X3620000Y-5780000D02*
X3580000Y-5820000D01*
X3915000Y-730000D02*
X3955000Y-770000D01*
X3955000Y-730000D02*
X3915000Y-770000D01*
X4280000Y-1980000D02*
X4320000Y-2020000D01*
X4320000Y-1980000D02*
X4280000Y-2020000D01*
X4380000Y-4830000D02*
X4420000Y-4870000D01*
X4420000Y-4830000D02*
X4380000Y-4870000D01*
X4480000Y-6180000D02*
X4520000Y-6220000D01*
X4520000Y-6180000D02*
X4480000Y-6220000D01*
X4730000Y-5530000D02*
X4770000Y-5570000D01*
X4770000Y-5530000D02*
X4730000Y-5570000D01*
X5580000Y-1980000D02*
X5620000Y-2020000D01*
X5620000Y-1980000D02*
X5580000Y-2020000D01*
X5726200Y-3200000D02*
X5766200Y-3240000D01*
X5766200Y-3200000D02*
X5726200Y-3240000D01*
X6060000Y-3360000D02*
X6100000Y-3400000D01*
X6100000Y-3360000D02*
X6060000Y-3400000D01*
X6130000Y-4480000D02*
X6170000Y-4520000D01*
X6170000Y-4480000D02*
X6130000Y-4520000D01*
X838720Y-4745000D02*
G75*
G02*
X747280Y-4745000I-45720J0D01*
G01*
X747280Y-4745000D02*
G75*
G02*
X838720Y-4745000I45720J0D01*
G01*
X838720Y-4949000D02*
G75*
G02*
X747280Y-4949000I-45720J0D01*
G01*
X747280Y-4949000D02*
G75*
G02*
X838720Y-4949000I45720J0D01*
G01*
X838720Y-5153000D02*
G75*
G02*
X747280Y-5153000I-45720J0D01*
G01*
X747280Y-5153000D02*
G75*
G02*
X838720Y-5153000I45720J0D01*
G01*
X838720Y-5357000D02*
G75*
G02*
X747280Y-5357000I-45720J0D01*
G01*
X747280Y-5357000D02*
G75*
G02*
X838720Y-5357000I45720J0D01*
G01*
X1016720Y-4643000D02*
G75*
G02*
X925280Y-4643000I-45720J0D01*
G01*
X925280Y-4643000D02*
G75*
G02*
X1016720Y-4643000I45720J0D01*
G01*
X1016720Y-4847000D02*
G75*
G02*
X925280Y-4847000I-45720J0D01*
G01*
X925280Y-4847000D02*
G75*
G02*
X1016720Y-4847000I45720J0D01*
G01*
X1016720Y-5051000D02*
G75*
G02*
X925280Y-5051000I-45720J0D01*
G01*
X925280Y-5051000D02*
G75*
G02*
X1016720Y-5051000I45720J0D01*
G01*
X1016720Y-5255000D02*
G75*
G02*
X925280Y-5255000I-45720J0D01*
G01*
X925280Y-5255000D02*
G75*
G02*
X1016720Y-5255000I45720J0D01*
G01*
X5146000Y-3750000D02*
X5146000Y-3850000D01*
X5096000Y-3800000D02*
X5196000Y-3800000D01*
X5400000Y-3750000D02*
X5400000Y-3850000D01*
X5350000Y-3800000D02*
X5450000Y-3800000D01*
X5654000Y-3750000D02*
X5654000Y-3850000D01*
X5604000Y-3800000D02*
X5704000Y-3800000D01*
D12*
X925892Y-311892D02*
X925892Y-234108D01*
X848108Y-234108D01*
X848108Y-311892D01*
X925892Y-311892D01*
X925892Y-565892D02*
X925892Y-488108D01*
X848108Y-488108D01*
X848108Y-565892D01*
X925892Y-565892D01*
X1179892Y-311892D02*
X1179892Y-234108D01*
X1102108Y-234108D01*
X1102108Y-311892D01*
X1179892Y-311892D01*
X1179892Y-565892D02*
X1179892Y-488108D01*
X1102108Y-488108D01*
X1102108Y-565892D01*
X1179892Y-565892D01*
X1433892Y-311892D02*
X1433892Y-234108D01*
X1356108Y-234108D01*
X1356108Y-311892D01*
X1433892Y-311892D01*
X1433892Y-565892D02*
X1433892Y-488108D01*
X1356108Y-488108D01*
X1356108Y-565892D01*
X1433892Y-565892D01*
X1687892Y-311892D02*
X1687892Y-234108D01*
X1610108Y-234108D01*
X1610108Y-311892D01*
X1687892Y-311892D01*
X1687892Y-565892D02*
X1687892Y-488108D01*
X1610108Y-488108D01*
X1610108Y-565892D01*
X1687892Y-565892D01*
X1941892Y-311892D02*
X1941892Y-234108D01*
X1864108Y-234108D01*
X1864108Y-311892D01*
X1941892Y-311892D01*
X1941892Y-565892D02*
X1941892Y-488108D01*
X1864108Y-488108D01*
X1864108Y-565892D01*
X1941892Y-565892D01*
X2195892Y-311892D02*
X2195892Y-234108D01*
X2118108Y-234108D01*
X2118108Y-311892D01*
X2195892Y-311892D01*
X2195892Y-565892D02*
X2195892Y-488108D01*
X2118108Y-488108D01*
X2118108Y-565892D01*
X2195892Y-565892D01*
X2449892Y-311892D02*
X2449892Y-234108D01*
X2372108Y-234108D01*
X2372108Y-311892D01*
X2449892Y-311892D01*
X2449892Y-565892D02*
X2449892Y-488108D01*
X2372108Y-488108D01*
X2372108Y-565892D01*
X2449892Y-565892D01*
X2703892Y-311892D02*
X2703892Y-234108D01*
X2626108Y-234108D01*
X2626108Y-311892D01*
X2703892Y-311892D01*
X2703892Y-565892D02*
X2703892Y-488108D01*
X2626108Y-488108D01*
X2626108Y-565892D01*
X2703892Y-565892D01*
X2957892Y-311892D02*
X2957892Y-234108D01*
X2880108Y-234108D01*
X2880108Y-311892D01*
X2957892Y-311892D01*
X2957892Y-565892D02*
X2957892Y-488108D01*
X2880108Y-488108D01*
X2880108Y-565892D01*
X2957892Y-565892D01*
X3211892Y-311892D02*
X3211892Y-234108D01*
X3134108Y-234108D01*
X3134108Y-311892D01*
X3211892Y-311892D01*
X3211892Y-565892D02*
X3211892Y-488108D01*
X3134108Y-488108D01*
X3134108Y-565892D01*
X3211892Y-565892D01*
X3465892Y-311892D02*
X3465892Y-234108D01*
X3388108Y-234108D01*
X3388108Y-311892D01*
X3465892Y-311892D01*
X3465892Y-565892D02*
X3465892Y-488108D01*
X3388108Y-488108D01*
X3388108Y-565892D01*
X3465892Y-565892D01*
X3719892Y-311892D02*
X3719892Y-234108D01*
X3642108Y-234108D01*
X3642108Y-311892D01*
X3719892Y-311892D01*
X3719892Y-565892D02*
X3719892Y-488108D01*
X3642108Y-488108D01*
X3642108Y-565892D01*
X3719892Y-565892D01*
X3973892Y-311892D02*
X3973892Y-234108D01*
X3896108Y-234108D01*
X3896108Y-311892D01*
X3973892Y-311892D01*
X3973892Y-565892D02*
X3973892Y-488108D01*
X3896108Y-488108D01*
X3896108Y-565892D01*
X3973892Y-565892D01*
X4227892Y-311892D02*
X4227892Y-234108D01*
X4150108Y-234108D01*
X4150108Y-311892D01*
X4227892Y-311892D01*
X4227892Y-565892D02*
X4227892Y-488108D01*
X4150108Y-488108D01*
X4150108Y-565892D01*
X4227892Y-565892D01*
X4481892Y-311892D02*
X4481892Y-234108D01*
X4404108Y-234108D01*
X4404108Y-311892D01*
X4481892Y-311892D01*
X4481892Y-565892D02*
X4481892Y-488108D01*
X4404108Y-488108D01*
X4404108Y-565892D01*
X4481892Y-565892D01*
X4735892Y-311892D02*
X4735892Y-234108D01*
X4658108Y-234108D01*
X4658108Y-311892D01*
X4735892Y-311892D01*
X4735892Y-565892D02*
X4735892Y-488108D01*
X4658108Y-488108D01*
X4658108Y-565892D01*
X4735892Y-565892D01*
X4989892Y-311892D02*
X4989892Y-234108D01*
X4912108Y-234108D01*
X4912108Y-311892D01*
X4989892Y-311892D01*
X4989892Y-565892D02*
X4989892Y-488108D01*
X4912108Y-488108D01*
X4912108Y-565892D01*
X4989892Y-565892D01*
X5243892Y-311892D02*
X5243892Y-234108D01*
X5166108Y-234108D01*
X5166108Y-311892D01*
X5243892Y-311892D01*
X5243892Y-565892D02*
X5243892Y-488108D01*
X5166108Y-488108D01*
X5166108Y-565892D01*
X5243892Y-565892D01*
X5497892Y-311892D02*
X5497892Y-234108D01*
X5420108Y-234108D01*
X5420108Y-311892D01*
X5497892Y-311892D01*
X5497892Y-565892D02*
X5497892Y-488108D01*
X5420108Y-488108D01*
X5420108Y-565892D01*
X5497892Y-565892D01*
X5751892Y-311892D02*
X5751892Y-234108D01*
X5674108Y-234108D01*
X5674108Y-311892D01*
X5751892Y-311892D01*
X5751892Y-565892D02*
X5751892Y-488108D01*
X5674108Y-488108D01*
X5674108Y-565892D01*
X5751892Y-565892D01*
D13*
X5450000Y-6220000D02*
X5520000Y-6150000D01*
X5450000Y-6080000D01*
X5380000Y-6150000D01*
X5450000Y-6220000D01*
X5950000Y-6220000D02*
X6020000Y-6150000D01*
X5950000Y-6080000D01*
X5880000Y-6150000D01*
X5950000Y-6220000D01*
D14*
X265000Y-265000D02*
X535000Y-535000D01*
X535000Y-265000D02*
X265000Y-535000D01*
X535000Y-400000D02*
G75*
G02*
X265000Y-400000I-135000J0D01*
G01*
X265000Y-400000D02*
G75*
G02*
X535000Y-400000I135000J0D01*
G01*
X265000Y-2565000D02*
X535000Y-2835000D01*
X535000Y-2565000D02*
X265000Y-2835000D01*
X535000Y-2700000D02*
G75*
G02*
X265000Y-2700000I-135000J0D01*
G01*
X265000Y-2700000D02*
G75*
G02*
X535000Y-2700000I135000J0D01*
G01*
X6065000Y-265000D02*
X6335000Y-535000D01*
X6335000Y-265000D02*
X6065000Y-535000D01*
X6335000Y-400000D02*
G75*
G02*
X6065000Y-400000I-135000J0D01*
G01*
X6065000Y-400000D02*
G75*
G02*
X6335000Y-400000I135000J0D01*
G01*
X6065000Y-2565000D02*
X6335000Y-2835000D01*
X6335000Y-2565000D02*
X6065000Y-2835000D01*
X6335000Y-2700000D02*
G75*
G02*
X6065000Y-2700000I-135000J0D01*
G01*
X6065000Y-2700000D02*
G75*
G02*
X6335000Y-2700000I135000J0D01*
G01*
D15*
X190000Y-6090000D02*
X510000Y-6410000D01*
X510000Y-6090000D02*
X190000Y-6410000D01*
X350000Y-6090000D02*
X350000Y-6410000D01*
X190000Y-6250000D02*
X510000Y-6250000D01*
X2840000Y-6090000D02*
X3160000Y-6410000D01*
X3160000Y-6090000D02*
X2840000Y-6410000D01*
X3000000Y-6090000D02*
X3000000Y-6410000D01*
X2840000Y-6250000D02*
X3160000Y-6250000D01*
D16*
X369000Y-4195000D02*
X709000Y-4535000D01*
X709000Y-4195000D02*
X369000Y-4535000D01*
X659209Y-4485209D02*
X659209Y-4244791D01*
X418791Y-4244791D01*
X418791Y-4485209D01*
X659209Y-4485209D01*
X369000Y-5465000D02*
X709000Y-5805000D01*
X709000Y-5465000D02*
X369000Y-5805000D01*
X659209Y-5755209D02*
X659209Y-5514791D01*
X418791Y-5514791D01*
X418791Y-5755209D01*
X659209Y-5755209D01*
D11*
X255777Y-6916484D02*
X255777Y-6716484D01*
X255777Y-6716484D02*
X303396Y-6716484D01*
X303396Y-6716484D02*
X331967Y-6726008D01*
X331967Y-6726008D02*
X351015Y-6745055D01*
X351015Y-6745055D02*
X360539Y-6764103D01*
X360539Y-6764103D02*
X370062Y-6802198D01*
X370062Y-6802198D02*
X370062Y-6830769D01*
X370062Y-6830769D02*
X360539Y-6868865D01*
X360539Y-6868865D02*
X351015Y-6887912D01*
X351015Y-6887912D02*
X331967Y-6906960D01*
X331967Y-6906960D02*
X303396Y-6916484D01*
X303396Y-6916484D02*
X255777Y-6916484D01*
X455777Y-6916484D02*
X455777Y-6783150D01*
X455777Y-6821246D02*
X465301Y-6802198D01*
X465301Y-6802198D02*
X474824Y-6792674D01*
X474824Y-6792674D02*
X493872Y-6783150D01*
X493872Y-6783150D02*
X512920Y-6783150D01*
X579586Y-6916484D02*
X579586Y-6783150D01*
X579586Y-6716484D02*
X570063Y-6726008D01*
X570063Y-6726008D02*
X579586Y-6735531D01*
X579586Y-6735531D02*
X589110Y-6726008D01*
X589110Y-6726008D02*
X579586Y-6716484D01*
X579586Y-6716484D02*
X579586Y-6735531D01*
X703396Y-6916484D02*
X684348Y-6906960D01*
X684348Y-6906960D02*
X674824Y-6887912D01*
X674824Y-6887912D02*
X674824Y-6716484D01*
X808158Y-6916484D02*
X789110Y-6906960D01*
X789110Y-6906960D02*
X779586Y-6887912D01*
X779586Y-6887912D02*
X779586Y-6716484D01*
X1036729Y-6916484D02*
X1036729Y-6716484D01*
X1036729Y-6716484D02*
X1103396Y-6859341D01*
X1103396Y-6859341D02*
X1170063Y-6716484D01*
X1170063Y-6716484D02*
X1170063Y-6916484D01*
X1351015Y-6916484D02*
X1351015Y-6811722D01*
X1351015Y-6811722D02*
X1341491Y-6792674D01*
X1341491Y-6792674D02*
X1322444Y-6783150D01*
X1322444Y-6783150D02*
X1284348Y-6783150D01*
X1284348Y-6783150D02*
X1265301Y-6792674D01*
X1351015Y-6906960D02*
X1331967Y-6916484D01*
X1331967Y-6916484D02*
X1284348Y-6916484D01*
X1284348Y-6916484D02*
X1265301Y-6906960D01*
X1265301Y-6906960D02*
X1255777Y-6887912D01*
X1255777Y-6887912D02*
X1255777Y-6868865D01*
X1255777Y-6868865D02*
X1265301Y-6849817D01*
X1265301Y-6849817D02*
X1284348Y-6840293D01*
X1284348Y-6840293D02*
X1331967Y-6840293D01*
X1331967Y-6840293D02*
X1351015Y-6830769D01*
X1446253Y-6783150D02*
X1446253Y-6983150D01*
X1446253Y-6792674D02*
X1465301Y-6783150D01*
X1465301Y-6783150D02*
X1503396Y-6783150D01*
X1503396Y-6783150D02*
X1522443Y-6792674D01*
X1522443Y-6792674D02*
X1531967Y-6802198D01*
X1531967Y-6802198D02*
X1541491Y-6821246D01*
X1541491Y-6821246D02*
X1541491Y-6878388D01*
X1541491Y-6878388D02*
X1531967Y-6897436D01*
X1531967Y-6897436D02*
X1522443Y-6906960D01*
X1522443Y-6906960D02*
X1503396Y-6916484D01*
X1503396Y-6916484D02*
X1465301Y-6916484D01*
X1465301Y-6916484D02*
X1446253Y-6906960D01*
X1627205Y-6897436D02*
X1636729Y-6906960D01*
X1636729Y-6906960D02*
X1627205Y-6916484D01*
X1627205Y-6916484D02*
X1617682Y-6906960D01*
X1617682Y-6906960D02*
X1627205Y-6897436D01*
X1627205Y-6897436D02*
X1627205Y-6916484D01*
X1627205Y-6792674D02*
X1636729Y-6802198D01*
X1636729Y-6802198D02*
X1627205Y-6811722D01*
X1627205Y-6811722D02*
X1617682Y-6802198D01*
X1617682Y-6802198D02*
X1627205Y-6792674D01*
X1627205Y-6792674D02*
X1627205Y-6811722D01*
D10*
X-45000Y-7225000D02*
X-5000Y-7265000D01*
X-5000Y-7225000D02*
X-45000Y-7265000D01*
D11*
X293872Y-7136484D02*
X312920Y-7136484D01*
X312920Y-7136484D02*
X331967Y-7146008D01*
X331967Y-7146008D02*
X341491Y-7155531D01*
X341491Y-7155531D02*
X351015Y-7174579D01*
X351015Y-7174579D02*
X360539Y-7212674D01*
X360539Y-7212674D02*
X360539Y-7260293D01*
X360539Y-7260293D02*
X351015Y-7298388D01*
X351015Y-7298388D02*
X341491Y-7317436D01*
X341491Y-7317436D02*
X331967Y-7326960D01*
X331967Y-7326960D02*
X312920Y-7336484D01*
X312920Y-7336484D02*
X293872Y-7336484D01*
X293872Y-7336484D02*
X274824Y-7326960D01*
X274824Y-7326960D02*
X265301Y-7317436D01*
X265301Y-7317436D02*
X255777Y-7298388D01*
X255777Y-7298388D02*
X246253Y-7260293D01*
X246253Y-7260293D02*
X246253Y-7212674D01*
X246253Y-7212674D02*
X255777Y-7174579D01*
X255777Y-7174579D02*
X265301Y-7155531D01*
X265301Y-7155531D02*
X274824Y-7146008D01*
X274824Y-7146008D02*
X293872Y-7136484D01*
X446253Y-7317436D02*
X455777Y-7326960D01*
X455777Y-7326960D02*
X446253Y-7336484D01*
X446253Y-7336484D02*
X436729Y-7326960D01*
X436729Y-7326960D02*
X446253Y-7317436D01*
X446253Y-7317436D02*
X446253Y-7336484D01*
X627205Y-7203150D02*
X627205Y-7336484D01*
X579586Y-7126960D02*
X531967Y-7269817D01*
X531967Y-7269817D02*
X655777Y-7269817D01*
X770062Y-7136484D02*
X789110Y-7136484D01*
X789110Y-7136484D02*
X808158Y-7146008D01*
X808158Y-7146008D02*
X817682Y-7155531D01*
X817682Y-7155531D02*
X827205Y-7174579D01*
X827205Y-7174579D02*
X836729Y-7212674D01*
X836729Y-7212674D02*
X836729Y-7260293D01*
X836729Y-7260293D02*
X827205Y-7298388D01*
X827205Y-7298388D02*
X817682Y-7317436D01*
X817682Y-7317436D02*
X808158Y-7326960D01*
X808158Y-7326960D02*
X789110Y-7336484D01*
X789110Y-7336484D02*
X770062Y-7336484D01*
X770062Y-7336484D02*
X751015Y-7326960D01*
X751015Y-7326960D02*
X741491Y-7317436D01*
X741491Y-7317436D02*
X731967Y-7298388D01*
X731967Y-7298388D02*
X722443Y-7260293D01*
X722443Y-7260293D02*
X722443Y-7212674D01*
X722443Y-7212674D02*
X731967Y-7174579D01*
X731967Y-7174579D02*
X741491Y-7155531D01*
X741491Y-7155531D02*
X751015Y-7146008D01*
X751015Y-7146008D02*
X770062Y-7136484D01*
X960539Y-7136484D02*
X979586Y-7136484D01*
X979586Y-7136484D02*
X998634Y-7146008D01*
X998634Y-7146008D02*
X1008158Y-7155531D01*
X1008158Y-7155531D02*
X1017682Y-7174579D01*
X1017682Y-7174579D02*
X1027205Y-7212674D01*
X1027205Y-7212674D02*
X1027205Y-7260293D01*
X1027205Y-7260293D02*
X1017682Y-7298388D01*
X1017682Y-7298388D02*
X1008158Y-7317436D01*
X1008158Y-7317436D02*
X998634Y-7326960D01*
X998634Y-7326960D02*
X979586Y-7336484D01*
X979586Y-7336484D02*
X960539Y-7336484D01*
X960539Y-7336484D02*
X941491Y-7326960D01*
X941491Y-7326960D02*
X931967Y-7317436D01*
X931967Y-7317436D02*
X922443Y-7298388D01*
X922443Y-7298388D02*
X912920Y-7260293D01*
X912920Y-7260293D02*
X912920Y-7212674D01*
X912920Y-7212674D02*
X922443Y-7174579D01*
X922443Y-7174579D02*
X931967Y-7155531D01*
X931967Y-7155531D02*
X941491Y-7146008D01*
X941491Y-7146008D02*
X960539Y-7136484D01*
X1112920Y-7336484D02*
X1112920Y-7203150D01*
X1112920Y-7222198D02*
X1122444Y-7212674D01*
X1122444Y-7212674D02*
X1141491Y-7203150D01*
X1141491Y-7203150D02*
X1170063Y-7203150D01*
X1170063Y-7203150D02*
X1189110Y-7212674D01*
X1189110Y-7212674D02*
X1198634Y-7231722D01*
X1198634Y-7231722D02*
X1198634Y-7336484D01*
X1198634Y-7231722D02*
X1208158Y-7212674D01*
X1208158Y-7212674D02*
X1227205Y-7203150D01*
X1227205Y-7203150D02*
X1255777Y-7203150D01*
X1255777Y-7203150D02*
X1274825Y-7212674D01*
X1274825Y-7212674D02*
X1284348Y-7231722D01*
X1284348Y-7231722D02*
X1284348Y-7336484D01*
X1379586Y-7336484D02*
X1379586Y-7203150D01*
X1379586Y-7222198D02*
X1389110Y-7212674D01*
X1389110Y-7212674D02*
X1408158Y-7203150D01*
X1408158Y-7203150D02*
X1436729Y-7203150D01*
X1436729Y-7203150D02*
X1455777Y-7212674D01*
X1455777Y-7212674D02*
X1465301Y-7231722D01*
X1465301Y-7231722D02*
X1465301Y-7336484D01*
X1465301Y-7231722D02*
X1474824Y-7212674D01*
X1474824Y-7212674D02*
X1493872Y-7203150D01*
X1493872Y-7203150D02*
X1522443Y-7203150D01*
X1522443Y-7203150D02*
X1541491Y-7212674D01*
X1541491Y-7212674D02*
X1551015Y-7231722D01*
X1551015Y-7231722D02*
X1551015Y-7336484D01*
X1941491Y-7126960D02*
X1770063Y-7384103D01*
X2198634Y-7136484D02*
X2217682Y-7136484D01*
X2217682Y-7136484D02*
X2236729Y-7146008D01*
X2236729Y-7146008D02*
X2246253Y-7155531D01*
X2246253Y-7155531D02*
X2255777Y-7174579D01*
X2255777Y-7174579D02*
X2265301Y-7212674D01*
X2265301Y-7212674D02*
X2265301Y-7260293D01*
X2265301Y-7260293D02*
X2255777Y-7298388D01*
X2255777Y-7298388D02*
X2246253Y-7317436D01*
X2246253Y-7317436D02*
X2236729Y-7326960D01*
X2236729Y-7326960D02*
X2217682Y-7336484D01*
X2217682Y-7336484D02*
X2198634Y-7336484D01*
X2198634Y-7336484D02*
X2179587Y-7326960D01*
X2179587Y-7326960D02*
X2170063Y-7317436D01*
X2170063Y-7317436D02*
X2160539Y-7298388D01*
X2160539Y-7298388D02*
X2151015Y-7260293D01*
X2151015Y-7260293D02*
X2151015Y-7212674D01*
X2151015Y-7212674D02*
X2160539Y-7174579D01*
X2160539Y-7174579D02*
X2170063Y-7155531D01*
X2170063Y-7155531D02*
X2179587Y-7146008D01*
X2179587Y-7146008D02*
X2198634Y-7136484D01*
X2351015Y-7317436D02*
X2360539Y-7326960D01*
X2360539Y-7326960D02*
X2351015Y-7336484D01*
X2351015Y-7336484D02*
X2341491Y-7326960D01*
X2341491Y-7326960D02*
X2351015Y-7317436D01*
X2351015Y-7317436D02*
X2351015Y-7336484D01*
X2484348Y-7136484D02*
X2503396Y-7136484D01*
X2503396Y-7136484D02*
X2522444Y-7146008D01*
X2522444Y-7146008D02*
X2531968Y-7155531D01*
X2531968Y-7155531D02*
X2541491Y-7174579D01*
X2541491Y-7174579D02*
X2551015Y-7212674D01*
X2551015Y-7212674D02*
X2551015Y-7260293D01*
X2551015Y-7260293D02*
X2541491Y-7298388D01*
X2541491Y-7298388D02*
X2531968Y-7317436D01*
X2531968Y-7317436D02*
X2522444Y-7326960D01*
X2522444Y-7326960D02*
X2503396Y-7336484D01*
X2503396Y-7336484D02*
X2484348Y-7336484D01*
X2484348Y-7336484D02*
X2465301Y-7326960D01*
X2465301Y-7326960D02*
X2455777Y-7317436D01*
X2455777Y-7317436D02*
X2446253Y-7298388D01*
X2446253Y-7298388D02*
X2436729Y-7260293D01*
X2436729Y-7260293D02*
X2436729Y-7212674D01*
X2436729Y-7212674D02*
X2446253Y-7174579D01*
X2446253Y-7174579D02*
X2455777Y-7155531D01*
X2455777Y-7155531D02*
X2465301Y-7146008D01*
X2465301Y-7146008D02*
X2484348Y-7136484D01*
X2741491Y-7336484D02*
X2627206Y-7336484D01*
X2684348Y-7336484D02*
X2684348Y-7136484D01*
X2684348Y-7136484D02*
X2665301Y-7165055D01*
X2665301Y-7165055D02*
X2646253Y-7184103D01*
X2646253Y-7184103D02*
X2627206Y-7193627D01*
X2922444Y-7136484D02*
X2827206Y-7136484D01*
X2827206Y-7136484D02*
X2817682Y-7231722D01*
X2817682Y-7231722D02*
X2827206Y-7222198D01*
X2827206Y-7222198D02*
X2846253Y-7212674D01*
X2846253Y-7212674D02*
X2893872Y-7212674D01*
X2893872Y-7212674D02*
X2912920Y-7222198D01*
X2912920Y-7222198D02*
X2922444Y-7231722D01*
X2922444Y-7231722D02*
X2931967Y-7250769D01*
X2931967Y-7250769D02*
X2931967Y-7298388D01*
X2931967Y-7298388D02*
X2922444Y-7317436D01*
X2922444Y-7317436D02*
X2912920Y-7326960D01*
X2912920Y-7326960D02*
X2893872Y-7336484D01*
X2893872Y-7336484D02*
X2846253Y-7336484D01*
X2846253Y-7336484D02*
X2827206Y-7326960D01*
X2827206Y-7326960D02*
X2817682Y-7317436D01*
X2998634Y-7136484D02*
X3131967Y-7136484D01*
X3131967Y-7136484D02*
X3046253Y-7336484D01*
X3198634Y-7136484D02*
X3198634Y-7174579D01*
X3274825Y-7136484D02*
X3274825Y-7174579D01*
X3570063Y-7412674D02*
X3560539Y-7403150D01*
X3560539Y-7403150D02*
X3541491Y-7374579D01*
X3541491Y-7374579D02*
X3531968Y-7355531D01*
X3531968Y-7355531D02*
X3522444Y-7326960D01*
X3522444Y-7326960D02*
X3512920Y-7279341D01*
X3512920Y-7279341D02*
X3512920Y-7241246D01*
X3512920Y-7241246D02*
X3522444Y-7193627D01*
X3522444Y-7193627D02*
X3531968Y-7165055D01*
X3531968Y-7165055D02*
X3541491Y-7146008D01*
X3541491Y-7146008D02*
X3560539Y-7117436D01*
X3560539Y-7117436D02*
X3570063Y-7107912D01*
X3627206Y-7136484D02*
X3751015Y-7136484D01*
X3751015Y-7136484D02*
X3684348Y-7212674D01*
X3684348Y-7212674D02*
X3712920Y-7212674D01*
X3712920Y-7212674D02*
X3731968Y-7222198D01*
X3731968Y-7222198D02*
X3741491Y-7231722D01*
X3741491Y-7231722D02*
X3751015Y-7250769D01*
X3751015Y-7250769D02*
X3751015Y-7298388D01*
X3751015Y-7298388D02*
X3741491Y-7317436D01*
X3741491Y-7317436D02*
X3731968Y-7326960D01*
X3731968Y-7326960D02*
X3712920Y-7336484D01*
X3712920Y-7336484D02*
X3655777Y-7336484D01*
X3655777Y-7336484D02*
X3636729Y-7326960D01*
X3636729Y-7326960D02*
X3627206Y-7317436D01*
X3922444Y-7136484D02*
X3884348Y-7136484D01*
X3884348Y-7136484D02*
X3865301Y-7146008D01*
X3865301Y-7146008D02*
X3855777Y-7155531D01*
X3855777Y-7155531D02*
X3836729Y-7184103D01*
X3836729Y-7184103D02*
X3827206Y-7222198D01*
X3827206Y-7222198D02*
X3827206Y-7298388D01*
X3827206Y-7298388D02*
X3836729Y-7317436D01*
X3836729Y-7317436D02*
X3846253Y-7326960D01*
X3846253Y-7326960D02*
X3865301Y-7336484D01*
X3865301Y-7336484D02*
X3903396Y-7336484D01*
X3903396Y-7336484D02*
X3922444Y-7326960D01*
X3922444Y-7326960D02*
X3931968Y-7317436D01*
X3931968Y-7317436D02*
X3941491Y-7298388D01*
X3941491Y-7298388D02*
X3941491Y-7250769D01*
X3941491Y-7250769D02*
X3931968Y-7231722D01*
X3931968Y-7231722D02*
X3922444Y-7222198D01*
X3922444Y-7222198D02*
X3903396Y-7212674D01*
X3903396Y-7212674D02*
X3865301Y-7212674D01*
X3865301Y-7212674D02*
X3846253Y-7222198D01*
X3846253Y-7222198D02*
X3836729Y-7231722D01*
X3836729Y-7231722D02*
X3827206Y-7250769D01*
X4179587Y-7336484D02*
X4179587Y-7136484D01*
X4265301Y-7336484D02*
X4265301Y-7231722D01*
X4265301Y-7231722D02*
X4255777Y-7212674D01*
X4255777Y-7212674D02*
X4236730Y-7203150D01*
X4236730Y-7203150D02*
X4208158Y-7203150D01*
X4208158Y-7203150D02*
X4189110Y-7212674D01*
X4189110Y-7212674D02*
X4179587Y-7222198D01*
X4389111Y-7336484D02*
X4370063Y-7326960D01*
X4370063Y-7326960D02*
X4360539Y-7317436D01*
X4360539Y-7317436D02*
X4351015Y-7298388D01*
X4351015Y-7298388D02*
X4351015Y-7241246D01*
X4351015Y-7241246D02*
X4360539Y-7222198D01*
X4360539Y-7222198D02*
X4370063Y-7212674D01*
X4370063Y-7212674D02*
X4389111Y-7203150D01*
X4389111Y-7203150D02*
X4417682Y-7203150D01*
X4417682Y-7203150D02*
X4436730Y-7212674D01*
X4436730Y-7212674D02*
X4446253Y-7222198D01*
X4446253Y-7222198D02*
X4455777Y-7241246D01*
X4455777Y-7241246D02*
X4455777Y-7298388D01*
X4455777Y-7298388D02*
X4446253Y-7317436D01*
X4446253Y-7317436D02*
X4436730Y-7326960D01*
X4436730Y-7326960D02*
X4417682Y-7336484D01*
X4417682Y-7336484D02*
X4389111Y-7336484D01*
X4570063Y-7336484D02*
X4551015Y-7326960D01*
X4551015Y-7326960D02*
X4541492Y-7307912D01*
X4541492Y-7307912D02*
X4541492Y-7136484D01*
X4722444Y-7326960D02*
X4703396Y-7336484D01*
X4703396Y-7336484D02*
X4665301Y-7336484D01*
X4665301Y-7336484D02*
X4646253Y-7326960D01*
X4646253Y-7326960D02*
X4636730Y-7307912D01*
X4636730Y-7307912D02*
X4636730Y-7231722D01*
X4636730Y-7231722D02*
X4646253Y-7212674D01*
X4646253Y-7212674D02*
X4665301Y-7203150D01*
X4665301Y-7203150D02*
X4703396Y-7203150D01*
X4703396Y-7203150D02*
X4722444Y-7212674D01*
X4722444Y-7212674D02*
X4731968Y-7231722D01*
X4731968Y-7231722D02*
X4731968Y-7250769D01*
X4731968Y-7250769D02*
X4636730Y-7269817D01*
X4808158Y-7326960D02*
X4827206Y-7336484D01*
X4827206Y-7336484D02*
X4865301Y-7336484D01*
X4865301Y-7336484D02*
X4884349Y-7326960D01*
X4884349Y-7326960D02*
X4893873Y-7307912D01*
X4893873Y-7307912D02*
X4893873Y-7298388D01*
X4893873Y-7298388D02*
X4884349Y-7279341D01*
X4884349Y-7279341D02*
X4865301Y-7269817D01*
X4865301Y-7269817D02*
X4836730Y-7269817D01*
X4836730Y-7269817D02*
X4817682Y-7260293D01*
X4817682Y-7260293D02*
X4808158Y-7241246D01*
X4808158Y-7241246D02*
X4808158Y-7231722D01*
X4808158Y-7231722D02*
X4817682Y-7212674D01*
X4817682Y-7212674D02*
X4836730Y-7203150D01*
X4836730Y-7203150D02*
X4865301Y-7203150D01*
X4865301Y-7203150D02*
X4884349Y-7212674D01*
X4960539Y-7412674D02*
X4970063Y-7403150D01*
X4970063Y-7403150D02*
X4989111Y-7374579D01*
X4989111Y-7374579D02*
X4998634Y-7355531D01*
X4998634Y-7355531D02*
X5008158Y-7326960D01*
X5008158Y-7326960D02*
X5017682Y-7279341D01*
X5017682Y-7279341D02*
X5017682Y-7241246D01*
X5017682Y-7241246D02*
X5008158Y-7193627D01*
X5008158Y-7193627D02*
X4998634Y-7165055D01*
X4998634Y-7165055D02*
X4989111Y-7146008D01*
X4989111Y-7146008D02*
X4970063Y-7117436D01*
X4970063Y-7117436D02*
X4960539Y-7107912D01*
D10*
X-5000Y-7509000D02*
G75*
G02*
X-96440Y-7509000I-45720J0D01*
G01*
X-96440Y-7509000D02*
G75*
G02*
X-5000Y-7509000I45720J0D01*
G01*
D11*
X293872Y-7400484D02*
X312920Y-7400484D01*
X312920Y-7400484D02*
X331967Y-7410008D01*
X331967Y-7410008D02*
X341491Y-7419531D01*
X341491Y-7419531D02*
X351015Y-7438579D01*
X351015Y-7438579D02*
X360539Y-7476674D01*
X360539Y-7476674D02*
X360539Y-7524293D01*
X360539Y-7524293D02*
X351015Y-7562388D01*
X351015Y-7562388D02*
X341491Y-7581436D01*
X341491Y-7581436D02*
X331967Y-7590960D01*
X331967Y-7590960D02*
X312920Y-7600484D01*
X312920Y-7600484D02*
X293872Y-7600484D01*
X293872Y-7600484D02*
X274824Y-7590960D01*
X274824Y-7590960D02*
X265301Y-7581436D01*
X265301Y-7581436D02*
X255777Y-7562388D01*
X255777Y-7562388D02*
X246253Y-7524293D01*
X246253Y-7524293D02*
X246253Y-7476674D01*
X246253Y-7476674D02*
X255777Y-7438579D01*
X255777Y-7438579D02*
X265301Y-7419531D01*
X265301Y-7419531D02*
X274824Y-7410008D01*
X274824Y-7410008D02*
X293872Y-7400484D01*
X446253Y-7581436D02*
X455777Y-7590960D01*
X455777Y-7590960D02*
X446253Y-7600484D01*
X446253Y-7600484D02*
X436729Y-7590960D01*
X436729Y-7590960D02*
X446253Y-7581436D01*
X446253Y-7581436D02*
X446253Y-7600484D01*
X551015Y-7600484D02*
X589110Y-7600484D01*
X589110Y-7600484D02*
X608158Y-7590960D01*
X608158Y-7590960D02*
X617682Y-7581436D01*
X617682Y-7581436D02*
X636729Y-7552865D01*
X636729Y-7552865D02*
X646253Y-7514769D01*
X646253Y-7514769D02*
X646253Y-7438579D01*
X646253Y-7438579D02*
X636729Y-7419531D01*
X636729Y-7419531D02*
X627205Y-7410008D01*
X627205Y-7410008D02*
X608158Y-7400484D01*
X608158Y-7400484D02*
X570063Y-7400484D01*
X570063Y-7400484D02*
X551015Y-7410008D01*
X551015Y-7410008D02*
X541491Y-7419531D01*
X541491Y-7419531D02*
X531967Y-7438579D01*
X531967Y-7438579D02*
X531967Y-7486198D01*
X531967Y-7486198D02*
X541491Y-7505246D01*
X541491Y-7505246D02*
X551015Y-7514769D01*
X551015Y-7514769D02*
X570063Y-7524293D01*
X570063Y-7524293D02*
X608158Y-7524293D01*
X608158Y-7524293D02*
X627205Y-7514769D01*
X627205Y-7514769D02*
X636729Y-7505246D01*
X636729Y-7505246D02*
X646253Y-7486198D01*
X836729Y-7600484D02*
X722443Y-7600484D01*
X779586Y-7600484D02*
X779586Y-7400484D01*
X779586Y-7400484D02*
X760539Y-7429055D01*
X760539Y-7429055D02*
X741491Y-7448103D01*
X741491Y-7448103D02*
X722443Y-7457627D01*
X1008158Y-7467150D02*
X1008158Y-7600484D01*
X960539Y-7390960D02*
X912920Y-7533817D01*
X912920Y-7533817D02*
X1036729Y-7533817D01*
X1112920Y-7600484D02*
X1112920Y-7467150D01*
X1112920Y-7486198D02*
X1122444Y-7476674D01*
X1122444Y-7476674D02*
X1141491Y-7467150D01*
X1141491Y-7467150D02*
X1170063Y-7467150D01*
X1170063Y-7467150D02*
X1189110Y-7476674D01*
X1189110Y-7476674D02*
X1198634Y-7495722D01*
X1198634Y-7495722D02*
X1198634Y-7600484D01*
X1198634Y-7495722D02*
X1208158Y-7476674D01*
X1208158Y-7476674D02*
X1227205Y-7467150D01*
X1227205Y-7467150D02*
X1255777Y-7467150D01*
X1255777Y-7467150D02*
X1274825Y-7476674D01*
X1274825Y-7476674D02*
X1284348Y-7495722D01*
X1284348Y-7495722D02*
X1284348Y-7600484D01*
X1379586Y-7600484D02*
X1379586Y-7467150D01*
X1379586Y-7486198D02*
X1389110Y-7476674D01*
X1389110Y-7476674D02*
X1408158Y-7467150D01*
X1408158Y-7467150D02*
X1436729Y-7467150D01*
X1436729Y-7467150D02*
X1455777Y-7476674D01*
X1455777Y-7476674D02*
X1465301Y-7495722D01*
X1465301Y-7495722D02*
X1465301Y-7600484D01*
X1465301Y-7495722D02*
X1474824Y-7476674D01*
X1474824Y-7476674D02*
X1493872Y-7467150D01*
X1493872Y-7467150D02*
X1522443Y-7467150D01*
X1522443Y-7467150D02*
X1541491Y-7476674D01*
X1541491Y-7476674D02*
X1551015Y-7495722D01*
X1551015Y-7495722D02*
X1551015Y-7600484D01*
X1941491Y-7390960D02*
X1770063Y-7648103D01*
X2198634Y-7400484D02*
X2217682Y-7400484D01*
X2217682Y-7400484D02*
X2236729Y-7410008D01*
X2236729Y-7410008D02*
X2246253Y-7419531D01*
X2246253Y-7419531D02*
X2255777Y-7438579D01*
X2255777Y-7438579D02*
X2265301Y-7476674D01*
X2265301Y-7476674D02*
X2265301Y-7524293D01*
X2265301Y-7524293D02*
X2255777Y-7562388D01*
X2255777Y-7562388D02*
X2246253Y-7581436D01*
X2246253Y-7581436D02*
X2236729Y-7590960D01*
X2236729Y-7590960D02*
X2217682Y-7600484D01*
X2217682Y-7600484D02*
X2198634Y-7600484D01*
X2198634Y-7600484D02*
X2179587Y-7590960D01*
X2179587Y-7590960D02*
X2170063Y-7581436D01*
X2170063Y-7581436D02*
X2160539Y-7562388D01*
X2160539Y-7562388D02*
X2151015Y-7524293D01*
X2151015Y-7524293D02*
X2151015Y-7476674D01*
X2151015Y-7476674D02*
X2160539Y-7438579D01*
X2160539Y-7438579D02*
X2170063Y-7419531D01*
X2170063Y-7419531D02*
X2179587Y-7410008D01*
X2179587Y-7410008D02*
X2198634Y-7400484D01*
X2351015Y-7581436D02*
X2360539Y-7590960D01*
X2360539Y-7590960D02*
X2351015Y-7600484D01*
X2351015Y-7600484D02*
X2341491Y-7590960D01*
X2341491Y-7590960D02*
X2351015Y-7581436D01*
X2351015Y-7581436D02*
X2351015Y-7600484D01*
X2484348Y-7400484D02*
X2503396Y-7400484D01*
X2503396Y-7400484D02*
X2522444Y-7410008D01*
X2522444Y-7410008D02*
X2531968Y-7419531D01*
X2531968Y-7419531D02*
X2541491Y-7438579D01*
X2541491Y-7438579D02*
X2551015Y-7476674D01*
X2551015Y-7476674D02*
X2551015Y-7524293D01*
X2551015Y-7524293D02*
X2541491Y-7562388D01*
X2541491Y-7562388D02*
X2531968Y-7581436D01*
X2531968Y-7581436D02*
X2522444Y-7590960D01*
X2522444Y-7590960D02*
X2503396Y-7600484D01*
X2503396Y-7600484D02*
X2484348Y-7600484D01*
X2484348Y-7600484D02*
X2465301Y-7590960D01*
X2465301Y-7590960D02*
X2455777Y-7581436D01*
X2455777Y-7581436D02*
X2446253Y-7562388D01*
X2446253Y-7562388D02*
X2436729Y-7524293D01*
X2436729Y-7524293D02*
X2436729Y-7476674D01*
X2436729Y-7476674D02*
X2446253Y-7438579D01*
X2446253Y-7438579D02*
X2455777Y-7419531D01*
X2455777Y-7419531D02*
X2465301Y-7410008D01*
X2465301Y-7410008D02*
X2484348Y-7400484D01*
X2617682Y-7400484D02*
X2741491Y-7400484D01*
X2741491Y-7400484D02*
X2674825Y-7476674D01*
X2674825Y-7476674D02*
X2703396Y-7476674D01*
X2703396Y-7476674D02*
X2722444Y-7486198D01*
X2722444Y-7486198D02*
X2731968Y-7495722D01*
X2731968Y-7495722D02*
X2741491Y-7514769D01*
X2741491Y-7514769D02*
X2741491Y-7562388D01*
X2741491Y-7562388D02*
X2731968Y-7581436D01*
X2731968Y-7581436D02*
X2722444Y-7590960D01*
X2722444Y-7590960D02*
X2703396Y-7600484D01*
X2703396Y-7600484D02*
X2646253Y-7600484D01*
X2646253Y-7600484D02*
X2627206Y-7590960D01*
X2627206Y-7590960D02*
X2617682Y-7581436D01*
X2912920Y-7400484D02*
X2874825Y-7400484D01*
X2874825Y-7400484D02*
X2855777Y-7410008D01*
X2855777Y-7410008D02*
X2846253Y-7419531D01*
X2846253Y-7419531D02*
X2827206Y-7448103D01*
X2827206Y-7448103D02*
X2817682Y-7486198D01*
X2817682Y-7486198D02*
X2817682Y-7562388D01*
X2817682Y-7562388D02*
X2827206Y-7581436D01*
X2827206Y-7581436D02*
X2836729Y-7590960D01*
X2836729Y-7590960D02*
X2855777Y-7600484D01*
X2855777Y-7600484D02*
X2893872Y-7600484D01*
X2893872Y-7600484D02*
X2912920Y-7590960D01*
X2912920Y-7590960D02*
X2922444Y-7581436D01*
X2922444Y-7581436D02*
X2931967Y-7562388D01*
X2931967Y-7562388D02*
X2931967Y-7514769D01*
X2931967Y-7514769D02*
X2922444Y-7495722D01*
X2922444Y-7495722D02*
X2912920Y-7486198D01*
X2912920Y-7486198D02*
X2893872Y-7476674D01*
X2893872Y-7476674D02*
X2855777Y-7476674D01*
X2855777Y-7476674D02*
X2836729Y-7486198D01*
X2836729Y-7486198D02*
X2827206Y-7495722D01*
X2827206Y-7495722D02*
X2817682Y-7514769D01*
X3055777Y-7400484D02*
X3074825Y-7400484D01*
X3074825Y-7400484D02*
X3093872Y-7410008D01*
X3093872Y-7410008D02*
X3103396Y-7419531D01*
X3103396Y-7419531D02*
X3112920Y-7438579D01*
X3112920Y-7438579D02*
X3122444Y-7476674D01*
X3122444Y-7476674D02*
X3122444Y-7524293D01*
X3122444Y-7524293D02*
X3112920Y-7562388D01*
X3112920Y-7562388D02*
X3103396Y-7581436D01*
X3103396Y-7581436D02*
X3093872Y-7590960D01*
X3093872Y-7590960D02*
X3074825Y-7600484D01*
X3074825Y-7600484D02*
X3055777Y-7600484D01*
X3055777Y-7600484D02*
X3036729Y-7590960D01*
X3036729Y-7590960D02*
X3027206Y-7581436D01*
X3027206Y-7581436D02*
X3017682Y-7562388D01*
X3017682Y-7562388D02*
X3008158Y-7524293D01*
X3008158Y-7524293D02*
X3008158Y-7476674D01*
X3008158Y-7476674D02*
X3017682Y-7438579D01*
X3017682Y-7438579D02*
X3027206Y-7419531D01*
X3027206Y-7419531D02*
X3036729Y-7410008D01*
X3036729Y-7410008D02*
X3055777Y-7400484D01*
X3198634Y-7400484D02*
X3198634Y-7438579D01*
X3274825Y-7400484D02*
X3274825Y-7438579D01*
X3570063Y-7676674D02*
X3560539Y-7667150D01*
X3560539Y-7667150D02*
X3541491Y-7638579D01*
X3541491Y-7638579D02*
X3531968Y-7619531D01*
X3531968Y-7619531D02*
X3522444Y-7590960D01*
X3522444Y-7590960D02*
X3512920Y-7543341D01*
X3512920Y-7543341D02*
X3512920Y-7505246D01*
X3512920Y-7505246D02*
X3522444Y-7457627D01*
X3522444Y-7457627D02*
X3531968Y-7429055D01*
X3531968Y-7429055D02*
X3541491Y-7410008D01*
X3541491Y-7410008D02*
X3560539Y-7381436D01*
X3560539Y-7381436D02*
X3570063Y-7371912D01*
X3674825Y-7486198D02*
X3655777Y-7476674D01*
X3655777Y-7476674D02*
X3646253Y-7467150D01*
X3646253Y-7467150D02*
X3636729Y-7448103D01*
X3636729Y-7448103D02*
X3636729Y-7438579D01*
X3636729Y-7438579D02*
X3646253Y-7419531D01*
X3646253Y-7419531D02*
X3655777Y-7410008D01*
X3655777Y-7410008D02*
X3674825Y-7400484D01*
X3674825Y-7400484D02*
X3712920Y-7400484D01*
X3712920Y-7400484D02*
X3731968Y-7410008D01*
X3731968Y-7410008D02*
X3741491Y-7419531D01*
X3741491Y-7419531D02*
X3751015Y-7438579D01*
X3751015Y-7438579D02*
X3751015Y-7448103D01*
X3751015Y-7448103D02*
X3741491Y-7467150D01*
X3741491Y-7467150D02*
X3731968Y-7476674D01*
X3731968Y-7476674D02*
X3712920Y-7486198D01*
X3712920Y-7486198D02*
X3674825Y-7486198D01*
X3674825Y-7486198D02*
X3655777Y-7495722D01*
X3655777Y-7495722D02*
X3646253Y-7505246D01*
X3646253Y-7505246D02*
X3636729Y-7524293D01*
X3636729Y-7524293D02*
X3636729Y-7562388D01*
X3636729Y-7562388D02*
X3646253Y-7581436D01*
X3646253Y-7581436D02*
X3655777Y-7590960D01*
X3655777Y-7590960D02*
X3674825Y-7600484D01*
X3674825Y-7600484D02*
X3712920Y-7600484D01*
X3712920Y-7600484D02*
X3731968Y-7590960D01*
X3731968Y-7590960D02*
X3741491Y-7581436D01*
X3741491Y-7581436D02*
X3751015Y-7562388D01*
X3751015Y-7562388D02*
X3751015Y-7524293D01*
X3751015Y-7524293D02*
X3741491Y-7505246D01*
X3741491Y-7505246D02*
X3731968Y-7495722D01*
X3731968Y-7495722D02*
X3712920Y-7486198D01*
X3989110Y-7600484D02*
X3989110Y-7400484D01*
X4074825Y-7600484D02*
X4074825Y-7495722D01*
X4074825Y-7495722D02*
X4065301Y-7476674D01*
X4065301Y-7476674D02*
X4046253Y-7467150D01*
X4046253Y-7467150D02*
X4017682Y-7467150D01*
X4017682Y-7467150D02*
X3998634Y-7476674D01*
X3998634Y-7476674D02*
X3989110Y-7486198D01*
X4198634Y-7600484D02*
X4179587Y-7590960D01*
X4179587Y-7590960D02*
X4170063Y-7581436D01*
X4170063Y-7581436D02*
X4160539Y-7562388D01*
X4160539Y-7562388D02*
X4160539Y-7505246D01*
X4160539Y-7505246D02*
X4170063Y-7486198D01*
X4170063Y-7486198D02*
X4179587Y-7476674D01*
X4179587Y-7476674D02*
X4198634Y-7467150D01*
X4198634Y-7467150D02*
X4227206Y-7467150D01*
X4227206Y-7467150D02*
X4246253Y-7476674D01*
X4246253Y-7476674D02*
X4255777Y-7486198D01*
X4255777Y-7486198D02*
X4265301Y-7505246D01*
X4265301Y-7505246D02*
X4265301Y-7562388D01*
X4265301Y-7562388D02*
X4255777Y-7581436D01*
X4255777Y-7581436D02*
X4246253Y-7590960D01*
X4246253Y-7590960D02*
X4227206Y-7600484D01*
X4227206Y-7600484D02*
X4198634Y-7600484D01*
X4379587Y-7600484D02*
X4360539Y-7590960D01*
X4360539Y-7590960D02*
X4351015Y-7571912D01*
X4351015Y-7571912D02*
X4351015Y-7400484D01*
X4531968Y-7590960D02*
X4512920Y-7600484D01*
X4512920Y-7600484D02*
X4474825Y-7600484D01*
X4474825Y-7600484D02*
X4455777Y-7590960D01*
X4455777Y-7590960D02*
X4446253Y-7571912D01*
X4446253Y-7571912D02*
X4446253Y-7495722D01*
X4446253Y-7495722D02*
X4455777Y-7476674D01*
X4455777Y-7476674D02*
X4474825Y-7467150D01*
X4474825Y-7467150D02*
X4512920Y-7467150D01*
X4512920Y-7467150D02*
X4531968Y-7476674D01*
X4531968Y-7476674D02*
X4541492Y-7495722D01*
X4541492Y-7495722D02*
X4541492Y-7514769D01*
X4541492Y-7514769D02*
X4446253Y-7533817D01*
X4617682Y-7590960D02*
X4636730Y-7600484D01*
X4636730Y-7600484D02*
X4674825Y-7600484D01*
X4674825Y-7600484D02*
X4693873Y-7590960D01*
X4693873Y-7590960D02*
X4703396Y-7571912D01*
X4703396Y-7571912D02*
X4703396Y-7562388D01*
X4703396Y-7562388D02*
X4693873Y-7543341D01*
X4693873Y-7543341D02*
X4674825Y-7533817D01*
X4674825Y-7533817D02*
X4646253Y-7533817D01*
X4646253Y-7533817D02*
X4627206Y-7524293D01*
X4627206Y-7524293D02*
X4617682Y-7505246D01*
X4617682Y-7505246D02*
X4617682Y-7495722D01*
X4617682Y-7495722D02*
X4627206Y-7476674D01*
X4627206Y-7476674D02*
X4646253Y-7467150D01*
X4646253Y-7467150D02*
X4674825Y-7467150D01*
X4674825Y-7467150D02*
X4693873Y-7476674D01*
X4770063Y-7676674D02*
X4779587Y-7667150D01*
X4779587Y-7667150D02*
X4798634Y-7638579D01*
X4798634Y-7638579D02*
X4808158Y-7619531D01*
X4808158Y-7619531D02*
X4817682Y-7590960D01*
X4817682Y-7590960D02*
X4827206Y-7543341D01*
X4827206Y-7543341D02*
X4827206Y-7505246D01*
X4827206Y-7505246D02*
X4817682Y-7457627D01*
X4817682Y-7457627D02*
X4808158Y-7429055D01*
X4808158Y-7429055D02*
X4798634Y-7410008D01*
X4798634Y-7410008D02*
X4779587Y-7381436D01*
X4779587Y-7381436D02*
X4770063Y-7371912D01*
D10*
X-55000Y-7723000D02*
X-55000Y-7823000D01*
X-105000Y-7773000D02*
X-5000Y-7773000D01*
D11*
X360539Y-7864484D02*
X246253Y-7864484D01*
X303396Y-7864484D02*
X303396Y-7664484D01*
X303396Y-7664484D02*
X284348Y-7693055D01*
X284348Y-7693055D02*
X265301Y-7712103D01*
X265301Y-7712103D02*
X246253Y-7721627D01*
X446253Y-7845436D02*
X455777Y-7854960D01*
X455777Y-7854960D02*
X446253Y-7864484D01*
X446253Y-7864484D02*
X436729Y-7854960D01*
X436729Y-7854960D02*
X446253Y-7845436D01*
X446253Y-7845436D02*
X446253Y-7864484D01*
X579586Y-7664484D02*
X598634Y-7664484D01*
X598634Y-7664484D02*
X617682Y-7674008D01*
X617682Y-7674008D02*
X627205Y-7683531D01*
X627205Y-7683531D02*
X636729Y-7702579D01*
X636729Y-7702579D02*
X646253Y-7740674D01*
X646253Y-7740674D02*
X646253Y-7788293D01*
X646253Y-7788293D02*
X636729Y-7826388D01*
X636729Y-7826388D02*
X627205Y-7845436D01*
X627205Y-7845436D02*
X617682Y-7854960D01*
X617682Y-7854960D02*
X598634Y-7864484D01*
X598634Y-7864484D02*
X579586Y-7864484D01*
X579586Y-7864484D02*
X560539Y-7854960D01*
X560539Y-7854960D02*
X551015Y-7845436D01*
X551015Y-7845436D02*
X541491Y-7826388D01*
X541491Y-7826388D02*
X531967Y-7788293D01*
X531967Y-7788293D02*
X531967Y-7740674D01*
X531967Y-7740674D02*
X541491Y-7702579D01*
X541491Y-7702579D02*
X551015Y-7683531D01*
X551015Y-7683531D02*
X560539Y-7674008D01*
X560539Y-7674008D02*
X579586Y-7664484D01*
X770062Y-7664484D02*
X789110Y-7664484D01*
X789110Y-7664484D02*
X808158Y-7674008D01*
X808158Y-7674008D02*
X817682Y-7683531D01*
X817682Y-7683531D02*
X827205Y-7702579D01*
X827205Y-7702579D02*
X836729Y-7740674D01*
X836729Y-7740674D02*
X836729Y-7788293D01*
X836729Y-7788293D02*
X827205Y-7826388D01*
X827205Y-7826388D02*
X817682Y-7845436D01*
X817682Y-7845436D02*
X808158Y-7854960D01*
X808158Y-7854960D02*
X789110Y-7864484D01*
X789110Y-7864484D02*
X770062Y-7864484D01*
X770062Y-7864484D02*
X751015Y-7854960D01*
X751015Y-7854960D02*
X741491Y-7845436D01*
X741491Y-7845436D02*
X731967Y-7826388D01*
X731967Y-7826388D02*
X722443Y-7788293D01*
X722443Y-7788293D02*
X722443Y-7740674D01*
X722443Y-7740674D02*
X731967Y-7702579D01*
X731967Y-7702579D02*
X741491Y-7683531D01*
X741491Y-7683531D02*
X751015Y-7674008D01*
X751015Y-7674008D02*
X770062Y-7664484D01*
X960539Y-7664484D02*
X979586Y-7664484D01*
X979586Y-7664484D02*
X998634Y-7674008D01*
X998634Y-7674008D02*
X1008158Y-7683531D01*
X1008158Y-7683531D02*
X1017682Y-7702579D01*
X1017682Y-7702579D02*
X1027205Y-7740674D01*
X1027205Y-7740674D02*
X1027205Y-7788293D01*
X1027205Y-7788293D02*
X1017682Y-7826388D01*
X1017682Y-7826388D02*
X1008158Y-7845436D01*
X1008158Y-7845436D02*
X998634Y-7854960D01*
X998634Y-7854960D02*
X979586Y-7864484D01*
X979586Y-7864484D02*
X960539Y-7864484D01*
X960539Y-7864484D02*
X941491Y-7854960D01*
X941491Y-7854960D02*
X931967Y-7845436D01*
X931967Y-7845436D02*
X922443Y-7826388D01*
X922443Y-7826388D02*
X912920Y-7788293D01*
X912920Y-7788293D02*
X912920Y-7740674D01*
X912920Y-7740674D02*
X922443Y-7702579D01*
X922443Y-7702579D02*
X931967Y-7683531D01*
X931967Y-7683531D02*
X941491Y-7674008D01*
X941491Y-7674008D02*
X960539Y-7664484D01*
X1112920Y-7864484D02*
X1112920Y-7731150D01*
X1112920Y-7750198D02*
X1122444Y-7740674D01*
X1122444Y-7740674D02*
X1141491Y-7731150D01*
X1141491Y-7731150D02*
X1170063Y-7731150D01*
X1170063Y-7731150D02*
X1189110Y-7740674D01*
X1189110Y-7740674D02*
X1198634Y-7759722D01*
X1198634Y-7759722D02*
X1198634Y-7864484D01*
X1198634Y-7759722D02*
X1208158Y-7740674D01*
X1208158Y-7740674D02*
X1227205Y-7731150D01*
X1227205Y-7731150D02*
X1255777Y-7731150D01*
X1255777Y-7731150D02*
X1274825Y-7740674D01*
X1274825Y-7740674D02*
X1284348Y-7759722D01*
X1284348Y-7759722D02*
X1284348Y-7864484D01*
X1379586Y-7864484D02*
X1379586Y-7731150D01*
X1379586Y-7750198D02*
X1389110Y-7740674D01*
X1389110Y-7740674D02*
X1408158Y-7731150D01*
X1408158Y-7731150D02*
X1436729Y-7731150D01*
X1436729Y-7731150D02*
X1455777Y-7740674D01*
X1455777Y-7740674D02*
X1465301Y-7759722D01*
X1465301Y-7759722D02*
X1465301Y-7864484D01*
X1465301Y-7759722D02*
X1474824Y-7740674D01*
X1474824Y-7740674D02*
X1493872Y-7731150D01*
X1493872Y-7731150D02*
X1522443Y-7731150D01*
X1522443Y-7731150D02*
X1541491Y-7740674D01*
X1541491Y-7740674D02*
X1551015Y-7759722D01*
X1551015Y-7759722D02*
X1551015Y-7864484D01*
X1941491Y-7654960D02*
X1770063Y-7912103D01*
X2198634Y-7664484D02*
X2217682Y-7664484D01*
X2217682Y-7664484D02*
X2236729Y-7674008D01*
X2236729Y-7674008D02*
X2246253Y-7683531D01*
X2246253Y-7683531D02*
X2255777Y-7702579D01*
X2255777Y-7702579D02*
X2265301Y-7740674D01*
X2265301Y-7740674D02*
X2265301Y-7788293D01*
X2265301Y-7788293D02*
X2255777Y-7826388D01*
X2255777Y-7826388D02*
X2246253Y-7845436D01*
X2246253Y-7845436D02*
X2236729Y-7854960D01*
X2236729Y-7854960D02*
X2217682Y-7864484D01*
X2217682Y-7864484D02*
X2198634Y-7864484D01*
X2198634Y-7864484D02*
X2179587Y-7854960D01*
X2179587Y-7854960D02*
X2170063Y-7845436D01*
X2170063Y-7845436D02*
X2160539Y-7826388D01*
X2160539Y-7826388D02*
X2151015Y-7788293D01*
X2151015Y-7788293D02*
X2151015Y-7740674D01*
X2151015Y-7740674D02*
X2160539Y-7702579D01*
X2160539Y-7702579D02*
X2170063Y-7683531D01*
X2170063Y-7683531D02*
X2179587Y-7674008D01*
X2179587Y-7674008D02*
X2198634Y-7664484D01*
X2351015Y-7845436D02*
X2360539Y-7854960D01*
X2360539Y-7854960D02*
X2351015Y-7864484D01*
X2351015Y-7864484D02*
X2341491Y-7854960D01*
X2341491Y-7854960D02*
X2351015Y-7845436D01*
X2351015Y-7845436D02*
X2351015Y-7864484D01*
X2484348Y-7664484D02*
X2503396Y-7664484D01*
X2503396Y-7664484D02*
X2522444Y-7674008D01*
X2522444Y-7674008D02*
X2531968Y-7683531D01*
X2531968Y-7683531D02*
X2541491Y-7702579D01*
X2541491Y-7702579D02*
X2551015Y-7740674D01*
X2551015Y-7740674D02*
X2551015Y-7788293D01*
X2551015Y-7788293D02*
X2541491Y-7826388D01*
X2541491Y-7826388D02*
X2531968Y-7845436D01*
X2531968Y-7845436D02*
X2522444Y-7854960D01*
X2522444Y-7854960D02*
X2503396Y-7864484D01*
X2503396Y-7864484D02*
X2484348Y-7864484D01*
X2484348Y-7864484D02*
X2465301Y-7854960D01*
X2465301Y-7854960D02*
X2455777Y-7845436D01*
X2455777Y-7845436D02*
X2446253Y-7826388D01*
X2446253Y-7826388D02*
X2436729Y-7788293D01*
X2436729Y-7788293D02*
X2436729Y-7740674D01*
X2436729Y-7740674D02*
X2446253Y-7702579D01*
X2446253Y-7702579D02*
X2455777Y-7683531D01*
X2455777Y-7683531D02*
X2465301Y-7674008D01*
X2465301Y-7674008D02*
X2484348Y-7664484D01*
X2617682Y-7664484D02*
X2741491Y-7664484D01*
X2741491Y-7664484D02*
X2674825Y-7740674D01*
X2674825Y-7740674D02*
X2703396Y-7740674D01*
X2703396Y-7740674D02*
X2722444Y-7750198D01*
X2722444Y-7750198D02*
X2731968Y-7759722D01*
X2731968Y-7759722D02*
X2741491Y-7778769D01*
X2741491Y-7778769D02*
X2741491Y-7826388D01*
X2741491Y-7826388D02*
X2731968Y-7845436D01*
X2731968Y-7845436D02*
X2722444Y-7854960D01*
X2722444Y-7854960D02*
X2703396Y-7864484D01*
X2703396Y-7864484D02*
X2646253Y-7864484D01*
X2646253Y-7864484D02*
X2627206Y-7854960D01*
X2627206Y-7854960D02*
X2617682Y-7845436D01*
X2836729Y-7864484D02*
X2874825Y-7864484D01*
X2874825Y-7864484D02*
X2893872Y-7854960D01*
X2893872Y-7854960D02*
X2903396Y-7845436D01*
X2903396Y-7845436D02*
X2922444Y-7816865D01*
X2922444Y-7816865D02*
X2931967Y-7778769D01*
X2931967Y-7778769D02*
X2931967Y-7702579D01*
X2931967Y-7702579D02*
X2922444Y-7683531D01*
X2922444Y-7683531D02*
X2912920Y-7674008D01*
X2912920Y-7674008D02*
X2893872Y-7664484D01*
X2893872Y-7664484D02*
X2855777Y-7664484D01*
X2855777Y-7664484D02*
X2836729Y-7674008D01*
X2836729Y-7674008D02*
X2827206Y-7683531D01*
X2827206Y-7683531D02*
X2817682Y-7702579D01*
X2817682Y-7702579D02*
X2817682Y-7750198D01*
X2817682Y-7750198D02*
X2827206Y-7769246D01*
X2827206Y-7769246D02*
X2836729Y-7778769D01*
X2836729Y-7778769D02*
X2855777Y-7788293D01*
X2855777Y-7788293D02*
X2893872Y-7788293D01*
X2893872Y-7788293D02*
X2912920Y-7778769D01*
X2912920Y-7778769D02*
X2922444Y-7769246D01*
X2922444Y-7769246D02*
X2931967Y-7750198D01*
X3103396Y-7731150D02*
X3103396Y-7864484D01*
X3055777Y-7654960D02*
X3008158Y-7797817D01*
X3008158Y-7797817D02*
X3131967Y-7797817D01*
X3198634Y-7664484D02*
X3198634Y-7702579D01*
X3274825Y-7664484D02*
X3274825Y-7702579D01*
X3570063Y-7940674D02*
X3560539Y-7931150D01*
X3560539Y-7931150D02*
X3541491Y-7902579D01*
X3541491Y-7902579D02*
X3531968Y-7883531D01*
X3531968Y-7883531D02*
X3522444Y-7854960D01*
X3522444Y-7854960D02*
X3512920Y-7807341D01*
X3512920Y-7807341D02*
X3512920Y-7769246D01*
X3512920Y-7769246D02*
X3522444Y-7721627D01*
X3522444Y-7721627D02*
X3531968Y-7693055D01*
X3531968Y-7693055D02*
X3541491Y-7674008D01*
X3541491Y-7674008D02*
X3560539Y-7645436D01*
X3560539Y-7645436D02*
X3570063Y-7635912D01*
X3627206Y-7664484D02*
X3751015Y-7664484D01*
X3751015Y-7664484D02*
X3684348Y-7740674D01*
X3684348Y-7740674D02*
X3712920Y-7740674D01*
X3712920Y-7740674D02*
X3731968Y-7750198D01*
X3731968Y-7750198D02*
X3741491Y-7759722D01*
X3741491Y-7759722D02*
X3751015Y-7778769D01*
X3751015Y-7778769D02*
X3751015Y-7826388D01*
X3751015Y-7826388D02*
X3741491Y-7845436D01*
X3741491Y-7845436D02*
X3731968Y-7854960D01*
X3731968Y-7854960D02*
X3712920Y-7864484D01*
X3712920Y-7864484D02*
X3655777Y-7864484D01*
X3655777Y-7864484D02*
X3636729Y-7854960D01*
X3636729Y-7854960D02*
X3627206Y-7845436D01*
X3989110Y-7864484D02*
X3989110Y-7664484D01*
X4074825Y-7864484D02*
X4074825Y-7759722D01*
X4074825Y-7759722D02*
X4065301Y-7740674D01*
X4065301Y-7740674D02*
X4046253Y-7731150D01*
X4046253Y-7731150D02*
X4017682Y-7731150D01*
X4017682Y-7731150D02*
X3998634Y-7740674D01*
X3998634Y-7740674D02*
X3989110Y-7750198D01*
X4198634Y-7864484D02*
X4179587Y-7854960D01*
X4179587Y-7854960D02*
X4170063Y-7845436D01*
X4170063Y-7845436D02*
X4160539Y-7826388D01*
X4160539Y-7826388D02*
X4160539Y-7769246D01*
X4160539Y-7769246D02*
X4170063Y-7750198D01*
X4170063Y-7750198D02*
X4179587Y-7740674D01*
X4179587Y-7740674D02*
X4198634Y-7731150D01*
X4198634Y-7731150D02*
X4227206Y-7731150D01*
X4227206Y-7731150D02*
X4246253Y-7740674D01*
X4246253Y-7740674D02*
X4255777Y-7750198D01*
X4255777Y-7750198D02*
X4265301Y-7769246D01*
X4265301Y-7769246D02*
X4265301Y-7826388D01*
X4265301Y-7826388D02*
X4255777Y-7845436D01*
X4255777Y-7845436D02*
X4246253Y-7854960D01*
X4246253Y-7854960D02*
X4227206Y-7864484D01*
X4227206Y-7864484D02*
X4198634Y-7864484D01*
X4379587Y-7864484D02*
X4360539Y-7854960D01*
X4360539Y-7854960D02*
X4351015Y-7835912D01*
X4351015Y-7835912D02*
X4351015Y-7664484D01*
X4531968Y-7854960D02*
X4512920Y-7864484D01*
X4512920Y-7864484D02*
X4474825Y-7864484D01*
X4474825Y-7864484D02*
X4455777Y-7854960D01*
X4455777Y-7854960D02*
X4446253Y-7835912D01*
X4446253Y-7835912D02*
X4446253Y-7759722D01*
X4446253Y-7759722D02*
X4455777Y-7740674D01*
X4455777Y-7740674D02*
X4474825Y-7731150D01*
X4474825Y-7731150D02*
X4512920Y-7731150D01*
X4512920Y-7731150D02*
X4531968Y-7740674D01*
X4531968Y-7740674D02*
X4541492Y-7759722D01*
X4541492Y-7759722D02*
X4541492Y-7778769D01*
X4541492Y-7778769D02*
X4446253Y-7797817D01*
X4617682Y-7854960D02*
X4636730Y-7864484D01*
X4636730Y-7864484D02*
X4674825Y-7864484D01*
X4674825Y-7864484D02*
X4693873Y-7854960D01*
X4693873Y-7854960D02*
X4703396Y-7835912D01*
X4703396Y-7835912D02*
X4703396Y-7826388D01*
X4703396Y-7826388D02*
X4693873Y-7807341D01*
X4693873Y-7807341D02*
X4674825Y-7797817D01*
X4674825Y-7797817D02*
X4646253Y-7797817D01*
X4646253Y-7797817D02*
X4627206Y-7788293D01*
X4627206Y-7788293D02*
X4617682Y-7769246D01*
X4617682Y-7769246D02*
X4617682Y-7759722D01*
X4617682Y-7759722D02*
X4627206Y-7740674D01*
X4627206Y-7740674D02*
X4646253Y-7731150D01*
X4646253Y-7731150D02*
X4674825Y-7731150D01*
X4674825Y-7731150D02*
X4693873Y-7740674D01*
X4770063Y-7940674D02*
X4779587Y-7931150D01*
X4779587Y-7931150D02*
X4798634Y-7902579D01*
X4798634Y-7902579D02*
X4808158Y-7883531D01*
X4808158Y-7883531D02*
X4817682Y-7854960D01*
X4817682Y-7854960D02*
X4827206Y-7807341D01*
X4827206Y-7807341D02*
X4827206Y-7769246D01*
X4827206Y-7769246D02*
X4817682Y-7721627D01*
X4817682Y-7721627D02*
X4808158Y-7693055D01*
X4808158Y-7693055D02*
X4798634Y-7674008D01*
X4798634Y-7674008D02*
X4779587Y-7645436D01*
X4779587Y-7645436D02*
X4770063Y-7635912D01*
D12*
X-21109Y-8075892D02*
X-21109Y-7998108D01*
X-98893Y-7998108D01*
X-98893Y-8075892D01*
X-21109Y-8075892D01*
D11*
X360539Y-8128484D02*
X246253Y-8128484D01*
X303396Y-8128484D02*
X303396Y-7928484D01*
X303396Y-7928484D02*
X284348Y-7957055D01*
X284348Y-7957055D02*
X265301Y-7976103D01*
X265301Y-7976103D02*
X246253Y-7985627D01*
X446253Y-8109436D02*
X455777Y-8118960D01*
X455777Y-8118960D02*
X446253Y-8128484D01*
X446253Y-8128484D02*
X436729Y-8118960D01*
X436729Y-8118960D02*
X446253Y-8109436D01*
X446253Y-8109436D02*
X446253Y-8128484D01*
X646253Y-8128484D02*
X531967Y-8128484D01*
X589110Y-8128484D02*
X589110Y-7928484D01*
X589110Y-7928484D02*
X570063Y-7957055D01*
X570063Y-7957055D02*
X551015Y-7976103D01*
X551015Y-7976103D02*
X531967Y-7985627D01*
X770062Y-7928484D02*
X789110Y-7928484D01*
X789110Y-7928484D02*
X808158Y-7938008D01*
X808158Y-7938008D02*
X817682Y-7947531D01*
X817682Y-7947531D02*
X827205Y-7966579D01*
X827205Y-7966579D02*
X836729Y-8004674D01*
X836729Y-8004674D02*
X836729Y-8052293D01*
X836729Y-8052293D02*
X827205Y-8090388D01*
X827205Y-8090388D02*
X817682Y-8109436D01*
X817682Y-8109436D02*
X808158Y-8118960D01*
X808158Y-8118960D02*
X789110Y-8128484D01*
X789110Y-8128484D02*
X770062Y-8128484D01*
X770062Y-8128484D02*
X751015Y-8118960D01*
X751015Y-8118960D02*
X741491Y-8109436D01*
X741491Y-8109436D02*
X731967Y-8090388D01*
X731967Y-8090388D02*
X722443Y-8052293D01*
X722443Y-8052293D02*
X722443Y-8004674D01*
X722443Y-8004674D02*
X731967Y-7966579D01*
X731967Y-7966579D02*
X741491Y-7947531D01*
X741491Y-7947531D02*
X751015Y-7938008D01*
X751015Y-7938008D02*
X770062Y-7928484D01*
X960539Y-7928484D02*
X979586Y-7928484D01*
X979586Y-7928484D02*
X998634Y-7938008D01*
X998634Y-7938008D02*
X1008158Y-7947531D01*
X1008158Y-7947531D02*
X1017682Y-7966579D01*
X1017682Y-7966579D02*
X1027205Y-8004674D01*
X1027205Y-8004674D02*
X1027205Y-8052293D01*
X1027205Y-8052293D02*
X1017682Y-8090388D01*
X1017682Y-8090388D02*
X1008158Y-8109436D01*
X1008158Y-8109436D02*
X998634Y-8118960D01*
X998634Y-8118960D02*
X979586Y-8128484D01*
X979586Y-8128484D02*
X960539Y-8128484D01*
X960539Y-8128484D02*
X941491Y-8118960D01*
X941491Y-8118960D02*
X931967Y-8109436D01*
X931967Y-8109436D02*
X922443Y-8090388D01*
X922443Y-8090388D02*
X912920Y-8052293D01*
X912920Y-8052293D02*
X912920Y-8004674D01*
X912920Y-8004674D02*
X922443Y-7966579D01*
X922443Y-7966579D02*
X931967Y-7947531D01*
X931967Y-7947531D02*
X941491Y-7938008D01*
X941491Y-7938008D02*
X960539Y-7928484D01*
X1112920Y-8128484D02*
X1112920Y-7995150D01*
X1112920Y-8014198D02*
X1122444Y-8004674D01*
X1122444Y-8004674D02*
X1141491Y-7995150D01*
X1141491Y-7995150D02*
X1170063Y-7995150D01*
X1170063Y-7995150D02*
X1189110Y-8004674D01*
X1189110Y-8004674D02*
X1198634Y-8023722D01*
X1198634Y-8023722D02*
X1198634Y-8128484D01*
X1198634Y-8023722D02*
X1208158Y-8004674D01*
X1208158Y-8004674D02*
X1227205Y-7995150D01*
X1227205Y-7995150D02*
X1255777Y-7995150D01*
X1255777Y-7995150D02*
X1274825Y-8004674D01*
X1274825Y-8004674D02*
X1284348Y-8023722D01*
X1284348Y-8023722D02*
X1284348Y-8128484D01*
X1379586Y-8128484D02*
X1379586Y-7995150D01*
X1379586Y-8014198D02*
X1389110Y-8004674D01*
X1389110Y-8004674D02*
X1408158Y-7995150D01*
X1408158Y-7995150D02*
X1436729Y-7995150D01*
X1436729Y-7995150D02*
X1455777Y-8004674D01*
X1455777Y-8004674D02*
X1465301Y-8023722D01*
X1465301Y-8023722D02*
X1465301Y-8128484D01*
X1465301Y-8023722D02*
X1474824Y-8004674D01*
X1474824Y-8004674D02*
X1493872Y-7995150D01*
X1493872Y-7995150D02*
X1522443Y-7995150D01*
X1522443Y-7995150D02*
X1541491Y-8004674D01*
X1541491Y-8004674D02*
X1551015Y-8023722D01*
X1551015Y-8023722D02*
X1551015Y-8128484D01*
X1941491Y-7918960D02*
X1770063Y-8176103D01*
X2198634Y-7928484D02*
X2217682Y-7928484D01*
X2217682Y-7928484D02*
X2236729Y-7938008D01*
X2236729Y-7938008D02*
X2246253Y-7947531D01*
X2246253Y-7947531D02*
X2255777Y-7966579D01*
X2255777Y-7966579D02*
X2265301Y-8004674D01*
X2265301Y-8004674D02*
X2265301Y-8052293D01*
X2265301Y-8052293D02*
X2255777Y-8090388D01*
X2255777Y-8090388D02*
X2246253Y-8109436D01*
X2246253Y-8109436D02*
X2236729Y-8118960D01*
X2236729Y-8118960D02*
X2217682Y-8128484D01*
X2217682Y-8128484D02*
X2198634Y-8128484D01*
X2198634Y-8128484D02*
X2179587Y-8118960D01*
X2179587Y-8118960D02*
X2170063Y-8109436D01*
X2170063Y-8109436D02*
X2160539Y-8090388D01*
X2160539Y-8090388D02*
X2151015Y-8052293D01*
X2151015Y-8052293D02*
X2151015Y-8004674D01*
X2151015Y-8004674D02*
X2160539Y-7966579D01*
X2160539Y-7966579D02*
X2170063Y-7947531D01*
X2170063Y-7947531D02*
X2179587Y-7938008D01*
X2179587Y-7938008D02*
X2198634Y-7928484D01*
X2351015Y-8109436D02*
X2360539Y-8118960D01*
X2360539Y-8118960D02*
X2351015Y-8128484D01*
X2351015Y-8128484D02*
X2341491Y-8118960D01*
X2341491Y-8118960D02*
X2351015Y-8109436D01*
X2351015Y-8109436D02*
X2351015Y-8128484D01*
X2484348Y-7928484D02*
X2503396Y-7928484D01*
X2503396Y-7928484D02*
X2522444Y-7938008D01*
X2522444Y-7938008D02*
X2531968Y-7947531D01*
X2531968Y-7947531D02*
X2541491Y-7966579D01*
X2541491Y-7966579D02*
X2551015Y-8004674D01*
X2551015Y-8004674D02*
X2551015Y-8052293D01*
X2551015Y-8052293D02*
X2541491Y-8090388D01*
X2541491Y-8090388D02*
X2531968Y-8109436D01*
X2531968Y-8109436D02*
X2522444Y-8118960D01*
X2522444Y-8118960D02*
X2503396Y-8128484D01*
X2503396Y-8128484D02*
X2484348Y-8128484D01*
X2484348Y-8128484D02*
X2465301Y-8118960D01*
X2465301Y-8118960D02*
X2455777Y-8109436D01*
X2455777Y-8109436D02*
X2446253Y-8090388D01*
X2446253Y-8090388D02*
X2436729Y-8052293D01*
X2436729Y-8052293D02*
X2436729Y-8004674D01*
X2436729Y-8004674D02*
X2446253Y-7966579D01*
X2446253Y-7966579D02*
X2455777Y-7947531D01*
X2455777Y-7947531D02*
X2465301Y-7938008D01*
X2465301Y-7938008D02*
X2484348Y-7928484D01*
X2722444Y-7995150D02*
X2722444Y-8128484D01*
X2674825Y-7918960D02*
X2627206Y-8061817D01*
X2627206Y-8061817D02*
X2751015Y-8061817D01*
X2808158Y-7928484D02*
X2931967Y-7928484D01*
X2931967Y-7928484D02*
X2865301Y-8004674D01*
X2865301Y-8004674D02*
X2893872Y-8004674D01*
X2893872Y-8004674D02*
X2912920Y-8014198D01*
X2912920Y-8014198D02*
X2922444Y-8023722D01*
X2922444Y-8023722D02*
X2931967Y-8042769D01*
X2931967Y-8042769D02*
X2931967Y-8090388D01*
X2931967Y-8090388D02*
X2922444Y-8109436D01*
X2922444Y-8109436D02*
X2912920Y-8118960D01*
X2912920Y-8118960D02*
X2893872Y-8128484D01*
X2893872Y-8128484D02*
X2836729Y-8128484D01*
X2836729Y-8128484D02*
X2817682Y-8118960D01*
X2817682Y-8118960D02*
X2808158Y-8109436D01*
X2998634Y-7928484D02*
X3122444Y-7928484D01*
X3122444Y-7928484D02*
X3055777Y-8004674D01*
X3055777Y-8004674D02*
X3084348Y-8004674D01*
X3084348Y-8004674D02*
X3103396Y-8014198D01*
X3103396Y-8014198D02*
X3112920Y-8023722D01*
X3112920Y-8023722D02*
X3122444Y-8042769D01*
X3122444Y-8042769D02*
X3122444Y-8090388D01*
X3122444Y-8090388D02*
X3112920Y-8109436D01*
X3112920Y-8109436D02*
X3103396Y-8118960D01*
X3103396Y-8118960D02*
X3084348Y-8128484D01*
X3084348Y-8128484D02*
X3027206Y-8128484D01*
X3027206Y-8128484D02*
X3008158Y-8118960D01*
X3008158Y-8118960D02*
X2998634Y-8109436D01*
X3198634Y-7928484D02*
X3198634Y-7966579D01*
X3274825Y-7928484D02*
X3274825Y-7966579D01*
X3570063Y-8204674D02*
X3560539Y-8195150D01*
X3560539Y-8195150D02*
X3541491Y-8166579D01*
X3541491Y-8166579D02*
X3531968Y-8147531D01*
X3531968Y-8147531D02*
X3522444Y-8118960D01*
X3522444Y-8118960D02*
X3512920Y-8071341D01*
X3512920Y-8071341D02*
X3512920Y-8033246D01*
X3512920Y-8033246D02*
X3522444Y-7985627D01*
X3522444Y-7985627D02*
X3531968Y-7957055D01*
X3531968Y-7957055D02*
X3541491Y-7938008D01*
X3541491Y-7938008D02*
X3560539Y-7909436D01*
X3560539Y-7909436D02*
X3570063Y-7899912D01*
X3731968Y-7995150D02*
X3731968Y-8128484D01*
X3684348Y-7918960D02*
X3636729Y-8061817D01*
X3636729Y-8061817D02*
X3760539Y-8061817D01*
X3874825Y-7928484D02*
X3893872Y-7928484D01*
X3893872Y-7928484D02*
X3912920Y-7938008D01*
X3912920Y-7938008D02*
X3922444Y-7947531D01*
X3922444Y-7947531D02*
X3931968Y-7966579D01*
X3931968Y-7966579D02*
X3941491Y-8004674D01*
X3941491Y-8004674D02*
X3941491Y-8052293D01*
X3941491Y-8052293D02*
X3931968Y-8090388D01*
X3931968Y-8090388D02*
X3922444Y-8109436D01*
X3922444Y-8109436D02*
X3912920Y-8118960D01*
X3912920Y-8118960D02*
X3893872Y-8128484D01*
X3893872Y-8128484D02*
X3874825Y-8128484D01*
X3874825Y-8128484D02*
X3855777Y-8118960D01*
X3855777Y-8118960D02*
X3846253Y-8109436D01*
X3846253Y-8109436D02*
X3836729Y-8090388D01*
X3836729Y-8090388D02*
X3827206Y-8052293D01*
X3827206Y-8052293D02*
X3827206Y-8004674D01*
X3827206Y-8004674D02*
X3836729Y-7966579D01*
X3836729Y-7966579D02*
X3846253Y-7947531D01*
X3846253Y-7947531D02*
X3855777Y-7938008D01*
X3855777Y-7938008D02*
X3874825Y-7928484D01*
X4179587Y-8128484D02*
X4179587Y-7928484D01*
X4265301Y-8128484D02*
X4265301Y-8023722D01*
X4265301Y-8023722D02*
X4255777Y-8004674D01*
X4255777Y-8004674D02*
X4236730Y-7995150D01*
X4236730Y-7995150D02*
X4208158Y-7995150D01*
X4208158Y-7995150D02*
X4189110Y-8004674D01*
X4189110Y-8004674D02*
X4179587Y-8014198D01*
X4389111Y-8128484D02*
X4370063Y-8118960D01*
X4370063Y-8118960D02*
X4360539Y-8109436D01*
X4360539Y-8109436D02*
X4351015Y-8090388D01*
X4351015Y-8090388D02*
X4351015Y-8033246D01*
X4351015Y-8033246D02*
X4360539Y-8014198D01*
X4360539Y-8014198D02*
X4370063Y-8004674D01*
X4370063Y-8004674D02*
X4389111Y-7995150D01*
X4389111Y-7995150D02*
X4417682Y-7995150D01*
X4417682Y-7995150D02*
X4436730Y-8004674D01*
X4436730Y-8004674D02*
X4446253Y-8014198D01*
X4446253Y-8014198D02*
X4455777Y-8033246D01*
X4455777Y-8033246D02*
X4455777Y-8090388D01*
X4455777Y-8090388D02*
X4446253Y-8109436D01*
X4446253Y-8109436D02*
X4436730Y-8118960D01*
X4436730Y-8118960D02*
X4417682Y-8128484D01*
X4417682Y-8128484D02*
X4389111Y-8128484D01*
X4570063Y-8128484D02*
X4551015Y-8118960D01*
X4551015Y-8118960D02*
X4541492Y-8099912D01*
X4541492Y-8099912D02*
X4541492Y-7928484D01*
X4722444Y-8118960D02*
X4703396Y-8128484D01*
X4703396Y-8128484D02*
X4665301Y-8128484D01*
X4665301Y-8128484D02*
X4646253Y-8118960D01*
X4646253Y-8118960D02*
X4636730Y-8099912D01*
X4636730Y-8099912D02*
X4636730Y-8023722D01*
X4636730Y-8023722D02*
X4646253Y-8004674D01*
X4646253Y-8004674D02*
X4665301Y-7995150D01*
X4665301Y-7995150D02*
X4703396Y-7995150D01*
X4703396Y-7995150D02*
X4722444Y-8004674D01*
X4722444Y-8004674D02*
X4731968Y-8023722D01*
X4731968Y-8023722D02*
X4731968Y-8042769D01*
X4731968Y-8042769D02*
X4636730Y-8061817D01*
X4808158Y-8118960D02*
X4827206Y-8128484D01*
X4827206Y-8128484D02*
X4865301Y-8128484D01*
X4865301Y-8128484D02*
X4884349Y-8118960D01*
X4884349Y-8118960D02*
X4893873Y-8099912D01*
X4893873Y-8099912D02*
X4893873Y-8090388D01*
X4893873Y-8090388D02*
X4884349Y-8071341D01*
X4884349Y-8071341D02*
X4865301Y-8061817D01*
X4865301Y-8061817D02*
X4836730Y-8061817D01*
X4836730Y-8061817D02*
X4817682Y-8052293D01*
X4817682Y-8052293D02*
X4808158Y-8033246D01*
X4808158Y-8033246D02*
X4808158Y-8023722D01*
X4808158Y-8023722D02*
X4817682Y-8004674D01*
X4817682Y-8004674D02*
X4836730Y-7995150D01*
X4836730Y-7995150D02*
X4865301Y-7995150D01*
X4865301Y-7995150D02*
X4884349Y-8004674D01*
X4960539Y-8204674D02*
X4970063Y-8195150D01*
X4970063Y-8195150D02*
X4989111Y-8166579D01*
X4989111Y-8166579D02*
X4998634Y-8147531D01*
X4998634Y-8147531D02*
X5008158Y-8118960D01*
X5008158Y-8118960D02*
X5017682Y-8071341D01*
X5017682Y-8071341D02*
X5017682Y-8033246D01*
X5017682Y-8033246D02*
X5008158Y-7985627D01*
X5008158Y-7985627D02*
X4998634Y-7957055D01*
X4998634Y-7957055D02*
X4989111Y-7938008D01*
X4989111Y-7938008D02*
X4970063Y-7909436D01*
X4970063Y-7909436D02*
X4960539Y-7899912D01*
D13*
X-75000Y-8371000D02*
X-5000Y-8301000D01*
X-75000Y-8231000D01*
X-145000Y-8301000D01*
X-75000Y-8371000D01*
D11*
X360539Y-8392484D02*
X246253Y-8392484D01*
X303396Y-8392484D02*
X303396Y-8192484D01*
X303396Y-8192484D02*
X284348Y-8221055D01*
X284348Y-8221055D02*
X265301Y-8240103D01*
X265301Y-8240103D02*
X246253Y-8249627D01*
X446253Y-8373436D02*
X455777Y-8382960D01*
X455777Y-8382960D02*
X446253Y-8392484D01*
X446253Y-8392484D02*
X436729Y-8382960D01*
X436729Y-8382960D02*
X446253Y-8373436D01*
X446253Y-8373436D02*
X446253Y-8392484D01*
X627205Y-8259150D02*
X627205Y-8392484D01*
X579586Y-8182960D02*
X531967Y-8325817D01*
X531967Y-8325817D02*
X655777Y-8325817D01*
X770062Y-8192484D02*
X789110Y-8192484D01*
X789110Y-8192484D02*
X808158Y-8202008D01*
X808158Y-8202008D02*
X817682Y-8211531D01*
X817682Y-8211531D02*
X827205Y-8230579D01*
X827205Y-8230579D02*
X836729Y-8268674D01*
X836729Y-8268674D02*
X836729Y-8316293D01*
X836729Y-8316293D02*
X827205Y-8354388D01*
X827205Y-8354388D02*
X817682Y-8373436D01*
X817682Y-8373436D02*
X808158Y-8382960D01*
X808158Y-8382960D02*
X789110Y-8392484D01*
X789110Y-8392484D02*
X770062Y-8392484D01*
X770062Y-8392484D02*
X751015Y-8382960D01*
X751015Y-8382960D02*
X741491Y-8373436D01*
X741491Y-8373436D02*
X731967Y-8354388D01*
X731967Y-8354388D02*
X722443Y-8316293D01*
X722443Y-8316293D02*
X722443Y-8268674D01*
X722443Y-8268674D02*
X731967Y-8230579D01*
X731967Y-8230579D02*
X741491Y-8211531D01*
X741491Y-8211531D02*
X751015Y-8202008D01*
X751015Y-8202008D02*
X770062Y-8192484D01*
X960539Y-8192484D02*
X979586Y-8192484D01*
X979586Y-8192484D02*
X998634Y-8202008D01*
X998634Y-8202008D02*
X1008158Y-8211531D01*
X1008158Y-8211531D02*
X1017682Y-8230579D01*
X1017682Y-8230579D02*
X1027205Y-8268674D01*
X1027205Y-8268674D02*
X1027205Y-8316293D01*
X1027205Y-8316293D02*
X1017682Y-8354388D01*
X1017682Y-8354388D02*
X1008158Y-8373436D01*
X1008158Y-8373436D02*
X998634Y-8382960D01*
X998634Y-8382960D02*
X979586Y-8392484D01*
X979586Y-8392484D02*
X960539Y-8392484D01*
X960539Y-8392484D02*
X941491Y-8382960D01*
X941491Y-8382960D02*
X931967Y-8373436D01*
X931967Y-8373436D02*
X922443Y-8354388D01*
X922443Y-8354388D02*
X912920Y-8316293D01*
X912920Y-8316293D02*
X912920Y-8268674D01*
X912920Y-8268674D02*
X922443Y-8230579D01*
X922443Y-8230579D02*
X931967Y-8211531D01*
X931967Y-8211531D02*
X941491Y-8202008D01*
X941491Y-8202008D02*
X960539Y-8192484D01*
X1112920Y-8392484D02*
X1112920Y-8259150D01*
X1112920Y-8278198D02*
X1122444Y-8268674D01*
X1122444Y-8268674D02*
X1141491Y-8259150D01*
X1141491Y-8259150D02*
X1170063Y-8259150D01*
X1170063Y-8259150D02*
X1189110Y-8268674D01*
X1189110Y-8268674D02*
X1198634Y-8287722D01*
X1198634Y-8287722D02*
X1198634Y-8392484D01*
X1198634Y-8287722D02*
X1208158Y-8268674D01*
X1208158Y-8268674D02*
X1227205Y-8259150D01*
X1227205Y-8259150D02*
X1255777Y-8259150D01*
X1255777Y-8259150D02*
X1274825Y-8268674D01*
X1274825Y-8268674D02*
X1284348Y-8287722D01*
X1284348Y-8287722D02*
X1284348Y-8392484D01*
X1379586Y-8392484D02*
X1379586Y-8259150D01*
X1379586Y-8278198D02*
X1389110Y-8268674D01*
X1389110Y-8268674D02*
X1408158Y-8259150D01*
X1408158Y-8259150D02*
X1436729Y-8259150D01*
X1436729Y-8259150D02*
X1455777Y-8268674D01*
X1455777Y-8268674D02*
X1465301Y-8287722D01*
X1465301Y-8287722D02*
X1465301Y-8392484D01*
X1465301Y-8287722D02*
X1474824Y-8268674D01*
X1474824Y-8268674D02*
X1493872Y-8259150D01*
X1493872Y-8259150D02*
X1522443Y-8259150D01*
X1522443Y-8259150D02*
X1541491Y-8268674D01*
X1541491Y-8268674D02*
X1551015Y-8287722D01*
X1551015Y-8287722D02*
X1551015Y-8392484D01*
X1941491Y-8182960D02*
X1770063Y-8440103D01*
X2198634Y-8192484D02*
X2217682Y-8192484D01*
X2217682Y-8192484D02*
X2236729Y-8202008D01*
X2236729Y-8202008D02*
X2246253Y-8211531D01*
X2246253Y-8211531D02*
X2255777Y-8230579D01*
X2255777Y-8230579D02*
X2265301Y-8268674D01*
X2265301Y-8268674D02*
X2265301Y-8316293D01*
X2265301Y-8316293D02*
X2255777Y-8354388D01*
X2255777Y-8354388D02*
X2246253Y-8373436D01*
X2246253Y-8373436D02*
X2236729Y-8382960D01*
X2236729Y-8382960D02*
X2217682Y-8392484D01*
X2217682Y-8392484D02*
X2198634Y-8392484D01*
X2198634Y-8392484D02*
X2179587Y-8382960D01*
X2179587Y-8382960D02*
X2170063Y-8373436D01*
X2170063Y-8373436D02*
X2160539Y-8354388D01*
X2160539Y-8354388D02*
X2151015Y-8316293D01*
X2151015Y-8316293D02*
X2151015Y-8268674D01*
X2151015Y-8268674D02*
X2160539Y-8230579D01*
X2160539Y-8230579D02*
X2170063Y-8211531D01*
X2170063Y-8211531D02*
X2179587Y-8202008D01*
X2179587Y-8202008D02*
X2198634Y-8192484D01*
X2351015Y-8373436D02*
X2360539Y-8382960D01*
X2360539Y-8382960D02*
X2351015Y-8392484D01*
X2351015Y-8392484D02*
X2341491Y-8382960D01*
X2341491Y-8382960D02*
X2351015Y-8373436D01*
X2351015Y-8373436D02*
X2351015Y-8392484D01*
X2484348Y-8192484D02*
X2503396Y-8192484D01*
X2503396Y-8192484D02*
X2522444Y-8202008D01*
X2522444Y-8202008D02*
X2531968Y-8211531D01*
X2531968Y-8211531D02*
X2541491Y-8230579D01*
X2541491Y-8230579D02*
X2551015Y-8268674D01*
X2551015Y-8268674D02*
X2551015Y-8316293D01*
X2551015Y-8316293D02*
X2541491Y-8354388D01*
X2541491Y-8354388D02*
X2531968Y-8373436D01*
X2531968Y-8373436D02*
X2522444Y-8382960D01*
X2522444Y-8382960D02*
X2503396Y-8392484D01*
X2503396Y-8392484D02*
X2484348Y-8392484D01*
X2484348Y-8392484D02*
X2465301Y-8382960D01*
X2465301Y-8382960D02*
X2455777Y-8373436D01*
X2455777Y-8373436D02*
X2446253Y-8354388D01*
X2446253Y-8354388D02*
X2436729Y-8316293D01*
X2436729Y-8316293D02*
X2436729Y-8268674D01*
X2436729Y-8268674D02*
X2446253Y-8230579D01*
X2446253Y-8230579D02*
X2455777Y-8211531D01*
X2455777Y-8211531D02*
X2465301Y-8202008D01*
X2465301Y-8202008D02*
X2484348Y-8192484D01*
X2731968Y-8192484D02*
X2636729Y-8192484D01*
X2636729Y-8192484D02*
X2627206Y-8287722D01*
X2627206Y-8287722D02*
X2636729Y-8278198D01*
X2636729Y-8278198D02*
X2655777Y-8268674D01*
X2655777Y-8268674D02*
X2703396Y-8268674D01*
X2703396Y-8268674D02*
X2722444Y-8278198D01*
X2722444Y-8278198D02*
X2731968Y-8287722D01*
X2731968Y-8287722D02*
X2741491Y-8306769D01*
X2741491Y-8306769D02*
X2741491Y-8354388D01*
X2741491Y-8354388D02*
X2731968Y-8373436D01*
X2731968Y-8373436D02*
X2722444Y-8382960D01*
X2722444Y-8382960D02*
X2703396Y-8392484D01*
X2703396Y-8392484D02*
X2655777Y-8392484D01*
X2655777Y-8392484D02*
X2636729Y-8382960D01*
X2636729Y-8382960D02*
X2627206Y-8373436D01*
X2922444Y-8192484D02*
X2827206Y-8192484D01*
X2827206Y-8192484D02*
X2817682Y-8287722D01*
X2817682Y-8287722D02*
X2827206Y-8278198D01*
X2827206Y-8278198D02*
X2846253Y-8268674D01*
X2846253Y-8268674D02*
X2893872Y-8268674D01*
X2893872Y-8268674D02*
X2912920Y-8278198D01*
X2912920Y-8278198D02*
X2922444Y-8287722D01*
X2922444Y-8287722D02*
X2931967Y-8306769D01*
X2931967Y-8306769D02*
X2931967Y-8354388D01*
X2931967Y-8354388D02*
X2922444Y-8373436D01*
X2922444Y-8373436D02*
X2912920Y-8382960D01*
X2912920Y-8382960D02*
X2893872Y-8392484D01*
X2893872Y-8392484D02*
X2846253Y-8392484D01*
X2846253Y-8392484D02*
X2827206Y-8382960D01*
X2827206Y-8382960D02*
X2817682Y-8373436D01*
X3122444Y-8392484D02*
X3008158Y-8392484D01*
X3065301Y-8392484D02*
X3065301Y-8192484D01*
X3065301Y-8192484D02*
X3046253Y-8221055D01*
X3046253Y-8221055D02*
X3027206Y-8240103D01*
X3027206Y-8240103D02*
X3008158Y-8249627D01*
X3198634Y-8192484D02*
X3198634Y-8230579D01*
X3274825Y-8192484D02*
X3274825Y-8230579D01*
X3570063Y-8468674D02*
X3560539Y-8459150D01*
X3560539Y-8459150D02*
X3541491Y-8430579D01*
X3541491Y-8430579D02*
X3531968Y-8411531D01*
X3531968Y-8411531D02*
X3522444Y-8382960D01*
X3522444Y-8382960D02*
X3512920Y-8335341D01*
X3512920Y-8335341D02*
X3512920Y-8297246D01*
X3512920Y-8297246D02*
X3522444Y-8249627D01*
X3522444Y-8249627D02*
X3531968Y-8221055D01*
X3531968Y-8221055D02*
X3541491Y-8202008D01*
X3541491Y-8202008D02*
X3560539Y-8173436D01*
X3560539Y-8173436D02*
X3570063Y-8163912D01*
X3636729Y-8211531D02*
X3646253Y-8202008D01*
X3646253Y-8202008D02*
X3665301Y-8192484D01*
X3665301Y-8192484D02*
X3712920Y-8192484D01*
X3712920Y-8192484D02*
X3731968Y-8202008D01*
X3731968Y-8202008D02*
X3741491Y-8211531D01*
X3741491Y-8211531D02*
X3751015Y-8230579D01*
X3751015Y-8230579D02*
X3751015Y-8249627D01*
X3751015Y-8249627D02*
X3741491Y-8278198D01*
X3741491Y-8278198D02*
X3627206Y-8392484D01*
X3627206Y-8392484D02*
X3751015Y-8392484D01*
X3989110Y-8392484D02*
X3989110Y-8192484D01*
X4074825Y-8392484D02*
X4074825Y-8287722D01*
X4074825Y-8287722D02*
X4065301Y-8268674D01*
X4065301Y-8268674D02*
X4046253Y-8259150D01*
X4046253Y-8259150D02*
X4017682Y-8259150D01*
X4017682Y-8259150D02*
X3998634Y-8268674D01*
X3998634Y-8268674D02*
X3989110Y-8278198D01*
X4198634Y-8392484D02*
X4179587Y-8382960D01*
X4179587Y-8382960D02*
X4170063Y-8373436D01*
X4170063Y-8373436D02*
X4160539Y-8354388D01*
X4160539Y-8354388D02*
X4160539Y-8297246D01*
X4160539Y-8297246D02*
X4170063Y-8278198D01*
X4170063Y-8278198D02*
X4179587Y-8268674D01*
X4179587Y-8268674D02*
X4198634Y-8259150D01*
X4198634Y-8259150D02*
X4227206Y-8259150D01*
X4227206Y-8259150D02*
X4246253Y-8268674D01*
X4246253Y-8268674D02*
X4255777Y-8278198D01*
X4255777Y-8278198D02*
X4265301Y-8297246D01*
X4265301Y-8297246D02*
X4265301Y-8354388D01*
X4265301Y-8354388D02*
X4255777Y-8373436D01*
X4255777Y-8373436D02*
X4246253Y-8382960D01*
X4246253Y-8382960D02*
X4227206Y-8392484D01*
X4227206Y-8392484D02*
X4198634Y-8392484D01*
X4379587Y-8392484D02*
X4360539Y-8382960D01*
X4360539Y-8382960D02*
X4351015Y-8363912D01*
X4351015Y-8363912D02*
X4351015Y-8192484D01*
X4531968Y-8382960D02*
X4512920Y-8392484D01*
X4512920Y-8392484D02*
X4474825Y-8392484D01*
X4474825Y-8392484D02*
X4455777Y-8382960D01*
X4455777Y-8382960D02*
X4446253Y-8363912D01*
X4446253Y-8363912D02*
X4446253Y-8287722D01*
X4446253Y-8287722D02*
X4455777Y-8268674D01*
X4455777Y-8268674D02*
X4474825Y-8259150D01*
X4474825Y-8259150D02*
X4512920Y-8259150D01*
X4512920Y-8259150D02*
X4531968Y-8268674D01*
X4531968Y-8268674D02*
X4541492Y-8287722D01*
X4541492Y-8287722D02*
X4541492Y-8306769D01*
X4541492Y-8306769D02*
X4446253Y-8325817D01*
X4617682Y-8382960D02*
X4636730Y-8392484D01*
X4636730Y-8392484D02*
X4674825Y-8392484D01*
X4674825Y-8392484D02*
X4693873Y-8382960D01*
X4693873Y-8382960D02*
X4703396Y-8363912D01*
X4703396Y-8363912D02*
X4703396Y-8354388D01*
X4703396Y-8354388D02*
X4693873Y-8335341D01*
X4693873Y-8335341D02*
X4674825Y-8325817D01*
X4674825Y-8325817D02*
X4646253Y-8325817D01*
X4646253Y-8325817D02*
X4627206Y-8316293D01*
X4627206Y-8316293D02*
X4617682Y-8297246D01*
X4617682Y-8297246D02*
X4617682Y-8287722D01*
X4617682Y-8287722D02*
X4627206Y-8268674D01*
X4627206Y-8268674D02*
X4646253Y-8259150D01*
X4646253Y-8259150D02*
X4674825Y-8259150D01*
X4674825Y-8259150D02*
X4693873Y-8268674D01*
X4770063Y-8468674D02*
X4779587Y-8459150D01*
X4779587Y-8459150D02*
X4798634Y-8430579D01*
X4798634Y-8430579D02*
X4808158Y-8411531D01*
X4808158Y-8411531D02*
X4817682Y-8382960D01*
X4817682Y-8382960D02*
X4827206Y-8335341D01*
X4827206Y-8335341D02*
X4827206Y-8297246D01*
X4827206Y-8297246D02*
X4817682Y-8249627D01*
X4817682Y-8249627D02*
X4808158Y-8221055D01*
X4808158Y-8221055D02*
X4798634Y-8202008D01*
X4798634Y-8202008D02*
X4779587Y-8173436D01*
X4779587Y-8173436D02*
X4770063Y-8163912D01*
X-205000Y-8465000D02*
X-5000Y-8665000D01*
X-5000Y-8465000D02*
X-205000Y-8665000D01*
X-5000Y-8565000D02*
G75*
G02*
X-205000Y-8565000I-100000J0D01*
G01*
X-205000Y-8565000D02*
G75*
G02*
X-5000Y-8565000I100000J0D01*
G01*
X246253Y-8475531D02*
X255777Y-8466008D01*
X255777Y-8466008D02*
X274824Y-8456484D01*
X274824Y-8456484D02*
X322444Y-8456484D01*
X322444Y-8456484D02*
X341491Y-8466008D01*
X341491Y-8466008D02*
X351015Y-8475531D01*
X351015Y-8475531D02*
X360539Y-8494579D01*
X360539Y-8494579D02*
X360539Y-8513627D01*
X360539Y-8513627D02*
X351015Y-8542198D01*
X351015Y-8542198D02*
X236729Y-8656484D01*
X236729Y-8656484D02*
X360539Y-8656484D01*
X446253Y-8637436D02*
X455777Y-8646960D01*
X455777Y-8646960D02*
X446253Y-8656484D01*
X446253Y-8656484D02*
X436729Y-8646960D01*
X436729Y-8646960D02*
X446253Y-8637436D01*
X446253Y-8637436D02*
X446253Y-8656484D01*
X522443Y-8456484D02*
X655777Y-8456484D01*
X655777Y-8456484D02*
X570063Y-8656484D01*
X770062Y-8456484D02*
X789110Y-8456484D01*
X789110Y-8456484D02*
X808158Y-8466008D01*
X808158Y-8466008D02*
X817682Y-8475531D01*
X817682Y-8475531D02*
X827205Y-8494579D01*
X827205Y-8494579D02*
X836729Y-8532674D01*
X836729Y-8532674D02*
X836729Y-8580293D01*
X836729Y-8580293D02*
X827205Y-8618389D01*
X827205Y-8618389D02*
X817682Y-8637436D01*
X817682Y-8637436D02*
X808158Y-8646960D01*
X808158Y-8646960D02*
X789110Y-8656484D01*
X789110Y-8656484D02*
X770062Y-8656484D01*
X770062Y-8656484D02*
X751015Y-8646960D01*
X751015Y-8646960D02*
X741491Y-8637436D01*
X741491Y-8637436D02*
X731967Y-8618389D01*
X731967Y-8618389D02*
X722443Y-8580293D01*
X722443Y-8580293D02*
X722443Y-8532674D01*
X722443Y-8532674D02*
X731967Y-8494579D01*
X731967Y-8494579D02*
X741491Y-8475531D01*
X741491Y-8475531D02*
X751015Y-8466008D01*
X751015Y-8466008D02*
X770062Y-8456484D01*
X960539Y-8456484D02*
X979586Y-8456484D01*
X979586Y-8456484D02*
X998634Y-8466008D01*
X998634Y-8466008D02*
X1008158Y-8475531D01*
X1008158Y-8475531D02*
X1017682Y-8494579D01*
X1017682Y-8494579D02*
X1027205Y-8532674D01*
X1027205Y-8532674D02*
X1027205Y-8580293D01*
X1027205Y-8580293D02*
X1017682Y-8618389D01*
X1017682Y-8618389D02*
X1008158Y-8637436D01*
X1008158Y-8637436D02*
X998634Y-8646960D01*
X998634Y-8646960D02*
X979586Y-8656484D01*
X979586Y-8656484D02*
X960539Y-8656484D01*
X960539Y-8656484D02*
X941491Y-8646960D01*
X941491Y-8646960D02*
X931967Y-8637436D01*
X931967Y-8637436D02*
X922443Y-8618389D01*
X922443Y-8618389D02*
X912920Y-8580293D01*
X912920Y-8580293D02*
X912920Y-8532674D01*
X912920Y-8532674D02*
X922443Y-8494579D01*
X922443Y-8494579D02*
X931967Y-8475531D01*
X931967Y-8475531D02*
X941491Y-8466008D01*
X941491Y-8466008D02*
X960539Y-8456484D01*
X1112920Y-8656484D02*
X1112920Y-8523150D01*
X1112920Y-8542198D02*
X1122444Y-8532674D01*
X1122444Y-8532674D02*
X1141491Y-8523150D01*
X1141491Y-8523150D02*
X1170063Y-8523150D01*
X1170063Y-8523150D02*
X1189110Y-8532674D01*
X1189110Y-8532674D02*
X1198634Y-8551722D01*
X1198634Y-8551722D02*
X1198634Y-8656484D01*
X1198634Y-8551722D02*
X1208158Y-8532674D01*
X1208158Y-8532674D02*
X1227205Y-8523150D01*
X1227205Y-8523150D02*
X1255777Y-8523150D01*
X1255777Y-8523150D02*
X1274825Y-8532674D01*
X1274825Y-8532674D02*
X1284348Y-8551722D01*
X1284348Y-8551722D02*
X1284348Y-8656484D01*
X1379586Y-8656484D02*
X1379586Y-8523150D01*
X1379586Y-8542198D02*
X1389110Y-8532674D01*
X1389110Y-8532674D02*
X1408158Y-8523150D01*
X1408158Y-8523150D02*
X1436729Y-8523150D01*
X1436729Y-8523150D02*
X1455777Y-8532674D01*
X1455777Y-8532674D02*
X1465301Y-8551722D01*
X1465301Y-8551722D02*
X1465301Y-8656484D01*
X1465301Y-8551722D02*
X1474824Y-8532674D01*
X1474824Y-8532674D02*
X1493872Y-8523150D01*
X1493872Y-8523150D02*
X1522443Y-8523150D01*
X1522443Y-8523150D02*
X1541491Y-8532674D01*
X1541491Y-8532674D02*
X1551015Y-8551722D01*
X1551015Y-8551722D02*
X1551015Y-8656484D01*
X1941491Y-8446960D02*
X1770063Y-8704103D01*
X2198634Y-8456484D02*
X2217682Y-8456484D01*
X2217682Y-8456484D02*
X2236729Y-8466008D01*
X2236729Y-8466008D02*
X2246253Y-8475531D01*
X2246253Y-8475531D02*
X2255777Y-8494579D01*
X2255777Y-8494579D02*
X2265301Y-8532674D01*
X2265301Y-8532674D02*
X2265301Y-8580293D01*
X2265301Y-8580293D02*
X2255777Y-8618389D01*
X2255777Y-8618389D02*
X2246253Y-8637436D01*
X2246253Y-8637436D02*
X2236729Y-8646960D01*
X2236729Y-8646960D02*
X2217682Y-8656484D01*
X2217682Y-8656484D02*
X2198634Y-8656484D01*
X2198634Y-8656484D02*
X2179587Y-8646960D01*
X2179587Y-8646960D02*
X2170063Y-8637436D01*
X2170063Y-8637436D02*
X2160539Y-8618389D01*
X2160539Y-8618389D02*
X2151015Y-8580293D01*
X2151015Y-8580293D02*
X2151015Y-8532674D01*
X2151015Y-8532674D02*
X2160539Y-8494579D01*
X2160539Y-8494579D02*
X2170063Y-8475531D01*
X2170063Y-8475531D02*
X2179587Y-8466008D01*
X2179587Y-8466008D02*
X2198634Y-8456484D01*
X2351015Y-8637436D02*
X2360539Y-8646960D01*
X2360539Y-8646960D02*
X2351015Y-8656484D01*
X2351015Y-8656484D02*
X2341491Y-8646960D01*
X2341491Y-8646960D02*
X2351015Y-8637436D01*
X2351015Y-8637436D02*
X2351015Y-8656484D01*
X2551015Y-8656484D02*
X2436729Y-8656484D01*
X2493872Y-8656484D02*
X2493872Y-8456484D01*
X2493872Y-8456484D02*
X2474825Y-8485055D01*
X2474825Y-8485055D02*
X2455777Y-8504103D01*
X2455777Y-8504103D02*
X2436729Y-8513627D01*
X2674825Y-8456484D02*
X2693872Y-8456484D01*
X2693872Y-8456484D02*
X2712920Y-8466008D01*
X2712920Y-8466008D02*
X2722444Y-8475531D01*
X2722444Y-8475531D02*
X2731968Y-8494579D01*
X2731968Y-8494579D02*
X2741491Y-8532674D01*
X2741491Y-8532674D02*
X2741491Y-8580293D01*
X2741491Y-8580293D02*
X2731968Y-8618389D01*
X2731968Y-8618389D02*
X2722444Y-8637436D01*
X2722444Y-8637436D02*
X2712920Y-8646960D01*
X2712920Y-8646960D02*
X2693872Y-8656484D01*
X2693872Y-8656484D02*
X2674825Y-8656484D01*
X2674825Y-8656484D02*
X2655777Y-8646960D01*
X2655777Y-8646960D02*
X2646253Y-8637436D01*
X2646253Y-8637436D02*
X2636729Y-8618389D01*
X2636729Y-8618389D02*
X2627206Y-8580293D01*
X2627206Y-8580293D02*
X2627206Y-8532674D01*
X2627206Y-8532674D02*
X2636729Y-8494579D01*
X2636729Y-8494579D02*
X2646253Y-8475531D01*
X2646253Y-8475531D02*
X2655777Y-8466008D01*
X2655777Y-8466008D02*
X2674825Y-8456484D01*
X2912920Y-8456484D02*
X2874825Y-8456484D01*
X2874825Y-8456484D02*
X2855777Y-8466008D01*
X2855777Y-8466008D02*
X2846253Y-8475531D01*
X2846253Y-8475531D02*
X2827206Y-8504103D01*
X2827206Y-8504103D02*
X2817682Y-8542198D01*
X2817682Y-8542198D02*
X2817682Y-8618389D01*
X2817682Y-8618389D02*
X2827206Y-8637436D01*
X2827206Y-8637436D02*
X2836729Y-8646960D01*
X2836729Y-8646960D02*
X2855777Y-8656484D01*
X2855777Y-8656484D02*
X2893872Y-8656484D01*
X2893872Y-8656484D02*
X2912920Y-8646960D01*
X2912920Y-8646960D02*
X2922444Y-8637436D01*
X2922444Y-8637436D02*
X2931967Y-8618389D01*
X2931967Y-8618389D02*
X2931967Y-8570770D01*
X2931967Y-8570770D02*
X2922444Y-8551722D01*
X2922444Y-8551722D02*
X2912920Y-8542198D01*
X2912920Y-8542198D02*
X2893872Y-8532674D01*
X2893872Y-8532674D02*
X2855777Y-8532674D01*
X2855777Y-8532674D02*
X2836729Y-8542198D01*
X2836729Y-8542198D02*
X2827206Y-8551722D01*
X2827206Y-8551722D02*
X2817682Y-8570770D01*
X2998634Y-8456484D02*
X3122444Y-8456484D01*
X3122444Y-8456484D02*
X3055777Y-8532674D01*
X3055777Y-8532674D02*
X3084348Y-8532674D01*
X3084348Y-8532674D02*
X3103396Y-8542198D01*
X3103396Y-8542198D02*
X3112920Y-8551722D01*
X3112920Y-8551722D02*
X3122444Y-8570770D01*
X3122444Y-8570770D02*
X3122444Y-8618389D01*
X3122444Y-8618389D02*
X3112920Y-8637436D01*
X3112920Y-8637436D02*
X3103396Y-8646960D01*
X3103396Y-8646960D02*
X3084348Y-8656484D01*
X3084348Y-8656484D02*
X3027206Y-8656484D01*
X3027206Y-8656484D02*
X3008158Y-8646960D01*
X3008158Y-8646960D02*
X2998634Y-8637436D01*
X3198634Y-8456484D02*
X3198634Y-8494579D01*
X3274825Y-8456484D02*
X3274825Y-8494579D01*
X3570063Y-8732674D02*
X3560539Y-8723150D01*
X3560539Y-8723150D02*
X3541491Y-8694579D01*
X3541491Y-8694579D02*
X3531968Y-8675531D01*
X3531968Y-8675531D02*
X3522444Y-8646960D01*
X3522444Y-8646960D02*
X3512920Y-8599341D01*
X3512920Y-8599341D02*
X3512920Y-8561246D01*
X3512920Y-8561246D02*
X3522444Y-8513627D01*
X3522444Y-8513627D02*
X3531968Y-8485055D01*
X3531968Y-8485055D02*
X3541491Y-8466008D01*
X3541491Y-8466008D02*
X3560539Y-8437436D01*
X3560539Y-8437436D02*
X3570063Y-8427912D01*
X3731968Y-8523150D02*
X3731968Y-8656484D01*
X3684348Y-8446960D02*
X3636729Y-8589817D01*
X3636729Y-8589817D02*
X3760539Y-8589817D01*
X3989110Y-8656484D02*
X3989110Y-8456484D01*
X4074825Y-8656484D02*
X4074825Y-8551722D01*
X4074825Y-8551722D02*
X4065301Y-8532674D01*
X4065301Y-8532674D02*
X4046253Y-8523150D01*
X4046253Y-8523150D02*
X4017682Y-8523150D01*
X4017682Y-8523150D02*
X3998634Y-8532674D01*
X3998634Y-8532674D02*
X3989110Y-8542198D01*
X4198634Y-8656484D02*
X4179587Y-8646960D01*
X4179587Y-8646960D02*
X4170063Y-8637436D01*
X4170063Y-8637436D02*
X4160539Y-8618389D01*
X4160539Y-8618389D02*
X4160539Y-8561246D01*
X4160539Y-8561246D02*
X4170063Y-8542198D01*
X4170063Y-8542198D02*
X4179587Y-8532674D01*
X4179587Y-8532674D02*
X4198634Y-8523150D01*
X4198634Y-8523150D02*
X4227206Y-8523150D01*
X4227206Y-8523150D02*
X4246253Y-8532674D01*
X4246253Y-8532674D02*
X4255777Y-8542198D01*
X4255777Y-8542198D02*
X4265301Y-8561246D01*
X4265301Y-8561246D02*
X4265301Y-8618389D01*
X4265301Y-8618389D02*
X4255777Y-8637436D01*
X4255777Y-8637436D02*
X4246253Y-8646960D01*
X4246253Y-8646960D02*
X4227206Y-8656484D01*
X4227206Y-8656484D02*
X4198634Y-8656484D01*
X4379587Y-8656484D02*
X4360539Y-8646960D01*
X4360539Y-8646960D02*
X4351015Y-8627912D01*
X4351015Y-8627912D02*
X4351015Y-8456484D01*
X4531968Y-8646960D02*
X4512920Y-8656484D01*
X4512920Y-8656484D02*
X4474825Y-8656484D01*
X4474825Y-8656484D02*
X4455777Y-8646960D01*
X4455777Y-8646960D02*
X4446253Y-8627912D01*
X4446253Y-8627912D02*
X4446253Y-8551722D01*
X4446253Y-8551722D02*
X4455777Y-8532674D01*
X4455777Y-8532674D02*
X4474825Y-8523150D01*
X4474825Y-8523150D02*
X4512920Y-8523150D01*
X4512920Y-8523150D02*
X4531968Y-8532674D01*
X4531968Y-8532674D02*
X4541492Y-8551722D01*
X4541492Y-8551722D02*
X4541492Y-8570770D01*
X4541492Y-8570770D02*
X4446253Y-8589817D01*
X4617682Y-8646960D02*
X4636730Y-8656484D01*
X4636730Y-8656484D02*
X4674825Y-8656484D01*
X4674825Y-8656484D02*
X4693873Y-8646960D01*
X4693873Y-8646960D02*
X4703396Y-8627912D01*
X4703396Y-8627912D02*
X4703396Y-8618389D01*
X4703396Y-8618389D02*
X4693873Y-8599341D01*
X4693873Y-8599341D02*
X4674825Y-8589817D01*
X4674825Y-8589817D02*
X4646253Y-8589817D01*
X4646253Y-8589817D02*
X4627206Y-8580293D01*
X4627206Y-8580293D02*
X4617682Y-8561246D01*
X4617682Y-8561246D02*
X4617682Y-8551722D01*
X4617682Y-8551722D02*
X4627206Y-8532674D01*
X4627206Y-8532674D02*
X4646253Y-8523150D01*
X4646253Y-8523150D02*
X4674825Y-8523150D01*
X4674825Y-8523150D02*
X4693873Y-8532674D01*
X4770063Y-8732674D02*
X4779587Y-8723150D01*
X4779587Y-8723150D02*
X4798634Y-8694579D01*
X4798634Y-8694579D02*
X4808158Y-8675531D01*
X4808158Y-8675531D02*
X4817682Y-8646960D01*
X4817682Y-8646960D02*
X4827206Y-8599341D01*
X4827206Y-8599341D02*
X4827206Y-8561246D01*
X4827206Y-8561246D02*
X4817682Y-8513627D01*
X4817682Y-8513627D02*
X4808158Y-8485055D01*
X4808158Y-8485055D02*
X4798634Y-8466008D01*
X4798634Y-8466008D02*
X4779587Y-8437436D01*
X4779587Y-8437436D02*
X4770063Y-8427912D01*
X5131968Y-8732674D02*
X5122444Y-8723150D01*
X5122444Y-8723150D02*
X5103396Y-8694579D01*
X5103396Y-8694579D02*
X5093873Y-8675531D01*
X5093873Y-8675531D02*
X5084349Y-8646960D01*
X5084349Y-8646960D02*
X5074825Y-8599341D01*
X5074825Y-8599341D02*
X5074825Y-8561246D01*
X5074825Y-8561246D02*
X5084349Y-8513627D01*
X5084349Y-8513627D02*
X5093873Y-8485055D01*
X5093873Y-8485055D02*
X5103396Y-8466008D01*
X5103396Y-8466008D02*
X5122444Y-8437436D01*
X5122444Y-8437436D02*
X5131968Y-8427912D01*
X5208158Y-8523150D02*
X5208158Y-8656484D01*
X5208158Y-8542198D02*
X5217682Y-8532674D01*
X5217682Y-8532674D02*
X5236730Y-8523150D01*
X5236730Y-8523150D02*
X5265301Y-8523150D01*
X5265301Y-8523150D02*
X5284349Y-8532674D01*
X5284349Y-8532674D02*
X5293873Y-8551722D01*
X5293873Y-8551722D02*
X5293873Y-8656484D01*
X5417682Y-8656484D02*
X5398634Y-8646960D01*
X5398634Y-8646960D02*
X5389111Y-8637436D01*
X5389111Y-8637436D02*
X5379587Y-8618389D01*
X5379587Y-8618389D02*
X5379587Y-8561246D01*
X5379587Y-8561246D02*
X5389111Y-8542198D01*
X5389111Y-8542198D02*
X5398634Y-8532674D01*
X5398634Y-8532674D02*
X5417682Y-8523150D01*
X5417682Y-8523150D02*
X5446254Y-8523150D01*
X5446254Y-8523150D02*
X5465301Y-8532674D01*
X5465301Y-8532674D02*
X5474825Y-8542198D01*
X5474825Y-8542198D02*
X5484349Y-8561246D01*
X5484349Y-8561246D02*
X5484349Y-8618389D01*
X5484349Y-8618389D02*
X5474825Y-8637436D01*
X5474825Y-8637436D02*
X5465301Y-8646960D01*
X5465301Y-8646960D02*
X5446254Y-8656484D01*
X5446254Y-8656484D02*
X5417682Y-8656484D01*
X5541492Y-8523150D02*
X5617682Y-8523150D01*
X5570063Y-8456484D02*
X5570063Y-8627912D01*
X5570063Y-8627912D02*
X5579587Y-8646960D01*
X5579587Y-8646960D02*
X5598634Y-8656484D01*
X5598634Y-8656484D02*
X5617682Y-8656484D01*
X5836730Y-8523150D02*
X5836730Y-8723150D01*
X5836730Y-8532674D02*
X5855777Y-8523150D01*
X5855777Y-8523150D02*
X5893873Y-8523150D01*
X5893873Y-8523150D02*
X5912920Y-8532674D01*
X5912920Y-8532674D02*
X5922444Y-8542198D01*
X5922444Y-8542198D02*
X5931968Y-8561246D01*
X5931968Y-8561246D02*
X5931968Y-8618389D01*
X5931968Y-8618389D02*
X5922444Y-8637436D01*
X5922444Y-8637436D02*
X5912920Y-8646960D01*
X5912920Y-8646960D02*
X5893873Y-8656484D01*
X5893873Y-8656484D02*
X5855777Y-8656484D01*
X5855777Y-8656484D02*
X5836730Y-8646960D01*
X6046253Y-8656484D02*
X6027206Y-8646960D01*
X6027206Y-8646960D02*
X6017682Y-8627912D01*
X6017682Y-8627912D02*
X6017682Y-8456484D01*
X6208158Y-8656484D02*
X6208158Y-8551722D01*
X6208158Y-8551722D02*
X6198634Y-8532674D01*
X6198634Y-8532674D02*
X6179587Y-8523150D01*
X6179587Y-8523150D02*
X6141492Y-8523150D01*
X6141492Y-8523150D02*
X6122444Y-8532674D01*
X6208158Y-8646960D02*
X6189111Y-8656484D01*
X6189111Y-8656484D02*
X6141492Y-8656484D01*
X6141492Y-8656484D02*
X6122444Y-8646960D01*
X6122444Y-8646960D02*
X6112920Y-8627912D01*
X6112920Y-8627912D02*
X6112920Y-8608865D01*
X6112920Y-8608865D02*
X6122444Y-8589817D01*
X6122444Y-8589817D02*
X6141492Y-8580293D01*
X6141492Y-8580293D02*
X6189111Y-8580293D01*
X6189111Y-8580293D02*
X6208158Y-8570770D01*
X6274825Y-8523150D02*
X6351015Y-8523150D01*
X6303396Y-8456484D02*
X6303396Y-8627912D01*
X6303396Y-8627912D02*
X6312920Y-8646960D01*
X6312920Y-8646960D02*
X6331968Y-8656484D01*
X6331968Y-8656484D02*
X6351015Y-8656484D01*
X6493873Y-8646960D02*
X6474825Y-8656484D01*
X6474825Y-8656484D02*
X6436730Y-8656484D01*
X6436730Y-8656484D02*
X6417682Y-8646960D01*
X6417682Y-8646960D02*
X6408158Y-8627912D01*
X6408158Y-8627912D02*
X6408158Y-8551722D01*
X6408158Y-8551722D02*
X6417682Y-8532674D01*
X6417682Y-8532674D02*
X6436730Y-8523150D01*
X6436730Y-8523150D02*
X6474825Y-8523150D01*
X6474825Y-8523150D02*
X6493873Y-8532674D01*
X6493873Y-8532674D02*
X6503396Y-8551722D01*
X6503396Y-8551722D02*
X6503396Y-8570770D01*
X6503396Y-8570770D02*
X6408158Y-8589817D01*
X6674825Y-8656484D02*
X6674825Y-8456484D01*
X6674825Y-8646960D02*
X6655777Y-8656484D01*
X6655777Y-8656484D02*
X6617682Y-8656484D01*
X6617682Y-8656484D02*
X6598634Y-8646960D01*
X6598634Y-8646960D02*
X6589111Y-8637436D01*
X6589111Y-8637436D02*
X6579587Y-8618389D01*
X6579587Y-8618389D02*
X6579587Y-8561246D01*
X6579587Y-8561246D02*
X6589111Y-8542198D01*
X6589111Y-8542198D02*
X6598634Y-8532674D01*
X6598634Y-8532674D02*
X6617682Y-8523150D01*
X6617682Y-8523150D02*
X6655777Y-8523150D01*
X6655777Y-8523150D02*
X6674825Y-8532674D01*
X6751015Y-8732674D02*
X6760539Y-8723150D01*
X6760539Y-8723150D02*
X6779587Y-8694579D01*
X6779587Y-8694579D02*
X6789111Y-8675531D01*
X6789111Y-8675531D02*
X6798634Y-8646960D01*
X6798634Y-8646960D02*
X6808158Y-8599341D01*
X6808158Y-8599341D02*
X6808158Y-8561246D01*
X6808158Y-8561246D02*
X6798634Y-8513627D01*
X6798634Y-8513627D02*
X6789111Y-8485055D01*
X6789111Y-8485055D02*
X6779587Y-8466008D01*
X6779587Y-8466008D02*
X6760539Y-8437436D01*
X6760539Y-8437436D02*
X6751015Y-8427912D01*
X-205000Y-8785000D02*
X-5000Y-8985000D01*
X-5000Y-8785000D02*
X-205000Y-8985000D01*
X-105000Y-8785000D02*
X-105000Y-8985000D01*
X-205000Y-8885000D02*
X-5000Y-8885000D01*
X236729Y-8776484D02*
X360539Y-8776484D01*
X360539Y-8776484D02*
X293872Y-8852674D01*
X293872Y-8852674D02*
X322444Y-8852674D01*
X322444Y-8852674D02*
X341491Y-8862198D01*
X341491Y-8862198D02*
X351015Y-8871722D01*
X351015Y-8871722D02*
X360539Y-8890770D01*
X360539Y-8890770D02*
X360539Y-8938389D01*
X360539Y-8938389D02*
X351015Y-8957436D01*
X351015Y-8957436D02*
X341491Y-8966960D01*
X341491Y-8966960D02*
X322444Y-8976484D01*
X322444Y-8976484D02*
X265301Y-8976484D01*
X265301Y-8976484D02*
X246253Y-8966960D01*
X246253Y-8966960D02*
X236729Y-8957436D01*
X446253Y-8957436D02*
X455777Y-8966960D01*
X455777Y-8966960D02*
X446253Y-8976484D01*
X446253Y-8976484D02*
X436729Y-8966960D01*
X436729Y-8966960D02*
X446253Y-8957436D01*
X446253Y-8957436D02*
X446253Y-8976484D01*
X531967Y-8795531D02*
X541491Y-8786008D01*
X541491Y-8786008D02*
X560539Y-8776484D01*
X560539Y-8776484D02*
X608158Y-8776484D01*
X608158Y-8776484D02*
X627205Y-8786008D01*
X627205Y-8786008D02*
X636729Y-8795531D01*
X636729Y-8795531D02*
X646253Y-8814579D01*
X646253Y-8814579D02*
X646253Y-8833627D01*
X646253Y-8833627D02*
X636729Y-8862198D01*
X636729Y-8862198D02*
X522443Y-8976484D01*
X522443Y-8976484D02*
X646253Y-8976484D01*
X770062Y-8776484D02*
X789110Y-8776484D01*
X789110Y-8776484D02*
X808158Y-8786008D01*
X808158Y-8786008D02*
X817682Y-8795531D01*
X817682Y-8795531D02*
X827205Y-8814579D01*
X827205Y-8814579D02*
X836729Y-8852674D01*
X836729Y-8852674D02*
X836729Y-8900293D01*
X836729Y-8900293D02*
X827205Y-8938389D01*
X827205Y-8938389D02*
X817682Y-8957436D01*
X817682Y-8957436D02*
X808158Y-8966960D01*
X808158Y-8966960D02*
X789110Y-8976484D01*
X789110Y-8976484D02*
X770062Y-8976484D01*
X770062Y-8976484D02*
X751015Y-8966960D01*
X751015Y-8966960D02*
X741491Y-8957436D01*
X741491Y-8957436D02*
X731967Y-8938389D01*
X731967Y-8938389D02*
X722443Y-8900293D01*
X722443Y-8900293D02*
X722443Y-8852674D01*
X722443Y-8852674D02*
X731967Y-8814579D01*
X731967Y-8814579D02*
X741491Y-8795531D01*
X741491Y-8795531D02*
X751015Y-8786008D01*
X751015Y-8786008D02*
X770062Y-8776484D01*
X960539Y-8776484D02*
X979586Y-8776484D01*
X979586Y-8776484D02*
X998634Y-8786008D01*
X998634Y-8786008D02*
X1008158Y-8795531D01*
X1008158Y-8795531D02*
X1017682Y-8814579D01*
X1017682Y-8814579D02*
X1027205Y-8852674D01*
X1027205Y-8852674D02*
X1027205Y-8900293D01*
X1027205Y-8900293D02*
X1017682Y-8938389D01*
X1017682Y-8938389D02*
X1008158Y-8957436D01*
X1008158Y-8957436D02*
X998634Y-8966960D01*
X998634Y-8966960D02*
X979586Y-8976484D01*
X979586Y-8976484D02*
X960539Y-8976484D01*
X960539Y-8976484D02*
X941491Y-8966960D01*
X941491Y-8966960D02*
X931967Y-8957436D01*
X931967Y-8957436D02*
X922443Y-8938389D01*
X922443Y-8938389D02*
X912920Y-8900293D01*
X912920Y-8900293D02*
X912920Y-8852674D01*
X912920Y-8852674D02*
X922443Y-8814579D01*
X922443Y-8814579D02*
X931967Y-8795531D01*
X931967Y-8795531D02*
X941491Y-8786008D01*
X941491Y-8786008D02*
X960539Y-8776484D01*
X1112920Y-8976484D02*
X1112920Y-8843150D01*
X1112920Y-8862198D02*
X1122444Y-8852674D01*
X1122444Y-8852674D02*
X1141491Y-8843150D01*
X1141491Y-8843150D02*
X1170063Y-8843150D01*
X1170063Y-8843150D02*
X1189110Y-8852674D01*
X1189110Y-8852674D02*
X1198634Y-8871722D01*
X1198634Y-8871722D02*
X1198634Y-8976484D01*
X1198634Y-8871722D02*
X1208158Y-8852674D01*
X1208158Y-8852674D02*
X1227205Y-8843150D01*
X1227205Y-8843150D02*
X1255777Y-8843150D01*
X1255777Y-8843150D02*
X1274825Y-8852674D01*
X1274825Y-8852674D02*
X1284348Y-8871722D01*
X1284348Y-8871722D02*
X1284348Y-8976484D01*
X1379586Y-8976484D02*
X1379586Y-8843150D01*
X1379586Y-8862198D02*
X1389110Y-8852674D01*
X1389110Y-8852674D02*
X1408158Y-8843150D01*
X1408158Y-8843150D02*
X1436729Y-8843150D01*
X1436729Y-8843150D02*
X1455777Y-8852674D01*
X1455777Y-8852674D02*
X1465301Y-8871722D01*
X1465301Y-8871722D02*
X1465301Y-8976484D01*
X1465301Y-8871722D02*
X1474824Y-8852674D01*
X1474824Y-8852674D02*
X1493872Y-8843150D01*
X1493872Y-8843150D02*
X1522443Y-8843150D01*
X1522443Y-8843150D02*
X1541491Y-8852674D01*
X1541491Y-8852674D02*
X1551015Y-8871722D01*
X1551015Y-8871722D02*
X1551015Y-8976484D01*
X1941491Y-8766960D02*
X1770063Y-9024103D01*
X2198634Y-8776484D02*
X2217682Y-8776484D01*
X2217682Y-8776484D02*
X2236729Y-8786008D01*
X2236729Y-8786008D02*
X2246253Y-8795531D01*
X2246253Y-8795531D02*
X2255777Y-8814579D01*
X2255777Y-8814579D02*
X2265301Y-8852674D01*
X2265301Y-8852674D02*
X2265301Y-8900293D01*
X2265301Y-8900293D02*
X2255777Y-8938389D01*
X2255777Y-8938389D02*
X2246253Y-8957436D01*
X2246253Y-8957436D02*
X2236729Y-8966960D01*
X2236729Y-8966960D02*
X2217682Y-8976484D01*
X2217682Y-8976484D02*
X2198634Y-8976484D01*
X2198634Y-8976484D02*
X2179587Y-8966960D01*
X2179587Y-8966960D02*
X2170063Y-8957436D01*
X2170063Y-8957436D02*
X2160539Y-8938389D01*
X2160539Y-8938389D02*
X2151015Y-8900293D01*
X2151015Y-8900293D02*
X2151015Y-8852674D01*
X2151015Y-8852674D02*
X2160539Y-8814579D01*
X2160539Y-8814579D02*
X2170063Y-8795531D01*
X2170063Y-8795531D02*
X2179587Y-8786008D01*
X2179587Y-8786008D02*
X2198634Y-8776484D01*
X2351015Y-8957436D02*
X2360539Y-8966960D01*
X2360539Y-8966960D02*
X2351015Y-8976484D01*
X2351015Y-8976484D02*
X2341491Y-8966960D01*
X2341491Y-8966960D02*
X2351015Y-8957436D01*
X2351015Y-8957436D02*
X2351015Y-8976484D01*
X2551015Y-8976484D02*
X2436729Y-8976484D01*
X2493872Y-8976484D02*
X2493872Y-8776484D01*
X2493872Y-8776484D02*
X2474825Y-8805055D01*
X2474825Y-8805055D02*
X2455777Y-8824103D01*
X2455777Y-8824103D02*
X2436729Y-8833627D01*
X2627206Y-8795531D02*
X2636729Y-8786008D01*
X2636729Y-8786008D02*
X2655777Y-8776484D01*
X2655777Y-8776484D02*
X2703396Y-8776484D01*
X2703396Y-8776484D02*
X2722444Y-8786008D01*
X2722444Y-8786008D02*
X2731968Y-8795531D01*
X2731968Y-8795531D02*
X2741491Y-8814579D01*
X2741491Y-8814579D02*
X2741491Y-8833627D01*
X2741491Y-8833627D02*
X2731968Y-8862198D01*
X2731968Y-8862198D02*
X2617682Y-8976484D01*
X2617682Y-8976484D02*
X2741491Y-8976484D01*
X2912920Y-8776484D02*
X2874825Y-8776484D01*
X2874825Y-8776484D02*
X2855777Y-8786008D01*
X2855777Y-8786008D02*
X2846253Y-8795531D01*
X2846253Y-8795531D02*
X2827206Y-8824103D01*
X2827206Y-8824103D02*
X2817682Y-8862198D01*
X2817682Y-8862198D02*
X2817682Y-8938389D01*
X2817682Y-8938389D02*
X2827206Y-8957436D01*
X2827206Y-8957436D02*
X2836729Y-8966960D01*
X2836729Y-8966960D02*
X2855777Y-8976484D01*
X2855777Y-8976484D02*
X2893872Y-8976484D01*
X2893872Y-8976484D02*
X2912920Y-8966960D01*
X2912920Y-8966960D02*
X2922444Y-8957436D01*
X2922444Y-8957436D02*
X2931967Y-8938389D01*
X2931967Y-8938389D02*
X2931967Y-8890770D01*
X2931967Y-8890770D02*
X2922444Y-8871722D01*
X2922444Y-8871722D02*
X2912920Y-8862198D01*
X2912920Y-8862198D02*
X2893872Y-8852674D01*
X2893872Y-8852674D02*
X2855777Y-8852674D01*
X2855777Y-8852674D02*
X2836729Y-8862198D01*
X2836729Y-8862198D02*
X2827206Y-8871722D01*
X2827206Y-8871722D02*
X2817682Y-8890770D01*
X3055777Y-8776484D02*
X3074825Y-8776484D01*
X3074825Y-8776484D02*
X3093872Y-8786008D01*
X3093872Y-8786008D02*
X3103396Y-8795531D01*
X3103396Y-8795531D02*
X3112920Y-8814579D01*
X3112920Y-8814579D02*
X3122444Y-8852674D01*
X3122444Y-8852674D02*
X3122444Y-8900293D01*
X3122444Y-8900293D02*
X3112920Y-8938389D01*
X3112920Y-8938389D02*
X3103396Y-8957436D01*
X3103396Y-8957436D02*
X3093872Y-8966960D01*
X3093872Y-8966960D02*
X3074825Y-8976484D01*
X3074825Y-8976484D02*
X3055777Y-8976484D01*
X3055777Y-8976484D02*
X3036729Y-8966960D01*
X3036729Y-8966960D02*
X3027206Y-8957436D01*
X3027206Y-8957436D02*
X3017682Y-8938389D01*
X3017682Y-8938389D02*
X3008158Y-8900293D01*
X3008158Y-8900293D02*
X3008158Y-8852674D01*
X3008158Y-8852674D02*
X3017682Y-8814579D01*
X3017682Y-8814579D02*
X3027206Y-8795531D01*
X3027206Y-8795531D02*
X3036729Y-8786008D01*
X3036729Y-8786008D02*
X3055777Y-8776484D01*
X3198634Y-8776484D02*
X3198634Y-8814579D01*
X3274825Y-8776484D02*
X3274825Y-8814579D01*
X3570063Y-9052674D02*
X3560539Y-9043150D01*
X3560539Y-9043150D02*
X3541491Y-9014579D01*
X3541491Y-9014579D02*
X3531968Y-8995531D01*
X3531968Y-8995531D02*
X3522444Y-8966960D01*
X3522444Y-8966960D02*
X3512920Y-8919341D01*
X3512920Y-8919341D02*
X3512920Y-8881246D01*
X3512920Y-8881246D02*
X3522444Y-8833627D01*
X3522444Y-8833627D02*
X3531968Y-8805055D01*
X3531968Y-8805055D02*
X3541491Y-8786008D01*
X3541491Y-8786008D02*
X3560539Y-8757436D01*
X3560539Y-8757436D02*
X3570063Y-8747912D01*
X3636729Y-8795531D02*
X3646253Y-8786008D01*
X3646253Y-8786008D02*
X3665301Y-8776484D01*
X3665301Y-8776484D02*
X3712920Y-8776484D01*
X3712920Y-8776484D02*
X3731968Y-8786008D01*
X3731968Y-8786008D02*
X3741491Y-8795531D01*
X3741491Y-8795531D02*
X3751015Y-8814579D01*
X3751015Y-8814579D02*
X3751015Y-8833627D01*
X3751015Y-8833627D02*
X3741491Y-8862198D01*
X3741491Y-8862198D02*
X3627206Y-8976484D01*
X3627206Y-8976484D02*
X3751015Y-8976484D01*
X3989110Y-8976484D02*
X3989110Y-8776484D01*
X4074825Y-8976484D02*
X4074825Y-8871722D01*
X4074825Y-8871722D02*
X4065301Y-8852674D01*
X4065301Y-8852674D02*
X4046253Y-8843150D01*
X4046253Y-8843150D02*
X4017682Y-8843150D01*
X4017682Y-8843150D02*
X3998634Y-8852674D01*
X3998634Y-8852674D02*
X3989110Y-8862198D01*
X4198634Y-8976484D02*
X4179587Y-8966960D01*
X4179587Y-8966960D02*
X4170063Y-8957436D01*
X4170063Y-8957436D02*
X4160539Y-8938389D01*
X4160539Y-8938389D02*
X4160539Y-8881246D01*
X4160539Y-8881246D02*
X4170063Y-8862198D01*
X4170063Y-8862198D02*
X4179587Y-8852674D01*
X4179587Y-8852674D02*
X4198634Y-8843150D01*
X4198634Y-8843150D02*
X4227206Y-8843150D01*
X4227206Y-8843150D02*
X4246253Y-8852674D01*
X4246253Y-8852674D02*
X4255777Y-8862198D01*
X4255777Y-8862198D02*
X4265301Y-8881246D01*
X4265301Y-8881246D02*
X4265301Y-8938389D01*
X4265301Y-8938389D02*
X4255777Y-8957436D01*
X4255777Y-8957436D02*
X4246253Y-8966960D01*
X4246253Y-8966960D02*
X4227206Y-8976484D01*
X4227206Y-8976484D02*
X4198634Y-8976484D01*
X4379587Y-8976484D02*
X4360539Y-8966960D01*
X4360539Y-8966960D02*
X4351015Y-8947912D01*
X4351015Y-8947912D02*
X4351015Y-8776484D01*
X4531968Y-8966960D02*
X4512920Y-8976484D01*
X4512920Y-8976484D02*
X4474825Y-8976484D01*
X4474825Y-8976484D02*
X4455777Y-8966960D01*
X4455777Y-8966960D02*
X4446253Y-8947912D01*
X4446253Y-8947912D02*
X4446253Y-8871722D01*
X4446253Y-8871722D02*
X4455777Y-8852674D01*
X4455777Y-8852674D02*
X4474825Y-8843150D01*
X4474825Y-8843150D02*
X4512920Y-8843150D01*
X4512920Y-8843150D02*
X4531968Y-8852674D01*
X4531968Y-8852674D02*
X4541492Y-8871722D01*
X4541492Y-8871722D02*
X4541492Y-8890770D01*
X4541492Y-8890770D02*
X4446253Y-8909817D01*
X4617682Y-8966960D02*
X4636730Y-8976484D01*
X4636730Y-8976484D02*
X4674825Y-8976484D01*
X4674825Y-8976484D02*
X4693873Y-8966960D01*
X4693873Y-8966960D02*
X4703396Y-8947912D01*
X4703396Y-8947912D02*
X4703396Y-8938389D01*
X4703396Y-8938389D02*
X4693873Y-8919341D01*
X4693873Y-8919341D02*
X4674825Y-8909817D01*
X4674825Y-8909817D02*
X4646253Y-8909817D01*
X4646253Y-8909817D02*
X4627206Y-8900293D01*
X4627206Y-8900293D02*
X4617682Y-8881246D01*
X4617682Y-8881246D02*
X4617682Y-8871722D01*
X4617682Y-8871722D02*
X4627206Y-8852674D01*
X4627206Y-8852674D02*
X4646253Y-8843150D01*
X4646253Y-8843150D02*
X4674825Y-8843150D01*
X4674825Y-8843150D02*
X4693873Y-8852674D01*
X4770063Y-9052674D02*
X4779587Y-9043150D01*
X4779587Y-9043150D02*
X4798634Y-9014579D01*
X4798634Y-9014579D02*
X4808158Y-8995531D01*
X4808158Y-8995531D02*
X4817682Y-8966960D01*
X4817682Y-8966960D02*
X4827206Y-8919341D01*
X4827206Y-8919341D02*
X4827206Y-8881246D01*
X4827206Y-8881246D02*
X4817682Y-8833627D01*
X4817682Y-8833627D02*
X4808158Y-8805055D01*
X4808158Y-8805055D02*
X4798634Y-8786008D01*
X4798634Y-8786008D02*
X4779587Y-8757436D01*
X4779587Y-8757436D02*
X4770063Y-8747912D01*
X5131968Y-9052674D02*
X5122444Y-9043150D01*
X5122444Y-9043150D02*
X5103396Y-9014579D01*
X5103396Y-9014579D02*
X5093873Y-8995531D01*
X5093873Y-8995531D02*
X5084349Y-8966960D01*
X5084349Y-8966960D02*
X5074825Y-8919341D01*
X5074825Y-8919341D02*
X5074825Y-8881246D01*
X5074825Y-8881246D02*
X5084349Y-8833627D01*
X5084349Y-8833627D02*
X5093873Y-8805055D01*
X5093873Y-8805055D02*
X5103396Y-8786008D01*
X5103396Y-8786008D02*
X5122444Y-8757436D01*
X5122444Y-8757436D02*
X5131968Y-8747912D01*
X5208158Y-8843150D02*
X5208158Y-8976484D01*
X5208158Y-8862198D02*
X5217682Y-8852674D01*
X5217682Y-8852674D02*
X5236730Y-8843150D01*
X5236730Y-8843150D02*
X5265301Y-8843150D01*
X5265301Y-8843150D02*
X5284349Y-8852674D01*
X5284349Y-8852674D02*
X5293873Y-8871722D01*
X5293873Y-8871722D02*
X5293873Y-8976484D01*
X5417682Y-8976484D02*
X5398634Y-8966960D01*
X5398634Y-8966960D02*
X5389111Y-8957436D01*
X5389111Y-8957436D02*
X5379587Y-8938389D01*
X5379587Y-8938389D02*
X5379587Y-8881246D01*
X5379587Y-8881246D02*
X5389111Y-8862198D01*
X5389111Y-8862198D02*
X5398634Y-8852674D01*
X5398634Y-8852674D02*
X5417682Y-8843150D01*
X5417682Y-8843150D02*
X5446254Y-8843150D01*
X5446254Y-8843150D02*
X5465301Y-8852674D01*
X5465301Y-8852674D02*
X5474825Y-8862198D01*
X5474825Y-8862198D02*
X5484349Y-8881246D01*
X5484349Y-8881246D02*
X5484349Y-8938389D01*
X5484349Y-8938389D02*
X5474825Y-8957436D01*
X5474825Y-8957436D02*
X5465301Y-8966960D01*
X5465301Y-8966960D02*
X5446254Y-8976484D01*
X5446254Y-8976484D02*
X5417682Y-8976484D01*
X5541492Y-8843150D02*
X5617682Y-8843150D01*
X5570063Y-8776484D02*
X5570063Y-8947912D01*
X5570063Y-8947912D02*
X5579587Y-8966960D01*
X5579587Y-8966960D02*
X5598634Y-8976484D01*
X5598634Y-8976484D02*
X5617682Y-8976484D01*
X5836730Y-8843150D02*
X5836730Y-9043150D01*
X5836730Y-8852674D02*
X5855777Y-8843150D01*
X5855777Y-8843150D02*
X5893873Y-8843150D01*
X5893873Y-8843150D02*
X5912920Y-8852674D01*
X5912920Y-8852674D02*
X5922444Y-8862198D01*
X5922444Y-8862198D02*
X5931968Y-8881246D01*
X5931968Y-8881246D02*
X5931968Y-8938389D01*
X5931968Y-8938389D02*
X5922444Y-8957436D01*
X5922444Y-8957436D02*
X5912920Y-8966960D01*
X5912920Y-8966960D02*
X5893873Y-8976484D01*
X5893873Y-8976484D02*
X5855777Y-8976484D01*
X5855777Y-8976484D02*
X5836730Y-8966960D01*
X6046253Y-8976484D02*
X6027206Y-8966960D01*
X6027206Y-8966960D02*
X6017682Y-8947912D01*
X6017682Y-8947912D02*
X6017682Y-8776484D01*
X6208158Y-8976484D02*
X6208158Y-8871722D01*
X6208158Y-8871722D02*
X6198634Y-8852674D01*
X6198634Y-8852674D02*
X6179587Y-8843150D01*
X6179587Y-8843150D02*
X6141492Y-8843150D01*
X6141492Y-8843150D02*
X6122444Y-8852674D01*
X6208158Y-8966960D02*
X6189111Y-8976484D01*
X6189111Y-8976484D02*
X6141492Y-8976484D01*
X6141492Y-8976484D02*
X6122444Y-8966960D01*
X6122444Y-8966960D02*
X6112920Y-8947912D01*
X6112920Y-8947912D02*
X6112920Y-8928865D01*
X6112920Y-8928865D02*
X6122444Y-8909817D01*
X6122444Y-8909817D02*
X6141492Y-8900293D01*
X6141492Y-8900293D02*
X6189111Y-8900293D01*
X6189111Y-8900293D02*
X6208158Y-8890770D01*
X6274825Y-8843150D02*
X6351015Y-8843150D01*
X6303396Y-8776484D02*
X6303396Y-8947912D01*
X6303396Y-8947912D02*
X6312920Y-8966960D01*
X6312920Y-8966960D02*
X6331968Y-8976484D01*
X6331968Y-8976484D02*
X6351015Y-8976484D01*
X6493873Y-8966960D02*
X6474825Y-8976484D01*
X6474825Y-8976484D02*
X6436730Y-8976484D01*
X6436730Y-8976484D02*
X6417682Y-8966960D01*
X6417682Y-8966960D02*
X6408158Y-8947912D01*
X6408158Y-8947912D02*
X6408158Y-8871722D01*
X6408158Y-8871722D02*
X6417682Y-8852674D01*
X6417682Y-8852674D02*
X6436730Y-8843150D01*
X6436730Y-8843150D02*
X6474825Y-8843150D01*
X6474825Y-8843150D02*
X6493873Y-8852674D01*
X6493873Y-8852674D02*
X6503396Y-8871722D01*
X6503396Y-8871722D02*
X6503396Y-8890770D01*
X6503396Y-8890770D02*
X6408158Y-8909817D01*
X6674825Y-8976484D02*
X6674825Y-8776484D01*
X6674825Y-8966960D02*
X6655777Y-8976484D01*
X6655777Y-8976484D02*
X6617682Y-8976484D01*
X6617682Y-8976484D02*
X6598634Y-8966960D01*
X6598634Y-8966960D02*
X6589111Y-8957436D01*
X6589111Y-8957436D02*
X6579587Y-8938389D01*
X6579587Y-8938389D02*
X6579587Y-8881246D01*
X6579587Y-8881246D02*
X6589111Y-8862198D01*
X6589111Y-8862198D02*
X6598634Y-8852674D01*
X6598634Y-8852674D02*
X6617682Y-8843150D01*
X6617682Y-8843150D02*
X6655777Y-8843150D01*
X6655777Y-8843150D02*
X6674825Y-8852674D01*
X6751015Y-9052674D02*
X6760539Y-9043150D01*
X6760539Y-9043150D02*
X6779587Y-9014579D01*
X6779587Y-9014579D02*
X6789111Y-8995531D01*
X6789111Y-8995531D02*
X6798634Y-8966960D01*
X6798634Y-8966960D02*
X6808158Y-8919341D01*
X6808158Y-8919341D02*
X6808158Y-8881246D01*
X6808158Y-8881246D02*
X6798634Y-8833627D01*
X6798634Y-8833627D02*
X6789111Y-8805055D01*
X6789111Y-8805055D02*
X6779587Y-8786008D01*
X6779587Y-8786008D02*
X6760539Y-8757436D01*
X6760539Y-8757436D02*
X6751015Y-8747912D01*
X-205000Y-9105000D02*
X-5000Y-9305000D01*
X-5000Y-9105000D02*
X-205000Y-9305000D01*
X-34289Y-9275711D02*
X-34289Y-9134289D01*
X-175711Y-9134289D01*
X-175711Y-9275711D01*
X-34289Y-9275711D01*
X236729Y-9096484D02*
X360539Y-9096484D01*
X360539Y-9096484D02*
X293872Y-9172674D01*
X293872Y-9172674D02*
X322444Y-9172674D01*
X322444Y-9172674D02*
X341491Y-9182198D01*
X341491Y-9182198D02*
X351015Y-9191722D01*
X351015Y-9191722D02*
X360539Y-9210770D01*
X360539Y-9210770D02*
X360539Y-9258389D01*
X360539Y-9258389D02*
X351015Y-9277436D01*
X351015Y-9277436D02*
X341491Y-9286960D01*
X341491Y-9286960D02*
X322444Y-9296484D01*
X322444Y-9296484D02*
X265301Y-9296484D01*
X265301Y-9296484D02*
X246253Y-9286960D01*
X246253Y-9286960D02*
X236729Y-9277436D01*
X446253Y-9277436D02*
X455777Y-9286960D01*
X455777Y-9286960D02*
X446253Y-9296484D01*
X446253Y-9296484D02*
X436729Y-9286960D01*
X436729Y-9286960D02*
X446253Y-9277436D01*
X446253Y-9277436D02*
X446253Y-9296484D01*
X627205Y-9163150D02*
X627205Y-9296484D01*
X579586Y-9086960D02*
X531967Y-9229817D01*
X531967Y-9229817D02*
X655777Y-9229817D01*
X770062Y-9096484D02*
X789110Y-9096484D01*
X789110Y-9096484D02*
X808158Y-9106008D01*
X808158Y-9106008D02*
X817682Y-9115531D01*
X817682Y-9115531D02*
X827205Y-9134579D01*
X827205Y-9134579D02*
X836729Y-9172674D01*
X836729Y-9172674D02*
X836729Y-9220293D01*
X836729Y-9220293D02*
X827205Y-9258389D01*
X827205Y-9258389D02*
X817682Y-9277436D01*
X817682Y-9277436D02*
X808158Y-9286960D01*
X808158Y-9286960D02*
X789110Y-9296484D01*
X789110Y-9296484D02*
X770062Y-9296484D01*
X770062Y-9296484D02*
X751015Y-9286960D01*
X751015Y-9286960D02*
X741491Y-9277436D01*
X741491Y-9277436D02*
X731967Y-9258389D01*
X731967Y-9258389D02*
X722443Y-9220293D01*
X722443Y-9220293D02*
X722443Y-9172674D01*
X722443Y-9172674D02*
X731967Y-9134579D01*
X731967Y-9134579D02*
X741491Y-9115531D01*
X741491Y-9115531D02*
X751015Y-9106008D01*
X751015Y-9106008D02*
X770062Y-9096484D01*
X960539Y-9096484D02*
X979586Y-9096484D01*
X979586Y-9096484D02*
X998634Y-9106008D01*
X998634Y-9106008D02*
X1008158Y-9115531D01*
X1008158Y-9115531D02*
X1017682Y-9134579D01*
X1017682Y-9134579D02*
X1027205Y-9172674D01*
X1027205Y-9172674D02*
X1027205Y-9220293D01*
X1027205Y-9220293D02*
X1017682Y-9258389D01*
X1017682Y-9258389D02*
X1008158Y-9277436D01*
X1008158Y-9277436D02*
X998634Y-9286960D01*
X998634Y-9286960D02*
X979586Y-9296484D01*
X979586Y-9296484D02*
X960539Y-9296484D01*
X960539Y-9296484D02*
X941491Y-9286960D01*
X941491Y-9286960D02*
X931967Y-9277436D01*
X931967Y-9277436D02*
X922443Y-9258389D01*
X922443Y-9258389D02*
X912920Y-9220293D01*
X912920Y-9220293D02*
X912920Y-9172674D01*
X912920Y-9172674D02*
X922443Y-9134579D01*
X922443Y-9134579D02*
X931967Y-9115531D01*
X931967Y-9115531D02*
X941491Y-9106008D01*
X941491Y-9106008D02*
X960539Y-9096484D01*
X1112920Y-9296484D02*
X1112920Y-9163150D01*
X1112920Y-9182198D02*
X1122444Y-9172674D01*
X1122444Y-9172674D02*
X1141491Y-9163150D01*
X1141491Y-9163150D02*
X1170063Y-9163150D01*
X1170063Y-9163150D02*
X1189110Y-9172674D01*
X1189110Y-9172674D02*
X1198634Y-9191722D01*
X1198634Y-9191722D02*
X1198634Y-9296484D01*
X1198634Y-9191722D02*
X1208158Y-9172674D01*
X1208158Y-9172674D02*
X1227205Y-9163150D01*
X1227205Y-9163150D02*
X1255777Y-9163150D01*
X1255777Y-9163150D02*
X1274825Y-9172674D01*
X1274825Y-9172674D02*
X1284348Y-9191722D01*
X1284348Y-9191722D02*
X1284348Y-9296484D01*
X1379586Y-9296484D02*
X1379586Y-9163150D01*
X1379586Y-9182198D02*
X1389110Y-9172674D01*
X1389110Y-9172674D02*
X1408158Y-9163150D01*
X1408158Y-9163150D02*
X1436729Y-9163150D01*
X1436729Y-9163150D02*
X1455777Y-9172674D01*
X1455777Y-9172674D02*
X1465301Y-9191722D01*
X1465301Y-9191722D02*
X1465301Y-9296484D01*
X1465301Y-9191722D02*
X1474824Y-9172674D01*
X1474824Y-9172674D02*
X1493872Y-9163150D01*
X1493872Y-9163150D02*
X1522443Y-9163150D01*
X1522443Y-9163150D02*
X1541491Y-9172674D01*
X1541491Y-9172674D02*
X1551015Y-9191722D01*
X1551015Y-9191722D02*
X1551015Y-9296484D01*
X1941491Y-9086960D02*
X1770063Y-9344103D01*
X2198634Y-9096484D02*
X2217682Y-9096484D01*
X2217682Y-9096484D02*
X2236729Y-9106008D01*
X2236729Y-9106008D02*
X2246253Y-9115531D01*
X2246253Y-9115531D02*
X2255777Y-9134579D01*
X2255777Y-9134579D02*
X2265301Y-9172674D01*
X2265301Y-9172674D02*
X2265301Y-9220293D01*
X2265301Y-9220293D02*
X2255777Y-9258389D01*
X2255777Y-9258389D02*
X2246253Y-9277436D01*
X2246253Y-9277436D02*
X2236729Y-9286960D01*
X2236729Y-9286960D02*
X2217682Y-9296484D01*
X2217682Y-9296484D02*
X2198634Y-9296484D01*
X2198634Y-9296484D02*
X2179587Y-9286960D01*
X2179587Y-9286960D02*
X2170063Y-9277436D01*
X2170063Y-9277436D02*
X2160539Y-9258389D01*
X2160539Y-9258389D02*
X2151015Y-9220293D01*
X2151015Y-9220293D02*
X2151015Y-9172674D01*
X2151015Y-9172674D02*
X2160539Y-9134579D01*
X2160539Y-9134579D02*
X2170063Y-9115531D01*
X2170063Y-9115531D02*
X2179587Y-9106008D01*
X2179587Y-9106008D02*
X2198634Y-9096484D01*
X2351015Y-9277436D02*
X2360539Y-9286960D01*
X2360539Y-9286960D02*
X2351015Y-9296484D01*
X2351015Y-9296484D02*
X2341491Y-9286960D01*
X2341491Y-9286960D02*
X2351015Y-9277436D01*
X2351015Y-9277436D02*
X2351015Y-9296484D01*
X2551015Y-9296484D02*
X2436729Y-9296484D01*
X2493872Y-9296484D02*
X2493872Y-9096484D01*
X2493872Y-9096484D02*
X2474825Y-9125055D01*
X2474825Y-9125055D02*
X2455777Y-9144103D01*
X2455777Y-9144103D02*
X2436729Y-9153627D01*
X2617682Y-9096484D02*
X2741491Y-9096484D01*
X2741491Y-9096484D02*
X2674825Y-9172674D01*
X2674825Y-9172674D02*
X2703396Y-9172674D01*
X2703396Y-9172674D02*
X2722444Y-9182198D01*
X2722444Y-9182198D02*
X2731968Y-9191722D01*
X2731968Y-9191722D02*
X2741491Y-9210770D01*
X2741491Y-9210770D02*
X2741491Y-9258389D01*
X2741491Y-9258389D02*
X2731968Y-9277436D01*
X2731968Y-9277436D02*
X2722444Y-9286960D01*
X2722444Y-9286960D02*
X2703396Y-9296484D01*
X2703396Y-9296484D02*
X2646253Y-9296484D01*
X2646253Y-9296484D02*
X2627206Y-9286960D01*
X2627206Y-9286960D02*
X2617682Y-9277436D01*
X2808158Y-9096484D02*
X2931967Y-9096484D01*
X2931967Y-9096484D02*
X2865301Y-9172674D01*
X2865301Y-9172674D02*
X2893872Y-9172674D01*
X2893872Y-9172674D02*
X2912920Y-9182198D01*
X2912920Y-9182198D02*
X2922444Y-9191722D01*
X2922444Y-9191722D02*
X2931967Y-9210770D01*
X2931967Y-9210770D02*
X2931967Y-9258389D01*
X2931967Y-9258389D02*
X2922444Y-9277436D01*
X2922444Y-9277436D02*
X2912920Y-9286960D01*
X2912920Y-9286960D02*
X2893872Y-9296484D01*
X2893872Y-9296484D02*
X2836729Y-9296484D01*
X2836729Y-9296484D02*
X2817682Y-9286960D01*
X2817682Y-9286960D02*
X2808158Y-9277436D01*
X3027206Y-9296484D02*
X3065301Y-9296484D01*
X3065301Y-9296484D02*
X3084348Y-9286960D01*
X3084348Y-9286960D02*
X3093872Y-9277436D01*
X3093872Y-9277436D02*
X3112920Y-9248865D01*
X3112920Y-9248865D02*
X3122444Y-9210770D01*
X3122444Y-9210770D02*
X3122444Y-9134579D01*
X3122444Y-9134579D02*
X3112920Y-9115531D01*
X3112920Y-9115531D02*
X3103396Y-9106008D01*
X3103396Y-9106008D02*
X3084348Y-9096484D01*
X3084348Y-9096484D02*
X3046253Y-9096484D01*
X3046253Y-9096484D02*
X3027206Y-9106008D01*
X3027206Y-9106008D02*
X3017682Y-9115531D01*
X3017682Y-9115531D02*
X3008158Y-9134579D01*
X3008158Y-9134579D02*
X3008158Y-9182198D01*
X3008158Y-9182198D02*
X3017682Y-9201246D01*
X3017682Y-9201246D02*
X3027206Y-9210770D01*
X3027206Y-9210770D02*
X3046253Y-9220293D01*
X3046253Y-9220293D02*
X3084348Y-9220293D01*
X3084348Y-9220293D02*
X3103396Y-9210770D01*
X3103396Y-9210770D02*
X3112920Y-9201246D01*
X3112920Y-9201246D02*
X3122444Y-9182198D01*
X3198634Y-9096484D02*
X3198634Y-9134579D01*
X3274825Y-9096484D02*
X3274825Y-9134579D01*
X3570063Y-9372674D02*
X3560539Y-9363150D01*
X3560539Y-9363150D02*
X3541491Y-9334579D01*
X3541491Y-9334579D02*
X3531968Y-9315531D01*
X3531968Y-9315531D02*
X3522444Y-9286960D01*
X3522444Y-9286960D02*
X3512920Y-9239341D01*
X3512920Y-9239341D02*
X3512920Y-9201246D01*
X3512920Y-9201246D02*
X3522444Y-9153627D01*
X3522444Y-9153627D02*
X3531968Y-9125055D01*
X3531968Y-9125055D02*
X3541491Y-9106008D01*
X3541491Y-9106008D02*
X3560539Y-9077436D01*
X3560539Y-9077436D02*
X3570063Y-9067912D01*
X3636729Y-9115531D02*
X3646253Y-9106008D01*
X3646253Y-9106008D02*
X3665301Y-9096484D01*
X3665301Y-9096484D02*
X3712920Y-9096484D01*
X3712920Y-9096484D02*
X3731968Y-9106008D01*
X3731968Y-9106008D02*
X3741491Y-9115531D01*
X3741491Y-9115531D02*
X3751015Y-9134579D01*
X3751015Y-9134579D02*
X3751015Y-9153627D01*
X3751015Y-9153627D02*
X3741491Y-9182198D01*
X3741491Y-9182198D02*
X3627206Y-9296484D01*
X3627206Y-9296484D02*
X3751015Y-9296484D01*
X3989110Y-9296484D02*
X3989110Y-9096484D01*
X4074825Y-9296484D02*
X4074825Y-9191722D01*
X4074825Y-9191722D02*
X4065301Y-9172674D01*
X4065301Y-9172674D02*
X4046253Y-9163150D01*
X4046253Y-9163150D02*
X4017682Y-9163150D01*
X4017682Y-9163150D02*
X3998634Y-9172674D01*
X3998634Y-9172674D02*
X3989110Y-9182198D01*
X4198634Y-9296484D02*
X4179587Y-9286960D01*
X4179587Y-9286960D02*
X4170063Y-9277436D01*
X4170063Y-9277436D02*
X4160539Y-9258389D01*
X4160539Y-9258389D02*
X4160539Y-9201246D01*
X4160539Y-9201246D02*
X4170063Y-9182198D01*
X4170063Y-9182198D02*
X4179587Y-9172674D01*
X4179587Y-9172674D02*
X4198634Y-9163150D01*
X4198634Y-9163150D02*
X4227206Y-9163150D01*
X4227206Y-9163150D02*
X4246253Y-9172674D01*
X4246253Y-9172674D02*
X4255777Y-9182198D01*
X4255777Y-9182198D02*
X4265301Y-9201246D01*
X4265301Y-9201246D02*
X4265301Y-9258389D01*
X4265301Y-9258389D02*
X4255777Y-9277436D01*
X4255777Y-9277436D02*
X4246253Y-9286960D01*
X4246253Y-9286960D02*
X4227206Y-9296484D01*
X4227206Y-9296484D02*
X4198634Y-9296484D01*
X4379587Y-9296484D02*
X4360539Y-9286960D01*
X4360539Y-9286960D02*
X4351015Y-9267912D01*
X4351015Y-9267912D02*
X4351015Y-9096484D01*
X4531968Y-9286960D02*
X4512920Y-9296484D01*
X4512920Y-9296484D02*
X4474825Y-9296484D01*
X4474825Y-9296484D02*
X4455777Y-9286960D01*
X4455777Y-9286960D02*
X4446253Y-9267912D01*
X4446253Y-9267912D02*
X4446253Y-9191722D01*
X4446253Y-9191722D02*
X4455777Y-9172674D01*
X4455777Y-9172674D02*
X4474825Y-9163150D01*
X4474825Y-9163150D02*
X4512920Y-9163150D01*
X4512920Y-9163150D02*
X4531968Y-9172674D01*
X4531968Y-9172674D02*
X4541492Y-9191722D01*
X4541492Y-9191722D02*
X4541492Y-9210770D01*
X4541492Y-9210770D02*
X4446253Y-9229817D01*
X4617682Y-9286960D02*
X4636730Y-9296484D01*
X4636730Y-9296484D02*
X4674825Y-9296484D01*
X4674825Y-9296484D02*
X4693873Y-9286960D01*
X4693873Y-9286960D02*
X4703396Y-9267912D01*
X4703396Y-9267912D02*
X4703396Y-9258389D01*
X4703396Y-9258389D02*
X4693873Y-9239341D01*
X4693873Y-9239341D02*
X4674825Y-9229817D01*
X4674825Y-9229817D02*
X4646253Y-9229817D01*
X4646253Y-9229817D02*
X4627206Y-9220293D01*
X4627206Y-9220293D02*
X4617682Y-9201246D01*
X4617682Y-9201246D02*
X4617682Y-9191722D01*
X4617682Y-9191722D02*
X4627206Y-9172674D01*
X4627206Y-9172674D02*
X4646253Y-9163150D01*
X4646253Y-9163150D02*
X4674825Y-9163150D01*
X4674825Y-9163150D02*
X4693873Y-9172674D01*
X4770063Y-9372674D02*
X4779587Y-9363150D01*
X4779587Y-9363150D02*
X4798634Y-9334579D01*
X4798634Y-9334579D02*
X4808158Y-9315531D01*
X4808158Y-9315531D02*
X4817682Y-9286960D01*
X4817682Y-9286960D02*
X4827206Y-9239341D01*
X4827206Y-9239341D02*
X4827206Y-9201246D01*
X4827206Y-9201246D02*
X4817682Y-9153627D01*
X4817682Y-9153627D02*
X4808158Y-9125055D01*
X4808158Y-9125055D02*
X4798634Y-9106008D01*
X4798634Y-9106008D02*
X4779587Y-9077436D01*
X4779587Y-9077436D02*
X4770063Y-9067912D01*
X5131968Y-9372674D02*
X5122444Y-9363150D01*
X5122444Y-9363150D02*
X5103396Y-9334579D01*
X5103396Y-9334579D02*
X5093873Y-9315531D01*
X5093873Y-9315531D02*
X5084349Y-9286960D01*
X5084349Y-9286960D02*
X5074825Y-9239341D01*
X5074825Y-9239341D02*
X5074825Y-9201246D01*
X5074825Y-9201246D02*
X5084349Y-9153627D01*
X5084349Y-9153627D02*
X5093873Y-9125055D01*
X5093873Y-9125055D02*
X5103396Y-9106008D01*
X5103396Y-9106008D02*
X5122444Y-9077436D01*
X5122444Y-9077436D02*
X5131968Y-9067912D01*
X5208158Y-9163150D02*
X5208158Y-9296484D01*
X5208158Y-9182198D02*
X5217682Y-9172674D01*
X5217682Y-9172674D02*
X5236730Y-9163150D01*
X5236730Y-9163150D02*
X5265301Y-9163150D01*
X5265301Y-9163150D02*
X5284349Y-9172674D01*
X5284349Y-9172674D02*
X5293873Y-9191722D01*
X5293873Y-9191722D02*
X5293873Y-9296484D01*
X5417682Y-9296484D02*
X5398634Y-9286960D01*
X5398634Y-9286960D02*
X5389111Y-9277436D01*
X5389111Y-9277436D02*
X5379587Y-9258389D01*
X5379587Y-9258389D02*
X5379587Y-9201246D01*
X5379587Y-9201246D02*
X5389111Y-9182198D01*
X5389111Y-9182198D02*
X5398634Y-9172674D01*
X5398634Y-9172674D02*
X5417682Y-9163150D01*
X5417682Y-9163150D02*
X5446254Y-9163150D01*
X5446254Y-9163150D02*
X5465301Y-9172674D01*
X5465301Y-9172674D02*
X5474825Y-9182198D01*
X5474825Y-9182198D02*
X5484349Y-9201246D01*
X5484349Y-9201246D02*
X5484349Y-9258389D01*
X5484349Y-9258389D02*
X5474825Y-9277436D01*
X5474825Y-9277436D02*
X5465301Y-9286960D01*
X5465301Y-9286960D02*
X5446254Y-9296484D01*
X5446254Y-9296484D02*
X5417682Y-9296484D01*
X5541492Y-9163150D02*
X5617682Y-9163150D01*
X5570063Y-9096484D02*
X5570063Y-9267912D01*
X5570063Y-9267912D02*
X5579587Y-9286960D01*
X5579587Y-9286960D02*
X5598634Y-9296484D01*
X5598634Y-9296484D02*
X5617682Y-9296484D01*
X5836730Y-9163150D02*
X5836730Y-9363150D01*
X5836730Y-9172674D02*
X5855777Y-9163150D01*
X5855777Y-9163150D02*
X5893873Y-9163150D01*
X5893873Y-9163150D02*
X5912920Y-9172674D01*
X5912920Y-9172674D02*
X5922444Y-9182198D01*
X5922444Y-9182198D02*
X5931968Y-9201246D01*
X5931968Y-9201246D02*
X5931968Y-9258389D01*
X5931968Y-9258389D02*
X5922444Y-9277436D01*
X5922444Y-9277436D02*
X5912920Y-9286960D01*
X5912920Y-9286960D02*
X5893873Y-9296484D01*
X5893873Y-9296484D02*
X5855777Y-9296484D01*
X5855777Y-9296484D02*
X5836730Y-9286960D01*
X6046253Y-9296484D02*
X6027206Y-9286960D01*
X6027206Y-9286960D02*
X6017682Y-9267912D01*
X6017682Y-9267912D02*
X6017682Y-9096484D01*
X6208158Y-9296484D02*
X6208158Y-9191722D01*
X6208158Y-9191722D02*
X6198634Y-9172674D01*
X6198634Y-9172674D02*
X6179587Y-9163150D01*
X6179587Y-9163150D02*
X6141492Y-9163150D01*
X6141492Y-9163150D02*
X6122444Y-9172674D01*
X6208158Y-9286960D02*
X6189111Y-9296484D01*
X6189111Y-9296484D02*
X6141492Y-9296484D01*
X6141492Y-9296484D02*
X6122444Y-9286960D01*
X6122444Y-9286960D02*
X6112920Y-9267912D01*
X6112920Y-9267912D02*
X6112920Y-9248865D01*
X6112920Y-9248865D02*
X6122444Y-9229817D01*
X6122444Y-9229817D02*
X6141492Y-9220293D01*
X6141492Y-9220293D02*
X6189111Y-9220293D01*
X6189111Y-9220293D02*
X6208158Y-9210770D01*
X6274825Y-9163150D02*
X6351015Y-9163150D01*
X6303396Y-9096484D02*
X6303396Y-9267912D01*
X6303396Y-9267912D02*
X6312920Y-9286960D01*
X6312920Y-9286960D02*
X6331968Y-9296484D01*
X6331968Y-9296484D02*
X6351015Y-9296484D01*
X6493873Y-9286960D02*
X6474825Y-9296484D01*
X6474825Y-9296484D02*
X6436730Y-9296484D01*
X6436730Y-9296484D02*
X6417682Y-9286960D01*
X6417682Y-9286960D02*
X6408158Y-9267912D01*
X6408158Y-9267912D02*
X6408158Y-9191722D01*
X6408158Y-9191722D02*
X6417682Y-9172674D01*
X6417682Y-9172674D02*
X6436730Y-9163150D01*
X6436730Y-9163150D02*
X6474825Y-9163150D01*
X6474825Y-9163150D02*
X6493873Y-9172674D01*
X6493873Y-9172674D02*
X6503396Y-9191722D01*
X6503396Y-9191722D02*
X6503396Y-9210770D01*
X6503396Y-9210770D02*
X6408158Y-9229817D01*
X6674825Y-9296484D02*
X6674825Y-9096484D01*
X6674825Y-9286960D02*
X6655777Y-9296484D01*
X6655777Y-9296484D02*
X6617682Y-9296484D01*
X6617682Y-9296484D02*
X6598634Y-9286960D01*
X6598634Y-9286960D02*
X6589111Y-9277436D01*
X6589111Y-9277436D02*
X6579587Y-9258389D01*
X6579587Y-9258389D02*
X6579587Y-9201246D01*
X6579587Y-9201246D02*
X6589111Y-9182198D01*
X6589111Y-9182198D02*
X6598634Y-9172674D01*
X6598634Y-9172674D02*
X6617682Y-9163150D01*
X6617682Y-9163150D02*
X6655777Y-9163150D01*
X6655777Y-9163150D02*
X6674825Y-9172674D01*
X6751015Y-9372674D02*
X6760539Y-9363150D01*
X6760539Y-9363150D02*
X6779587Y-9334579D01*
X6779587Y-9334579D02*
X6789111Y-9315531D01*
X6789111Y-9315531D02*
X6798634Y-9286960D01*
X6798634Y-9286960D02*
X6808158Y-9239341D01*
X6808158Y-9239341D02*
X6808158Y-9201246D01*
X6808158Y-9201246D02*
X6798634Y-9153627D01*
X6798634Y-9153627D02*
X6789111Y-9125055D01*
X6789111Y-9125055D02*
X6779587Y-9106008D01*
X6779587Y-9106008D02*
X6760539Y-9077436D01*
X6760539Y-9077436D02*
X6751015Y-9067912D01*
M02*
