%TF.GenerationSoftware,KiCad,Pcbnew,10.0.6*%
%TF.CreationDate,2026-09-19T16:50:13-05:00*%
%TF.ProjectId,difftx,64696666-7478-42e6-9b69-6361645f7063,rev?*%
%TF.SameCoordinates,Original*%
%TF.FileFunction,Soldermask,Top*%
%TF.FilePolarity,Negative*%
%FSLAX46Y46*%
G04 Gerber Fmt 4.6, Leading zero omitted, Abs format (unit mm)*
G04 Created by KiCad (PCBNEW 10.0.6) date 2026-09-19 16:50:13*
%MOMM*%
%LPD*%
G01*
G04 APERTURE LIST*
G04 Aperture macros list*
%AMRoundRect*
0 Rectangle with rounded corners*
0 $1 Rounding radius*
0 $2 $3 $4 $5 $6 $7 $8 $9 X,Y pos of 4 corners*
0 Add a 4 corners polygon primitive as box body*
4,1,4,$2,$3,$4,$5,$6,$7,$8,$9,$2,$3,0*
0 Add four circle primitives for the rounded corners*
1,1,$1+$1,$2,$3*
1,1,$1+$1,$4,$5*
1,1,$1+$1,$6,$7*
1,1,$1+$1,$8,$9*
0 Add four rect primitives between the rounded corners*
20,1,$1+$1,$2,$3,$4,$5,0*
20,1,$1+$1,$4,$5,$6,$7,0*
20,1,$1+$1,$6,$7,$8,$9,0*
20,1,$1+$1,$8,$9,$2,$3,0*%
G04 Aperture macros list end*
%ADD10C,2.700000*%
%ADD11RoundRect,0.250000X-0.650000X0.325000X-0.650000X-0.325000X0.650000X-0.325000X0.650000X0.325000X0*%
%ADD12RoundRect,0.250000X-0.475000X0.337500X-0.475000X-0.337500X0.475000X-0.337500X0.475000X0.337500X0*%
%ADD13R,1.000000X1.500000*%
%ADD14R,2.063000X1.539000*%
%ADD15C,3.200000*%
%ADD16C,2.200000*%
%ADD17C,3.400000*%
%ADD18C,1.524000*%
%ADD19RoundRect,0.200000X-0.275000X0.200000X-0.275000X-0.200000X0.275000X-0.200000X0.275000X0.200000X0*%
%ADD20O,1.971000X0.602000*%
%ADD21R,1.407000X3.499000*%
%ADD22RoundRect,0.250000X-0.337500X-0.475000X0.337500X-0.475000X0.337500X0.475000X-0.337500X0.475000X0*%
%ADD23O,1.800000X0.588000*%
%ADD24C,1.600000*%
%ADD25C,1.700000*%
%ADD26R,1.700000X1.700000*%
G04 APERTURE END LIST*
%TO.C,JP1*%
G36*
X12900000Y-24575000D02*
G01*
X13200000Y-24575000D01*
X13200000Y-26075000D01*
X12900000Y-26075000D01*
X12900000Y-24575000D01*
G37*
%TD*%
D10*
%TO.C,H4*%
X62000000Y-27000000D03*
%TD*%
D11*
%TO.C,C5*%
X55400000Y-48525000D03*
X55400000Y-51475000D03*
%TD*%
D12*
%TO.C,C2*%
X20000000Y-24462500D03*
X20000000Y-26537500D03*
%TD*%
D13*
%TO.C,JP1*%
X13700000Y-25325000D03*
X12400000Y-25325000D03*
%TD*%
D14*
%TO.C,D1*%
X55500000Y-54500000D03*
X50500000Y-54500000D03*
%TD*%
D10*
%TO.C,H2*%
X62000000Y-4000000D03*
%TD*%
D15*
%TO.C,H5*%
X3500000Y-62500000D03*
%TD*%
D16*
%TO.C,J4*%
X54500000Y-61500000D03*
X59500000Y-61500000D03*
%TD*%
D15*
%TO.C,H6*%
X30000000Y-62500000D03*
%TD*%
D12*
%TO.C,C1*%
X33800000Y-40502500D03*
X33800000Y-42577500D03*
%TD*%
D17*
%TO.C,J1*%
X5390000Y-43650000D03*
X5390000Y-56350000D03*
D18*
X7930000Y-53570000D03*
X9710000Y-52550000D03*
X7930000Y-51530000D03*
X9710000Y-50510000D03*
X7930000Y-49490000D03*
X9710000Y-48470000D03*
X7930000Y-47450000D03*
X9710000Y-46430000D03*
%TD*%
D11*
%TO.C,C3*%
X49000000Y-48525000D03*
X49000000Y-51475000D03*
%TD*%
D19*
%TO.C,R1*%
X16000000Y-25325000D03*
X16000000Y-26975000D03*
%TD*%
D20*
%TO.C,U2*%
X24260000Y-43050000D03*
X24260000Y-44330000D03*
X24260000Y-45600000D03*
X24260000Y-46870000D03*
X24260000Y-48130000D03*
X24260000Y-49400000D03*
X24260000Y-50670000D03*
X24260000Y-51950000D03*
X29740000Y-51950000D03*
X29740000Y-50670000D03*
X29740000Y-49400000D03*
X29740000Y-48130000D03*
X29740000Y-46870000D03*
X29740000Y-45600000D03*
X29740000Y-44330000D03*
X29740000Y-43050000D03*
%TD*%
D21*
%TO.C,F1*%
X61350000Y-54500000D03*
X57650000Y-54500000D03*
%TD*%
D22*
%TO.C,C6*%
X57462500Y-33800000D03*
X59537500Y-33800000D03*
%TD*%
D10*
%TO.C,H1*%
X4000000Y-4000000D03*
%TD*%
D23*
%TO.C,U3*%
X25200000Y-22800000D03*
X25200000Y-21530000D03*
X25200000Y-20270000D03*
X25200000Y-19000000D03*
X20000000Y-19000000D03*
X20000000Y-20270000D03*
X20000000Y-21530000D03*
X20000000Y-22800000D03*
%TD*%
D10*
%TO.C,H3*%
X4000000Y-27000000D03*
%TD*%
D11*
%TO.C,C4*%
X52200000Y-48525000D03*
X52200000Y-51475000D03*
%TD*%
D24*
%TO.C,U4*%
X51460000Y-38000000D03*
X54000000Y-38000000D03*
X56540000Y-38000000D03*
%TD*%
D25*
%TO.C,J3*%
X8870000Y-5270000D03*
D26*
X8870000Y-2730000D03*
D25*
X11410000Y-5270000D03*
X11410000Y-2730000D03*
X13950000Y-5270000D03*
X13950000Y-2730000D03*
X16490000Y-5270000D03*
X16490000Y-2730000D03*
X19030000Y-5270000D03*
X19030000Y-2730000D03*
X21570000Y-5270000D03*
X21570000Y-2730000D03*
X24110000Y-5270000D03*
X24110000Y-2730000D03*
X26650000Y-5270000D03*
X26650000Y-2730000D03*
X29190000Y-5270000D03*
X29190000Y-2730000D03*
X31730000Y-5270000D03*
X31730000Y-2730000D03*
X34270000Y-5270000D03*
X34270000Y-2730000D03*
X36810000Y-5270000D03*
X36810000Y-2730000D03*
X39350000Y-5270000D03*
X39350000Y-2730000D03*
X41890000Y-5270000D03*
X41890000Y-2730000D03*
X44430000Y-5270000D03*
X44430000Y-2730000D03*
X46970000Y-5270000D03*
X46970000Y-2730000D03*
X49510000Y-5270000D03*
X49510000Y-2730000D03*
X52050000Y-5270000D03*
X52050000Y-2730000D03*
X54590000Y-5270000D03*
X54590000Y-2730000D03*
X57130000Y-5270000D03*
X57130000Y-2730000D03*
%TD*%
M02*
