%TF.GenerationSoftware,KiCad,Pcbnew,10.0.6*%
%TF.CreationDate,2026-09-19T16:50:13-05:00*%
%TF.ProjectId,difftx,64696666-7478-42e6-9b69-6361645f7063,rev?*%
%TF.SameCoordinates,Original*%
%TF.FileFunction,Soldermask,Bot*%
%TF.FilePolarity,Negative*%
%FSLAX46Y46*%
G04 Gerber Fmt 4.6, Leading zero omitted, Abs format (unit mm)*
G04 Created by KiCad (PCBNEW 10.0.6) date 2026-09-19 16:50:13*
%MOMM*%
%LPD*%
G01*
G04 APERTURE LIST*
%ADD10C,2.700000*%
%ADD11C,3.200000*%
%ADD12C,2.200000*%
%ADD13C,3.400000*%
%ADD14C,1.524000*%
%ADD15C,1.600000*%
%ADD16C,1.700000*%
%ADD17R,1.700000X1.700000*%
G04 APERTURE END LIST*
D10*
%TO.C,H4*%
X62000000Y-27000000D03*
%TD*%
%TO.C,H2*%
X62000000Y-4000000D03*
%TD*%
D11*
%TO.C,H5*%
X3500000Y-62500000D03*
%TD*%
D12*
%TO.C,J4*%
X54500000Y-61500000D03*
X59500000Y-61500000D03*
%TD*%
D11*
%TO.C,H6*%
X30000000Y-62500000D03*
%TD*%
D13*
%TO.C,J1*%
X5390000Y-43650000D03*
X5390000Y-56350000D03*
D14*
X7930000Y-53570000D03*
X9710000Y-52550000D03*
X7930000Y-51530000D03*
X9710000Y-50510000D03*
X7930000Y-49490000D03*
X9710000Y-48470000D03*
X7930000Y-47450000D03*
X9710000Y-46430000D03*
%TD*%
D10*
%TO.C,H1*%
X4000000Y-4000000D03*
%TD*%
%TO.C,H3*%
X4000000Y-27000000D03*
%TD*%
D15*
%TO.C,U4*%
X51460000Y-38000000D03*
X54000000Y-38000000D03*
X56540000Y-38000000D03*
%TD*%
D16*
%TO.C,J3*%
X8870000Y-5270000D03*
D17*
X8870000Y-2730000D03*
D16*
X11410000Y-5270000D03*
X11410000Y-2730000D03*
X13950000Y-5270000D03*
X13950000Y-2730000D03*
X16490000Y-5270000D03*
X16490000Y-2730000D03*
X19030000Y-5270000D03*
X19030000Y-2730000D03*
X21570000Y-5270000D03*
X21570000Y-2730000D03*
X24110000Y-5270000D03*
X24110000Y-2730000D03*
X26650000Y-5270000D03*
X26650000Y-2730000D03*
X29190000Y-5270000D03*
X29190000Y-2730000D03*
X31730000Y-5270000D03*
X31730000Y-2730000D03*
X34270000Y-5270000D03*
X34270000Y-2730000D03*
X36810000Y-5270000D03*
X36810000Y-2730000D03*
X39350000Y-5270000D03*
X39350000Y-2730000D03*
X41890000Y-5270000D03*
X41890000Y-2730000D03*
X44430000Y-5270000D03*
X44430000Y-2730000D03*
X46970000Y-5270000D03*
X46970000Y-2730000D03*
X49510000Y-5270000D03*
X49510000Y-2730000D03*
X52050000Y-5270000D03*
X52050000Y-2730000D03*
X54590000Y-5270000D03*
X54590000Y-2730000D03*
X57130000Y-5270000D03*
X57130000Y-2730000D03*
%TD*%
M02*
