M48
; DRILL file KiCad 10.0.6 date 2026-09-19T16:50:13
; FORMAT={-:-/ absolute / metric / decimal}
; #@! TF.CreationDate,2026-09-19T16:50:13-05:00
; #@! TF.GenerationSoftware,Kicad,Pcbnew,10.0.6
; #@! TF.FileFunction,MixedPlating,1,2
FMAT,2
METRIC
; #@! TA.AperFunction,Plated,PTH,ViaDrill
T1C0.400
; #@! TA.AperFunction,Plated,PTH,ComponentDrill
T2C0.914
; #@! TA.AperFunction,Plated,PTH,ComponentDrill
T3C1.000
; #@! TA.AperFunction,Plated,PTH,ComponentDrill
T4C1.100
; #@! TA.AperFunction,Plated,PTH,ComponentDrill
T5C1.400
; #@! TA.AperFunction,NonPlated,NPTH,ComponentDrill
T6C2.700
; #@! TA.AperFunction,NonPlated,NPTH,ComponentDrill
T7C3.200
; #@! TA.AperFunction,NonPlated,NPTH,ComponentDrill
T8C3.400
%
G90
G05
T1
X10.0Y-30.0
X12.0Y-62.0
X15.0Y-43.0
X16.0Y-23.9
X16.0Y-28.2
X18.9Y-21.54
X19.0Y-19.0
X20.0Y-27.8
X20.0Y-38.7
X20.0Y-43.5
X22.6Y-32.5
X22.7Y-44.32
X22.9Y-46.86
X25.0Y-37.7
X25.0Y-56.0
X25.2Y-24.3
X26.2Y-46.86
X26.2Y-49.4
X26.2Y-50.67
X26.2Y-51.94
X27.8Y-44.32
X27.8Y-45.59
X31.4Y-48.13
X33.0Y-10.0
X33.8Y-44.0
X35.0Y-38.2
X36.0Y-58.0
X39.35Y-7.5
X43.0Y-20.0
X44.0Y-48.5
X45.0Y-62.0
X47.5Y-55.5
X56.0Y-20.0
X57.462Y-32.2
X60.8Y-33.8
X61.5Y-45.0
T2
X7.93Y-47.45
X7.93Y-49.49
X7.93Y-51.53
X7.93Y-53.57
X9.71Y-46.43
X9.71Y-48.47
X9.71Y-50.51
X9.71Y-52.55
T3
X51.46Y-38.0
X54.0Y-38.0
X56.54Y-38.0
T4
X8.87Y-2.73
X8.87Y-5.27
X11.41Y-2.73
X11.41Y-5.27
X13.95Y-2.73
X13.95Y-5.27
X16.49Y-2.73
X16.49Y-5.27
X19.03Y-2.73
X19.03Y-5.27
X21.57Y-2.73
X21.57Y-5.27
X24.11Y-2.73
X24.11Y-5.27
X26.65Y-2.73
X26.65Y-5.27
X29.19Y-2.73
X29.19Y-5.27
X31.73Y-2.73
X31.73Y-5.27
X34.27Y-2.73
X34.27Y-5.27
X36.81Y-2.73
X36.81Y-5.27
X39.35Y-2.73
X39.35Y-5.27
X41.89Y-2.73
X41.89Y-5.27
X44.43Y-2.73
X44.43Y-5.27
X46.97Y-2.73
X46.97Y-5.27
X49.51Y-2.73
X49.51Y-5.27
X52.05Y-2.73
X52.05Y-5.27
X54.59Y-2.73
X54.59Y-5.27
X57.13Y-2.73
X57.13Y-5.27
T5
X54.5Y-61.5
X59.5Y-61.5
T6
X4.0Y-4.0
X4.0Y-27.0
X62.0Y-4.0
X62.0Y-27.0
T7
X3.5Y-62.5
X30.0Y-62.5
T8
X5.39Y-43.65
X5.39Y-56.35
M30
