%TF.GenerationSoftware,KiCad,Pcbnew,10.0.6*%
%TF.CreationDate,2026-09-29T11:48:09-05:00*%
%TF.ProjectId,diffsmart,64696666-736d-4617-9274-2e6b69636164,rev?*%
%TF.SameCoordinates,Original*%
%TF.FileFunction,Paste,Top*%
%TF.FilePolarity,Positive*%
%FSLAX46Y46*%
G04 Gerber Fmt 4.6, Leading zero omitted, Abs format (unit mm)*
G04 Created by KiCad (PCBNEW 10.0.6) date 2026-09-29 11:48:09*
%MOMM*%
%LPD*%
G01*
G04 APERTURE LIST*
G04 Aperture macros list*
%AMRoundRect*
0 Rectangle with rounded corners*
0 $1 Rounding radius*
0 $2 $3 $4 $5 $6 $7 $8 $9 X,Y pos of 4 corners*
0 Add a 4 corners polygon primitive as box body*
4,1,4,$2,$3,$4,$5,$6,$7,$8,$9,$2,$3,0*
0 Add four circle primitives for the rounded corners*
1,1,$1+$1,$2,$3*
1,1,$1+$1,$4,$5*
1,1,$1+$1,$6,$7*
1,1,$1+$1,$8,$9*
0 Add four rect primitives between the rounded corners*
20,1,$1+$1,$2,$3,$4,$5,0*
20,1,$1+$1,$4,$5,$6,$7,0*
20,1,$1+$1,$6,$7,$8,$9,0*
20,1,$1+$1,$8,$9,$2,$3,0*%
G04 Aperture macros list end*
%ADD10R,0.950000X1.150000*%
%ADD11RoundRect,0.200000X-0.200000X-0.275000X0.200000X-0.275000X0.200000X0.275000X-0.200000X0.275000X0*%
%ADD12R,1.000000X1.400000*%
%ADD13R,1.300000X2.800000*%
%ADD14R,6.000000X6.500000*%
%ADD15RoundRect,0.200000X0.200000X0.275000X-0.200000X0.275000X-0.200000X-0.275000X0.200000X-0.275000X0*%
%ADD16RoundRect,0.250000X-0.337500X-0.475000X0.337500X-0.475000X0.337500X0.475000X-0.337500X0.475000X0*%
%ADD17O,0.588000X1.800000*%
%ADD18O,0.568000X1.950000*%
%ADD19R,2.465000X1.050000*%
%ADD20R,2.465000X3.540000*%
%ADD21RoundRect,0.250000X-0.312500X-0.625000X0.312500X-0.625000X0.312500X0.625000X-0.312500X0.625000X0*%
%ADD22R,1.037000X0.532000*%
%ADD23R,2.000000X2.000000*%
%ADD24R,1.000000X0.650000*%
%ADD25RoundRect,0.250000X-0.375000X-0.625000X0.375000X-0.625000X0.375000X0.625000X-0.375000X0.625000X0*%
%ADD26O,1.800000X0.588000*%
%ADD27RoundRect,0.250000X-0.262500X-0.450000X0.262500X-0.450000X0.262500X0.450000X-0.262500X0.450000X0*%
%ADD28RoundRect,0.250000X-0.325000X-0.650000X0.325000X-0.650000X0.325000X0.650000X-0.325000X0.650000X0*%
%ADD29R,4.200000X1.400000*%
%ADD30R,2.700000X3.300000*%
%ADD31R,1.407000X3.499000*%
%ADD32O,0.574000X2.038000*%
%ADD33O,1.971000X0.602000*%
%ADD34O,1.950000X0.568000*%
G04 APERTURE END LIST*
D10*
%TO.C,D7*%
X44310000Y58000000D03*
X47690000Y58000000D03*
%TD*%
D11*
%TO.C,R36*%
X51175000Y92000000D03*
X52825000Y92000000D03*
%TD*%
D12*
%TO.C,LED2*%
X22050000Y99000000D03*
X19950000Y99000000D03*
%TD*%
D13*
%TO.C,Q3*%
X86270000Y77290000D03*
D14*
X84000000Y70710000D03*
D13*
X81730000Y77290000D03*
%TD*%
D11*
%TO.C,R37*%
X81175000Y88000000D03*
X82825000Y88000000D03*
%TD*%
D15*
%TO.C,RL4*%
X48825000Y99000000D03*
X47175000Y99000000D03*
%TD*%
D11*
%TO.C,RB8*%
X35175000Y92000000D03*
X36825000Y92000000D03*
%TD*%
D13*
%TO.C,Q4*%
X94270000Y77290000D03*
D14*
X92000000Y70710000D03*
D13*
X89730000Y77290000D03*
%TD*%
D16*
%TO.C,C4*%
X116962500Y58000000D03*
X119037500Y58000000D03*
%TD*%
D11*
%TO.C,RF2*%
X34175000Y105500000D03*
X35825000Y105500000D03*
%TD*%
%TO.C,RB7*%
X30175000Y92000000D03*
X31825000Y92000000D03*
%TD*%
D17*
%TO.C,U8*%
X102100000Y39400000D03*
X103370000Y39400000D03*
X104630000Y39400000D03*
X105900000Y39400000D03*
X105900000Y44600000D03*
X104630000Y44600000D03*
X103370000Y44600000D03*
X102100000Y44600000D03*
%TD*%
D11*
%TO.C,R42*%
X91175000Y30000000D03*
X92825000Y30000000D03*
%TD*%
%TO.C,R41*%
X83175000Y30000000D03*
X84825000Y30000000D03*
%TD*%
D18*
%TO.C,U5*%
X18100000Y27290000D03*
X19370000Y27290000D03*
X20630000Y27290000D03*
X21900000Y27290000D03*
X21900000Y32710000D03*
X20630000Y32710000D03*
X19370000Y32710000D03*
X18100000Y32710000D03*
%TD*%
D11*
%TO.C,R32*%
X87175000Y94000000D03*
X88825000Y94000000D03*
%TD*%
%TO.C,RF3*%
X54175000Y105500000D03*
X55825000Y105500000D03*
%TD*%
D15*
%TO.C,RF11*%
X35825000Y24500000D03*
X34175000Y24500000D03*
%TD*%
D19*
%TO.C,U3*%
X107140000Y62300000D03*
X107140000Y60000000D03*
X107140000Y57700000D03*
D20*
X112860000Y60000000D03*
%TD*%
D15*
%TO.C,RL5*%
X59825000Y99000000D03*
X58175000Y99000000D03*
%TD*%
%TO.C,RF12*%
X55825000Y24500000D03*
X54175000Y24500000D03*
%TD*%
D21*
%TO.C,RT4*%
X22537500Y92000000D03*
X25462500Y92000000D03*
%TD*%
D22*
%TO.C,D4*%
X45100000Y71050000D03*
X45100000Y72950000D03*
X42900000Y72000000D03*
%TD*%
D11*
%TO.C,RF1*%
X14175000Y105500000D03*
X15825000Y105500000D03*
%TD*%
D12*
%TO.C,LF4*%
X76050000Y108500000D03*
X73950000Y108500000D03*
%TD*%
D16*
%TO.C,C12*%
X119962500Y47000000D03*
X122037500Y47000000D03*
%TD*%
D15*
%TO.C,RL3*%
X37825000Y99000000D03*
X36175000Y99000000D03*
%TD*%
%TO.C,RL1*%
X15825000Y99000000D03*
X14175000Y99000000D03*
%TD*%
D11*
%TO.C,RB2*%
X38175000Y71500000D03*
X39825000Y71500000D03*
%TD*%
D13*
%TO.C,Q2*%
X78270000Y77290000D03*
D14*
X76000000Y70710000D03*
D13*
X73730000Y77290000D03*
%TD*%
D12*
%TO.C,LED7*%
X102050000Y84500000D03*
X99950000Y84500000D03*
%TD*%
D11*
%TO.C,RF6*%
X114175000Y105500000D03*
X115825000Y105500000D03*
%TD*%
D23*
%TO.C,D8*%
X26800000Y53000000D03*
X31200000Y53000000D03*
%TD*%
D11*
%TO.C,R33*%
X75175000Y88000000D03*
X76825000Y88000000D03*
%TD*%
D13*
%TO.C,Q1*%
X70270000Y77290000D03*
D14*
X68000000Y70710000D03*
D13*
X65730000Y77290000D03*
%TD*%
D24*
%TO.C,Q5*%
X24000000Y52050000D03*
X24000000Y53950000D03*
X22000000Y53000000D03*
%TD*%
D25*
%TO.C,F13*%
X43600000Y53000000D03*
X46400000Y53000000D03*
%TD*%
D11*
%TO.C,R3*%
X99175000Y61500000D03*
X100825000Y61500000D03*
%TD*%
%TO.C,RS3*%
X51175000Y80630000D03*
X52825000Y80630000D03*
%TD*%
D15*
%TO.C,RF9*%
X115825000Y24500000D03*
X114175000Y24500000D03*
%TD*%
%TO.C,RL2*%
X26825000Y99000000D03*
X25175000Y99000000D03*
%TD*%
%TO.C,RF8*%
X95825000Y24500000D03*
X94175000Y24500000D03*
%TD*%
D11*
%TO.C,RS8*%
X75175000Y54000000D03*
X76825000Y54000000D03*
%TD*%
%TO.C,R30*%
X75175000Y94000000D03*
X76825000Y94000000D03*
%TD*%
D12*
%TO.C,LED4*%
X44050000Y99000000D03*
X41950000Y99000000D03*
%TD*%
D10*
%TO.C,D1*%
X108810000Y76500000D03*
X112190000Y76500000D03*
%TD*%
D26*
%TO.C,U6*%
X70600000Y90100000D03*
X70600000Y91370000D03*
X70600000Y92630000D03*
X70600000Y93900000D03*
X65400000Y93900000D03*
X65400000Y92630000D03*
X65400000Y91370000D03*
X65400000Y90100000D03*
%TD*%
D11*
%TO.C,R31*%
X81175000Y94000000D03*
X82825000Y94000000D03*
%TD*%
D16*
%TO.C,C9*%
X60962500Y88000000D03*
X63037500Y88000000D03*
%TD*%
D22*
%TO.C,D6*%
X17100000Y91050000D03*
X17100000Y92950000D03*
X14900000Y92000000D03*
%TD*%
D11*
%TO.C,RS6*%
X75175000Y30000000D03*
X76825000Y30000000D03*
%TD*%
D15*
%TO.C,RF7*%
X75825000Y24500000D03*
X74175000Y24500000D03*
%TD*%
D11*
%TO.C,R2*%
X104175000Y76500000D03*
X105825000Y76500000D03*
%TD*%
%TO.C,R40*%
X110175000Y102000000D03*
X111825000Y102000000D03*
%TD*%
%TO.C,RB5*%
X34175000Y60000000D03*
X35825000Y60000000D03*
%TD*%
D12*
%TO.C,LF7*%
X73950000Y21500000D03*
X76050000Y21500000D03*
%TD*%
D11*
%TO.C,R35*%
X57175000Y96000000D03*
X58825000Y96000000D03*
%TD*%
D16*
%TO.C,C6*%
X40462500Y84450000D03*
X42537500Y84450000D03*
%TD*%
D11*
%TO.C,RB3*%
X53175000Y75000000D03*
X54825000Y75000000D03*
%TD*%
%TO.C,R28*%
X100175000Y80500000D03*
X101825000Y80500000D03*
%TD*%
D12*
%TO.C,LF6*%
X116050000Y108500000D03*
X113950000Y108500000D03*
%TD*%
D27*
%TO.C,RT5*%
X81087500Y100000000D03*
X82912500Y100000000D03*
%TD*%
D12*
%TO.C,LF5*%
X96050000Y108500000D03*
X93950000Y108500000D03*
%TD*%
D11*
%TO.C,R1*%
X98175000Y76500000D03*
X99825000Y76500000D03*
%TD*%
%TO.C,R43*%
X83175000Y54000000D03*
X84825000Y54000000D03*
%TD*%
D21*
%TO.C,RT1*%
X25537500Y71500000D03*
X28462500Y71500000D03*
%TD*%
D11*
%TO.C,R44*%
X91175000Y54000000D03*
X92825000Y54000000D03*
%TD*%
D12*
%TO.C,LF10*%
X13950000Y21500000D03*
X16050000Y21500000D03*
%TD*%
D11*
%TO.C,R39*%
X98175000Y102000000D03*
X99825000Y102000000D03*
%TD*%
%TO.C,R29*%
X75175000Y100000000D03*
X76825000Y100000000D03*
%TD*%
%TO.C,RS7*%
X67175000Y54000000D03*
X68825000Y54000000D03*
%TD*%
%TO.C,RS2*%
X51175000Y78100000D03*
X52825000Y78100000D03*
%TD*%
D12*
%TO.C,LF1*%
X16050000Y108500000D03*
X13950000Y108500000D03*
%TD*%
D28*
%TO.C,C13*%
X115525000Y44100000D03*
X118475000Y44100000D03*
%TD*%
D29*
%TO.C,C1*%
X82730000Y60500000D03*
X89270000Y60500000D03*
%TD*%
D22*
%TO.C,D3*%
X21100000Y70550000D03*
X21100000Y72450000D03*
X18900000Y71500000D03*
%TD*%
D11*
%TO.C,RF5*%
X94175000Y105500000D03*
X95825000Y105500000D03*
%TD*%
D30*
%TO.C,D2*%
X66310000Y60500000D03*
X73690000Y60500000D03*
%TD*%
D28*
%TO.C,C2*%
X98525000Y58000000D03*
X101475000Y58000000D03*
%TD*%
D21*
%TO.C,RT3*%
X26537500Y60000000D03*
X29462500Y60000000D03*
%TD*%
D12*
%TO.C,LED3*%
X33050000Y99000000D03*
X30950000Y99000000D03*
%TD*%
D16*
%TO.C,C8*%
X26962500Y30000000D03*
X29037500Y30000000D03*
%TD*%
D12*
%TO.C,LED1*%
X11050000Y99000000D03*
X8950000Y99000000D03*
%TD*%
%TO.C,LF2*%
X36050000Y108500000D03*
X33950000Y108500000D03*
%TD*%
D21*
%TO.C,RT2*%
X50537500Y72000000D03*
X53462500Y72000000D03*
%TD*%
D16*
%TO.C,C11*%
X102962500Y50000000D03*
X105037500Y50000000D03*
%TD*%
D11*
%TO.C,RS5*%
X67175000Y30000000D03*
X68825000Y30000000D03*
%TD*%
D12*
%TO.C,LF8*%
X93950000Y21500000D03*
X96050000Y21500000D03*
%TD*%
%TO.C,LF12*%
X53950000Y21500000D03*
X56050000Y21500000D03*
%TD*%
D11*
%TO.C,R27*%
X92175000Y60500000D03*
X93825000Y60500000D03*
%TD*%
D12*
%TO.C,LF3*%
X56050000Y108500000D03*
X53950000Y108500000D03*
%TD*%
%TO.C,LED5*%
X55050000Y99000000D03*
X52950000Y99000000D03*
%TD*%
D31*
%TO.C,F14*%
X110150000Y42000000D03*
X113850000Y42000000D03*
%TD*%
D16*
%TO.C,C3*%
X116962500Y62500000D03*
X119037500Y62500000D03*
%TD*%
D12*
%TO.C,LED6*%
X59050000Y92000000D03*
X56950000Y92000000D03*
%TD*%
D16*
%TO.C,C10*%
X71962500Y44600000D03*
X74037500Y44600000D03*
%TD*%
D11*
%TO.C,R34*%
X53175000Y96000000D03*
X54825000Y96000000D03*
%TD*%
D15*
%TO.C,RF10*%
X15825000Y24500000D03*
X14175000Y24500000D03*
%TD*%
%TO.C,RS4*%
X28825000Y81900000D03*
X27175000Y81900000D03*
%TD*%
D12*
%TO.C,LF11*%
X33950000Y21500000D03*
X36050000Y21500000D03*
%TD*%
D32*
%TO.C,U9*%
X76190000Y39380000D03*
X77460000Y39380000D03*
X78730000Y39380000D03*
X80000000Y39380000D03*
X81270000Y39380000D03*
X82540000Y39380000D03*
X83810000Y39380000D03*
X83810000Y44620000D03*
X82540000Y44620000D03*
X81270000Y44620000D03*
X80000000Y44620000D03*
X78730000Y44620000D03*
X77460000Y44620000D03*
X76190000Y44620000D03*
%TD*%
D33*
%TO.C,U1*%
X33260000Y84450000D03*
X33260000Y83170000D03*
X33260000Y81900000D03*
X33260000Y80630000D03*
X33260000Y79370000D03*
X33260000Y78100000D03*
X33260000Y76830000D03*
X33260000Y75550000D03*
X38740000Y75550000D03*
X38740000Y76830000D03*
X38740000Y78100000D03*
X38740000Y79370000D03*
X38740000Y80630000D03*
X38740000Y81900000D03*
X38740000Y83170000D03*
X38740000Y84450000D03*
%TD*%
D11*
%TO.C,RB1*%
X33175000Y71500000D03*
X34825000Y71500000D03*
%TD*%
%TO.C,RB4*%
X57175000Y75000000D03*
X58825000Y75000000D03*
%TD*%
D16*
%TO.C,C5*%
X122962500Y60000000D03*
X125037500Y60000000D03*
%TD*%
%TO.C,C7*%
X58962500Y104000000D03*
X61037500Y104000000D03*
%TD*%
D34*
%TO.C,U4*%
X70710000Y102100000D03*
X70710000Y103370000D03*
X70710000Y104630000D03*
X70710000Y105900000D03*
X65290000Y105900000D03*
X65290000Y104630000D03*
X65290000Y103370000D03*
X65290000Y102100000D03*
%TD*%
D11*
%TO.C,RF4*%
X74175000Y105500000D03*
X75825000Y105500000D03*
%TD*%
%TO.C,RB6*%
X39175000Y60000000D03*
X40825000Y60000000D03*
%TD*%
D22*
%TO.C,D5*%
X21100000Y59050000D03*
X21100000Y60950000D03*
X18900000Y60000000D03*
%TD*%
D28*
%TO.C,C14*%
X121025000Y44100000D03*
X123975000Y44100000D03*
%TD*%
D11*
%TO.C,R45*%
X13175000Y35000000D03*
X14825000Y35000000D03*
%TD*%
D12*
%TO.C,LF9*%
X113950000Y21500000D03*
X116050000Y21500000D03*
%TD*%
D15*
%TO.C,RS1*%
X28825000Y79370000D03*
X27175000Y79370000D03*
%TD*%
M02*
