M48
; DRILL file KiCad 10.0.6 date 2026-09-29T11:48:09
; FORMAT={-:-/ absolute / metric / decimal}
; #@! TF.CreationDate,2026-09-29T11:48:09-05:00
; #@! TF.GenerationSoftware,Kicad,Pcbnew,10.0.6
; #@! TF.FileFunction,MixedPlating,1,4
FMAT,2
METRIC
; #@! TA.AperFunction,Plated,PTH,ViaDrill
T1C0.300
; #@! TA.AperFunction,Plated,PTH,ViaDrill
T2C0.400
; #@! TA.AperFunction,Plated,PTH,ComponentDrill
T3C0.914
; #@! TA.AperFunction,Plated,PTH,ComponentDrill
T4C1.000
; #@! TA.AperFunction,Plated,PTH,ComponentDrill
T5C1.000
; #@! TA.AperFunction,Plated,PTH,ComponentDrill
T6C1.100
; #@! TA.AperFunction,Plated,PTH,ComponentDrill
T7C1.200
; #@! TA.AperFunction,Plated,PTH,ComponentDrill
T8C1.400
; #@! TA.AperFunction,Plated,PTH,ComponentDrill
T9C1.800
; #@! TA.AperFunction,Plated,PTH,ComponentDrill
T10C2.000
; #@! TA.AperFunction,NonPlated,NPTH,ComponentDrill
T11C3.000
; #@! TA.AperFunction,NonPlated,NPTH,ComponentDrill
T12C3.200
; #@! TA.AperFunction,NonPlated,NPTH,ComponentDrill
T13C3.400
%
G90
G05
T1
X11.4Y99.4
X12.0Y23.8
X13.0Y79.49
X13.2Y35.2
X13.243Y20.793
X14.175Y98.0
X14.4Y24.1
X15.283Y91.076
X15.6Y105.7
X16.2Y73.3
X16.2Y25.3
X17.05Y108.5
X19.283Y70.576
X19.283Y59.076
X20.7Y68.8
X20.7Y61.0
X21.0Y22.9
X21.63Y32.71
X22.5Y99.4
X22.5Y26.5
X22.9Y32.71
X23.4Y83.8
X23.617Y54.874
X24.468Y98.293
X25.2Y91.3
X25.2Y72.1
X26.4Y67.3
X26.4Y60.4
X27.0Y83.8
X27.3Y53.8
X28.8Y88.3
X29.0Y83.17
X29.0Y76.83
X30.037Y30.0
X31.5Y84.45
X31.5Y78.1
X32.4Y91.3
X33.0Y71.8
X33.0Y55.0
X33.243Y20.793
X33.3Y98.2
X34.184Y75.167
X34.2Y52.3
X35.4Y80.2
X35.4Y70.9
X35.7Y105.7
X35.792Y98.076
X36.208Y59.076
X37.05Y108.5
X37.2Y23.2
X38.4Y91.0
X40.2Y71.8
X40.5Y61.6
X41.6Y79.37
X42.0Y89.8
X42.517Y72.924
X43.0Y75.55
X43.2Y85.3
X43.5Y98.2
X43.8Y79.3
X44.1Y58.3
X44.307Y52.293
X44.4Y88.3
X44.7Y85.6
X45.0Y83.17
X45.0Y69.0
X47.0Y81.9
X47.0Y67.5
X47.175Y98.0
X48.397Y57.293
X49.2Y84.4
X49.5Y35.2
X50.1Y86.8
X52.383Y57.076
X52.5Y115.6
X52.5Y106.9
X52.5Y89.5
X52.5Y82.3
X52.5Y69.1
X52.8Y78.1
X53.243Y20.793
X53.7Y103.9
X53.7Y80.8
X53.7Y57.4
X54.3Y24.1
X54.825Y76.0
X54.9Y86.2
X55.8Y100.9
X56.383Y57.076
X57.05Y108.5
X57.468Y98.293
X57.6Y69.1
X58.8Y87.4
X58.8Y74.8
X58.8Y72.4
X59.4Y103.3
X59.7Y99.1
X59.825Y96.0
X60.255Y87.293
X60.3Y74.5
X62.037Y104.0
X63.9Y61.0
X64.037Y88.0
X65.1Y104.2
X65.1Y89.5
X66.29Y105.9
X66.29Y104.63
X67.31Y60.5
X67.5Y35.2
X68.7Y102.1
X68.7Y30.4
X69.676Y94.283
X69.786Y106.283
X69.9Y90.1
X69.9Y53.8
X73.243Y20.793
X73.8Y108.1
X73.8Y105.7
X73.8Y103.3
X74.4Y42.4
X74.4Y34.0
X74.4Y24.1
X74.42Y43.676
X74.69Y60.5
X75.0Y100.0
X75.0Y94.3
X75.0Y88.3
X75.3Y53.8
X75.3Y30.4
X75.6Y105.7
X76.5Y61.0
X76.8Y54.4
X77.05Y108.5
X77.4Y36.4
X77.7Y34.0
X79.8Y51.7
X79.8Y34.3
X81.3Y52.9
X81.3Y37.6
X82.2Y42.4
X83.1Y30.4
X83.73Y60.5
X83.825Y94.0
X83.825Y88.0
X83.912Y100.0
X84.81Y39.38
X85.825Y54.0
X85.825Y30.0
X87.9Y41.8
X90.27Y60.5
X90.9Y53.8
X90.9Y30.4
X92.4Y61.3
X93.243Y20.793
X93.825Y54.0
X93.825Y30.0
X93.9Y108.1
X93.9Y105.7
X94.8Y60.4
X95.7Y105.7
X97.05Y108.5
X97.2Y23.2
X97.251Y76.883
X97.8Y102.1
X98.792Y60.576
X99.9Y102.4
X100.8Y82.0
X102.05Y83.0
X102.475Y58.0
X103.1Y39.4
X103.5Y54.1
X103.5Y46.6
X104.37Y39.4
X104.4Y48.1
X105.63Y39.4
X105.825Y77.5
X106.037Y50.0
X106.9Y39.4
X108.14Y60.0
X111.15Y42.0
X112.5Y106.9
X113.19Y76.5
X113.243Y20.793
X113.86Y60.0
X114.0Y108.1
X114.0Y105.7
X114.3Y24.1
X117.05Y108.5
X118.475Y43.1
X120.037Y62.5
X120.037Y58.0
X120.6Y43.3
X123.037Y47.0
X124.5Y47.2
X124.975Y44.1
X126.037Y60.0
X127.8Y48.7
T2
X64.0Y85.0
X64.0Y81.0
X64.0Y68.5
X64.0Y65.5
X67.0Y85.0
X67.0Y81.0
X68.0Y68.5
X68.0Y65.5
X70.0Y85.0
X70.0Y81.0
X72.0Y68.5
X72.0Y65.5
X73.0Y85.0
X73.0Y81.0
X76.0Y85.0
X76.0Y81.0
X76.0Y68.5
X76.0Y65.5
X79.0Y85.0
X79.0Y81.0
X80.0Y68.5
X80.0Y65.5
X82.0Y85.0
X82.0Y81.0
X84.0Y68.5
X84.0Y65.5
X85.0Y85.0
X85.0Y81.0
X88.0Y85.0
X88.0Y81.0
X88.0Y68.5
X88.0Y65.5
X91.0Y85.0
X91.0Y81.0
X92.0Y68.5
X92.0Y65.5
X94.0Y85.0
X94.0Y81.0
X96.0Y68.5
X96.0Y65.5
X97.0Y85.0
X97.0Y81.0
X100.0Y65.5
X104.0Y65.5
X106.0Y86.0
X106.0Y82.5
X108.0Y65.5
X110.0Y86.0
X110.0Y82.5
X112.0Y65.5
X114.0Y86.0
X114.0Y82.5
X116.0Y65.5
X118.0Y86.0
X118.0Y82.5
X120.0Y65.5
X122.0Y86.0
X122.0Y82.5
X124.0Y96.0
X124.0Y92.0
X124.0Y65.5
X126.0Y86.0
X126.0Y82.5
X128.0Y65.5
X130.0Y86.0
X130.0Y82.5
X132.0Y96.0
X132.0Y92.0
X132.0Y65.5
X134.0Y86.0
X134.0Y82.5
X136.0Y65.5
X138.0Y86.0
X138.0Y82.5
X140.0Y96.0
X140.0Y92.0
X140.0Y65.5
X142.0Y86.0
X142.0Y82.5
X143.0Y75.5
X144.0Y65.5
X146.0Y86.0
X146.0Y82.5
X147.0Y75.5
X148.0Y96.0
X148.0Y92.0
X148.0Y65.5
X150.0Y86.0
X151.0Y75.5
X152.0Y65.5
X155.0Y75.5
T3
X6.0Y37.5
X6.0Y35.0
X6.0Y32.5
X7.47Y82.55
X7.47Y80.51
X7.47Y78.47
X7.47Y76.43
X9.25Y83.57
X9.25Y81.53
X9.25Y79.49
X9.25Y77.45
T4
X118.46Y40.0
X121.0Y40.0
X123.54Y40.0
X131.5Y56.63
X131.5Y54.09
X131.5Y51.55
X131.5Y49.01
X131.5Y46.47
X131.5Y43.93
X131.5Y41.39
X131.5Y38.85
X131.5Y36.31
X131.5Y33.77
X131.5Y31.23
X131.5Y28.69
X131.5Y26.15
X131.5Y23.61
X131.5Y21.07
X131.5Y18.53
X131.5Y15.99
X131.5Y13.45
X131.5Y10.91
X131.5Y8.37
X134.04Y56.63
X134.04Y54.09
X134.04Y51.55
X134.04Y49.01
X134.04Y46.47
X134.04Y43.93
X134.04Y41.39
X134.04Y38.85
X134.04Y36.31
X134.04Y33.77
X134.04Y31.23
X134.04Y28.69
X134.04Y26.15
X134.04Y23.61
X134.04Y21.07
X134.04Y18.53
X134.04Y15.99
X134.04Y13.45
X134.04Y10.91
X134.04Y8.37
T5
X126.0Y54.0
X126.0Y51.46
T6
X101.19Y106.0
X103.73Y106.0
X106.27Y106.0
X108.81Y106.0
T7
X9.9Y115.0
X9.9Y17.0
X20.1Y113.0
X20.1Y15.0
X29.9Y115.0
X29.9Y17.0
X40.1Y113.0
X40.1Y15.0
X49.9Y115.0
X49.9Y17.0
X60.1Y113.0
X60.1Y15.0
X69.9Y115.0
X69.9Y17.0
X80.1Y113.0
X80.1Y15.0
X89.9Y115.0
X89.9Y17.0
X100.1Y113.0
X100.1Y15.0
X109.9Y115.0
X109.9Y17.0
X120.1Y113.0
X120.1Y15.0
T8
X7.0Y63.0
X7.0Y58.0
X7.0Y53.0
X10.0Y125.5
X10.0Y4.5
X15.0Y125.5
X15.0Y4.5
X20.0Y125.5
X20.0Y4.5
X30.0Y125.5
X30.0Y4.5
X35.0Y125.5
X35.0Y4.5
X40.0Y125.5
X40.0Y4.5
X50.0Y125.5
X50.0Y4.5
X55.0Y125.5
X55.0Y4.5
X60.0Y125.5
X60.0Y4.5
X70.0Y125.5
X70.0Y4.5
X75.0Y125.5
X75.0Y4.5
X80.0Y125.5
X80.0Y4.5
X90.0Y125.5
X90.0Y4.5
X95.0Y125.5
X95.0Y4.5
X100.0Y125.5
X100.0Y4.5
X110.0Y125.5
X110.0Y4.5
X115.0Y125.5
X115.0Y4.5
X120.0Y125.5
X120.0Y4.5
T9
X93.26Y98.7
X93.26Y95.3
X106.74Y98.7
X106.74Y95.3
T10
X152.4Y85.75
X152.4Y76.25
T11
X5.0Y118.5
X5.0Y11.5
X25.0Y118.5
X25.0Y11.5
X45.0Y118.5
X45.0Y11.5
X65.0Y118.5
X65.0Y11.5
X85.0Y118.5
X85.0Y11.5
X105.0Y118.5
X105.0Y11.5
X125.0Y118.5
X125.0Y11.5
T12
X4.0Y126.0
X4.0Y4.0
X156.0Y126.0
X156.0Y4.0
T13
X4.93Y86.35
X4.93Y73.65
M30
