%TF.GenerationSoftware,KiCad,Pcbnew,10.0.6*%
%TF.CreationDate,2026-09-29T11:48:09-05:00*%
%TF.ProjectId,diffsmart,64696666-736d-4617-9274-2e6b69636164,rev?*%
%TF.SameCoordinates,Original*%
%TF.FileFunction,Soldermask,Bot*%
%TF.FilePolarity,Negative*%
%FSLAX46Y46*%
G04 Gerber Fmt 4.6, Leading zero omitted, Abs format (unit mm)*
G04 Created by KiCad (PCBNEW 10.0.6) date 2026-09-29 11:48:09*
%MOMM*%
%LPD*%
G01*
G04 APERTURE LIST*
%ADD10C,3.000000*%
%ADD11C,2.200000*%
%ADD12R,1.700000X1.700000*%
%ADD13C,1.700000*%
%ADD14R,1.400000X1.400000*%
%ADD15C,1.400000*%
%ADD16C,3.400000*%
%ADD17C,3.200000*%
%ADD18C,2.500000*%
%ADD19C,1.524000*%
%ADD20C,1.600000*%
%ADD21C,2.800000*%
G04 APERTURE END LIST*
D10*
%TO.C,Z6*%
X105000000Y118500000D03*
%TD*%
D11*
%TO.C,J8*%
X70000000Y4500000D03*
X75000000Y4500000D03*
X80000000Y4500000D03*
%TD*%
D12*
%TO.C,JP1*%
X126000000Y54000000D03*
D13*
X126000000Y51460000D03*
%TD*%
%TO.C,F4*%
X80100000Y113000000D03*
X69900000Y115000000D03*
%TD*%
D10*
%TO.C,Z10*%
X45000000Y11500000D03*
%TD*%
D13*
%TO.C,F9*%
X109900000Y17000000D03*
X120100000Y15000000D03*
%TD*%
D14*
%TO.C,J17*%
X131500000Y56630000D03*
D15*
X134040000Y56630000D03*
X131500000Y54090000D03*
X134040000Y54090000D03*
X131500000Y51550000D03*
X134040000Y51550000D03*
X131500000Y49010000D03*
X134040000Y49010000D03*
X131500000Y46470000D03*
X134040000Y46470000D03*
X131500000Y43930000D03*
X134040000Y43930000D03*
X131500000Y41390000D03*
X134040000Y41390000D03*
X131500000Y38850000D03*
X134040000Y38850000D03*
X131500000Y36310000D03*
X134040000Y36310000D03*
X131500000Y33770000D03*
X134040000Y33770000D03*
X131500000Y31230000D03*
X134040000Y31230000D03*
X131500000Y28690000D03*
X134040000Y28690000D03*
X131500000Y26150000D03*
X134040000Y26150000D03*
X131500000Y23610000D03*
X134040000Y23610000D03*
X131500000Y21070000D03*
X134040000Y21070000D03*
X131500000Y18530000D03*
X134040000Y18530000D03*
X131500000Y15990000D03*
X134040000Y15990000D03*
X131500000Y13450000D03*
X134040000Y13450000D03*
X131500000Y10910000D03*
X134040000Y10910000D03*
X131500000Y8370000D03*
X134040000Y8370000D03*
%TD*%
D16*
%TO.C,J14*%
X4929999Y86350000D03*
X4929999Y73650000D03*
D15*
X7469999Y76430000D03*
X9249999Y77450000D03*
X7469999Y78470000D03*
X9249999Y79490000D03*
X7469999Y80510000D03*
X9249999Y81530000D03*
X7469999Y82550000D03*
X9249999Y83570000D03*
%TD*%
D17*
%TO.C,H2*%
X156000000Y126000000D03*
%TD*%
D11*
%TO.C,J5*%
X80000000Y125500000D03*
X75000000Y125500000D03*
X70000000Y125500000D03*
%TD*%
%TO.C,J16*%
X7000000Y63000000D03*
X7000000Y58000000D03*
X7000000Y53000000D03*
%TD*%
D10*
%TO.C,Z14*%
X125000000Y11500000D03*
%TD*%
D13*
%TO.C,F7*%
X69900000Y17000000D03*
X80100000Y15000000D03*
%TD*%
D11*
%TO.C,J13*%
X50000000Y4500000D03*
X55000000Y4500000D03*
X60000000Y4500000D03*
%TD*%
D13*
%TO.C,F2*%
X40100000Y113000000D03*
X29900000Y115000000D03*
%TD*%
D11*
%TO.C,J10*%
X110000000Y4500000D03*
X115000000Y4500000D03*
X120000000Y4500000D03*
%TD*%
D13*
%TO.C,F12*%
X49900000Y17000000D03*
X60100000Y15000000D03*
%TD*%
D18*
%TO.C,F0*%
X93260000Y98700000D03*
X93260000Y95300000D03*
X106740000Y98700000D03*
X106740000Y95300000D03*
%TD*%
D10*
%TO.C,Z12*%
X85000000Y11500000D03*
%TD*%
D12*
%TO.C,J15*%
X101190000Y106000000D03*
D13*
X103730000Y106000000D03*
X106270000Y106000000D03*
X108810000Y106000000D03*
%TD*%
D11*
%TO.C,J9*%
X90000000Y4500000D03*
X95000000Y4500000D03*
X100000000Y4500000D03*
%TD*%
D13*
%TO.C,F5*%
X100100000Y113000000D03*
X89900000Y115000000D03*
%TD*%
%TO.C,F10*%
X9900000Y17000000D03*
X20100000Y15000000D03*
%TD*%
D10*
%TO.C,Z1*%
X5000000Y118500000D03*
%TD*%
D19*
%TO.C,SW1*%
X6000000Y32500000D03*
X6000000Y35000000D03*
X6000000Y37500000D03*
%TD*%
D10*
%TO.C,Z7*%
X125000000Y118500000D03*
%TD*%
D13*
%TO.C,F8*%
X89900000Y17000000D03*
X100100000Y15000000D03*
%TD*%
D10*
%TO.C,Z3*%
X45000000Y118500000D03*
%TD*%
D11*
%TO.C,J11*%
X10000000Y4500000D03*
X15000000Y4500000D03*
X20000000Y4500000D03*
%TD*%
D10*
%TO.C,Z5*%
X85000000Y118500000D03*
%TD*%
D11*
%TO.C,J7*%
X120000000Y125500000D03*
X115000000Y125500000D03*
X110000000Y125500000D03*
%TD*%
D17*
%TO.C,H3*%
X4000000Y4000000D03*
%TD*%
D10*
%TO.C,Z8*%
X5000000Y11500000D03*
%TD*%
D11*
%TO.C,J6*%
X100000000Y125500000D03*
X95000000Y125500000D03*
X90000000Y125500000D03*
%TD*%
D10*
%TO.C,Z11*%
X65000000Y11500000D03*
%TD*%
D11*
%TO.C,J2*%
X20000000Y125500000D03*
X15000000Y125500000D03*
X10000000Y125500000D03*
%TD*%
D13*
%TO.C,F1*%
X20100000Y113000000D03*
X9900000Y115000000D03*
%TD*%
%TO.C,F6*%
X120100000Y113000000D03*
X109900000Y115000000D03*
%TD*%
D20*
%TO.C,U7*%
X118460000Y40000000D03*
X121000000Y40000000D03*
X123540000Y40000000D03*
%TD*%
D13*
%TO.C,F11*%
X29900000Y17000000D03*
X40100000Y15000000D03*
%TD*%
D11*
%TO.C,J4*%
X60000000Y125500000D03*
X55000000Y125500000D03*
X50000000Y125500000D03*
%TD*%
D17*
%TO.C,H1*%
X4000000Y126000000D03*
%TD*%
D10*
%TO.C,Z9*%
X25000000Y11500000D03*
%TD*%
%TO.C,Z4*%
X65000000Y118500000D03*
%TD*%
D21*
%TO.C,J1*%
X152400000Y76250000D03*
X152400000Y85750000D03*
%TD*%
D10*
%TO.C,Z13*%
X105000000Y11500000D03*
%TD*%
D11*
%TO.C,J12*%
X30000000Y4500000D03*
X35000000Y4500000D03*
X40000000Y4500000D03*
%TD*%
D13*
%TO.C,F3*%
X60100000Y113000000D03*
X49900000Y115000000D03*
%TD*%
D10*
%TO.C,Z2*%
X25000000Y118500000D03*
%TD*%
D11*
%TO.C,J3*%
X40000000Y125500000D03*
X35000000Y125500000D03*
X30000000Y125500000D03*
%TD*%
D17*
%TO.C,H4*%
X156000000Y4000000D03*
%TD*%
M02*
