%TF.GenerationSoftware,KiCad,Pcbnew,10.0.6*%
%TF.CreationDate,2026-09-20T10:24:31-05:00*%
%TF.ProjectId,diffrx,64696666-7278-42e6-9b69-6361645f7063,rev?*%
%TF.SameCoordinates,Original*%
%TF.FileFunction,Copper,L2,Inr*%
%TF.FilePolarity,Positive*%
%FSLAX46Y46*%
G04 Gerber Fmt 4.6, Leading zero omitted, Abs format (unit mm)*
G04 Created by KiCad (PCBNEW 10.0.6) date 2026-09-20 10:24:31*
%MOMM*%
%LPD*%
G01*
G04 APERTURE LIST*
%TA.AperFunction,ComponentPad*%
%ADD10C,2.200000*%
%TD*%
%TA.AperFunction,ComponentPad*%
%ADD11C,1.400000*%
%TD*%
%TA.AperFunction,ComponentPad*%
%ADD12C,1.700000*%
%TD*%
%TA.AperFunction,ComponentPad*%
%ADD13C,2.800000*%
%TD*%
%TA.AperFunction,ComponentPad*%
%ADD14C,11.000000*%
%TD*%
%TA.AperFunction,ViaPad*%
%ADD15C,0.600000*%
%TD*%
%TA.AperFunction,ViaPad*%
%ADD16C,0.800000*%
%TD*%
G04 APERTURE END LIST*
D10*
%TO.N,GND*%
%TO.C,J5*%
X80000000Y95500000D03*
%TO.N,/DATA2*%
X75000000Y95500000D03*
%TO.N,/V4*%
X70000000Y95500000D03*
%TD*%
%TO.N,/V11*%
%TO.C,J12*%
X30000000Y4500000D03*
%TO.N,unconnected-(J12-Pin_2-Pad2)*%
X35000000Y4500000D03*
%TO.N,GND*%
X40000000Y4500000D03*
%TD*%
%TO.N,GND*%
%TO.C,J2*%
X20000000Y95500000D03*
%TO.N,/DATA1*%
X15000000Y95500000D03*
%TO.N,/V1*%
X10000000Y95500000D03*
%TD*%
D11*
%TO.N,/P1P*%
%TO.C,J14*%
X7469999Y46430000D03*
%TO.N,/P1N*%
X9249999Y47450000D03*
%TO.N,/P2P*%
X7469999Y48470000D03*
%TO.N,/P3P*%
X9249999Y49490000D03*
%TO.N,/P3N*%
X7469999Y50510000D03*
%TO.N,/P2N*%
X9249999Y51530000D03*
%TO.N,/P4P*%
X7469999Y52550000D03*
%TO.N,/P4N*%
X9249999Y53570000D03*
%TD*%
D10*
%TO.N,GND*%
%TO.C,J4*%
X60000000Y95500000D03*
%TO.N,unconnected-(J4-Pin_2-Pad2)*%
X55000000Y95500000D03*
%TO.N,/V3*%
X50000000Y95500000D03*
%TD*%
D12*
%TO.N,+12V*%
%TO.C,F3*%
X60100000Y83000000D03*
%TO.N,/V3*%
X49900000Y85000000D03*
%TD*%
%TO.N,+12V*%
%TO.C,F12*%
X49900000Y17000000D03*
%TO.N,/V12*%
X60100000Y15000000D03*
%TD*%
D13*
%TO.N,/GNDIN*%
%TO.C,J1*%
X122400000Y42250000D03*
%TO.N,/12VIN*%
X122400000Y51750000D03*
%TD*%
D10*
%TO.N,/V9*%
%TO.C,J10*%
X110000000Y4500000D03*
%TO.N,unconnected-(J10-Pin_2-Pad2)*%
X115000000Y4500000D03*
%TO.N,GND*%
X120000000Y4500000D03*
%TD*%
%TO.N,/V12*%
%TO.C,J13*%
X50000000Y4500000D03*
%TO.N,unconnected-(J13-Pin_2-Pad2)*%
X55000000Y4500000D03*
%TO.N,GND*%
X60000000Y4500000D03*
%TD*%
%TO.N,GND*%
%TO.C,J7*%
X120000000Y95500000D03*
%TO.N,unconnected-(J7-Pin_2-Pad2)*%
X115000000Y95500000D03*
%TO.N,/V6*%
X110000000Y95500000D03*
%TD*%
D14*
%TO.N,/12VIN*%
%TO.C,F0*%
X110000000Y67000000D03*
%TO.N,+12V*%
X80000000Y67000000D03*
%TD*%
D12*
%TO.N,+12V*%
%TO.C,F5*%
X100100000Y83000000D03*
%TO.N,/V5*%
X89900000Y85000000D03*
%TD*%
%TO.N,+12V*%
%TO.C,F1*%
X20100000Y83000000D03*
%TO.N,/V1*%
X9900000Y85000000D03*
%TD*%
%TO.N,+12V*%
%TO.C,F4*%
X80100000Y83000000D03*
%TO.N,/V4*%
X69900000Y85000000D03*
%TD*%
D10*
%TO.N,/V7*%
%TO.C,J8*%
X70000000Y4500000D03*
%TO.N,/DATA3*%
X75000000Y4500000D03*
%TO.N,GND*%
X80000000Y4500000D03*
%TD*%
%TO.N,GND*%
%TO.C,J3*%
X40000000Y95500000D03*
%TO.N,unconnected-(J3-Pin_2-Pad2)*%
X35000000Y95500000D03*
%TO.N,/V2*%
X30000000Y95500000D03*
%TD*%
D12*
%TO.N,+12V*%
%TO.C,F6*%
X120100000Y83000000D03*
%TO.N,/V6*%
X109900000Y85000000D03*
%TD*%
%TO.N,+12V*%
%TO.C,F10*%
X9900000Y17000000D03*
%TO.N,/V10*%
X20100000Y15000000D03*
%TD*%
%TO.N,+12V*%
%TO.C,F8*%
X89900000Y17000000D03*
%TO.N,/V8*%
X100100000Y15000000D03*
%TD*%
%TO.N,+12V*%
%TO.C,F9*%
X109900000Y17000000D03*
%TO.N,/V9*%
X120100000Y15000000D03*
%TD*%
D10*
%TO.N,/V8*%
%TO.C,J9*%
X90000000Y4500000D03*
%TO.N,unconnected-(J9-Pin_2-Pad2)*%
X95000000Y4500000D03*
%TO.N,GND*%
X100000000Y4500000D03*
%TD*%
D12*
%TO.N,+12V*%
%TO.C,F2*%
X40100000Y83000000D03*
%TO.N,/V2*%
X29900000Y85000000D03*
%TD*%
%TO.N,+12V*%
%TO.C,F7*%
X69900000Y17000000D03*
%TO.N,/V7*%
X80100000Y15000000D03*
%TD*%
%TO.N,+12V*%
%TO.C,F11*%
X29900000Y17000000D03*
%TO.N,/V11*%
X40100000Y15000000D03*
%TD*%
D10*
%TO.N,GND*%
%TO.C,J6*%
X100000000Y95500000D03*
%TO.N,unconnected-(J6-Pin_2-Pad2)*%
X95000000Y95500000D03*
%TO.N,/V5*%
X90000000Y95500000D03*
%TD*%
%TO.N,/V10*%
%TO.C,J11*%
X10000000Y4500000D03*
%TO.N,/DATA4*%
X15000000Y4500000D03*
%TO.N,GND*%
X20000000Y4500000D03*
%TD*%
D15*
%TO.N,+12V*%
X67310000Y30500000D03*
X83730000Y30500000D03*
X98792316Y30576121D03*
X97251120Y46882684D03*
%TO.N,+5V*%
X40500000Y31600001D03*
X39600000Y41800001D03*
X50100000Y40000000D03*
X54600000Y68500000D03*
X30600000Y50630000D03*
X40800000Y54400000D03*
D16*
%TO.N,/12VIN*%
X122000000Y56000000D03*
X114000000Y52500000D03*
X110000000Y52500000D03*
X114000000Y56000000D03*
X124000000Y66000000D03*
X110000000Y56000000D03*
X118000000Y56000000D03*
X106000000Y52500000D03*
X124000000Y58000000D03*
X124000000Y62000000D03*
X118000000Y52500000D03*
X106000000Y56000000D03*
D15*
%TO.N,/DATA1*%
X23400000Y56800001D03*
X23400000Y50200000D03*
X27000000Y49600000D03*
%TO.N,/DATA2*%
X53100000Y48100000D03*
%TO.N,/DATA3*%
X58199999Y50200000D03*
%TO.N,/DATA4*%
X22200000Y53800001D03*
X27000000Y53800001D03*
X16200000Y43300001D03*
D16*
%TO.N,/GNDIN*%
X104000000Y35500000D03*
X80000000Y35500000D03*
X116000000Y35500000D03*
X96000000Y35500000D03*
X68000000Y35500000D03*
X100000000Y35500000D03*
X92000000Y35500000D03*
X88000000Y35500000D03*
X64000000Y35500000D03*
X76000000Y35500000D03*
X112000000Y35500000D03*
X72000000Y35500000D03*
X84000000Y35500000D03*
X124000000Y35500000D03*
X108000000Y35500000D03*
X120000000Y35500000D03*
D15*
%TO.N,/P1N*%
X29000000Y46830000D03*
%TO.N,/P1P*%
X25200000Y42100000D03*
X31500000Y48100000D03*
X33000000Y41800001D03*
%TO.N,/P2N*%
X43800000Y49300001D03*
X43000000Y45550000D03*
%TO.N,/P3N*%
X20700000Y31000000D03*
X45000000Y39000000D03*
X20700000Y38800001D03*
X45000000Y53170000D03*
%TO.N,/P3P*%
X26400000Y37300001D03*
X47000000Y37500000D03*
X26400000Y30400000D03*
X47000000Y51900000D03*
%TO.N,/P4N*%
X16800000Y62800001D03*
X31500000Y54450000D03*
X25800000Y61300001D03*
%TO.N,/P4P*%
X29000000Y53170000D03*
X16800000Y54400000D03*
%TO.N,/RXD2*%
X23099999Y68500000D03*
X36900000Y55900000D03*
%TO.N,/RXD4*%
X38400000Y61300001D03*
X43500000Y68500000D03*
%TO.N,/VREG*%
X106200000Y31900000D03*
X102600000Y31900000D03*
D16*
%TO.N,GND*%
X91000000Y55000000D03*
D15*
X42600000Y55600000D03*
D16*
X79000000Y55000000D03*
D15*
X113190000Y46500000D03*
D16*
X82000000Y55000000D03*
D15*
X90270000Y30500000D03*
X42517316Y42923880D03*
X24467893Y68292894D03*
X120037500Y28000000D03*
X57467893Y68292894D03*
D16*
X97000000Y51000000D03*
D15*
X14175000Y68000000D03*
X126037500Y30000000D03*
D16*
X67000000Y55000000D03*
D15*
X35792316Y68076121D03*
X19282683Y29076121D03*
D16*
X64000000Y55000000D03*
X76000000Y55000000D03*
X85000000Y51000000D03*
X91000000Y51000000D03*
X70000000Y55000000D03*
X73000000Y55000000D03*
D15*
X113860000Y30000000D03*
D16*
X85000000Y55000000D03*
X94000000Y55000000D03*
X73000000Y51000000D03*
X94000000Y51000000D03*
D15*
X105825000Y47500000D03*
D16*
X88000000Y51000000D03*
X82000000Y51000000D03*
D15*
X120037500Y32500000D03*
D16*
X97000000Y55000000D03*
X76000000Y51000000D03*
D15*
X19282683Y40576121D03*
X108140000Y30000000D03*
X32400000Y62500000D03*
X15282683Y61076121D03*
X74690000Y30500000D03*
X36207683Y29076121D03*
D16*
X64000000Y51000000D03*
X67000000Y51000000D03*
X88000000Y55000000D03*
D15*
X41600000Y49370000D03*
X48690000Y28000000D03*
X102475000Y28000000D03*
X47175000Y68000000D03*
D16*
X79000000Y51000000D03*
D15*
X34800000Y42400001D03*
D16*
X70000000Y51000000D03*
D15*
X54825000Y46000000D03*
X34183879Y45167317D03*
%TD*%
%TA.AperFunction,Conductor*%
%TO.N,GND*%
G36*
X128826526Y98980315D02*
G01*
X128842107Y98968465D01*
X128903642Y98913474D01*
X128913472Y98903644D01*
X128968460Y98842113D01*
X128998453Y98779013D01*
X129000000Y98759488D01*
X129000000Y1240515D01*
X128980315Y1173476D01*
X128968459Y1157887D01*
X128913468Y1096353D01*
X128903637Y1086523D01*
X128842115Y1031542D01*
X128779012Y1001547D01*
X128759487Y1000000D01*
X1240513Y1000000D01*
X1173474Y1019685D01*
X1157892Y1031536D01*
X1096356Y1086528D01*
X1086530Y1096354D01*
X1031540Y1157888D01*
X1001546Y1220992D01*
X1000000Y1240515D01*
X1000000Y4000003D01*
X1400000Y4000003D01*
X1400000Y3999998D01*
X1597911Y3005027D01*
X1597912Y3005026D01*
X1597912Y3005025D01*
X1597913Y3005024D01*
X2161522Y2161523D01*
X3005023Y1597914D01*
X3005026Y1597914D01*
X3005027Y1597913D01*
X3999998Y1400000D01*
X4000000Y1400000D01*
X4000002Y1400000D01*
X4994971Y1597913D01*
X4994971Y1597914D01*
X4994976Y1597914D01*
X5838477Y2161523D01*
X6402086Y3005024D01*
X6517975Y3587635D01*
X6600000Y3999998D01*
X6600000Y4000003D01*
X6482462Y4590903D01*
X6478619Y4610222D01*
X8599500Y4610222D01*
X8599500Y4389779D01*
X8633985Y4172048D01*
X8702103Y3962397D01*
X8702104Y3962394D01*
X8802187Y3765975D01*
X8931752Y3587642D01*
X8931756Y3587637D01*
X9087636Y3431757D01*
X9087641Y3431753D01*
X9243192Y3318740D01*
X9265978Y3302185D01*
X9394375Y3236763D01*
X9462393Y3202105D01*
X9462396Y3202104D01*
X9567221Y3168045D01*
X9672049Y3133985D01*
X9889778Y3099500D01*
X9889779Y3099500D01*
X10110221Y3099500D01*
X10110222Y3099500D01*
X10327951Y3133985D01*
X10537606Y3202105D01*
X10734022Y3302185D01*
X10912365Y3431758D01*
X11068242Y3587635D01*
X11197815Y3765978D01*
X11297895Y3962394D01*
X11366015Y4172049D01*
X11400500Y4389778D01*
X11400500Y4610222D01*
X13599500Y4610222D01*
X13599500Y4389779D01*
X13633985Y4172048D01*
X13702103Y3962397D01*
X13702104Y3962394D01*
X13802187Y3765975D01*
X13931752Y3587642D01*
X13931756Y3587637D01*
X14087636Y3431757D01*
X14087641Y3431753D01*
X14243192Y3318740D01*
X14265978Y3302185D01*
X14394375Y3236763D01*
X14462393Y3202105D01*
X14462396Y3202104D01*
X14567221Y3168045D01*
X14672049Y3133985D01*
X14889778Y3099500D01*
X14889779Y3099500D01*
X15110221Y3099500D01*
X15110222Y3099500D01*
X15327951Y3133985D01*
X15537606Y3202105D01*
X15734022Y3302185D01*
X15912365Y3431758D01*
X16068242Y3587635D01*
X16197815Y3765978D01*
X16297895Y3962394D01*
X16366015Y4172049D01*
X16400500Y4389778D01*
X16400500Y4610222D01*
X28599500Y4610222D01*
X28599500Y4389779D01*
X28633985Y4172048D01*
X28702103Y3962397D01*
X28702104Y3962394D01*
X28802187Y3765975D01*
X28931752Y3587642D01*
X28931756Y3587637D01*
X29087636Y3431757D01*
X29087641Y3431753D01*
X29243192Y3318740D01*
X29265978Y3302185D01*
X29394375Y3236763D01*
X29462393Y3202105D01*
X29462396Y3202104D01*
X29567221Y3168045D01*
X29672049Y3133985D01*
X29889778Y3099500D01*
X29889779Y3099500D01*
X30110221Y3099500D01*
X30110222Y3099500D01*
X30327951Y3133985D01*
X30537606Y3202105D01*
X30734022Y3302185D01*
X30912365Y3431758D01*
X31068242Y3587635D01*
X31197815Y3765978D01*
X31297895Y3962394D01*
X31366015Y4172049D01*
X31400500Y4389778D01*
X31400500Y4610222D01*
X33599500Y4610222D01*
X33599500Y4389779D01*
X33633985Y4172048D01*
X33702103Y3962397D01*
X33702104Y3962394D01*
X33802187Y3765975D01*
X33931752Y3587642D01*
X33931756Y3587637D01*
X34087636Y3431757D01*
X34087641Y3431753D01*
X34243192Y3318740D01*
X34265978Y3302185D01*
X34394375Y3236763D01*
X34462393Y3202105D01*
X34462396Y3202104D01*
X34567221Y3168045D01*
X34672049Y3133985D01*
X34889778Y3099500D01*
X34889779Y3099500D01*
X35110221Y3099500D01*
X35110222Y3099500D01*
X35327951Y3133985D01*
X35537606Y3202105D01*
X35734022Y3302185D01*
X35912365Y3431758D01*
X36068242Y3587635D01*
X36197815Y3765978D01*
X36297895Y3962394D01*
X36366015Y4172049D01*
X36400500Y4389778D01*
X36400500Y4610222D01*
X48599500Y4610222D01*
X48599500Y4389779D01*
X48633985Y4172048D01*
X48702103Y3962397D01*
X48702104Y3962394D01*
X48802187Y3765975D01*
X48931752Y3587642D01*
X48931756Y3587637D01*
X49087636Y3431757D01*
X49087641Y3431753D01*
X49243192Y3318740D01*
X49265978Y3302185D01*
X49394375Y3236763D01*
X49462393Y3202105D01*
X49462396Y3202104D01*
X49567221Y3168045D01*
X49672049Y3133985D01*
X49889778Y3099500D01*
X49889779Y3099500D01*
X50110221Y3099500D01*
X50110222Y3099500D01*
X50327951Y3133985D01*
X50537606Y3202105D01*
X50734022Y3302185D01*
X50912365Y3431758D01*
X51068242Y3587635D01*
X51197815Y3765978D01*
X51297895Y3962394D01*
X51366015Y4172049D01*
X51400500Y4389778D01*
X51400500Y4610222D01*
X53599500Y4610222D01*
X53599500Y4389779D01*
X53633985Y4172048D01*
X53702103Y3962397D01*
X53702104Y3962394D01*
X53802187Y3765975D01*
X53931752Y3587642D01*
X53931756Y3587637D01*
X54087636Y3431757D01*
X54087641Y3431753D01*
X54243192Y3318740D01*
X54265978Y3302185D01*
X54394375Y3236763D01*
X54462393Y3202105D01*
X54462396Y3202104D01*
X54567221Y3168045D01*
X54672049Y3133985D01*
X54889778Y3099500D01*
X54889779Y3099500D01*
X55110221Y3099500D01*
X55110222Y3099500D01*
X55327951Y3133985D01*
X55537606Y3202105D01*
X55734022Y3302185D01*
X55912365Y3431758D01*
X56068242Y3587635D01*
X56197815Y3765978D01*
X56297895Y3962394D01*
X56366015Y4172049D01*
X56400500Y4389778D01*
X56400500Y4610222D01*
X68599500Y4610222D01*
X68599500Y4389779D01*
X68633985Y4172048D01*
X68702103Y3962397D01*
X68702104Y3962394D01*
X68802187Y3765975D01*
X68931752Y3587642D01*
X68931756Y3587637D01*
X69087636Y3431757D01*
X69087641Y3431753D01*
X69243192Y3318740D01*
X69265978Y3302185D01*
X69394375Y3236763D01*
X69462393Y3202105D01*
X69462396Y3202104D01*
X69567221Y3168045D01*
X69672049Y3133985D01*
X69889778Y3099500D01*
X69889779Y3099500D01*
X70110221Y3099500D01*
X70110222Y3099500D01*
X70327951Y3133985D01*
X70537606Y3202105D01*
X70734022Y3302185D01*
X70912365Y3431758D01*
X71068242Y3587635D01*
X71197815Y3765978D01*
X71297895Y3962394D01*
X71366015Y4172049D01*
X71400500Y4389778D01*
X71400500Y4610222D01*
X73599500Y4610222D01*
X73599500Y4389779D01*
X73633985Y4172048D01*
X73702103Y3962397D01*
X73702104Y3962394D01*
X73802187Y3765975D01*
X73931752Y3587642D01*
X73931756Y3587637D01*
X74087636Y3431757D01*
X74087641Y3431753D01*
X74243192Y3318740D01*
X74265978Y3302185D01*
X74394375Y3236763D01*
X74462393Y3202105D01*
X74462396Y3202104D01*
X74567221Y3168045D01*
X74672049Y3133985D01*
X74889778Y3099500D01*
X74889779Y3099500D01*
X75110221Y3099500D01*
X75110222Y3099500D01*
X75327951Y3133985D01*
X75537606Y3202105D01*
X75734022Y3302185D01*
X75912365Y3431758D01*
X76068242Y3587635D01*
X76197815Y3765978D01*
X76297895Y3962394D01*
X76366015Y4172049D01*
X76400500Y4389778D01*
X76400500Y4610222D01*
X88599500Y4610222D01*
X88599500Y4389779D01*
X88633985Y4172048D01*
X88702103Y3962397D01*
X88702104Y3962394D01*
X88802187Y3765975D01*
X88931752Y3587642D01*
X88931756Y3587637D01*
X89087636Y3431757D01*
X89087641Y3431753D01*
X89243192Y3318740D01*
X89265978Y3302185D01*
X89394375Y3236763D01*
X89462393Y3202105D01*
X89462396Y3202104D01*
X89567221Y3168045D01*
X89672049Y3133985D01*
X89889778Y3099500D01*
X89889779Y3099500D01*
X90110221Y3099500D01*
X90110222Y3099500D01*
X90327951Y3133985D01*
X90537606Y3202105D01*
X90734022Y3302185D01*
X90912365Y3431758D01*
X91068242Y3587635D01*
X91197815Y3765978D01*
X91297895Y3962394D01*
X91366015Y4172049D01*
X91400500Y4389778D01*
X91400500Y4610222D01*
X93599500Y4610222D01*
X93599500Y4389779D01*
X93633985Y4172048D01*
X93702103Y3962397D01*
X93702104Y3962394D01*
X93802187Y3765975D01*
X93931752Y3587642D01*
X93931756Y3587637D01*
X94087636Y3431757D01*
X94087641Y3431753D01*
X94243192Y3318740D01*
X94265978Y3302185D01*
X94394375Y3236763D01*
X94462393Y3202105D01*
X94462396Y3202104D01*
X94567221Y3168045D01*
X94672049Y3133985D01*
X94889778Y3099500D01*
X94889779Y3099500D01*
X95110221Y3099500D01*
X95110222Y3099500D01*
X95327951Y3133985D01*
X95537606Y3202105D01*
X95734022Y3302185D01*
X95912365Y3431758D01*
X96068242Y3587635D01*
X96197815Y3765978D01*
X96297895Y3962394D01*
X96366015Y4172049D01*
X96400500Y4389778D01*
X96400500Y4610222D01*
X108599500Y4610222D01*
X108599500Y4389779D01*
X108633985Y4172048D01*
X108702103Y3962397D01*
X108702104Y3962394D01*
X108802187Y3765975D01*
X108931752Y3587642D01*
X108931756Y3587637D01*
X109087636Y3431757D01*
X109087641Y3431753D01*
X109243192Y3318740D01*
X109265978Y3302185D01*
X109394375Y3236763D01*
X109462393Y3202105D01*
X109462396Y3202104D01*
X109567221Y3168045D01*
X109672049Y3133985D01*
X109889778Y3099500D01*
X109889779Y3099500D01*
X110110221Y3099500D01*
X110110222Y3099500D01*
X110327951Y3133985D01*
X110537606Y3202105D01*
X110734022Y3302185D01*
X110912365Y3431758D01*
X111068242Y3587635D01*
X111197815Y3765978D01*
X111297895Y3962394D01*
X111366015Y4172049D01*
X111400500Y4389778D01*
X111400500Y4610222D01*
X113599500Y4610222D01*
X113599500Y4389779D01*
X113633985Y4172048D01*
X113702103Y3962397D01*
X113702104Y3962394D01*
X113802187Y3765975D01*
X113931752Y3587642D01*
X113931756Y3587637D01*
X114087636Y3431757D01*
X114087641Y3431753D01*
X114243192Y3318740D01*
X114265978Y3302185D01*
X114394375Y3236763D01*
X114462393Y3202105D01*
X114462396Y3202104D01*
X114567221Y3168045D01*
X114672049Y3133985D01*
X114889778Y3099500D01*
X114889779Y3099500D01*
X115110221Y3099500D01*
X115110222Y3099500D01*
X115327951Y3133985D01*
X115537606Y3202105D01*
X115734022Y3302185D01*
X115912365Y3431758D01*
X116068242Y3587635D01*
X116197815Y3765978D01*
X116297895Y3962394D01*
X116310115Y4000003D01*
X123400000Y4000003D01*
X123400000Y3999998D01*
X123597911Y3005027D01*
X123597912Y3005026D01*
X123597912Y3005025D01*
X123597913Y3005024D01*
X124161522Y2161523D01*
X125005023Y1597914D01*
X125005026Y1597914D01*
X125005027Y1597913D01*
X125999998Y1400000D01*
X126000000Y1400000D01*
X126000002Y1400000D01*
X126994971Y1597913D01*
X126994971Y1597914D01*
X126994976Y1597914D01*
X127838477Y2161523D01*
X128402086Y3005024D01*
X128517975Y3587635D01*
X128600000Y3999998D01*
X128600000Y4000003D01*
X128402087Y4994973D01*
X128402086Y4994975D01*
X128402086Y4994977D01*
X127838477Y5838478D01*
X126994976Y6402087D01*
X126994975Y6402088D01*
X126994974Y6402088D01*
X126994973Y6402089D01*
X126000002Y6600000D01*
X125999998Y6600000D01*
X125005025Y6402089D01*
X125005024Y6402088D01*
X124161522Y5838478D01*
X123597912Y4994976D01*
X123597911Y4994975D01*
X123400000Y4000003D01*
X116310115Y4000003D01*
X116366015Y4172049D01*
X116400500Y4389778D01*
X116400500Y4610222D01*
X116366015Y4827951D01*
X116311747Y4994973D01*
X116297896Y5037604D01*
X116297895Y5037607D01*
X116263237Y5105625D01*
X116197815Y5234022D01*
X116181260Y5256808D01*
X116068247Y5412359D01*
X116068243Y5412364D01*
X115912363Y5568244D01*
X115912358Y5568248D01*
X115734025Y5697813D01*
X115734024Y5697814D01*
X115734022Y5697815D01*
X115671096Y5729878D01*
X115537606Y5797896D01*
X115537603Y5797897D01*
X115327952Y5866015D01*
X115219086Y5883258D01*
X115110222Y5900500D01*
X114889778Y5900500D01*
X114817201Y5889005D01*
X114672047Y5866015D01*
X114462396Y5797897D01*
X114462393Y5797896D01*
X114265974Y5697813D01*
X114087641Y5568248D01*
X114087636Y5568244D01*
X113931756Y5412364D01*
X113931752Y5412359D01*
X113802187Y5234026D01*
X113702104Y5037607D01*
X113702103Y5037604D01*
X113633985Y4827953D01*
X113599500Y4610222D01*
X111400500Y4610222D01*
X111366015Y4827951D01*
X111311747Y4994973D01*
X111297896Y5037604D01*
X111297895Y5037607D01*
X111263237Y5105625D01*
X111197815Y5234022D01*
X111181260Y5256808D01*
X111068247Y5412359D01*
X111068243Y5412364D01*
X110912363Y5568244D01*
X110912358Y5568248D01*
X110734025Y5697813D01*
X110734024Y5697814D01*
X110734022Y5697815D01*
X110671096Y5729878D01*
X110537606Y5797896D01*
X110537603Y5797897D01*
X110327952Y5866015D01*
X110219086Y5883258D01*
X110110222Y5900500D01*
X109889778Y5900500D01*
X109817201Y5889005D01*
X109672047Y5866015D01*
X109462396Y5797897D01*
X109462393Y5797896D01*
X109265974Y5697813D01*
X109087641Y5568248D01*
X109087636Y5568244D01*
X108931756Y5412364D01*
X108931752Y5412359D01*
X108802187Y5234026D01*
X108702104Y5037607D01*
X108702103Y5037604D01*
X108633985Y4827953D01*
X108599500Y4610222D01*
X96400500Y4610222D01*
X96366015Y4827951D01*
X96311747Y4994973D01*
X96297896Y5037604D01*
X96297895Y5037607D01*
X96263237Y5105625D01*
X96197815Y5234022D01*
X96181260Y5256808D01*
X96068247Y5412359D01*
X96068243Y5412364D01*
X95912363Y5568244D01*
X95912358Y5568248D01*
X95734025Y5697813D01*
X95734024Y5697814D01*
X95734022Y5697815D01*
X95671096Y5729878D01*
X95537606Y5797896D01*
X95537603Y5797897D01*
X95327952Y5866015D01*
X95219086Y5883258D01*
X95110222Y5900500D01*
X94889778Y5900500D01*
X94817201Y5889005D01*
X94672047Y5866015D01*
X94462396Y5797897D01*
X94462393Y5797896D01*
X94265974Y5697813D01*
X94087641Y5568248D01*
X94087636Y5568244D01*
X93931756Y5412364D01*
X93931752Y5412359D01*
X93802187Y5234026D01*
X93702104Y5037607D01*
X93702103Y5037604D01*
X93633985Y4827953D01*
X93599500Y4610222D01*
X91400500Y4610222D01*
X91366015Y4827951D01*
X91311747Y4994973D01*
X91297896Y5037604D01*
X91297895Y5037607D01*
X91263237Y5105625D01*
X91197815Y5234022D01*
X91181260Y5256808D01*
X91068247Y5412359D01*
X91068243Y5412364D01*
X90912363Y5568244D01*
X90912358Y5568248D01*
X90734025Y5697813D01*
X90734024Y5697814D01*
X90734022Y5697815D01*
X90671096Y5729878D01*
X90537606Y5797896D01*
X90537603Y5797897D01*
X90327952Y5866015D01*
X90219086Y5883258D01*
X90110222Y5900500D01*
X89889778Y5900500D01*
X89817201Y5889005D01*
X89672047Y5866015D01*
X89462396Y5797897D01*
X89462393Y5797896D01*
X89265974Y5697813D01*
X89087641Y5568248D01*
X89087636Y5568244D01*
X88931756Y5412364D01*
X88931752Y5412359D01*
X88802187Y5234026D01*
X88702104Y5037607D01*
X88702103Y5037604D01*
X88633985Y4827953D01*
X88599500Y4610222D01*
X76400500Y4610222D01*
X76366015Y4827951D01*
X76311747Y4994973D01*
X76297896Y5037604D01*
X76297895Y5037607D01*
X76263237Y5105625D01*
X76197815Y5234022D01*
X76181260Y5256808D01*
X76068247Y5412359D01*
X76068243Y5412364D01*
X75912363Y5568244D01*
X75912358Y5568248D01*
X75734025Y5697813D01*
X75734024Y5697814D01*
X75734022Y5697815D01*
X75671096Y5729878D01*
X75537606Y5797896D01*
X75537603Y5797897D01*
X75327952Y5866015D01*
X75219086Y5883258D01*
X75110222Y5900500D01*
X74889778Y5900500D01*
X74817201Y5889005D01*
X74672047Y5866015D01*
X74462396Y5797897D01*
X74462393Y5797896D01*
X74265974Y5697813D01*
X74087641Y5568248D01*
X74087636Y5568244D01*
X73931756Y5412364D01*
X73931752Y5412359D01*
X73802187Y5234026D01*
X73702104Y5037607D01*
X73702103Y5037604D01*
X73633985Y4827953D01*
X73599500Y4610222D01*
X71400500Y4610222D01*
X71366015Y4827951D01*
X71311747Y4994973D01*
X71297896Y5037604D01*
X71297895Y5037607D01*
X71263237Y5105625D01*
X71197815Y5234022D01*
X71181260Y5256808D01*
X71068247Y5412359D01*
X71068243Y5412364D01*
X70912363Y5568244D01*
X70912358Y5568248D01*
X70734025Y5697813D01*
X70734024Y5697814D01*
X70734022Y5697815D01*
X70671096Y5729878D01*
X70537606Y5797896D01*
X70537603Y5797897D01*
X70327952Y5866015D01*
X70219086Y5883258D01*
X70110222Y5900500D01*
X69889778Y5900500D01*
X69817201Y5889005D01*
X69672047Y5866015D01*
X69462396Y5797897D01*
X69462393Y5797896D01*
X69265974Y5697813D01*
X69087641Y5568248D01*
X69087636Y5568244D01*
X68931756Y5412364D01*
X68931752Y5412359D01*
X68802187Y5234026D01*
X68702104Y5037607D01*
X68702103Y5037604D01*
X68633985Y4827953D01*
X68599500Y4610222D01*
X56400500Y4610222D01*
X56366015Y4827951D01*
X56311747Y4994973D01*
X56297896Y5037604D01*
X56297895Y5037607D01*
X56263237Y5105625D01*
X56197815Y5234022D01*
X56181260Y5256808D01*
X56068247Y5412359D01*
X56068243Y5412364D01*
X55912363Y5568244D01*
X55912358Y5568248D01*
X55734025Y5697813D01*
X55734024Y5697814D01*
X55734022Y5697815D01*
X55671096Y5729878D01*
X55537606Y5797896D01*
X55537603Y5797897D01*
X55327952Y5866015D01*
X55219086Y5883258D01*
X55110222Y5900500D01*
X54889778Y5900500D01*
X54817201Y5889005D01*
X54672047Y5866015D01*
X54462396Y5797897D01*
X54462393Y5797896D01*
X54265974Y5697813D01*
X54087641Y5568248D01*
X54087636Y5568244D01*
X53931756Y5412364D01*
X53931752Y5412359D01*
X53802187Y5234026D01*
X53702104Y5037607D01*
X53702103Y5037604D01*
X53633985Y4827953D01*
X53599500Y4610222D01*
X51400500Y4610222D01*
X51366015Y4827951D01*
X51311747Y4994973D01*
X51297896Y5037604D01*
X51297895Y5037607D01*
X51263237Y5105625D01*
X51197815Y5234022D01*
X51181260Y5256808D01*
X51068247Y5412359D01*
X51068243Y5412364D01*
X50912363Y5568244D01*
X50912358Y5568248D01*
X50734025Y5697813D01*
X50734024Y5697814D01*
X50734022Y5697815D01*
X50671096Y5729878D01*
X50537606Y5797896D01*
X50537603Y5797897D01*
X50327952Y5866015D01*
X50219086Y5883258D01*
X50110222Y5900500D01*
X49889778Y5900500D01*
X49817201Y5889005D01*
X49672047Y5866015D01*
X49462396Y5797897D01*
X49462393Y5797896D01*
X49265974Y5697813D01*
X49087641Y5568248D01*
X49087636Y5568244D01*
X48931756Y5412364D01*
X48931752Y5412359D01*
X48802187Y5234026D01*
X48702104Y5037607D01*
X48702103Y5037604D01*
X48633985Y4827953D01*
X48599500Y4610222D01*
X36400500Y4610222D01*
X36366015Y4827951D01*
X36311747Y4994973D01*
X36297896Y5037604D01*
X36297895Y5037607D01*
X36263237Y5105625D01*
X36197815Y5234022D01*
X36181260Y5256808D01*
X36068247Y5412359D01*
X36068243Y5412364D01*
X35912363Y5568244D01*
X35912358Y5568248D01*
X35734025Y5697813D01*
X35734024Y5697814D01*
X35734022Y5697815D01*
X35671096Y5729878D01*
X35537606Y5797896D01*
X35537603Y5797897D01*
X35327952Y5866015D01*
X35219086Y5883258D01*
X35110222Y5900500D01*
X34889778Y5900500D01*
X34817201Y5889005D01*
X34672047Y5866015D01*
X34462396Y5797897D01*
X34462393Y5797896D01*
X34265974Y5697813D01*
X34087641Y5568248D01*
X34087636Y5568244D01*
X33931756Y5412364D01*
X33931752Y5412359D01*
X33802187Y5234026D01*
X33702104Y5037607D01*
X33702103Y5037604D01*
X33633985Y4827953D01*
X33599500Y4610222D01*
X31400500Y4610222D01*
X31366015Y4827951D01*
X31311747Y4994973D01*
X31297896Y5037604D01*
X31297895Y5037607D01*
X31263237Y5105625D01*
X31197815Y5234022D01*
X31181260Y5256808D01*
X31068247Y5412359D01*
X31068243Y5412364D01*
X30912363Y5568244D01*
X30912358Y5568248D01*
X30734025Y5697813D01*
X30734024Y5697814D01*
X30734022Y5697815D01*
X30671096Y5729878D01*
X30537606Y5797896D01*
X30537603Y5797897D01*
X30327952Y5866015D01*
X30219086Y5883258D01*
X30110222Y5900500D01*
X29889778Y5900500D01*
X29817201Y5889005D01*
X29672047Y5866015D01*
X29462396Y5797897D01*
X29462393Y5797896D01*
X29265974Y5697813D01*
X29087641Y5568248D01*
X29087636Y5568244D01*
X28931756Y5412364D01*
X28931752Y5412359D01*
X28802187Y5234026D01*
X28702104Y5037607D01*
X28702103Y5037604D01*
X28633985Y4827953D01*
X28599500Y4610222D01*
X16400500Y4610222D01*
X16366015Y4827951D01*
X16311747Y4994973D01*
X16297896Y5037604D01*
X16297895Y5037607D01*
X16263237Y5105625D01*
X16197815Y5234022D01*
X16181260Y5256808D01*
X16068247Y5412359D01*
X16068243Y5412364D01*
X15912363Y5568244D01*
X15912358Y5568248D01*
X15734025Y5697813D01*
X15734024Y5697814D01*
X15734022Y5697815D01*
X15671096Y5729878D01*
X15537606Y5797896D01*
X15537603Y5797897D01*
X15327952Y5866015D01*
X15219086Y5883258D01*
X15110222Y5900500D01*
X14889778Y5900500D01*
X14817201Y5889005D01*
X14672047Y5866015D01*
X14462396Y5797897D01*
X14462393Y5797896D01*
X14265974Y5697813D01*
X14087641Y5568248D01*
X14087636Y5568244D01*
X13931756Y5412364D01*
X13931752Y5412359D01*
X13802187Y5234026D01*
X13702104Y5037607D01*
X13702103Y5037604D01*
X13633985Y4827953D01*
X13599500Y4610222D01*
X11400500Y4610222D01*
X11366015Y4827951D01*
X11311747Y4994973D01*
X11297896Y5037604D01*
X11297895Y5037607D01*
X11263237Y5105625D01*
X11197815Y5234022D01*
X11181260Y5256808D01*
X11068247Y5412359D01*
X11068243Y5412364D01*
X10912363Y5568244D01*
X10912358Y5568248D01*
X10734025Y5697813D01*
X10734024Y5697814D01*
X10734022Y5697815D01*
X10671096Y5729878D01*
X10537606Y5797896D01*
X10537603Y5797897D01*
X10327952Y5866015D01*
X10219086Y5883258D01*
X10110222Y5900500D01*
X9889778Y5900500D01*
X9817201Y5889005D01*
X9672047Y5866015D01*
X9462396Y5797897D01*
X9462393Y5797896D01*
X9265974Y5697813D01*
X9087641Y5568248D01*
X9087636Y5568244D01*
X8931756Y5412364D01*
X8931752Y5412359D01*
X8802187Y5234026D01*
X8702104Y5037607D01*
X8702103Y5037604D01*
X8633985Y4827953D01*
X8599500Y4610222D01*
X6478619Y4610222D01*
X6402087Y4994973D01*
X6402086Y4994975D01*
X6402086Y4994977D01*
X5838477Y5838478D01*
X4994976Y6402087D01*
X4994975Y6402088D01*
X4994974Y6402088D01*
X4994973Y6402089D01*
X4000001Y6600000D01*
X3999997Y6600000D01*
X3005025Y6402089D01*
X3005024Y6402088D01*
X2161522Y5838478D01*
X1597912Y4994976D01*
X1597911Y4994975D01*
X1400000Y4000003D01*
X1000000Y4000003D01*
X1000000Y15090552D01*
X18949500Y15090552D01*
X18949500Y14909449D01*
X18977829Y14730590D01*
X19033787Y14558364D01*
X19033788Y14558361D01*
X19116006Y14397003D01*
X19222441Y14250506D01*
X19222445Y14250501D01*
X19350500Y14122446D01*
X19350505Y14122442D01*
X19478287Y14029604D01*
X19497006Y14016004D01*
X19602484Y13962260D01*
X19658360Y13933789D01*
X19658363Y13933788D01*
X19744476Y13905809D01*
X19830591Y13877829D01*
X19913429Y13864709D01*
X20009449Y13849500D01*
X20009454Y13849500D01*
X20190551Y13849500D01*
X20277259Y13863235D01*
X20369409Y13877829D01*
X20541639Y13933789D01*
X20702994Y14016004D01*
X20849501Y14122447D01*
X20977553Y14250499D01*
X21083996Y14397006D01*
X21166211Y14558361D01*
X21222171Y14730591D01*
X21236765Y14822741D01*
X21250500Y14909449D01*
X21250500Y15090552D01*
X38949500Y15090552D01*
X38949500Y14909449D01*
X38977829Y14730590D01*
X39033787Y14558364D01*
X39033788Y14558361D01*
X39116006Y14397003D01*
X39222441Y14250506D01*
X39222445Y14250501D01*
X39350500Y14122446D01*
X39350505Y14122442D01*
X39478287Y14029604D01*
X39497006Y14016004D01*
X39602484Y13962260D01*
X39658360Y13933789D01*
X39658363Y13933788D01*
X39744476Y13905809D01*
X39830591Y13877829D01*
X39913429Y13864709D01*
X40009449Y13849500D01*
X40009454Y13849500D01*
X40190551Y13849500D01*
X40277259Y13863235D01*
X40369409Y13877829D01*
X40541639Y13933789D01*
X40702994Y14016004D01*
X40849501Y14122447D01*
X40977553Y14250499D01*
X41083996Y14397006D01*
X41166211Y14558361D01*
X41222171Y14730591D01*
X41236765Y14822741D01*
X41250500Y14909449D01*
X41250500Y15090552D01*
X58949500Y15090552D01*
X58949500Y14909449D01*
X58977829Y14730590D01*
X59033787Y14558364D01*
X59033788Y14558361D01*
X59116006Y14397003D01*
X59222441Y14250506D01*
X59222445Y14250501D01*
X59350500Y14122446D01*
X59350505Y14122442D01*
X59478287Y14029604D01*
X59497006Y14016004D01*
X59602484Y13962260D01*
X59658360Y13933789D01*
X59658363Y13933788D01*
X59744476Y13905809D01*
X59830591Y13877829D01*
X59913429Y13864709D01*
X60009449Y13849500D01*
X60009454Y13849500D01*
X60190551Y13849500D01*
X60277259Y13863235D01*
X60369409Y13877829D01*
X60541639Y13933789D01*
X60702994Y14016004D01*
X60849501Y14122447D01*
X60977553Y14250499D01*
X61083996Y14397006D01*
X61166211Y14558361D01*
X61222171Y14730591D01*
X61236765Y14822741D01*
X61250500Y14909449D01*
X61250500Y15090552D01*
X78949500Y15090552D01*
X78949500Y14909449D01*
X78977829Y14730590D01*
X79033787Y14558364D01*
X79033788Y14558361D01*
X79116006Y14397003D01*
X79222441Y14250506D01*
X79222445Y14250501D01*
X79350500Y14122446D01*
X79350505Y14122442D01*
X79478287Y14029604D01*
X79497006Y14016004D01*
X79602484Y13962260D01*
X79658360Y13933789D01*
X79658363Y13933788D01*
X79744476Y13905809D01*
X79830591Y13877829D01*
X79913429Y13864709D01*
X80009449Y13849500D01*
X80009454Y13849500D01*
X80190551Y13849500D01*
X80277259Y13863235D01*
X80369409Y13877829D01*
X80541639Y13933789D01*
X80702994Y14016004D01*
X80849501Y14122447D01*
X80977553Y14250499D01*
X81083996Y14397006D01*
X81166211Y14558361D01*
X81222171Y14730591D01*
X81236765Y14822741D01*
X81250500Y14909449D01*
X81250500Y15090552D01*
X98949500Y15090552D01*
X98949500Y14909449D01*
X98977829Y14730590D01*
X99033787Y14558364D01*
X99033788Y14558361D01*
X99116006Y14397003D01*
X99222441Y14250506D01*
X99222445Y14250501D01*
X99350500Y14122446D01*
X99350505Y14122442D01*
X99478287Y14029604D01*
X99497006Y14016004D01*
X99602484Y13962260D01*
X99658360Y13933789D01*
X99658363Y13933788D01*
X99744476Y13905809D01*
X99830591Y13877829D01*
X99913429Y13864709D01*
X100009449Y13849500D01*
X100009454Y13849500D01*
X100190551Y13849500D01*
X100277259Y13863235D01*
X100369409Y13877829D01*
X100541639Y13933789D01*
X100702994Y14016004D01*
X100849501Y14122447D01*
X100977553Y14250499D01*
X101083996Y14397006D01*
X101166211Y14558361D01*
X101222171Y14730591D01*
X101236765Y14822741D01*
X101250500Y14909449D01*
X101250500Y15090552D01*
X118949500Y15090552D01*
X118949500Y14909449D01*
X118977829Y14730590D01*
X119033787Y14558364D01*
X119033788Y14558361D01*
X119116006Y14397003D01*
X119222441Y14250506D01*
X119222445Y14250501D01*
X119350500Y14122446D01*
X119350505Y14122442D01*
X119478287Y14029604D01*
X119497006Y14016004D01*
X119602484Y13962260D01*
X119658360Y13933789D01*
X119658363Y13933788D01*
X119744476Y13905809D01*
X119830591Y13877829D01*
X119913429Y13864709D01*
X120009449Y13849500D01*
X120009454Y13849500D01*
X120190551Y13849500D01*
X120277259Y13863235D01*
X120369409Y13877829D01*
X120541639Y13933789D01*
X120702994Y14016004D01*
X120849501Y14122447D01*
X120977553Y14250499D01*
X121083996Y14397006D01*
X121166211Y14558361D01*
X121222171Y14730591D01*
X121236765Y14822741D01*
X121250500Y14909449D01*
X121250500Y15090552D01*
X121234019Y15194603D01*
X121222171Y15269409D01*
X121166211Y15441639D01*
X121166211Y15441640D01*
X121137740Y15497516D01*
X121083996Y15602994D01*
X121070396Y15621713D01*
X120977558Y15749495D01*
X120977554Y15749500D01*
X120849499Y15877555D01*
X120849494Y15877559D01*
X120702997Y15983994D01*
X120702996Y15983995D01*
X120702994Y15983996D01*
X120640169Y16016007D01*
X120541639Y16066212D01*
X120541636Y16066213D01*
X120369410Y16122171D01*
X120190551Y16150500D01*
X120190546Y16150500D01*
X120009454Y16150500D01*
X120009449Y16150500D01*
X119830589Y16122171D01*
X119658363Y16066213D01*
X119658360Y16066212D01*
X119497002Y15983994D01*
X119350505Y15877559D01*
X119350500Y15877555D01*
X119222445Y15749500D01*
X119222441Y15749495D01*
X119116006Y15602998D01*
X119033788Y15441640D01*
X119033787Y15441637D01*
X118977829Y15269411D01*
X118949500Y15090552D01*
X101250500Y15090552D01*
X101234019Y15194603D01*
X101222171Y15269409D01*
X101166211Y15441639D01*
X101166211Y15441640D01*
X101137740Y15497516D01*
X101083996Y15602994D01*
X101070396Y15621713D01*
X100977558Y15749495D01*
X100977554Y15749500D01*
X100849499Y15877555D01*
X100849494Y15877559D01*
X100702997Y15983994D01*
X100702996Y15983995D01*
X100702994Y15983996D01*
X100640169Y16016007D01*
X100541639Y16066212D01*
X100541636Y16066213D01*
X100369410Y16122171D01*
X100190551Y16150500D01*
X100190546Y16150500D01*
X100009454Y16150500D01*
X100009449Y16150500D01*
X99830589Y16122171D01*
X99658363Y16066213D01*
X99658360Y16066212D01*
X99497002Y15983994D01*
X99350505Y15877559D01*
X99350500Y15877555D01*
X99222445Y15749500D01*
X99222441Y15749495D01*
X99116006Y15602998D01*
X99033788Y15441640D01*
X99033787Y15441637D01*
X98977829Y15269411D01*
X98949500Y15090552D01*
X81250500Y15090552D01*
X81234019Y15194603D01*
X81222171Y15269409D01*
X81166211Y15441639D01*
X81166211Y15441640D01*
X81137740Y15497516D01*
X81083996Y15602994D01*
X81070396Y15621713D01*
X80977558Y15749495D01*
X80977554Y15749500D01*
X80849499Y15877555D01*
X80849494Y15877559D01*
X80702997Y15983994D01*
X80702996Y15983995D01*
X80702994Y15983996D01*
X80640169Y16016007D01*
X80541639Y16066212D01*
X80541636Y16066213D01*
X80369410Y16122171D01*
X80190551Y16150500D01*
X80190546Y16150500D01*
X80009454Y16150500D01*
X80009449Y16150500D01*
X79830589Y16122171D01*
X79658363Y16066213D01*
X79658360Y16066212D01*
X79497002Y15983994D01*
X79350505Y15877559D01*
X79350500Y15877555D01*
X79222445Y15749500D01*
X79222441Y15749495D01*
X79116006Y15602998D01*
X79033788Y15441640D01*
X79033787Y15441637D01*
X78977829Y15269411D01*
X78949500Y15090552D01*
X61250500Y15090552D01*
X61234019Y15194603D01*
X61222171Y15269409D01*
X61166211Y15441639D01*
X61166211Y15441640D01*
X61137740Y15497516D01*
X61083996Y15602994D01*
X61070396Y15621713D01*
X60977558Y15749495D01*
X60977554Y15749500D01*
X60849499Y15877555D01*
X60849494Y15877559D01*
X60702997Y15983994D01*
X60702996Y15983995D01*
X60702994Y15983996D01*
X60640169Y16016007D01*
X60541639Y16066212D01*
X60541636Y16066213D01*
X60369410Y16122171D01*
X60190551Y16150500D01*
X60190546Y16150500D01*
X60009454Y16150500D01*
X60009449Y16150500D01*
X59830589Y16122171D01*
X59658363Y16066213D01*
X59658360Y16066212D01*
X59497002Y15983994D01*
X59350505Y15877559D01*
X59350500Y15877555D01*
X59222445Y15749500D01*
X59222441Y15749495D01*
X59116006Y15602998D01*
X59033788Y15441640D01*
X59033787Y15441637D01*
X58977829Y15269411D01*
X58949500Y15090552D01*
X41250500Y15090552D01*
X41234019Y15194603D01*
X41222171Y15269409D01*
X41166211Y15441639D01*
X41166211Y15441640D01*
X41137740Y15497516D01*
X41083996Y15602994D01*
X41070396Y15621713D01*
X40977558Y15749495D01*
X40977554Y15749500D01*
X40849499Y15877555D01*
X40849494Y15877559D01*
X40702997Y15983994D01*
X40702996Y15983995D01*
X40702994Y15983996D01*
X40640169Y16016007D01*
X40541639Y16066212D01*
X40541636Y16066213D01*
X40369410Y16122171D01*
X40190551Y16150500D01*
X40190546Y16150500D01*
X40009454Y16150500D01*
X40009449Y16150500D01*
X39830589Y16122171D01*
X39658363Y16066213D01*
X39658360Y16066212D01*
X39497002Y15983994D01*
X39350505Y15877559D01*
X39350500Y15877555D01*
X39222445Y15749500D01*
X39222441Y15749495D01*
X39116006Y15602998D01*
X39033788Y15441640D01*
X39033787Y15441637D01*
X38977829Y15269411D01*
X38949500Y15090552D01*
X21250500Y15090552D01*
X21234019Y15194603D01*
X21222171Y15269409D01*
X21166211Y15441639D01*
X21166211Y15441640D01*
X21137740Y15497516D01*
X21083996Y15602994D01*
X21070396Y15621713D01*
X20977558Y15749495D01*
X20977554Y15749500D01*
X20849499Y15877555D01*
X20849494Y15877559D01*
X20702997Y15983994D01*
X20702996Y15983995D01*
X20702994Y15983996D01*
X20640169Y16016007D01*
X20541639Y16066212D01*
X20541636Y16066213D01*
X20369410Y16122171D01*
X20190551Y16150500D01*
X20190546Y16150500D01*
X20009454Y16150500D01*
X20009449Y16150500D01*
X19830589Y16122171D01*
X19658363Y16066213D01*
X19658360Y16066212D01*
X19497002Y15983994D01*
X19350505Y15877559D01*
X19350500Y15877555D01*
X19222445Y15749500D01*
X19222441Y15749495D01*
X19116006Y15602998D01*
X19033788Y15441640D01*
X19033787Y15441637D01*
X18977829Y15269411D01*
X18949500Y15090552D01*
X1000000Y15090552D01*
X1000000Y17090552D01*
X8749500Y17090552D01*
X8749500Y16909449D01*
X8777829Y16730590D01*
X8833787Y16558364D01*
X8833788Y16558361D01*
X8916006Y16397003D01*
X9022441Y16250506D01*
X9022445Y16250501D01*
X9150500Y16122446D01*
X9150505Y16122442D01*
X9278287Y16029604D01*
X9297006Y16016004D01*
X9402484Y15962260D01*
X9458360Y15933789D01*
X9458363Y15933788D01*
X9544476Y15905809D01*
X9630591Y15877829D01*
X9713429Y15864709D01*
X9809449Y15849500D01*
X9809454Y15849500D01*
X9990551Y15849500D01*
X10077259Y15863235D01*
X10169409Y15877829D01*
X10341639Y15933789D01*
X10502994Y16016004D01*
X10649501Y16122447D01*
X10777553Y16250499D01*
X10883996Y16397006D01*
X10966211Y16558361D01*
X11022171Y16730591D01*
X11036765Y16822741D01*
X11050500Y16909449D01*
X11050500Y17090552D01*
X28749500Y17090552D01*
X28749500Y16909449D01*
X28777829Y16730590D01*
X28833787Y16558364D01*
X28833788Y16558361D01*
X28916006Y16397003D01*
X29022441Y16250506D01*
X29022445Y16250501D01*
X29150500Y16122446D01*
X29150505Y16122442D01*
X29278287Y16029604D01*
X29297006Y16016004D01*
X29402484Y15962260D01*
X29458360Y15933789D01*
X29458363Y15933788D01*
X29544476Y15905809D01*
X29630591Y15877829D01*
X29713429Y15864709D01*
X29809449Y15849500D01*
X29809454Y15849500D01*
X29990551Y15849500D01*
X30077259Y15863235D01*
X30169409Y15877829D01*
X30341639Y15933789D01*
X30502994Y16016004D01*
X30649501Y16122447D01*
X30777553Y16250499D01*
X30883996Y16397006D01*
X30966211Y16558361D01*
X31022171Y16730591D01*
X31036765Y16822741D01*
X31050500Y16909449D01*
X31050500Y17090552D01*
X48749500Y17090552D01*
X48749500Y16909449D01*
X48777829Y16730590D01*
X48833787Y16558364D01*
X48833788Y16558361D01*
X48916006Y16397003D01*
X49022441Y16250506D01*
X49022445Y16250501D01*
X49150500Y16122446D01*
X49150505Y16122442D01*
X49278287Y16029604D01*
X49297006Y16016004D01*
X49402484Y15962260D01*
X49458360Y15933789D01*
X49458363Y15933788D01*
X49544476Y15905809D01*
X49630591Y15877829D01*
X49713429Y15864709D01*
X49809449Y15849500D01*
X49809454Y15849500D01*
X49990551Y15849500D01*
X50077259Y15863235D01*
X50169409Y15877829D01*
X50341639Y15933789D01*
X50502994Y16016004D01*
X50649501Y16122447D01*
X50777553Y16250499D01*
X50883996Y16397006D01*
X50966211Y16558361D01*
X51022171Y16730591D01*
X51036765Y16822741D01*
X51050500Y16909449D01*
X51050500Y17090552D01*
X68749500Y17090552D01*
X68749500Y16909449D01*
X68777829Y16730590D01*
X68833787Y16558364D01*
X68833788Y16558361D01*
X68916006Y16397003D01*
X69022441Y16250506D01*
X69022445Y16250501D01*
X69150500Y16122446D01*
X69150505Y16122442D01*
X69278287Y16029604D01*
X69297006Y16016004D01*
X69402484Y15962260D01*
X69458360Y15933789D01*
X69458363Y15933788D01*
X69544476Y15905809D01*
X69630591Y15877829D01*
X69713429Y15864709D01*
X69809449Y15849500D01*
X69809454Y15849500D01*
X69990551Y15849500D01*
X70077259Y15863235D01*
X70169409Y15877829D01*
X70341639Y15933789D01*
X70502994Y16016004D01*
X70649501Y16122447D01*
X70777553Y16250499D01*
X70883996Y16397006D01*
X70966211Y16558361D01*
X71022171Y16730591D01*
X71036765Y16822741D01*
X71050500Y16909449D01*
X71050500Y17090552D01*
X88749500Y17090552D01*
X88749500Y16909449D01*
X88777829Y16730590D01*
X88833787Y16558364D01*
X88833788Y16558361D01*
X88916006Y16397003D01*
X89022441Y16250506D01*
X89022445Y16250501D01*
X89150500Y16122446D01*
X89150505Y16122442D01*
X89278287Y16029604D01*
X89297006Y16016004D01*
X89402484Y15962260D01*
X89458360Y15933789D01*
X89458363Y15933788D01*
X89544476Y15905809D01*
X89630591Y15877829D01*
X89713429Y15864709D01*
X89809449Y15849500D01*
X89809454Y15849500D01*
X89990551Y15849500D01*
X90077259Y15863235D01*
X90169409Y15877829D01*
X90341639Y15933789D01*
X90502994Y16016004D01*
X90649501Y16122447D01*
X90777553Y16250499D01*
X90883996Y16397006D01*
X90966211Y16558361D01*
X91022171Y16730591D01*
X91036765Y16822741D01*
X91050500Y16909449D01*
X91050500Y17090552D01*
X108749500Y17090552D01*
X108749500Y16909449D01*
X108777829Y16730590D01*
X108833787Y16558364D01*
X108833788Y16558361D01*
X108916006Y16397003D01*
X109022441Y16250506D01*
X109022445Y16250501D01*
X109150500Y16122446D01*
X109150505Y16122442D01*
X109278287Y16029604D01*
X109297006Y16016004D01*
X109402484Y15962260D01*
X109458360Y15933789D01*
X109458363Y15933788D01*
X109544476Y15905809D01*
X109630591Y15877829D01*
X109713429Y15864709D01*
X109809449Y15849500D01*
X109809454Y15849500D01*
X109990551Y15849500D01*
X110077259Y15863235D01*
X110169409Y15877829D01*
X110341639Y15933789D01*
X110502994Y16016004D01*
X110649501Y16122447D01*
X110777553Y16250499D01*
X110883996Y16397006D01*
X110966211Y16558361D01*
X111022171Y16730591D01*
X111036765Y16822741D01*
X111050500Y16909449D01*
X111050500Y17090552D01*
X111034019Y17194603D01*
X111022171Y17269409D01*
X110966211Y17441639D01*
X110966211Y17441640D01*
X110937740Y17497516D01*
X110883996Y17602994D01*
X110870396Y17621713D01*
X110777558Y17749495D01*
X110777554Y17749500D01*
X110649499Y17877555D01*
X110649494Y17877559D01*
X110502997Y17983994D01*
X110502996Y17983995D01*
X110502994Y17983996D01*
X110451300Y18010336D01*
X110341639Y18066212D01*
X110341636Y18066213D01*
X110169410Y18122171D01*
X109990551Y18150500D01*
X109990546Y18150500D01*
X109809454Y18150500D01*
X109809449Y18150500D01*
X109630589Y18122171D01*
X109458363Y18066213D01*
X109458360Y18066212D01*
X109297002Y17983994D01*
X109150505Y17877559D01*
X109150500Y17877555D01*
X109022445Y17749500D01*
X109022441Y17749495D01*
X108916006Y17602998D01*
X108833788Y17441640D01*
X108833787Y17441637D01*
X108777829Y17269411D01*
X108749500Y17090552D01*
X91050500Y17090552D01*
X91034019Y17194603D01*
X91022171Y17269409D01*
X90966211Y17441639D01*
X90966211Y17441640D01*
X90937740Y17497516D01*
X90883996Y17602994D01*
X90870396Y17621713D01*
X90777558Y17749495D01*
X90777554Y17749500D01*
X90649499Y17877555D01*
X90649494Y17877559D01*
X90502997Y17983994D01*
X90502996Y17983995D01*
X90502994Y17983996D01*
X90451300Y18010336D01*
X90341639Y18066212D01*
X90341636Y18066213D01*
X90169410Y18122171D01*
X89990551Y18150500D01*
X89990546Y18150500D01*
X89809454Y18150500D01*
X89809449Y18150500D01*
X89630589Y18122171D01*
X89458363Y18066213D01*
X89458360Y18066212D01*
X89297002Y17983994D01*
X89150505Y17877559D01*
X89150500Y17877555D01*
X89022445Y17749500D01*
X89022441Y17749495D01*
X88916006Y17602998D01*
X88833788Y17441640D01*
X88833787Y17441637D01*
X88777829Y17269411D01*
X88749500Y17090552D01*
X71050500Y17090552D01*
X71034019Y17194603D01*
X71022171Y17269409D01*
X70966211Y17441639D01*
X70966211Y17441640D01*
X70937740Y17497516D01*
X70883996Y17602994D01*
X70870396Y17621713D01*
X70777558Y17749495D01*
X70777554Y17749500D01*
X70649499Y17877555D01*
X70649494Y17877559D01*
X70502997Y17983994D01*
X70502996Y17983995D01*
X70502994Y17983996D01*
X70451300Y18010336D01*
X70341639Y18066212D01*
X70341636Y18066213D01*
X70169410Y18122171D01*
X69990551Y18150500D01*
X69990546Y18150500D01*
X69809454Y18150500D01*
X69809449Y18150500D01*
X69630589Y18122171D01*
X69458363Y18066213D01*
X69458360Y18066212D01*
X69297002Y17983994D01*
X69150505Y17877559D01*
X69150500Y17877555D01*
X69022445Y17749500D01*
X69022441Y17749495D01*
X68916006Y17602998D01*
X68833788Y17441640D01*
X68833787Y17441637D01*
X68777829Y17269411D01*
X68749500Y17090552D01*
X51050500Y17090552D01*
X51034019Y17194603D01*
X51022171Y17269409D01*
X50966211Y17441639D01*
X50966211Y17441640D01*
X50937740Y17497516D01*
X50883996Y17602994D01*
X50870396Y17621713D01*
X50777558Y17749495D01*
X50777554Y17749500D01*
X50649499Y17877555D01*
X50649494Y17877559D01*
X50502997Y17983994D01*
X50502996Y17983995D01*
X50502994Y17983996D01*
X50451300Y18010336D01*
X50341639Y18066212D01*
X50341636Y18066213D01*
X50169410Y18122171D01*
X49990551Y18150500D01*
X49990546Y18150500D01*
X49809454Y18150500D01*
X49809449Y18150500D01*
X49630589Y18122171D01*
X49458363Y18066213D01*
X49458360Y18066212D01*
X49297002Y17983994D01*
X49150505Y17877559D01*
X49150500Y17877555D01*
X49022445Y17749500D01*
X49022441Y17749495D01*
X48916006Y17602998D01*
X48833788Y17441640D01*
X48833787Y17441637D01*
X48777829Y17269411D01*
X48749500Y17090552D01*
X31050500Y17090552D01*
X31034019Y17194603D01*
X31022171Y17269409D01*
X30966211Y17441639D01*
X30966211Y17441640D01*
X30937740Y17497516D01*
X30883996Y17602994D01*
X30870396Y17621713D01*
X30777558Y17749495D01*
X30777554Y17749500D01*
X30649499Y17877555D01*
X30649494Y17877559D01*
X30502997Y17983994D01*
X30502996Y17983995D01*
X30502994Y17983996D01*
X30451300Y18010336D01*
X30341639Y18066212D01*
X30341636Y18066213D01*
X30169410Y18122171D01*
X29990551Y18150500D01*
X29990546Y18150500D01*
X29809454Y18150500D01*
X29809449Y18150500D01*
X29630589Y18122171D01*
X29458363Y18066213D01*
X29458360Y18066212D01*
X29297002Y17983994D01*
X29150505Y17877559D01*
X29150500Y17877555D01*
X29022445Y17749500D01*
X29022441Y17749495D01*
X28916006Y17602998D01*
X28833788Y17441640D01*
X28833787Y17441637D01*
X28777829Y17269411D01*
X28749500Y17090552D01*
X11050500Y17090552D01*
X11034019Y17194603D01*
X11022171Y17269409D01*
X10966211Y17441639D01*
X10966211Y17441640D01*
X10937740Y17497516D01*
X10883996Y17602994D01*
X10870396Y17621713D01*
X10777558Y17749495D01*
X10777554Y17749500D01*
X10649499Y17877555D01*
X10649494Y17877559D01*
X10502997Y17983994D01*
X10502996Y17983995D01*
X10502994Y17983996D01*
X10451300Y18010336D01*
X10341639Y18066212D01*
X10341636Y18066213D01*
X10169410Y18122171D01*
X9990551Y18150500D01*
X9990546Y18150500D01*
X9809454Y18150500D01*
X9809449Y18150500D01*
X9630589Y18122171D01*
X9458363Y18066213D01*
X9458360Y18066212D01*
X9297002Y17983994D01*
X9150505Y17877559D01*
X9150500Y17877555D01*
X9022445Y17749500D01*
X9022441Y17749495D01*
X8916006Y17602998D01*
X8833788Y17441640D01*
X8833787Y17441637D01*
X8777829Y17269411D01*
X8749500Y17090552D01*
X1000000Y17090552D01*
X1000000Y31079057D01*
X20099500Y31079057D01*
X20099500Y30920943D01*
X20140289Y30768718D01*
X20140423Y30768217D01*
X20140426Y30768210D01*
X20219475Y30631291D01*
X20219479Y30631286D01*
X20219480Y30631284D01*
X20331284Y30519480D01*
X20331286Y30519479D01*
X20331290Y30519476D01*
X20468209Y30440427D01*
X20468216Y30440423D01*
X20620943Y30399500D01*
X20620945Y30399500D01*
X20779055Y30399500D01*
X20779057Y30399500D01*
X20931784Y30440423D01*
X20998701Y30479057D01*
X25799500Y30479057D01*
X25799500Y30320943D01*
X25829923Y30207405D01*
X25840423Y30168217D01*
X25840426Y30168210D01*
X25919475Y30031291D01*
X25919479Y30031286D01*
X25919480Y30031284D01*
X26031284Y29919480D01*
X26031286Y29919479D01*
X26031290Y29919476D01*
X26168209Y29840427D01*
X26168216Y29840423D01*
X26320943Y29799500D01*
X26320945Y29799500D01*
X26479055Y29799500D01*
X26479057Y29799500D01*
X26631784Y29840423D01*
X26768716Y29919480D01*
X26880520Y30031284D01*
X26959577Y30168216D01*
X27000500Y30320943D01*
X27000500Y30479057D01*
X26973705Y30579057D01*
X66709500Y30579057D01*
X66709500Y30420943D01*
X66736295Y30320945D01*
X66750423Y30268217D01*
X66750426Y30268210D01*
X66829475Y30131291D01*
X66829479Y30131286D01*
X66829480Y30131284D01*
X66941284Y30019480D01*
X66941286Y30019479D01*
X66941290Y30019476D01*
X67078209Y29940427D01*
X67078216Y29940423D01*
X67230943Y29899500D01*
X67230945Y29899500D01*
X67389055Y29899500D01*
X67389057Y29899500D01*
X67541784Y29940423D01*
X67678716Y30019480D01*
X67790520Y30131284D01*
X67869577Y30268216D01*
X67910500Y30420943D01*
X67910500Y30579057D01*
X83129500Y30579057D01*
X83129500Y30420943D01*
X83156295Y30320945D01*
X83170423Y30268217D01*
X83170426Y30268210D01*
X83249475Y30131291D01*
X83249479Y30131286D01*
X83249480Y30131284D01*
X83361284Y30019480D01*
X83361286Y30019479D01*
X83361290Y30019476D01*
X83498209Y29940427D01*
X83498216Y29940423D01*
X83650943Y29899500D01*
X83650945Y29899500D01*
X83809055Y29899500D01*
X83809057Y29899500D01*
X83961784Y29940423D01*
X84098716Y30019480D01*
X84210520Y30131284D01*
X84289577Y30268216D01*
X84330500Y30420943D01*
X84330500Y30579057D01*
X84310103Y30655178D01*
X98191816Y30655178D01*
X98191816Y30497064D01*
X98212213Y30420944D01*
X98232739Y30344338D01*
X98232742Y30344331D01*
X98311791Y30207412D01*
X98311795Y30207407D01*
X98311796Y30207405D01*
X98423600Y30095601D01*
X98423602Y30095600D01*
X98423606Y30095597D01*
X98560525Y30016548D01*
X98560532Y30016544D01*
X98713259Y29975621D01*
X98713261Y29975621D01*
X98871371Y29975621D01*
X98871373Y29975621D01*
X99024100Y30016544D01*
X99161032Y30095601D01*
X99272836Y30207405D01*
X99351893Y30344337D01*
X99392816Y30497064D01*
X99392816Y30655178D01*
X99351893Y30807905D01*
X99309969Y30880520D01*
X99272840Y30944831D01*
X99272834Y30944839D01*
X99161033Y31056640D01*
X99161025Y31056646D01*
X99024106Y31135695D01*
X99024102Y31135697D01*
X99024100Y31135698D01*
X98871373Y31176621D01*
X98713259Y31176621D01*
X98560532Y31135698D01*
X98560525Y31135695D01*
X98423606Y31056646D01*
X98423598Y31056640D01*
X98311797Y30944839D01*
X98311791Y30944831D01*
X98232742Y30807912D01*
X98232739Y30807905D01*
X98191816Y30655178D01*
X84310103Y30655178D01*
X84289577Y30731784D01*
X84268258Y30768710D01*
X84210524Y30868710D01*
X84210518Y30868718D01*
X84098717Y30980519D01*
X84098709Y30980525D01*
X83961790Y31059574D01*
X83961786Y31059576D01*
X83961784Y31059577D01*
X83809057Y31100500D01*
X83650943Y31100500D01*
X83498216Y31059577D01*
X83498209Y31059574D01*
X83361290Y30980525D01*
X83361282Y30980519D01*
X83249481Y30868718D01*
X83249475Y30868710D01*
X83170426Y30731791D01*
X83170424Y30731786D01*
X83170423Y30731784D01*
X83129500Y30579057D01*
X67910500Y30579057D01*
X67869577Y30731784D01*
X67848258Y30768710D01*
X67790524Y30868710D01*
X67790518Y30868718D01*
X67678717Y30980519D01*
X67678709Y30980525D01*
X67541790Y31059574D01*
X67541786Y31059576D01*
X67541784Y31059577D01*
X67389057Y31100500D01*
X67230943Y31100500D01*
X67078216Y31059577D01*
X67078209Y31059574D01*
X66941290Y30980525D01*
X66941282Y30980519D01*
X66829481Y30868718D01*
X66829475Y30868710D01*
X66750426Y30731791D01*
X66750424Y30731786D01*
X66750423Y30731784D01*
X66709500Y30579057D01*
X26973705Y30579057D01*
X26959577Y30631784D01*
X26901843Y30731784D01*
X26880524Y30768710D01*
X26880518Y30768718D01*
X26768717Y30880519D01*
X26768709Y30880525D01*
X26631790Y30959574D01*
X26631786Y30959576D01*
X26631784Y30959577D01*
X26479057Y31000500D01*
X26320943Y31000500D01*
X26168216Y30959577D01*
X26168209Y30959574D01*
X26031290Y30880525D01*
X26031282Y30880519D01*
X25919481Y30768718D01*
X25919475Y30768710D01*
X25840426Y30631791D01*
X25840423Y30631784D01*
X25799500Y30479057D01*
X20998701Y30479057D01*
X21068716Y30519480D01*
X21180520Y30631284D01*
X21259577Y30768216D01*
X21300500Y30920943D01*
X21300500Y31079057D01*
X21259577Y31231784D01*
X21196855Y31340423D01*
X21180524Y31368710D01*
X21180518Y31368718D01*
X21068717Y31480519D01*
X21068709Y31480525D01*
X20931790Y31559574D01*
X20931786Y31559576D01*
X20931784Y31559577D01*
X20779057Y31600500D01*
X20620943Y31600500D01*
X20468216Y31559577D01*
X20468209Y31559574D01*
X20331290Y31480525D01*
X20331282Y31480519D01*
X20219481Y31368718D01*
X20219475Y31368710D01*
X20140426Y31231791D01*
X20140423Y31231784D01*
X20099500Y31079057D01*
X1000000Y31079057D01*
X1000000Y31679058D01*
X39899500Y31679058D01*
X39899500Y31520944D01*
X39940290Y31368716D01*
X39940423Y31368218D01*
X39940426Y31368211D01*
X40019475Y31231292D01*
X40019479Y31231287D01*
X40019480Y31231285D01*
X40131284Y31119481D01*
X40131286Y31119480D01*
X40131290Y31119477D01*
X40235047Y31059574D01*
X40268216Y31040424D01*
X40420943Y30999501D01*
X40420945Y30999501D01*
X40579055Y30999501D01*
X40579057Y30999501D01*
X40731784Y31040424D01*
X40868716Y31119481D01*
X40980520Y31231285D01*
X41059577Y31368217D01*
X41100500Y31520944D01*
X41100500Y31679058D01*
X41059577Y31831785D01*
X41005652Y31925187D01*
X40980522Y31968714D01*
X40980518Y31968719D01*
X40970180Y31979057D01*
X101999500Y31979057D01*
X101999500Y31820943D01*
X102037519Y31679056D01*
X102040423Y31668217D01*
X102040426Y31668210D01*
X102119475Y31531291D01*
X102119479Y31531286D01*
X102119480Y31531284D01*
X102231284Y31419480D01*
X102231286Y31419479D01*
X102231290Y31419476D01*
X102319221Y31368710D01*
X102368216Y31340423D01*
X102520943Y31299500D01*
X102520945Y31299500D01*
X102679055Y31299500D01*
X102679057Y31299500D01*
X102831784Y31340423D01*
X102968716Y31419480D01*
X103080520Y31531284D01*
X103159577Y31668216D01*
X103200500Y31820943D01*
X103200500Y31979057D01*
X105599500Y31979057D01*
X105599500Y31820943D01*
X105637519Y31679056D01*
X105640423Y31668217D01*
X105640426Y31668210D01*
X105719475Y31531291D01*
X105719479Y31531286D01*
X105719480Y31531284D01*
X105831284Y31419480D01*
X105831286Y31419479D01*
X105831290Y31419476D01*
X105919221Y31368710D01*
X105968216Y31340423D01*
X106120943Y31299500D01*
X106120945Y31299500D01*
X106279055Y31299500D01*
X106279057Y31299500D01*
X106431784Y31340423D01*
X106568716Y31419480D01*
X106680520Y31531284D01*
X106759577Y31668216D01*
X106800500Y31820943D01*
X106800500Y31979057D01*
X106759577Y32131784D01*
X106719904Y32200501D01*
X106680524Y32268710D01*
X106680518Y32268718D01*
X106568717Y32380519D01*
X106568709Y32380525D01*
X106431790Y32459574D01*
X106431786Y32459576D01*
X106431784Y32459577D01*
X106279057Y32500500D01*
X106120943Y32500500D01*
X105968216Y32459577D01*
X105968209Y32459574D01*
X105831290Y32380525D01*
X105831282Y32380519D01*
X105719481Y32268718D01*
X105719475Y32268710D01*
X105640426Y32131791D01*
X105640423Y32131784D01*
X105599500Y31979057D01*
X103200500Y31979057D01*
X103159577Y32131784D01*
X103119904Y32200501D01*
X103080524Y32268710D01*
X103080518Y32268718D01*
X102968717Y32380519D01*
X102968709Y32380525D01*
X102831790Y32459574D01*
X102831786Y32459576D01*
X102831784Y32459577D01*
X102679057Y32500500D01*
X102520943Y32500500D01*
X102368216Y32459577D01*
X102368209Y32459574D01*
X102231290Y32380525D01*
X102231282Y32380519D01*
X102119481Y32268718D01*
X102119475Y32268710D01*
X102040426Y32131791D01*
X102040423Y32131784D01*
X101999500Y31979057D01*
X40970180Y31979057D01*
X40868717Y32080520D01*
X40868709Y32080526D01*
X40731790Y32159575D01*
X40731786Y32159577D01*
X40731784Y32159578D01*
X40579057Y32200501D01*
X40420943Y32200501D01*
X40268216Y32159578D01*
X40268209Y32159575D01*
X40131290Y32080526D01*
X40131282Y32080520D01*
X40019481Y31968719D01*
X40019475Y31968711D01*
X39940426Y31831792D01*
X39940423Y31831785D01*
X39899500Y31679058D01*
X1000000Y31679058D01*
X1000000Y35431005D01*
X63299499Y35431005D01*
X63326418Y35295678D01*
X63326421Y35295668D01*
X63379221Y35168196D01*
X63379228Y35168183D01*
X63455885Y35053459D01*
X63455888Y35053455D01*
X63553454Y34955889D01*
X63553458Y34955886D01*
X63668182Y34879229D01*
X63668195Y34879222D01*
X63795667Y34826422D01*
X63795672Y34826420D01*
X63795676Y34826420D01*
X63795677Y34826419D01*
X63931004Y34799500D01*
X63931007Y34799500D01*
X64068995Y34799500D01*
X64160041Y34817611D01*
X64204328Y34826420D01*
X64331811Y34879225D01*
X64446542Y34955886D01*
X64544114Y35053458D01*
X64620775Y35168189D01*
X64673580Y35295672D01*
X64700500Y35431005D01*
X67299499Y35431005D01*
X67326418Y35295678D01*
X67326421Y35295668D01*
X67379221Y35168196D01*
X67379228Y35168183D01*
X67455885Y35053459D01*
X67455888Y35053455D01*
X67553454Y34955889D01*
X67553458Y34955886D01*
X67668182Y34879229D01*
X67668195Y34879222D01*
X67795667Y34826422D01*
X67795672Y34826420D01*
X67795676Y34826420D01*
X67795677Y34826419D01*
X67931004Y34799500D01*
X67931007Y34799500D01*
X68068995Y34799500D01*
X68160041Y34817611D01*
X68204328Y34826420D01*
X68331811Y34879225D01*
X68446542Y34955886D01*
X68544114Y35053458D01*
X68620775Y35168189D01*
X68673580Y35295672D01*
X68700500Y35431005D01*
X71299499Y35431005D01*
X71326418Y35295678D01*
X71326421Y35295668D01*
X71379221Y35168196D01*
X71379228Y35168183D01*
X71455885Y35053459D01*
X71455888Y35053455D01*
X71553454Y34955889D01*
X71553458Y34955886D01*
X71668182Y34879229D01*
X71668195Y34879222D01*
X71795667Y34826422D01*
X71795672Y34826420D01*
X71795676Y34826420D01*
X71795677Y34826419D01*
X71931004Y34799500D01*
X71931007Y34799500D01*
X72068995Y34799500D01*
X72160041Y34817611D01*
X72204328Y34826420D01*
X72331811Y34879225D01*
X72446542Y34955886D01*
X72544114Y35053458D01*
X72620775Y35168189D01*
X72673580Y35295672D01*
X72700500Y35431005D01*
X75299499Y35431005D01*
X75326418Y35295678D01*
X75326421Y35295668D01*
X75379221Y35168196D01*
X75379228Y35168183D01*
X75455885Y35053459D01*
X75455888Y35053455D01*
X75553454Y34955889D01*
X75553458Y34955886D01*
X75668182Y34879229D01*
X75668195Y34879222D01*
X75795667Y34826422D01*
X75795672Y34826420D01*
X75795676Y34826420D01*
X75795677Y34826419D01*
X75931004Y34799500D01*
X75931007Y34799500D01*
X76068995Y34799500D01*
X76160041Y34817611D01*
X76204328Y34826420D01*
X76331811Y34879225D01*
X76446542Y34955886D01*
X76544114Y35053458D01*
X76620775Y35168189D01*
X76673580Y35295672D01*
X76700500Y35431005D01*
X79299499Y35431005D01*
X79326418Y35295678D01*
X79326421Y35295668D01*
X79379221Y35168196D01*
X79379228Y35168183D01*
X79455885Y35053459D01*
X79455888Y35053455D01*
X79553454Y34955889D01*
X79553458Y34955886D01*
X79668182Y34879229D01*
X79668195Y34879222D01*
X79795667Y34826422D01*
X79795672Y34826420D01*
X79795676Y34826420D01*
X79795677Y34826419D01*
X79931004Y34799500D01*
X79931007Y34799500D01*
X80068995Y34799500D01*
X80160041Y34817611D01*
X80204328Y34826420D01*
X80331811Y34879225D01*
X80446542Y34955886D01*
X80544114Y35053458D01*
X80620775Y35168189D01*
X80673580Y35295672D01*
X80700500Y35431005D01*
X83299499Y35431005D01*
X83326418Y35295678D01*
X83326421Y35295668D01*
X83379221Y35168196D01*
X83379228Y35168183D01*
X83455885Y35053459D01*
X83455888Y35053455D01*
X83553454Y34955889D01*
X83553458Y34955886D01*
X83668182Y34879229D01*
X83668195Y34879222D01*
X83795667Y34826422D01*
X83795672Y34826420D01*
X83795676Y34826420D01*
X83795677Y34826419D01*
X83931004Y34799500D01*
X83931007Y34799500D01*
X84068995Y34799500D01*
X84160041Y34817611D01*
X84204328Y34826420D01*
X84331811Y34879225D01*
X84446542Y34955886D01*
X84544114Y35053458D01*
X84620775Y35168189D01*
X84673580Y35295672D01*
X84700500Y35431005D01*
X87299499Y35431005D01*
X87326418Y35295678D01*
X87326421Y35295668D01*
X87379221Y35168196D01*
X87379228Y35168183D01*
X87455885Y35053459D01*
X87455888Y35053455D01*
X87553454Y34955889D01*
X87553458Y34955886D01*
X87668182Y34879229D01*
X87668195Y34879222D01*
X87795667Y34826422D01*
X87795672Y34826420D01*
X87795676Y34826420D01*
X87795677Y34826419D01*
X87931004Y34799500D01*
X87931007Y34799500D01*
X88068995Y34799500D01*
X88160041Y34817611D01*
X88204328Y34826420D01*
X88331811Y34879225D01*
X88446542Y34955886D01*
X88544114Y35053458D01*
X88620775Y35168189D01*
X88673580Y35295672D01*
X88700500Y35431005D01*
X91299499Y35431005D01*
X91326418Y35295678D01*
X91326421Y35295668D01*
X91379221Y35168196D01*
X91379228Y35168183D01*
X91455885Y35053459D01*
X91455888Y35053455D01*
X91553454Y34955889D01*
X91553458Y34955886D01*
X91668182Y34879229D01*
X91668195Y34879222D01*
X91795667Y34826422D01*
X91795672Y34826420D01*
X91795676Y34826420D01*
X91795677Y34826419D01*
X91931004Y34799500D01*
X91931007Y34799500D01*
X92068995Y34799500D01*
X92160041Y34817611D01*
X92204328Y34826420D01*
X92331811Y34879225D01*
X92446542Y34955886D01*
X92544114Y35053458D01*
X92620775Y35168189D01*
X92673580Y35295672D01*
X92700500Y35431005D01*
X95299499Y35431005D01*
X95326418Y35295678D01*
X95326421Y35295668D01*
X95379221Y35168196D01*
X95379228Y35168183D01*
X95455885Y35053459D01*
X95455888Y35053455D01*
X95553454Y34955889D01*
X95553458Y34955886D01*
X95668182Y34879229D01*
X95668195Y34879222D01*
X95795667Y34826422D01*
X95795672Y34826420D01*
X95795676Y34826420D01*
X95795677Y34826419D01*
X95931004Y34799500D01*
X95931007Y34799500D01*
X96068995Y34799500D01*
X96160041Y34817611D01*
X96204328Y34826420D01*
X96331811Y34879225D01*
X96446542Y34955886D01*
X96544114Y35053458D01*
X96620775Y35168189D01*
X96673580Y35295672D01*
X96700500Y35431005D01*
X99299499Y35431005D01*
X99326418Y35295678D01*
X99326421Y35295668D01*
X99379221Y35168196D01*
X99379228Y35168183D01*
X99455885Y35053459D01*
X99455888Y35053455D01*
X99553454Y34955889D01*
X99553458Y34955886D01*
X99668182Y34879229D01*
X99668195Y34879222D01*
X99795667Y34826422D01*
X99795672Y34826420D01*
X99795676Y34826420D01*
X99795677Y34826419D01*
X99931004Y34799500D01*
X99931007Y34799500D01*
X100068995Y34799500D01*
X100160041Y34817611D01*
X100204328Y34826420D01*
X100331811Y34879225D01*
X100446542Y34955886D01*
X100544114Y35053458D01*
X100620775Y35168189D01*
X100673580Y35295672D01*
X100700500Y35431005D01*
X103299499Y35431005D01*
X103326418Y35295678D01*
X103326421Y35295668D01*
X103379221Y35168196D01*
X103379228Y35168183D01*
X103455885Y35053459D01*
X103455888Y35053455D01*
X103553454Y34955889D01*
X103553458Y34955886D01*
X103668182Y34879229D01*
X103668195Y34879222D01*
X103795667Y34826422D01*
X103795672Y34826420D01*
X103795676Y34826420D01*
X103795677Y34826419D01*
X103931004Y34799500D01*
X103931007Y34799500D01*
X104068995Y34799500D01*
X104160041Y34817611D01*
X104204328Y34826420D01*
X104331811Y34879225D01*
X104446542Y34955886D01*
X104544114Y35053458D01*
X104620775Y35168189D01*
X104673580Y35295672D01*
X104700500Y35431005D01*
X107299499Y35431005D01*
X107326418Y35295678D01*
X107326421Y35295668D01*
X107379221Y35168196D01*
X107379228Y35168183D01*
X107455885Y35053459D01*
X107455888Y35053455D01*
X107553454Y34955889D01*
X107553458Y34955886D01*
X107668182Y34879229D01*
X107668195Y34879222D01*
X107795667Y34826422D01*
X107795672Y34826420D01*
X107795676Y34826420D01*
X107795677Y34826419D01*
X107931004Y34799500D01*
X107931007Y34799500D01*
X108068995Y34799500D01*
X108160041Y34817611D01*
X108204328Y34826420D01*
X108331811Y34879225D01*
X108446542Y34955886D01*
X108544114Y35053458D01*
X108620775Y35168189D01*
X108673580Y35295672D01*
X108700500Y35431005D01*
X111299499Y35431005D01*
X111326418Y35295678D01*
X111326421Y35295668D01*
X111379221Y35168196D01*
X111379228Y35168183D01*
X111455885Y35053459D01*
X111455888Y35053455D01*
X111553454Y34955889D01*
X111553458Y34955886D01*
X111668182Y34879229D01*
X111668195Y34879222D01*
X111795667Y34826422D01*
X111795672Y34826420D01*
X111795676Y34826420D01*
X111795677Y34826419D01*
X111931004Y34799500D01*
X111931007Y34799500D01*
X112068995Y34799500D01*
X112160041Y34817611D01*
X112204328Y34826420D01*
X112331811Y34879225D01*
X112446542Y34955886D01*
X112544114Y35053458D01*
X112620775Y35168189D01*
X112673580Y35295672D01*
X112700500Y35431005D01*
X115299499Y35431005D01*
X115326418Y35295678D01*
X115326421Y35295668D01*
X115379221Y35168196D01*
X115379228Y35168183D01*
X115455885Y35053459D01*
X115455888Y35053455D01*
X115553454Y34955889D01*
X115553458Y34955886D01*
X115668182Y34879229D01*
X115668195Y34879222D01*
X115795667Y34826422D01*
X115795672Y34826420D01*
X115795676Y34826420D01*
X115795677Y34826419D01*
X115931004Y34799500D01*
X115931007Y34799500D01*
X116068995Y34799500D01*
X116160041Y34817611D01*
X116204328Y34826420D01*
X116331811Y34879225D01*
X116446542Y34955886D01*
X116544114Y35053458D01*
X116620775Y35168189D01*
X116673580Y35295672D01*
X116700500Y35431005D01*
X119299499Y35431005D01*
X119326418Y35295678D01*
X119326421Y35295668D01*
X119379221Y35168196D01*
X119379228Y35168183D01*
X119455885Y35053459D01*
X119455888Y35053455D01*
X119553454Y34955889D01*
X119553458Y34955886D01*
X119668182Y34879229D01*
X119668195Y34879222D01*
X119795667Y34826422D01*
X119795672Y34826420D01*
X119795676Y34826420D01*
X119795677Y34826419D01*
X119931004Y34799500D01*
X119931007Y34799500D01*
X120068995Y34799500D01*
X120160041Y34817611D01*
X120204328Y34826420D01*
X120331811Y34879225D01*
X120446542Y34955886D01*
X120544114Y35053458D01*
X120620775Y35168189D01*
X120673580Y35295672D01*
X120700500Y35431005D01*
X123299499Y35431005D01*
X123326418Y35295678D01*
X123326421Y35295668D01*
X123379221Y35168196D01*
X123379228Y35168183D01*
X123455885Y35053459D01*
X123455888Y35053455D01*
X123553454Y34955889D01*
X123553458Y34955886D01*
X123668182Y34879229D01*
X123668195Y34879222D01*
X123795667Y34826422D01*
X123795672Y34826420D01*
X123795676Y34826420D01*
X123795677Y34826419D01*
X123931004Y34799500D01*
X123931007Y34799500D01*
X124068995Y34799500D01*
X124160041Y34817611D01*
X124204328Y34826420D01*
X124331811Y34879225D01*
X124446542Y34955886D01*
X124544114Y35053458D01*
X124620775Y35168189D01*
X124673580Y35295672D01*
X124700500Y35431007D01*
X124700500Y35568993D01*
X124700500Y35568996D01*
X124673581Y35704323D01*
X124673580Y35704324D01*
X124673580Y35704328D01*
X124673578Y35704333D01*
X124620778Y35831805D01*
X124620771Y35831818D01*
X124544114Y35946542D01*
X124544111Y35946546D01*
X124446545Y36044112D01*
X124446541Y36044115D01*
X124331817Y36120772D01*
X124331804Y36120779D01*
X124204332Y36173579D01*
X124204322Y36173582D01*
X124068995Y36200500D01*
X124068993Y36200500D01*
X123931007Y36200500D01*
X123931005Y36200500D01*
X123795677Y36173582D01*
X123795667Y36173579D01*
X123668195Y36120779D01*
X123668182Y36120772D01*
X123553458Y36044115D01*
X123553454Y36044112D01*
X123455888Y35946546D01*
X123455885Y35946542D01*
X123379228Y35831818D01*
X123379221Y35831805D01*
X123326421Y35704333D01*
X123326418Y35704323D01*
X123299500Y35568996D01*
X123299500Y35568993D01*
X123299500Y35431007D01*
X123299500Y35431005D01*
X123299499Y35431005D01*
X120700500Y35431005D01*
X120700500Y35431007D01*
X120700500Y35568993D01*
X120700500Y35568996D01*
X120673581Y35704323D01*
X120673580Y35704324D01*
X120673580Y35704328D01*
X120673578Y35704333D01*
X120620778Y35831805D01*
X120620771Y35831818D01*
X120544114Y35946542D01*
X120544111Y35946546D01*
X120446545Y36044112D01*
X120446541Y36044115D01*
X120331817Y36120772D01*
X120331804Y36120779D01*
X120204332Y36173579D01*
X120204322Y36173582D01*
X120068995Y36200500D01*
X120068993Y36200500D01*
X119931007Y36200500D01*
X119931005Y36200500D01*
X119795677Y36173582D01*
X119795667Y36173579D01*
X119668195Y36120779D01*
X119668182Y36120772D01*
X119553458Y36044115D01*
X119553454Y36044112D01*
X119455888Y35946546D01*
X119455885Y35946542D01*
X119379228Y35831818D01*
X119379221Y35831805D01*
X119326421Y35704333D01*
X119326418Y35704323D01*
X119299500Y35568996D01*
X119299500Y35568993D01*
X119299500Y35431007D01*
X119299500Y35431005D01*
X119299499Y35431005D01*
X116700500Y35431005D01*
X116700500Y35431007D01*
X116700500Y35568993D01*
X116700500Y35568996D01*
X116673581Y35704323D01*
X116673580Y35704324D01*
X116673580Y35704328D01*
X116673578Y35704333D01*
X116620778Y35831805D01*
X116620771Y35831818D01*
X116544114Y35946542D01*
X116544111Y35946546D01*
X116446545Y36044112D01*
X116446541Y36044115D01*
X116331817Y36120772D01*
X116331804Y36120779D01*
X116204332Y36173579D01*
X116204322Y36173582D01*
X116068995Y36200500D01*
X116068993Y36200500D01*
X115931007Y36200500D01*
X115931005Y36200500D01*
X115795677Y36173582D01*
X115795667Y36173579D01*
X115668195Y36120779D01*
X115668182Y36120772D01*
X115553458Y36044115D01*
X115553454Y36044112D01*
X115455888Y35946546D01*
X115455885Y35946542D01*
X115379228Y35831818D01*
X115379221Y35831805D01*
X115326421Y35704333D01*
X115326418Y35704323D01*
X115299500Y35568996D01*
X115299500Y35568993D01*
X115299500Y35431007D01*
X115299500Y35431005D01*
X115299499Y35431005D01*
X112700500Y35431005D01*
X112700500Y35431007D01*
X112700500Y35568993D01*
X112700500Y35568996D01*
X112673581Y35704323D01*
X112673580Y35704324D01*
X112673580Y35704328D01*
X112673578Y35704333D01*
X112620778Y35831805D01*
X112620771Y35831818D01*
X112544114Y35946542D01*
X112544111Y35946546D01*
X112446545Y36044112D01*
X112446541Y36044115D01*
X112331817Y36120772D01*
X112331804Y36120779D01*
X112204332Y36173579D01*
X112204322Y36173582D01*
X112068995Y36200500D01*
X112068993Y36200500D01*
X111931007Y36200500D01*
X111931005Y36200500D01*
X111795677Y36173582D01*
X111795667Y36173579D01*
X111668195Y36120779D01*
X111668182Y36120772D01*
X111553458Y36044115D01*
X111553454Y36044112D01*
X111455888Y35946546D01*
X111455885Y35946542D01*
X111379228Y35831818D01*
X111379221Y35831805D01*
X111326421Y35704333D01*
X111326418Y35704323D01*
X111299500Y35568996D01*
X111299500Y35568993D01*
X111299500Y35431007D01*
X111299500Y35431005D01*
X111299499Y35431005D01*
X108700500Y35431005D01*
X108700500Y35431007D01*
X108700500Y35568993D01*
X108700500Y35568996D01*
X108673581Y35704323D01*
X108673580Y35704324D01*
X108673580Y35704328D01*
X108673578Y35704333D01*
X108620778Y35831805D01*
X108620771Y35831818D01*
X108544114Y35946542D01*
X108544111Y35946546D01*
X108446545Y36044112D01*
X108446541Y36044115D01*
X108331817Y36120772D01*
X108331804Y36120779D01*
X108204332Y36173579D01*
X108204322Y36173582D01*
X108068995Y36200500D01*
X108068993Y36200500D01*
X107931007Y36200500D01*
X107931005Y36200500D01*
X107795677Y36173582D01*
X107795667Y36173579D01*
X107668195Y36120779D01*
X107668182Y36120772D01*
X107553458Y36044115D01*
X107553454Y36044112D01*
X107455888Y35946546D01*
X107455885Y35946542D01*
X107379228Y35831818D01*
X107379221Y35831805D01*
X107326421Y35704333D01*
X107326418Y35704323D01*
X107299500Y35568996D01*
X107299500Y35568993D01*
X107299500Y35431007D01*
X107299500Y35431005D01*
X107299499Y35431005D01*
X104700500Y35431005D01*
X104700500Y35431007D01*
X104700500Y35568993D01*
X104700500Y35568996D01*
X104673581Y35704323D01*
X104673580Y35704324D01*
X104673580Y35704328D01*
X104673578Y35704333D01*
X104620778Y35831805D01*
X104620771Y35831818D01*
X104544114Y35946542D01*
X104544111Y35946546D01*
X104446545Y36044112D01*
X104446541Y36044115D01*
X104331817Y36120772D01*
X104331804Y36120779D01*
X104204332Y36173579D01*
X104204322Y36173582D01*
X104068995Y36200500D01*
X104068993Y36200500D01*
X103931007Y36200500D01*
X103931005Y36200500D01*
X103795677Y36173582D01*
X103795667Y36173579D01*
X103668195Y36120779D01*
X103668182Y36120772D01*
X103553458Y36044115D01*
X103553454Y36044112D01*
X103455888Y35946546D01*
X103455885Y35946542D01*
X103379228Y35831818D01*
X103379221Y35831805D01*
X103326421Y35704333D01*
X103326418Y35704323D01*
X103299500Y35568996D01*
X103299500Y35568993D01*
X103299500Y35431007D01*
X103299500Y35431005D01*
X103299499Y35431005D01*
X100700500Y35431005D01*
X100700500Y35431007D01*
X100700500Y35568993D01*
X100700500Y35568996D01*
X100673581Y35704323D01*
X100673580Y35704324D01*
X100673580Y35704328D01*
X100673578Y35704333D01*
X100620778Y35831805D01*
X100620771Y35831818D01*
X100544114Y35946542D01*
X100544111Y35946546D01*
X100446545Y36044112D01*
X100446541Y36044115D01*
X100331817Y36120772D01*
X100331804Y36120779D01*
X100204332Y36173579D01*
X100204322Y36173582D01*
X100068995Y36200500D01*
X100068993Y36200500D01*
X99931007Y36200500D01*
X99931005Y36200500D01*
X99795677Y36173582D01*
X99795667Y36173579D01*
X99668195Y36120779D01*
X99668182Y36120772D01*
X99553458Y36044115D01*
X99553454Y36044112D01*
X99455888Y35946546D01*
X99455885Y35946542D01*
X99379228Y35831818D01*
X99379221Y35831805D01*
X99326421Y35704333D01*
X99326418Y35704323D01*
X99299500Y35568996D01*
X99299500Y35568993D01*
X99299500Y35431007D01*
X99299500Y35431005D01*
X99299499Y35431005D01*
X96700500Y35431005D01*
X96700500Y35431007D01*
X96700500Y35568993D01*
X96700500Y35568996D01*
X96673581Y35704323D01*
X96673580Y35704324D01*
X96673580Y35704328D01*
X96673578Y35704333D01*
X96620778Y35831805D01*
X96620771Y35831818D01*
X96544114Y35946542D01*
X96544111Y35946546D01*
X96446545Y36044112D01*
X96446541Y36044115D01*
X96331817Y36120772D01*
X96331804Y36120779D01*
X96204332Y36173579D01*
X96204322Y36173582D01*
X96068995Y36200500D01*
X96068993Y36200500D01*
X95931007Y36200500D01*
X95931005Y36200500D01*
X95795677Y36173582D01*
X95795667Y36173579D01*
X95668195Y36120779D01*
X95668182Y36120772D01*
X95553458Y36044115D01*
X95553454Y36044112D01*
X95455888Y35946546D01*
X95455885Y35946542D01*
X95379228Y35831818D01*
X95379221Y35831805D01*
X95326421Y35704333D01*
X95326418Y35704323D01*
X95299500Y35568996D01*
X95299500Y35568993D01*
X95299500Y35431007D01*
X95299500Y35431005D01*
X95299499Y35431005D01*
X92700500Y35431005D01*
X92700500Y35431007D01*
X92700500Y35568993D01*
X92700500Y35568996D01*
X92673581Y35704323D01*
X92673580Y35704324D01*
X92673580Y35704328D01*
X92673578Y35704333D01*
X92620778Y35831805D01*
X92620771Y35831818D01*
X92544114Y35946542D01*
X92544111Y35946546D01*
X92446545Y36044112D01*
X92446541Y36044115D01*
X92331817Y36120772D01*
X92331804Y36120779D01*
X92204332Y36173579D01*
X92204322Y36173582D01*
X92068995Y36200500D01*
X92068993Y36200500D01*
X91931007Y36200500D01*
X91931005Y36200500D01*
X91795677Y36173582D01*
X91795667Y36173579D01*
X91668195Y36120779D01*
X91668182Y36120772D01*
X91553458Y36044115D01*
X91553454Y36044112D01*
X91455888Y35946546D01*
X91455885Y35946542D01*
X91379228Y35831818D01*
X91379221Y35831805D01*
X91326421Y35704333D01*
X91326418Y35704323D01*
X91299500Y35568996D01*
X91299500Y35568993D01*
X91299500Y35431007D01*
X91299500Y35431005D01*
X91299499Y35431005D01*
X88700500Y35431005D01*
X88700500Y35431007D01*
X88700500Y35568993D01*
X88700500Y35568996D01*
X88673581Y35704323D01*
X88673580Y35704324D01*
X88673580Y35704328D01*
X88673578Y35704333D01*
X88620778Y35831805D01*
X88620771Y35831818D01*
X88544114Y35946542D01*
X88544111Y35946546D01*
X88446545Y36044112D01*
X88446541Y36044115D01*
X88331817Y36120772D01*
X88331804Y36120779D01*
X88204332Y36173579D01*
X88204322Y36173582D01*
X88068995Y36200500D01*
X88068993Y36200500D01*
X87931007Y36200500D01*
X87931005Y36200500D01*
X87795677Y36173582D01*
X87795667Y36173579D01*
X87668195Y36120779D01*
X87668182Y36120772D01*
X87553458Y36044115D01*
X87553454Y36044112D01*
X87455888Y35946546D01*
X87455885Y35946542D01*
X87379228Y35831818D01*
X87379221Y35831805D01*
X87326421Y35704333D01*
X87326418Y35704323D01*
X87299500Y35568996D01*
X87299500Y35568993D01*
X87299500Y35431007D01*
X87299500Y35431005D01*
X87299499Y35431005D01*
X84700500Y35431005D01*
X84700500Y35431007D01*
X84700500Y35568993D01*
X84700500Y35568996D01*
X84673581Y35704323D01*
X84673580Y35704324D01*
X84673580Y35704328D01*
X84673578Y35704333D01*
X84620778Y35831805D01*
X84620771Y35831818D01*
X84544114Y35946542D01*
X84544111Y35946546D01*
X84446545Y36044112D01*
X84446541Y36044115D01*
X84331817Y36120772D01*
X84331804Y36120779D01*
X84204332Y36173579D01*
X84204322Y36173582D01*
X84068995Y36200500D01*
X84068993Y36200500D01*
X83931007Y36200500D01*
X83931005Y36200500D01*
X83795677Y36173582D01*
X83795667Y36173579D01*
X83668195Y36120779D01*
X83668182Y36120772D01*
X83553458Y36044115D01*
X83553454Y36044112D01*
X83455888Y35946546D01*
X83455885Y35946542D01*
X83379228Y35831818D01*
X83379221Y35831805D01*
X83326421Y35704333D01*
X83326418Y35704323D01*
X83299500Y35568996D01*
X83299500Y35568993D01*
X83299500Y35431007D01*
X83299500Y35431005D01*
X83299499Y35431005D01*
X80700500Y35431005D01*
X80700500Y35431007D01*
X80700500Y35568993D01*
X80700500Y35568996D01*
X80673581Y35704323D01*
X80673580Y35704324D01*
X80673580Y35704328D01*
X80673578Y35704333D01*
X80620778Y35831805D01*
X80620771Y35831818D01*
X80544114Y35946542D01*
X80544111Y35946546D01*
X80446545Y36044112D01*
X80446541Y36044115D01*
X80331817Y36120772D01*
X80331804Y36120779D01*
X80204332Y36173579D01*
X80204322Y36173582D01*
X80068995Y36200500D01*
X80068993Y36200500D01*
X79931007Y36200500D01*
X79931005Y36200500D01*
X79795677Y36173582D01*
X79795667Y36173579D01*
X79668195Y36120779D01*
X79668182Y36120772D01*
X79553458Y36044115D01*
X79553454Y36044112D01*
X79455888Y35946546D01*
X79455885Y35946542D01*
X79379228Y35831818D01*
X79379221Y35831805D01*
X79326421Y35704333D01*
X79326418Y35704323D01*
X79299500Y35568996D01*
X79299500Y35568993D01*
X79299500Y35431007D01*
X79299500Y35431005D01*
X79299499Y35431005D01*
X76700500Y35431005D01*
X76700500Y35431007D01*
X76700500Y35568993D01*
X76700500Y35568996D01*
X76673581Y35704323D01*
X76673580Y35704324D01*
X76673580Y35704328D01*
X76673578Y35704333D01*
X76620778Y35831805D01*
X76620771Y35831818D01*
X76544114Y35946542D01*
X76544111Y35946546D01*
X76446545Y36044112D01*
X76446541Y36044115D01*
X76331817Y36120772D01*
X76331804Y36120779D01*
X76204332Y36173579D01*
X76204322Y36173582D01*
X76068995Y36200500D01*
X76068993Y36200500D01*
X75931007Y36200500D01*
X75931005Y36200500D01*
X75795677Y36173582D01*
X75795667Y36173579D01*
X75668195Y36120779D01*
X75668182Y36120772D01*
X75553458Y36044115D01*
X75553454Y36044112D01*
X75455888Y35946546D01*
X75455885Y35946542D01*
X75379228Y35831818D01*
X75379221Y35831805D01*
X75326421Y35704333D01*
X75326418Y35704323D01*
X75299500Y35568996D01*
X75299500Y35568993D01*
X75299500Y35431007D01*
X75299500Y35431005D01*
X75299499Y35431005D01*
X72700500Y35431005D01*
X72700500Y35431007D01*
X72700500Y35568993D01*
X72700500Y35568996D01*
X72673581Y35704323D01*
X72673580Y35704324D01*
X72673580Y35704328D01*
X72673578Y35704333D01*
X72620778Y35831805D01*
X72620771Y35831818D01*
X72544114Y35946542D01*
X72544111Y35946546D01*
X72446545Y36044112D01*
X72446541Y36044115D01*
X72331817Y36120772D01*
X72331804Y36120779D01*
X72204332Y36173579D01*
X72204322Y36173582D01*
X72068995Y36200500D01*
X72068993Y36200500D01*
X71931007Y36200500D01*
X71931005Y36200500D01*
X71795677Y36173582D01*
X71795667Y36173579D01*
X71668195Y36120779D01*
X71668182Y36120772D01*
X71553458Y36044115D01*
X71553454Y36044112D01*
X71455888Y35946546D01*
X71455885Y35946542D01*
X71379228Y35831818D01*
X71379221Y35831805D01*
X71326421Y35704333D01*
X71326418Y35704323D01*
X71299500Y35568996D01*
X71299500Y35568993D01*
X71299500Y35431007D01*
X71299500Y35431005D01*
X71299499Y35431005D01*
X68700500Y35431005D01*
X68700500Y35431007D01*
X68700500Y35568993D01*
X68700500Y35568996D01*
X68673581Y35704323D01*
X68673580Y35704324D01*
X68673580Y35704328D01*
X68673578Y35704333D01*
X68620778Y35831805D01*
X68620771Y35831818D01*
X68544114Y35946542D01*
X68544111Y35946546D01*
X68446545Y36044112D01*
X68446541Y36044115D01*
X68331817Y36120772D01*
X68331804Y36120779D01*
X68204332Y36173579D01*
X68204322Y36173582D01*
X68068995Y36200500D01*
X68068993Y36200500D01*
X67931007Y36200500D01*
X67931005Y36200500D01*
X67795677Y36173582D01*
X67795667Y36173579D01*
X67668195Y36120779D01*
X67668182Y36120772D01*
X67553458Y36044115D01*
X67553454Y36044112D01*
X67455888Y35946546D01*
X67455885Y35946542D01*
X67379228Y35831818D01*
X67379221Y35831805D01*
X67326421Y35704333D01*
X67326418Y35704323D01*
X67299500Y35568996D01*
X67299500Y35568993D01*
X67299500Y35431007D01*
X67299500Y35431005D01*
X67299499Y35431005D01*
X64700500Y35431005D01*
X64700500Y35431007D01*
X64700500Y35568993D01*
X64700500Y35568996D01*
X64673581Y35704323D01*
X64673580Y35704324D01*
X64673580Y35704328D01*
X64673578Y35704333D01*
X64620778Y35831805D01*
X64620771Y35831818D01*
X64544114Y35946542D01*
X64544111Y35946546D01*
X64446545Y36044112D01*
X64446541Y36044115D01*
X64331817Y36120772D01*
X64331804Y36120779D01*
X64204332Y36173579D01*
X64204322Y36173582D01*
X64068995Y36200500D01*
X64068993Y36200500D01*
X63931007Y36200500D01*
X63931005Y36200500D01*
X63795677Y36173582D01*
X63795667Y36173579D01*
X63668195Y36120779D01*
X63668182Y36120772D01*
X63553458Y36044115D01*
X63553454Y36044112D01*
X63455888Y35946546D01*
X63455885Y35946542D01*
X63379228Y35831818D01*
X63379221Y35831805D01*
X63326421Y35704333D01*
X63326418Y35704323D01*
X63299500Y35568996D01*
X63299500Y35568993D01*
X63299500Y35431007D01*
X63299500Y35431005D01*
X63299499Y35431005D01*
X1000000Y35431005D01*
X1000000Y37379058D01*
X25799500Y37379058D01*
X25799500Y37220944D01*
X25823525Y37131284D01*
X25840423Y37068218D01*
X25840426Y37068211D01*
X25919475Y36931292D01*
X25919479Y36931287D01*
X25919480Y36931285D01*
X26031284Y36819481D01*
X26031286Y36819480D01*
X26031290Y36819477D01*
X26168209Y36740428D01*
X26168216Y36740424D01*
X26320943Y36699501D01*
X26320945Y36699501D01*
X26479055Y36699501D01*
X26479057Y36699501D01*
X26631784Y36740424D01*
X26768716Y36819481D01*
X26880520Y36931285D01*
X26959577Y37068217D01*
X27000500Y37220944D01*
X27000500Y37379058D01*
X26959577Y37531785D01*
X26932285Y37579057D01*
X46399500Y37579057D01*
X46399500Y37420944D01*
X46440423Y37268217D01*
X46440426Y37268210D01*
X46519475Y37131291D01*
X46519479Y37131286D01*
X46519480Y37131284D01*
X46631284Y37019480D01*
X46631286Y37019479D01*
X46631290Y37019476D01*
X46768209Y36940427D01*
X46768216Y36940423D01*
X46920943Y36899500D01*
X46920945Y36899500D01*
X47079055Y36899500D01*
X47079057Y36899500D01*
X47231784Y36940423D01*
X47368716Y37019480D01*
X47480520Y37131284D01*
X47559577Y37268216D01*
X47600500Y37420943D01*
X47600500Y37579057D01*
X47559577Y37731784D01*
X47485796Y37859578D01*
X47480524Y37868710D01*
X47480518Y37868718D01*
X47368717Y37980519D01*
X47368709Y37980525D01*
X47231790Y38059574D01*
X47231786Y38059576D01*
X47231784Y38059577D01*
X47079057Y38100500D01*
X46920943Y38100500D01*
X46768216Y38059577D01*
X46768209Y38059574D01*
X46631290Y37980525D01*
X46631282Y37980519D01*
X46519481Y37868718D01*
X46519475Y37868710D01*
X46440426Y37731791D01*
X46440423Y37731784D01*
X46399500Y37579057D01*
X26932285Y37579057D01*
X26880520Y37668717D01*
X26768716Y37780521D01*
X26768714Y37780522D01*
X26768709Y37780526D01*
X26631790Y37859575D01*
X26631786Y37859577D01*
X26631784Y37859578D01*
X26479057Y37900501D01*
X26320943Y37900501D01*
X26168216Y37859578D01*
X26168209Y37859575D01*
X26031290Y37780526D01*
X26031282Y37780520D01*
X25919481Y37668719D01*
X25919475Y37668711D01*
X25840426Y37531792D01*
X25840423Y37531785D01*
X25799500Y37379058D01*
X1000000Y37379058D01*
X1000000Y38879058D01*
X20099500Y38879058D01*
X20099500Y38720944D01*
X20123525Y38631284D01*
X20140423Y38568218D01*
X20140426Y38568211D01*
X20219475Y38431292D01*
X20219479Y38431287D01*
X20219480Y38431285D01*
X20331284Y38319481D01*
X20331286Y38319480D01*
X20331290Y38319477D01*
X20468209Y38240428D01*
X20468216Y38240424D01*
X20620943Y38199501D01*
X20620945Y38199501D01*
X20779055Y38199501D01*
X20779057Y38199501D01*
X20931784Y38240424D01*
X21068716Y38319481D01*
X21180520Y38431285D01*
X21259577Y38568217D01*
X21300500Y38720944D01*
X21300500Y38879058D01*
X21259577Y39031785D01*
X21232285Y39079057D01*
X44399500Y39079057D01*
X44399500Y38920944D01*
X44440423Y38768217D01*
X44440426Y38768210D01*
X44519475Y38631291D01*
X44519479Y38631286D01*
X44519480Y38631284D01*
X44631284Y38519480D01*
X44631286Y38519479D01*
X44631290Y38519476D01*
X44768209Y38440427D01*
X44768216Y38440423D01*
X44920943Y38399500D01*
X44920945Y38399500D01*
X45079055Y38399500D01*
X45079057Y38399500D01*
X45231784Y38440423D01*
X45368716Y38519480D01*
X45480520Y38631284D01*
X45559577Y38768216D01*
X45600500Y38920943D01*
X45600500Y39079057D01*
X45559577Y39231784D01*
X45485796Y39359578D01*
X45480524Y39368710D01*
X45480518Y39368718D01*
X45368717Y39480519D01*
X45368709Y39480525D01*
X45231790Y39559574D01*
X45231786Y39559576D01*
X45231784Y39559577D01*
X45079057Y39600500D01*
X44920943Y39600500D01*
X44768216Y39559577D01*
X44768209Y39559574D01*
X44631290Y39480525D01*
X44631282Y39480519D01*
X44519481Y39368718D01*
X44519475Y39368710D01*
X44440426Y39231791D01*
X44440423Y39231784D01*
X44399500Y39079057D01*
X21232285Y39079057D01*
X21180520Y39168717D01*
X21068716Y39280521D01*
X21068714Y39280522D01*
X21068709Y39280526D01*
X20931790Y39359575D01*
X20931786Y39359577D01*
X20931784Y39359578D01*
X20779057Y39400501D01*
X20620943Y39400501D01*
X20468216Y39359578D01*
X20468209Y39359575D01*
X20331290Y39280526D01*
X20331282Y39280520D01*
X20219481Y39168719D01*
X20219475Y39168711D01*
X20140426Y39031792D01*
X20140423Y39031785D01*
X20099500Y38879058D01*
X1000000Y38879058D01*
X1000000Y40079057D01*
X49499500Y40079057D01*
X49499500Y39920944D01*
X49540423Y39768217D01*
X49540426Y39768210D01*
X49619475Y39631291D01*
X49619479Y39631286D01*
X49619480Y39631284D01*
X49731284Y39519480D01*
X49731286Y39519479D01*
X49731290Y39519476D01*
X49798765Y39480520D01*
X49868216Y39440423D01*
X50020943Y39399500D01*
X50020945Y39399500D01*
X50179055Y39399500D01*
X50179057Y39399500D01*
X50331784Y39440423D01*
X50468716Y39519480D01*
X50580520Y39631284D01*
X50659577Y39768216D01*
X50700500Y39920943D01*
X50700500Y40079057D01*
X50659577Y40231784D01*
X50659573Y40231791D01*
X50580524Y40368710D01*
X50580518Y40368718D01*
X50468717Y40480519D01*
X50468709Y40480525D01*
X50331790Y40559574D01*
X50331786Y40559576D01*
X50331784Y40559577D01*
X50179057Y40600500D01*
X50020943Y40600500D01*
X49868216Y40559577D01*
X49868209Y40559574D01*
X49731290Y40480525D01*
X49731282Y40480519D01*
X49619481Y40368718D01*
X49619475Y40368710D01*
X49540426Y40231791D01*
X49540423Y40231784D01*
X49499500Y40079057D01*
X1000000Y40079057D01*
X1000000Y43650003D01*
X2229999Y43650003D01*
X2229999Y43649998D01*
X2435523Y42616760D01*
X2435524Y42616757D01*
X2435525Y42616755D01*
X3020811Y41740812D01*
X3896754Y41155526D01*
X3896757Y41155526D01*
X3896758Y41155525D01*
X4929998Y40950000D01*
X4930000Y40950000D01*
X4930002Y40950000D01*
X5963240Y41155525D01*
X5963240Y41155526D01*
X5963245Y41155526D01*
X6839188Y41740812D01*
X7132014Y42179057D01*
X24599500Y42179057D01*
X24599500Y42020943D01*
X24637519Y41879056D01*
X24640423Y41868217D01*
X24640426Y41868210D01*
X24719475Y41731291D01*
X24719479Y41731286D01*
X24719480Y41731284D01*
X24831284Y41619480D01*
X24831286Y41619479D01*
X24831290Y41619476D01*
X24920073Y41568218D01*
X24968216Y41540423D01*
X25120943Y41499500D01*
X25120945Y41499500D01*
X25279055Y41499500D01*
X25279057Y41499500D01*
X25431784Y41540423D01*
X25568716Y41619480D01*
X25680520Y41731284D01*
X25759577Y41868216D01*
X25762482Y41879058D01*
X32399500Y41879058D01*
X32399500Y41720944D01*
X32404518Y41702219D01*
X32440423Y41568218D01*
X32440426Y41568211D01*
X32519475Y41431292D01*
X32519479Y41431287D01*
X32519480Y41431285D01*
X32631284Y41319481D01*
X32631286Y41319480D01*
X32631290Y41319477D01*
X32768209Y41240428D01*
X32768216Y41240424D01*
X32920943Y41199501D01*
X32920945Y41199501D01*
X33079055Y41199501D01*
X33079057Y41199501D01*
X33231784Y41240424D01*
X33368716Y41319481D01*
X33480520Y41431285D01*
X33559577Y41568217D01*
X33600500Y41720944D01*
X33600500Y41879058D01*
X38999500Y41879058D01*
X38999500Y41720944D01*
X39004518Y41702219D01*
X39040423Y41568218D01*
X39040426Y41568211D01*
X39119475Y41431292D01*
X39119479Y41431287D01*
X39119480Y41431285D01*
X39231284Y41319481D01*
X39231286Y41319480D01*
X39231290Y41319477D01*
X39368209Y41240428D01*
X39368216Y41240424D01*
X39520943Y41199501D01*
X39520945Y41199501D01*
X39679055Y41199501D01*
X39679057Y41199501D01*
X39831784Y41240424D01*
X39968716Y41319481D01*
X40080520Y41431285D01*
X40159577Y41568217D01*
X40200500Y41720944D01*
X40200500Y41879058D01*
X40159577Y42031785D01*
X40097937Y42138550D01*
X40080524Y42168711D01*
X40080518Y42168719D01*
X39968717Y42280520D01*
X39968709Y42280526D01*
X39831790Y42359575D01*
X39831786Y42359577D01*
X39831784Y42359578D01*
X39824794Y42361451D01*
X120699500Y42361451D01*
X120699500Y42138550D01*
X120699501Y42138534D01*
X120728594Y41917548D01*
X120728595Y41917543D01*
X120728596Y41917537D01*
X120781273Y41720944D01*
X120786290Y41702220D01*
X120786293Y41702210D01*
X120871593Y41496278D01*
X120871595Y41496274D01*
X120983052Y41303226D01*
X120983057Y41303220D01*
X120983058Y41303218D01*
X121118751Y41126378D01*
X121118757Y41126371D01*
X121276370Y40968758D01*
X121276377Y40968752D01*
X121402294Y40872133D01*
X121453226Y40833052D01*
X121646274Y40721595D01*
X121852219Y40636290D01*
X122067537Y40578596D01*
X122288543Y40549500D01*
X122288550Y40549500D01*
X122511450Y40549500D01*
X122511457Y40549500D01*
X122732463Y40578596D01*
X122947781Y40636290D01*
X123153726Y40721595D01*
X123346774Y40833052D01*
X123523624Y40968753D01*
X123681247Y41126376D01*
X123816948Y41303226D01*
X123928405Y41496274D01*
X124013710Y41702219D01*
X124071404Y41917537D01*
X124100500Y42138543D01*
X124100500Y42361457D01*
X124071404Y42582463D01*
X124013710Y42797781D01*
X123928405Y43003726D01*
X123816948Y43196774D01*
X123681247Y43373624D01*
X123681242Y43373630D01*
X123523629Y43531243D01*
X123523622Y43531249D01*
X123346782Y43666942D01*
X123346780Y43666943D01*
X123346774Y43666948D01*
X123153726Y43778405D01*
X123153722Y43778407D01*
X122947790Y43863707D01*
X122947783Y43863709D01*
X122947781Y43863710D01*
X122732463Y43921404D01*
X122732457Y43921405D01*
X122732452Y43921406D01*
X122511466Y43950499D01*
X122511463Y43950500D01*
X122511457Y43950500D01*
X122288543Y43950500D01*
X122288537Y43950500D01*
X122288533Y43950499D01*
X122067547Y43921406D01*
X122067540Y43921405D01*
X122067537Y43921404D01*
X121989526Y43900501D01*
X121852219Y43863710D01*
X121852209Y43863707D01*
X121646277Y43778407D01*
X121646273Y43778405D01*
X121453226Y43666948D01*
X121453217Y43666942D01*
X121276377Y43531249D01*
X121276370Y43531243D01*
X121118757Y43373630D01*
X121118751Y43373623D01*
X120983058Y43196783D01*
X120983052Y43196774D01*
X120871595Y43003727D01*
X120871593Y43003723D01*
X120786293Y42797791D01*
X120786290Y42797781D01*
X120737785Y42616755D01*
X120728597Y42582466D01*
X120728594Y42582453D01*
X120699501Y42361467D01*
X120699500Y42361451D01*
X39824794Y42361451D01*
X39679057Y42400501D01*
X39520943Y42400501D01*
X39368216Y42359578D01*
X39368209Y42359575D01*
X39231290Y42280526D01*
X39231282Y42280520D01*
X39119481Y42168719D01*
X39119475Y42168711D01*
X39040426Y42031792D01*
X39040423Y42031785D01*
X38999500Y41879058D01*
X33600500Y41879058D01*
X33559577Y42031785D01*
X33497937Y42138550D01*
X33480524Y42168711D01*
X33480518Y42168719D01*
X33368717Y42280520D01*
X33368709Y42280526D01*
X33231790Y42359575D01*
X33231786Y42359577D01*
X33231784Y42359578D01*
X33079057Y42400501D01*
X32920943Y42400501D01*
X32768216Y42359578D01*
X32768209Y42359575D01*
X32631290Y42280526D01*
X32631282Y42280520D01*
X32519481Y42168719D01*
X32519475Y42168711D01*
X32440426Y42031792D01*
X32440423Y42031785D01*
X32399500Y41879058D01*
X25762482Y41879058D01*
X25800500Y42020943D01*
X25800500Y42179057D01*
X25759577Y42331784D01*
X25742449Y42361451D01*
X25680524Y42468710D01*
X25680518Y42468718D01*
X25568717Y42580519D01*
X25568709Y42580525D01*
X25431790Y42659574D01*
X25431786Y42659576D01*
X25431784Y42659577D01*
X25279057Y42700500D01*
X25120943Y42700500D01*
X24968216Y42659577D01*
X24968209Y42659574D01*
X24831290Y42580525D01*
X24831282Y42580519D01*
X24719481Y42468718D01*
X24719475Y42468710D01*
X24640426Y42331791D01*
X24640423Y42331784D01*
X24599500Y42179057D01*
X7132014Y42179057D01*
X7424474Y42616755D01*
X7440933Y42699501D01*
X7576106Y43379058D01*
X15599500Y43379058D01*
X15599500Y43220944D01*
X15605977Y43196774D01*
X15640423Y43068218D01*
X15640426Y43068211D01*
X15719475Y42931292D01*
X15719479Y42931287D01*
X15719480Y42931285D01*
X15831284Y42819481D01*
X15831286Y42819480D01*
X15831290Y42819477D01*
X15968209Y42740428D01*
X15968216Y42740424D01*
X16120943Y42699501D01*
X16120945Y42699501D01*
X16279055Y42699501D01*
X16279057Y42699501D01*
X16431784Y42740424D01*
X16568716Y42819481D01*
X16680520Y42931285D01*
X16759577Y43068217D01*
X16800500Y43220944D01*
X16800500Y43379058D01*
X16759577Y43531785D01*
X16759573Y43531792D01*
X16680524Y43668711D01*
X16680518Y43668719D01*
X16568717Y43780520D01*
X16568709Y43780526D01*
X16431790Y43859575D01*
X16431786Y43859577D01*
X16431784Y43859578D01*
X16279057Y43900501D01*
X16120943Y43900501D01*
X15968216Y43859578D01*
X15968209Y43859575D01*
X15831290Y43780526D01*
X15831282Y43780520D01*
X15719481Y43668719D01*
X15719475Y43668711D01*
X15640426Y43531792D01*
X15640423Y43531785D01*
X15599500Y43379058D01*
X7576106Y43379058D01*
X7582535Y43411376D01*
X7630000Y43649998D01*
X7630000Y43650003D01*
X7424475Y44683242D01*
X7424474Y44683243D01*
X7424474Y44683246D01*
X7020862Y45287294D01*
X6999985Y45353970D01*
X7018470Y45421350D01*
X7070448Y45468040D01*
X7139418Y45479216D01*
X7171419Y45470743D01*
X7178164Y45467949D01*
X7178168Y45467949D01*
X7178169Y45467948D01*
X7371455Y45429500D01*
X7371458Y45429500D01*
X7568542Y45429500D01*
X7698581Y45455368D01*
X7761834Y45467949D01*
X7943913Y45543368D01*
X8072156Y45629057D01*
X42399500Y45629057D01*
X42399500Y45470943D01*
X42412789Y45421350D01*
X42440423Y45318217D01*
X42440426Y45318210D01*
X42519475Y45181291D01*
X42519479Y45181286D01*
X42519480Y45181284D01*
X42631284Y45069480D01*
X42631286Y45069479D01*
X42631290Y45069476D01*
X42768209Y44990427D01*
X42768216Y44990423D01*
X42920943Y44949500D01*
X42920945Y44949500D01*
X43079055Y44949500D01*
X43079057Y44949500D01*
X43231784Y44990423D01*
X43368716Y45069480D01*
X43480520Y45181284D01*
X43559577Y45318216D01*
X43600500Y45470943D01*
X43600500Y45629057D01*
X43559577Y45781784D01*
X43516613Y45856201D01*
X43480524Y45918710D01*
X43480518Y45918718D01*
X43368717Y46030519D01*
X43368709Y46030525D01*
X43231790Y46109574D01*
X43231786Y46109576D01*
X43231784Y46109577D01*
X43079057Y46150500D01*
X42920943Y46150500D01*
X42768216Y46109577D01*
X42768209Y46109574D01*
X42631290Y46030525D01*
X42631282Y46030519D01*
X42519481Y45918718D01*
X42519475Y45918710D01*
X42440426Y45781791D01*
X42440423Y45781784D01*
X42399500Y45629057D01*
X8072156Y45629057D01*
X8107781Y45652861D01*
X8107784Y45652864D01*
X8179786Y45724865D01*
X8247135Y45792215D01*
X8247138Y45792218D01*
X8356631Y45956086D01*
X8432050Y46138165D01*
X8458359Y46270427D01*
X8470499Y46331457D01*
X8470499Y46534633D01*
X8473127Y46534633D01*
X8483982Y46592058D01*
X8532016Y46642797D01*
X8599857Y46659512D01*
X8663291Y46638734D01*
X8776078Y46563372D01*
X8776091Y46563365D01*
X8860165Y46528541D01*
X8958164Y46487949D01*
X8958168Y46487949D01*
X8958169Y46487948D01*
X9151455Y46449500D01*
X9151458Y46449500D01*
X9348542Y46449500D01*
X9478581Y46475368D01*
X9541834Y46487949D01*
X9723913Y46563368D01*
X9887781Y46672861D01*
X10027138Y46812218D01*
X10091844Y46909057D01*
X28399500Y46909057D01*
X28399500Y46750943D01*
X28429567Y46638734D01*
X28440423Y46598217D01*
X28440426Y46598210D01*
X28519475Y46461291D01*
X28519479Y46461286D01*
X28519480Y46461284D01*
X28631284Y46349480D01*
X28631286Y46349479D01*
X28631290Y46349476D01*
X28747843Y46282185D01*
X28768216Y46270423D01*
X28920943Y46229500D01*
X28920945Y46229500D01*
X29079055Y46229500D01*
X29079057Y46229500D01*
X29231784Y46270423D01*
X29368716Y46349480D01*
X29480520Y46461284D01*
X29559577Y46598216D01*
X29600500Y46750943D01*
X29600500Y46909057D01*
X29586383Y46961741D01*
X96650620Y46961741D01*
X96650620Y46803627D01*
X96689236Y46659512D01*
X96691543Y46650901D01*
X96691546Y46650894D01*
X96770595Y46513975D01*
X96770599Y46513970D01*
X96770600Y46513968D01*
X96882404Y46402164D01*
X96882406Y46402163D01*
X96882410Y46402160D01*
X96973656Y46349480D01*
X97019336Y46323107D01*
X97172063Y46282184D01*
X97172065Y46282184D01*
X97330175Y46282184D01*
X97330177Y46282184D01*
X97482904Y46323107D01*
X97619836Y46402164D01*
X97731640Y46513968D01*
X97810697Y46650900D01*
X97851620Y46803627D01*
X97851620Y46961741D01*
X97810697Y47114468D01*
X97785465Y47158171D01*
X97731644Y47251394D01*
X97731638Y47251402D01*
X97619837Y47363203D01*
X97619829Y47363209D01*
X97482910Y47442258D01*
X97482906Y47442260D01*
X97482904Y47442261D01*
X97330177Y47483184D01*
X97172063Y47483184D01*
X97019336Y47442261D01*
X97019329Y47442258D01*
X96882410Y47363209D01*
X96882402Y47363203D01*
X96770601Y47251402D01*
X96770595Y47251394D01*
X96691546Y47114475D01*
X96691543Y47114468D01*
X96650620Y46961741D01*
X29586383Y46961741D01*
X29559577Y47061784D01*
X29529156Y47114475D01*
X29480524Y47198710D01*
X29480518Y47198718D01*
X29368717Y47310519D01*
X29368709Y47310525D01*
X29231790Y47389574D01*
X29231786Y47389576D01*
X29231784Y47389577D01*
X29079057Y47430500D01*
X28920943Y47430500D01*
X28768216Y47389577D01*
X28768209Y47389574D01*
X28631290Y47310525D01*
X28631282Y47310519D01*
X28519481Y47198718D01*
X28519475Y47198710D01*
X28440426Y47061791D01*
X28440424Y47061786D01*
X28440423Y47061784D01*
X28399500Y46909057D01*
X10091844Y46909057D01*
X10136631Y46976086D01*
X10212050Y47158165D01*
X10230596Y47251402D01*
X10250499Y47351457D01*
X10250499Y47548544D01*
X10212051Y47741830D01*
X10212050Y47741831D01*
X10212050Y47741835D01*
X10174614Y47832215D01*
X10136634Y47923908D01*
X10136627Y47923921D01*
X10027138Y48087782D01*
X10027135Y48087786D01*
X9935864Y48179057D01*
X30899500Y48179057D01*
X30899500Y48020943D01*
X30925501Y47923908D01*
X30940423Y47868217D01*
X30940426Y47868210D01*
X31019475Y47731291D01*
X31019479Y47731286D01*
X31019480Y47731284D01*
X31131284Y47619480D01*
X31131286Y47619479D01*
X31131290Y47619476D01*
X31226407Y47564561D01*
X31268216Y47540423D01*
X31420943Y47499500D01*
X31420945Y47499500D01*
X31579055Y47499500D01*
X31579057Y47499500D01*
X31731784Y47540423D01*
X31868716Y47619480D01*
X31980520Y47731284D01*
X32059577Y47868216D01*
X32100500Y48020943D01*
X32100500Y48179057D01*
X52499500Y48179057D01*
X52499500Y48020943D01*
X52525501Y47923908D01*
X52540423Y47868217D01*
X52540426Y47868210D01*
X52619475Y47731291D01*
X52619479Y47731286D01*
X52619480Y47731284D01*
X52731284Y47619480D01*
X52731286Y47619479D01*
X52731290Y47619476D01*
X52826407Y47564561D01*
X52868216Y47540423D01*
X53020943Y47499500D01*
X53020945Y47499500D01*
X53179055Y47499500D01*
X53179057Y47499500D01*
X53331784Y47540423D01*
X53468716Y47619480D01*
X53580520Y47731284D01*
X53659577Y47868216D01*
X53700500Y48020943D01*
X53700500Y48179057D01*
X53659577Y48331784D01*
X53656778Y48336632D01*
X53580524Y48468710D01*
X53580518Y48468718D01*
X53468717Y48580519D01*
X53468709Y48580525D01*
X53331790Y48659574D01*
X53331786Y48659576D01*
X53331784Y48659577D01*
X53179057Y48700500D01*
X53020943Y48700500D01*
X52868216Y48659577D01*
X52868209Y48659574D01*
X52731290Y48580525D01*
X52731282Y48580519D01*
X52619481Y48468718D01*
X52619475Y48468710D01*
X52540426Y48331791D01*
X52540423Y48331784D01*
X52499500Y48179057D01*
X32100500Y48179057D01*
X32059577Y48331784D01*
X32056778Y48336632D01*
X31980524Y48468710D01*
X31980518Y48468718D01*
X31868717Y48580519D01*
X31868709Y48580525D01*
X31731790Y48659574D01*
X31731786Y48659576D01*
X31731784Y48659577D01*
X31579057Y48700500D01*
X31420943Y48700500D01*
X31268216Y48659577D01*
X31268209Y48659574D01*
X31131290Y48580525D01*
X31131282Y48580519D01*
X31019481Y48468718D01*
X31019475Y48468710D01*
X30940426Y48331791D01*
X30940423Y48331784D01*
X30899500Y48179057D01*
X9935864Y48179057D01*
X9887784Y48227137D01*
X9887780Y48227140D01*
X9723919Y48336629D01*
X9723915Y48336631D01*
X9723913Y48336632D01*
X9678506Y48355440D01*
X9624105Y48399279D01*
X9602040Y48465573D01*
X9619319Y48533272D01*
X9670455Y48580883D01*
X9678490Y48584554D01*
X9723913Y48603368D01*
X9887781Y48712861D01*
X10027138Y48852218D01*
X10136631Y49016086D01*
X10212050Y49198165D01*
X10243571Y49356629D01*
X10250499Y49391457D01*
X10250499Y49588544D01*
X10212051Y49781830D01*
X10212050Y49781831D01*
X10212050Y49781835D01*
X10191358Y49831791D01*
X10136634Y49963908D01*
X10136627Y49963921D01*
X10027138Y50127782D01*
X10027135Y50127786D01*
X9887784Y50267137D01*
X9887780Y50267140D01*
X9869945Y50279057D01*
X22799500Y50279057D01*
X22799500Y50120943D01*
X22840289Y49968718D01*
X22840423Y49968217D01*
X22840426Y49968210D01*
X22919475Y49831291D01*
X22919479Y49831286D01*
X22919480Y49831284D01*
X23031284Y49719480D01*
X23031286Y49719479D01*
X23031290Y49719476D01*
X23119205Y49668719D01*
X23168216Y49640423D01*
X23320943Y49599500D01*
X23320945Y49599500D01*
X23479055Y49599500D01*
X23479057Y49599500D01*
X23631784Y49640423D01*
X23698701Y49679057D01*
X26399500Y49679057D01*
X26399500Y49520943D01*
X26437519Y49379056D01*
X26440423Y49368217D01*
X26440426Y49368210D01*
X26519475Y49231291D01*
X26519479Y49231286D01*
X26519480Y49231284D01*
X26631284Y49119480D01*
X26631286Y49119479D01*
X26631290Y49119476D01*
X26720073Y49068218D01*
X26768216Y49040423D01*
X26920943Y48999500D01*
X26920945Y48999500D01*
X27079055Y48999500D01*
X27079057Y48999500D01*
X27231784Y49040423D01*
X27368716Y49119480D01*
X27480520Y49231284D01*
X27559577Y49368216D01*
X27562482Y49379058D01*
X43199500Y49379058D01*
X43199500Y49220945D01*
X43240423Y49068218D01*
X43240426Y49068211D01*
X43319475Y48931292D01*
X43319479Y48931287D01*
X43319480Y48931285D01*
X43431284Y48819481D01*
X43431286Y48819480D01*
X43431290Y48819477D01*
X43531139Y48761830D01*
X43568216Y48740424D01*
X43720943Y48699501D01*
X43720945Y48699501D01*
X43879055Y48699501D01*
X43879057Y48699501D01*
X44031784Y48740424D01*
X44168716Y48819481D01*
X44280520Y48931285D01*
X44359577Y49068217D01*
X44400500Y49220944D01*
X44400500Y49379058D01*
X44359577Y49531785D01*
X44326809Y49588541D01*
X44280524Y49668711D01*
X44280518Y49668719D01*
X44168717Y49780520D01*
X44168709Y49780526D01*
X44031790Y49859575D01*
X44031786Y49859577D01*
X44031784Y49859578D01*
X43879057Y49900501D01*
X43720943Y49900501D01*
X43568216Y49859578D01*
X43568209Y49859575D01*
X43431290Y49780526D01*
X43431282Y49780520D01*
X43319481Y49668719D01*
X43319475Y49668711D01*
X43240426Y49531792D01*
X43240423Y49531785D01*
X43199500Y49379058D01*
X27562482Y49379058D01*
X27600500Y49520943D01*
X27600500Y49679057D01*
X27559577Y49831784D01*
X27543530Y49859578D01*
X27480524Y49968710D01*
X27480518Y49968718D01*
X27368717Y50080519D01*
X27368709Y50080525D01*
X27231790Y50159574D01*
X27231786Y50159576D01*
X27231784Y50159577D01*
X27079057Y50200500D01*
X26920943Y50200500D01*
X26768216Y50159577D01*
X26768209Y50159574D01*
X26631290Y50080525D01*
X26631282Y50080519D01*
X26519481Y49968718D01*
X26519475Y49968710D01*
X26440426Y49831791D01*
X26440423Y49831784D01*
X26399500Y49679057D01*
X23698701Y49679057D01*
X23768716Y49719480D01*
X23880520Y49831284D01*
X23959577Y49968216D01*
X24000500Y50120943D01*
X24000500Y50279057D01*
X23959577Y50431784D01*
X23925678Y50490500D01*
X23880524Y50568710D01*
X23880518Y50568718D01*
X23768717Y50680519D01*
X23768709Y50680525D01*
X23719289Y50709057D01*
X29999500Y50709057D01*
X29999500Y50550943D01*
X30031429Y50431784D01*
X30040423Y50398217D01*
X30040426Y50398210D01*
X30119475Y50261291D01*
X30119479Y50261286D01*
X30119480Y50261284D01*
X30231284Y50149480D01*
X30231286Y50149479D01*
X30231290Y50149476D01*
X30368209Y50070427D01*
X30368216Y50070423D01*
X30520943Y50029500D01*
X30520945Y50029500D01*
X30679055Y50029500D01*
X30679057Y50029500D01*
X30831784Y50070423D01*
X30968716Y50149480D01*
X31080520Y50261284D01*
X31090781Y50279057D01*
X57599499Y50279057D01*
X57599499Y50120943D01*
X57640288Y49968718D01*
X57640422Y49968217D01*
X57640425Y49968210D01*
X57719474Y49831291D01*
X57719478Y49831286D01*
X57719479Y49831284D01*
X57831283Y49719480D01*
X57831285Y49719479D01*
X57831289Y49719476D01*
X57919204Y49668719D01*
X57968215Y49640423D01*
X58120942Y49599500D01*
X58120944Y49599500D01*
X58279054Y49599500D01*
X58279056Y49599500D01*
X58431783Y49640423D01*
X58568715Y49719480D01*
X58680519Y49831284D01*
X58759576Y49968216D01*
X58800499Y50120943D01*
X58800499Y50279057D01*
X58759576Y50431784D01*
X58725677Y50490500D01*
X58680523Y50568710D01*
X58680517Y50568718D01*
X58568716Y50680519D01*
X58568708Y50680525D01*
X58431789Y50759574D01*
X58431785Y50759576D01*
X58431783Y50759577D01*
X58279056Y50800500D01*
X58120942Y50800500D01*
X57968215Y50759577D01*
X57968208Y50759574D01*
X57831289Y50680525D01*
X57831281Y50680519D01*
X57719480Y50568718D01*
X57719474Y50568710D01*
X57640425Y50431791D01*
X57640422Y50431784D01*
X57599499Y50279057D01*
X31090781Y50279057D01*
X31121955Y50333052D01*
X31131269Y50349184D01*
X31139034Y50362636D01*
X31159577Y50398216D01*
X31200500Y50550943D01*
X31200500Y50709057D01*
X31159577Y50861784D01*
X31142006Y50892219D01*
X31080524Y50998710D01*
X31080518Y50998718D01*
X30968717Y51110519D01*
X30968709Y51110525D01*
X30831790Y51189574D01*
X30831786Y51189576D01*
X30831784Y51189577D01*
X30679057Y51230500D01*
X30520943Y51230500D01*
X30368216Y51189577D01*
X30368209Y51189574D01*
X30231290Y51110525D01*
X30231282Y51110519D01*
X30119481Y50998718D01*
X30119475Y50998710D01*
X30040426Y50861791D01*
X30040423Y50861784D01*
X29999500Y50709057D01*
X23719289Y50709057D01*
X23631790Y50759574D01*
X23631786Y50759576D01*
X23631784Y50759577D01*
X23479057Y50800500D01*
X23320943Y50800500D01*
X23168216Y50759577D01*
X23168209Y50759574D01*
X23031290Y50680525D01*
X23031282Y50680519D01*
X22919481Y50568718D01*
X22919475Y50568710D01*
X22840426Y50431791D01*
X22840423Y50431784D01*
X22799500Y50279057D01*
X9869945Y50279057D01*
X9723919Y50376629D01*
X9723915Y50376631D01*
X9723913Y50376632D01*
X9678506Y50395440D01*
X9624105Y50439279D01*
X9602040Y50505573D01*
X9619319Y50573272D01*
X9670455Y50620883D01*
X9678490Y50624554D01*
X9723913Y50643368D01*
X9887781Y50752861D01*
X10027138Y50892218D01*
X10136631Y51056086D01*
X10212050Y51238165D01*
X10232391Y51340424D01*
X10250499Y51431457D01*
X10250499Y51628544D01*
X10212051Y51821830D01*
X10212050Y51821831D01*
X10212050Y51821835D01*
X10188280Y51879222D01*
X10163216Y51939732D01*
X10146928Y51979057D01*
X46399500Y51979057D01*
X46399500Y51820944D01*
X46440423Y51668217D01*
X46440426Y51668210D01*
X46519475Y51531291D01*
X46519479Y51531286D01*
X46519480Y51531284D01*
X46631284Y51419480D01*
X46631286Y51419479D01*
X46631290Y51419476D01*
X46670851Y51396636D01*
X46768216Y51340423D01*
X46920943Y51299500D01*
X46920945Y51299500D01*
X47079055Y51299500D01*
X47079057Y51299500D01*
X47231784Y51340423D01*
X47368716Y51419480D01*
X47480520Y51531284D01*
X47559577Y51668216D01*
X47600500Y51820943D01*
X47600500Y51979057D01*
X47559577Y52131784D01*
X47538794Y52167782D01*
X47480524Y52268710D01*
X47480518Y52268718D01*
X47368717Y52380519D01*
X47368709Y52380525D01*
X47281274Y52431005D01*
X105299499Y52431005D01*
X105326418Y52295678D01*
X105326421Y52295668D01*
X105379221Y52168196D01*
X105379228Y52168183D01*
X105455885Y52053459D01*
X105455888Y52053455D01*
X105553454Y51955889D01*
X105553458Y51955886D01*
X105668182Y51879229D01*
X105668195Y51879222D01*
X105711099Y51861451D01*
X105795672Y51826420D01*
X105795676Y51826420D01*
X105795677Y51826419D01*
X105931004Y51799500D01*
X105931007Y51799500D01*
X106068995Y51799500D01*
X106176798Y51820944D01*
X106204328Y51826420D01*
X106331811Y51879225D01*
X106446542Y51955886D01*
X106544114Y52053458D01*
X106620775Y52168189D01*
X106673580Y52295672D01*
X106690457Y52380519D01*
X106700500Y52431005D01*
X109299499Y52431005D01*
X109326418Y52295678D01*
X109326421Y52295668D01*
X109379221Y52168196D01*
X109379228Y52168183D01*
X109455885Y52053459D01*
X109455888Y52053455D01*
X109553454Y51955889D01*
X109553458Y51955886D01*
X109668182Y51879229D01*
X109668195Y51879222D01*
X109711099Y51861451D01*
X109795672Y51826420D01*
X109795676Y51826420D01*
X109795677Y51826419D01*
X109931004Y51799500D01*
X109931007Y51799500D01*
X110068995Y51799500D01*
X110176798Y51820944D01*
X110204328Y51826420D01*
X110331811Y51879225D01*
X110446542Y51955886D01*
X110544114Y52053458D01*
X110620775Y52168189D01*
X110673580Y52295672D01*
X110690457Y52380519D01*
X110700500Y52431005D01*
X113299499Y52431005D01*
X113326418Y52295678D01*
X113326421Y52295668D01*
X113379221Y52168196D01*
X113379228Y52168183D01*
X113455885Y52053459D01*
X113455888Y52053455D01*
X113553454Y51955889D01*
X113553458Y51955886D01*
X113668182Y51879229D01*
X113668195Y51879222D01*
X113711099Y51861451D01*
X113795672Y51826420D01*
X113795676Y51826420D01*
X113795677Y51826419D01*
X113931004Y51799500D01*
X113931007Y51799500D01*
X114068995Y51799500D01*
X114176798Y51820944D01*
X114204328Y51826420D01*
X114331811Y51879225D01*
X114446542Y51955886D01*
X114544114Y52053458D01*
X114620775Y52168189D01*
X114673580Y52295672D01*
X114690457Y52380519D01*
X114700500Y52431005D01*
X117299499Y52431005D01*
X117326418Y52295678D01*
X117326421Y52295668D01*
X117379221Y52168196D01*
X117379228Y52168183D01*
X117455885Y52053459D01*
X117455888Y52053455D01*
X117553454Y51955889D01*
X117553458Y51955886D01*
X117668182Y51879229D01*
X117668195Y51879222D01*
X117711099Y51861451D01*
X117795672Y51826420D01*
X117795676Y51826420D01*
X117795677Y51826419D01*
X117931004Y51799500D01*
X117931007Y51799500D01*
X118068995Y51799500D01*
X118176798Y51820944D01*
X118204328Y51826420D01*
X118288901Y51861451D01*
X120699500Y51861451D01*
X120699500Y51638550D01*
X120699501Y51638534D01*
X120728594Y51417548D01*
X120728595Y51417543D01*
X120728596Y51417537D01*
X120778712Y51230500D01*
X120786290Y51202220D01*
X120786293Y51202210D01*
X120870583Y50998716D01*
X120871595Y50996274D01*
X120983052Y50803226D01*
X120983057Y50803220D01*
X120983058Y50803218D01*
X121118751Y50626378D01*
X121118757Y50626371D01*
X121276370Y50468758D01*
X121276377Y50468752D01*
X121396431Y50376632D01*
X121453226Y50333052D01*
X121646274Y50221595D01*
X121697202Y50200500D01*
X121820370Y50149482D01*
X121852219Y50136290D01*
X122067537Y50078596D01*
X122288543Y50049500D01*
X122288550Y50049500D01*
X122511450Y50049500D01*
X122511457Y50049500D01*
X122732463Y50078596D01*
X122947781Y50136290D01*
X123153726Y50221595D01*
X123346774Y50333052D01*
X123523624Y50468753D01*
X123681247Y50626376D01*
X123816948Y50803226D01*
X123928405Y50996274D01*
X124013710Y51202219D01*
X124071404Y51417537D01*
X124100500Y51638543D01*
X124100500Y51861457D01*
X124071404Y52082463D01*
X124013710Y52297781D01*
X124009833Y52307140D01*
X123928406Y52503723D01*
X123928405Y52503726D01*
X123816948Y52696774D01*
X123705643Y52841830D01*
X123681248Y52873623D01*
X123681242Y52873630D01*
X123523629Y53031243D01*
X123523622Y53031249D01*
X123346782Y53166942D01*
X123346780Y53166943D01*
X123346774Y53166948D01*
X123153726Y53278405D01*
X123153722Y53278407D01*
X122947790Y53363707D01*
X122947783Y53363709D01*
X122947781Y53363710D01*
X122732463Y53421404D01*
X122732457Y53421405D01*
X122732452Y53421406D01*
X122511466Y53450499D01*
X122511463Y53450500D01*
X122511457Y53450500D01*
X122288543Y53450500D01*
X122288537Y53450500D01*
X122288533Y53450499D01*
X122067547Y53421406D01*
X122067540Y53421405D01*
X122067537Y53421404D01*
X122016934Y53407845D01*
X121852219Y53363710D01*
X121852209Y53363707D01*
X121646277Y53278407D01*
X121646273Y53278405D01*
X121453226Y53166948D01*
X121453217Y53166942D01*
X121276377Y53031249D01*
X121276370Y53031243D01*
X121118757Y52873630D01*
X121118751Y52873623D01*
X120983058Y52696783D01*
X120983052Y52696774D01*
X120871595Y52503727D01*
X120871593Y52503723D01*
X120786293Y52297791D01*
X120786290Y52297781D01*
X120741812Y52131784D01*
X120728597Y52082466D01*
X120728594Y52082453D01*
X120699501Y51861467D01*
X120699500Y51861451D01*
X118288901Y51861451D01*
X118331811Y51879225D01*
X118446542Y51955886D01*
X118544114Y52053458D01*
X118620775Y52168189D01*
X118673580Y52295672D01*
X118690457Y52380519D01*
X118700500Y52431005D01*
X118700500Y52568996D01*
X118673581Y52704323D01*
X118673580Y52704324D01*
X118673580Y52704328D01*
X118636909Y52792861D01*
X118620778Y52831805D01*
X118620771Y52831818D01*
X118544114Y52946542D01*
X118544111Y52946546D01*
X118446545Y53044112D01*
X118446541Y53044115D01*
X118331817Y53120772D01*
X118331804Y53120779D01*
X118204332Y53173579D01*
X118204322Y53173582D01*
X118068995Y53200500D01*
X118068993Y53200500D01*
X117931007Y53200500D01*
X117931005Y53200500D01*
X117795677Y53173582D01*
X117795667Y53173579D01*
X117668195Y53120779D01*
X117668182Y53120772D01*
X117553458Y53044115D01*
X117553454Y53044112D01*
X117455888Y52946546D01*
X117455885Y52946542D01*
X117379228Y52831818D01*
X117379221Y52831805D01*
X117326421Y52704333D01*
X117326418Y52704323D01*
X117299500Y52568996D01*
X117299500Y52568993D01*
X117299500Y52431007D01*
X117299500Y52431005D01*
X117299499Y52431005D01*
X114700500Y52431005D01*
X114700500Y52568996D01*
X114673581Y52704323D01*
X114673580Y52704324D01*
X114673580Y52704328D01*
X114636909Y52792861D01*
X114620778Y52831805D01*
X114620771Y52831818D01*
X114544114Y52946542D01*
X114544111Y52946546D01*
X114446545Y53044112D01*
X114446541Y53044115D01*
X114331817Y53120772D01*
X114331804Y53120779D01*
X114204332Y53173579D01*
X114204322Y53173582D01*
X114068995Y53200500D01*
X114068993Y53200500D01*
X113931007Y53200500D01*
X113931005Y53200500D01*
X113795677Y53173582D01*
X113795667Y53173579D01*
X113668195Y53120779D01*
X113668182Y53120772D01*
X113553458Y53044115D01*
X113553454Y53044112D01*
X113455888Y52946546D01*
X113455885Y52946542D01*
X113379228Y52831818D01*
X113379221Y52831805D01*
X113326421Y52704333D01*
X113326418Y52704323D01*
X113299500Y52568996D01*
X113299500Y52568993D01*
X113299500Y52431007D01*
X113299500Y52431005D01*
X113299499Y52431005D01*
X110700500Y52431005D01*
X110700500Y52568996D01*
X110673581Y52704323D01*
X110673580Y52704324D01*
X110673580Y52704328D01*
X110636909Y52792861D01*
X110620778Y52831805D01*
X110620771Y52831818D01*
X110544114Y52946542D01*
X110544111Y52946546D01*
X110446545Y53044112D01*
X110446541Y53044115D01*
X110331817Y53120772D01*
X110331804Y53120779D01*
X110204332Y53173579D01*
X110204322Y53173582D01*
X110068995Y53200500D01*
X110068993Y53200500D01*
X109931007Y53200500D01*
X109931005Y53200500D01*
X109795677Y53173582D01*
X109795667Y53173579D01*
X109668195Y53120779D01*
X109668182Y53120772D01*
X109553458Y53044115D01*
X109553454Y53044112D01*
X109455888Y52946546D01*
X109455885Y52946542D01*
X109379228Y52831818D01*
X109379221Y52831805D01*
X109326421Y52704333D01*
X109326418Y52704323D01*
X109299500Y52568996D01*
X109299500Y52568993D01*
X109299500Y52431007D01*
X109299500Y52431005D01*
X109299499Y52431005D01*
X106700500Y52431005D01*
X106700500Y52568996D01*
X106673581Y52704323D01*
X106673580Y52704324D01*
X106673580Y52704328D01*
X106636909Y52792861D01*
X106620778Y52831805D01*
X106620771Y52831818D01*
X106544114Y52946542D01*
X106544111Y52946546D01*
X106446545Y53044112D01*
X106446541Y53044115D01*
X106331817Y53120772D01*
X106331804Y53120779D01*
X106204332Y53173579D01*
X106204322Y53173582D01*
X106068995Y53200500D01*
X106068993Y53200500D01*
X105931007Y53200500D01*
X105931005Y53200500D01*
X105795677Y53173582D01*
X105795667Y53173579D01*
X105668195Y53120779D01*
X105668182Y53120772D01*
X105553458Y53044115D01*
X105553454Y53044112D01*
X105455888Y52946546D01*
X105455885Y52946542D01*
X105379228Y52831818D01*
X105379221Y52831805D01*
X105326421Y52704333D01*
X105326418Y52704323D01*
X105299500Y52568996D01*
X105299500Y52568993D01*
X105299500Y52431007D01*
X105299500Y52431005D01*
X105299499Y52431005D01*
X47281274Y52431005D01*
X47231790Y52459574D01*
X47231786Y52459576D01*
X47231784Y52459577D01*
X47079057Y52500500D01*
X46920943Y52500500D01*
X46768216Y52459577D01*
X46768209Y52459574D01*
X46631290Y52380525D01*
X46631282Y52380519D01*
X46519481Y52268718D01*
X46519475Y52268710D01*
X46440426Y52131791D01*
X46440423Y52131784D01*
X46399500Y51979057D01*
X10146928Y51979057D01*
X10136634Y52003909D01*
X10136627Y52003921D01*
X10027138Y52167782D01*
X10027135Y52167786D01*
X9887784Y52307137D01*
X9887780Y52307140D01*
X9723919Y52416629D01*
X9723915Y52416631D01*
X9723913Y52416632D01*
X9678506Y52435440D01*
X9624105Y52479279D01*
X9602040Y52545573D01*
X9619319Y52613272D01*
X9670455Y52660883D01*
X9678490Y52664554D01*
X9723913Y52683368D01*
X9887781Y52792861D01*
X10027138Y52932218D01*
X10136631Y53096086D01*
X10212050Y53278165D01*
X10240542Y53421403D01*
X10250499Y53471457D01*
X10250499Y53668544D01*
X10212051Y53861830D01*
X10212050Y53861831D01*
X10212050Y53861835D01*
X10167464Y53969476D01*
X10136634Y54043908D01*
X10136627Y54043921D01*
X10027138Y54207782D01*
X10027135Y54207786D01*
X9887784Y54347137D01*
X9887780Y54347140D01*
X9832493Y54384082D01*
X9723919Y54456629D01*
X9723906Y54456636D01*
X9669776Y54479057D01*
X16199500Y54479057D01*
X16199500Y54320943D01*
X16240291Y54168711D01*
X16240423Y54168217D01*
X16240426Y54168210D01*
X16319475Y54031291D01*
X16319479Y54031286D01*
X16319480Y54031284D01*
X16431284Y53919480D01*
X16431286Y53919479D01*
X16431290Y53919476D01*
X16542058Y53855525D01*
X16568216Y53840423D01*
X16720943Y53799500D01*
X16720945Y53799500D01*
X16879055Y53799500D01*
X16879057Y53799500D01*
X17031784Y53840423D01*
X17098702Y53879058D01*
X21599500Y53879058D01*
X21599500Y53720944D01*
X21618510Y53650000D01*
X21640423Y53568218D01*
X21640426Y53568211D01*
X21719475Y53431292D01*
X21719479Y53431287D01*
X21719480Y53431285D01*
X21831284Y53319481D01*
X21831286Y53319480D01*
X21831290Y53319477D01*
X21968209Y53240428D01*
X21968216Y53240424D01*
X22120943Y53199501D01*
X22120945Y53199501D01*
X22279055Y53199501D01*
X22279057Y53199501D01*
X22431784Y53240424D01*
X22568716Y53319481D01*
X22680520Y53431285D01*
X22759577Y53568217D01*
X22800500Y53720944D01*
X22800500Y53879058D01*
X26399500Y53879058D01*
X26399500Y53720944D01*
X26418510Y53650000D01*
X26440423Y53568218D01*
X26440426Y53568211D01*
X26519475Y53431292D01*
X26519479Y53431287D01*
X26519480Y53431285D01*
X26631284Y53319481D01*
X26631286Y53319480D01*
X26631290Y53319477D01*
X26768209Y53240428D01*
X26768216Y53240424D01*
X26920943Y53199501D01*
X26920945Y53199501D01*
X27079055Y53199501D01*
X27079057Y53199501D01*
X27231784Y53240424D01*
X27246737Y53249057D01*
X28399500Y53249057D01*
X28399500Y53090943D01*
X28417461Y53023914D01*
X28440423Y52938217D01*
X28440426Y52938210D01*
X28519475Y52801291D01*
X28519479Y52801286D01*
X28519480Y52801284D01*
X28631284Y52689480D01*
X28631286Y52689479D01*
X28631290Y52689476D01*
X28702193Y52648541D01*
X28768216Y52610423D01*
X28920943Y52569500D01*
X28920945Y52569500D01*
X29079055Y52569500D01*
X29079057Y52569500D01*
X29231784Y52610423D01*
X29368716Y52689480D01*
X29480520Y52801284D01*
X29559577Y52938216D01*
X29600500Y53090943D01*
X29600500Y53249057D01*
X44399500Y53249057D01*
X44399500Y53090943D01*
X44417461Y53023914D01*
X44440423Y52938217D01*
X44440426Y52938210D01*
X44519475Y52801291D01*
X44519479Y52801286D01*
X44519480Y52801284D01*
X44631284Y52689480D01*
X44631286Y52689479D01*
X44631290Y52689476D01*
X44702193Y52648541D01*
X44768216Y52610423D01*
X44920943Y52569500D01*
X44920945Y52569500D01*
X45079055Y52569500D01*
X45079057Y52569500D01*
X45231784Y52610423D01*
X45368716Y52689480D01*
X45480520Y52801284D01*
X45559577Y52938216D01*
X45600500Y53090943D01*
X45600500Y53249057D01*
X45559577Y53401784D01*
X45548250Y53421403D01*
X45480524Y53538710D01*
X45480518Y53538718D01*
X45368717Y53650519D01*
X45368709Y53650525D01*
X45231790Y53729574D01*
X45231786Y53729576D01*
X45231784Y53729577D01*
X45079057Y53770500D01*
X44920943Y53770500D01*
X44768216Y53729577D01*
X44768209Y53729574D01*
X44631290Y53650525D01*
X44631282Y53650519D01*
X44519481Y53538718D01*
X44519475Y53538710D01*
X44440426Y53401791D01*
X44440423Y53401784D01*
X44399500Y53249057D01*
X29600500Y53249057D01*
X29559577Y53401784D01*
X29548250Y53421403D01*
X29480524Y53538710D01*
X29480518Y53538718D01*
X29368717Y53650519D01*
X29368709Y53650525D01*
X29231790Y53729574D01*
X29231786Y53729576D01*
X29231784Y53729577D01*
X29079057Y53770500D01*
X28920943Y53770500D01*
X28768216Y53729577D01*
X28768209Y53729574D01*
X28631290Y53650525D01*
X28631282Y53650519D01*
X28519481Y53538718D01*
X28519475Y53538710D01*
X28440426Y53401791D01*
X28440423Y53401784D01*
X28399500Y53249057D01*
X27246737Y53249057D01*
X27368716Y53319481D01*
X27480520Y53431285D01*
X27559577Y53568217D01*
X27600500Y53720944D01*
X27600500Y53879058D01*
X27559577Y54031785D01*
X27480813Y54168210D01*
X27480524Y54168711D01*
X27480518Y54168719D01*
X27368717Y54280520D01*
X27368709Y54280526D01*
X27231790Y54359575D01*
X27231786Y54359577D01*
X27231784Y54359578D01*
X27079057Y54400501D01*
X26920943Y54400501D01*
X26768216Y54359578D01*
X26768209Y54359575D01*
X26631290Y54280526D01*
X26631282Y54280520D01*
X26519481Y54168719D01*
X26519475Y54168711D01*
X26440426Y54031792D01*
X26440423Y54031785D01*
X26399500Y53879058D01*
X22800500Y53879058D01*
X22759577Y54031785D01*
X22680813Y54168210D01*
X22680524Y54168711D01*
X22680518Y54168719D01*
X22568717Y54280520D01*
X22568709Y54280526D01*
X22431790Y54359575D01*
X22431786Y54359577D01*
X22431784Y54359578D01*
X22279057Y54400501D01*
X22120943Y54400501D01*
X21968216Y54359578D01*
X21968209Y54359575D01*
X21831290Y54280526D01*
X21831282Y54280520D01*
X21719481Y54168719D01*
X21719475Y54168711D01*
X21640426Y54031792D01*
X21640423Y54031785D01*
X21599500Y53879058D01*
X17098702Y53879058D01*
X17168716Y53919480D01*
X17280520Y54031284D01*
X17359577Y54168216D01*
X17400500Y54320943D01*
X17400500Y54479057D01*
X17387103Y54529057D01*
X30899500Y54529057D01*
X30899500Y54370943D01*
X30923729Y54280521D01*
X30940423Y54218217D01*
X30940426Y54218210D01*
X31019475Y54081291D01*
X31019479Y54081286D01*
X31019480Y54081284D01*
X31131284Y53969480D01*
X31131286Y53969479D01*
X31131290Y53969476D01*
X31217887Y53919480D01*
X31268216Y53890423D01*
X31420943Y53849500D01*
X31420945Y53849500D01*
X31579055Y53849500D01*
X31579057Y53849500D01*
X31731784Y53890423D01*
X31868716Y53969480D01*
X31980520Y54081284D01*
X32059577Y54218216D01*
X32100500Y54370943D01*
X32100500Y54479057D01*
X40199500Y54479057D01*
X40199500Y54320943D01*
X40240291Y54168711D01*
X40240423Y54168217D01*
X40240426Y54168210D01*
X40319475Y54031291D01*
X40319479Y54031286D01*
X40319480Y54031284D01*
X40431284Y53919480D01*
X40431286Y53919479D01*
X40431290Y53919476D01*
X40542058Y53855525D01*
X40568216Y53840423D01*
X40720943Y53799500D01*
X40720945Y53799500D01*
X40879055Y53799500D01*
X40879057Y53799500D01*
X41031784Y53840423D01*
X41168716Y53919480D01*
X41280520Y54031284D01*
X41359577Y54168216D01*
X41400500Y54320943D01*
X41400500Y54479057D01*
X41359577Y54631784D01*
X41330706Y54681791D01*
X41280524Y54768710D01*
X41280518Y54768718D01*
X41168717Y54880519D01*
X41168709Y54880525D01*
X41031790Y54959574D01*
X41031786Y54959576D01*
X41031784Y54959577D01*
X40879057Y55000500D01*
X40720943Y55000500D01*
X40568216Y54959577D01*
X40568209Y54959574D01*
X40431290Y54880525D01*
X40431282Y54880519D01*
X40319481Y54768718D01*
X40319475Y54768710D01*
X40240426Y54631791D01*
X40240424Y54631786D01*
X40240423Y54631784D01*
X40199500Y54479057D01*
X32100500Y54479057D01*
X32100500Y54529057D01*
X32059577Y54681784D01*
X32009391Y54768710D01*
X31980524Y54818710D01*
X31980518Y54818718D01*
X31868717Y54930519D01*
X31868709Y54930525D01*
X31731790Y55009574D01*
X31731786Y55009576D01*
X31731784Y55009577D01*
X31579057Y55050500D01*
X31420943Y55050500D01*
X31268216Y55009577D01*
X31268209Y55009574D01*
X31131290Y54930525D01*
X31131282Y54930519D01*
X31019481Y54818718D01*
X31019475Y54818710D01*
X30940426Y54681791D01*
X30940423Y54681784D01*
X30899500Y54529057D01*
X17387103Y54529057D01*
X17359577Y54631784D01*
X17330706Y54681791D01*
X17280524Y54768710D01*
X17280518Y54768718D01*
X17168717Y54880519D01*
X17168709Y54880525D01*
X17031790Y54959574D01*
X17031786Y54959576D01*
X17031784Y54959577D01*
X16879057Y55000500D01*
X16720943Y55000500D01*
X16568216Y54959577D01*
X16568209Y54959574D01*
X16431290Y54880525D01*
X16431282Y54880519D01*
X16319481Y54768718D01*
X16319475Y54768710D01*
X16240426Y54631791D01*
X16240424Y54631786D01*
X16240423Y54631784D01*
X16199500Y54479057D01*
X9669776Y54479057D01*
X9541838Y54532050D01*
X9541828Y54532053D01*
X9348542Y54570500D01*
X9348540Y54570500D01*
X9151458Y54570500D01*
X9151456Y54570500D01*
X8958169Y54532053D01*
X8958159Y54532050D01*
X8776091Y54456636D01*
X8776078Y54456629D01*
X8612217Y54347140D01*
X8612213Y54347137D01*
X8472862Y54207786D01*
X8472859Y54207782D01*
X8363370Y54043921D01*
X8363363Y54043908D01*
X8287949Y53861840D01*
X8287946Y53861830D01*
X8249499Y53668544D01*
X8249499Y53465367D01*
X8246891Y53465367D01*
X8235965Y53407845D01*
X8187885Y53357149D01*
X8120029Y53340494D01*
X8056706Y53361267D01*
X7943919Y53436629D01*
X7943906Y53436636D01*
X7761838Y53512050D01*
X7761828Y53512053D01*
X7568542Y53550500D01*
X7568540Y53550500D01*
X7371458Y53550500D01*
X7371456Y53550500D01*
X7178169Y53512053D01*
X7178159Y53512050D01*
X6996091Y53436636D01*
X6996078Y53436629D01*
X6832217Y53327140D01*
X6832213Y53327137D01*
X6692862Y53187786D01*
X6692859Y53187782D01*
X6583370Y53023921D01*
X6583363Y53023908D01*
X6507949Y52841840D01*
X6507946Y52841830D01*
X6469499Y52648544D01*
X6469499Y52648541D01*
X6469499Y52451459D01*
X6469499Y52451457D01*
X6469498Y52451457D01*
X6507946Y52258171D01*
X6507949Y52258161D01*
X6583363Y52076093D01*
X6583370Y52076080D01*
X6692859Y51912219D01*
X6692862Y51912215D01*
X6832213Y51772864D01*
X6832217Y51772861D01*
X6996078Y51663372D01*
X6996091Y51663365D01*
X7041488Y51644561D01*
X7095892Y51600720D01*
X7117957Y51534426D01*
X7100678Y51466727D01*
X7049541Y51419116D01*
X7041488Y51415439D01*
X6996091Y51396636D01*
X6996078Y51396629D01*
X6832217Y51287140D01*
X6832213Y51287137D01*
X6692862Y51147786D01*
X6692859Y51147782D01*
X6583370Y50983921D01*
X6583363Y50983908D01*
X6507949Y50801840D01*
X6507946Y50801830D01*
X6469499Y50608544D01*
X6469499Y50608541D01*
X6469499Y50411459D01*
X6469499Y50411457D01*
X6469498Y50411457D01*
X6507946Y50218171D01*
X6507949Y50218161D01*
X6583363Y50036093D01*
X6583370Y50036080D01*
X6692859Y49872219D01*
X6692862Y49872215D01*
X6832213Y49732864D01*
X6832217Y49732861D01*
X6996078Y49623372D01*
X6996091Y49623365D01*
X7041488Y49604561D01*
X7095892Y49560720D01*
X7117957Y49494426D01*
X7100678Y49426727D01*
X7049541Y49379116D01*
X7041488Y49375439D01*
X6996091Y49356636D01*
X6996078Y49356629D01*
X6832217Y49247140D01*
X6832213Y49247137D01*
X6692862Y49107786D01*
X6692859Y49107782D01*
X6583370Y48943921D01*
X6583363Y48943908D01*
X6507949Y48761840D01*
X6507946Y48761830D01*
X6469499Y48568544D01*
X6469499Y48568541D01*
X6469499Y48371459D01*
X6469499Y48371457D01*
X6469498Y48371457D01*
X6507946Y48178171D01*
X6507949Y48178161D01*
X6583363Y47996093D01*
X6583370Y47996080D01*
X6692859Y47832219D01*
X6692862Y47832215D01*
X6832213Y47692864D01*
X6832217Y47692861D01*
X6996078Y47583372D01*
X6996091Y47583365D01*
X7041488Y47564561D01*
X7095892Y47520720D01*
X7117957Y47454426D01*
X7100678Y47386727D01*
X7049541Y47339116D01*
X7041488Y47335439D01*
X6996091Y47316636D01*
X6996078Y47316629D01*
X6832217Y47207140D01*
X6832213Y47207137D01*
X6692862Y47067786D01*
X6692859Y47067782D01*
X6583370Y46903921D01*
X6583363Y46903908D01*
X6507949Y46721840D01*
X6507946Y46721830D01*
X6469499Y46528544D01*
X6469499Y46528541D01*
X6469499Y46331459D01*
X6469499Y46331457D01*
X6469498Y46331457D01*
X6507946Y46138171D01*
X6507949Y46138161D01*
X6556351Y46021307D01*
X6563820Y45951838D01*
X6532544Y45889359D01*
X6472455Y45853707D01*
X6402630Y45856201D01*
X6372899Y45870753D01*
X6245189Y45956086D01*
X5963245Y46144475D01*
X5963244Y46144476D01*
X5963243Y46144476D01*
X5963242Y46144477D01*
X4930001Y46350000D01*
X4929997Y46350000D01*
X3896756Y46144477D01*
X3896755Y46144476D01*
X3020811Y45559189D01*
X2435525Y44683246D01*
X2435523Y44683242D01*
X2229999Y43650003D01*
X1000000Y43650003D01*
X1000000Y56350003D01*
X2229999Y56350003D01*
X2229999Y56349998D01*
X2435523Y55316760D01*
X2435524Y55316757D01*
X2435525Y55316755D01*
X3020811Y54440812D01*
X3896754Y53855526D01*
X3896757Y53855526D01*
X3896758Y53855525D01*
X4929998Y53650000D01*
X4930000Y53650000D01*
X4930002Y53650000D01*
X5963240Y53855525D01*
X5963240Y53855526D01*
X5963245Y53855526D01*
X6839188Y54440812D01*
X7424474Y55316755D01*
X7426396Y55326419D01*
X7556215Y55979057D01*
X36299500Y55979057D01*
X36299500Y55820943D01*
X36306273Y55795668D01*
X36340423Y55668217D01*
X36340426Y55668210D01*
X36419475Y55531291D01*
X36419479Y55531286D01*
X36419480Y55531284D01*
X36531284Y55419480D01*
X36531286Y55419479D01*
X36531290Y55419476D01*
X36668209Y55340427D01*
X36668216Y55340423D01*
X36820943Y55299500D01*
X36820945Y55299500D01*
X36979055Y55299500D01*
X36979057Y55299500D01*
X37131784Y55340423D01*
X37268716Y55419480D01*
X37380520Y55531284D01*
X37459577Y55668216D01*
X37500500Y55820943D01*
X37500500Y55931005D01*
X105299499Y55931005D01*
X105326418Y55795678D01*
X105326421Y55795668D01*
X105379221Y55668196D01*
X105379228Y55668183D01*
X105455885Y55553459D01*
X105455888Y55553455D01*
X105553454Y55455889D01*
X105553458Y55455886D01*
X105668182Y55379229D01*
X105668195Y55379222D01*
X105795667Y55326422D01*
X105795672Y55326420D01*
X105795676Y55326420D01*
X105795677Y55326419D01*
X105931004Y55299500D01*
X105931007Y55299500D01*
X106068995Y55299500D01*
X106160041Y55317611D01*
X106204328Y55326420D01*
X106331811Y55379225D01*
X106446542Y55455886D01*
X106544114Y55553458D01*
X106620775Y55668189D01*
X106673580Y55795672D01*
X106700500Y55931005D01*
X109299499Y55931005D01*
X109326418Y55795678D01*
X109326421Y55795668D01*
X109379221Y55668196D01*
X109379228Y55668183D01*
X109455885Y55553459D01*
X109455888Y55553455D01*
X109553454Y55455889D01*
X109553458Y55455886D01*
X109668182Y55379229D01*
X109668195Y55379222D01*
X109795667Y55326422D01*
X109795672Y55326420D01*
X109795676Y55326420D01*
X109795677Y55326419D01*
X109931004Y55299500D01*
X109931007Y55299500D01*
X110068995Y55299500D01*
X110160041Y55317611D01*
X110204328Y55326420D01*
X110331811Y55379225D01*
X110446542Y55455886D01*
X110544114Y55553458D01*
X110620775Y55668189D01*
X110673580Y55795672D01*
X110700500Y55931005D01*
X113299499Y55931005D01*
X113326418Y55795678D01*
X113326421Y55795668D01*
X113379221Y55668196D01*
X113379228Y55668183D01*
X113455885Y55553459D01*
X113455888Y55553455D01*
X113553454Y55455889D01*
X113553458Y55455886D01*
X113668182Y55379229D01*
X113668195Y55379222D01*
X113795667Y55326422D01*
X113795672Y55326420D01*
X113795676Y55326420D01*
X113795677Y55326419D01*
X113931004Y55299500D01*
X113931007Y55299500D01*
X114068995Y55299500D01*
X114160041Y55317611D01*
X114204328Y55326420D01*
X114331811Y55379225D01*
X114446542Y55455886D01*
X114544114Y55553458D01*
X114620775Y55668189D01*
X114673580Y55795672D01*
X114700500Y55931005D01*
X117299499Y55931005D01*
X117326418Y55795678D01*
X117326421Y55795668D01*
X117379221Y55668196D01*
X117379228Y55668183D01*
X117455885Y55553459D01*
X117455888Y55553455D01*
X117553454Y55455889D01*
X117553458Y55455886D01*
X117668182Y55379229D01*
X117668195Y55379222D01*
X117795667Y55326422D01*
X117795672Y55326420D01*
X117795676Y55326420D01*
X117795677Y55326419D01*
X117931004Y55299500D01*
X117931007Y55299500D01*
X118068995Y55299500D01*
X118160041Y55317611D01*
X118204328Y55326420D01*
X118331811Y55379225D01*
X118446542Y55455886D01*
X118544114Y55553458D01*
X118620775Y55668189D01*
X118673580Y55795672D01*
X118700500Y55931005D01*
X121299499Y55931005D01*
X121326418Y55795678D01*
X121326421Y55795668D01*
X121379221Y55668196D01*
X121379228Y55668183D01*
X121455885Y55553459D01*
X121455888Y55553455D01*
X121553454Y55455889D01*
X121553458Y55455886D01*
X121668182Y55379229D01*
X121668195Y55379222D01*
X121795667Y55326422D01*
X121795672Y55326420D01*
X121795676Y55326420D01*
X121795677Y55326419D01*
X121931004Y55299500D01*
X121931007Y55299500D01*
X122068995Y55299500D01*
X122160041Y55317611D01*
X122204328Y55326420D01*
X122331811Y55379225D01*
X122446542Y55455886D01*
X122544114Y55553458D01*
X122620775Y55668189D01*
X122673580Y55795672D01*
X122700500Y55931007D01*
X122700500Y56068993D01*
X122700500Y56068996D01*
X122673581Y56204323D01*
X122673580Y56204324D01*
X122673580Y56204328D01*
X122625884Y56319477D01*
X122620778Y56331805D01*
X122620771Y56331818D01*
X122544114Y56446542D01*
X122544111Y56446546D01*
X122446545Y56544112D01*
X122446541Y56544115D01*
X122331817Y56620772D01*
X122331804Y56620779D01*
X122204332Y56673579D01*
X122204322Y56673582D01*
X122068995Y56700500D01*
X122068993Y56700500D01*
X121931007Y56700500D01*
X121931005Y56700500D01*
X121795677Y56673582D01*
X121795667Y56673579D01*
X121668195Y56620779D01*
X121668182Y56620772D01*
X121553458Y56544115D01*
X121553454Y56544112D01*
X121455888Y56446546D01*
X121455885Y56446542D01*
X121379228Y56331818D01*
X121379221Y56331805D01*
X121326421Y56204333D01*
X121326418Y56204323D01*
X121299500Y56068996D01*
X121299500Y56068993D01*
X121299500Y55931007D01*
X121299500Y55931005D01*
X121299499Y55931005D01*
X118700500Y55931005D01*
X118700500Y55931007D01*
X118700500Y56068993D01*
X118700500Y56068996D01*
X118673581Y56204323D01*
X118673580Y56204324D01*
X118673580Y56204328D01*
X118625884Y56319477D01*
X118620778Y56331805D01*
X118620771Y56331818D01*
X118544114Y56446542D01*
X118544111Y56446546D01*
X118446545Y56544112D01*
X118446541Y56544115D01*
X118331817Y56620772D01*
X118331804Y56620779D01*
X118204332Y56673579D01*
X118204322Y56673582D01*
X118068995Y56700500D01*
X118068993Y56700500D01*
X117931007Y56700500D01*
X117931005Y56700500D01*
X117795677Y56673582D01*
X117795667Y56673579D01*
X117668195Y56620779D01*
X117668182Y56620772D01*
X117553458Y56544115D01*
X117553454Y56544112D01*
X117455888Y56446546D01*
X117455885Y56446542D01*
X117379228Y56331818D01*
X117379221Y56331805D01*
X117326421Y56204333D01*
X117326418Y56204323D01*
X117299500Y56068996D01*
X117299500Y56068993D01*
X117299500Y55931007D01*
X117299500Y55931005D01*
X117299499Y55931005D01*
X114700500Y55931005D01*
X114700500Y55931007D01*
X114700500Y56068993D01*
X114700500Y56068996D01*
X114673581Y56204323D01*
X114673580Y56204324D01*
X114673580Y56204328D01*
X114625884Y56319477D01*
X114620778Y56331805D01*
X114620771Y56331818D01*
X114544114Y56446542D01*
X114544111Y56446546D01*
X114446545Y56544112D01*
X114446541Y56544115D01*
X114331817Y56620772D01*
X114331804Y56620779D01*
X114204332Y56673579D01*
X114204322Y56673582D01*
X114068995Y56700500D01*
X114068993Y56700500D01*
X113931007Y56700500D01*
X113931005Y56700500D01*
X113795677Y56673582D01*
X113795667Y56673579D01*
X113668195Y56620779D01*
X113668182Y56620772D01*
X113553458Y56544115D01*
X113553454Y56544112D01*
X113455888Y56446546D01*
X113455885Y56446542D01*
X113379228Y56331818D01*
X113379221Y56331805D01*
X113326421Y56204333D01*
X113326418Y56204323D01*
X113299500Y56068996D01*
X113299500Y56068993D01*
X113299500Y55931007D01*
X113299500Y55931005D01*
X113299499Y55931005D01*
X110700500Y55931005D01*
X110700500Y55931007D01*
X110700500Y56068993D01*
X110700500Y56068996D01*
X110673581Y56204323D01*
X110673580Y56204324D01*
X110673580Y56204328D01*
X110625884Y56319477D01*
X110620778Y56331805D01*
X110620771Y56331818D01*
X110544114Y56446542D01*
X110544111Y56446546D01*
X110446545Y56544112D01*
X110446541Y56544115D01*
X110331817Y56620772D01*
X110331804Y56620779D01*
X110204332Y56673579D01*
X110204322Y56673582D01*
X110068995Y56700500D01*
X110068993Y56700500D01*
X109931007Y56700500D01*
X109931005Y56700500D01*
X109795677Y56673582D01*
X109795667Y56673579D01*
X109668195Y56620779D01*
X109668182Y56620772D01*
X109553458Y56544115D01*
X109553454Y56544112D01*
X109455888Y56446546D01*
X109455885Y56446542D01*
X109379228Y56331818D01*
X109379221Y56331805D01*
X109326421Y56204333D01*
X109326418Y56204323D01*
X109299500Y56068996D01*
X109299500Y56068993D01*
X109299500Y55931007D01*
X109299500Y55931005D01*
X109299499Y55931005D01*
X106700500Y55931005D01*
X106700500Y55931007D01*
X106700500Y56068993D01*
X106700500Y56068996D01*
X106673581Y56204323D01*
X106673580Y56204324D01*
X106673580Y56204328D01*
X106625884Y56319477D01*
X106620778Y56331805D01*
X106620771Y56331818D01*
X106544114Y56446542D01*
X106544111Y56446546D01*
X106446545Y56544112D01*
X106446541Y56544115D01*
X106331817Y56620772D01*
X106331804Y56620779D01*
X106204332Y56673579D01*
X106204322Y56673582D01*
X106068995Y56700500D01*
X106068993Y56700500D01*
X105931007Y56700500D01*
X105931005Y56700500D01*
X105795677Y56673582D01*
X105795667Y56673579D01*
X105668195Y56620779D01*
X105668182Y56620772D01*
X105553458Y56544115D01*
X105553454Y56544112D01*
X105455888Y56446546D01*
X105455885Y56446542D01*
X105379228Y56331818D01*
X105379221Y56331805D01*
X105326421Y56204333D01*
X105326418Y56204323D01*
X105299500Y56068996D01*
X105299500Y56068993D01*
X105299500Y55931007D01*
X105299500Y55931005D01*
X105299499Y55931005D01*
X37500500Y55931005D01*
X37500500Y55979057D01*
X37459577Y56131784D01*
X37420481Y56199501D01*
X37380524Y56268710D01*
X37380518Y56268718D01*
X37268717Y56380519D01*
X37268709Y56380525D01*
X37131790Y56459574D01*
X37131786Y56459576D01*
X37131784Y56459577D01*
X36979057Y56500500D01*
X36820943Y56500500D01*
X36668216Y56459577D01*
X36668209Y56459574D01*
X36531290Y56380525D01*
X36531282Y56380519D01*
X36419481Y56268718D01*
X36419475Y56268710D01*
X36340426Y56131791D01*
X36340423Y56131784D01*
X36299500Y55979057D01*
X7556215Y55979057D01*
X7562644Y56011375D01*
X7630000Y56349998D01*
X7630000Y56350003D01*
X7527959Y56862994D01*
X7524764Y56879058D01*
X22799500Y56879058D01*
X22799500Y56720944D01*
X22812192Y56673579D01*
X22840423Y56568218D01*
X22840426Y56568211D01*
X22919475Y56431292D01*
X22919479Y56431287D01*
X22919480Y56431285D01*
X23031284Y56319481D01*
X23031286Y56319480D01*
X23031290Y56319477D01*
X23168209Y56240428D01*
X23168216Y56240424D01*
X23320943Y56199501D01*
X23320945Y56199501D01*
X23479055Y56199501D01*
X23479057Y56199501D01*
X23631784Y56240424D01*
X23768716Y56319481D01*
X23880520Y56431285D01*
X23959577Y56568217D01*
X24000500Y56720944D01*
X24000500Y56879058D01*
X23959577Y57031785D01*
X23959573Y57031792D01*
X23880524Y57168711D01*
X23880518Y57168719D01*
X23768717Y57280520D01*
X23768709Y57280526D01*
X23631790Y57359575D01*
X23631786Y57359577D01*
X23631784Y57359578D01*
X23479057Y57400501D01*
X23320943Y57400501D01*
X23168216Y57359578D01*
X23168209Y57359575D01*
X23031290Y57280526D01*
X23031282Y57280520D01*
X22919481Y57168719D01*
X22919475Y57168711D01*
X22840426Y57031792D01*
X22840423Y57031785D01*
X22799500Y56879058D01*
X7524764Y56879058D01*
X7424475Y57383242D01*
X7424474Y57383243D01*
X7424474Y57383246D01*
X7058473Y57931005D01*
X123299499Y57931005D01*
X123326418Y57795678D01*
X123326421Y57795668D01*
X123379221Y57668196D01*
X123379228Y57668183D01*
X123455885Y57553459D01*
X123455888Y57553455D01*
X123553454Y57455889D01*
X123553458Y57455886D01*
X123668182Y57379229D01*
X123668195Y57379222D01*
X123715628Y57359575D01*
X123795672Y57326420D01*
X123795676Y57326420D01*
X123795677Y57326419D01*
X123931004Y57299500D01*
X123931007Y57299500D01*
X124068995Y57299500D01*
X124160041Y57317611D01*
X124204328Y57326420D01*
X124331811Y57379225D01*
X124446542Y57455886D01*
X124544114Y57553458D01*
X124620775Y57668189D01*
X124673580Y57795672D01*
X124700500Y57931007D01*
X124700500Y58068993D01*
X124700500Y58068996D01*
X124673581Y58204323D01*
X124673580Y58204324D01*
X124673580Y58204328D01*
X124650856Y58259189D01*
X124620778Y58331805D01*
X124620771Y58331818D01*
X124544114Y58446542D01*
X124544111Y58446546D01*
X124446545Y58544112D01*
X124446541Y58544115D01*
X124331817Y58620772D01*
X124331804Y58620779D01*
X124204332Y58673579D01*
X124204322Y58673582D01*
X124068995Y58700500D01*
X124068993Y58700500D01*
X123931007Y58700500D01*
X123931005Y58700500D01*
X123795677Y58673582D01*
X123795667Y58673579D01*
X123668195Y58620779D01*
X123668182Y58620772D01*
X123553458Y58544115D01*
X123553454Y58544112D01*
X123455888Y58446546D01*
X123455885Y58446542D01*
X123379228Y58331818D01*
X123379221Y58331805D01*
X123326421Y58204333D01*
X123326418Y58204323D01*
X123299500Y58068996D01*
X123299500Y58068993D01*
X123299500Y57931007D01*
X123299500Y57931005D01*
X123299499Y57931005D01*
X7058473Y57931005D01*
X6839188Y58259189D01*
X5963245Y58844475D01*
X5963243Y58844476D01*
X5963240Y58844477D01*
X4930001Y59050001D01*
X4929997Y59050001D01*
X3896758Y58844477D01*
X3896754Y58844475D01*
X3020811Y58259189D01*
X2435525Y57383246D01*
X2435523Y57383242D01*
X2229999Y56350003D01*
X1000000Y56350003D01*
X1000000Y61379058D01*
X25199500Y61379058D01*
X25199500Y61220945D01*
X25240423Y61068218D01*
X25240426Y61068211D01*
X25319475Y60931292D01*
X25319479Y60931287D01*
X25319480Y60931285D01*
X25431284Y60819481D01*
X25431286Y60819480D01*
X25431290Y60819477D01*
X25568209Y60740428D01*
X25568216Y60740424D01*
X25720943Y60699501D01*
X25720945Y60699501D01*
X25879055Y60699501D01*
X25879057Y60699501D01*
X26031784Y60740424D01*
X26168716Y60819481D01*
X26280520Y60931285D01*
X26359577Y61068217D01*
X26400500Y61220944D01*
X26400500Y61379058D01*
X37799500Y61379058D01*
X37799500Y61220945D01*
X37840423Y61068218D01*
X37840426Y61068211D01*
X37919475Y60931292D01*
X37919479Y60931287D01*
X37919480Y60931285D01*
X38031284Y60819481D01*
X38031286Y60819480D01*
X38031290Y60819477D01*
X38168209Y60740428D01*
X38168216Y60740424D01*
X38320943Y60699501D01*
X38320945Y60699501D01*
X38479055Y60699501D01*
X38479057Y60699501D01*
X38631784Y60740424D01*
X38768716Y60819481D01*
X38880520Y60931285D01*
X38959577Y61068217D01*
X39000500Y61220944D01*
X39000500Y61379058D01*
X38959577Y61531785D01*
X38947064Y61553459D01*
X38880524Y61668711D01*
X38880518Y61668719D01*
X38768717Y61780520D01*
X38768709Y61780526D01*
X38631790Y61859575D01*
X38631786Y61859577D01*
X38631784Y61859578D01*
X38479057Y61900501D01*
X38320943Y61900501D01*
X38168216Y61859578D01*
X38168209Y61859575D01*
X38031290Y61780526D01*
X38031282Y61780520D01*
X37919481Y61668719D01*
X37919475Y61668711D01*
X37840426Y61531792D01*
X37840423Y61531785D01*
X37799500Y61379058D01*
X26400500Y61379058D01*
X26359577Y61531785D01*
X26347064Y61553459D01*
X26280524Y61668711D01*
X26280518Y61668719D01*
X26168717Y61780520D01*
X26168709Y61780526D01*
X26031790Y61859575D01*
X26031786Y61859577D01*
X26031784Y61859578D01*
X25879057Y61900501D01*
X25720943Y61900501D01*
X25568216Y61859578D01*
X25568209Y61859575D01*
X25431290Y61780526D01*
X25431282Y61780520D01*
X25319481Y61668719D01*
X25319475Y61668711D01*
X25240426Y61531792D01*
X25240423Y61531785D01*
X25199500Y61379058D01*
X1000000Y61379058D01*
X1000000Y62879058D01*
X16199500Y62879058D01*
X16199500Y62720944D01*
X16212192Y62673579D01*
X16240423Y62568218D01*
X16240426Y62568211D01*
X16319475Y62431292D01*
X16319479Y62431287D01*
X16319480Y62431285D01*
X16431284Y62319481D01*
X16431286Y62319480D01*
X16431290Y62319477D01*
X16568209Y62240428D01*
X16568216Y62240424D01*
X16720943Y62199501D01*
X16720945Y62199501D01*
X16879055Y62199501D01*
X16879057Y62199501D01*
X17031784Y62240424D01*
X17168716Y62319481D01*
X17280520Y62431285D01*
X17359577Y62568217D01*
X17400500Y62720944D01*
X17400500Y62879058D01*
X17359577Y63031785D01*
X17343526Y63059586D01*
X17280524Y63168711D01*
X17280518Y63168719D01*
X17168717Y63280520D01*
X17168709Y63280526D01*
X17031790Y63359575D01*
X17031786Y63359577D01*
X17031784Y63359578D01*
X16879057Y63400501D01*
X16720943Y63400501D01*
X16568216Y63359578D01*
X16568209Y63359575D01*
X16431290Y63280526D01*
X16431282Y63280520D01*
X16319481Y63168719D01*
X16319475Y63168711D01*
X16240426Y63031792D01*
X16240423Y63031785D01*
X16199500Y62879058D01*
X1000000Y62879058D01*
X1000000Y67227908D01*
X74199500Y67227908D01*
X74199500Y66772093D01*
X74217443Y66544114D01*
X74235262Y66317698D01*
X74306566Y65867506D01*
X74412971Y65424295D01*
X74453520Y65299500D01*
X74553823Y64990800D01*
X74553827Y64990788D01*
X74675281Y64697574D01*
X74728252Y64569691D01*
X74935182Y64163566D01*
X74935189Y64163553D01*
X74935192Y64163548D01*
X75173333Y63774939D01*
X75173341Y63774928D01*
X75441249Y63406183D01*
X75441260Y63406169D01*
X75644062Y63168719D01*
X75737276Y63059579D01*
X76059579Y62737276D01*
X76406175Y62441255D01*
X76774929Y62173340D01*
X76774933Y62173338D01*
X76774938Y62173334D01*
X77163547Y61935193D01*
X77163552Y61935190D01*
X77163557Y61935188D01*
X77163566Y61935182D01*
X77569691Y61728252D01*
X77990799Y61553823D01*
X78424295Y61412971D01*
X78867506Y61306566D01*
X79317698Y61235262D01*
X79772098Y61199500D01*
X79772106Y61199500D01*
X80227894Y61199500D01*
X80227902Y61199500D01*
X80682302Y61235262D01*
X81132494Y61306566D01*
X81575705Y61412971D01*
X82009201Y61553823D01*
X82430309Y61728252D01*
X82836434Y61935182D01*
X83225071Y62173340D01*
X83593825Y62441255D01*
X83940421Y62737276D01*
X84262724Y63059579D01*
X84558745Y63406175D01*
X84826660Y63774929D01*
X85064818Y64163566D01*
X85271748Y64569691D01*
X85446177Y64990799D01*
X85587029Y65424295D01*
X85693434Y65867506D01*
X85764738Y66317698D01*
X85800500Y66772098D01*
X85800500Y67227902D01*
X85800500Y67227908D01*
X104199500Y67227908D01*
X104199500Y66772093D01*
X104217443Y66544114D01*
X104235262Y66317698D01*
X104306566Y65867506D01*
X104412971Y65424295D01*
X104453520Y65299500D01*
X104553823Y64990800D01*
X104553827Y64990788D01*
X104675281Y64697574D01*
X104728252Y64569691D01*
X104935182Y64163566D01*
X104935189Y64163553D01*
X104935192Y64163548D01*
X105173333Y63774939D01*
X105173341Y63774928D01*
X105441249Y63406183D01*
X105441260Y63406169D01*
X105644062Y63168719D01*
X105737276Y63059579D01*
X106059579Y62737276D01*
X106406175Y62441255D01*
X106774929Y62173340D01*
X106774933Y62173338D01*
X106774938Y62173334D01*
X107163547Y61935193D01*
X107163552Y61935190D01*
X107163557Y61935188D01*
X107163566Y61935182D01*
X107569691Y61728252D01*
X107990799Y61553823D01*
X108424295Y61412971D01*
X108867506Y61306566D01*
X109317698Y61235262D01*
X109772098Y61199500D01*
X109772106Y61199500D01*
X110227894Y61199500D01*
X110227902Y61199500D01*
X110682302Y61235262D01*
X111132494Y61306566D01*
X111575705Y61412971D01*
X112009201Y61553823D01*
X112430309Y61728252D01*
X112828236Y61931005D01*
X123299499Y61931005D01*
X123326418Y61795678D01*
X123326421Y61795668D01*
X123379221Y61668196D01*
X123379228Y61668183D01*
X123455885Y61553459D01*
X123455888Y61553455D01*
X123553454Y61455889D01*
X123553458Y61455886D01*
X123668182Y61379229D01*
X123668195Y61379222D01*
X123795667Y61326422D01*
X123795672Y61326420D01*
X123795676Y61326420D01*
X123795677Y61326419D01*
X123931004Y61299500D01*
X123931007Y61299500D01*
X124068995Y61299500D01*
X124160041Y61317611D01*
X124204328Y61326420D01*
X124331811Y61379225D01*
X124446542Y61455886D01*
X124544114Y61553458D01*
X124620775Y61668189D01*
X124673580Y61795672D01*
X124700500Y61931007D01*
X124700500Y62068993D01*
X124700500Y62068996D01*
X124673581Y62204323D01*
X124673580Y62204324D01*
X124673580Y62204328D01*
X124625884Y62319477D01*
X124620778Y62331805D01*
X124620771Y62331818D01*
X124544114Y62446542D01*
X124544111Y62446546D01*
X124446545Y62544112D01*
X124446541Y62544115D01*
X124331817Y62620772D01*
X124331804Y62620779D01*
X124204332Y62673579D01*
X124204322Y62673582D01*
X124068995Y62700500D01*
X124068993Y62700500D01*
X123931007Y62700500D01*
X123931005Y62700500D01*
X123795677Y62673582D01*
X123795667Y62673579D01*
X123668195Y62620779D01*
X123668182Y62620772D01*
X123553458Y62544115D01*
X123553454Y62544112D01*
X123455888Y62446546D01*
X123455885Y62446542D01*
X123379228Y62331818D01*
X123379221Y62331805D01*
X123326421Y62204333D01*
X123326418Y62204323D01*
X123299500Y62068996D01*
X123299500Y62068993D01*
X123299500Y61931007D01*
X123299500Y61931005D01*
X123299499Y61931005D01*
X112828236Y61931005D01*
X112836434Y61935182D01*
X113225071Y62173340D01*
X113593825Y62441255D01*
X113940421Y62737276D01*
X114262724Y63059579D01*
X114558745Y63406175D01*
X114826660Y63774929D01*
X115064818Y64163566D01*
X115271748Y64569691D01*
X115446177Y64990799D01*
X115587029Y65424295D01*
X115693434Y65867506D01*
X115703491Y65931005D01*
X123299499Y65931005D01*
X123326418Y65795678D01*
X123326421Y65795668D01*
X123379221Y65668196D01*
X123379228Y65668183D01*
X123455885Y65553459D01*
X123455888Y65553455D01*
X123553454Y65455889D01*
X123553458Y65455886D01*
X123668182Y65379229D01*
X123668195Y65379222D01*
X123795667Y65326422D01*
X123795672Y65326420D01*
X123795676Y65326420D01*
X123795677Y65326419D01*
X123931004Y65299500D01*
X123931007Y65299500D01*
X124068995Y65299500D01*
X124160041Y65317611D01*
X124204328Y65326420D01*
X124331811Y65379225D01*
X124446542Y65455886D01*
X124544114Y65553458D01*
X124620775Y65668189D01*
X124673580Y65795672D01*
X124700500Y65931007D01*
X124700500Y66068993D01*
X124700500Y66068996D01*
X124673581Y66204323D01*
X124673580Y66204324D01*
X124673580Y66204328D01*
X124673578Y66204333D01*
X124620778Y66331805D01*
X124620771Y66331818D01*
X124544114Y66446542D01*
X124544111Y66446546D01*
X124446545Y66544112D01*
X124446541Y66544115D01*
X124331817Y66620772D01*
X124331804Y66620779D01*
X124204332Y66673579D01*
X124204322Y66673582D01*
X124068995Y66700500D01*
X124068993Y66700500D01*
X123931007Y66700500D01*
X123931005Y66700500D01*
X123795677Y66673582D01*
X123795667Y66673579D01*
X123668195Y66620779D01*
X123668182Y66620772D01*
X123553458Y66544115D01*
X123553454Y66544112D01*
X123455888Y66446546D01*
X123455885Y66446542D01*
X123379228Y66331818D01*
X123379221Y66331805D01*
X123326421Y66204333D01*
X123326418Y66204323D01*
X123299500Y66068996D01*
X123299500Y66068993D01*
X123299500Y65931007D01*
X123299500Y65931005D01*
X123299499Y65931005D01*
X115703491Y65931005D01*
X115764738Y66317698D01*
X115800500Y66772098D01*
X115800500Y67227902D01*
X115764738Y67682302D01*
X115693434Y68132494D01*
X115587029Y68575705D01*
X115446177Y69009201D01*
X115271748Y69430309D01*
X115064818Y69836434D01*
X115064812Y69836443D01*
X115064810Y69836448D01*
X115064807Y69836453D01*
X114826666Y70225062D01*
X114826662Y70225067D01*
X114826660Y70225071D01*
X114558745Y70593825D01*
X114262724Y70940421D01*
X113940421Y71262724D01*
X113593825Y71558745D01*
X113225071Y71826660D01*
X113225068Y71826662D01*
X113225061Y71826667D01*
X112836452Y72064808D01*
X112836447Y72064811D01*
X112836437Y72064816D01*
X112836434Y72064818D01*
X112430309Y72271748D01*
X112302426Y72324719D01*
X112009212Y72446173D01*
X112009205Y72446176D01*
X112009201Y72446177D01*
X111575705Y72587029D01*
X111132494Y72693434D01*
X110682302Y72764738D01*
X110227907Y72800500D01*
X110227902Y72800500D01*
X109772098Y72800500D01*
X109772092Y72800500D01*
X109317697Y72764738D01*
X109317696Y72764738D01*
X108867511Y72693435D01*
X108867508Y72693435D01*
X108867506Y72693434D01*
X108708784Y72655329D01*
X108424306Y72587032D01*
X108424301Y72587031D01*
X108424295Y72587029D01*
X107990799Y72446177D01*
X107990787Y72446173D01*
X107569693Y72271749D01*
X107163552Y72064811D01*
X107163547Y72064808D01*
X106774938Y71826667D01*
X106774927Y71826659D01*
X106406182Y71558751D01*
X106406168Y71558740D01*
X106059585Y71262730D01*
X106059571Y71262717D01*
X105737283Y70940429D01*
X105737270Y70940415D01*
X105441260Y70593832D01*
X105441249Y70593818D01*
X105173341Y70225073D01*
X105173333Y70225062D01*
X104935192Y69836453D01*
X104935189Y69836448D01*
X104728251Y69430307D01*
X104553827Y69009213D01*
X104553823Y69009201D01*
X104412971Y68575705D01*
X104412969Y68575699D01*
X104412968Y68575694D01*
X104306565Y68132489D01*
X104235262Y67682304D01*
X104235262Y67682303D01*
X104199500Y67227908D01*
X85800500Y67227908D01*
X85764738Y67682302D01*
X85693434Y68132494D01*
X85587029Y68575705D01*
X85446177Y69009201D01*
X85271748Y69430309D01*
X85064818Y69836434D01*
X85064812Y69836443D01*
X85064810Y69836448D01*
X85064807Y69836453D01*
X84826666Y70225062D01*
X84826662Y70225067D01*
X84826660Y70225071D01*
X84558745Y70593825D01*
X84262724Y70940421D01*
X83940421Y71262724D01*
X83593825Y71558745D01*
X83225071Y71826660D01*
X83225068Y71826662D01*
X83225061Y71826667D01*
X82836452Y72064808D01*
X82836447Y72064811D01*
X82836437Y72064816D01*
X82836434Y72064818D01*
X82430309Y72271748D01*
X82302426Y72324719D01*
X82009212Y72446173D01*
X82009205Y72446176D01*
X82009201Y72446177D01*
X81575705Y72587029D01*
X81132494Y72693434D01*
X80682302Y72764738D01*
X80227907Y72800500D01*
X80227902Y72800500D01*
X79772098Y72800500D01*
X79772092Y72800500D01*
X79317697Y72764738D01*
X79317696Y72764738D01*
X78867511Y72693435D01*
X78867508Y72693435D01*
X78867506Y72693434D01*
X78708784Y72655329D01*
X78424306Y72587032D01*
X78424301Y72587031D01*
X78424295Y72587029D01*
X77990799Y72446177D01*
X77990787Y72446173D01*
X77569693Y72271749D01*
X77163552Y72064811D01*
X77163547Y72064808D01*
X76774938Y71826667D01*
X76774927Y71826659D01*
X76406182Y71558751D01*
X76406168Y71558740D01*
X76059585Y71262730D01*
X76059571Y71262717D01*
X75737283Y70940429D01*
X75737270Y70940415D01*
X75441260Y70593832D01*
X75441249Y70593818D01*
X75173341Y70225073D01*
X75173333Y70225062D01*
X74935192Y69836453D01*
X74935189Y69836448D01*
X74728251Y69430307D01*
X74553827Y69009213D01*
X74553823Y69009201D01*
X74412971Y68575705D01*
X74412969Y68575699D01*
X74412968Y68575694D01*
X74306565Y68132489D01*
X74235262Y67682304D01*
X74235262Y67682303D01*
X74199500Y67227908D01*
X1000000Y67227908D01*
X1000000Y68579057D01*
X22499499Y68579057D01*
X22499499Y68420944D01*
X22540422Y68268217D01*
X22540425Y68268210D01*
X22619474Y68131291D01*
X22619478Y68131286D01*
X22619479Y68131284D01*
X22731283Y68019480D01*
X22731285Y68019479D01*
X22731289Y68019476D01*
X22868208Y67940427D01*
X22868215Y67940423D01*
X23020942Y67899500D01*
X23020944Y67899500D01*
X23179054Y67899500D01*
X23179056Y67899500D01*
X23331783Y67940423D01*
X23468715Y68019480D01*
X23580519Y68131284D01*
X23659576Y68268216D01*
X23700499Y68420943D01*
X23700499Y68579057D01*
X42899500Y68579057D01*
X42899500Y68420944D01*
X42940423Y68268217D01*
X42940426Y68268210D01*
X43019475Y68131291D01*
X43019479Y68131286D01*
X43019480Y68131284D01*
X43131284Y68019480D01*
X43131286Y68019479D01*
X43131290Y68019476D01*
X43268209Y67940427D01*
X43268216Y67940423D01*
X43420943Y67899500D01*
X43420945Y67899500D01*
X43579055Y67899500D01*
X43579057Y67899500D01*
X43731784Y67940423D01*
X43868716Y68019480D01*
X43980520Y68131284D01*
X44059577Y68268216D01*
X44100500Y68420943D01*
X44100500Y68579057D01*
X53999500Y68579057D01*
X53999500Y68420944D01*
X54040423Y68268217D01*
X54040426Y68268210D01*
X54119475Y68131291D01*
X54119479Y68131286D01*
X54119480Y68131284D01*
X54231284Y68019480D01*
X54231286Y68019479D01*
X54231290Y68019476D01*
X54368209Y67940427D01*
X54368216Y67940423D01*
X54520943Y67899500D01*
X54520945Y67899500D01*
X54679055Y67899500D01*
X54679057Y67899500D01*
X54831784Y67940423D01*
X54968716Y68019480D01*
X55080520Y68131284D01*
X55159577Y68268216D01*
X55200500Y68420943D01*
X55200500Y68579057D01*
X55159577Y68731784D01*
X55159573Y68731791D01*
X55080524Y68868710D01*
X55080518Y68868718D01*
X54968717Y68980519D01*
X54968709Y68980525D01*
X54831790Y69059574D01*
X54831786Y69059576D01*
X54831784Y69059577D01*
X54679057Y69100500D01*
X54520943Y69100500D01*
X54368216Y69059577D01*
X54368209Y69059574D01*
X54231290Y68980525D01*
X54231282Y68980519D01*
X54119481Y68868718D01*
X54119475Y68868710D01*
X54040426Y68731791D01*
X54040423Y68731784D01*
X53999500Y68579057D01*
X44100500Y68579057D01*
X44059577Y68731784D01*
X44059573Y68731791D01*
X43980524Y68868710D01*
X43980518Y68868718D01*
X43868717Y68980519D01*
X43868709Y68980525D01*
X43731790Y69059574D01*
X43731786Y69059576D01*
X43731784Y69059577D01*
X43579057Y69100500D01*
X43420943Y69100500D01*
X43268216Y69059577D01*
X43268209Y69059574D01*
X43131290Y68980525D01*
X43131282Y68980519D01*
X43019481Y68868718D01*
X43019475Y68868710D01*
X42940426Y68731791D01*
X42940423Y68731784D01*
X42899500Y68579057D01*
X23700499Y68579057D01*
X23659576Y68731784D01*
X23659572Y68731791D01*
X23580523Y68868710D01*
X23580517Y68868718D01*
X23468716Y68980519D01*
X23468708Y68980525D01*
X23331789Y69059574D01*
X23331785Y69059576D01*
X23331783Y69059577D01*
X23179056Y69100500D01*
X23020942Y69100500D01*
X22868215Y69059577D01*
X22868208Y69059574D01*
X22731289Y68980525D01*
X22731281Y68980519D01*
X22619480Y68868718D01*
X22619474Y68868710D01*
X22540425Y68731791D01*
X22540422Y68731784D01*
X22499499Y68579057D01*
X1000000Y68579057D01*
X1000000Y83090552D01*
X18949500Y83090552D01*
X18949500Y82909449D01*
X18977829Y82730590D01*
X19033787Y82558364D01*
X19033788Y82558361D01*
X19116006Y82397003D01*
X19222441Y82250506D01*
X19222445Y82250501D01*
X19350500Y82122446D01*
X19350505Y82122442D01*
X19478287Y82029604D01*
X19497006Y82016004D01*
X19602484Y81962260D01*
X19658360Y81933789D01*
X19658363Y81933788D01*
X19744476Y81905809D01*
X19830591Y81877829D01*
X19913429Y81864709D01*
X20009449Y81849500D01*
X20009454Y81849500D01*
X20190551Y81849500D01*
X20277259Y81863235D01*
X20369409Y81877829D01*
X20541639Y81933789D01*
X20702994Y82016004D01*
X20849501Y82122447D01*
X20977553Y82250499D01*
X21083996Y82397006D01*
X21166211Y82558361D01*
X21222171Y82730591D01*
X21236765Y82822741D01*
X21250500Y82909449D01*
X21250500Y83090552D01*
X38949500Y83090552D01*
X38949500Y82909449D01*
X38977829Y82730590D01*
X39033787Y82558364D01*
X39033788Y82558361D01*
X39116006Y82397003D01*
X39222441Y82250506D01*
X39222445Y82250501D01*
X39350500Y82122446D01*
X39350505Y82122442D01*
X39478287Y82029604D01*
X39497006Y82016004D01*
X39602484Y81962260D01*
X39658360Y81933789D01*
X39658363Y81933788D01*
X39744476Y81905809D01*
X39830591Y81877829D01*
X39913429Y81864709D01*
X40009449Y81849500D01*
X40009454Y81849500D01*
X40190551Y81849500D01*
X40277259Y81863235D01*
X40369409Y81877829D01*
X40541639Y81933789D01*
X40702994Y82016004D01*
X40849501Y82122447D01*
X40977553Y82250499D01*
X41083996Y82397006D01*
X41166211Y82558361D01*
X41222171Y82730591D01*
X41236765Y82822741D01*
X41250500Y82909449D01*
X41250500Y83090552D01*
X58949500Y83090552D01*
X58949500Y82909449D01*
X58977829Y82730590D01*
X59033787Y82558364D01*
X59033788Y82558361D01*
X59116006Y82397003D01*
X59222441Y82250506D01*
X59222445Y82250501D01*
X59350500Y82122446D01*
X59350505Y82122442D01*
X59478287Y82029604D01*
X59497006Y82016004D01*
X59602484Y81962260D01*
X59658360Y81933789D01*
X59658363Y81933788D01*
X59744476Y81905809D01*
X59830591Y81877829D01*
X59913429Y81864709D01*
X60009449Y81849500D01*
X60009454Y81849500D01*
X60190551Y81849500D01*
X60277259Y81863235D01*
X60369409Y81877829D01*
X60541639Y81933789D01*
X60702994Y82016004D01*
X60849501Y82122447D01*
X60977553Y82250499D01*
X61083996Y82397006D01*
X61166211Y82558361D01*
X61222171Y82730591D01*
X61236765Y82822741D01*
X61250500Y82909449D01*
X61250500Y83090552D01*
X78949500Y83090552D01*
X78949500Y82909449D01*
X78977829Y82730590D01*
X79033787Y82558364D01*
X79033788Y82558361D01*
X79116006Y82397003D01*
X79222441Y82250506D01*
X79222445Y82250501D01*
X79350500Y82122446D01*
X79350505Y82122442D01*
X79478287Y82029604D01*
X79497006Y82016004D01*
X79602484Y81962260D01*
X79658360Y81933789D01*
X79658363Y81933788D01*
X79744476Y81905809D01*
X79830591Y81877829D01*
X79913429Y81864709D01*
X80009449Y81849500D01*
X80009454Y81849500D01*
X80190551Y81849500D01*
X80277259Y81863235D01*
X80369409Y81877829D01*
X80541639Y81933789D01*
X80702994Y82016004D01*
X80849501Y82122447D01*
X80977553Y82250499D01*
X81083996Y82397006D01*
X81166211Y82558361D01*
X81222171Y82730591D01*
X81236765Y82822741D01*
X81250500Y82909449D01*
X81250500Y83090552D01*
X98949500Y83090552D01*
X98949500Y82909449D01*
X98977829Y82730590D01*
X99033787Y82558364D01*
X99033788Y82558361D01*
X99116006Y82397003D01*
X99222441Y82250506D01*
X99222445Y82250501D01*
X99350500Y82122446D01*
X99350505Y82122442D01*
X99478287Y82029604D01*
X99497006Y82016004D01*
X99602484Y81962260D01*
X99658360Y81933789D01*
X99658363Y81933788D01*
X99744476Y81905809D01*
X99830591Y81877829D01*
X99913429Y81864709D01*
X100009449Y81849500D01*
X100009454Y81849500D01*
X100190551Y81849500D01*
X100277259Y81863235D01*
X100369409Y81877829D01*
X100541639Y81933789D01*
X100702994Y82016004D01*
X100849501Y82122447D01*
X100977553Y82250499D01*
X101083996Y82397006D01*
X101166211Y82558361D01*
X101222171Y82730591D01*
X101236765Y82822741D01*
X101250500Y82909449D01*
X101250500Y83090552D01*
X118949500Y83090552D01*
X118949500Y82909449D01*
X118977829Y82730590D01*
X119033787Y82558364D01*
X119033788Y82558361D01*
X119116006Y82397003D01*
X119222441Y82250506D01*
X119222445Y82250501D01*
X119350500Y82122446D01*
X119350505Y82122442D01*
X119478287Y82029604D01*
X119497006Y82016004D01*
X119602484Y81962260D01*
X119658360Y81933789D01*
X119658363Y81933788D01*
X119744476Y81905809D01*
X119830591Y81877829D01*
X119913429Y81864709D01*
X120009449Y81849500D01*
X120009454Y81849500D01*
X120190551Y81849500D01*
X120277259Y81863235D01*
X120369409Y81877829D01*
X120541639Y81933789D01*
X120702994Y82016004D01*
X120849501Y82122447D01*
X120977553Y82250499D01*
X121083996Y82397006D01*
X121166211Y82558361D01*
X121222171Y82730591D01*
X121236765Y82822741D01*
X121250500Y82909449D01*
X121250500Y83090552D01*
X121234019Y83194603D01*
X121222171Y83269409D01*
X121166211Y83441639D01*
X121166211Y83441640D01*
X121137740Y83497516D01*
X121083996Y83602994D01*
X121070396Y83621713D01*
X120977558Y83749495D01*
X120977554Y83749500D01*
X120849499Y83877555D01*
X120849494Y83877559D01*
X120702997Y83983994D01*
X120702996Y83983995D01*
X120702994Y83983996D01*
X120640169Y84016007D01*
X120541639Y84066212D01*
X120541636Y84066213D01*
X120369410Y84122171D01*
X120190551Y84150500D01*
X120190546Y84150500D01*
X120009454Y84150500D01*
X120009449Y84150500D01*
X119830589Y84122171D01*
X119658363Y84066213D01*
X119658360Y84066212D01*
X119497002Y83983994D01*
X119350505Y83877559D01*
X119350500Y83877555D01*
X119222445Y83749500D01*
X119222441Y83749495D01*
X119116006Y83602998D01*
X119033788Y83441640D01*
X119033787Y83441637D01*
X118977829Y83269411D01*
X118949500Y83090552D01*
X101250500Y83090552D01*
X101234019Y83194603D01*
X101222171Y83269409D01*
X101166211Y83441639D01*
X101166211Y83441640D01*
X101137740Y83497516D01*
X101083996Y83602994D01*
X101070396Y83621713D01*
X100977558Y83749495D01*
X100977554Y83749500D01*
X100849499Y83877555D01*
X100849494Y83877559D01*
X100702997Y83983994D01*
X100702996Y83983995D01*
X100702994Y83983996D01*
X100640169Y84016007D01*
X100541639Y84066212D01*
X100541636Y84066213D01*
X100369410Y84122171D01*
X100190551Y84150500D01*
X100190546Y84150500D01*
X100009454Y84150500D01*
X100009449Y84150500D01*
X99830589Y84122171D01*
X99658363Y84066213D01*
X99658360Y84066212D01*
X99497002Y83983994D01*
X99350505Y83877559D01*
X99350500Y83877555D01*
X99222445Y83749500D01*
X99222441Y83749495D01*
X99116006Y83602998D01*
X99033788Y83441640D01*
X99033787Y83441637D01*
X98977829Y83269411D01*
X98949500Y83090552D01*
X81250500Y83090552D01*
X81234019Y83194603D01*
X81222171Y83269409D01*
X81166211Y83441639D01*
X81166211Y83441640D01*
X81137740Y83497516D01*
X81083996Y83602994D01*
X81070396Y83621713D01*
X80977558Y83749495D01*
X80977554Y83749500D01*
X80849499Y83877555D01*
X80849494Y83877559D01*
X80702997Y83983994D01*
X80702996Y83983995D01*
X80702994Y83983996D01*
X80640169Y84016007D01*
X80541639Y84066212D01*
X80541636Y84066213D01*
X80369410Y84122171D01*
X80190551Y84150500D01*
X80190546Y84150500D01*
X80009454Y84150500D01*
X80009449Y84150500D01*
X79830589Y84122171D01*
X79658363Y84066213D01*
X79658360Y84066212D01*
X79497002Y83983994D01*
X79350505Y83877559D01*
X79350500Y83877555D01*
X79222445Y83749500D01*
X79222441Y83749495D01*
X79116006Y83602998D01*
X79033788Y83441640D01*
X79033787Y83441637D01*
X78977829Y83269411D01*
X78949500Y83090552D01*
X61250500Y83090552D01*
X61234019Y83194603D01*
X61222171Y83269409D01*
X61166211Y83441639D01*
X61166211Y83441640D01*
X61137740Y83497516D01*
X61083996Y83602994D01*
X61070396Y83621713D01*
X60977558Y83749495D01*
X60977554Y83749500D01*
X60849499Y83877555D01*
X60849494Y83877559D01*
X60702997Y83983994D01*
X60702996Y83983995D01*
X60702994Y83983996D01*
X60640169Y84016007D01*
X60541639Y84066212D01*
X60541636Y84066213D01*
X60369410Y84122171D01*
X60190551Y84150500D01*
X60190546Y84150500D01*
X60009454Y84150500D01*
X60009449Y84150500D01*
X59830589Y84122171D01*
X59658363Y84066213D01*
X59658360Y84066212D01*
X59497002Y83983994D01*
X59350505Y83877559D01*
X59350500Y83877555D01*
X59222445Y83749500D01*
X59222441Y83749495D01*
X59116006Y83602998D01*
X59033788Y83441640D01*
X59033787Y83441637D01*
X58977829Y83269411D01*
X58949500Y83090552D01*
X41250500Y83090552D01*
X41234019Y83194603D01*
X41222171Y83269409D01*
X41166211Y83441639D01*
X41166211Y83441640D01*
X41137740Y83497516D01*
X41083996Y83602994D01*
X41070396Y83621713D01*
X40977558Y83749495D01*
X40977554Y83749500D01*
X40849499Y83877555D01*
X40849494Y83877559D01*
X40702997Y83983994D01*
X40702996Y83983995D01*
X40702994Y83983996D01*
X40640169Y84016007D01*
X40541639Y84066212D01*
X40541636Y84066213D01*
X40369410Y84122171D01*
X40190551Y84150500D01*
X40190546Y84150500D01*
X40009454Y84150500D01*
X40009449Y84150500D01*
X39830589Y84122171D01*
X39658363Y84066213D01*
X39658360Y84066212D01*
X39497002Y83983994D01*
X39350505Y83877559D01*
X39350500Y83877555D01*
X39222445Y83749500D01*
X39222441Y83749495D01*
X39116006Y83602998D01*
X39033788Y83441640D01*
X39033787Y83441637D01*
X38977829Y83269411D01*
X38949500Y83090552D01*
X21250500Y83090552D01*
X21234019Y83194603D01*
X21222171Y83269409D01*
X21166211Y83441639D01*
X21166211Y83441640D01*
X21137740Y83497516D01*
X21083996Y83602994D01*
X21070396Y83621713D01*
X20977558Y83749495D01*
X20977554Y83749500D01*
X20849499Y83877555D01*
X20849494Y83877559D01*
X20702997Y83983994D01*
X20702996Y83983995D01*
X20702994Y83983996D01*
X20640169Y84016007D01*
X20541639Y84066212D01*
X20541636Y84066213D01*
X20369410Y84122171D01*
X20190551Y84150500D01*
X20190546Y84150500D01*
X20009454Y84150500D01*
X20009449Y84150500D01*
X19830589Y84122171D01*
X19658363Y84066213D01*
X19658360Y84066212D01*
X19497002Y83983994D01*
X19350505Y83877559D01*
X19350500Y83877555D01*
X19222445Y83749500D01*
X19222441Y83749495D01*
X19116006Y83602998D01*
X19033788Y83441640D01*
X19033787Y83441637D01*
X18977829Y83269411D01*
X18949500Y83090552D01*
X1000000Y83090552D01*
X1000000Y85090552D01*
X8749500Y85090552D01*
X8749500Y84909449D01*
X8777829Y84730590D01*
X8833787Y84558364D01*
X8833788Y84558361D01*
X8916006Y84397003D01*
X9022441Y84250506D01*
X9022445Y84250501D01*
X9150500Y84122446D01*
X9150505Y84122442D01*
X9278287Y84029604D01*
X9297006Y84016004D01*
X9402484Y83962260D01*
X9458360Y83933789D01*
X9458363Y83933788D01*
X9544476Y83905809D01*
X9630591Y83877829D01*
X9713429Y83864709D01*
X9809449Y83849500D01*
X9809454Y83849500D01*
X9990551Y83849500D01*
X10077259Y83863235D01*
X10169409Y83877829D01*
X10341639Y83933789D01*
X10502994Y84016004D01*
X10649501Y84122447D01*
X10777553Y84250499D01*
X10883996Y84397006D01*
X10966211Y84558361D01*
X11022171Y84730591D01*
X11036765Y84822741D01*
X11050500Y84909449D01*
X11050500Y85090552D01*
X28749500Y85090552D01*
X28749500Y84909449D01*
X28777829Y84730590D01*
X28833787Y84558364D01*
X28833788Y84558361D01*
X28916006Y84397003D01*
X29022441Y84250506D01*
X29022445Y84250501D01*
X29150500Y84122446D01*
X29150505Y84122442D01*
X29278287Y84029604D01*
X29297006Y84016004D01*
X29402484Y83962260D01*
X29458360Y83933789D01*
X29458363Y83933788D01*
X29544476Y83905809D01*
X29630591Y83877829D01*
X29713429Y83864709D01*
X29809449Y83849500D01*
X29809454Y83849500D01*
X29990551Y83849500D01*
X30077259Y83863235D01*
X30169409Y83877829D01*
X30341639Y83933789D01*
X30502994Y84016004D01*
X30649501Y84122447D01*
X30777553Y84250499D01*
X30883996Y84397006D01*
X30966211Y84558361D01*
X31022171Y84730591D01*
X31036765Y84822741D01*
X31050500Y84909449D01*
X31050500Y85090552D01*
X48749500Y85090552D01*
X48749500Y84909449D01*
X48777829Y84730590D01*
X48833787Y84558364D01*
X48833788Y84558361D01*
X48916006Y84397003D01*
X49022441Y84250506D01*
X49022445Y84250501D01*
X49150500Y84122446D01*
X49150505Y84122442D01*
X49278287Y84029604D01*
X49297006Y84016004D01*
X49402484Y83962260D01*
X49458360Y83933789D01*
X49458363Y83933788D01*
X49544476Y83905809D01*
X49630591Y83877829D01*
X49713429Y83864709D01*
X49809449Y83849500D01*
X49809454Y83849500D01*
X49990551Y83849500D01*
X50077259Y83863235D01*
X50169409Y83877829D01*
X50341639Y83933789D01*
X50502994Y84016004D01*
X50649501Y84122447D01*
X50777553Y84250499D01*
X50883996Y84397006D01*
X50966211Y84558361D01*
X51022171Y84730591D01*
X51036765Y84822741D01*
X51050500Y84909449D01*
X51050500Y85090552D01*
X68749500Y85090552D01*
X68749500Y84909449D01*
X68777829Y84730590D01*
X68833787Y84558364D01*
X68833788Y84558361D01*
X68916006Y84397003D01*
X69022441Y84250506D01*
X69022445Y84250501D01*
X69150500Y84122446D01*
X69150505Y84122442D01*
X69278287Y84029604D01*
X69297006Y84016004D01*
X69402484Y83962260D01*
X69458360Y83933789D01*
X69458363Y83933788D01*
X69544476Y83905809D01*
X69630591Y83877829D01*
X69713429Y83864709D01*
X69809449Y83849500D01*
X69809454Y83849500D01*
X69990551Y83849500D01*
X70077259Y83863235D01*
X70169409Y83877829D01*
X70341639Y83933789D01*
X70502994Y84016004D01*
X70649501Y84122447D01*
X70777553Y84250499D01*
X70883996Y84397006D01*
X70966211Y84558361D01*
X71022171Y84730591D01*
X71036765Y84822741D01*
X71050500Y84909449D01*
X71050500Y85090552D01*
X88749500Y85090552D01*
X88749500Y84909449D01*
X88777829Y84730590D01*
X88833787Y84558364D01*
X88833788Y84558361D01*
X88916006Y84397003D01*
X89022441Y84250506D01*
X89022445Y84250501D01*
X89150500Y84122446D01*
X89150505Y84122442D01*
X89278287Y84029604D01*
X89297006Y84016004D01*
X89402484Y83962260D01*
X89458360Y83933789D01*
X89458363Y83933788D01*
X89544476Y83905809D01*
X89630591Y83877829D01*
X89713429Y83864709D01*
X89809449Y83849500D01*
X89809454Y83849500D01*
X89990551Y83849500D01*
X90077259Y83863235D01*
X90169409Y83877829D01*
X90341639Y83933789D01*
X90502994Y84016004D01*
X90649501Y84122447D01*
X90777553Y84250499D01*
X90883996Y84397006D01*
X90966211Y84558361D01*
X91022171Y84730591D01*
X91036765Y84822741D01*
X91050500Y84909449D01*
X91050500Y85090552D01*
X108749500Y85090552D01*
X108749500Y84909449D01*
X108777829Y84730590D01*
X108833787Y84558364D01*
X108833788Y84558361D01*
X108916006Y84397003D01*
X109022441Y84250506D01*
X109022445Y84250501D01*
X109150500Y84122446D01*
X109150505Y84122442D01*
X109278287Y84029604D01*
X109297006Y84016004D01*
X109402484Y83962260D01*
X109458360Y83933789D01*
X109458363Y83933788D01*
X109544476Y83905809D01*
X109630591Y83877829D01*
X109713429Y83864709D01*
X109809449Y83849500D01*
X109809454Y83849500D01*
X109990551Y83849500D01*
X110077259Y83863235D01*
X110169409Y83877829D01*
X110341639Y83933789D01*
X110502994Y84016004D01*
X110649501Y84122447D01*
X110777553Y84250499D01*
X110883996Y84397006D01*
X110966211Y84558361D01*
X111022171Y84730591D01*
X111036765Y84822741D01*
X111050500Y84909449D01*
X111050500Y85090552D01*
X111034019Y85194603D01*
X111022171Y85269409D01*
X110966211Y85441639D01*
X110966211Y85441640D01*
X110937740Y85497516D01*
X110883996Y85602994D01*
X110870396Y85621713D01*
X110777558Y85749495D01*
X110777554Y85749500D01*
X110649499Y85877555D01*
X110649494Y85877559D01*
X110502997Y85983994D01*
X110502996Y85983995D01*
X110502994Y85983996D01*
X110451300Y86010336D01*
X110341639Y86066212D01*
X110341636Y86066213D01*
X110169410Y86122171D01*
X109990551Y86150500D01*
X109990546Y86150500D01*
X109809454Y86150500D01*
X109809449Y86150500D01*
X109630589Y86122171D01*
X109458363Y86066213D01*
X109458360Y86066212D01*
X109297002Y85983994D01*
X109150505Y85877559D01*
X109150500Y85877555D01*
X109022445Y85749500D01*
X109022441Y85749495D01*
X108916006Y85602998D01*
X108833788Y85441640D01*
X108833787Y85441637D01*
X108777829Y85269411D01*
X108749500Y85090552D01*
X91050500Y85090552D01*
X91034019Y85194603D01*
X91022171Y85269409D01*
X90966211Y85441639D01*
X90966211Y85441640D01*
X90937740Y85497516D01*
X90883996Y85602994D01*
X90870396Y85621713D01*
X90777558Y85749495D01*
X90777554Y85749500D01*
X90649499Y85877555D01*
X90649494Y85877559D01*
X90502997Y85983994D01*
X90502996Y85983995D01*
X90502994Y85983996D01*
X90451300Y86010336D01*
X90341639Y86066212D01*
X90341636Y86066213D01*
X90169410Y86122171D01*
X89990551Y86150500D01*
X89990546Y86150500D01*
X89809454Y86150500D01*
X89809449Y86150500D01*
X89630589Y86122171D01*
X89458363Y86066213D01*
X89458360Y86066212D01*
X89297002Y85983994D01*
X89150505Y85877559D01*
X89150500Y85877555D01*
X89022445Y85749500D01*
X89022441Y85749495D01*
X88916006Y85602998D01*
X88833788Y85441640D01*
X88833787Y85441637D01*
X88777829Y85269411D01*
X88749500Y85090552D01*
X71050500Y85090552D01*
X71034019Y85194603D01*
X71022171Y85269409D01*
X70966211Y85441639D01*
X70966211Y85441640D01*
X70937740Y85497516D01*
X70883996Y85602994D01*
X70870396Y85621713D01*
X70777558Y85749495D01*
X70777554Y85749500D01*
X70649499Y85877555D01*
X70649494Y85877559D01*
X70502997Y85983994D01*
X70502996Y85983995D01*
X70502994Y85983996D01*
X70451300Y86010336D01*
X70341639Y86066212D01*
X70341636Y86066213D01*
X70169410Y86122171D01*
X69990551Y86150500D01*
X69990546Y86150500D01*
X69809454Y86150500D01*
X69809449Y86150500D01*
X69630589Y86122171D01*
X69458363Y86066213D01*
X69458360Y86066212D01*
X69297002Y85983994D01*
X69150505Y85877559D01*
X69150500Y85877555D01*
X69022445Y85749500D01*
X69022441Y85749495D01*
X68916006Y85602998D01*
X68833788Y85441640D01*
X68833787Y85441637D01*
X68777829Y85269411D01*
X68749500Y85090552D01*
X51050500Y85090552D01*
X51034019Y85194603D01*
X51022171Y85269409D01*
X50966211Y85441639D01*
X50966211Y85441640D01*
X50937740Y85497516D01*
X50883996Y85602994D01*
X50870396Y85621713D01*
X50777558Y85749495D01*
X50777554Y85749500D01*
X50649499Y85877555D01*
X50649494Y85877559D01*
X50502997Y85983994D01*
X50502996Y85983995D01*
X50502994Y85983996D01*
X50451300Y86010336D01*
X50341639Y86066212D01*
X50341636Y86066213D01*
X50169410Y86122171D01*
X49990551Y86150500D01*
X49990546Y86150500D01*
X49809454Y86150500D01*
X49809449Y86150500D01*
X49630589Y86122171D01*
X49458363Y86066213D01*
X49458360Y86066212D01*
X49297002Y85983994D01*
X49150505Y85877559D01*
X49150500Y85877555D01*
X49022445Y85749500D01*
X49022441Y85749495D01*
X48916006Y85602998D01*
X48833788Y85441640D01*
X48833787Y85441637D01*
X48777829Y85269411D01*
X48749500Y85090552D01*
X31050500Y85090552D01*
X31034019Y85194603D01*
X31022171Y85269409D01*
X30966211Y85441639D01*
X30966211Y85441640D01*
X30937740Y85497516D01*
X30883996Y85602994D01*
X30870396Y85621713D01*
X30777558Y85749495D01*
X30777554Y85749500D01*
X30649499Y85877555D01*
X30649494Y85877559D01*
X30502997Y85983994D01*
X30502996Y85983995D01*
X30502994Y85983996D01*
X30451300Y86010336D01*
X30341639Y86066212D01*
X30341636Y86066213D01*
X30169410Y86122171D01*
X29990551Y86150500D01*
X29990546Y86150500D01*
X29809454Y86150500D01*
X29809449Y86150500D01*
X29630589Y86122171D01*
X29458363Y86066213D01*
X29458360Y86066212D01*
X29297002Y85983994D01*
X29150505Y85877559D01*
X29150500Y85877555D01*
X29022445Y85749500D01*
X29022441Y85749495D01*
X28916006Y85602998D01*
X28833788Y85441640D01*
X28833787Y85441637D01*
X28777829Y85269411D01*
X28749500Y85090552D01*
X11050500Y85090552D01*
X11034019Y85194603D01*
X11022171Y85269409D01*
X10966211Y85441639D01*
X10966211Y85441640D01*
X10937740Y85497516D01*
X10883996Y85602994D01*
X10870396Y85621713D01*
X10777558Y85749495D01*
X10777554Y85749500D01*
X10649499Y85877555D01*
X10649494Y85877559D01*
X10502997Y85983994D01*
X10502996Y85983995D01*
X10502994Y85983996D01*
X10451300Y86010336D01*
X10341639Y86066212D01*
X10341636Y86066213D01*
X10169410Y86122171D01*
X9990551Y86150500D01*
X9990546Y86150500D01*
X9809454Y86150500D01*
X9809449Y86150500D01*
X9630589Y86122171D01*
X9458363Y86066213D01*
X9458360Y86066212D01*
X9297002Y85983994D01*
X9150505Y85877559D01*
X9150500Y85877555D01*
X9022445Y85749500D01*
X9022441Y85749495D01*
X8916006Y85602998D01*
X8833788Y85441640D01*
X8833787Y85441637D01*
X8777829Y85269411D01*
X8749500Y85090552D01*
X1000000Y85090552D01*
X1000000Y96000003D01*
X1400000Y96000003D01*
X1400000Y95999998D01*
X1597911Y95005027D01*
X1597912Y95005026D01*
X1597912Y95005025D01*
X1597913Y95005024D01*
X2161522Y94161523D01*
X3005023Y93597914D01*
X3005026Y93597914D01*
X3005027Y93597913D01*
X3999998Y93400000D01*
X4000000Y93400000D01*
X4000002Y93400000D01*
X4994971Y93597913D01*
X4994971Y93597914D01*
X4994976Y93597914D01*
X5838477Y94161523D01*
X6402086Y95005024D01*
X6402087Y95005029D01*
X6522469Y95610222D01*
X8599500Y95610222D01*
X8599500Y95389779D01*
X8633985Y95172048D01*
X8702103Y94962397D01*
X8702104Y94962394D01*
X8802187Y94765975D01*
X8931752Y94587642D01*
X8931756Y94587637D01*
X9087636Y94431757D01*
X9087641Y94431753D01*
X9243192Y94318740D01*
X9265978Y94302185D01*
X9394375Y94236763D01*
X9462393Y94202105D01*
X9462396Y94202104D01*
X9567221Y94168045D01*
X9672049Y94133985D01*
X9889778Y94099500D01*
X9889779Y94099500D01*
X10110221Y94099500D01*
X10110222Y94099500D01*
X10327951Y94133985D01*
X10537606Y94202105D01*
X10734022Y94302185D01*
X10912365Y94431758D01*
X11068242Y94587635D01*
X11197815Y94765978D01*
X11297895Y94962394D01*
X11366015Y95172049D01*
X11400500Y95389778D01*
X11400500Y95610222D01*
X13599500Y95610222D01*
X13599500Y95389779D01*
X13633985Y95172048D01*
X13702103Y94962397D01*
X13702104Y94962394D01*
X13802187Y94765975D01*
X13931752Y94587642D01*
X13931756Y94587637D01*
X14087636Y94431757D01*
X14087641Y94431753D01*
X14243192Y94318740D01*
X14265978Y94302185D01*
X14394375Y94236763D01*
X14462393Y94202105D01*
X14462396Y94202104D01*
X14567221Y94168045D01*
X14672049Y94133985D01*
X14889778Y94099500D01*
X14889779Y94099500D01*
X15110221Y94099500D01*
X15110222Y94099500D01*
X15327951Y94133985D01*
X15537606Y94202105D01*
X15734022Y94302185D01*
X15912365Y94431758D01*
X16068242Y94587635D01*
X16197815Y94765978D01*
X16297895Y94962394D01*
X16366015Y95172049D01*
X16400500Y95389778D01*
X16400500Y95610222D01*
X28599500Y95610222D01*
X28599500Y95389779D01*
X28633985Y95172048D01*
X28702103Y94962397D01*
X28702104Y94962394D01*
X28802187Y94765975D01*
X28931752Y94587642D01*
X28931756Y94587637D01*
X29087636Y94431757D01*
X29087641Y94431753D01*
X29243192Y94318740D01*
X29265978Y94302185D01*
X29394375Y94236763D01*
X29462393Y94202105D01*
X29462396Y94202104D01*
X29567221Y94168045D01*
X29672049Y94133985D01*
X29889778Y94099500D01*
X29889779Y94099500D01*
X30110221Y94099500D01*
X30110222Y94099500D01*
X30327951Y94133985D01*
X30537606Y94202105D01*
X30734022Y94302185D01*
X30912365Y94431758D01*
X31068242Y94587635D01*
X31197815Y94765978D01*
X31297895Y94962394D01*
X31366015Y95172049D01*
X31400500Y95389778D01*
X31400500Y95610222D01*
X33599500Y95610222D01*
X33599500Y95389779D01*
X33633985Y95172048D01*
X33702103Y94962397D01*
X33702104Y94962394D01*
X33802187Y94765975D01*
X33931752Y94587642D01*
X33931756Y94587637D01*
X34087636Y94431757D01*
X34087641Y94431753D01*
X34243192Y94318740D01*
X34265978Y94302185D01*
X34394375Y94236763D01*
X34462393Y94202105D01*
X34462396Y94202104D01*
X34567221Y94168045D01*
X34672049Y94133985D01*
X34889778Y94099500D01*
X34889779Y94099500D01*
X35110221Y94099500D01*
X35110222Y94099500D01*
X35327951Y94133985D01*
X35537606Y94202105D01*
X35734022Y94302185D01*
X35912365Y94431758D01*
X36068242Y94587635D01*
X36197815Y94765978D01*
X36297895Y94962394D01*
X36366015Y95172049D01*
X36400500Y95389778D01*
X36400500Y95610222D01*
X48599500Y95610222D01*
X48599500Y95389779D01*
X48633985Y95172048D01*
X48702103Y94962397D01*
X48702104Y94962394D01*
X48802187Y94765975D01*
X48931752Y94587642D01*
X48931756Y94587637D01*
X49087636Y94431757D01*
X49087641Y94431753D01*
X49243192Y94318740D01*
X49265978Y94302185D01*
X49394375Y94236763D01*
X49462393Y94202105D01*
X49462396Y94202104D01*
X49567221Y94168045D01*
X49672049Y94133985D01*
X49889778Y94099500D01*
X49889779Y94099500D01*
X50110221Y94099500D01*
X50110222Y94099500D01*
X50327951Y94133985D01*
X50537606Y94202105D01*
X50734022Y94302185D01*
X50912365Y94431758D01*
X51068242Y94587635D01*
X51197815Y94765978D01*
X51297895Y94962394D01*
X51366015Y95172049D01*
X51400500Y95389778D01*
X51400500Y95610222D01*
X53599500Y95610222D01*
X53599500Y95389779D01*
X53633985Y95172048D01*
X53702103Y94962397D01*
X53702104Y94962394D01*
X53802187Y94765975D01*
X53931752Y94587642D01*
X53931756Y94587637D01*
X54087636Y94431757D01*
X54087641Y94431753D01*
X54243192Y94318740D01*
X54265978Y94302185D01*
X54394375Y94236763D01*
X54462393Y94202105D01*
X54462396Y94202104D01*
X54567221Y94168045D01*
X54672049Y94133985D01*
X54889778Y94099500D01*
X54889779Y94099500D01*
X55110221Y94099500D01*
X55110222Y94099500D01*
X55327951Y94133985D01*
X55537606Y94202105D01*
X55734022Y94302185D01*
X55912365Y94431758D01*
X56068242Y94587635D01*
X56197815Y94765978D01*
X56297895Y94962394D01*
X56366015Y95172049D01*
X56400500Y95389778D01*
X56400500Y95610222D01*
X68599500Y95610222D01*
X68599500Y95389779D01*
X68633985Y95172048D01*
X68702103Y94962397D01*
X68702104Y94962394D01*
X68802187Y94765975D01*
X68931752Y94587642D01*
X68931756Y94587637D01*
X69087636Y94431757D01*
X69087641Y94431753D01*
X69243192Y94318740D01*
X69265978Y94302185D01*
X69394375Y94236763D01*
X69462393Y94202105D01*
X69462396Y94202104D01*
X69567221Y94168045D01*
X69672049Y94133985D01*
X69889778Y94099500D01*
X69889779Y94099500D01*
X70110221Y94099500D01*
X70110222Y94099500D01*
X70327951Y94133985D01*
X70537606Y94202105D01*
X70734022Y94302185D01*
X70912365Y94431758D01*
X71068242Y94587635D01*
X71197815Y94765978D01*
X71297895Y94962394D01*
X71366015Y95172049D01*
X71400500Y95389778D01*
X71400500Y95610222D01*
X73599500Y95610222D01*
X73599500Y95389779D01*
X73633985Y95172048D01*
X73702103Y94962397D01*
X73702104Y94962394D01*
X73802187Y94765975D01*
X73931752Y94587642D01*
X73931756Y94587637D01*
X74087636Y94431757D01*
X74087641Y94431753D01*
X74243192Y94318740D01*
X74265978Y94302185D01*
X74394375Y94236763D01*
X74462393Y94202105D01*
X74462396Y94202104D01*
X74567221Y94168045D01*
X74672049Y94133985D01*
X74889778Y94099500D01*
X74889779Y94099500D01*
X75110221Y94099500D01*
X75110222Y94099500D01*
X75327951Y94133985D01*
X75537606Y94202105D01*
X75734022Y94302185D01*
X75912365Y94431758D01*
X76068242Y94587635D01*
X76197815Y94765978D01*
X76297895Y94962394D01*
X76366015Y95172049D01*
X76400500Y95389778D01*
X76400500Y95610222D01*
X88599500Y95610222D01*
X88599500Y95389779D01*
X88633985Y95172048D01*
X88702103Y94962397D01*
X88702104Y94962394D01*
X88802187Y94765975D01*
X88931752Y94587642D01*
X88931756Y94587637D01*
X89087636Y94431757D01*
X89087641Y94431753D01*
X89243192Y94318740D01*
X89265978Y94302185D01*
X89394375Y94236763D01*
X89462393Y94202105D01*
X89462396Y94202104D01*
X89567221Y94168045D01*
X89672049Y94133985D01*
X89889778Y94099500D01*
X89889779Y94099500D01*
X90110221Y94099500D01*
X90110222Y94099500D01*
X90327951Y94133985D01*
X90537606Y94202105D01*
X90734022Y94302185D01*
X90912365Y94431758D01*
X91068242Y94587635D01*
X91197815Y94765978D01*
X91297895Y94962394D01*
X91366015Y95172049D01*
X91400500Y95389778D01*
X91400500Y95610222D01*
X93599500Y95610222D01*
X93599500Y95389779D01*
X93633985Y95172048D01*
X93702103Y94962397D01*
X93702104Y94962394D01*
X93802187Y94765975D01*
X93931752Y94587642D01*
X93931756Y94587637D01*
X94087636Y94431757D01*
X94087641Y94431753D01*
X94243192Y94318740D01*
X94265978Y94302185D01*
X94394375Y94236763D01*
X94462393Y94202105D01*
X94462396Y94202104D01*
X94567221Y94168045D01*
X94672049Y94133985D01*
X94889778Y94099500D01*
X94889779Y94099500D01*
X95110221Y94099500D01*
X95110222Y94099500D01*
X95327951Y94133985D01*
X95537606Y94202105D01*
X95734022Y94302185D01*
X95912365Y94431758D01*
X96068242Y94587635D01*
X96197815Y94765978D01*
X96297895Y94962394D01*
X96366015Y95172049D01*
X96400500Y95389778D01*
X96400500Y95610222D01*
X108599500Y95610222D01*
X108599500Y95389779D01*
X108633985Y95172048D01*
X108702103Y94962397D01*
X108702104Y94962394D01*
X108802187Y94765975D01*
X108931752Y94587642D01*
X108931756Y94587637D01*
X109087636Y94431757D01*
X109087641Y94431753D01*
X109243192Y94318740D01*
X109265978Y94302185D01*
X109394375Y94236763D01*
X109462393Y94202105D01*
X109462396Y94202104D01*
X109567221Y94168045D01*
X109672049Y94133985D01*
X109889778Y94099500D01*
X109889779Y94099500D01*
X110110221Y94099500D01*
X110110222Y94099500D01*
X110327951Y94133985D01*
X110537606Y94202105D01*
X110734022Y94302185D01*
X110912365Y94431758D01*
X111068242Y94587635D01*
X111197815Y94765978D01*
X111297895Y94962394D01*
X111366015Y95172049D01*
X111400500Y95389778D01*
X111400500Y95610222D01*
X113599500Y95610222D01*
X113599500Y95389779D01*
X113633985Y95172048D01*
X113702103Y94962397D01*
X113702104Y94962394D01*
X113802187Y94765975D01*
X113931752Y94587642D01*
X113931756Y94587637D01*
X114087636Y94431757D01*
X114087641Y94431753D01*
X114243192Y94318740D01*
X114265978Y94302185D01*
X114394375Y94236763D01*
X114462393Y94202105D01*
X114462396Y94202104D01*
X114567221Y94168045D01*
X114672049Y94133985D01*
X114889778Y94099500D01*
X114889779Y94099500D01*
X115110221Y94099500D01*
X115110222Y94099500D01*
X115327951Y94133985D01*
X115537606Y94202105D01*
X115734022Y94302185D01*
X115912365Y94431758D01*
X116068242Y94587635D01*
X116197815Y94765978D01*
X116297895Y94962394D01*
X116366015Y95172049D01*
X116400500Y95389778D01*
X116400500Y95610222D01*
X116366015Y95827951D01*
X116310114Y95999998D01*
X116310112Y96000003D01*
X123400000Y96000003D01*
X123400000Y95999998D01*
X123597911Y95005027D01*
X123597912Y95005026D01*
X123597912Y95005025D01*
X123597913Y95005024D01*
X124161522Y94161523D01*
X125005023Y93597914D01*
X125005026Y93597914D01*
X125005027Y93597913D01*
X125999998Y93400000D01*
X126000000Y93400000D01*
X126000002Y93400000D01*
X126994971Y93597913D01*
X126994971Y93597914D01*
X126994976Y93597914D01*
X127838477Y94161523D01*
X128402086Y95005024D01*
X128565778Y95827953D01*
X128600000Y95999998D01*
X128600000Y96000003D01*
X128402087Y96994973D01*
X128402086Y96994975D01*
X128402086Y96994977D01*
X127838477Y97838478D01*
X126994976Y98402087D01*
X126994975Y98402088D01*
X126994974Y98402088D01*
X126994973Y98402089D01*
X126000002Y98600000D01*
X125999998Y98600000D01*
X125005025Y98402089D01*
X125005024Y98402088D01*
X124161522Y97838478D01*
X123597912Y96994976D01*
X123597911Y96994975D01*
X123400000Y96000003D01*
X116310112Y96000003D01*
X116297896Y96037604D01*
X116297895Y96037607D01*
X116263237Y96105625D01*
X116197815Y96234022D01*
X116181260Y96256808D01*
X116068247Y96412359D01*
X116068243Y96412364D01*
X115912363Y96568244D01*
X115912358Y96568248D01*
X115734025Y96697813D01*
X115734024Y96697814D01*
X115734022Y96697815D01*
X115671096Y96729878D01*
X115537606Y96797896D01*
X115537603Y96797897D01*
X115327952Y96866015D01*
X115219086Y96883258D01*
X115110222Y96900500D01*
X114889778Y96900500D01*
X114817201Y96889005D01*
X114672047Y96866015D01*
X114462396Y96797897D01*
X114462393Y96797896D01*
X114265974Y96697813D01*
X114087641Y96568248D01*
X114087636Y96568244D01*
X113931756Y96412364D01*
X113931752Y96412359D01*
X113802187Y96234026D01*
X113702104Y96037607D01*
X113702103Y96037604D01*
X113633985Y95827953D01*
X113599500Y95610222D01*
X111400500Y95610222D01*
X111366015Y95827951D01*
X111318596Y95973895D01*
X111297896Y96037604D01*
X111297895Y96037607D01*
X111263237Y96105625D01*
X111197815Y96234022D01*
X111181260Y96256808D01*
X111068247Y96412359D01*
X111068243Y96412364D01*
X110912363Y96568244D01*
X110912358Y96568248D01*
X110734025Y96697813D01*
X110734024Y96697814D01*
X110734022Y96697815D01*
X110671096Y96729878D01*
X110537606Y96797896D01*
X110537603Y96797897D01*
X110327952Y96866015D01*
X110219086Y96883258D01*
X110110222Y96900500D01*
X109889778Y96900500D01*
X109817201Y96889005D01*
X109672047Y96866015D01*
X109462396Y96797897D01*
X109462393Y96797896D01*
X109265974Y96697813D01*
X109087641Y96568248D01*
X109087636Y96568244D01*
X108931756Y96412364D01*
X108931752Y96412359D01*
X108802187Y96234026D01*
X108702104Y96037607D01*
X108702103Y96037604D01*
X108633985Y95827953D01*
X108599500Y95610222D01*
X96400500Y95610222D01*
X96366015Y95827951D01*
X96318596Y95973895D01*
X96297896Y96037604D01*
X96297895Y96037607D01*
X96263237Y96105625D01*
X96197815Y96234022D01*
X96181260Y96256808D01*
X96068247Y96412359D01*
X96068243Y96412364D01*
X95912363Y96568244D01*
X95912358Y96568248D01*
X95734025Y96697813D01*
X95734024Y96697814D01*
X95734022Y96697815D01*
X95671096Y96729878D01*
X95537606Y96797896D01*
X95537603Y96797897D01*
X95327952Y96866015D01*
X95219086Y96883258D01*
X95110222Y96900500D01*
X94889778Y96900500D01*
X94817201Y96889005D01*
X94672047Y96866015D01*
X94462396Y96797897D01*
X94462393Y96797896D01*
X94265974Y96697813D01*
X94087641Y96568248D01*
X94087636Y96568244D01*
X93931756Y96412364D01*
X93931752Y96412359D01*
X93802187Y96234026D01*
X93702104Y96037607D01*
X93702103Y96037604D01*
X93633985Y95827953D01*
X93599500Y95610222D01*
X91400500Y95610222D01*
X91366015Y95827951D01*
X91318596Y95973895D01*
X91297896Y96037604D01*
X91297895Y96037607D01*
X91263237Y96105625D01*
X91197815Y96234022D01*
X91181260Y96256808D01*
X91068247Y96412359D01*
X91068243Y96412364D01*
X90912363Y96568244D01*
X90912358Y96568248D01*
X90734025Y96697813D01*
X90734024Y96697814D01*
X90734022Y96697815D01*
X90671096Y96729878D01*
X90537606Y96797896D01*
X90537603Y96797897D01*
X90327952Y96866015D01*
X90219086Y96883258D01*
X90110222Y96900500D01*
X89889778Y96900500D01*
X89817201Y96889005D01*
X89672047Y96866015D01*
X89462396Y96797897D01*
X89462393Y96797896D01*
X89265974Y96697813D01*
X89087641Y96568248D01*
X89087636Y96568244D01*
X88931756Y96412364D01*
X88931752Y96412359D01*
X88802187Y96234026D01*
X88702104Y96037607D01*
X88702103Y96037604D01*
X88633985Y95827953D01*
X88599500Y95610222D01*
X76400500Y95610222D01*
X76366015Y95827951D01*
X76318596Y95973895D01*
X76297896Y96037604D01*
X76297895Y96037607D01*
X76263237Y96105625D01*
X76197815Y96234022D01*
X76181260Y96256808D01*
X76068247Y96412359D01*
X76068243Y96412364D01*
X75912363Y96568244D01*
X75912358Y96568248D01*
X75734025Y96697813D01*
X75734024Y96697814D01*
X75734022Y96697815D01*
X75671096Y96729878D01*
X75537606Y96797896D01*
X75537603Y96797897D01*
X75327952Y96866015D01*
X75219086Y96883258D01*
X75110222Y96900500D01*
X74889778Y96900500D01*
X74817201Y96889005D01*
X74672047Y96866015D01*
X74462396Y96797897D01*
X74462393Y96797896D01*
X74265974Y96697813D01*
X74087641Y96568248D01*
X74087636Y96568244D01*
X73931756Y96412364D01*
X73931752Y96412359D01*
X73802187Y96234026D01*
X73702104Y96037607D01*
X73702103Y96037604D01*
X73633985Y95827953D01*
X73599500Y95610222D01*
X71400500Y95610222D01*
X71366015Y95827951D01*
X71318596Y95973895D01*
X71297896Y96037604D01*
X71297895Y96037607D01*
X71263237Y96105625D01*
X71197815Y96234022D01*
X71181260Y96256808D01*
X71068247Y96412359D01*
X71068243Y96412364D01*
X70912363Y96568244D01*
X70912358Y96568248D01*
X70734025Y96697813D01*
X70734024Y96697814D01*
X70734022Y96697815D01*
X70671096Y96729878D01*
X70537606Y96797896D01*
X70537603Y96797897D01*
X70327952Y96866015D01*
X70219086Y96883258D01*
X70110222Y96900500D01*
X69889778Y96900500D01*
X69817201Y96889005D01*
X69672047Y96866015D01*
X69462396Y96797897D01*
X69462393Y96797896D01*
X69265974Y96697813D01*
X69087641Y96568248D01*
X69087636Y96568244D01*
X68931756Y96412364D01*
X68931752Y96412359D01*
X68802187Y96234026D01*
X68702104Y96037607D01*
X68702103Y96037604D01*
X68633985Y95827953D01*
X68599500Y95610222D01*
X56400500Y95610222D01*
X56366015Y95827951D01*
X56318596Y95973895D01*
X56297896Y96037604D01*
X56297895Y96037607D01*
X56263237Y96105625D01*
X56197815Y96234022D01*
X56181260Y96256808D01*
X56068247Y96412359D01*
X56068243Y96412364D01*
X55912363Y96568244D01*
X55912358Y96568248D01*
X55734025Y96697813D01*
X55734024Y96697814D01*
X55734022Y96697815D01*
X55671096Y96729878D01*
X55537606Y96797896D01*
X55537603Y96797897D01*
X55327952Y96866015D01*
X55219086Y96883258D01*
X55110222Y96900500D01*
X54889778Y96900500D01*
X54817201Y96889005D01*
X54672047Y96866015D01*
X54462396Y96797897D01*
X54462393Y96797896D01*
X54265974Y96697813D01*
X54087641Y96568248D01*
X54087636Y96568244D01*
X53931756Y96412364D01*
X53931752Y96412359D01*
X53802187Y96234026D01*
X53702104Y96037607D01*
X53702103Y96037604D01*
X53633985Y95827953D01*
X53599500Y95610222D01*
X51400500Y95610222D01*
X51366015Y95827951D01*
X51318596Y95973895D01*
X51297896Y96037604D01*
X51297895Y96037607D01*
X51263237Y96105625D01*
X51197815Y96234022D01*
X51181260Y96256808D01*
X51068247Y96412359D01*
X51068243Y96412364D01*
X50912363Y96568244D01*
X50912358Y96568248D01*
X50734025Y96697813D01*
X50734024Y96697814D01*
X50734022Y96697815D01*
X50671096Y96729878D01*
X50537606Y96797896D01*
X50537603Y96797897D01*
X50327952Y96866015D01*
X50219086Y96883258D01*
X50110222Y96900500D01*
X49889778Y96900500D01*
X49817201Y96889005D01*
X49672047Y96866015D01*
X49462396Y96797897D01*
X49462393Y96797896D01*
X49265974Y96697813D01*
X49087641Y96568248D01*
X49087636Y96568244D01*
X48931756Y96412364D01*
X48931752Y96412359D01*
X48802187Y96234026D01*
X48702104Y96037607D01*
X48702103Y96037604D01*
X48633985Y95827953D01*
X48599500Y95610222D01*
X36400500Y95610222D01*
X36366015Y95827951D01*
X36318596Y95973895D01*
X36297896Y96037604D01*
X36297895Y96037607D01*
X36263237Y96105625D01*
X36197815Y96234022D01*
X36181260Y96256808D01*
X36068247Y96412359D01*
X36068243Y96412364D01*
X35912363Y96568244D01*
X35912358Y96568248D01*
X35734025Y96697813D01*
X35734024Y96697814D01*
X35734022Y96697815D01*
X35671096Y96729878D01*
X35537606Y96797896D01*
X35537603Y96797897D01*
X35327952Y96866015D01*
X35219086Y96883258D01*
X35110222Y96900500D01*
X34889778Y96900500D01*
X34817201Y96889005D01*
X34672047Y96866015D01*
X34462396Y96797897D01*
X34462393Y96797896D01*
X34265974Y96697813D01*
X34087641Y96568248D01*
X34087636Y96568244D01*
X33931756Y96412364D01*
X33931752Y96412359D01*
X33802187Y96234026D01*
X33702104Y96037607D01*
X33702103Y96037604D01*
X33633985Y95827953D01*
X33599500Y95610222D01*
X31400500Y95610222D01*
X31366015Y95827951D01*
X31318596Y95973895D01*
X31297896Y96037604D01*
X31297895Y96037607D01*
X31263237Y96105625D01*
X31197815Y96234022D01*
X31181260Y96256808D01*
X31068247Y96412359D01*
X31068243Y96412364D01*
X30912363Y96568244D01*
X30912358Y96568248D01*
X30734025Y96697813D01*
X30734024Y96697814D01*
X30734022Y96697815D01*
X30671096Y96729878D01*
X30537606Y96797896D01*
X30537603Y96797897D01*
X30327952Y96866015D01*
X30219086Y96883258D01*
X30110222Y96900500D01*
X29889778Y96900500D01*
X29817201Y96889005D01*
X29672047Y96866015D01*
X29462396Y96797897D01*
X29462393Y96797896D01*
X29265974Y96697813D01*
X29087641Y96568248D01*
X29087636Y96568244D01*
X28931756Y96412364D01*
X28931752Y96412359D01*
X28802187Y96234026D01*
X28702104Y96037607D01*
X28702103Y96037604D01*
X28633985Y95827953D01*
X28599500Y95610222D01*
X16400500Y95610222D01*
X16366015Y95827951D01*
X16318596Y95973895D01*
X16297896Y96037604D01*
X16297895Y96037607D01*
X16263237Y96105625D01*
X16197815Y96234022D01*
X16181260Y96256808D01*
X16068247Y96412359D01*
X16068243Y96412364D01*
X15912363Y96568244D01*
X15912358Y96568248D01*
X15734025Y96697813D01*
X15734024Y96697814D01*
X15734022Y96697815D01*
X15671096Y96729878D01*
X15537606Y96797896D01*
X15537603Y96797897D01*
X15327952Y96866015D01*
X15219086Y96883258D01*
X15110222Y96900500D01*
X14889778Y96900500D01*
X14817201Y96889005D01*
X14672047Y96866015D01*
X14462396Y96797897D01*
X14462393Y96797896D01*
X14265974Y96697813D01*
X14087641Y96568248D01*
X14087636Y96568244D01*
X13931756Y96412364D01*
X13931752Y96412359D01*
X13802187Y96234026D01*
X13702104Y96037607D01*
X13702103Y96037604D01*
X13633985Y95827953D01*
X13599500Y95610222D01*
X11400500Y95610222D01*
X11366015Y95827951D01*
X11318596Y95973895D01*
X11297896Y96037604D01*
X11297895Y96037607D01*
X11263237Y96105625D01*
X11197815Y96234022D01*
X11181260Y96256808D01*
X11068247Y96412359D01*
X11068243Y96412364D01*
X10912363Y96568244D01*
X10912358Y96568248D01*
X10734025Y96697813D01*
X10734024Y96697814D01*
X10734022Y96697815D01*
X10671096Y96729878D01*
X10537606Y96797896D01*
X10537603Y96797897D01*
X10327952Y96866015D01*
X10219086Y96883258D01*
X10110222Y96900500D01*
X9889778Y96900500D01*
X9817201Y96889005D01*
X9672047Y96866015D01*
X9462396Y96797897D01*
X9462393Y96797896D01*
X9265974Y96697813D01*
X9087641Y96568248D01*
X9087636Y96568244D01*
X8931756Y96412364D01*
X8931752Y96412359D01*
X8802187Y96234026D01*
X8702104Y96037607D01*
X8702103Y96037604D01*
X8633985Y95827953D01*
X8599500Y95610222D01*
X6522469Y95610222D01*
X6528250Y95639285D01*
X6600000Y95999998D01*
X6600000Y96000003D01*
X6402087Y96994973D01*
X6402086Y96994975D01*
X6402086Y96994977D01*
X5838477Y97838478D01*
X4994976Y98402087D01*
X4994975Y98402088D01*
X4994974Y98402088D01*
X4994973Y98402089D01*
X4000001Y98600000D01*
X3999997Y98600000D01*
X3005025Y98402089D01*
X3005024Y98402088D01*
X2161522Y97838478D01*
X1597912Y96994976D01*
X1597911Y96994975D01*
X1400000Y96000003D01*
X1000000Y96000003D01*
X1000000Y98759488D01*
X1019685Y98826527D01*
X1031529Y98842102D01*
X1086535Y98903653D01*
X1096358Y98913474D01*
X1157886Y98968459D01*
X1220990Y98998453D01*
X1240513Y99000000D01*
X128759487Y99000000D01*
X128826526Y98980315D01*
G37*
%TD.AperFunction*%
%TD*%
M02*
