%TF.GenerationSoftware,KiCad,Pcbnew,10.0.6*%
%TF.CreationDate,2026-09-20T10:24:30-05:00*%
%TF.ProjectId,diffrx,64696666-7278-42e6-9b69-6361645f7063,rev?*%
%TF.SameCoordinates,Original*%
%TF.FileFunction,Copper,L1,Top*%
%TF.FilePolarity,Positive*%
%FSLAX46Y46*%
G04 Gerber Fmt 4.6, Leading zero omitted, Abs format (unit mm)*
G04 Created by KiCad (PCBNEW 10.0.6) date 2026-09-20 10:24:30*
%MOMM*%
%LPD*%
G01*
G04 APERTURE LIST*
G04 Aperture macros list*
%AMRoundRect*
0 Rectangle with rounded corners*
0 $1 Rounding radius*
0 $2 $3 $4 $5 $6 $7 $8 $9 X,Y pos of 4 corners*
0 Add a 4 corners polygon primitive as box body*
4,1,4,$2,$3,$4,$5,$6,$7,$8,$9,$2,$3,0*
0 Add four circle primitives for the rounded corners*
1,1,$1+$1,$2,$3*
1,1,$1+$1,$4,$5*
1,1,$1+$1,$6,$7*
1,1,$1+$1,$8,$9*
0 Add four rect primitives between the rounded corners*
20,1,$1+$1,$2,$3,$4,$5,0*
20,1,$1+$1,$4,$5,$6,$7,0*
20,1,$1+$1,$6,$7,$8,$9,0*
20,1,$1+$1,$8,$9,$2,$3,0*%
G04 Aperture macros list end*
%TA.AperFunction,SMDPad,CuDef*%
%ADD10R,0.950000X1.150000*%
%TD*%
%TA.AperFunction,SMDPad,CuDef*%
%ADD11RoundRect,0.200000X0.200000X0.275000X-0.200000X0.275000X-0.200000X-0.275000X0.200000X-0.275000X0*%
%TD*%
%TA.AperFunction,SMDPad,CuDef*%
%ADD12RoundRect,0.200000X-0.200000X-0.275000X0.200000X-0.275000X0.200000X0.275000X-0.200000X0.275000X0*%
%TD*%
%TA.AperFunction,ComponentPad*%
%ADD13C,2.200000*%
%TD*%
%TA.AperFunction,SMDPad,CuDef*%
%ADD14R,1.300000X2.800000*%
%TD*%
%TA.AperFunction,SMDPad,CuDef*%
%ADD15R,6.000000X6.500000*%
%TD*%
%TA.AperFunction,SMDPad,CuDef*%
%ADD16R,1.037000X0.532000*%
%TD*%
%TA.AperFunction,SMDPad,CuDef*%
%ADD17R,4.200000X1.400000*%
%TD*%
%TA.AperFunction,SMDPad,CuDef*%
%ADD18RoundRect,0.250000X-0.337500X-0.475000X0.337500X-0.475000X0.337500X0.475000X-0.337500X0.475000X0*%
%TD*%
%TA.AperFunction,ComponentPad*%
%ADD19C,1.400000*%
%TD*%
%TA.AperFunction,SMDPad,CuDef*%
%ADD20RoundRect,0.250000X-0.325000X-0.650000X0.325000X-0.650000X0.325000X0.650000X-0.325000X0.650000X0*%
%TD*%
%TA.AperFunction,SMDPad,CuDef*%
%ADD21R,1.000000X1.400000*%
%TD*%
%TA.AperFunction,ComponentPad*%
%ADD22C,1.700000*%
%TD*%
%TA.AperFunction,ComponentPad*%
%ADD23C,2.800000*%
%TD*%
%TA.AperFunction,SMDPad,CuDef*%
%ADD24RoundRect,0.250000X-0.312500X-0.625000X0.312500X-0.625000X0.312500X0.625000X-0.312500X0.625000X0*%
%TD*%
%TA.AperFunction,ComponentPad*%
%ADD25C,11.000000*%
%TD*%
%TA.AperFunction,SMDPad,CuDef*%
%ADD26R,2.700000X3.300000*%
%TD*%
%TA.AperFunction,SMDPad,CuDef*%
%ADD27O,1.971000X0.602000*%
%TD*%
%TA.AperFunction,SMDPad,CuDef*%
%ADD28R,2.465000X1.050000*%
%TD*%
%TA.AperFunction,SMDPad,CuDef*%
%ADD29R,2.465000X3.540000*%
%TD*%
%TA.AperFunction,ViaPad*%
%ADD30C,0.600000*%
%TD*%
%TA.AperFunction,ViaPad*%
%ADD31C,0.800000*%
%TD*%
%TA.AperFunction,Conductor*%
%ADD32C,2.400000*%
%TD*%
%TA.AperFunction,Conductor*%
%ADD33C,0.400000*%
%TD*%
%TA.AperFunction,Conductor*%
%ADD34C,0.300000*%
%TD*%
%TA.AperFunction,Conductor*%
%ADD35C,3.000000*%
%TD*%
%TA.AperFunction,Conductor*%
%ADD36C,0.250000*%
%TD*%
%TA.AperFunction,Conductor*%
%ADD37C,0.200000*%
%TD*%
%TA.AperFunction,Conductor*%
%ADD38C,2.800000*%
%TD*%
%TA.AperFunction,Conductor*%
%ADD39C,0.350000*%
%TD*%
G04 APERTURE END LIST*
D10*
%TO.P,D1,1*%
%TO.N,/VG*%
X108810000Y46500000D03*
%TO.P,D1,2*%
%TO.N,GND*%
X112190000Y46500000D03*
%TD*%
D11*
%TO.P,RL1,1*%
%TO.N,/LK1*%
X15825000Y69000000D03*
%TO.P,RL1,2*%
%TO.N,GND*%
X14175000Y69000000D03*
%TD*%
D12*
%TO.P,RB3,1*%
%TO.N,/P2P*%
X53175000Y45000000D03*
%TO.P,RB3,2*%
%TO.N,GND*%
X54825000Y45000000D03*
%TD*%
D13*
%TO.P,J5,1*%
%TO.N,GND*%
X80000000Y95500000D03*
%TO.P,J5,2*%
%TO.N,/DATA2*%
X75000000Y95500000D03*
%TO.P,J5,3*%
%TO.N,/V4*%
X70000000Y95500000D03*
%TD*%
D14*
%TO.P,Q1,1*%
%TO.N,/VG*%
X70270000Y47290000D03*
D15*
%TO.P,Q1,2*%
%TO.N,/GNDIN*%
X68000000Y40710000D03*
D14*
%TO.P,Q1,3*%
%TO.N,GND*%
X65730000Y47290000D03*
%TD*%
D16*
%TO.P,D6,1*%
%TO.N,/P4P*%
X17100000Y61050000D03*
%TO.P,D6,2*%
%TO.N,/P4N*%
X17100000Y62950000D03*
%TO.P,D6,3*%
%TO.N,GND*%
X14900000Y62000000D03*
%TD*%
D13*
%TO.P,J12,1*%
%TO.N,/V11*%
X30000000Y4500000D03*
%TO.P,J12,2*%
%TO.N,unconnected-(J12-Pin_2-Pad2)*%
X35000000Y4500000D03*
%TO.P,J12,3*%
%TO.N,GND*%
X40000000Y4500000D03*
%TD*%
D17*
%TO.P,C1,1*%
%TO.N,+12V*%
X82730000Y30500000D03*
%TO.P,C1,2*%
%TO.N,GND*%
X89270000Y30500000D03*
%TD*%
D18*
%TO.P,C6,1*%
%TO.N,+5V*%
X40462500Y54450000D03*
%TO.P,C6,2*%
%TO.N,GND*%
X42537500Y54450000D03*
%TD*%
D13*
%TO.P,J2,1*%
%TO.N,GND*%
X20000000Y95500000D03*
%TO.P,J2,2*%
%TO.N,/DATA1*%
X15000000Y95500000D03*
%TO.P,J2,3*%
%TO.N,/V1*%
X10000000Y95500000D03*
%TD*%
D19*
%TO.P,J14,1*%
%TO.N,/P1P*%
X7469999Y46430000D03*
%TO.P,J14,2*%
%TO.N,/P1N*%
X9249999Y47450000D03*
%TO.P,J14,3*%
%TO.N,/P2P*%
X7469999Y48470000D03*
%TO.P,J14,4*%
%TO.N,/P3P*%
X9249999Y49490000D03*
%TO.P,J14,5*%
%TO.N,/P3N*%
X7469999Y50510000D03*
%TO.P,J14,6*%
%TO.N,/P2N*%
X9249999Y51530000D03*
%TO.P,J14,7*%
%TO.N,/P4P*%
X7469999Y52550000D03*
%TO.P,J14,8*%
%TO.N,/P4N*%
X9249999Y53570000D03*
%TD*%
D10*
%TO.P,D7,1*%
%TO.N,+5V*%
X44310000Y28000000D03*
%TO.P,D7,2*%
%TO.N,GND*%
X47690000Y28000000D03*
%TD*%
D12*
%TO.P,RB4,1*%
%TO.N,/P2N*%
X57175000Y45000000D03*
%TO.P,RB4,2*%
%TO.N,+5V*%
X58825000Y45000000D03*
%TD*%
D11*
%TO.P,RL2,1*%
%TO.N,/LK2*%
X26825000Y69000000D03*
%TO.P,RL2,2*%
%TO.N,GND*%
X25175000Y69000000D03*
%TD*%
D20*
%TO.P,C2,1*%
%TO.N,/VREG*%
X98525000Y28000000D03*
%TO.P,C2,2*%
%TO.N,GND*%
X101475000Y28000000D03*
%TD*%
D16*
%TO.P,D3,1*%
%TO.N,/P1P*%
X21100000Y40550000D03*
%TO.P,D3,2*%
%TO.N,/P1N*%
X21100000Y42450000D03*
%TO.P,D3,3*%
%TO.N,GND*%
X18900000Y41500000D03*
%TD*%
D21*
%TO.P,LED2,1*%
%TO.N,/RXD2*%
X22050000Y69000000D03*
%TO.P,LED2,2*%
%TO.N,/LK2*%
X19950000Y69000000D03*
%TD*%
D13*
%TO.P,J4,1*%
%TO.N,GND*%
X60000000Y95500000D03*
%TO.P,J4,2*%
%TO.N,unconnected-(J4-Pin_2-Pad2)*%
X55000000Y95500000D03*
%TO.P,J4,3*%
%TO.N,/V3*%
X50000000Y95500000D03*
%TD*%
D22*
%TO.P,F3,1*%
%TO.N,+12V*%
X60100000Y83000000D03*
%TO.P,F3,2*%
%TO.N,/V3*%
X49900000Y85000000D03*
%TD*%
D16*
%TO.P,D4,1*%
%TO.N,/P2P*%
X45100000Y41050000D03*
%TO.P,D4,2*%
%TO.N,/P2N*%
X45100000Y42950000D03*
%TO.P,D4,3*%
%TO.N,GND*%
X42900000Y42000000D03*
%TD*%
D14*
%TO.P,Q3,1*%
%TO.N,/VG*%
X86270000Y47290000D03*
D15*
%TO.P,Q3,2*%
%TO.N,/GNDIN*%
X84000000Y40710000D03*
D14*
%TO.P,Q3,3*%
%TO.N,GND*%
X81730000Y47290000D03*
%TD*%
D11*
%TO.P,RL3,1*%
%TO.N,/LK3*%
X37825000Y69000000D03*
%TO.P,RL3,2*%
%TO.N,GND*%
X36175000Y69000000D03*
%TD*%
D21*
%TO.P,LED4,1*%
%TO.N,/RXD4*%
X44050000Y69000000D03*
%TO.P,LED4,2*%
%TO.N,/LK4*%
X41950000Y69000000D03*
%TD*%
D11*
%TO.P,RS1,1*%
%TO.N,/RXD1*%
X28825000Y49370000D03*
%TO.P,RS1,2*%
%TO.N,/DATA1*%
X27175000Y49370000D03*
%TD*%
D21*
%TO.P,LED5,1*%
%TO.N,+5V*%
X55050000Y69000000D03*
%TO.P,LED5,2*%
%TO.N,/LK5*%
X52950000Y69000000D03*
%TD*%
D22*
%TO.P,F12,1*%
%TO.N,+12V*%
X49900000Y17000000D03*
%TO.P,F12,2*%
%TO.N,/V12*%
X60100000Y15000000D03*
%TD*%
D23*
%TO.P,J1,1*%
%TO.N,/GNDIN*%
X122400000Y42250000D03*
%TO.P,J1,2*%
%TO.N,/12VIN*%
X122400000Y51750000D03*
%TD*%
D12*
%TO.P,R2,1*%
%TO.N,/VG*%
X104175000Y46500000D03*
%TO.P,R2,2*%
%TO.N,GND*%
X105825000Y46500000D03*
%TD*%
D24*
%TO.P,RT1,1*%
%TO.N,/P1P*%
X25537500Y41500000D03*
%TO.P,RT1,2*%
%TO.N,/P1N*%
X28462500Y41500000D03*
%TD*%
D13*
%TO.P,J10,1*%
%TO.N,/V9*%
X110000000Y4500000D03*
%TO.P,J10,2*%
%TO.N,unconnected-(J10-Pin_2-Pad2)*%
X115000000Y4500000D03*
%TO.P,J10,3*%
%TO.N,GND*%
X120000000Y4500000D03*
%TD*%
D12*
%TO.P,R3,1*%
%TO.N,+12V*%
X99175000Y31500000D03*
%TO.P,R3,2*%
%TO.N,/VREG*%
X100825000Y31500000D03*
%TD*%
D13*
%TO.P,J13,1*%
%TO.N,/V12*%
X50000000Y4500000D03*
%TO.P,J13,2*%
%TO.N,unconnected-(J13-Pin_2-Pad2)*%
X55000000Y4500000D03*
%TO.P,J13,3*%
%TO.N,GND*%
X60000000Y4500000D03*
%TD*%
%TO.P,J7,1*%
%TO.N,GND*%
X120000000Y95500000D03*
%TO.P,J7,2*%
%TO.N,unconnected-(J7-Pin_2-Pad2)*%
X115000000Y95500000D03*
%TO.P,J7,3*%
%TO.N,/V6*%
X110000000Y95500000D03*
%TD*%
D16*
%TO.P,D5,1*%
%TO.N,/P3P*%
X21100000Y29050000D03*
%TO.P,D5,2*%
%TO.N,/P3N*%
X21100000Y30950000D03*
%TO.P,D5,3*%
%TO.N,GND*%
X18900000Y30000000D03*
%TD*%
D12*
%TO.P,R1,1*%
%TO.N,+12V*%
X98175000Y46500000D03*
%TO.P,R1,2*%
%TO.N,/VG*%
X99825000Y46500000D03*
%TD*%
D18*
%TO.P,C5,1*%
%TO.N,+5V*%
X122962500Y30000000D03*
%TO.P,C5,2*%
%TO.N,GND*%
X125037500Y30000000D03*
%TD*%
D12*
%TO.P,RB7,1*%
%TO.N,/P4P*%
X30175000Y62000000D03*
%TO.P,RB7,2*%
%TO.N,GND*%
X31825000Y62000000D03*
%TD*%
D25*
%TO.P,F0,1*%
%TO.N,/12VIN*%
X110000000Y67000000D03*
%TO.P,F0,2*%
%TO.N,+12V*%
X80000000Y67000000D03*
%TD*%
D12*
%TO.P,RB5,1*%
%TO.N,/P3P*%
X34175000Y30000000D03*
%TO.P,RB5,2*%
%TO.N,GND*%
X35825000Y30000000D03*
%TD*%
D18*
%TO.P,C3,1*%
%TO.N,/VREG*%
X116962500Y32500000D03*
%TO.P,C3,2*%
%TO.N,GND*%
X119037500Y32500000D03*
%TD*%
D12*
%TO.P,RB2,1*%
%TO.N,/P1N*%
X38175000Y41500000D03*
%TO.P,RB2,2*%
%TO.N,+5V*%
X39825000Y41500000D03*
%TD*%
D21*
%TO.P,LED1,1*%
%TO.N,/RXD1*%
X11050000Y69000000D03*
%TO.P,LED1,2*%
%TO.N,/LK1*%
X8950000Y69000000D03*
%TD*%
D22*
%TO.P,F5,1*%
%TO.N,+12V*%
X100100000Y83000000D03*
%TO.P,F5,2*%
%TO.N,/V5*%
X89900000Y85000000D03*
%TD*%
D12*
%TO.P,RS2,1*%
%TO.N,/RXD2*%
X51175000Y48100000D03*
%TO.P,RS2,2*%
%TO.N,/DATA2*%
X52825000Y48100000D03*
%TD*%
D22*
%TO.P,F1,1*%
%TO.N,+12V*%
X20100000Y83000000D03*
%TO.P,F1,2*%
%TO.N,/V1*%
X9900000Y85000000D03*
%TD*%
D24*
%TO.P,RT4,1*%
%TO.N,/P4P*%
X22537500Y62000000D03*
%TO.P,RT4,2*%
%TO.N,/P4N*%
X25462500Y62000000D03*
%TD*%
%TO.P,RT2,1*%
%TO.N,/P2P*%
X50537500Y42000000D03*
%TO.P,RT2,2*%
%TO.N,/P2N*%
X53462500Y42000000D03*
%TD*%
D22*
%TO.P,F4,1*%
%TO.N,+12V*%
X80100000Y83000000D03*
%TO.P,F4,2*%
%TO.N,/V4*%
X69900000Y85000000D03*
%TD*%
D12*
%TO.P,RB8,1*%
%TO.N,/P4N*%
X35175000Y62000000D03*
%TO.P,RB8,2*%
%TO.N,+5V*%
X36825000Y62000000D03*
%TD*%
%TO.P,RB1,1*%
%TO.N,/P1P*%
X33175000Y41500000D03*
%TO.P,RB1,2*%
%TO.N,GND*%
X34825000Y41500000D03*
%TD*%
D21*
%TO.P,LED3,1*%
%TO.N,/RXD3*%
X33050000Y69000000D03*
%TO.P,LED3,2*%
%TO.N,/LK3*%
X30950000Y69000000D03*
%TD*%
D12*
%TO.P,RB6,1*%
%TO.N,/P3N*%
X39175000Y30000000D03*
%TO.P,RB6,2*%
%TO.N,+5V*%
X40825000Y30000000D03*
%TD*%
%TO.P,RS3,1*%
%TO.N,/RXD3*%
X51175000Y50630000D03*
%TO.P,RS3,2*%
%TO.N,/DATA3*%
X52825000Y50630000D03*
%TD*%
D18*
%TO.P,C4,1*%
%TO.N,+5V*%
X116962500Y28000000D03*
%TO.P,C4,2*%
%TO.N,GND*%
X119037500Y28000000D03*
%TD*%
D13*
%TO.P,J8,1*%
%TO.N,/V7*%
X70000000Y4500000D03*
%TO.P,J8,2*%
%TO.N,/DATA3*%
X75000000Y4500000D03*
%TO.P,J8,3*%
%TO.N,GND*%
X80000000Y4500000D03*
%TD*%
%TO.P,J3,1*%
%TO.N,GND*%
X40000000Y95500000D03*
%TO.P,J3,2*%
%TO.N,unconnected-(J3-Pin_2-Pad2)*%
X35000000Y95500000D03*
%TO.P,J3,3*%
%TO.N,/V2*%
X30000000Y95500000D03*
%TD*%
D11*
%TO.P,RL4,1*%
%TO.N,/LK4*%
X48825000Y69000000D03*
%TO.P,RL4,2*%
%TO.N,GND*%
X47175000Y69000000D03*
%TD*%
D22*
%TO.P,F6,1*%
%TO.N,+12V*%
X120100000Y83000000D03*
%TO.P,F6,2*%
%TO.N,/V6*%
X109900000Y85000000D03*
%TD*%
%TO.P,F10,1*%
%TO.N,+12V*%
X9900000Y17000000D03*
%TO.P,F10,2*%
%TO.N,/V10*%
X20100000Y15000000D03*
%TD*%
%TO.P,F8,1*%
%TO.N,+12V*%
X89900000Y17000000D03*
%TO.P,F8,2*%
%TO.N,/V8*%
X100100000Y15000000D03*
%TD*%
%TO.P,F9,1*%
%TO.N,+12V*%
X109900000Y17000000D03*
%TO.P,F9,2*%
%TO.N,/V9*%
X120100000Y15000000D03*
%TD*%
D13*
%TO.P,J9,1*%
%TO.N,/V8*%
X90000000Y4500000D03*
%TO.P,J9,2*%
%TO.N,unconnected-(J9-Pin_2-Pad2)*%
X95000000Y4500000D03*
%TO.P,J9,3*%
%TO.N,GND*%
X100000000Y4500000D03*
%TD*%
D11*
%TO.P,RL5,1*%
%TO.N,/LK5*%
X59825000Y69000000D03*
%TO.P,RL5,2*%
%TO.N,GND*%
X58175000Y69000000D03*
%TD*%
D26*
%TO.P,D2,1*%
%TO.N,+12V*%
X66310000Y30500000D03*
%TO.P,D2,2*%
%TO.N,GND*%
X73690000Y30500000D03*
%TD*%
D24*
%TO.P,RT3,1*%
%TO.N,/P3P*%
X26537500Y30000000D03*
%TO.P,RT3,2*%
%TO.N,/P3N*%
X29462500Y30000000D03*
%TD*%
D22*
%TO.P,F2,1*%
%TO.N,+12V*%
X40100000Y83000000D03*
%TO.P,F2,2*%
%TO.N,/V2*%
X29900000Y85000000D03*
%TD*%
D27*
%TO.P,U1,1*%
%TO.N,/P4N*%
X33260000Y54450000D03*
%TO.P,U1,2*%
%TO.N,/P4P*%
X33260000Y53170000D03*
%TO.P,U1,3*%
%TO.N,/RXD4*%
X33260000Y51900000D03*
%TO.P,U1,4*%
%TO.N,+5V*%
X33260000Y50630000D03*
%TO.P,U1,5*%
%TO.N,/RXD1*%
X33260000Y49370000D03*
%TO.P,U1,6*%
%TO.N,/P1P*%
X33260000Y48100000D03*
%TO.P,U1,7*%
%TO.N,/P1N*%
X33260000Y46830000D03*
%TO.P,U1,8*%
%TO.N,GND*%
X33260000Y45550000D03*
%TO.P,U1,9*%
%TO.N,/P2N*%
X38740000Y45550000D03*
%TO.P,U1,10*%
%TO.N,/P2P*%
X38740000Y46830000D03*
%TO.P,U1,11*%
%TO.N,/RXD2*%
X38740000Y48100000D03*
%TO.P,U1,12*%
%TO.N,GND*%
X38740000Y49370000D03*
%TO.P,U1,13*%
%TO.N,/RXD3*%
X38740000Y50630000D03*
%TO.P,U1,14*%
%TO.N,/P3P*%
X38740000Y51900000D03*
%TO.P,U1,15*%
%TO.N,/P3N*%
X38740000Y53170000D03*
%TO.P,U1,16*%
%TO.N,+5V*%
X38740000Y54450000D03*
%TD*%
D14*
%TO.P,Q2,1*%
%TO.N,/VG*%
X78270000Y47290000D03*
D15*
%TO.P,Q2,2*%
%TO.N,/GNDIN*%
X76000000Y40710000D03*
D14*
%TO.P,Q2,3*%
%TO.N,GND*%
X73730000Y47290000D03*
%TD*%
D22*
%TO.P,F7,1*%
%TO.N,+12V*%
X69900000Y17000000D03*
%TO.P,F7,2*%
%TO.N,/V7*%
X80100000Y15000000D03*
%TD*%
D14*
%TO.P,Q4,1*%
%TO.N,/VG*%
X94270000Y47290000D03*
D15*
%TO.P,Q4,2*%
%TO.N,/GNDIN*%
X92000000Y40710000D03*
D14*
%TO.P,Q4,3*%
%TO.N,GND*%
X89730000Y47290000D03*
%TD*%
D22*
%TO.P,F11,1*%
%TO.N,+12V*%
X29900000Y17000000D03*
%TO.P,F11,2*%
%TO.N,/V11*%
X40100000Y15000000D03*
%TD*%
D13*
%TO.P,J6,1*%
%TO.N,GND*%
X100000000Y95500000D03*
%TO.P,J6,2*%
%TO.N,unconnected-(J6-Pin_2-Pad2)*%
X95000000Y95500000D03*
%TO.P,J6,3*%
%TO.N,/V5*%
X90000000Y95500000D03*
%TD*%
%TO.P,J11,1*%
%TO.N,/V10*%
X10000000Y4500000D03*
%TO.P,J11,2*%
%TO.N,/DATA4*%
X15000000Y4500000D03*
%TO.P,J11,3*%
%TO.N,GND*%
X20000000Y4500000D03*
%TD*%
D28*
%TO.P,U3,1*%
%TO.N,/VREG*%
X107140000Y32300000D03*
%TO.P,U3,2*%
%TO.N,GND*%
X107140000Y30000000D03*
%TO.P,U3,3*%
%TO.N,+5V*%
X107140000Y27700000D03*
D29*
%TO.P,U3,4*%
%TO.N,GND*%
X112860000Y30000000D03*
%TD*%
D11*
%TO.P,RS4,1*%
%TO.N,/RXD4*%
X28825000Y51900000D03*
%TO.P,RS4,2*%
%TO.N,/DATA4*%
X27175000Y51900000D03*
%TD*%
D30*
%TO.N,+12V*%
X67310000Y30500000D03*
X83730000Y30500000D03*
X98792316Y30576121D03*
X97251120Y46882684D03*
%TO.N,+5V*%
X40500000Y31600001D03*
X39600000Y41800001D03*
X50100000Y40000000D03*
X54600000Y68500000D03*
X30600000Y50630000D03*
X40800000Y54400000D03*
D31*
%TO.N,/12VIN*%
X122000000Y56000000D03*
X114000000Y52500000D03*
X110000000Y52500000D03*
X114000000Y56000000D03*
X124000000Y66000000D03*
X110000000Y56000000D03*
X118000000Y56000000D03*
X106000000Y52500000D03*
X124000000Y58000000D03*
X124000000Y62000000D03*
X118000000Y52500000D03*
X106000000Y56000000D03*
D30*
%TO.N,/DATA1*%
X23400000Y56800001D03*
X23400000Y50200000D03*
X27000000Y49600000D03*
%TO.N,/DATA2*%
X53100000Y48100000D03*
%TO.N,/DATA3*%
X58199999Y50200000D03*
%TO.N,/DATA4*%
X22200000Y53800001D03*
X27000000Y53800001D03*
X16200000Y43300001D03*
D31*
%TO.N,/GNDIN*%
X104000000Y35500000D03*
X80000000Y35500000D03*
X116000000Y35500000D03*
X96000000Y35500000D03*
X68000000Y35500000D03*
X100000000Y35500000D03*
X92000000Y35500000D03*
X88000000Y35500000D03*
X64000000Y35500000D03*
X76000000Y35500000D03*
X112000000Y35500000D03*
X72000000Y35500000D03*
X84000000Y35500000D03*
X124000000Y35500000D03*
X108000000Y35500000D03*
X120000000Y35500000D03*
D30*
%TO.N,/P1N*%
X29000000Y46830000D03*
%TO.N,/P1P*%
X25200000Y42100000D03*
X31500000Y48100000D03*
X33000000Y41800001D03*
%TO.N,/P2N*%
X43800000Y49300001D03*
X43000000Y45550000D03*
%TO.N,/P3N*%
X20700000Y31000000D03*
X45000000Y39000000D03*
X20700000Y38800001D03*
X45000000Y53170000D03*
%TO.N,/P3P*%
X26400000Y37300001D03*
X47000000Y37500000D03*
X26400000Y30400000D03*
X47000000Y51900000D03*
%TO.N,/P4N*%
X16800000Y62800001D03*
X31500000Y54450000D03*
X25800000Y61300001D03*
%TO.N,/P4P*%
X29000000Y53170000D03*
X16800000Y54400000D03*
%TO.N,/RXD2*%
X23099999Y68500000D03*
X36900000Y55900000D03*
%TO.N,/RXD4*%
X38400000Y61300001D03*
X43500000Y68500000D03*
%TO.N,/VREG*%
X106200000Y31900000D03*
X102600000Y31900000D03*
D31*
%TO.N,GND*%
X91000000Y55000000D03*
D30*
X42600000Y55600000D03*
D31*
X79000000Y55000000D03*
D30*
X113190000Y46500000D03*
D31*
X82000000Y55000000D03*
D30*
X90270000Y30500000D03*
X42517316Y42923880D03*
X24467893Y68292894D03*
X120037500Y28000000D03*
X57467893Y68292894D03*
D31*
X97000000Y51000000D03*
D30*
X14175000Y68000000D03*
X126037500Y30000000D03*
D31*
X67000000Y55000000D03*
D30*
X35792316Y68076121D03*
X19282683Y29076121D03*
D31*
X64000000Y55000000D03*
X76000000Y55000000D03*
X85000000Y51000000D03*
X91000000Y51000000D03*
X70000000Y55000000D03*
X73000000Y55000000D03*
D30*
X113860000Y30000000D03*
D31*
X85000000Y55000000D03*
X94000000Y55000000D03*
X73000000Y51000000D03*
X94000000Y51000000D03*
D30*
X105825000Y47500000D03*
D31*
X88000000Y51000000D03*
X82000000Y51000000D03*
D30*
X120037500Y32500000D03*
D31*
X97000000Y55000000D03*
X76000000Y51000000D03*
D30*
X19282683Y40576121D03*
X108140000Y30000000D03*
X32400000Y62500000D03*
X15282683Y61076121D03*
X74690000Y30500000D03*
X36207683Y29076121D03*
D31*
X64000000Y51000000D03*
X67000000Y51000000D03*
X88000000Y55000000D03*
D30*
X41600000Y49370000D03*
X48690000Y28000000D03*
X102475000Y28000000D03*
X47175000Y68000000D03*
D31*
X79000000Y51000000D03*
D30*
X34800000Y42400001D03*
D31*
X70000000Y51000000D03*
D30*
X54825000Y46000000D03*
X34183879Y45167317D03*
%TD*%
%TO.N,+12V*%
D32*
X69900000Y17000000D02*
X69900000Y20000000D01*
X49900000Y17000000D02*
X49900000Y20000000D01*
X80100000Y83000000D02*
X80100000Y80000000D01*
X109900000Y17000000D02*
X109900000Y20000000D01*
X60100000Y83000000D02*
X60100000Y80000000D01*
X20100000Y83000000D02*
X20100000Y80000000D01*
D33*
X98175000Y46500000D02*
X97251120Y46882684D01*
D32*
X120100000Y83000000D02*
X120100000Y80000000D01*
X100100000Y83000000D02*
X100100000Y80000000D01*
D33*
X99175000Y31500000D02*
X98792316Y30576121D01*
D32*
X29900000Y17000000D02*
X29900000Y20000000D01*
X40100000Y83000000D02*
X40100000Y80000000D01*
D33*
X66310000Y30500000D02*
X67310000Y30500000D01*
D32*
X9900000Y17000000D02*
X9900000Y20000000D01*
X89900000Y17000000D02*
X89900000Y20000000D01*
D33*
X82730000Y30500000D02*
X83730000Y30500000D01*
%TO.N,+5V*%
D34*
X68399999Y33100001D02*
X68700000Y33100001D01*
X119699999Y29500000D02*
X120000000Y29500000D01*
X50100000Y37600000D02*
X50100000Y37900001D01*
X39900000Y60700000D02*
X39900000Y61000000D01*
X50100000Y34900001D02*
X50699999Y34900001D01*
X44100000Y31300000D02*
X44100000Y31600001D01*
X58500000Y43600000D02*
X58500000Y43900000D01*
X115199999Y27400000D02*
X115500000Y27400000D01*
X50100000Y39400001D02*
X50100000Y40000000D01*
X63599999Y33100001D02*
X64200000Y33100001D01*
X38100000Y62500000D02*
X37800000Y62500000D01*
X39600000Y61900000D02*
X39600000Y62200000D01*
X88200000Y33100001D02*
X89399999Y33100001D01*
X60599999Y34900001D02*
X60900000Y34900001D01*
X38699999Y62500000D02*
X38100000Y62500000D01*
X53699999Y34900001D02*
X54000000Y34900001D01*
X61199999Y34300000D02*
X61199999Y33100001D01*
X39600000Y61600000D02*
X39600000Y61900000D01*
X98700000Y33100001D02*
X99899999Y33100001D01*
X51600000Y40300001D02*
X52199999Y40300001D01*
X39900000Y57400000D02*
X39900000Y57700000D01*
X73200000Y33100001D02*
X74399999Y33100001D01*
X54900000Y40600000D02*
X54900000Y40900001D01*
X57900000Y34900001D02*
X58199999Y34900001D01*
X40800000Y54400000D02*
X40462500Y54450000D01*
X45600000Y34900001D02*
X46199999Y34900001D01*
X56400000Y41800001D02*
X56400000Y42100000D01*
X71399999Y33100001D02*
X71700000Y33100001D01*
X65700000Y33100001D02*
X66899999Y33100001D01*
X61199999Y33100001D02*
X61500000Y33100001D01*
X51600000Y34900001D02*
X52199999Y34900001D01*
X44100000Y33100001D02*
X44100000Y34300000D01*
X95700000Y33100001D02*
X96899999Y33100001D01*
X56400000Y41500000D02*
X56400000Y41800001D01*
X48300000Y34900001D02*
X48600000Y34900001D01*
X46500000Y34900001D02*
X46800000Y34900001D01*
X57000000Y43600000D02*
X57599999Y43600000D01*
X39600000Y62200000D02*
X39600000Y62500000D01*
X77399999Y33100001D02*
X77700000Y33100001D01*
X44100000Y29800000D02*
X44100000Y28600001D01*
X48600000Y34900001D02*
X49199999Y34900001D01*
X51000000Y34900001D02*
X51300000Y34900001D01*
X86700000Y33100001D02*
X87899999Y33100001D01*
X101700000Y33100001D02*
X102899999Y33100001D01*
X92399999Y33100001D02*
X92700000Y33100001D01*
X39900000Y58000000D02*
X39900000Y58300001D01*
X113700000Y27400000D02*
X115199999Y27400000D01*
X61500000Y33100001D02*
X62099999Y33100001D01*
X59099999Y34900001D02*
X59400000Y34900001D01*
X57000000Y42700000D02*
X57000000Y43000000D01*
X54900000Y40900001D02*
X54900000Y41500000D01*
X33259999Y50630000D02*
X30600000Y50630000D01*
X108899999Y27400000D02*
X109200000Y27400000D01*
X115500000Y27400000D02*
X116100000Y27400000D01*
X49199999Y34900001D02*
X49500000Y34900001D01*
X97200000Y33100001D02*
X98399999Y33100001D01*
X57000000Y43300001D02*
X57000000Y43600000D01*
X40500000Y31300000D02*
X40500000Y30700000D01*
X39900000Y55900000D02*
X39900000Y56200000D01*
X110399999Y27400000D02*
X110700000Y27400000D01*
X39600000Y41800001D02*
X39825000Y41500000D01*
X39900000Y55000000D02*
X39900000Y55300001D01*
X60900000Y34900001D02*
X61199999Y34900001D01*
X59400000Y34900001D02*
X59699999Y34900001D01*
X58199999Y43600000D02*
X58500000Y43600000D01*
X42600000Y29800000D02*
X43199999Y29800000D01*
X58500000Y44200000D02*
X58500000Y44500000D01*
X55500000Y34900001D02*
X55800000Y34900001D01*
X87899999Y33100001D02*
X88200000Y33100001D01*
X77700000Y33100001D02*
X78899999Y33100001D01*
X58500000Y44500000D02*
X58825000Y45000000D01*
X39900000Y57700000D02*
X39900000Y58000000D01*
X40500000Y31600001D02*
X40500000Y31300000D01*
X93899999Y33100001D02*
X94200000Y33100001D01*
X83399999Y33100001D02*
X83700000Y33100001D01*
X54600000Y40300001D02*
X54900000Y40300001D01*
X39900000Y61300001D02*
X39900000Y61600000D01*
X105000000Y29500000D02*
X105000000Y28600001D01*
X47699999Y34900001D02*
X48000000Y34900001D01*
X56699999Y34900001D02*
X57000000Y34900001D01*
X39900000Y58300001D02*
X39900000Y58900000D01*
X51300000Y40300001D02*
X51600000Y40300001D01*
X103800000Y29800000D02*
X103800000Y29500000D01*
X50100000Y39100000D02*
X50100000Y39400001D01*
X44100000Y34300000D02*
X44100000Y34600001D01*
X86399999Y33100001D02*
X86700000Y33100001D01*
X63000000Y33100001D02*
X63599999Y33100001D01*
X39900000Y55300001D02*
X39900000Y55900000D01*
X106200000Y28600001D02*
X106200000Y28300000D01*
X44100000Y34900001D02*
X44699999Y34900001D01*
X44100000Y32800000D02*
X44100000Y33100001D01*
X121500000Y29500000D02*
X122100000Y29500000D01*
X56699999Y42700000D02*
X57000000Y42700000D01*
X49500000Y34900001D02*
X49800000Y34900001D01*
X59699999Y34900001D02*
X60000000Y34900001D01*
X43199999Y29800000D02*
X43500000Y29800000D01*
X37500000Y62500000D02*
X37199999Y62500000D01*
X80399999Y33100001D02*
X80700000Y33100001D01*
X82200000Y33100001D02*
X83399999Y33100001D01*
X39900000Y60400000D02*
X39900000Y60700000D01*
X54300000Y34900001D02*
X54600000Y34900001D01*
X54600000Y34900001D02*
X55199999Y34900001D01*
X68700000Y33100001D02*
X69899999Y33100001D01*
X89700000Y33100001D02*
X90899999Y33100001D01*
X33259999Y50630000D02*
X32400000Y50800001D01*
X90899999Y33100001D02*
X91200000Y33100001D01*
X48000000Y34900001D02*
X48300000Y34900001D01*
X103800000Y31600001D02*
X103800000Y31300000D01*
X54600000Y68500000D02*
X55050000Y69000000D01*
X99899999Y33100001D02*
X100200000Y33100001D01*
X58500000Y34900001D02*
X59099999Y34900001D01*
X47100000Y34900001D02*
X47699999Y34900001D01*
X104399999Y29500000D02*
X104700000Y29500000D01*
X43500000Y29800000D02*
X43800000Y29800000D01*
X122100000Y29500000D02*
X122962500Y30000000D01*
X42300000Y29800000D02*
X42600000Y29800000D01*
X110700000Y27400000D02*
X111899999Y27400000D01*
X121199999Y29500000D02*
X121500000Y29500000D01*
X55500000Y41500000D02*
X55800000Y41500000D01*
X83700000Y33100001D02*
X84899999Y33100001D01*
X56400000Y42400001D02*
X56400000Y42700000D01*
X62099999Y33100001D02*
X62400000Y33100001D01*
X39900000Y54700000D02*
X38740000Y54450000D01*
X50100000Y37300001D02*
X50100000Y37600000D01*
X118199999Y29500000D02*
X118500000Y29500000D01*
X52800000Y40300001D02*
X53100000Y40300001D01*
X50699999Y40300001D02*
X51000000Y40300001D01*
X54300000Y40300001D02*
X54600000Y40300001D01*
X117300000Y28600001D02*
X117300000Y29500000D01*
X45300000Y34900001D02*
X45600000Y34900001D01*
X66899999Y33100001D02*
X67200000Y33100001D01*
X116100000Y27400000D02*
X116962500Y28000000D01*
X57900000Y43600000D02*
X58199999Y43600000D01*
X50100000Y38500000D02*
X50100000Y38800001D01*
X100200000Y33100001D02*
X101399999Y33100001D01*
X69899999Y33100001D02*
X70200000Y33100001D01*
X39900000Y56800001D02*
X39900000Y57400000D01*
X46800000Y34900001D02*
X47100000Y34900001D01*
X84899999Y33100001D02*
X85200000Y33100001D01*
X53100000Y40300001D02*
X53699999Y40300001D01*
X50100000Y35800000D02*
X50100000Y36400001D01*
X52800000Y34900001D02*
X53100000Y34900001D01*
X103800000Y31300000D02*
X103800000Y30100001D01*
X102899999Y33100001D02*
X103200000Y33100001D01*
X56100000Y41500000D02*
X56400000Y41500000D01*
X54000000Y40300001D02*
X54300000Y40300001D01*
X57000000Y43000000D02*
X57000000Y43300001D01*
X44100000Y31600001D02*
X44100000Y32800000D01*
X49800000Y34900001D02*
X50100000Y34900001D01*
X41100000Y29800000D02*
X41699999Y29800000D01*
X39900000Y59200000D02*
X39900000Y59500000D01*
X44100000Y34600001D02*
X44100000Y34900001D01*
X103200000Y33100001D02*
X103800000Y33100001D01*
X112200000Y27400000D02*
X113399999Y27400000D01*
X74700000Y33100001D02*
X75899999Y33100001D01*
X44100000Y28600001D02*
X44310000Y28000000D01*
X57599999Y34900001D02*
X57900000Y34900001D01*
X50100000Y40000000D02*
X50100000Y40300001D01*
X45000000Y34900001D02*
X45300000Y34900001D01*
X81899999Y33100001D02*
X82200000Y33100001D01*
X89399999Y33100001D02*
X89700000Y33100001D01*
X52199999Y34900001D02*
X52500000Y34900001D01*
X74399999Y33100001D02*
X74700000Y33100001D01*
X46199999Y34900001D02*
X46500000Y34900001D01*
X113399999Y27400000D02*
X113700000Y27400000D01*
X39900000Y56500000D02*
X39900000Y56800001D01*
X64200000Y33100001D02*
X65399999Y33100001D01*
X103800000Y32800000D02*
X103800000Y31600001D01*
X98399999Y33100001D02*
X98700000Y33100001D01*
X54900000Y40300001D02*
X54900000Y40600000D01*
X44699999Y34900001D02*
X45000000Y34900001D01*
X55800000Y34900001D02*
X56100000Y34900001D01*
X52500000Y34900001D02*
X52800000Y34900001D01*
X76200000Y33100001D02*
X77399999Y33100001D01*
X39900000Y58900000D02*
X39900000Y59200000D01*
X62400000Y33100001D02*
X62699999Y33100001D01*
X37800000Y62500000D02*
X37500000Y62500000D01*
X105899999Y28600001D02*
X106200000Y28600001D01*
X103800000Y33100001D02*
X103800000Y32800000D01*
X41699999Y29800000D02*
X42000000Y29800000D01*
X79200000Y33100001D02*
X80399999Y33100001D01*
X42000000Y29800000D02*
X42300000Y29800000D01*
X39900000Y59800001D02*
X39900000Y60400000D01*
X50100000Y38800001D02*
X50100000Y39100000D01*
X50100000Y37900001D02*
X50100000Y38500000D01*
X57000000Y34900001D02*
X57599999Y34900001D01*
X95399999Y33100001D02*
X95700000Y33100001D01*
X39900000Y61000000D02*
X39900000Y61300001D01*
X52199999Y40300001D02*
X52500000Y40300001D01*
X43800000Y29800000D02*
X44100000Y29800000D01*
X50699999Y34900001D02*
X51000000Y34900001D01*
X72899999Y33100001D02*
X73200000Y33100001D01*
X65399999Y33100001D02*
X65700000Y33100001D01*
X61199999Y34600001D02*
X61199999Y34300000D01*
X39900000Y59500000D02*
X39900000Y59800001D01*
X118500000Y29500000D02*
X119699999Y29500000D01*
X53699999Y40300001D02*
X54000000Y40300001D01*
X44100000Y30100001D02*
X44100000Y31300000D01*
X71700000Y33100001D02*
X72899999Y33100001D01*
X51000000Y40300001D02*
X51300000Y40300001D01*
X80700000Y33100001D02*
X81899999Y33100001D01*
X91200000Y33100001D02*
X92399999Y33100001D01*
X61199999Y34900001D02*
X61199999Y34600001D01*
X39900000Y56200000D02*
X39900000Y56500000D01*
X85200000Y33100001D02*
X86399999Y33100001D01*
X78899999Y33100001D02*
X79200000Y33100001D01*
X96899999Y33100001D02*
X97200000Y33100001D01*
X50100000Y37000000D02*
X50100000Y37300001D01*
X94200000Y33100001D02*
X95399999Y33100001D01*
X39000000Y62500000D02*
X38699999Y62500000D01*
X50100000Y36400001D02*
X50100000Y37000000D01*
X104700000Y29500000D02*
X105000000Y29500000D01*
X39600000Y62500000D02*
X39300000Y62500000D01*
X105000000Y28600001D02*
X105899999Y28600001D01*
X54000000Y34900001D02*
X54300000Y34900001D01*
X75899999Y33100001D02*
X76200000Y33100001D01*
X58500000Y43900000D02*
X58500000Y44200000D01*
X117300000Y29500000D02*
X118199999Y29500000D01*
X39900000Y61600000D02*
X39600000Y61600000D01*
X53100000Y34900001D02*
X53699999Y34900001D01*
X120000000Y29500000D02*
X121199999Y29500000D01*
X52500000Y40300001D02*
X52800000Y40300001D01*
X103800000Y30100001D02*
X103800000Y29800000D01*
X55800000Y41500000D02*
X56100000Y41500000D01*
X108300000Y27400000D02*
X108899999Y27400000D01*
X111899999Y27400000D02*
X112200000Y27400000D01*
X103800000Y29500000D02*
X104399999Y29500000D01*
X51300000Y34900001D02*
X51600000Y34900001D01*
X106200000Y28300000D02*
X107140000Y27700000D01*
X55199999Y41500000D02*
X55500000Y41500000D01*
X58199999Y34900001D02*
X58500000Y34900001D01*
X50100000Y40300001D02*
X50699999Y40300001D01*
X40500000Y30700000D02*
X40825000Y30000000D01*
X70200000Y33100001D02*
X71399999Y33100001D01*
X92700000Y33100001D02*
X93899999Y33100001D01*
X55199999Y34900001D02*
X55500000Y34900001D01*
X109200000Y27400000D02*
X110399999Y27400000D01*
X60000000Y34900001D02*
X60599999Y34900001D01*
X56400000Y42100000D02*
X56400000Y42400001D01*
X37199999Y62500000D02*
X36825000Y62000000D01*
X56100000Y34900001D02*
X56699999Y34900001D01*
X50100000Y34900001D02*
X50100000Y35800000D01*
X54900000Y41500000D02*
X55199999Y41500000D01*
X67200000Y33100001D02*
X68399999Y33100001D01*
X56400000Y42700000D02*
X56699999Y42700000D01*
X44100000Y29800000D02*
X44100000Y30100001D01*
X62699999Y33100001D02*
X63000000Y33100001D01*
X39300000Y62500000D02*
X39000000Y62500000D01*
X57599999Y43600000D02*
X57900000Y43600000D01*
X101399999Y33100001D02*
X101700000Y33100001D01*
%TO.N,/12VIN*%
D35*
X122400000Y51750000D02*
X122400000Y55000000D01*
%TO.N,/DATA1*%
D36*
X23400000Y50500000D02*
X23400000Y50200000D01*
X23400000Y55000000D02*
X23400000Y54700000D01*
X23400000Y55300001D02*
X23400000Y55000000D01*
X23400000Y52900000D02*
X23400000Y52300001D01*
X23400000Y56800001D02*
X23400000Y56500000D01*
X23400000Y50800001D02*
X23400000Y50500000D01*
X23400000Y52000000D02*
X23400000Y51700000D01*
X23400000Y51700000D02*
X23400000Y51400000D01*
X23400000Y53200000D02*
X23400000Y52900000D01*
X23400000Y53500000D02*
X23400000Y53200000D01*
X27000000Y49600000D02*
X27175000Y49370000D01*
X23400000Y52300001D02*
X23400000Y52000000D01*
X23400000Y54400000D02*
X23400000Y53800001D01*
X23400000Y56200000D02*
X23400000Y55900000D01*
X23400000Y55900000D02*
X23400000Y55300001D01*
X23400000Y53800001D02*
X23400000Y53500000D01*
X23400000Y51400000D02*
X23400000Y50800001D01*
X23400000Y56500000D02*
X23400000Y56200000D01*
X23400000Y54700000D02*
X23400000Y54400000D01*
%TO.N,/DATA2*%
X53100000Y48100000D02*
X52825000Y48100000D01*
%TO.N,/DATA3*%
X57599999Y50200000D02*
X57000000Y50200000D01*
X54000000Y50200000D02*
X53699999Y50200000D01*
X53699999Y50200000D02*
X53400000Y50200000D01*
X55800000Y50200000D02*
X55500000Y50200000D01*
X54600000Y50200000D02*
X54300000Y50200000D01*
X54300000Y50200000D02*
X54000000Y50200000D01*
X56100000Y50200000D02*
X55800000Y50200000D01*
X55199999Y50200000D02*
X54600000Y50200000D01*
X56699999Y50200000D02*
X56100000Y50200000D01*
X57000000Y50200000D02*
X56699999Y50200000D01*
X53400000Y50200000D02*
X52825000Y50630000D01*
X55500000Y50200000D02*
X55199999Y50200000D01*
X58199999Y50200000D02*
X57900000Y50200000D01*
X57900000Y50200000D02*
X57599999Y50200000D01*
%TO.N,/DATA4*%
X22200000Y52300001D02*
X22200000Y52900000D01*
X16200000Y50800001D02*
X16200000Y51400000D01*
X22200000Y52000000D02*
X22200000Y52300001D01*
X16200000Y50500000D02*
X16200000Y50800001D01*
X27000000Y52900000D02*
X27000000Y52600000D01*
X16200000Y48400000D02*
X16200000Y48700000D01*
X16200000Y44800001D02*
X16200000Y45400000D01*
X16200000Y44200000D02*
X16200000Y44500000D01*
X16200000Y47200000D02*
X16200000Y47500000D01*
X21300000Y51700000D02*
X21599999Y51700000D01*
X27000000Y52600000D02*
X27175000Y51900000D01*
X17099999Y51700000D02*
X18300000Y51700000D01*
X16200000Y51400000D02*
X16200000Y51700000D01*
X27000000Y53800001D02*
X27000000Y53500000D01*
X16200000Y46000000D02*
X16200000Y46300001D01*
X16200000Y43900000D02*
X16200000Y44200000D01*
X21599999Y51700000D02*
X22200000Y51700000D01*
X22200000Y53500000D02*
X22200000Y53800001D01*
X16200000Y45700000D02*
X16200000Y46000000D01*
X18599999Y51700000D02*
X19800000Y51700000D01*
X16200000Y48700000D02*
X16200000Y49000000D01*
X16200000Y49900000D02*
X16200000Y50200000D01*
X27000000Y53200000D02*
X27000000Y52900000D01*
X16200000Y49300001D02*
X16200000Y49900000D01*
X16200000Y50200000D02*
X16200000Y50500000D01*
X16200000Y47500000D02*
X16200000Y47800001D01*
X18300000Y51700000D02*
X18599999Y51700000D01*
X22200000Y51700000D02*
X22200000Y52000000D01*
X27000000Y53500000D02*
X27000000Y53200000D01*
X16800000Y51700000D02*
X17099999Y51700000D01*
X16200000Y45400000D02*
X16200000Y45700000D01*
X22200000Y52900000D02*
X22200000Y53200000D01*
X16200000Y51700000D02*
X16800000Y51700000D01*
X16200000Y47800001D02*
X16200000Y48400000D01*
X19800000Y51700000D02*
X20099999Y51700000D01*
X16200000Y44500000D02*
X16200000Y44800001D01*
X20099999Y51700000D02*
X21300000Y51700000D01*
X22200000Y53200000D02*
X22200000Y53500000D01*
X16200000Y43300001D02*
X16200000Y43900000D01*
X16200000Y49000000D02*
X16200000Y49300001D01*
X16200000Y46900000D02*
X16200000Y47200000D01*
X16200000Y46300001D02*
X16200000Y46900000D01*
%TO.N,/GNDIN*%
D35*
X122400000Y42250000D02*
X122400000Y40000000D01*
%TO.N,/LK1*%
D36*
X9900000Y70600000D02*
X10200000Y70600000D01*
X15600000Y69700001D02*
X15825000Y69000000D01*
X15600000Y70000000D02*
X15600000Y69700001D01*
X9600000Y69700001D02*
X9600000Y70000000D01*
X13500000Y70600000D02*
X13799999Y70600000D01*
X11700000Y70600000D02*
X12000000Y70600000D01*
X12900000Y70600000D02*
X13200000Y70600000D01*
X15299999Y70600000D02*
X15600000Y70600000D01*
X10500000Y70600000D02*
X10799999Y70600000D01*
X14399999Y70600000D02*
X15000000Y70600000D01*
X15600000Y70600000D02*
X15600000Y70000000D01*
X13200000Y70600000D02*
X13500000Y70600000D01*
X10200000Y70600000D02*
X10500000Y70600000D01*
X10799999Y70600000D02*
X11400000Y70600000D01*
X12299999Y70600000D02*
X12900000Y70600000D01*
X9299999Y69700001D02*
X9600000Y69700001D01*
X15000000Y70600000D02*
X15299999Y70600000D01*
X8950000Y69000000D02*
X9299999Y69700001D01*
X14100000Y70600000D02*
X14399999Y70600000D01*
X11400000Y70600000D02*
X11700000Y70600000D01*
X13799999Y70600000D02*
X14100000Y70600000D01*
X9600000Y70600000D02*
X9900000Y70600000D01*
X9600000Y70000000D02*
X9600000Y70600000D01*
X12000000Y70600000D02*
X12299999Y70600000D01*
%TO.N,/LK2*%
X26099999Y70600000D02*
X26700000Y70600000D01*
X26700000Y69700001D02*
X26825000Y69000000D01*
X21599999Y70600000D02*
X22800000Y70600000D01*
X25800000Y70600000D02*
X26099999Y70600000D01*
X21300000Y70600000D02*
X21599999Y70600000D01*
X20700000Y70600000D02*
X21300000Y70600000D01*
X22800000Y70600000D02*
X23099999Y70600000D01*
X24599999Y70600000D02*
X25800000Y70600000D01*
X20700000Y69700001D02*
X20700000Y70000000D01*
X23099999Y70600000D02*
X24300000Y70600000D01*
X26700000Y70600000D02*
X26700000Y70000000D01*
X20400000Y69700001D02*
X20700000Y69700001D01*
X20700000Y70000000D02*
X20700000Y70600000D01*
X19950000Y69000000D02*
X20400000Y69700001D01*
X24300000Y70600000D02*
X24599999Y70600000D01*
X26700000Y70000000D02*
X26700000Y69700001D01*
%TO.N,/LK3*%
X31500000Y69700001D02*
X31799999Y69700001D01*
X36300000Y70600000D02*
X36600000Y70600000D01*
X33299999Y70600000D02*
X33600000Y70600000D01*
X31799999Y70000000D02*
X31799999Y70600000D01*
X31799999Y69700001D02*
X31799999Y70000000D01*
X37199999Y70600000D02*
X37500000Y70600000D01*
X36600000Y70600000D02*
X37199999Y70600000D01*
X35699999Y70600000D02*
X36000000Y70600000D01*
X31799999Y70600000D02*
X32100000Y70600000D01*
X37500000Y70000000D02*
X37500000Y69700001D01*
X33000000Y70600000D02*
X33299999Y70600000D01*
X37500000Y70600000D02*
X37500000Y70000000D01*
X35100000Y70600000D02*
X35699999Y70600000D01*
X32699999Y70600000D02*
X33000000Y70600000D01*
X30950000Y69000000D02*
X31200000Y69700001D01*
X34800000Y70600000D02*
X35100000Y70600000D01*
X32100000Y70600000D02*
X32699999Y70600000D01*
X34199999Y70600000D02*
X34500000Y70600000D01*
X33600000Y70600000D02*
X34199999Y70600000D01*
X31200000Y69700001D02*
X31500000Y69700001D01*
X37500000Y69700001D02*
X37825000Y69000000D01*
X36000000Y70600000D02*
X36300000Y70600000D01*
X34500000Y70600000D02*
X34800000Y70600000D01*
%TO.N,/LK4*%
X48000000Y70600000D02*
X48300000Y70600000D01*
X42600000Y70600000D02*
X43199999Y70600000D01*
X41950000Y69000000D02*
X42300000Y69700001D01*
X48600000Y70000000D02*
X48600000Y69700001D01*
X47100000Y70600000D02*
X47699999Y70600000D01*
X42600000Y69700001D02*
X42600000Y70000000D01*
X47699999Y70600000D02*
X48000000Y70600000D01*
X46500000Y70600000D02*
X46800000Y70600000D01*
X45000000Y70600000D02*
X45300000Y70600000D01*
X44100000Y70600000D02*
X44699999Y70600000D01*
X45600000Y70600000D02*
X46199999Y70600000D01*
X42600000Y70000000D02*
X42600000Y70600000D01*
X48600000Y70600000D02*
X48600000Y70000000D01*
X45300000Y70600000D02*
X45600000Y70600000D01*
X44699999Y70600000D02*
X45000000Y70600000D01*
X42300000Y69700001D02*
X42600000Y69700001D01*
X43199999Y70600000D02*
X43500000Y70600000D01*
X48300000Y70600000D02*
X48600000Y70600000D01*
X48600000Y69700001D02*
X48825000Y69000000D01*
X43500000Y70600000D02*
X43800000Y70600000D01*
X43800000Y70600000D02*
X44100000Y70600000D01*
X46199999Y70600000D02*
X46500000Y70600000D01*
X46800000Y70600000D02*
X47100000Y70600000D01*
%TO.N,/LK5*%
X57900000Y70600000D02*
X58199999Y70600000D01*
X55199999Y70600000D02*
X55500000Y70600000D01*
X58500000Y70600000D02*
X59099999Y70600000D01*
X59400000Y70600000D02*
X59699999Y70600000D01*
X53699999Y70000000D02*
X53699999Y70600000D01*
X53699999Y69700001D02*
X53699999Y70000000D01*
X53400000Y69700001D02*
X53699999Y69700001D01*
X54300000Y70600000D02*
X54600000Y70600000D01*
X59099999Y70600000D02*
X59400000Y70600000D01*
X53699999Y70600000D02*
X54000000Y70600000D01*
X54600000Y70600000D02*
X55199999Y70600000D01*
X56699999Y70600000D02*
X57000000Y70600000D01*
X57000000Y70600000D02*
X57599999Y70600000D01*
X59699999Y70000000D02*
X59699999Y69700001D01*
X59699999Y70600000D02*
X59699999Y70000000D01*
X52950000Y69000000D02*
X53400000Y69700001D01*
X57599999Y70600000D02*
X57900000Y70600000D01*
X58199999Y70600000D02*
X58500000Y70600000D01*
X59699999Y69700001D02*
X59825000Y69000000D01*
X55800000Y70600000D02*
X56100000Y70600000D01*
X56100000Y70600000D02*
X56699999Y70600000D01*
X55500000Y70600000D02*
X55800000Y70600000D01*
X54000000Y70600000D02*
X54300000Y70600000D01*
%TO.N,/P1N*%
X36900000Y46300001D02*
X36900000Y46000000D01*
X35100000Y46600000D02*
X35699999Y46600000D01*
X28799999Y43000000D02*
X28799999Y42400001D01*
X28799999Y45700000D02*
X28799999Y45400000D01*
X36900000Y44500000D02*
X37199999Y44500000D01*
X27599999Y43300001D02*
X27300000Y43300001D01*
X24300000Y43300001D02*
X23099999Y43300001D01*
X37199999Y44500000D02*
X37500000Y44500000D01*
X28799999Y46900000D02*
X28799999Y46300001D01*
X28799999Y44200000D02*
X28799999Y43900000D01*
X36900000Y46000000D02*
X36900000Y45700000D01*
X28799999Y44800001D02*
X28799999Y44500000D01*
X37500000Y44500000D02*
X37800000Y44500000D01*
X27300000Y43300001D02*
X26099999Y43300001D01*
X37800000Y43000000D02*
X37800000Y42400001D01*
X36600000Y46600000D02*
X36900000Y46600000D01*
X28799999Y45400000D02*
X28799999Y44800001D01*
X36900000Y45700000D02*
X36900000Y45400000D01*
X37800000Y43900000D02*
X37800000Y43300001D01*
X37800000Y42400001D02*
X37800000Y42100000D01*
X36000000Y46600000D02*
X36300000Y46600000D01*
X34199999Y46600000D02*
X34500000Y46600000D01*
X37800000Y42100000D02*
X38175000Y41500000D01*
X36900000Y46600000D02*
X36900000Y46300001D01*
X21599999Y43000000D02*
X21100000Y42450000D01*
X36900000Y44800001D02*
X36900000Y44500000D01*
X28799999Y43900000D02*
X28799999Y43300001D01*
X29000000Y46830000D02*
X33259999Y46830000D01*
X36900000Y45400000D02*
X36900000Y44800001D01*
X37800000Y43300001D02*
X37800000Y43000000D01*
X37800000Y44500000D02*
X37800000Y44200000D01*
X28799999Y44500000D02*
X28799999Y44200000D01*
X25800000Y43300001D02*
X24599999Y43300001D01*
X36300000Y46600000D02*
X36600000Y46600000D01*
X26099999Y43300001D02*
X25800000Y43300001D01*
X33259999Y46830000D02*
X32400000Y46900000D01*
X37800000Y44200000D02*
X37800000Y43900000D01*
X21599999Y43300001D02*
X21599999Y43000000D01*
X23099999Y43300001D02*
X22800000Y43300001D01*
X28799999Y46300001D02*
X28799999Y46000000D01*
X28799999Y43300001D02*
X28500000Y43300001D01*
X28799999Y43300001D02*
X28799999Y43000000D01*
X28500000Y43300001D02*
X27599999Y43300001D01*
X34500000Y46600000D02*
X34800000Y46600000D01*
X22800000Y43300001D02*
X21599999Y43300001D01*
X28799999Y46000000D02*
X28799999Y45700000D01*
X28799999Y42400001D02*
X28462500Y41500000D01*
X35699999Y46600000D02*
X36000000Y46600000D01*
X24599999Y43300001D02*
X24300000Y43300001D01*
X34800000Y46600000D02*
X35100000Y46600000D01*
%TO.N,/P1P*%
X33000000Y41800001D02*
X33174999Y41500000D01*
X31500000Y48100000D02*
X33259999Y48100000D01*
X21599999Y40900001D02*
X21100000Y40550000D01*
X22800000Y40900001D02*
X21599999Y40900001D01*
X33259999Y48100000D02*
X32400000Y48100000D01*
X25200000Y42100000D02*
X25537500Y41500000D01*
X23099999Y40900001D02*
X22800000Y40900001D01*
X25200000Y40900001D02*
X24599999Y40900001D01*
X24599999Y40900001D02*
X24300000Y40900001D01*
X24300000Y40900001D02*
X23099999Y40900001D01*
%TO.N,/P2N*%
X44699999Y49300001D02*
X45000000Y49300001D01*
X44699999Y44200000D02*
X44699999Y43900000D01*
X56100000Y44500000D02*
X56100000Y44200000D01*
X55199999Y49300001D02*
X55500000Y49300001D01*
X44100000Y45700000D02*
X44699999Y45700000D01*
X57000000Y49000000D02*
X57000000Y48700000D01*
X57000000Y45700000D02*
X57175000Y45000000D01*
X43000000Y45550000D02*
X38740000Y45550000D01*
X52500000Y49300001D02*
X52800000Y49300001D01*
X56100000Y49300001D02*
X56699999Y49300001D01*
X49199999Y49300001D02*
X49500000Y49300001D01*
X57000000Y46300001D02*
X57000000Y46000000D01*
X57000000Y47800001D02*
X57000000Y47500000D01*
X55199999Y43600000D02*
X54600000Y43600000D01*
X57000000Y47200000D02*
X57000000Y46900000D01*
X44100000Y49300001D02*
X44699999Y49300001D01*
X54000000Y43000000D02*
X53462500Y42000000D01*
X56100000Y43600000D02*
X55800000Y43600000D01*
X46199999Y49300001D02*
X46500000Y49300001D01*
X57000000Y48700000D02*
X57000000Y48400000D01*
X44699999Y44500000D02*
X44699999Y44200000D01*
X54600000Y43600000D02*
X54300000Y43600000D01*
X47699999Y49300001D02*
X48000000Y49300001D01*
X56100000Y44200000D02*
X56100000Y43900000D01*
X45000000Y49300001D02*
X45300000Y49300001D01*
X45600000Y49300001D02*
X46199999Y49300001D01*
X57000000Y49300001D02*
X57000000Y49000000D01*
X44699999Y43900000D02*
X44699999Y43300001D01*
X57000000Y46000000D02*
X57000000Y45700000D01*
X54000000Y43300001D02*
X54000000Y43000000D01*
X54600000Y49300001D02*
X55199999Y49300001D01*
X43800000Y49300001D02*
X44100000Y49300001D01*
X49800000Y49300001D02*
X50100000Y49300001D01*
X55800000Y43600000D02*
X55500000Y43600000D01*
X57000000Y46900000D02*
X57000000Y46300001D01*
X43800000Y45700000D02*
X44100000Y45700000D01*
X44699999Y45400000D02*
X44699999Y44800001D01*
X55500000Y49300001D02*
X55800000Y49300001D01*
X38740000Y45550000D02*
X38699999Y45700000D01*
X49500000Y49300001D02*
X49800000Y49300001D01*
X54000000Y49300001D02*
X54300000Y49300001D01*
X56699999Y49300001D02*
X57000000Y49300001D01*
X45300000Y49300001D02*
X45600000Y49300001D01*
X56100000Y44800001D02*
X56100000Y44500000D01*
X57000000Y48400000D02*
X57000000Y47800001D01*
X43199999Y45700000D02*
X43500000Y45700000D01*
X54300000Y43600000D02*
X54000000Y43600000D01*
X54300000Y49300001D02*
X54600000Y49300001D01*
X44699999Y45700000D02*
X44699999Y45400000D01*
X48300000Y49300001D02*
X48600000Y49300001D01*
X46800000Y49300001D02*
X47100000Y49300001D01*
X44699999Y44800001D02*
X44699999Y44500000D01*
X57000000Y44800001D02*
X56699999Y44800001D01*
X50100000Y49300001D02*
X50699999Y49300001D01*
X51000000Y49300001D02*
X51300000Y49300001D01*
X52800000Y49300001D02*
X53100000Y49300001D01*
X54000000Y43600000D02*
X54000000Y43300001D01*
X53699999Y49300001D02*
X54000000Y49300001D01*
X48600000Y49300001D02*
X49199999Y49300001D01*
X53100000Y49300001D02*
X53699999Y49300001D01*
X47100000Y49300001D02*
X47699999Y49300001D01*
X51600000Y49300001D02*
X52199999Y49300001D01*
X43500000Y45700000D02*
X43800000Y45700000D01*
X57000000Y47500000D02*
X57000000Y47200000D01*
X42900000Y45700000D02*
X43199999Y45700000D01*
X56100000Y43900000D02*
X56100000Y43600000D01*
X48000000Y49300001D02*
X48300000Y49300001D01*
X55500000Y43600000D02*
X55199999Y43600000D01*
X50699999Y49300001D02*
X51000000Y49300001D01*
X51300000Y49300001D02*
X51600000Y49300001D01*
X44699999Y43300001D02*
X45100000Y42950000D01*
X55800000Y49300001D02*
X56100000Y49300001D01*
X56699999Y44800001D02*
X56100000Y44800001D01*
X52199999Y49300001D02*
X52500000Y49300001D01*
X46500000Y49300001D02*
X46800000Y49300001D01*
%TO.N,/P2P*%
X48000000Y41200000D02*
X47699999Y41200000D01*
X51000000Y45400000D02*
X51300000Y45400000D01*
X47699999Y41200000D02*
X47100000Y41200000D01*
X49199999Y45400000D02*
X49500000Y45400000D01*
X38740000Y46830000D02*
X38699999Y46900000D01*
D37*
X7470000Y48470000D02*
X11000000Y48470000D01*
D36*
X50100000Y45400000D02*
X50699999Y45400000D01*
X49000000Y46830000D02*
X38740000Y46830000D01*
X52500000Y45400000D02*
X53175000Y45000000D01*
X49500000Y42700000D02*
X49800000Y42700000D01*
X46199999Y41200000D02*
X45900000Y41200000D01*
X49800000Y42700000D02*
X50537500Y42000000D01*
X46800000Y41200000D02*
X46500000Y41200000D01*
X46500000Y41200000D02*
X46199999Y41200000D01*
X48900000Y45400000D02*
X49199999Y45400000D01*
X52199999Y45400000D02*
X52500000Y45400000D01*
X11000000Y48470000D02*
X11000000Y36000000D01*
X48900000Y41200000D02*
X48600000Y41200000D01*
X48300000Y41200000D02*
X48000000Y41200000D01*
X48600000Y41200000D02*
X48300000Y41200000D01*
X49800000Y45400000D02*
X50100000Y45400000D01*
X45900000Y41200000D02*
X45100000Y41050000D01*
X49199999Y42700000D02*
X49500000Y42700000D01*
X51300000Y45400000D02*
X51600000Y45400000D01*
X50699999Y45400000D02*
X51000000Y45400000D01*
X48900000Y42700000D02*
X49199999Y42700000D01*
X11000000Y36000000D02*
X49000000Y36000000D01*
X7469999Y48470000D02*
X7199999Y48700000D01*
X49500000Y45400000D02*
X49800000Y45400000D01*
X47100000Y41200000D02*
X46800000Y41200000D01*
X51600000Y45400000D02*
X52199999Y45400000D01*
X49000000Y36000000D02*
X49000000Y46830000D01*
%TO.N,/P3N*%
X36600000Y31300000D02*
X37199999Y31300000D01*
X27300000Y31600001D02*
X27599999Y31600001D01*
X38100000Y31300000D02*
X38699999Y31300000D01*
X33600000Y31300000D02*
X34199999Y31300000D01*
X15000000Y50510000D02*
X15000000Y39000000D01*
X31799999Y30700000D02*
X32100000Y30700000D01*
X28799999Y31600001D02*
X29099999Y31600001D01*
X12000000Y50510000D02*
X15000000Y50510000D01*
X7469999Y50510000D02*
X7199999Y50800001D01*
X34500000Y31300000D02*
X34800000Y31300000D01*
X33000000Y31300000D02*
X33299999Y31300000D01*
X37500000Y31300000D02*
X37800000Y31300000D01*
X34800000Y31300000D02*
X35100000Y31300000D01*
X38699999Y31300000D02*
X39000000Y31300000D01*
X25800000Y31600001D02*
X26099999Y31600001D01*
X26099999Y31600001D02*
X27300000Y31600001D01*
X31500000Y30700000D02*
X31799999Y30700000D01*
X29099999Y31300000D02*
X29099999Y31000000D01*
X35699999Y31300000D02*
X36000000Y31300000D01*
X25200000Y31300000D02*
X25200000Y31600001D01*
X23099999Y31000000D02*
X24300000Y31000000D01*
X24599999Y31000000D02*
X25200000Y31000000D01*
X37199999Y31300000D02*
X37500000Y31300000D01*
X32699999Y30700000D02*
X33000000Y30700000D01*
X34199999Y31300000D02*
X34500000Y31300000D01*
X25200000Y31000000D02*
X25200000Y31300000D01*
X30000000Y30700000D02*
X30299999Y30700000D01*
X36000000Y31300000D02*
X36300000Y31300000D01*
X28500000Y31600001D02*
X28799999Y31600001D01*
X27599999Y31600001D02*
X28500000Y31600001D01*
X45000000Y53170000D02*
X38740000Y53170000D01*
X36300000Y31300000D02*
X36600000Y31300000D01*
X32100000Y30700000D02*
X32699999Y30700000D01*
X38740000Y53170000D02*
X38699999Y53200000D01*
X33000000Y30700000D02*
X33000000Y31300000D01*
X20700000Y39100000D02*
X20700000Y38800001D01*
X24300000Y31000000D02*
X24599999Y31000000D01*
X39000000Y30700000D02*
X39175000Y30000000D01*
X30299999Y30700000D02*
X31500000Y30700000D01*
X20700000Y31000000D02*
X21100000Y30950000D01*
D37*
X7470000Y50510000D02*
X12000000Y50510000D01*
D36*
X29099999Y31600001D02*
X29099999Y31300000D01*
X29099999Y31000000D02*
X29462500Y30000000D01*
X15000000Y39000000D02*
X45000000Y39000000D01*
X37800000Y31300000D02*
X38100000Y31300000D01*
X21599999Y31000000D02*
X22800000Y31000000D01*
X22800000Y31000000D02*
X23099999Y31000000D01*
X25200000Y31600001D02*
X25800000Y31600001D01*
X33299999Y31300000D02*
X33600000Y31300000D01*
X39000000Y31300000D02*
X39000000Y30700000D01*
X35100000Y31300000D02*
X35699999Y31300000D01*
%TO.N,/P3P*%
X28500000Y28300000D02*
X28799999Y28300000D01*
X24599999Y29200000D02*
X24300000Y29200000D01*
X33600000Y29800000D02*
X34175000Y30000000D01*
X30900000Y29500000D02*
X31500000Y29500000D01*
X28200000Y28300000D02*
X28500000Y28300000D01*
X9250000Y49490000D02*
X13000000Y49490000D01*
X28200000Y29200000D02*
X28200000Y28600001D01*
X21900000Y29200000D02*
X21100000Y29050000D01*
X28799999Y28300000D02*
X30000000Y28300000D01*
X31799999Y29500000D02*
X31799999Y29800000D01*
X27300000Y29200000D02*
X27599999Y29200000D01*
X30900000Y28600001D02*
X30900000Y29500000D01*
X30900000Y28300000D02*
X30900000Y28600001D01*
X32100000Y29800000D02*
X32699999Y29800000D01*
X30000000Y28300000D02*
X30299999Y28300000D01*
X31500000Y29500000D02*
X31799999Y29500000D01*
X23099999Y29200000D02*
X22800000Y29200000D01*
X38740000Y51900000D02*
X38699999Y52000000D01*
X24300000Y29200000D02*
X23099999Y29200000D01*
X33299999Y29800000D02*
X33600000Y29800000D01*
X28200000Y28600001D02*
X28200000Y28300000D01*
X9249999Y49490000D02*
X9000000Y49600000D01*
X26099999Y29200000D02*
X25800000Y29200000D01*
X32699999Y29800000D02*
X33000000Y29800000D01*
X26400000Y37600000D02*
X26400000Y37300001D01*
X25800000Y29200000D02*
X24599999Y29200000D01*
X22800000Y29200000D02*
X21900000Y29200000D01*
X27599999Y29200000D02*
X28200000Y29200000D01*
X13000000Y37500000D02*
X47000000Y37500000D01*
X13000000Y49490000D02*
X13000000Y37500000D01*
X31799999Y29800000D02*
X32100000Y29800000D01*
X47000000Y51900000D02*
X38740000Y51900000D01*
X26400000Y30400000D02*
X26537500Y30000000D01*
X30299999Y28300000D02*
X30900000Y28300000D01*
X33000000Y29800000D02*
X33299999Y29800000D01*
X27000000Y29200000D02*
X27300000Y29200000D01*
%TO.N,/P4N*%
X34199999Y59800001D02*
X34199999Y60400000D01*
X34199999Y56200000D02*
X34199999Y56500000D01*
X34199999Y57400000D02*
X34199999Y57700000D01*
X34199999Y59200000D02*
X34199999Y59500000D01*
X34199999Y55900000D02*
X34199999Y56200000D01*
X34199999Y56800001D02*
X34199999Y57400000D01*
X34199999Y59500000D02*
X34199999Y59800001D01*
X34199999Y55000000D02*
X34199999Y55300001D01*
X34199999Y60400000D02*
X34199999Y60700000D01*
X34199999Y61300001D02*
X34199999Y61600000D01*
X34199999Y61000000D02*
X34199999Y61300001D01*
X34199999Y57700000D02*
X34199999Y58000000D01*
X25800000Y61300001D02*
X25462500Y62000000D01*
X31500000Y54450000D02*
X33259999Y54450000D01*
X34199999Y55300001D02*
X34199999Y55900000D01*
X34199999Y54700000D02*
X34199999Y55000000D01*
X34199999Y58900000D02*
X34199999Y59200000D01*
X33259999Y54450000D02*
X32400000Y54700000D01*
X34199999Y61600000D02*
X34500000Y61600000D01*
X34199999Y56500000D02*
X34199999Y56800001D01*
X16800000Y62800001D02*
X17100000Y62950000D01*
X34199999Y60700000D02*
X34199999Y61000000D01*
X34199999Y58000000D02*
X34199999Y58300001D01*
X34199999Y58300001D02*
X34199999Y58900000D01*
X34500000Y61600000D02*
X35175000Y62000000D01*
%TO.N,/P4P*%
X19800000Y61300001D02*
X20099999Y61300001D01*
X30000000Y56500000D02*
X30000000Y56800001D01*
X21599999Y61300001D02*
X21900000Y61300001D01*
X16800000Y58300001D02*
X16800000Y58900000D01*
X30000000Y57400000D02*
X30000000Y57700000D01*
X16800000Y56800001D02*
X16800000Y57400000D01*
X16800000Y60700000D02*
X17100000Y61050000D01*
X16800000Y56500000D02*
X16800000Y56800001D01*
X30000000Y56800001D02*
X30000000Y57400000D01*
X30000000Y53800001D02*
X30000000Y54400000D01*
X16800000Y59200000D02*
X16800000Y59500000D01*
X30000000Y61300001D02*
X30175000Y62000000D01*
X16800000Y58900000D02*
X16800000Y59200000D01*
X30000000Y58900000D02*
X30000000Y59200000D01*
X16800000Y55300001D02*
X16800000Y55900000D01*
X29000000Y53170000D02*
X33259999Y53170000D01*
X16800000Y57700000D02*
X16800000Y58000000D01*
X16800000Y58000000D02*
X16800000Y58300001D01*
X30000000Y59500000D02*
X30000000Y59800001D01*
X16800000Y57400000D02*
X16800000Y57700000D01*
X18300000Y61300001D02*
X18599999Y61300001D01*
X30000000Y55300001D02*
X30000000Y55900000D01*
X30000000Y58300001D02*
X30000000Y58900000D01*
X30000000Y53200000D02*
X30000000Y53500000D01*
X30000000Y59200000D02*
X30000000Y59500000D01*
X17400000Y61300001D02*
X18300000Y61300001D01*
X16800000Y56200000D02*
X16800000Y56500000D01*
X30000000Y56200000D02*
X30000000Y56500000D01*
X18599999Y61300001D02*
X19800000Y61300001D01*
X30000000Y60400000D02*
X30000000Y60700000D01*
X30000000Y54400000D02*
X30000000Y54700000D01*
X16800000Y59800001D02*
X16800000Y60400000D01*
X16800000Y54400000D02*
X16800000Y54700000D01*
X30000000Y61000000D02*
X30000000Y61300001D01*
X21300000Y61300001D02*
X21599999Y61300001D01*
X16800000Y54700000D02*
X16800000Y55000000D01*
X30000000Y55900000D02*
X30000000Y56200000D01*
X33259999Y53170000D02*
X32400000Y53200000D01*
X20099999Y61300001D02*
X21300000Y61300001D01*
X16800000Y55000000D02*
X16800000Y55300001D01*
X30000000Y55000000D02*
X30000000Y55300001D01*
X30000000Y60700000D02*
X30000000Y61000000D01*
X16800000Y55900000D02*
X16800000Y56200000D01*
X30000000Y54700000D02*
X30000000Y55000000D01*
X30000000Y58000000D02*
X30000000Y58300001D01*
X30000000Y53500000D02*
X30000000Y53800001D01*
X16800000Y59500000D02*
X16800000Y59800001D01*
X30000000Y57700000D02*
X30000000Y58000000D01*
X16800000Y60400000D02*
X16800000Y60700000D01*
X21900000Y61300001D02*
X22537500Y62000000D01*
X30000000Y59800001D02*
X30000000Y60400000D01*
%TO.N,/RXD1*%
X29099999Y49600000D02*
X30000000Y49600000D01*
X24000000Y66400000D02*
X24000000Y65800001D01*
X24000000Y64300001D02*
X24000000Y64000000D01*
X24599999Y53500000D02*
X24599999Y53200000D01*
X24599999Y58900000D02*
X24599999Y58300001D01*
X11400000Y68500000D02*
X11700000Y68500000D01*
X32100000Y49600000D02*
X33259999Y49370000D01*
X24599999Y56200000D02*
X24599999Y55900000D01*
X27300000Y48100000D02*
X27599999Y48100000D01*
X12900000Y67300001D02*
X12900000Y67000000D01*
X24599999Y49000000D02*
X24599999Y48700000D01*
X14100000Y67000000D02*
X14399999Y67000000D01*
X13799999Y67000000D02*
X14100000Y67000000D01*
X24599999Y49900000D02*
X24599999Y49300001D01*
X12900000Y67900000D02*
X12900000Y67300001D01*
X30000000Y49600000D02*
X30299999Y49600000D01*
X24599999Y50800001D02*
X24599999Y50500000D01*
X18300000Y67000000D02*
X18599999Y67000000D01*
X24000000Y65800001D02*
X24000000Y65500000D01*
X24599999Y52900000D02*
X24599999Y52300001D01*
X24599999Y55300001D02*
X24599999Y55000000D01*
X24000000Y62200000D02*
X24000000Y61900000D01*
X24000000Y63400000D02*
X24000000Y62800001D01*
X24599999Y59800001D02*
X24599999Y59500000D01*
X24000000Y67000000D02*
X24000000Y66700001D01*
X24000000Y63700000D02*
X24000000Y63400000D01*
X30299999Y49600000D02*
X31500000Y49600000D01*
X22800000Y67000000D02*
X23099999Y67000000D01*
X24599999Y57700000D02*
X24599999Y57400000D01*
X24599999Y57400000D02*
X24599999Y56800001D01*
X24599999Y58300001D02*
X24599999Y58000000D01*
X24599999Y51400000D02*
X24599999Y50800001D01*
X24599999Y50500000D02*
X24599999Y50200000D01*
X24599999Y48700000D02*
X25800000Y48700000D01*
X24599999Y60400000D02*
X24599999Y59800001D01*
X24599999Y55900000D02*
X24599999Y55300001D01*
X24599999Y50200000D02*
X24599999Y49900000D01*
X28500000Y48700000D02*
X28825000Y49370000D01*
X23099999Y67000000D02*
X24000000Y67000000D01*
X24599999Y56500000D02*
X24599999Y56200000D01*
X13500000Y67000000D02*
X13799999Y67000000D01*
X15899999Y67000000D02*
X16800000Y67000000D01*
X24000000Y60700000D02*
X24000000Y60400000D01*
X12299999Y68500000D02*
X12900000Y68500000D01*
X21300000Y67000000D02*
X21599999Y67000000D01*
X24000000Y64900000D02*
X24000000Y64300001D01*
X24000000Y62800001D02*
X24000000Y62500000D01*
X24599999Y53200000D02*
X24599999Y52900000D01*
X12000000Y68500000D02*
X12299999Y68500000D01*
X24300000Y60400000D02*
X24599999Y60400000D01*
X24599999Y51700000D02*
X24599999Y51400000D01*
X24599999Y58000000D02*
X24599999Y57700000D01*
X26099999Y48100000D02*
X27300000Y48100000D01*
X31799999Y49600000D02*
X32100000Y49600000D01*
X24599999Y52000000D02*
X24599999Y51700000D01*
X24000000Y60400000D02*
X24300000Y60400000D01*
X24000000Y65200000D02*
X24000000Y64900000D01*
X28500000Y48100000D02*
X28500000Y48400000D01*
X24599999Y56800001D02*
X24599999Y56500000D01*
X24599999Y59500000D02*
X24599999Y59200000D01*
X24000000Y65500000D02*
X24000000Y65200000D01*
X24599999Y49300001D02*
X24599999Y49000000D01*
X24000000Y66700001D02*
X24000000Y66400000D01*
X21599999Y67000000D02*
X22800000Y67000000D01*
X18599999Y67000000D02*
X19800000Y67000000D01*
X11700000Y68500000D02*
X12000000Y68500000D01*
X12900000Y67000000D02*
X13200000Y67000000D01*
X25800000Y48100000D02*
X26099999Y48100000D01*
X24000000Y62500000D02*
X24000000Y62200000D01*
X24599999Y54400000D02*
X24599999Y53800001D01*
X24599999Y54700000D02*
X24599999Y54400000D01*
X24000000Y61900000D02*
X24000000Y61300001D01*
X13200000Y67000000D02*
X13500000Y67000000D01*
X15299999Y67000000D02*
X15600000Y67000000D01*
X19800000Y67000000D02*
X20099999Y67000000D01*
X12900000Y68200001D02*
X12900000Y67900000D01*
X24000000Y61000000D02*
X24000000Y60700000D01*
X16800000Y67000000D02*
X17099999Y67000000D01*
X24599999Y55000000D02*
X24599999Y54700000D01*
X31500000Y49600000D02*
X31799999Y49600000D01*
X17099999Y67000000D02*
X18300000Y67000000D01*
X24599999Y52300001D02*
X24599999Y52000000D01*
X24599999Y59200000D02*
X24599999Y58900000D01*
X14399999Y67000000D02*
X15000000Y67000000D01*
X28500000Y48400000D02*
X28500000Y48700000D01*
X27599999Y48100000D02*
X28500000Y48100000D01*
X25800000Y48400000D02*
X25800000Y48100000D01*
X15000000Y67000000D02*
X15299999Y67000000D01*
X11050000Y69000000D02*
X11400000Y68500000D01*
X15600000Y67000000D02*
X15899999Y67000000D01*
X24000000Y61300001D02*
X24000000Y61000000D01*
X24000000Y64000000D02*
X24000000Y63700000D01*
X25800000Y48700000D02*
X25800000Y48400000D01*
X24599999Y53800001D02*
X24599999Y53500000D01*
X20099999Y67000000D02*
X21300000Y67000000D01*
X12900000Y68500000D02*
X12900000Y68200001D01*
%TO.N,/RXD2*%
X40500000Y48100000D02*
X40800000Y48100000D01*
X44100000Y48100000D02*
X44699999Y48100000D01*
X22500000Y68500000D02*
X22800000Y68500000D01*
X36900000Y53500000D02*
X36900000Y53200000D01*
X36900000Y50200000D02*
X36900000Y49900000D01*
X45000000Y48100000D02*
X45300000Y48100000D01*
X45300000Y48100000D02*
X45600000Y48100000D01*
X36900000Y55900000D02*
X36900000Y55300001D01*
X48600000Y48100000D02*
X49199999Y48100000D01*
X22800000Y68500000D02*
X23099999Y68500000D01*
X40199999Y48100000D02*
X40500000Y48100000D01*
X47100000Y48100000D02*
X47699999Y48100000D01*
X48300000Y48100000D02*
X48600000Y48100000D01*
X49199999Y48100000D02*
X49500000Y48100000D01*
X47699999Y48100000D02*
X48000000Y48100000D01*
X36900000Y55300001D02*
X36900000Y55000000D01*
X50100000Y48100000D02*
X50699999Y48100000D01*
X36900000Y52000000D02*
X36900000Y51700000D01*
X50699999Y48100000D02*
X51175000Y48100000D01*
X49500000Y48100000D02*
X49800000Y48100000D01*
X36900000Y48100000D02*
X37199999Y48100000D01*
X36900000Y52900000D02*
X36900000Y52300001D01*
X36900000Y49300001D02*
X36900000Y49000000D01*
X43800000Y48100000D02*
X44100000Y48100000D01*
X36900000Y49900000D02*
X36900000Y49300001D01*
X36900000Y50800001D02*
X36900000Y50500000D01*
X36900000Y48700000D02*
X36900000Y48400000D01*
X36900000Y49000000D02*
X36900000Y48700000D01*
X46199999Y48100000D02*
X46500000Y48100000D01*
X36900000Y54700000D02*
X36900000Y54400000D01*
X42000000Y48100000D02*
X42300000Y48100000D01*
X43199999Y48100000D02*
X43500000Y48100000D01*
X36900000Y55000000D02*
X36900000Y54700000D01*
X48000000Y48100000D02*
X48300000Y48100000D01*
X42300000Y48100000D02*
X42600000Y48100000D01*
X41100000Y48100000D02*
X41699999Y48100000D01*
X45600000Y48100000D02*
X46199999Y48100000D01*
X44699999Y48100000D02*
X45000000Y48100000D01*
X36900000Y52300001D02*
X36900000Y52000000D01*
X41699999Y48100000D02*
X42000000Y48100000D01*
X36900000Y51700000D02*
X36900000Y51400000D01*
X36900000Y54400000D02*
X36900000Y53800001D01*
X22050000Y69000000D02*
X22500000Y68500000D01*
X46800000Y48100000D02*
X47100000Y48100000D01*
X36900000Y50500000D02*
X36900000Y50200000D01*
X46500000Y48100000D02*
X46800000Y48100000D01*
X43500000Y48100000D02*
X43800000Y48100000D01*
X36900000Y48400000D02*
X36900000Y48100000D01*
X42600000Y48100000D02*
X43199999Y48100000D01*
X49800000Y48100000D02*
X50100000Y48100000D01*
X36900000Y53200000D02*
X36900000Y52900000D01*
X36900000Y51400000D02*
X36900000Y50800001D01*
X40800000Y48100000D02*
X41100000Y48100000D01*
X36900000Y53800001D02*
X36900000Y53500000D01*
X37500000Y48100000D02*
X38740000Y48100000D01*
X39600000Y48100000D02*
X40199999Y48100000D01*
X37199999Y48100000D02*
X37500000Y48100000D01*
%TO.N,/RXD3*%
X34800000Y68200001D02*
X34800000Y67900000D01*
X50100000Y67000000D02*
X50699999Y67000000D01*
X47100000Y50800001D02*
X46800000Y50800001D01*
X50699999Y50800001D02*
X50100000Y50800001D01*
X45000000Y50800001D02*
X44699999Y50800001D01*
X44100000Y67000000D02*
X44699999Y67000000D01*
X42000000Y67000000D02*
X42300000Y67000000D01*
X37500000Y67000000D02*
X37800000Y67000000D01*
X51000000Y60700000D02*
X51000000Y60400000D01*
X38100000Y67000000D02*
X38699999Y67000000D01*
X51000000Y63700000D02*
X51000000Y63400000D01*
X39600000Y67000000D02*
X40199999Y67000000D01*
X40800000Y67000000D02*
X41100000Y67000000D01*
X40199999Y50800001D02*
X39900000Y50800001D01*
X46800000Y50800001D02*
X46500000Y50800001D01*
X40500000Y50800001D02*
X40199999Y50800001D01*
X43800000Y50800001D02*
X43500000Y50800001D01*
X51000000Y64000000D02*
X51000000Y63700000D01*
X48000000Y67000000D02*
X48300000Y67000000D01*
X37800000Y67000000D02*
X38100000Y67000000D01*
X42600000Y50800001D02*
X42300000Y50800001D01*
X51000000Y57400000D02*
X51000000Y56800001D01*
X37199999Y67000000D02*
X37500000Y67000000D01*
X51000000Y55000000D02*
X51000000Y54700000D01*
X46199999Y50800001D02*
X45600000Y50800001D01*
X49199999Y67000000D02*
X49500000Y67000000D01*
X42300000Y67000000D02*
X42600000Y67000000D01*
X51000000Y66400000D02*
X51000000Y65800001D01*
X51000000Y58900000D02*
X51000000Y58300001D01*
X51000000Y61900000D02*
X51000000Y61300001D01*
X51000000Y52300001D02*
X51000000Y52000000D01*
X44699999Y67000000D02*
X45000000Y67000000D01*
X51000000Y64900000D02*
X51000000Y64300001D01*
X51000000Y51700000D02*
X51000000Y51400000D01*
X51000000Y53800001D02*
X51000000Y53500000D01*
X51000000Y61000000D02*
X51000000Y60700000D01*
X34199999Y68500000D02*
X34500000Y68500000D01*
X40199999Y67000000D02*
X40500000Y67000000D01*
X34800000Y68500000D02*
X34800000Y68200001D01*
X51000000Y66700001D02*
X51000000Y66400000D01*
X33600000Y68500000D02*
X34199999Y68500000D01*
X49800000Y67000000D02*
X50100000Y67000000D01*
X39000000Y67000000D02*
X39300000Y67000000D01*
X39300000Y67000000D02*
X39600000Y67000000D01*
X47699999Y67000000D02*
X48000000Y67000000D01*
X42300000Y50800001D02*
X42000000Y50800001D01*
X38699999Y67000000D02*
X39000000Y67000000D01*
X33049999Y69000000D02*
X33299999Y68500000D01*
X42000000Y50800001D02*
X41699999Y50800001D01*
X51000000Y57700000D02*
X51000000Y57400000D01*
X51000000Y59500000D02*
X51000000Y59200000D01*
X51000000Y65500000D02*
X51000000Y65200000D01*
X51000000Y53200000D02*
X51000000Y52900000D01*
X36300000Y67000000D02*
X36600000Y67000000D01*
X50100000Y50800001D02*
X49800000Y50800001D01*
X51000000Y63400000D02*
X51000000Y62800001D01*
X51000000Y55900000D02*
X51000000Y55300001D01*
X49500000Y50800001D02*
X49199999Y50800001D01*
X43500000Y67000000D02*
X43800000Y67000000D01*
X36000000Y67000000D02*
X36300000Y67000000D01*
X43800000Y67000000D02*
X44100000Y67000000D01*
X35699999Y67000000D02*
X36000000Y67000000D01*
X49800000Y50800001D02*
X49500000Y50800001D01*
X51000000Y50800001D02*
X50699999Y50800001D01*
X49500000Y67000000D02*
X49800000Y67000000D01*
X34800000Y67300001D02*
X34800000Y67000000D01*
X51000000Y55300001D02*
X51000000Y55000000D01*
X51000000Y58300001D02*
X51000000Y58000000D01*
X51000000Y64300001D02*
X51000000Y64000000D01*
X51000000Y54700000D02*
X51000000Y54400000D01*
X51000000Y59200000D02*
X51000000Y58900000D01*
X40800000Y50800001D02*
X40500000Y50800001D01*
X51000000Y56200000D02*
X51000000Y55900000D01*
X34800000Y67000000D02*
X35100000Y67000000D01*
X41699999Y67000000D02*
X42000000Y67000000D01*
X44699999Y50800001D02*
X44100000Y50800001D01*
X46800000Y67000000D02*
X47100000Y67000000D01*
X51000000Y53500000D02*
X51000000Y53200000D01*
X51000000Y56500000D02*
X51000000Y56200000D01*
X45300000Y50800001D02*
X45000000Y50800001D01*
X48000000Y50800001D02*
X47699999Y50800001D01*
X51000000Y61300001D02*
X51000000Y61000000D01*
X51000000Y65800001D02*
X51000000Y65500000D01*
X36600000Y67000000D02*
X37199999Y67000000D01*
X44100000Y50800001D02*
X43800000Y50800001D01*
X51000000Y65200000D02*
X51000000Y64900000D01*
X51000000Y51400000D02*
X51175000Y50630000D01*
X48600000Y67000000D02*
X49199999Y67000000D01*
X39900000Y50800001D02*
X38740000Y50630000D01*
X51000000Y58000000D02*
X51000000Y57700000D01*
X49199999Y50800001D02*
X48600000Y50800001D01*
X45600000Y50800001D02*
X45300000Y50800001D01*
X42600000Y67000000D02*
X43199999Y67000000D01*
X41699999Y50800001D02*
X41100000Y50800001D01*
X47100000Y67000000D02*
X47699999Y67000000D01*
X48300000Y50800001D02*
X48000000Y50800001D01*
X43199999Y50800001D02*
X42600000Y50800001D01*
X51000000Y62500000D02*
X51000000Y62200000D01*
X51000000Y52000000D02*
X51000000Y51700000D01*
X50699999Y67000000D02*
X51000000Y67000000D01*
X48600000Y50800001D02*
X48300000Y50800001D01*
X46500000Y67000000D02*
X46800000Y67000000D01*
X51000000Y56800001D02*
X51000000Y56500000D01*
X40500000Y67000000D02*
X40800000Y67000000D01*
X41100000Y50800001D02*
X40800000Y50800001D01*
X45300000Y67000000D02*
X45600000Y67000000D01*
X51000000Y54400000D02*
X51000000Y53800001D01*
X35100000Y67000000D02*
X35699999Y67000000D01*
X51000000Y62200000D02*
X51000000Y61900000D01*
X51000000Y62800001D02*
X51000000Y62500000D01*
X33299999Y68500000D02*
X33600000Y68500000D01*
X41100000Y67000000D02*
X41699999Y67000000D01*
X46199999Y67000000D02*
X46500000Y67000000D01*
X34800000Y67900000D02*
X34800000Y67300001D01*
X51000000Y59800001D02*
X51000000Y59500000D01*
X51000000Y60400000D02*
X51000000Y59800001D01*
X51000000Y67000000D02*
X51000000Y66700001D01*
X51000000Y52900000D02*
X51000000Y52300001D01*
X43500000Y50800001D02*
X43199999Y50800001D01*
X46500000Y50800001D02*
X46199999Y50800001D01*
X34500000Y68500000D02*
X34800000Y68500000D01*
X48300000Y67000000D02*
X48600000Y67000000D01*
X45000000Y67000000D02*
X45300000Y67000000D01*
X47699999Y50800001D02*
X47100000Y50800001D01*
X43199999Y67000000D02*
X43500000Y67000000D01*
X45600000Y67000000D02*
X46199999Y67000000D01*
%TO.N,/RXD4*%
X32100000Y52000000D02*
X31799999Y52000000D01*
X31799999Y52000000D02*
X31500000Y52000000D01*
X43800000Y68500000D02*
X43500000Y68500000D01*
X35100000Y54700000D02*
X35100000Y54400000D01*
X37800000Y60700000D02*
X37500000Y60700000D01*
X35100000Y52000000D02*
X34800000Y52000000D01*
X35100000Y55900000D02*
X35100000Y55300001D01*
X29400000Y52000000D02*
X28825000Y51900000D01*
X35100000Y56200000D02*
X35100000Y55900000D01*
X30000000Y52000000D02*
X29400000Y52000000D01*
X30299999Y52000000D02*
X30000000Y52000000D01*
X35100000Y52900000D02*
X35100000Y52300001D01*
X36000000Y60700000D02*
X35699999Y60700000D01*
X35100000Y56500000D02*
X35100000Y56200000D01*
X34800000Y52000000D02*
X34500000Y52000000D01*
X35100000Y55300001D02*
X35100000Y55000000D01*
X38100000Y61300001D02*
X38100000Y61000000D01*
X35100000Y54400000D02*
X35100000Y53800001D01*
X35100000Y52300001D02*
X35100000Y52000000D01*
X35100000Y57700000D02*
X35100000Y57400000D01*
X35100000Y60400000D02*
X35100000Y59800001D01*
X35100000Y60700000D02*
X35100000Y60400000D01*
X35100000Y58000000D02*
X35100000Y57700000D01*
X35100000Y53200000D02*
X35100000Y52900000D01*
X35100000Y53500000D02*
X35100000Y53200000D01*
X35100000Y53800001D02*
X35100000Y53500000D01*
X32400000Y52000000D02*
X32100000Y52000000D01*
X35100000Y59800001D02*
X35100000Y59500000D01*
X36300000Y60700000D02*
X36000000Y60700000D01*
X35100000Y57400000D02*
X35100000Y56800001D01*
X36600000Y60700000D02*
X36300000Y60700000D01*
X38400000Y61300001D02*
X38100000Y61300001D01*
X35100000Y58300001D02*
X35100000Y58000000D01*
X35100000Y58900000D02*
X35100000Y58300001D01*
X38100000Y60700000D02*
X37800000Y60700000D01*
X38100000Y61000000D02*
X38100000Y60700000D01*
X31500000Y52000000D02*
X30299999Y52000000D01*
X35100000Y59200000D02*
X35100000Y58900000D01*
X35100000Y59500000D02*
X35100000Y59200000D01*
X34500000Y52000000D02*
X33259999Y51900000D01*
X35100000Y55000000D02*
X35100000Y54700000D01*
X44050000Y69000000D02*
X43800000Y68500000D01*
X35100000Y56800001D02*
X35100000Y56500000D01*
X35699999Y60700000D02*
X35100000Y60700000D01*
X37199999Y60700000D02*
X36600000Y60700000D01*
X37500000Y60700000D02*
X37199999Y60700000D01*
%TO.N,/V1*%
D35*
X9900000Y85000000D02*
X9900000Y89000000D01*
X10000000Y92000000D02*
X10000000Y95500000D01*
X9900000Y89000000D02*
X10000000Y92000000D01*
%TO.N,/V10*%
X10000000Y8000000D02*
X10000000Y4500000D01*
X20100000Y15000000D02*
X20100000Y11000000D01*
X20100000Y11000000D02*
X10000000Y8000000D01*
%TO.N,/V11*%
X40100000Y11000000D02*
X30000000Y8000000D01*
X40100000Y15000000D02*
X40100000Y11000000D01*
X30000000Y8000000D02*
X30000000Y4500000D01*
%TO.N,/V12*%
X50000000Y8000000D02*
X50000000Y4500000D01*
X60100000Y11000000D02*
X50000000Y8000000D01*
X60100000Y15000000D02*
X60100000Y11000000D01*
%TO.N,/V2*%
X29900000Y89000000D02*
X30000000Y92000000D01*
X29900000Y85000000D02*
X29900000Y89000000D01*
X30000000Y92000000D02*
X30000000Y95500000D01*
%TO.N,/V3*%
X49900000Y89000000D02*
X50000000Y92000000D01*
X49900000Y85000000D02*
X49900000Y89000000D01*
X50000000Y92000000D02*
X50000000Y95500000D01*
%TO.N,/V4*%
X70000000Y92000000D02*
X70000000Y95500000D01*
X69900000Y89000000D02*
X70000000Y92000000D01*
X69900000Y85000000D02*
X69900000Y89000000D01*
%TO.N,/V5*%
X89900000Y85000000D02*
X89900000Y89000000D01*
X89900000Y89000000D02*
X90000000Y92000000D01*
X90000000Y92000000D02*
X90000000Y95500000D01*
%TO.N,/V6*%
X109900000Y85000000D02*
X109900000Y89000000D01*
X110000000Y92000000D02*
X110000000Y95500000D01*
X109900000Y89000000D02*
X110000000Y92000000D01*
%TO.N,/V7*%
X80100000Y15000000D02*
X80100000Y11000000D01*
X70000000Y8000000D02*
X70000000Y4500000D01*
X80100000Y11000000D02*
X70000000Y8000000D01*
%TO.N,/V8*%
X100100000Y15000000D02*
X100100000Y11000000D01*
X90000000Y8000000D02*
X90000000Y4500000D01*
X100100000Y11000000D02*
X90000000Y8000000D01*
%TO.N,/V9*%
X120100000Y15000000D02*
X120100000Y11000000D01*
X120100000Y11000000D02*
X110000000Y8000000D01*
X110000000Y8000000D02*
X110000000Y4500000D01*
%TO.N,/VG*%
D34*
X104175000Y46500000D02*
X104100000Y46300001D01*
X70270000Y46800000D02*
X70270000Y45000000D01*
X99825000Y46500000D02*
X99600000Y46300001D01*
X78270000Y47290000D02*
X78000000Y46900000D01*
X70270000Y45000000D02*
X109000000Y45000000D01*
X108810000Y46030000D02*
X108810000Y45000000D01*
X94270000Y47290000D02*
X94200000Y46900000D01*
X104180000Y46030000D02*
X104180000Y45000000D01*
X99820000Y46030000D02*
X99820000Y45000000D01*
X108810000Y46500000D02*
X108600000Y46300001D01*
X86270000Y46800000D02*
X86270000Y45000000D01*
X94270000Y46800000D02*
X94270000Y45000000D01*
X70270000Y47290000D02*
X70200000Y46900000D01*
X86270000Y47290000D02*
X86100000Y46900000D01*
X78270000Y46800000D02*
X78270000Y45000000D01*
%TO.N,/VREG*%
X100200000Y30100001D02*
X100500000Y30100001D01*
X116100000Y32800000D02*
X116962500Y32500000D01*
X113700000Y32800000D02*
X115199999Y32800000D01*
X100500000Y31000000D02*
X100825000Y31500000D01*
X109200000Y32800000D02*
X110399999Y32800000D01*
X111899999Y32800000D02*
X112200000Y32800000D01*
X113399999Y32800000D02*
X113700000Y32800000D01*
X99000000Y29500000D02*
X99899999Y29500000D01*
X115199999Y32800000D02*
X115500000Y32800000D01*
X98525000Y28000000D02*
X99000000Y28900000D01*
X115500000Y32800000D02*
X116100000Y32800000D01*
X99899999Y29500000D02*
X99899999Y29800000D01*
X100500000Y30100001D02*
X100500000Y31000000D01*
X99899999Y30100001D02*
X100200000Y30100001D01*
X99899999Y29800000D02*
X99899999Y30100001D01*
X101100000Y31900000D02*
X101399999Y31900000D01*
X106200000Y31900000D02*
X107140000Y32300000D01*
X110700000Y32800000D02*
X111899999Y32800000D01*
X108899999Y32800000D02*
X109200000Y32800000D01*
X108300000Y32800000D02*
X108899999Y32800000D01*
X99000000Y28900000D02*
X99000000Y29500000D01*
X101700000Y31900000D02*
X102600000Y31900000D01*
X101399999Y31900000D02*
X101700000Y31900000D01*
X110399999Y32800000D02*
X110700000Y32800000D01*
X112200000Y32800000D02*
X113399999Y32800000D01*
%TO.N,GND*%
D38*
X81730000Y47500000D02*
X81730000Y52000000D01*
D33*
X18900000Y30000000D02*
X19282683Y29076121D01*
X42900000Y42000000D02*
X42517316Y42923880D01*
X14900000Y62000000D02*
X15282683Y61076121D01*
X47690000Y28000000D02*
X48690000Y28000000D01*
X89270000Y30500000D02*
X90270000Y30500000D01*
D39*
X32400000Y62200000D02*
X32400000Y62500000D01*
X42600000Y55000000D02*
X42600000Y55300001D01*
D33*
X119037500Y28000000D02*
X120037500Y28000000D01*
X119037500Y32500000D02*
X120037500Y32500000D01*
X125037500Y30000000D02*
X126037500Y30000000D01*
X105825000Y46500000D02*
X105825000Y47500000D01*
D39*
X31825000Y62000000D02*
X32100000Y62200000D01*
X32100000Y62200000D02*
X32400000Y62200000D01*
D33*
X47175000Y69000000D02*
X47175000Y68000000D01*
X36175000Y69000000D02*
X35792316Y68076121D01*
X14175000Y69000000D02*
X14175000Y68000000D01*
X112190000Y46500000D02*
X113190000Y46500000D01*
X35825000Y30000000D02*
X36207683Y29076121D01*
D39*
X38740000Y49370000D02*
X41600000Y49370000D01*
D33*
X54825000Y45000000D02*
X54825000Y46000000D01*
D38*
X73730000Y47500000D02*
X73730000Y52000000D01*
D33*
X25175000Y69000000D02*
X24467893Y68292894D01*
X73690000Y30500000D02*
X74690000Y30500000D01*
D38*
X89730000Y47500000D02*
X89730000Y52000000D01*
D33*
X107140000Y30000000D02*
X108140000Y30000000D01*
D39*
X42537500Y54450000D02*
X42600000Y55000000D01*
D38*
X65730000Y47500000D02*
X65730000Y52000000D01*
D33*
X112860000Y30000000D02*
X113860000Y30000000D01*
X33259999Y45550000D02*
X34183879Y45167317D01*
D39*
X42600000Y55300001D02*
X42600000Y55600000D01*
D33*
X58175000Y69000000D02*
X57467893Y68292894D01*
D39*
X34800000Y41800001D02*
X34800000Y42100000D01*
D33*
X18900000Y41500000D02*
X19282683Y40576121D01*
D39*
X34825000Y41500000D02*
X34800000Y41800001D01*
X34800000Y42100000D02*
X34800000Y42400001D01*
D33*
X101475000Y28000000D02*
X102475000Y28000000D01*
%TD*%
%TA.AperFunction,Conductor*%
%TO.N,/12VIN*%
G36*
X128943039Y69980315D02*
G01*
X128988794Y69927511D01*
X129000000Y69876000D01*
X129000000Y49124000D01*
X128980315Y49056961D01*
X128927511Y49011206D01*
X128876000Y49000000D01*
X104124000Y49000000D01*
X104056961Y49019685D01*
X104011206Y49072489D01*
X104000000Y49124000D01*
X104000000Y69876000D01*
X104019685Y69943039D01*
X104072489Y69988794D01*
X104124000Y70000000D01*
X128876000Y70000000D01*
X128943039Y69980315D01*
G37*
%TD.AperFunction*%
%TD*%
%TA.AperFunction,Conductor*%
%TO.N,+12V*%
G36*
X8925852Y83483387D02*
G01*
X9101943Y83381720D01*
X9101948Y83381718D01*
X9101951Y83381716D01*
X9320007Y83291394D01*
X9547986Y83230307D01*
X9781989Y83199500D01*
X9781996Y83199500D01*
X10018004Y83199500D01*
X10018011Y83199500D01*
X10252014Y83230307D01*
X10479993Y83291394D01*
X10698049Y83381716D01*
X10874148Y83483388D01*
X10936148Y83500000D01*
X28863852Y83500000D01*
X28925852Y83483387D01*
X29101943Y83381720D01*
X29101948Y83381718D01*
X29101951Y83381716D01*
X29320007Y83291394D01*
X29547986Y83230307D01*
X29781989Y83199500D01*
X29781996Y83199500D01*
X30018004Y83199500D01*
X30018011Y83199500D01*
X30252014Y83230307D01*
X30479993Y83291394D01*
X30698049Y83381716D01*
X30874148Y83483388D01*
X30936148Y83500000D01*
X48863852Y83500000D01*
X48925852Y83483387D01*
X49101943Y83381720D01*
X49101948Y83381718D01*
X49101951Y83381716D01*
X49320007Y83291394D01*
X49547986Y83230307D01*
X49781989Y83199500D01*
X49781996Y83199500D01*
X50018004Y83199500D01*
X50018011Y83199500D01*
X50252014Y83230307D01*
X50479993Y83291394D01*
X50698049Y83381716D01*
X50874148Y83483388D01*
X50936148Y83500000D01*
X68863852Y83500000D01*
X68925852Y83483387D01*
X69101943Y83381720D01*
X69101948Y83381718D01*
X69101951Y83381716D01*
X69320007Y83291394D01*
X69547986Y83230307D01*
X69781989Y83199500D01*
X69781996Y83199500D01*
X70018004Y83199500D01*
X70018011Y83199500D01*
X70252014Y83230307D01*
X70479993Y83291394D01*
X70698049Y83381716D01*
X70874148Y83483388D01*
X70936148Y83500000D01*
X88863852Y83500000D01*
X88925852Y83483387D01*
X89101943Y83381720D01*
X89101948Y83381718D01*
X89101951Y83381716D01*
X89320007Y83291394D01*
X89547986Y83230307D01*
X89781989Y83199500D01*
X89781996Y83199500D01*
X90018004Y83199500D01*
X90018011Y83199500D01*
X90252014Y83230307D01*
X90479993Y83291394D01*
X90698049Y83381716D01*
X90874148Y83483388D01*
X90936148Y83500000D01*
X108863852Y83500000D01*
X108925852Y83483387D01*
X109101943Y83381720D01*
X109101948Y83381718D01*
X109101951Y83381716D01*
X109320007Y83291394D01*
X109547986Y83230307D01*
X109781989Y83199500D01*
X109781996Y83199500D01*
X110018004Y83199500D01*
X110018011Y83199500D01*
X110252014Y83230307D01*
X110479993Y83291394D01*
X110698049Y83381716D01*
X110874148Y83483388D01*
X110936148Y83500000D01*
X123876000Y83500000D01*
X123943039Y83480315D01*
X123988794Y83427511D01*
X124000000Y83376000D01*
X124000000Y76624000D01*
X123980315Y76556961D01*
X123927511Y76511206D01*
X123876000Y76500000D01*
X6124000Y76500000D01*
X6056961Y76519685D01*
X6011206Y76572489D01*
X6000000Y76624000D01*
X6000000Y83376000D01*
X6019685Y83443039D01*
X6072489Y83488794D01*
X6124000Y83500000D01*
X8863852Y83500000D01*
X8925852Y83483387D01*
G37*
%TD.AperFunction*%
%TD*%
%TA.AperFunction,Conductor*%
%TO.N,+12V*%
G36*
X123943039Y24980315D02*
G01*
X123988794Y24927511D01*
X124000000Y24876000D01*
X124000000Y16624000D01*
X123980315Y16556961D01*
X123927511Y16511206D01*
X123876000Y16500000D01*
X121136148Y16500000D01*
X121074148Y16516613D01*
X120898056Y16618281D01*
X120898045Y16618286D01*
X120679993Y16708606D01*
X120452010Y16769694D01*
X120218020Y16800499D01*
X120218017Y16800500D01*
X120218011Y16800500D01*
X119981989Y16800500D01*
X119981983Y16800500D01*
X119981979Y16800499D01*
X119747989Y16769694D01*
X119520006Y16708606D01*
X119301954Y16618286D01*
X119301943Y16618281D01*
X119125852Y16516613D01*
X119063852Y16500000D01*
X101136148Y16500000D01*
X101074148Y16516613D01*
X100898056Y16618281D01*
X100898045Y16618286D01*
X100679993Y16708606D01*
X100452010Y16769694D01*
X100218020Y16800499D01*
X100218017Y16800500D01*
X100218011Y16800500D01*
X99981989Y16800500D01*
X99981983Y16800500D01*
X99981979Y16800499D01*
X99747989Y16769694D01*
X99520006Y16708606D01*
X99301954Y16618286D01*
X99301943Y16618281D01*
X99125852Y16516613D01*
X99063852Y16500000D01*
X81136148Y16500000D01*
X81074148Y16516613D01*
X80898056Y16618281D01*
X80898045Y16618286D01*
X80679993Y16708606D01*
X80452010Y16769694D01*
X80218020Y16800499D01*
X80218017Y16800500D01*
X80218011Y16800500D01*
X79981989Y16800500D01*
X79981983Y16800500D01*
X79981979Y16800499D01*
X79747989Y16769694D01*
X79520006Y16708606D01*
X79301954Y16618286D01*
X79301943Y16618281D01*
X79125852Y16516613D01*
X79063852Y16500000D01*
X61136148Y16500000D01*
X61074148Y16516613D01*
X60898056Y16618281D01*
X60898045Y16618286D01*
X60679993Y16708606D01*
X60452010Y16769694D01*
X60218020Y16800499D01*
X60218017Y16800500D01*
X60218011Y16800500D01*
X59981989Y16800500D01*
X59981983Y16800500D01*
X59981979Y16800499D01*
X59747989Y16769694D01*
X59520006Y16708606D01*
X59301954Y16618286D01*
X59301943Y16618281D01*
X59125852Y16516613D01*
X59063852Y16500000D01*
X41136148Y16500000D01*
X41074148Y16516613D01*
X40898056Y16618281D01*
X40898045Y16618286D01*
X40679993Y16708606D01*
X40452010Y16769694D01*
X40218020Y16800499D01*
X40218017Y16800500D01*
X40218011Y16800500D01*
X39981989Y16800500D01*
X39981983Y16800500D01*
X39981979Y16800499D01*
X39747989Y16769694D01*
X39520006Y16708606D01*
X39301954Y16618286D01*
X39301943Y16618281D01*
X39125852Y16516613D01*
X39063852Y16500000D01*
X21136148Y16500000D01*
X21074148Y16516613D01*
X20898056Y16618281D01*
X20898045Y16618286D01*
X20679993Y16708606D01*
X20452010Y16769694D01*
X20218020Y16800499D01*
X20218017Y16800500D01*
X20218011Y16800500D01*
X19981989Y16800500D01*
X19981983Y16800500D01*
X19981979Y16800499D01*
X19747989Y16769694D01*
X19520006Y16708606D01*
X19301954Y16618286D01*
X19301943Y16618281D01*
X19125852Y16516613D01*
X19063852Y16500000D01*
X6124000Y16500000D01*
X6056961Y16519685D01*
X6011206Y16572489D01*
X6000000Y16624000D01*
X6000000Y24876000D01*
X6019685Y24943039D01*
X6072489Y24988794D01*
X6124000Y25000000D01*
X123876000Y25000000D01*
X123943039Y24980315D01*
G37*
%TD.AperFunction*%
%TD*%
%TA.AperFunction,Conductor*%
%TO.N,/GNDIN*%
G36*
X127943039Y43980315D02*
G01*
X127988794Y43927511D01*
X128000000Y43876000D01*
X128000000Y34124000D01*
X127980315Y34056961D01*
X127927511Y34011206D01*
X127876000Y34000000D01*
X62124000Y34000000D01*
X62056961Y34019685D01*
X62011206Y34072489D01*
X62000000Y34124000D01*
X62000000Y43876000D01*
X62019685Y43943039D01*
X62072489Y43988794D01*
X62124000Y44000000D01*
X127876000Y44000000D01*
X127943039Y43980315D01*
G37*
%TD.AperFunction*%
%TD*%
%TA.AperFunction,Conductor*%
%TO.N,GND*%
G36*
X97943039Y56480315D02*
G01*
X97988794Y56427511D01*
X98000000Y56376000D01*
X98000000Y49624000D01*
X97980315Y49556961D01*
X97927511Y49511206D01*
X97876000Y49500000D01*
X62124000Y49500000D01*
X62056961Y49519685D01*
X62011206Y49572489D01*
X62000000Y49624000D01*
X62000000Y56376000D01*
X62019685Y56443039D01*
X62072489Y56488794D01*
X62124000Y56500000D01*
X97876000Y56500000D01*
X97943039Y56480315D01*
G37*
%TD.AperFunction*%
%TD*%
M02*
