%TF.GenerationSoftware,KiCad,Pcbnew,10.0.6*%
%TF.CreationDate,2026-09-20T10:24:31-05:00*%
%TF.ProjectId,diffrx,64696666-7278-42e6-9b69-6361645f7063,rev?*%
%TF.SameCoordinates,Original*%
%TF.FileFunction,Soldermask,Bot*%
%TF.FilePolarity,Negative*%
%FSLAX46Y46*%
G04 Gerber Fmt 4.6, Leading zero omitted, Abs format (unit mm)*
G04 Created by KiCad (PCBNEW 10.0.6) date 2026-09-20 10:24:31*
%MOMM*%
%LPD*%
G01*
G04 APERTURE LIST*
%ADD10C,2.200000*%
%ADD11C,3.400000*%
%ADD12C,1.400000*%
%ADD13C,1.700000*%
%ADD14C,2.800000*%
%ADD15C,3.200000*%
%ADD16C,11.000000*%
G04 APERTURE END LIST*
D10*
%TO.C,J5*%
X80000000Y95500000D03*
X75000000Y95500000D03*
X70000000Y95500000D03*
%TD*%
%TO.C,J12*%
X30000000Y4500000D03*
X35000000Y4500000D03*
X40000000Y4500000D03*
%TD*%
%TO.C,J2*%
X20000000Y95500000D03*
X15000000Y95500000D03*
X10000000Y95500000D03*
%TD*%
D11*
%TO.C,J14*%
X4929999Y56350000D03*
X4929999Y43650000D03*
D12*
X7469999Y46430000D03*
X9249999Y47450000D03*
X7469999Y48470000D03*
X9249999Y49490000D03*
X7469999Y50510000D03*
X9249999Y51530000D03*
X7469999Y52550000D03*
X9249999Y53570000D03*
%TD*%
D10*
%TO.C,J4*%
X60000000Y95500000D03*
X55000000Y95500000D03*
X50000000Y95500000D03*
%TD*%
D13*
%TO.C,F3*%
X60100000Y83000000D03*
X49900000Y85000000D03*
%TD*%
%TO.C,F12*%
X49900000Y17000000D03*
X60100000Y15000000D03*
%TD*%
D14*
%TO.C,J1*%
X122400000Y42250000D03*
X122400000Y51750000D03*
%TD*%
D15*
%TO.C,H1*%
X4000000Y96000000D03*
%TD*%
%TO.C,H3*%
X4000000Y4000000D03*
%TD*%
D10*
%TO.C,J10*%
X110000000Y4500000D03*
X115000000Y4500000D03*
X120000000Y4500000D03*
%TD*%
%TO.C,J13*%
X50000000Y4500000D03*
X55000000Y4500000D03*
X60000000Y4500000D03*
%TD*%
%TO.C,J7*%
X120000000Y95500000D03*
X115000000Y95500000D03*
X110000000Y95500000D03*
%TD*%
D16*
%TO.C,F0*%
X110000000Y67000000D03*
X80000000Y67000000D03*
%TD*%
D13*
%TO.C,F5*%
X100100000Y83000000D03*
X89900000Y85000000D03*
%TD*%
%TO.C,F1*%
X20100000Y83000000D03*
X9900000Y85000000D03*
%TD*%
D15*
%TO.C,H4*%
X126000000Y4000000D03*
%TD*%
D13*
%TO.C,F4*%
X80100000Y83000000D03*
X69900000Y85000000D03*
%TD*%
D15*
%TO.C,H2*%
X126000000Y96000000D03*
%TD*%
D10*
%TO.C,J8*%
X70000000Y4500000D03*
X75000000Y4500000D03*
X80000000Y4500000D03*
%TD*%
%TO.C,J3*%
X40000000Y95500000D03*
X35000000Y95500000D03*
X30000000Y95500000D03*
%TD*%
D13*
%TO.C,F6*%
X120100000Y83000000D03*
X109900000Y85000000D03*
%TD*%
%TO.C,F10*%
X9900000Y17000000D03*
X20100000Y15000000D03*
%TD*%
%TO.C,F8*%
X89900000Y17000000D03*
X100100000Y15000000D03*
%TD*%
%TO.C,F9*%
X109900000Y17000000D03*
X120100000Y15000000D03*
%TD*%
D10*
%TO.C,J9*%
X90000000Y4500000D03*
X95000000Y4500000D03*
X100000000Y4500000D03*
%TD*%
D13*
%TO.C,F2*%
X40100000Y83000000D03*
X29900000Y85000000D03*
%TD*%
%TO.C,F7*%
X69900000Y17000000D03*
X80100000Y15000000D03*
%TD*%
%TO.C,F11*%
X29900000Y17000000D03*
X40100000Y15000000D03*
%TD*%
D10*
%TO.C,J6*%
X100000000Y95500000D03*
X95000000Y95500000D03*
X90000000Y95500000D03*
%TD*%
%TO.C,J11*%
X10000000Y4500000D03*
X15000000Y4500000D03*
X20000000Y4500000D03*
%TD*%
M02*
