%TF.GenerationSoftware,KiCad,Pcbnew,10.0.6*%
%TF.CreationDate,2026-09-20T10:24:31-05:00*%
%TF.ProjectId,diffrx,64696666-7278-42e6-9b69-6361645f7063,rev?*%
%TF.SameCoordinates,Original*%
%TF.FileFunction,Legend,Top*%
%TF.FilePolarity,Positive*%
%FSLAX46Y46*%
G04 Gerber Fmt 4.6, Leading zero omitted, Abs format (unit mm)*
G04 Created by KiCad (PCBNEW 10.0.6) date 2026-09-20 10:24:31*
%MOMM*%
%LPD*%
G01*
G04 APERTURE LIST*
G04 Aperture macros list*
%AMRoundRect*
0 Rectangle with rounded corners*
0 $1 Rounding radius*
0 $2 $3 $4 $5 $6 $7 $8 $9 X,Y pos of 4 corners*
0 Add a 4 corners polygon primitive as box body*
4,1,4,$2,$3,$4,$5,$6,$7,$8,$9,$2,$3,0*
0 Add four circle primitives for the rounded corners*
1,1,$1+$1,$2,$3*
1,1,$1+$1,$4,$5*
1,1,$1+$1,$6,$7*
1,1,$1+$1,$8,$9*
0 Add four rect primitives between the rounded corners*
20,1,$1+$1,$2,$3,$4,$5,0*
20,1,$1+$1,$4,$5,$6,$7,0*
20,1,$1+$1,$6,$7,$8,$9,0*
20,1,$1+$1,$8,$9,$2,$3,0*%
G04 Aperture macros list end*
%ADD10C,0.150000*%
%ADD11C,0.180000*%
%ADD12C,0.195000*%
%ADD13C,0.240000*%
%ADD14C,0.060000*%
%ADD15C,0.120000*%
%ADD16C,0.000000*%
%ADD17C,0.250000*%
%ADD18C,0.300000*%
%ADD19R,0.950000X1.150000*%
%ADD20RoundRect,0.200000X0.200000X0.275000X-0.200000X0.275000X-0.200000X-0.275000X0.200000X-0.275000X0*%
%ADD21RoundRect,0.200000X-0.200000X-0.275000X0.200000X-0.275000X0.200000X0.275000X-0.200000X0.275000X0*%
%ADD22C,2.200000*%
%ADD23R,1.300000X2.800000*%
%ADD24R,6.000000X6.500000*%
%ADD25R,1.037000X0.532000*%
%ADD26R,4.200000X1.400000*%
%ADD27RoundRect,0.250000X-0.337500X-0.475000X0.337500X-0.475000X0.337500X0.475000X-0.337500X0.475000X0*%
%ADD28C,3.400000*%
%ADD29C,1.400000*%
%ADD30RoundRect,0.250000X-0.325000X-0.650000X0.325000X-0.650000X0.325000X0.650000X-0.325000X0.650000X0*%
%ADD31R,1.000000X1.400000*%
%ADD32C,1.700000*%
%ADD33C,2.800000*%
%ADD34C,3.200000*%
%ADD35RoundRect,0.250000X-0.312500X-0.625000X0.312500X-0.625000X0.312500X0.625000X-0.312500X0.625000X0*%
%ADD36C,11.000000*%
%ADD37R,2.700000X3.300000*%
%ADD38O,1.971000X0.602000*%
%ADD39R,2.465000X1.050000*%
%ADD40R,2.465000X3.540000*%
G04 APERTURE END LIST*
D10*
X2952379Y65640420D02*
X2904760Y65592800D01*
X2904760Y65592800D02*
X2761903Y65545181D01*
X2761903Y65545181D02*
X2666665Y65545181D01*
X2666665Y65545181D02*
X2523808Y65592800D01*
X2523808Y65592800D02*
X2428570Y65688039D01*
X2428570Y65688039D02*
X2380951Y65783277D01*
X2380951Y65783277D02*
X2333332Y65973753D01*
X2333332Y65973753D02*
X2333332Y66116610D01*
X2333332Y66116610D02*
X2380951Y66307086D01*
X2380951Y66307086D02*
X2428570Y66402324D01*
X2428570Y66402324D02*
X2523808Y66497562D01*
X2523808Y66497562D02*
X2666665Y66545181D01*
X2666665Y66545181D02*
X2761903Y66545181D01*
X2761903Y66545181D02*
X2904760Y66497562D01*
X2904760Y66497562D02*
X2952379Y66449943D01*
X3333332Y65830896D02*
X3809522Y65830896D01*
X3238094Y65545181D02*
X3571427Y66545181D01*
X3571427Y66545181D02*
X3904760Y65545181D01*
X4095237Y66545181D02*
X4666665Y66545181D01*
X4380951Y65545181D02*
X4380951Y66545181D01*
X5476189Y66545181D02*
X4999999Y66545181D01*
X4999999Y66545181D02*
X4952380Y66068991D01*
X4952380Y66068991D02*
X4999999Y66116610D01*
X4999999Y66116610D02*
X5095237Y66164229D01*
X5095237Y66164229D02*
X5333332Y66164229D01*
X5333332Y66164229D02*
X5428570Y66116610D01*
X5428570Y66116610D02*
X5476189Y66068991D01*
X5476189Y66068991D02*
X5523808Y65973753D01*
X5523808Y65973753D02*
X5523808Y65735658D01*
X5523808Y65735658D02*
X5476189Y65640420D01*
X5476189Y65640420D02*
X5428570Y65592800D01*
X5428570Y65592800D02*
X5333332Y65545181D01*
X5333332Y65545181D02*
X5095237Y65545181D01*
X5095237Y65545181D02*
X4999999Y65592800D01*
X4999999Y65592800D02*
X4952380Y65640420D01*
X6714285Y65545181D02*
X6714285Y66545181D01*
X7190475Y65545181D02*
X7190475Y66545181D01*
X7190475Y66545181D02*
X7761903Y65545181D01*
X7761903Y65545181D02*
X7761903Y66545181D01*
X8857142Y66211848D02*
X9238094Y66211848D01*
X8999999Y65545181D02*
X8999999Y66402324D01*
X8999999Y66402324D02*
X9047618Y66497562D01*
X9047618Y66497562D02*
X9142856Y66545181D01*
X9142856Y66545181D02*
X9238094Y66545181D01*
X9571428Y65545181D02*
X9571428Y66211848D01*
X9571428Y66021372D02*
X9619047Y66116610D01*
X9619047Y66116610D02*
X9666666Y66164229D01*
X9666666Y66164229D02*
X9761904Y66211848D01*
X9761904Y66211848D02*
X9857142Y66211848D01*
X10333333Y65545181D02*
X10238095Y65592800D01*
X10238095Y65592800D02*
X10190476Y65640420D01*
X10190476Y65640420D02*
X10142857Y65735658D01*
X10142857Y65735658D02*
X10142857Y66021372D01*
X10142857Y66021372D02*
X10190476Y66116610D01*
X10190476Y66116610D02*
X10238095Y66164229D01*
X10238095Y66164229D02*
X10333333Y66211848D01*
X10333333Y66211848D02*
X10476190Y66211848D01*
X10476190Y66211848D02*
X10571428Y66164229D01*
X10571428Y66164229D02*
X10619047Y66116610D01*
X10619047Y66116610D02*
X10666666Y66021372D01*
X10666666Y66021372D02*
X10666666Y65735658D01*
X10666666Y65735658D02*
X10619047Y65640420D01*
X10619047Y65640420D02*
X10571428Y65592800D01*
X10571428Y65592800D02*
X10476190Y65545181D01*
X10476190Y65545181D02*
X10333333Y65545181D01*
X11095238Y65545181D02*
X11095238Y66211848D01*
X11095238Y66116610D02*
X11142857Y66164229D01*
X11142857Y66164229D02*
X11238095Y66211848D01*
X11238095Y66211848D02*
X11380952Y66211848D01*
X11380952Y66211848D02*
X11476190Y66164229D01*
X11476190Y66164229D02*
X11523809Y66068991D01*
X11523809Y66068991D02*
X11523809Y65545181D01*
X11523809Y66068991D02*
X11571428Y66164229D01*
X11571428Y66164229D02*
X11666666Y66211848D01*
X11666666Y66211848D02*
X11809523Y66211848D01*
X11809523Y66211848D02*
X11904762Y66164229D01*
X11904762Y66164229D02*
X11952381Y66068991D01*
X11952381Y66068991D02*
X11952381Y65545181D01*
X13619047Y65545181D02*
X13619047Y66545181D01*
X13619047Y65592800D02*
X13523809Y65545181D01*
X13523809Y65545181D02*
X13333333Y65545181D01*
X13333333Y65545181D02*
X13238095Y65592800D01*
X13238095Y65592800D02*
X13190476Y65640420D01*
X13190476Y65640420D02*
X13142857Y65735658D01*
X13142857Y65735658D02*
X13142857Y66021372D01*
X13142857Y66021372D02*
X13190476Y66116610D01*
X13190476Y66116610D02*
X13238095Y66164229D01*
X13238095Y66164229D02*
X13333333Y66211848D01*
X13333333Y66211848D02*
X13523809Y66211848D01*
X13523809Y66211848D02*
X13619047Y66164229D01*
X14095238Y65545181D02*
X14095238Y66211848D01*
X14095238Y66545181D02*
X14047619Y66497562D01*
X14047619Y66497562D02*
X14095238Y66449943D01*
X14095238Y66449943D02*
X14142857Y66497562D01*
X14142857Y66497562D02*
X14095238Y66545181D01*
X14095238Y66545181D02*
X14095238Y66449943D01*
X14428571Y66211848D02*
X14809523Y66211848D01*
X14571428Y65545181D02*
X14571428Y66402324D01*
X14571428Y66402324D02*
X14619047Y66497562D01*
X14619047Y66497562D02*
X14714285Y66545181D01*
X14714285Y66545181D02*
X14809523Y66545181D01*
X15000000Y66211848D02*
X15380952Y66211848D01*
X15142857Y65545181D02*
X15142857Y66402324D01*
X15142857Y66402324D02*
X15190476Y66497562D01*
X15190476Y66497562D02*
X15285714Y66545181D01*
X15285714Y66545181D02*
X15380952Y66545181D01*
X15571429Y66211848D02*
X15952381Y66211848D01*
X15714286Y66545181D02*
X15714286Y65688039D01*
X15714286Y65688039D02*
X15761905Y65592800D01*
X15761905Y65592800D02*
X15857143Y65545181D01*
X15857143Y65545181D02*
X15952381Y65545181D01*
X16190477Y65545181D02*
X16714286Y66211848D01*
X16190477Y66211848D02*
X16714286Y65545181D01*
X9261905Y71545181D02*
X9261905Y72545181D01*
X9261905Y72545181D02*
X9642857Y72545181D01*
X9642857Y72545181D02*
X9738095Y72497562D01*
X9738095Y72497562D02*
X9785714Y72449943D01*
X9785714Y72449943D02*
X9833333Y72354705D01*
X9833333Y72354705D02*
X9833333Y72211848D01*
X9833333Y72211848D02*
X9785714Y72116610D01*
X9785714Y72116610D02*
X9738095Y72068991D01*
X9738095Y72068991D02*
X9642857Y72021372D01*
X9642857Y72021372D02*
X9261905Y72021372D01*
X10785714Y71545181D02*
X10214286Y71545181D01*
X10500000Y71545181D02*
X10500000Y72545181D01*
X10500000Y72545181D02*
X10404762Y72402324D01*
X10404762Y72402324D02*
X10309524Y72307086D01*
X10309524Y72307086D02*
X10214286Y72259467D01*
X6833333Y37045181D02*
X6833333Y38045181D01*
X6833333Y38045181D02*
X7214285Y38045181D01*
X7214285Y38045181D02*
X7309523Y37997562D01*
X7309523Y37997562D02*
X7357142Y37949943D01*
X7357142Y37949943D02*
X7404761Y37854705D01*
X7404761Y37854705D02*
X7404761Y37711848D01*
X7404761Y37711848D02*
X7357142Y37616610D01*
X7357142Y37616610D02*
X7309523Y37568991D01*
X7309523Y37568991D02*
X7214285Y37521372D01*
X7214285Y37521372D02*
X6833333Y37521372D01*
X8357142Y37045181D02*
X7785714Y37045181D01*
X8071428Y37045181D02*
X8071428Y38045181D01*
X8071428Y38045181D02*
X7976190Y37902324D01*
X7976190Y37902324D02*
X7880952Y37807086D01*
X7880952Y37807086D02*
X7785714Y37759467D01*
X8785714Y37568991D02*
X9547619Y37568991D01*
X9547619Y37283277D02*
X8785714Y37283277D01*
X10547618Y37045181D02*
X9976190Y37045181D01*
X10261904Y37045181D02*
X10261904Y38045181D01*
X10261904Y38045181D02*
X10166666Y37902324D01*
X10166666Y37902324D02*
X10071428Y37807086D01*
X10071428Y37807086D02*
X9976190Y37759467D01*
X11690475Y38092800D02*
X10833333Y36807086D01*
X11976190Y37949943D02*
X12023809Y37997562D01*
X12023809Y37997562D02*
X12119047Y38045181D01*
X12119047Y38045181D02*
X12357142Y38045181D01*
X12357142Y38045181D02*
X12452380Y37997562D01*
X12452380Y37997562D02*
X12499999Y37949943D01*
X12499999Y37949943D02*
X12547618Y37854705D01*
X12547618Y37854705D02*
X12547618Y37759467D01*
X12547618Y37759467D02*
X12499999Y37616610D01*
X12499999Y37616610D02*
X11928571Y37045181D01*
X11928571Y37045181D02*
X12547618Y37045181D01*
X14500000Y37045181D02*
X14500000Y38045181D01*
X14500000Y38045181D02*
X14880952Y38045181D01*
X14880952Y38045181D02*
X14976190Y37997562D01*
X14976190Y37997562D02*
X15023809Y37949943D01*
X15023809Y37949943D02*
X15071428Y37854705D01*
X15071428Y37854705D02*
X15071428Y37711848D01*
X15071428Y37711848D02*
X15023809Y37616610D01*
X15023809Y37616610D02*
X14976190Y37568991D01*
X14976190Y37568991D02*
X14880952Y37521372D01*
X14880952Y37521372D02*
X14500000Y37521372D01*
X15452381Y37949943D02*
X15500000Y37997562D01*
X15500000Y37997562D02*
X15595238Y38045181D01*
X15595238Y38045181D02*
X15833333Y38045181D01*
X15833333Y38045181D02*
X15928571Y37997562D01*
X15928571Y37997562D02*
X15976190Y37949943D01*
X15976190Y37949943D02*
X16023809Y37854705D01*
X16023809Y37854705D02*
X16023809Y37759467D01*
X16023809Y37759467D02*
X15976190Y37616610D01*
X15976190Y37616610D02*
X15404762Y37045181D01*
X15404762Y37045181D02*
X16023809Y37045181D01*
X16452381Y37568991D02*
X17214286Y37568991D01*
X17214286Y37283277D02*
X16452381Y37283277D01*
X17595238Y38045181D02*
X18214285Y38045181D01*
X18214285Y38045181D02*
X17880952Y37664229D01*
X17880952Y37664229D02*
X18023809Y37664229D01*
X18023809Y37664229D02*
X18119047Y37616610D01*
X18119047Y37616610D02*
X18166666Y37568991D01*
X18166666Y37568991D02*
X18214285Y37473753D01*
X18214285Y37473753D02*
X18214285Y37235658D01*
X18214285Y37235658D02*
X18166666Y37140420D01*
X18166666Y37140420D02*
X18119047Y37092800D01*
X18119047Y37092800D02*
X18023809Y37045181D01*
X18023809Y37045181D02*
X17738095Y37045181D01*
X17738095Y37045181D02*
X17642857Y37092800D01*
X17642857Y37092800D02*
X17595238Y37140420D01*
X19357142Y38092800D02*
X18500000Y36807086D01*
X20119047Y38045181D02*
X19928571Y38045181D01*
X19928571Y38045181D02*
X19833333Y37997562D01*
X19833333Y37997562D02*
X19785714Y37949943D01*
X19785714Y37949943D02*
X19690476Y37807086D01*
X19690476Y37807086D02*
X19642857Y37616610D01*
X19642857Y37616610D02*
X19642857Y37235658D01*
X19642857Y37235658D02*
X19690476Y37140420D01*
X19690476Y37140420D02*
X19738095Y37092800D01*
X19738095Y37092800D02*
X19833333Y37045181D01*
X19833333Y37045181D02*
X20023809Y37045181D01*
X20023809Y37045181D02*
X20119047Y37092800D01*
X20119047Y37092800D02*
X20166666Y37140420D01*
X20166666Y37140420D02*
X20214285Y37235658D01*
X20214285Y37235658D02*
X20214285Y37473753D01*
X20214285Y37473753D02*
X20166666Y37568991D01*
X20166666Y37568991D02*
X20119047Y37616610D01*
X20119047Y37616610D02*
X20023809Y37664229D01*
X20023809Y37664229D02*
X19833333Y37664229D01*
X19833333Y37664229D02*
X19738095Y37616610D01*
X19738095Y37616610D02*
X19690476Y37568991D01*
X19690476Y37568991D02*
X19642857Y37473753D01*
X6833333Y34545181D02*
X6833333Y35545181D01*
X6833333Y35545181D02*
X7214285Y35545181D01*
X7214285Y35545181D02*
X7309523Y35497562D01*
X7309523Y35497562D02*
X7357142Y35449943D01*
X7357142Y35449943D02*
X7404761Y35354705D01*
X7404761Y35354705D02*
X7404761Y35211848D01*
X7404761Y35211848D02*
X7357142Y35116610D01*
X7357142Y35116610D02*
X7309523Y35068991D01*
X7309523Y35068991D02*
X7214285Y35021372D01*
X7214285Y35021372D02*
X6833333Y35021372D01*
X7738095Y35545181D02*
X8357142Y35545181D01*
X8357142Y35545181D02*
X8023809Y35164229D01*
X8023809Y35164229D02*
X8166666Y35164229D01*
X8166666Y35164229D02*
X8261904Y35116610D01*
X8261904Y35116610D02*
X8309523Y35068991D01*
X8309523Y35068991D02*
X8357142Y34973753D01*
X8357142Y34973753D02*
X8357142Y34735658D01*
X8357142Y34735658D02*
X8309523Y34640420D01*
X8309523Y34640420D02*
X8261904Y34592800D01*
X8261904Y34592800D02*
X8166666Y34545181D01*
X8166666Y34545181D02*
X7880952Y34545181D01*
X7880952Y34545181D02*
X7785714Y34592800D01*
X7785714Y34592800D02*
X7738095Y34640420D01*
X8785714Y35068991D02*
X9547619Y35068991D01*
X9547619Y34783277D02*
X8785714Y34783277D01*
X10452380Y35211848D02*
X10452380Y34545181D01*
X10214285Y35592800D02*
X9976190Y34878515D01*
X9976190Y34878515D02*
X10595237Y34878515D01*
X11690475Y35592800D02*
X10833333Y34307086D01*
X12499999Y35545181D02*
X12023809Y35545181D01*
X12023809Y35545181D02*
X11976190Y35068991D01*
X11976190Y35068991D02*
X12023809Y35116610D01*
X12023809Y35116610D02*
X12119047Y35164229D01*
X12119047Y35164229D02*
X12357142Y35164229D01*
X12357142Y35164229D02*
X12452380Y35116610D01*
X12452380Y35116610D02*
X12499999Y35068991D01*
X12499999Y35068991D02*
X12547618Y34973753D01*
X12547618Y34973753D02*
X12547618Y34735658D01*
X12547618Y34735658D02*
X12499999Y34640420D01*
X12499999Y34640420D02*
X12452380Y34592800D01*
X12452380Y34592800D02*
X12357142Y34545181D01*
X12357142Y34545181D02*
X12119047Y34545181D01*
X12119047Y34545181D02*
X12023809Y34592800D01*
X12023809Y34592800D02*
X11976190Y34640420D01*
X14500000Y34545181D02*
X14500000Y35545181D01*
X14500000Y35545181D02*
X14880952Y35545181D01*
X14880952Y35545181D02*
X14976190Y35497562D01*
X14976190Y35497562D02*
X15023809Y35449943D01*
X15023809Y35449943D02*
X15071428Y35354705D01*
X15071428Y35354705D02*
X15071428Y35211848D01*
X15071428Y35211848D02*
X15023809Y35116610D01*
X15023809Y35116610D02*
X14976190Y35068991D01*
X14976190Y35068991D02*
X14880952Y35021372D01*
X14880952Y35021372D02*
X14500000Y35021372D01*
X15928571Y35211848D02*
X15928571Y34545181D01*
X15690476Y35592800D02*
X15452381Y34878515D01*
X15452381Y34878515D02*
X16071428Y34878515D01*
X16452381Y35068991D02*
X17214286Y35068991D01*
X17214286Y34783277D02*
X16452381Y34783277D01*
X17595238Y35545181D02*
X18261904Y35545181D01*
X18261904Y35545181D02*
X17833333Y34545181D01*
X19357142Y35592800D02*
X18500000Y34307086D01*
X19833333Y35116610D02*
X19738095Y35164229D01*
X19738095Y35164229D02*
X19690476Y35211848D01*
X19690476Y35211848D02*
X19642857Y35307086D01*
X19642857Y35307086D02*
X19642857Y35354705D01*
X19642857Y35354705D02*
X19690476Y35449943D01*
X19690476Y35449943D02*
X19738095Y35497562D01*
X19738095Y35497562D02*
X19833333Y35545181D01*
X19833333Y35545181D02*
X20023809Y35545181D01*
X20023809Y35545181D02*
X20119047Y35497562D01*
X20119047Y35497562D02*
X20166666Y35449943D01*
X20166666Y35449943D02*
X20214285Y35354705D01*
X20214285Y35354705D02*
X20214285Y35307086D01*
X20214285Y35307086D02*
X20166666Y35211848D01*
X20166666Y35211848D02*
X20119047Y35164229D01*
X20119047Y35164229D02*
X20023809Y35116610D01*
X20023809Y35116610D02*
X19833333Y35116610D01*
X19833333Y35116610D02*
X19738095Y35068991D01*
X19738095Y35068991D02*
X19690476Y35021372D01*
X19690476Y35021372D02*
X19642857Y34926134D01*
X19642857Y34926134D02*
X19642857Y34735658D01*
X19642857Y34735658D02*
X19690476Y34640420D01*
X19690476Y34640420D02*
X19738095Y34592800D01*
X19738095Y34592800D02*
X19833333Y34545181D01*
X19833333Y34545181D02*
X20023809Y34545181D01*
X20023809Y34545181D02*
X20119047Y34592800D01*
X20119047Y34592800D02*
X20166666Y34640420D01*
X20166666Y34640420D02*
X20214285Y34735658D01*
X20214285Y34735658D02*
X20214285Y34926134D01*
X20214285Y34926134D02*
X20166666Y35021372D01*
X20166666Y35021372D02*
X20119047Y35068991D01*
X20119047Y35068991D02*
X20023809Y35116610D01*
X20261905Y71545181D02*
X20261905Y72545181D01*
X20261905Y72545181D02*
X20642857Y72545181D01*
X20642857Y72545181D02*
X20738095Y72497562D01*
X20738095Y72497562D02*
X20785714Y72449943D01*
X20785714Y72449943D02*
X20833333Y72354705D01*
X20833333Y72354705D02*
X20833333Y72211848D01*
X20833333Y72211848D02*
X20785714Y72116610D01*
X20785714Y72116610D02*
X20738095Y72068991D01*
X20738095Y72068991D02*
X20642857Y72021372D01*
X20642857Y72021372D02*
X20261905Y72021372D01*
X21214286Y72449943D02*
X21261905Y72497562D01*
X21261905Y72497562D02*
X21357143Y72545181D01*
X21357143Y72545181D02*
X21595238Y72545181D01*
X21595238Y72545181D02*
X21690476Y72497562D01*
X21690476Y72497562D02*
X21738095Y72449943D01*
X21738095Y72449943D02*
X21785714Y72354705D01*
X21785714Y72354705D02*
X21785714Y72259467D01*
X21785714Y72259467D02*
X21738095Y72116610D01*
X21738095Y72116610D02*
X21166667Y71545181D01*
X21166667Y71545181D02*
X21785714Y71545181D01*
X31261905Y71545181D02*
X31261905Y72545181D01*
X31261905Y72545181D02*
X31642857Y72545181D01*
X31642857Y72545181D02*
X31738095Y72497562D01*
X31738095Y72497562D02*
X31785714Y72449943D01*
X31785714Y72449943D02*
X31833333Y72354705D01*
X31833333Y72354705D02*
X31833333Y72211848D01*
X31833333Y72211848D02*
X31785714Y72116610D01*
X31785714Y72116610D02*
X31738095Y72068991D01*
X31738095Y72068991D02*
X31642857Y72021372D01*
X31642857Y72021372D02*
X31261905Y72021372D01*
X32166667Y72545181D02*
X32785714Y72545181D01*
X32785714Y72545181D02*
X32452381Y72164229D01*
X32452381Y72164229D02*
X32595238Y72164229D01*
X32595238Y72164229D02*
X32690476Y72116610D01*
X32690476Y72116610D02*
X32738095Y72068991D01*
X32738095Y72068991D02*
X32785714Y71973753D01*
X32785714Y71973753D02*
X32785714Y71735658D01*
X32785714Y71735658D02*
X32738095Y71640420D01*
X32738095Y71640420D02*
X32690476Y71592800D01*
X32690476Y71592800D02*
X32595238Y71545181D01*
X32595238Y71545181D02*
X32309524Y71545181D01*
X32309524Y71545181D02*
X32214286Y71592800D01*
X32214286Y71592800D02*
X32166667Y71640420D01*
X42261905Y71545181D02*
X42261905Y72545181D01*
X42261905Y72545181D02*
X42642857Y72545181D01*
X42642857Y72545181D02*
X42738095Y72497562D01*
X42738095Y72497562D02*
X42785714Y72449943D01*
X42785714Y72449943D02*
X42833333Y72354705D01*
X42833333Y72354705D02*
X42833333Y72211848D01*
X42833333Y72211848D02*
X42785714Y72116610D01*
X42785714Y72116610D02*
X42738095Y72068991D01*
X42738095Y72068991D02*
X42642857Y72021372D01*
X42642857Y72021372D02*
X42261905Y72021372D01*
X43690476Y72211848D02*
X43690476Y71545181D01*
X43452381Y72592800D02*
X43214286Y71878515D01*
X43214286Y71878515D02*
X43833333Y71878515D01*
X52666667Y71545181D02*
X52666667Y72545181D01*
X52666667Y72545181D02*
X53047619Y72545181D01*
X53047619Y72545181D02*
X53142857Y72497562D01*
X53142857Y72497562D02*
X53190476Y72449943D01*
X53190476Y72449943D02*
X53238095Y72354705D01*
X53238095Y72354705D02*
X53238095Y72211848D01*
X53238095Y72211848D02*
X53190476Y72116610D01*
X53190476Y72116610D02*
X53142857Y72068991D01*
X53142857Y72068991D02*
X53047619Y72021372D01*
X53047619Y72021372D02*
X52666667Y72021372D01*
X53571429Y72545181D02*
X53809524Y71545181D01*
X53809524Y71545181D02*
X54000000Y72259467D01*
X54000000Y72259467D02*
X54190476Y71545181D01*
X54190476Y71545181D02*
X54428572Y72545181D01*
X55380952Y71545181D02*
X55047619Y72021372D01*
X54809524Y71545181D02*
X54809524Y72545181D01*
X54809524Y72545181D02*
X55190476Y72545181D01*
X55190476Y72545181D02*
X55285714Y72497562D01*
X55285714Y72497562D02*
X55333333Y72449943D01*
X55333333Y72449943D02*
X55380952Y72354705D01*
X55380952Y72354705D02*
X55380952Y72211848D01*
X55380952Y72211848D02*
X55333333Y72116610D01*
X55333333Y72116610D02*
X55285714Y72068991D01*
X55285714Y72068991D02*
X55190476Y72021372D01*
X55190476Y72021372D02*
X54809524Y72021372D01*
X38928568Y79545181D02*
X38928568Y80545181D01*
X38928568Y80545181D02*
X39261901Y79830896D01*
X39261901Y79830896D02*
X39595234Y80545181D01*
X39595234Y80545181D02*
X39595234Y79545181D01*
X40404758Y80068991D02*
X40071425Y80068991D01*
X40071425Y79545181D02*
X40071425Y80545181D01*
X40071425Y80545181D02*
X40547615Y80545181D01*
X40928568Y79926134D02*
X41690473Y79926134D01*
X42738091Y79545181D02*
X42404758Y80021372D01*
X42166663Y79545181D02*
X42166663Y80545181D01*
X42166663Y80545181D02*
X42547615Y80545181D01*
X42547615Y80545181D02*
X42642853Y80497562D01*
X42642853Y80497562D02*
X42690472Y80449943D01*
X42690472Y80449943D02*
X42738091Y80354705D01*
X42738091Y80354705D02*
X42738091Y80211848D01*
X42738091Y80211848D02*
X42690472Y80116610D01*
X42690472Y80116610D02*
X42642853Y80068991D01*
X42642853Y80068991D02*
X42547615Y80021372D01*
X42547615Y80021372D02*
X42166663Y80021372D01*
X43595234Y80545181D02*
X43404758Y80545181D01*
X43404758Y80545181D02*
X43309520Y80497562D01*
X43309520Y80497562D02*
X43261901Y80449943D01*
X43261901Y80449943D02*
X43166663Y80307086D01*
X43166663Y80307086D02*
X43119044Y80116610D01*
X43119044Y80116610D02*
X43119044Y79735658D01*
X43119044Y79735658D02*
X43166663Y79640420D01*
X43166663Y79640420D02*
X43214282Y79592800D01*
X43214282Y79592800D02*
X43309520Y79545181D01*
X43309520Y79545181D02*
X43499996Y79545181D01*
X43499996Y79545181D02*
X43595234Y79592800D01*
X43595234Y79592800D02*
X43642853Y79640420D01*
X43642853Y79640420D02*
X43690472Y79735658D01*
X43690472Y79735658D02*
X43690472Y79973753D01*
X43690472Y79973753D02*
X43642853Y80068991D01*
X43642853Y80068991D02*
X43595234Y80116610D01*
X43595234Y80116610D02*
X43499996Y80164229D01*
X43499996Y80164229D02*
X43309520Y80164229D01*
X43309520Y80164229D02*
X43214282Y80116610D01*
X43214282Y80116610D02*
X43166663Y80068991D01*
X43166663Y80068991D02*
X43119044Y79973753D01*
X44309520Y80545181D02*
X44404758Y80545181D01*
X44404758Y80545181D02*
X44499996Y80497562D01*
X44499996Y80497562D02*
X44547615Y80449943D01*
X44547615Y80449943D02*
X44595234Y80354705D01*
X44595234Y80354705D02*
X44642853Y80164229D01*
X44642853Y80164229D02*
X44642853Y79926134D01*
X44642853Y79926134D02*
X44595234Y79735658D01*
X44595234Y79735658D02*
X44547615Y79640420D01*
X44547615Y79640420D02*
X44499996Y79592800D01*
X44499996Y79592800D02*
X44404758Y79545181D01*
X44404758Y79545181D02*
X44309520Y79545181D01*
X44309520Y79545181D02*
X44214282Y79592800D01*
X44214282Y79592800D02*
X44166663Y79640420D01*
X44166663Y79640420D02*
X44119044Y79735658D01*
X44119044Y79735658D02*
X44071425Y79926134D01*
X44071425Y79926134D02*
X44071425Y80164229D01*
X44071425Y80164229D02*
X44119044Y80354705D01*
X44119044Y80354705D02*
X44166663Y80449943D01*
X44166663Y80449943D02*
X44214282Y80497562D01*
X44214282Y80497562D02*
X44309520Y80545181D01*
X45261901Y80545181D02*
X45357139Y80545181D01*
X45357139Y80545181D02*
X45452377Y80497562D01*
X45452377Y80497562D02*
X45499996Y80449943D01*
X45499996Y80449943D02*
X45547615Y80354705D01*
X45547615Y80354705D02*
X45595234Y80164229D01*
X45595234Y80164229D02*
X45595234Y79926134D01*
X45595234Y79926134D02*
X45547615Y79735658D01*
X45547615Y79735658D02*
X45499996Y79640420D01*
X45499996Y79640420D02*
X45452377Y79592800D01*
X45452377Y79592800D02*
X45357139Y79545181D01*
X45357139Y79545181D02*
X45261901Y79545181D01*
X45261901Y79545181D02*
X45166663Y79592800D01*
X45166663Y79592800D02*
X45119044Y79640420D01*
X45119044Y79640420D02*
X45071425Y79735658D01*
X45071425Y79735658D02*
X45023806Y79926134D01*
X45023806Y79926134D02*
X45023806Y80164229D01*
X45023806Y80164229D02*
X45071425Y80354705D01*
X45071425Y80354705D02*
X45119044Y80449943D01*
X45119044Y80449943D02*
X45166663Y80497562D01*
X45166663Y80497562D02*
X45261901Y80545181D01*
X47976187Y80545181D02*
X47785711Y80545181D01*
X47785711Y80545181D02*
X47690473Y80497562D01*
X47690473Y80497562D02*
X47642854Y80449943D01*
X47642854Y80449943D02*
X47547616Y80307086D01*
X47547616Y80307086D02*
X47499997Y80116610D01*
X47499997Y80116610D02*
X47499997Y79735658D01*
X47499997Y79735658D02*
X47547616Y79640420D01*
X47547616Y79640420D02*
X47595235Y79592800D01*
X47595235Y79592800D02*
X47690473Y79545181D01*
X47690473Y79545181D02*
X47880949Y79545181D01*
X47880949Y79545181D02*
X47976187Y79592800D01*
X47976187Y79592800D02*
X48023806Y79640420D01*
X48023806Y79640420D02*
X48071425Y79735658D01*
X48071425Y79735658D02*
X48071425Y79973753D01*
X48071425Y79973753D02*
X48023806Y80068991D01*
X48023806Y80068991D02*
X47976187Y80116610D01*
X47976187Y80116610D02*
X47880949Y80164229D01*
X47880949Y80164229D02*
X47690473Y80164229D01*
X47690473Y80164229D02*
X47595235Y80116610D01*
X47595235Y80116610D02*
X47547616Y80068991D01*
X47547616Y80068991D02*
X47499997Y79973753D01*
X48452378Y79830896D02*
X48928568Y79830896D01*
X48357140Y79545181D02*
X48690473Y80545181D01*
X48690473Y80545181D02*
X49023806Y79545181D01*
X50119045Y79545181D02*
X50119045Y80545181D01*
X50547616Y79545181D02*
X50547616Y80068991D01*
X50547616Y80068991D02*
X50499997Y80164229D01*
X50499997Y80164229D02*
X50404759Y80211848D01*
X50404759Y80211848D02*
X50261902Y80211848D01*
X50261902Y80211848D02*
X50166664Y80164229D01*
X50166664Y80164229D02*
X50119045Y80116610D01*
X51166664Y79545181D02*
X51071426Y79592800D01*
X51071426Y79592800D02*
X51023807Y79640420D01*
X51023807Y79640420D02*
X50976188Y79735658D01*
X50976188Y79735658D02*
X50976188Y80021372D01*
X50976188Y80021372D02*
X51023807Y80116610D01*
X51023807Y80116610D02*
X51071426Y80164229D01*
X51071426Y80164229D02*
X51166664Y80211848D01*
X51166664Y80211848D02*
X51309521Y80211848D01*
X51309521Y80211848D02*
X51404759Y80164229D01*
X51404759Y80164229D02*
X51452378Y80116610D01*
X51452378Y80116610D02*
X51499997Y80021372D01*
X51499997Y80021372D02*
X51499997Y79735658D01*
X51499997Y79735658D02*
X51452378Y79640420D01*
X51452378Y79640420D02*
X51404759Y79592800D01*
X51404759Y79592800D02*
X51309521Y79545181D01*
X51309521Y79545181D02*
X51166664Y79545181D01*
X52071426Y79545181D02*
X51976188Y79592800D01*
X51976188Y79592800D02*
X51928569Y79688039D01*
X51928569Y79688039D02*
X51928569Y80545181D01*
X52880950Y79545181D02*
X52880950Y80545181D01*
X52880950Y79592800D02*
X52785712Y79545181D01*
X52785712Y79545181D02*
X52595236Y79545181D01*
X52595236Y79545181D02*
X52499998Y79592800D01*
X52499998Y79592800D02*
X52452379Y79640420D01*
X52452379Y79640420D02*
X52404760Y79735658D01*
X52404760Y79735658D02*
X52404760Y80021372D01*
X52404760Y80021372D02*
X52452379Y80116610D01*
X52452379Y80116610D02*
X52499998Y80164229D01*
X52499998Y80164229D02*
X52595236Y80211848D01*
X52595236Y80211848D02*
X52785712Y80211848D01*
X52785712Y80211848D02*
X52880950Y80164229D01*
X54833331Y80592800D02*
X53976189Y79307086D01*
X56452379Y79545181D02*
X55880951Y79545181D01*
X56166665Y79545181D02*
X56166665Y80545181D01*
X56166665Y80545181D02*
X56071427Y80402324D01*
X56071427Y80402324D02*
X55976189Y80307086D01*
X55976189Y80307086D02*
X55880951Y80259467D01*
X56833332Y80449943D02*
X56880951Y80497562D01*
X56880951Y80497562D02*
X56976189Y80545181D01*
X56976189Y80545181D02*
X57214284Y80545181D01*
X57214284Y80545181D02*
X57309522Y80497562D01*
X57309522Y80497562D02*
X57357141Y80449943D01*
X57357141Y80449943D02*
X57404760Y80354705D01*
X57404760Y80354705D02*
X57404760Y80259467D01*
X57404760Y80259467D02*
X57357141Y80116610D01*
X57357141Y80116610D02*
X56785713Y79545181D01*
X56785713Y79545181D02*
X57404760Y79545181D01*
X57785713Y79830896D02*
X58261903Y79830896D01*
X57690475Y79545181D02*
X58023808Y80545181D01*
X58023808Y80545181D02*
X58357141Y79545181D01*
X59309523Y80211848D02*
X59690475Y80211848D01*
X59452380Y80545181D02*
X59452380Y79688039D01*
X59452380Y79688039D02*
X59499999Y79592800D01*
X59499999Y79592800D02*
X59595237Y79545181D01*
X59595237Y79545181D02*
X59690475Y79545181D01*
X60023809Y79545181D02*
X60023809Y80211848D01*
X60023809Y80021372D02*
X60071428Y80116610D01*
X60071428Y80116610D02*
X60119047Y80164229D01*
X60119047Y80164229D02*
X60214285Y80211848D01*
X60214285Y80211848D02*
X60309523Y80211848D01*
X60642857Y79545181D02*
X60642857Y80211848D01*
X60642857Y80545181D02*
X60595238Y80497562D01*
X60595238Y80497562D02*
X60642857Y80449943D01*
X60642857Y80449943D02*
X60690476Y80497562D01*
X60690476Y80497562D02*
X60642857Y80545181D01*
X60642857Y80545181D02*
X60642857Y80449943D01*
X61119047Y80211848D02*
X61119047Y79211848D01*
X61119047Y80164229D02*
X61214285Y80211848D01*
X61214285Y80211848D02*
X61404761Y80211848D01*
X61404761Y80211848D02*
X61499999Y80164229D01*
X61499999Y80164229D02*
X61547618Y80116610D01*
X61547618Y80116610D02*
X61595237Y80021372D01*
X61595237Y80021372D02*
X61595237Y79735658D01*
X61595237Y79735658D02*
X61547618Y79640420D01*
X61547618Y79640420D02*
X61499999Y79592800D01*
X61499999Y79592800D02*
X61404761Y79545181D01*
X61404761Y79545181D02*
X61214285Y79545181D01*
X61214285Y79545181D02*
X61119047Y79592800D01*
X63547619Y79926134D02*
X64309524Y79926134D01*
X66261905Y79592800D02*
X66357143Y79545181D01*
X66357143Y79545181D02*
X66547619Y79545181D01*
X66547619Y79545181D02*
X66642857Y79592800D01*
X66642857Y79592800D02*
X66690476Y79688039D01*
X66690476Y79688039D02*
X66690476Y79735658D01*
X66690476Y79735658D02*
X66642857Y79830896D01*
X66642857Y79830896D02*
X66547619Y79878515D01*
X66547619Y79878515D02*
X66404762Y79878515D01*
X66404762Y79878515D02*
X66309524Y79926134D01*
X66309524Y79926134D02*
X66261905Y80021372D01*
X66261905Y80021372D02*
X66261905Y80068991D01*
X66261905Y80068991D02*
X66309524Y80164229D01*
X66309524Y80164229D02*
X66404762Y80211848D01*
X66404762Y80211848D02*
X66547619Y80211848D01*
X66547619Y80211848D02*
X66642857Y80164229D01*
X67119048Y79545181D02*
X67119048Y80211848D01*
X67119048Y80545181D02*
X67071429Y80497562D01*
X67071429Y80497562D02*
X67119048Y80449943D01*
X67119048Y80449943D02*
X67166667Y80497562D01*
X67166667Y80497562D02*
X67119048Y80545181D01*
X67119048Y80545181D02*
X67119048Y80449943D01*
X67500000Y80211848D02*
X68023809Y80211848D01*
X68023809Y80211848D02*
X67500000Y79545181D01*
X67500000Y79545181D02*
X68023809Y79545181D01*
X68785714Y79592800D02*
X68690476Y79545181D01*
X68690476Y79545181D02*
X68500000Y79545181D01*
X68500000Y79545181D02*
X68404762Y79592800D01*
X68404762Y79592800D02*
X68357143Y79688039D01*
X68357143Y79688039D02*
X68357143Y80068991D01*
X68357143Y80068991D02*
X68404762Y80164229D01*
X68404762Y80164229D02*
X68500000Y80211848D01*
X68500000Y80211848D02*
X68690476Y80211848D01*
X68690476Y80211848D02*
X68785714Y80164229D01*
X68785714Y80164229D02*
X68833333Y80068991D01*
X68833333Y80068991D02*
X68833333Y79973753D01*
X68833333Y79973753D02*
X68357143Y79878515D01*
X69690476Y79545181D02*
X69690476Y80545181D01*
X69690476Y79592800D02*
X69595238Y79545181D01*
X69595238Y79545181D02*
X69404762Y79545181D01*
X69404762Y79545181D02*
X69309524Y79592800D01*
X69309524Y79592800D02*
X69261905Y79640420D01*
X69261905Y79640420D02*
X69214286Y79735658D01*
X69214286Y79735658D02*
X69214286Y80021372D01*
X69214286Y80021372D02*
X69261905Y80116610D01*
X69261905Y80116610D02*
X69309524Y80164229D01*
X69309524Y80164229D02*
X69404762Y80211848D01*
X69404762Y80211848D02*
X69595238Y80211848D01*
X69595238Y80211848D02*
X69690476Y80164229D01*
X70785715Y80211848D02*
X71166667Y80211848D01*
X70928572Y79545181D02*
X70928572Y80402324D01*
X70928572Y80402324D02*
X70976191Y80497562D01*
X70976191Y80497562D02*
X71071429Y80545181D01*
X71071429Y80545181D02*
X71166667Y80545181D01*
X71642858Y79545181D02*
X71547620Y79592800D01*
X71547620Y79592800D02*
X71500001Y79640420D01*
X71500001Y79640420D02*
X71452382Y79735658D01*
X71452382Y79735658D02*
X71452382Y80021372D01*
X71452382Y80021372D02*
X71500001Y80116610D01*
X71500001Y80116610D02*
X71547620Y80164229D01*
X71547620Y80164229D02*
X71642858Y80211848D01*
X71642858Y80211848D02*
X71785715Y80211848D01*
X71785715Y80211848D02*
X71880953Y80164229D01*
X71880953Y80164229D02*
X71928572Y80116610D01*
X71928572Y80116610D02*
X71976191Y80021372D01*
X71976191Y80021372D02*
X71976191Y79735658D01*
X71976191Y79735658D02*
X71928572Y79640420D01*
X71928572Y79640420D02*
X71880953Y79592800D01*
X71880953Y79592800D02*
X71785715Y79545181D01*
X71785715Y79545181D02*
X71642858Y79545181D01*
X72404763Y79545181D02*
X72404763Y80211848D01*
X72404763Y80021372D02*
X72452382Y80116610D01*
X72452382Y80116610D02*
X72500001Y80164229D01*
X72500001Y80164229D02*
X72595239Y80211848D01*
X72595239Y80211848D02*
X72690477Y80211848D01*
X74214287Y79545181D02*
X74214287Y80068991D01*
X74214287Y80068991D02*
X74166668Y80164229D01*
X74166668Y80164229D02*
X74071430Y80211848D01*
X74071430Y80211848D02*
X73880954Y80211848D01*
X73880954Y80211848D02*
X73785716Y80164229D01*
X74214287Y79592800D02*
X74119049Y79545181D01*
X74119049Y79545181D02*
X73880954Y79545181D01*
X73880954Y79545181D02*
X73785716Y79592800D01*
X73785716Y79592800D02*
X73738097Y79688039D01*
X73738097Y79688039D02*
X73738097Y79783277D01*
X73738097Y79783277D02*
X73785716Y79878515D01*
X73785716Y79878515D02*
X73880954Y79926134D01*
X73880954Y79926134D02*
X74119049Y79926134D01*
X74119049Y79926134D02*
X74214287Y79973753D01*
X74690478Y80211848D02*
X74690478Y79545181D01*
X74690478Y80116610D02*
X74738097Y80164229D01*
X74738097Y80164229D02*
X74833335Y80211848D01*
X74833335Y80211848D02*
X74976192Y80211848D01*
X74976192Y80211848D02*
X75071430Y80164229D01*
X75071430Y80164229D02*
X75119049Y80068991D01*
X75119049Y80068991D02*
X75119049Y79545181D01*
X76880954Y79545181D02*
X76309526Y79545181D01*
X76595240Y79545181D02*
X76595240Y80545181D01*
X76595240Y80545181D02*
X76500002Y80402324D01*
X76500002Y80402324D02*
X76404764Y80307086D01*
X76404764Y80307086D02*
X76309526Y80259467D01*
X77452383Y80116610D02*
X77357145Y80164229D01*
X77357145Y80164229D02*
X77309526Y80211848D01*
X77309526Y80211848D02*
X77261907Y80307086D01*
X77261907Y80307086D02*
X77261907Y80354705D01*
X77261907Y80354705D02*
X77309526Y80449943D01*
X77309526Y80449943D02*
X77357145Y80497562D01*
X77357145Y80497562D02*
X77452383Y80545181D01*
X77452383Y80545181D02*
X77642859Y80545181D01*
X77642859Y80545181D02*
X77738097Y80497562D01*
X77738097Y80497562D02*
X77785716Y80449943D01*
X77785716Y80449943D02*
X77833335Y80354705D01*
X77833335Y80354705D02*
X77833335Y80307086D01*
X77833335Y80307086D02*
X77785716Y80211848D01*
X77785716Y80211848D02*
X77738097Y80164229D01*
X77738097Y80164229D02*
X77642859Y80116610D01*
X77642859Y80116610D02*
X77452383Y80116610D01*
X77452383Y80116610D02*
X77357145Y80068991D01*
X77357145Y80068991D02*
X77309526Y80021372D01*
X77309526Y80021372D02*
X77261907Y79926134D01*
X77261907Y79926134D02*
X77261907Y79735658D01*
X77261907Y79735658D02*
X77309526Y79640420D01*
X77309526Y79640420D02*
X77357145Y79592800D01*
X77357145Y79592800D02*
X77452383Y79545181D01*
X77452383Y79545181D02*
X77642859Y79545181D01*
X77642859Y79545181D02*
X77738097Y79592800D01*
X77738097Y79592800D02*
X77785716Y79640420D01*
X77785716Y79640420D02*
X77833335Y79735658D01*
X77833335Y79735658D02*
X77833335Y79926134D01*
X77833335Y79926134D02*
X77785716Y80021372D01*
X77785716Y80021372D02*
X77738097Y80068991D01*
X77738097Y80068991D02*
X77642859Y80116610D01*
X78976193Y79830896D02*
X79452383Y79830896D01*
X78880955Y79545181D02*
X79214288Y80545181D01*
X79214288Y80545181D02*
X79547621Y79545181D01*
X79785717Y80545181D02*
X80023812Y79545181D01*
X80023812Y79545181D02*
X80214288Y80259467D01*
X80214288Y80259467D02*
X80404764Y79545181D01*
X80404764Y79545181D02*
X80642860Y80545181D01*
X81547621Y80497562D02*
X81452383Y80545181D01*
X81452383Y80545181D02*
X81309526Y80545181D01*
X81309526Y80545181D02*
X81166669Y80497562D01*
X81166669Y80497562D02*
X81071431Y80402324D01*
X81071431Y80402324D02*
X81023812Y80307086D01*
X81023812Y80307086D02*
X80976193Y80116610D01*
X80976193Y80116610D02*
X80976193Y79973753D01*
X80976193Y79973753D02*
X81023812Y79783277D01*
X81023812Y79783277D02*
X81071431Y79688039D01*
X81071431Y79688039D02*
X81166669Y79592800D01*
X81166669Y79592800D02*
X81309526Y79545181D01*
X81309526Y79545181D02*
X81404764Y79545181D01*
X81404764Y79545181D02*
X81547621Y79592800D01*
X81547621Y79592800D02*
X81595240Y79640420D01*
X81595240Y79640420D02*
X81595240Y79973753D01*
X81595240Y79973753D02*
X81404764Y79973753D01*
X82785717Y80211848D02*
X82785717Y79211848D01*
X82785717Y80164229D02*
X82880955Y80211848D01*
X82880955Y80211848D02*
X83071431Y80211848D01*
X83071431Y80211848D02*
X83166669Y80164229D01*
X83166669Y80164229D02*
X83214288Y80116610D01*
X83214288Y80116610D02*
X83261907Y80021372D01*
X83261907Y80021372D02*
X83261907Y79735658D01*
X83261907Y79735658D02*
X83214288Y79640420D01*
X83214288Y79640420D02*
X83166669Y79592800D01*
X83166669Y79592800D02*
X83071431Y79545181D01*
X83071431Y79545181D02*
X82880955Y79545181D01*
X82880955Y79545181D02*
X82785717Y79592800D01*
X83690479Y79545181D02*
X83690479Y80211848D01*
X83690479Y80545181D02*
X83642860Y80497562D01*
X83642860Y80497562D02*
X83690479Y80449943D01*
X83690479Y80449943D02*
X83738098Y80497562D01*
X83738098Y80497562D02*
X83690479Y80545181D01*
X83690479Y80545181D02*
X83690479Y80449943D01*
X84595240Y80211848D02*
X84595240Y79402324D01*
X84595240Y79402324D02*
X84547621Y79307086D01*
X84547621Y79307086D02*
X84500002Y79259467D01*
X84500002Y79259467D02*
X84404764Y79211848D01*
X84404764Y79211848D02*
X84261907Y79211848D01*
X84261907Y79211848D02*
X84166669Y79259467D01*
X84595240Y79592800D02*
X84500002Y79545181D01*
X84500002Y79545181D02*
X84309526Y79545181D01*
X84309526Y79545181D02*
X84214288Y79592800D01*
X84214288Y79592800D02*
X84166669Y79640420D01*
X84166669Y79640420D02*
X84119050Y79735658D01*
X84119050Y79735658D02*
X84119050Y80021372D01*
X84119050Y80021372D02*
X84166669Y80116610D01*
X84166669Y80116610D02*
X84214288Y80164229D01*
X84214288Y80164229D02*
X84309526Y80211848D01*
X84309526Y80211848D02*
X84500002Y80211848D01*
X84500002Y80211848D02*
X84595240Y80164229D01*
X84928574Y80211848D02*
X85309526Y80211848D01*
X85071431Y80545181D02*
X85071431Y79688039D01*
X85071431Y79688039D02*
X85119050Y79592800D01*
X85119050Y79592800D02*
X85214288Y79545181D01*
X85214288Y79545181D02*
X85309526Y79545181D01*
X86071431Y79545181D02*
X86071431Y80068991D01*
X86071431Y80068991D02*
X86023812Y80164229D01*
X86023812Y80164229D02*
X85928574Y80211848D01*
X85928574Y80211848D02*
X85738098Y80211848D01*
X85738098Y80211848D02*
X85642860Y80164229D01*
X86071431Y79592800D02*
X85976193Y79545181D01*
X85976193Y79545181D02*
X85738098Y79545181D01*
X85738098Y79545181D02*
X85642860Y79592800D01*
X85642860Y79592800D02*
X85595241Y79688039D01*
X85595241Y79688039D02*
X85595241Y79783277D01*
X85595241Y79783277D02*
X85642860Y79878515D01*
X85642860Y79878515D02*
X85738098Y79926134D01*
X85738098Y79926134D02*
X85976193Y79926134D01*
X85976193Y79926134D02*
X86071431Y79973753D01*
X86547622Y79545181D02*
X86547622Y80211848D01*
X86547622Y80545181D02*
X86500003Y80497562D01*
X86500003Y80497562D02*
X86547622Y80449943D01*
X86547622Y80449943D02*
X86595241Y80497562D01*
X86595241Y80497562D02*
X86547622Y80545181D01*
X86547622Y80545181D02*
X86547622Y80449943D01*
X87166669Y79545181D02*
X87071431Y79592800D01*
X87071431Y79592800D02*
X87023812Y79688039D01*
X87023812Y79688039D02*
X87023812Y80545181D01*
X88738098Y79592800D02*
X88642860Y79545181D01*
X88642860Y79545181D02*
X88452384Y79545181D01*
X88452384Y79545181D02*
X88357146Y79592800D01*
X88357146Y79592800D02*
X88309527Y79640420D01*
X88309527Y79640420D02*
X88261908Y79735658D01*
X88261908Y79735658D02*
X88261908Y80021372D01*
X88261908Y80021372D02*
X88309527Y80116610D01*
X88309527Y80116610D02*
X88357146Y80164229D01*
X88357146Y80164229D02*
X88452384Y80211848D01*
X88452384Y80211848D02*
X88642860Y80211848D01*
X88642860Y80211848D02*
X88738098Y80164229D01*
X89309527Y79545181D02*
X89214289Y79592800D01*
X89214289Y79592800D02*
X89166670Y79640420D01*
X89166670Y79640420D02*
X89119051Y79735658D01*
X89119051Y79735658D02*
X89119051Y80021372D01*
X89119051Y80021372D02*
X89166670Y80116610D01*
X89166670Y80116610D02*
X89214289Y80164229D01*
X89214289Y80164229D02*
X89309527Y80211848D01*
X89309527Y80211848D02*
X89452384Y80211848D01*
X89452384Y80211848D02*
X89547622Y80164229D01*
X89547622Y80164229D02*
X89595241Y80116610D01*
X89595241Y80116610D02*
X89642860Y80021372D01*
X89642860Y80021372D02*
X89642860Y79735658D01*
X89642860Y79735658D02*
X89595241Y79640420D01*
X89595241Y79640420D02*
X89547622Y79592800D01*
X89547622Y79592800D02*
X89452384Y79545181D01*
X89452384Y79545181D02*
X89309527Y79545181D01*
X90071432Y79545181D02*
X90071432Y80211848D01*
X90071432Y80021372D02*
X90119051Y80116610D01*
X90119051Y80116610D02*
X90166670Y80164229D01*
X90166670Y80164229D02*
X90261908Y80211848D01*
X90261908Y80211848D02*
X90357146Y80211848D01*
X91071432Y79592800D02*
X90976194Y79545181D01*
X90976194Y79545181D02*
X90785718Y79545181D01*
X90785718Y79545181D02*
X90690480Y79592800D01*
X90690480Y79592800D02*
X90642861Y79688039D01*
X90642861Y79688039D02*
X90642861Y80068991D01*
X90642861Y80068991D02*
X90690480Y80164229D01*
X90690480Y80164229D02*
X90785718Y80211848D01*
X90785718Y80211848D02*
X90976194Y80211848D01*
X90976194Y80211848D02*
X91071432Y80164229D01*
X91071432Y80164229D02*
X91119051Y80068991D01*
X91119051Y80068991D02*
X91119051Y79973753D01*
X91119051Y79973753D02*
X90642861Y79878515D01*
X36642852Y20545181D02*
X36642852Y21545181D01*
X37119042Y20545181D02*
X37119042Y21545181D01*
X37119042Y21545181D02*
X37690470Y20545181D01*
X37690470Y20545181D02*
X37690470Y21545181D01*
X38452375Y21545181D02*
X38452375Y20830896D01*
X38452375Y20830896D02*
X38404756Y20688039D01*
X38404756Y20688039D02*
X38309518Y20592800D01*
X38309518Y20592800D02*
X38166661Y20545181D01*
X38166661Y20545181D02*
X38071423Y20545181D01*
X39547614Y21211848D02*
X39928566Y21211848D01*
X39690471Y21545181D02*
X39690471Y20688039D01*
X39690471Y20688039D02*
X39738090Y20592800D01*
X39738090Y20592800D02*
X39833328Y20545181D01*
X39833328Y20545181D02*
X39928566Y20545181D01*
X40642852Y20592800D02*
X40547614Y20545181D01*
X40547614Y20545181D02*
X40357138Y20545181D01*
X40357138Y20545181D02*
X40261900Y20592800D01*
X40261900Y20592800D02*
X40214281Y20688039D01*
X40214281Y20688039D02*
X40214281Y21068991D01*
X40214281Y21068991D02*
X40261900Y21164229D01*
X40261900Y21164229D02*
X40357138Y21211848D01*
X40357138Y21211848D02*
X40547614Y21211848D01*
X40547614Y21211848D02*
X40642852Y21164229D01*
X40642852Y21164229D02*
X40690471Y21068991D01*
X40690471Y21068991D02*
X40690471Y20973753D01*
X40690471Y20973753D02*
X40214281Y20878515D01*
X41119043Y20545181D02*
X41119043Y21211848D01*
X41119043Y21021372D02*
X41166662Y21116610D01*
X41166662Y21116610D02*
X41214281Y21164229D01*
X41214281Y21164229D02*
X41309519Y21211848D01*
X41309519Y21211848D02*
X41404757Y21211848D01*
X41738091Y20545181D02*
X41738091Y21211848D01*
X41738091Y21116610D02*
X41785710Y21164229D01*
X41785710Y21164229D02*
X41880948Y21211848D01*
X41880948Y21211848D02*
X42023805Y21211848D01*
X42023805Y21211848D02*
X42119043Y21164229D01*
X42119043Y21164229D02*
X42166662Y21068991D01*
X42166662Y21068991D02*
X42166662Y20545181D01*
X42166662Y21068991D02*
X42214281Y21164229D01*
X42214281Y21164229D02*
X42309519Y21211848D01*
X42309519Y21211848D02*
X42452376Y21211848D01*
X42452376Y21211848D02*
X42547615Y21164229D01*
X42547615Y21164229D02*
X42595234Y21068991D01*
X42595234Y21068991D02*
X42595234Y20545181D01*
X43071424Y20545181D02*
X43071424Y21211848D01*
X43071424Y21545181D02*
X43023805Y21497562D01*
X43023805Y21497562D02*
X43071424Y21449943D01*
X43071424Y21449943D02*
X43119043Y21497562D01*
X43119043Y21497562D02*
X43071424Y21545181D01*
X43071424Y21545181D02*
X43071424Y21449943D01*
X43547614Y21211848D02*
X43547614Y20545181D01*
X43547614Y21116610D02*
X43595233Y21164229D01*
X43595233Y21164229D02*
X43690471Y21211848D01*
X43690471Y21211848D02*
X43833328Y21211848D01*
X43833328Y21211848D02*
X43928566Y21164229D01*
X43928566Y21164229D02*
X43976185Y21068991D01*
X43976185Y21068991D02*
X43976185Y20545181D01*
X44880947Y20545181D02*
X44880947Y21068991D01*
X44880947Y21068991D02*
X44833328Y21164229D01*
X44833328Y21164229D02*
X44738090Y21211848D01*
X44738090Y21211848D02*
X44547614Y21211848D01*
X44547614Y21211848D02*
X44452376Y21164229D01*
X44880947Y20592800D02*
X44785709Y20545181D01*
X44785709Y20545181D02*
X44547614Y20545181D01*
X44547614Y20545181D02*
X44452376Y20592800D01*
X44452376Y20592800D02*
X44404757Y20688039D01*
X44404757Y20688039D02*
X44404757Y20783277D01*
X44404757Y20783277D02*
X44452376Y20878515D01*
X44452376Y20878515D02*
X44547614Y20926134D01*
X44547614Y20926134D02*
X44785709Y20926134D01*
X44785709Y20926134D02*
X44880947Y20973753D01*
X45499995Y20545181D02*
X45404757Y20592800D01*
X45404757Y20592800D02*
X45357138Y20688039D01*
X45357138Y20688039D02*
X45357138Y21545181D01*
X45833329Y20592800D02*
X45928567Y20545181D01*
X45928567Y20545181D02*
X46119043Y20545181D01*
X46119043Y20545181D02*
X46214281Y20592800D01*
X46214281Y20592800D02*
X46261900Y20688039D01*
X46261900Y20688039D02*
X46261900Y20735658D01*
X46261900Y20735658D02*
X46214281Y20830896D01*
X46214281Y20830896D02*
X46119043Y20878515D01*
X46119043Y20878515D02*
X45976186Y20878515D01*
X45976186Y20878515D02*
X45880948Y20926134D01*
X45880948Y20926134D02*
X45833329Y21021372D01*
X45833329Y21021372D02*
X45833329Y21068991D01*
X45833329Y21068991D02*
X45880948Y21164229D01*
X45880948Y21164229D02*
X45976186Y21211848D01*
X45976186Y21211848D02*
X46119043Y21211848D01*
X46119043Y21211848D02*
X46214281Y21164229D01*
X47880948Y20545181D02*
X47880948Y21068991D01*
X47880948Y21068991D02*
X47833329Y21164229D01*
X47833329Y21164229D02*
X47738091Y21211848D01*
X47738091Y21211848D02*
X47547615Y21211848D01*
X47547615Y21211848D02*
X47452377Y21164229D01*
X47880948Y20592800D02*
X47785710Y20545181D01*
X47785710Y20545181D02*
X47547615Y20545181D01*
X47547615Y20545181D02*
X47452377Y20592800D01*
X47452377Y20592800D02*
X47404758Y20688039D01*
X47404758Y20688039D02*
X47404758Y20783277D01*
X47404758Y20783277D02*
X47452377Y20878515D01*
X47452377Y20878515D02*
X47547615Y20926134D01*
X47547615Y20926134D02*
X47785710Y20926134D01*
X47785710Y20926134D02*
X47880948Y20973753D01*
X48357139Y20545181D02*
X48357139Y21211848D01*
X48357139Y21021372D02*
X48404758Y21116610D01*
X48404758Y21116610D02*
X48452377Y21164229D01*
X48452377Y21164229D02*
X48547615Y21211848D01*
X48547615Y21211848D02*
X48642853Y21211848D01*
X49357139Y20592800D02*
X49261901Y20545181D01*
X49261901Y20545181D02*
X49071425Y20545181D01*
X49071425Y20545181D02*
X48976187Y20592800D01*
X48976187Y20592800D02*
X48928568Y20688039D01*
X48928568Y20688039D02*
X48928568Y21068991D01*
X48928568Y21068991D02*
X48976187Y21164229D01*
X48976187Y21164229D02*
X49071425Y21211848D01*
X49071425Y21211848D02*
X49261901Y21211848D01*
X49261901Y21211848D02*
X49357139Y21164229D01*
X49357139Y21164229D02*
X49404758Y21068991D01*
X49404758Y21068991D02*
X49404758Y20973753D01*
X49404758Y20973753D02*
X48928568Y20878515D01*
X50595235Y21211848D02*
X50595235Y20211848D01*
X50595235Y21164229D02*
X50690473Y21211848D01*
X50690473Y21211848D02*
X50880949Y21211848D01*
X50880949Y21211848D02*
X50976187Y21164229D01*
X50976187Y21164229D02*
X51023806Y21116610D01*
X51023806Y21116610D02*
X51071425Y21021372D01*
X51071425Y21021372D02*
X51071425Y20735658D01*
X51071425Y20735658D02*
X51023806Y20640420D01*
X51023806Y20640420D02*
X50976187Y20592800D01*
X50976187Y20592800D02*
X50880949Y20545181D01*
X50880949Y20545181D02*
X50690473Y20545181D01*
X50690473Y20545181D02*
X50595235Y20592800D01*
X51642854Y20545181D02*
X51547616Y20592800D01*
X51547616Y20592800D02*
X51499997Y20640420D01*
X51499997Y20640420D02*
X51452378Y20735658D01*
X51452378Y20735658D02*
X51452378Y21021372D01*
X51452378Y21021372D02*
X51499997Y21116610D01*
X51499997Y21116610D02*
X51547616Y21164229D01*
X51547616Y21164229D02*
X51642854Y21211848D01*
X51642854Y21211848D02*
X51785711Y21211848D01*
X51785711Y21211848D02*
X51880949Y21164229D01*
X51880949Y21164229D02*
X51928568Y21116610D01*
X51928568Y21116610D02*
X51976187Y21021372D01*
X51976187Y21021372D02*
X51976187Y20735658D01*
X51976187Y20735658D02*
X51928568Y20640420D01*
X51928568Y20640420D02*
X51880949Y20592800D01*
X51880949Y20592800D02*
X51785711Y20545181D01*
X51785711Y20545181D02*
X51642854Y20545181D01*
X52309521Y21211848D02*
X52499997Y20545181D01*
X52499997Y20545181D02*
X52690473Y21021372D01*
X52690473Y21021372D02*
X52880949Y20545181D01*
X52880949Y20545181D02*
X53071425Y21211848D01*
X53833330Y20592800D02*
X53738092Y20545181D01*
X53738092Y20545181D02*
X53547616Y20545181D01*
X53547616Y20545181D02*
X53452378Y20592800D01*
X53452378Y20592800D02*
X53404759Y20688039D01*
X53404759Y20688039D02*
X53404759Y21068991D01*
X53404759Y21068991D02*
X53452378Y21164229D01*
X53452378Y21164229D02*
X53547616Y21211848D01*
X53547616Y21211848D02*
X53738092Y21211848D01*
X53738092Y21211848D02*
X53833330Y21164229D01*
X53833330Y21164229D02*
X53880949Y21068991D01*
X53880949Y21068991D02*
X53880949Y20973753D01*
X53880949Y20973753D02*
X53404759Y20878515D01*
X54309521Y20545181D02*
X54309521Y21211848D01*
X54309521Y21021372D02*
X54357140Y21116610D01*
X54357140Y21116610D02*
X54404759Y21164229D01*
X54404759Y21164229D02*
X54499997Y21211848D01*
X54499997Y21211848D02*
X54595235Y21211848D01*
X55833331Y20545181D02*
X55738093Y20592800D01*
X55738093Y20592800D02*
X55690474Y20640420D01*
X55690474Y20640420D02*
X55642855Y20735658D01*
X55642855Y20735658D02*
X55642855Y21021372D01*
X55642855Y21021372D02*
X55690474Y21116610D01*
X55690474Y21116610D02*
X55738093Y21164229D01*
X55738093Y21164229D02*
X55833331Y21211848D01*
X55833331Y21211848D02*
X55976188Y21211848D01*
X55976188Y21211848D02*
X56071426Y21164229D01*
X56071426Y21164229D02*
X56119045Y21116610D01*
X56119045Y21116610D02*
X56166664Y21021372D01*
X56166664Y21021372D02*
X56166664Y20735658D01*
X56166664Y20735658D02*
X56119045Y20640420D01*
X56119045Y20640420D02*
X56071426Y20592800D01*
X56071426Y20592800D02*
X55976188Y20545181D01*
X55976188Y20545181D02*
X55833331Y20545181D01*
X56595236Y21211848D02*
X56595236Y20545181D01*
X56595236Y21116610D02*
X56642855Y21164229D01*
X56642855Y21164229D02*
X56738093Y21211848D01*
X56738093Y21211848D02*
X56880950Y21211848D01*
X56880950Y21211848D02*
X56976188Y21164229D01*
X56976188Y21164229D02*
X57023807Y21068991D01*
X57023807Y21068991D02*
X57023807Y20545181D01*
X57642855Y20545181D02*
X57547617Y20592800D01*
X57547617Y20592800D02*
X57499998Y20688039D01*
X57499998Y20688039D02*
X57499998Y21545181D01*
X57928570Y21211848D02*
X58166665Y20545181D01*
X58404760Y21211848D02*
X58166665Y20545181D01*
X58166665Y20545181D02*
X58071427Y20307086D01*
X58071427Y20307086D02*
X58023808Y20259467D01*
X58023808Y20259467D02*
X57928570Y20211848D01*
X59547618Y20926134D02*
X60309523Y20926134D01*
X61404761Y21211848D02*
X61785713Y21211848D01*
X61547618Y21545181D02*
X61547618Y20688039D01*
X61547618Y20688039D02*
X61595237Y20592800D01*
X61595237Y20592800D02*
X61690475Y20545181D01*
X61690475Y20545181D02*
X61785713Y20545181D01*
X62119047Y20545181D02*
X62119047Y21545181D01*
X62547618Y20545181D02*
X62547618Y21068991D01*
X62547618Y21068991D02*
X62499999Y21164229D01*
X62499999Y21164229D02*
X62404761Y21211848D01*
X62404761Y21211848D02*
X62261904Y21211848D01*
X62261904Y21211848D02*
X62166666Y21164229D01*
X62166666Y21164229D02*
X62119047Y21116610D01*
X63404761Y20592800D02*
X63309523Y20545181D01*
X63309523Y20545181D02*
X63119047Y20545181D01*
X63119047Y20545181D02*
X63023809Y20592800D01*
X63023809Y20592800D02*
X62976190Y20688039D01*
X62976190Y20688039D02*
X62976190Y21068991D01*
X62976190Y21068991D02*
X63023809Y21164229D01*
X63023809Y21164229D02*
X63119047Y21211848D01*
X63119047Y21211848D02*
X63309523Y21211848D01*
X63309523Y21211848D02*
X63404761Y21164229D01*
X63404761Y21164229D02*
X63452380Y21068991D01*
X63452380Y21068991D02*
X63452380Y20973753D01*
X63452380Y20973753D02*
X62976190Y20878515D01*
X64642857Y20545181D02*
X64642857Y21545181D01*
X64642857Y21545181D02*
X64880952Y21545181D01*
X64880952Y21545181D02*
X65023809Y21497562D01*
X65023809Y21497562D02*
X65119047Y21402324D01*
X65119047Y21402324D02*
X65166666Y21307086D01*
X65166666Y21307086D02*
X65214285Y21116610D01*
X65214285Y21116610D02*
X65214285Y20973753D01*
X65214285Y20973753D02*
X65166666Y20783277D01*
X65166666Y20783277D02*
X65119047Y20688039D01*
X65119047Y20688039D02*
X65023809Y20592800D01*
X65023809Y20592800D02*
X64880952Y20545181D01*
X64880952Y20545181D02*
X64642857Y20545181D01*
X66404762Y21211848D02*
X66404762Y20211848D01*
X66404762Y21164229D02*
X66500000Y21211848D01*
X66500000Y21211848D02*
X66690476Y21211848D01*
X66690476Y21211848D02*
X66785714Y21164229D01*
X66785714Y21164229D02*
X66833333Y21116610D01*
X66833333Y21116610D02*
X66880952Y21021372D01*
X66880952Y21021372D02*
X66880952Y20735658D01*
X66880952Y20735658D02*
X66833333Y20640420D01*
X66833333Y20640420D02*
X66785714Y20592800D01*
X66785714Y20592800D02*
X66690476Y20545181D01*
X66690476Y20545181D02*
X66500000Y20545181D01*
X66500000Y20545181D02*
X66404762Y20592800D01*
X67452381Y20545181D02*
X67357143Y20592800D01*
X67357143Y20592800D02*
X67309524Y20640420D01*
X67309524Y20640420D02*
X67261905Y20735658D01*
X67261905Y20735658D02*
X67261905Y21021372D01*
X67261905Y21021372D02*
X67309524Y21116610D01*
X67309524Y21116610D02*
X67357143Y21164229D01*
X67357143Y21164229D02*
X67452381Y21211848D01*
X67452381Y21211848D02*
X67595238Y21211848D01*
X67595238Y21211848D02*
X67690476Y21164229D01*
X67690476Y21164229D02*
X67738095Y21116610D01*
X67738095Y21116610D02*
X67785714Y21021372D01*
X67785714Y21021372D02*
X67785714Y20735658D01*
X67785714Y20735658D02*
X67738095Y20640420D01*
X67738095Y20640420D02*
X67690476Y20592800D01*
X67690476Y20592800D02*
X67595238Y20545181D01*
X67595238Y20545181D02*
X67452381Y20545181D01*
X68357143Y20545181D02*
X68261905Y20592800D01*
X68261905Y20592800D02*
X68214286Y20688039D01*
X68214286Y20688039D02*
X68214286Y21545181D01*
X69119048Y20592800D02*
X69023810Y20545181D01*
X69023810Y20545181D02*
X68833334Y20545181D01*
X68833334Y20545181D02*
X68738096Y20592800D01*
X68738096Y20592800D02*
X68690477Y20688039D01*
X68690477Y20688039D02*
X68690477Y21068991D01*
X68690477Y21068991D02*
X68738096Y21164229D01*
X68738096Y21164229D02*
X68833334Y21211848D01*
X68833334Y21211848D02*
X69023810Y21211848D01*
X69023810Y21211848D02*
X69119048Y21164229D01*
X69119048Y21164229D02*
X69166667Y21068991D01*
X69166667Y21068991D02*
X69166667Y20973753D01*
X69166667Y20973753D02*
X68690477Y20878515D01*
X70357144Y20545181D02*
X70357144Y21211848D01*
X70357144Y21545181D02*
X70309525Y21497562D01*
X70309525Y21497562D02*
X70357144Y21449943D01*
X70357144Y21449943D02*
X70404763Y21497562D01*
X70404763Y21497562D02*
X70357144Y21545181D01*
X70357144Y21545181D02*
X70357144Y21449943D01*
X70785715Y20592800D02*
X70880953Y20545181D01*
X70880953Y20545181D02*
X71071429Y20545181D01*
X71071429Y20545181D02*
X71166667Y20592800D01*
X71166667Y20592800D02*
X71214286Y20688039D01*
X71214286Y20688039D02*
X71214286Y20735658D01*
X71214286Y20735658D02*
X71166667Y20830896D01*
X71166667Y20830896D02*
X71071429Y20878515D01*
X71071429Y20878515D02*
X70928572Y20878515D01*
X70928572Y20878515D02*
X70833334Y20926134D01*
X70833334Y20926134D02*
X70785715Y21021372D01*
X70785715Y21021372D02*
X70785715Y21068991D01*
X70785715Y21068991D02*
X70833334Y21164229D01*
X70833334Y21164229D02*
X70928572Y21211848D01*
X70928572Y21211848D02*
X71071429Y21211848D01*
X71071429Y21211848D02*
X71166667Y21164229D01*
X72404763Y21211848D02*
X72404763Y20545181D01*
X72404763Y21116610D02*
X72452382Y21164229D01*
X72452382Y21164229D02*
X72547620Y21211848D01*
X72547620Y21211848D02*
X72690477Y21211848D01*
X72690477Y21211848D02*
X72785715Y21164229D01*
X72785715Y21164229D02*
X72833334Y21068991D01*
X72833334Y21068991D02*
X72833334Y20545181D01*
X73452382Y20545181D02*
X73357144Y20592800D01*
X73357144Y20592800D02*
X73309525Y20640420D01*
X73309525Y20640420D02*
X73261906Y20735658D01*
X73261906Y20735658D02*
X73261906Y21021372D01*
X73261906Y21021372D02*
X73309525Y21116610D01*
X73309525Y21116610D02*
X73357144Y21164229D01*
X73357144Y21164229D02*
X73452382Y21211848D01*
X73452382Y21211848D02*
X73595239Y21211848D01*
X73595239Y21211848D02*
X73690477Y21164229D01*
X73690477Y21164229D02*
X73738096Y21116610D01*
X73738096Y21116610D02*
X73785715Y21021372D01*
X73785715Y21021372D02*
X73785715Y20735658D01*
X73785715Y20735658D02*
X73738096Y20640420D01*
X73738096Y20640420D02*
X73690477Y20592800D01*
X73690477Y20592800D02*
X73595239Y20545181D01*
X73595239Y20545181D02*
X73452382Y20545181D01*
X74071430Y21211848D02*
X74452382Y21211848D01*
X74214287Y21545181D02*
X74214287Y20688039D01*
X74214287Y20688039D02*
X74261906Y20592800D01*
X74261906Y20592800D02*
X74357144Y20545181D01*
X74357144Y20545181D02*
X74452382Y20545181D01*
X75976192Y20592800D02*
X75880954Y20545181D01*
X75880954Y20545181D02*
X75690478Y20545181D01*
X75690478Y20545181D02*
X75595240Y20592800D01*
X75595240Y20592800D02*
X75547621Y20640420D01*
X75547621Y20640420D02*
X75500002Y20735658D01*
X75500002Y20735658D02*
X75500002Y21021372D01*
X75500002Y21021372D02*
X75547621Y21116610D01*
X75547621Y21116610D02*
X75595240Y21164229D01*
X75595240Y21164229D02*
X75690478Y21211848D01*
X75690478Y21211848D02*
X75880954Y21211848D01*
X75880954Y21211848D02*
X75976192Y21164229D01*
X76547621Y20545181D02*
X76452383Y20592800D01*
X76452383Y20592800D02*
X76404764Y20640420D01*
X76404764Y20640420D02*
X76357145Y20735658D01*
X76357145Y20735658D02*
X76357145Y21021372D01*
X76357145Y21021372D02*
X76404764Y21116610D01*
X76404764Y21116610D02*
X76452383Y21164229D01*
X76452383Y21164229D02*
X76547621Y21211848D01*
X76547621Y21211848D02*
X76690478Y21211848D01*
X76690478Y21211848D02*
X76785716Y21164229D01*
X76785716Y21164229D02*
X76833335Y21116610D01*
X76833335Y21116610D02*
X76880954Y21021372D01*
X76880954Y21021372D02*
X76880954Y20735658D01*
X76880954Y20735658D02*
X76833335Y20640420D01*
X76833335Y20640420D02*
X76785716Y20592800D01*
X76785716Y20592800D02*
X76690478Y20545181D01*
X76690478Y20545181D02*
X76547621Y20545181D01*
X77309526Y21211848D02*
X77309526Y20545181D01*
X77309526Y21116610D02*
X77357145Y21164229D01*
X77357145Y21164229D02*
X77452383Y21211848D01*
X77452383Y21211848D02*
X77595240Y21211848D01*
X77595240Y21211848D02*
X77690478Y21164229D01*
X77690478Y21164229D02*
X77738097Y21068991D01*
X77738097Y21068991D02*
X77738097Y20545181D01*
X78214288Y21211848D02*
X78214288Y20545181D01*
X78214288Y21116610D02*
X78261907Y21164229D01*
X78261907Y21164229D02*
X78357145Y21211848D01*
X78357145Y21211848D02*
X78500002Y21211848D01*
X78500002Y21211848D02*
X78595240Y21164229D01*
X78595240Y21164229D02*
X78642859Y21068991D01*
X78642859Y21068991D02*
X78642859Y20545181D01*
X79500002Y20592800D02*
X79404764Y20545181D01*
X79404764Y20545181D02*
X79214288Y20545181D01*
X79214288Y20545181D02*
X79119050Y20592800D01*
X79119050Y20592800D02*
X79071431Y20688039D01*
X79071431Y20688039D02*
X79071431Y21068991D01*
X79071431Y21068991D02*
X79119050Y21164229D01*
X79119050Y21164229D02*
X79214288Y21211848D01*
X79214288Y21211848D02*
X79404764Y21211848D01*
X79404764Y21211848D02*
X79500002Y21164229D01*
X79500002Y21164229D02*
X79547621Y21068991D01*
X79547621Y21068991D02*
X79547621Y20973753D01*
X79547621Y20973753D02*
X79071431Y20878515D01*
X80404764Y20592800D02*
X80309526Y20545181D01*
X80309526Y20545181D02*
X80119050Y20545181D01*
X80119050Y20545181D02*
X80023812Y20592800D01*
X80023812Y20592800D02*
X79976193Y20640420D01*
X79976193Y20640420D02*
X79928574Y20735658D01*
X79928574Y20735658D02*
X79928574Y21021372D01*
X79928574Y21021372D02*
X79976193Y21116610D01*
X79976193Y21116610D02*
X80023812Y21164229D01*
X80023812Y21164229D02*
X80119050Y21211848D01*
X80119050Y21211848D02*
X80309526Y21211848D01*
X80309526Y21211848D02*
X80404764Y21164229D01*
X80690479Y21211848D02*
X81071431Y21211848D01*
X80833336Y21545181D02*
X80833336Y20688039D01*
X80833336Y20688039D02*
X80880955Y20592800D01*
X80880955Y20592800D02*
X80976193Y20545181D01*
X80976193Y20545181D02*
X81071431Y20545181D01*
X81785717Y20592800D02*
X81690479Y20545181D01*
X81690479Y20545181D02*
X81500003Y20545181D01*
X81500003Y20545181D02*
X81404765Y20592800D01*
X81404765Y20592800D02*
X81357146Y20688039D01*
X81357146Y20688039D02*
X81357146Y21068991D01*
X81357146Y21068991D02*
X81404765Y21164229D01*
X81404765Y21164229D02*
X81500003Y21211848D01*
X81500003Y21211848D02*
X81690479Y21211848D01*
X81690479Y21211848D02*
X81785717Y21164229D01*
X81785717Y21164229D02*
X81833336Y21068991D01*
X81833336Y21068991D02*
X81833336Y20973753D01*
X81833336Y20973753D02*
X81357146Y20878515D01*
X82690479Y20545181D02*
X82690479Y21545181D01*
X82690479Y20592800D02*
X82595241Y20545181D01*
X82595241Y20545181D02*
X82404765Y20545181D01*
X82404765Y20545181D02*
X82309527Y20592800D01*
X82309527Y20592800D02*
X82261908Y20640420D01*
X82261908Y20640420D02*
X82214289Y20735658D01*
X82214289Y20735658D02*
X82214289Y21021372D01*
X82214289Y21021372D02*
X82261908Y21116610D01*
X82261908Y21116610D02*
X82309527Y21164229D01*
X82309527Y21164229D02*
X82404765Y21211848D01*
X82404765Y21211848D02*
X82595241Y21211848D01*
X82595241Y21211848D02*
X82690479Y21164229D01*
X84071432Y20545181D02*
X83976194Y20592800D01*
X83976194Y20592800D02*
X83928575Y20640420D01*
X83928575Y20640420D02*
X83880956Y20735658D01*
X83880956Y20735658D02*
X83880956Y21021372D01*
X83880956Y21021372D02*
X83928575Y21116610D01*
X83928575Y21116610D02*
X83976194Y21164229D01*
X83976194Y21164229D02*
X84071432Y21211848D01*
X84071432Y21211848D02*
X84214289Y21211848D01*
X84214289Y21211848D02*
X84309527Y21164229D01*
X84309527Y21164229D02*
X84357146Y21116610D01*
X84357146Y21116610D02*
X84404765Y21021372D01*
X84404765Y21021372D02*
X84404765Y20735658D01*
X84404765Y20735658D02*
X84357146Y20640420D01*
X84357146Y20640420D02*
X84309527Y20592800D01*
X84309527Y20592800D02*
X84214289Y20545181D01*
X84214289Y20545181D02*
X84071432Y20545181D01*
X84833337Y21211848D02*
X84833337Y20545181D01*
X84833337Y21116610D02*
X84880956Y21164229D01*
X84880956Y21164229D02*
X84976194Y21211848D01*
X84976194Y21211848D02*
X85119051Y21211848D01*
X85119051Y21211848D02*
X85214289Y21164229D01*
X85214289Y21164229D02*
X85261908Y21068991D01*
X85261908Y21068991D02*
X85261908Y20545181D01*
X86357147Y21211848D02*
X86738099Y21211848D01*
X86500004Y21545181D02*
X86500004Y20688039D01*
X86500004Y20688039D02*
X86547623Y20592800D01*
X86547623Y20592800D02*
X86642861Y20545181D01*
X86642861Y20545181D02*
X86738099Y20545181D01*
X87071433Y20545181D02*
X87071433Y21545181D01*
X87500004Y20545181D02*
X87500004Y21068991D01*
X87500004Y21068991D02*
X87452385Y21164229D01*
X87452385Y21164229D02*
X87357147Y21211848D01*
X87357147Y21211848D02*
X87214290Y21211848D01*
X87214290Y21211848D02*
X87119052Y21164229D01*
X87119052Y21164229D02*
X87071433Y21116610D01*
X88357147Y20592800D02*
X88261909Y20545181D01*
X88261909Y20545181D02*
X88071433Y20545181D01*
X88071433Y20545181D02*
X87976195Y20592800D01*
X87976195Y20592800D02*
X87928576Y20688039D01*
X87928576Y20688039D02*
X87928576Y21068991D01*
X87928576Y21068991D02*
X87976195Y21164229D01*
X87976195Y21164229D02*
X88071433Y21211848D01*
X88071433Y21211848D02*
X88261909Y21211848D01*
X88261909Y21211848D02*
X88357147Y21164229D01*
X88357147Y21164229D02*
X88404766Y21068991D01*
X88404766Y21068991D02*
X88404766Y20973753D01*
X88404766Y20973753D02*
X87928576Y20878515D01*
X89595243Y20545181D02*
X89595243Y21545181D01*
X89595243Y21164229D02*
X89690481Y21211848D01*
X89690481Y21211848D02*
X89880957Y21211848D01*
X89880957Y21211848D02*
X89976195Y21164229D01*
X89976195Y21164229D02*
X90023814Y21116610D01*
X90023814Y21116610D02*
X90071433Y21021372D01*
X90071433Y21021372D02*
X90071433Y20735658D01*
X90071433Y20735658D02*
X90023814Y20640420D01*
X90023814Y20640420D02*
X89976195Y20592800D01*
X89976195Y20592800D02*
X89880957Y20545181D01*
X89880957Y20545181D02*
X89690481Y20545181D01*
X89690481Y20545181D02*
X89595243Y20592800D01*
X90642862Y20545181D02*
X90547624Y20592800D01*
X90547624Y20592800D02*
X90500005Y20640420D01*
X90500005Y20640420D02*
X90452386Y20735658D01*
X90452386Y20735658D02*
X90452386Y21021372D01*
X90452386Y21021372D02*
X90500005Y21116610D01*
X90500005Y21116610D02*
X90547624Y21164229D01*
X90547624Y21164229D02*
X90642862Y21211848D01*
X90642862Y21211848D02*
X90785719Y21211848D01*
X90785719Y21211848D02*
X90880957Y21164229D01*
X90880957Y21164229D02*
X90928576Y21116610D01*
X90928576Y21116610D02*
X90976195Y21021372D01*
X90976195Y21021372D02*
X90976195Y20735658D01*
X90976195Y20735658D02*
X90928576Y20640420D01*
X90928576Y20640420D02*
X90880957Y20592800D01*
X90880957Y20592800D02*
X90785719Y20545181D01*
X90785719Y20545181D02*
X90642862Y20545181D01*
X91833338Y20545181D02*
X91833338Y21068991D01*
X91833338Y21068991D02*
X91785719Y21164229D01*
X91785719Y21164229D02*
X91690481Y21211848D01*
X91690481Y21211848D02*
X91500005Y21211848D01*
X91500005Y21211848D02*
X91404767Y21164229D01*
X91833338Y20592800D02*
X91738100Y20545181D01*
X91738100Y20545181D02*
X91500005Y20545181D01*
X91500005Y20545181D02*
X91404767Y20592800D01*
X91404767Y20592800D02*
X91357148Y20688039D01*
X91357148Y20688039D02*
X91357148Y20783277D01*
X91357148Y20783277D02*
X91404767Y20878515D01*
X91404767Y20878515D02*
X91500005Y20926134D01*
X91500005Y20926134D02*
X91738100Y20926134D01*
X91738100Y20926134D02*
X91833338Y20973753D01*
X92309529Y20545181D02*
X92309529Y21211848D01*
X92309529Y21021372D02*
X92357148Y21116610D01*
X92357148Y21116610D02*
X92404767Y21164229D01*
X92404767Y21164229D02*
X92500005Y21211848D01*
X92500005Y21211848D02*
X92595243Y21211848D01*
X93357148Y20545181D02*
X93357148Y21545181D01*
X93357148Y20592800D02*
X93261910Y20545181D01*
X93261910Y20545181D02*
X93071434Y20545181D01*
X93071434Y20545181D02*
X92976196Y20592800D01*
X92976196Y20592800D02*
X92928577Y20640420D01*
X92928577Y20640420D02*
X92880958Y20735658D01*
X92880958Y20735658D02*
X92880958Y21021372D01*
X92880958Y21021372D02*
X92928577Y21116610D01*
X92928577Y21116610D02*
X92976196Y21164229D01*
X92976196Y21164229D02*
X93071434Y21211848D01*
X93071434Y21211848D02*
X93261910Y21211848D01*
X93261910Y21211848D02*
X93357148Y21164229D01*
X48952378Y18045181D02*
X48380950Y18045181D01*
X48666664Y18045181D02*
X48666664Y19045181D01*
X48666664Y19045181D02*
X48571426Y18902324D01*
X48571426Y18902324D02*
X48476188Y18807086D01*
X48476188Y18807086D02*
X48380950Y18759467D01*
X49333331Y18949943D02*
X49380950Y18997562D01*
X49380950Y18997562D02*
X49476188Y19045181D01*
X49476188Y19045181D02*
X49714283Y19045181D01*
X49714283Y19045181D02*
X49809521Y18997562D01*
X49809521Y18997562D02*
X49857140Y18949943D01*
X49857140Y18949943D02*
X49904759Y18854705D01*
X49904759Y18854705D02*
X49904759Y18759467D01*
X49904759Y18759467D02*
X49857140Y18616610D01*
X49857140Y18616610D02*
X49285712Y18045181D01*
X49285712Y18045181D02*
X49904759Y18045181D01*
X50190474Y19045181D02*
X50523807Y18045181D01*
X50523807Y18045181D02*
X50857140Y19045181D01*
X52142855Y19045181D02*
X52333331Y19045181D01*
X52333331Y19045181D02*
X52428569Y18997562D01*
X52428569Y18997562D02*
X52523807Y18902324D01*
X52523807Y18902324D02*
X52571426Y18711848D01*
X52571426Y18711848D02*
X52571426Y18378515D01*
X52571426Y18378515D02*
X52523807Y18188039D01*
X52523807Y18188039D02*
X52428569Y18092800D01*
X52428569Y18092800D02*
X52333331Y18045181D01*
X52333331Y18045181D02*
X52142855Y18045181D01*
X52142855Y18045181D02*
X52047617Y18092800D01*
X52047617Y18092800D02*
X51952379Y18188039D01*
X51952379Y18188039D02*
X51904760Y18378515D01*
X51904760Y18378515D02*
X51904760Y18711848D01*
X51904760Y18711848D02*
X51952379Y18902324D01*
X51952379Y18902324D02*
X52047617Y18997562D01*
X52047617Y18997562D02*
X52142855Y19045181D01*
X52999998Y18045181D02*
X52999998Y19045181D01*
X52999998Y19045181D02*
X53571426Y18045181D01*
X53571426Y18045181D02*
X53571426Y19045181D01*
X54523807Y18045181D02*
X54047617Y18045181D01*
X54047617Y18045181D02*
X54047617Y19045181D01*
X55047617Y18521372D02*
X55047617Y18045181D01*
X54714284Y19045181D02*
X55047617Y18521372D01*
X55047617Y18521372D02*
X55380950Y19045181D01*
X56476189Y18426134D02*
X57238094Y18426134D01*
X58904760Y18092800D02*
X58809522Y18045181D01*
X58809522Y18045181D02*
X58619046Y18045181D01*
X58619046Y18045181D02*
X58523808Y18092800D01*
X58523808Y18092800D02*
X58476189Y18140420D01*
X58476189Y18140420D02*
X58428570Y18235658D01*
X58428570Y18235658D02*
X58428570Y18521372D01*
X58428570Y18521372D02*
X58476189Y18616610D01*
X58476189Y18616610D02*
X58523808Y18664229D01*
X58523808Y18664229D02*
X58619046Y18711848D01*
X58619046Y18711848D02*
X58809522Y18711848D01*
X58809522Y18711848D02*
X58904760Y18664229D01*
X59333332Y18045181D02*
X59333332Y19045181D01*
X59761903Y18045181D02*
X59761903Y18568991D01*
X59761903Y18568991D02*
X59714284Y18664229D01*
X59714284Y18664229D02*
X59619046Y18711848D01*
X59619046Y18711848D02*
X59476189Y18711848D01*
X59476189Y18711848D02*
X59380951Y18664229D01*
X59380951Y18664229D02*
X59333332Y18616610D01*
X60619046Y18092800D02*
X60523808Y18045181D01*
X60523808Y18045181D02*
X60333332Y18045181D01*
X60333332Y18045181D02*
X60238094Y18092800D01*
X60238094Y18092800D02*
X60190475Y18188039D01*
X60190475Y18188039D02*
X60190475Y18568991D01*
X60190475Y18568991D02*
X60238094Y18664229D01*
X60238094Y18664229D02*
X60333332Y18711848D01*
X60333332Y18711848D02*
X60523808Y18711848D01*
X60523808Y18711848D02*
X60619046Y18664229D01*
X60619046Y18664229D02*
X60666665Y18568991D01*
X60666665Y18568991D02*
X60666665Y18473753D01*
X60666665Y18473753D02*
X60190475Y18378515D01*
X61523808Y18092800D02*
X61428570Y18045181D01*
X61428570Y18045181D02*
X61238094Y18045181D01*
X61238094Y18045181D02*
X61142856Y18092800D01*
X61142856Y18092800D02*
X61095237Y18140420D01*
X61095237Y18140420D02*
X61047618Y18235658D01*
X61047618Y18235658D02*
X61047618Y18521372D01*
X61047618Y18521372D02*
X61095237Y18616610D01*
X61095237Y18616610D02*
X61142856Y18664229D01*
X61142856Y18664229D02*
X61238094Y18711848D01*
X61238094Y18711848D02*
X61428570Y18711848D01*
X61428570Y18711848D02*
X61523808Y18664229D01*
X61952380Y18045181D02*
X61952380Y19045181D01*
X62047618Y18426134D02*
X62333332Y18045181D01*
X62333332Y18711848D02*
X61952380Y18330896D01*
X63523809Y18711848D02*
X63523809Y17711848D01*
X63523809Y18664229D02*
X63619047Y18711848D01*
X63619047Y18711848D02*
X63809523Y18711848D01*
X63809523Y18711848D02*
X63904761Y18664229D01*
X63904761Y18664229D02*
X63952380Y18616610D01*
X63952380Y18616610D02*
X63999999Y18521372D01*
X63999999Y18521372D02*
X63999999Y18235658D01*
X63999999Y18235658D02*
X63952380Y18140420D01*
X63952380Y18140420D02*
X63904761Y18092800D01*
X63904761Y18092800D02*
X63809523Y18045181D01*
X63809523Y18045181D02*
X63619047Y18045181D01*
X63619047Y18045181D02*
X63523809Y18092800D01*
X64571428Y18045181D02*
X64476190Y18092800D01*
X64476190Y18092800D02*
X64428571Y18140420D01*
X64428571Y18140420D02*
X64380952Y18235658D01*
X64380952Y18235658D02*
X64380952Y18521372D01*
X64380952Y18521372D02*
X64428571Y18616610D01*
X64428571Y18616610D02*
X64476190Y18664229D01*
X64476190Y18664229D02*
X64571428Y18711848D01*
X64571428Y18711848D02*
X64714285Y18711848D01*
X64714285Y18711848D02*
X64809523Y18664229D01*
X64809523Y18664229D02*
X64857142Y18616610D01*
X64857142Y18616610D02*
X64904761Y18521372D01*
X64904761Y18521372D02*
X64904761Y18235658D01*
X64904761Y18235658D02*
X64857142Y18140420D01*
X64857142Y18140420D02*
X64809523Y18092800D01*
X64809523Y18092800D02*
X64714285Y18045181D01*
X64714285Y18045181D02*
X64571428Y18045181D01*
X65476190Y18045181D02*
X65380952Y18092800D01*
X65380952Y18092800D02*
X65333333Y18188039D01*
X65333333Y18188039D02*
X65333333Y19045181D01*
X66285714Y18045181D02*
X66285714Y18568991D01*
X66285714Y18568991D02*
X66238095Y18664229D01*
X66238095Y18664229D02*
X66142857Y18711848D01*
X66142857Y18711848D02*
X65952381Y18711848D01*
X65952381Y18711848D02*
X65857143Y18664229D01*
X66285714Y18092800D02*
X66190476Y18045181D01*
X66190476Y18045181D02*
X65952381Y18045181D01*
X65952381Y18045181D02*
X65857143Y18092800D01*
X65857143Y18092800D02*
X65809524Y18188039D01*
X65809524Y18188039D02*
X65809524Y18283277D01*
X65809524Y18283277D02*
X65857143Y18378515D01*
X65857143Y18378515D02*
X65952381Y18426134D01*
X65952381Y18426134D02*
X66190476Y18426134D01*
X66190476Y18426134D02*
X66285714Y18473753D01*
X66761905Y18045181D02*
X66761905Y18711848D01*
X66761905Y18521372D02*
X66809524Y18616610D01*
X66809524Y18616610D02*
X66857143Y18664229D01*
X66857143Y18664229D02*
X66952381Y18711848D01*
X66952381Y18711848D02*
X67047619Y18711848D01*
X67380953Y18045181D02*
X67380953Y18711848D01*
X67380953Y19045181D02*
X67333334Y18997562D01*
X67333334Y18997562D02*
X67380953Y18949943D01*
X67380953Y18949943D02*
X67428572Y18997562D01*
X67428572Y18997562D02*
X67380953Y19045181D01*
X67380953Y19045181D02*
X67380953Y18949943D01*
X67714286Y18711848D02*
X68095238Y18711848D01*
X67857143Y19045181D02*
X67857143Y18188039D01*
X67857143Y18188039D02*
X67904762Y18092800D01*
X67904762Y18092800D02*
X68000000Y18045181D01*
X68000000Y18045181D02*
X68095238Y18045181D01*
X68333334Y18711848D02*
X68571429Y18045181D01*
X68809524Y18711848D02*
X68571429Y18045181D01*
X68571429Y18045181D02*
X68476191Y17807086D01*
X68476191Y17807086D02*
X68428572Y17759467D01*
X68428572Y17759467D02*
X68333334Y17711848D01*
X69952382Y18045181D02*
X69952382Y19045181D01*
X69952382Y18664229D02*
X70047620Y18711848D01*
X70047620Y18711848D02*
X70238096Y18711848D01*
X70238096Y18711848D02*
X70333334Y18664229D01*
X70333334Y18664229D02*
X70380953Y18616610D01*
X70380953Y18616610D02*
X70428572Y18521372D01*
X70428572Y18521372D02*
X70428572Y18235658D01*
X70428572Y18235658D02*
X70380953Y18140420D01*
X70380953Y18140420D02*
X70333334Y18092800D01*
X70333334Y18092800D02*
X70238096Y18045181D01*
X70238096Y18045181D02*
X70047620Y18045181D01*
X70047620Y18045181D02*
X69952382Y18092800D01*
X71238096Y18092800D02*
X71142858Y18045181D01*
X71142858Y18045181D02*
X70952382Y18045181D01*
X70952382Y18045181D02*
X70857144Y18092800D01*
X70857144Y18092800D02*
X70809525Y18188039D01*
X70809525Y18188039D02*
X70809525Y18568991D01*
X70809525Y18568991D02*
X70857144Y18664229D01*
X70857144Y18664229D02*
X70952382Y18711848D01*
X70952382Y18711848D02*
X71142858Y18711848D01*
X71142858Y18711848D02*
X71238096Y18664229D01*
X71238096Y18664229D02*
X71285715Y18568991D01*
X71285715Y18568991D02*
X71285715Y18473753D01*
X71285715Y18473753D02*
X70809525Y18378515D01*
X71571430Y18711848D02*
X71952382Y18711848D01*
X71714287Y18045181D02*
X71714287Y18902324D01*
X71714287Y18902324D02*
X71761906Y18997562D01*
X71761906Y18997562D02*
X71857144Y19045181D01*
X71857144Y19045181D02*
X71952382Y19045181D01*
X72428573Y18045181D02*
X72333335Y18092800D01*
X72333335Y18092800D02*
X72285716Y18140420D01*
X72285716Y18140420D02*
X72238097Y18235658D01*
X72238097Y18235658D02*
X72238097Y18521372D01*
X72238097Y18521372D02*
X72285716Y18616610D01*
X72285716Y18616610D02*
X72333335Y18664229D01*
X72333335Y18664229D02*
X72428573Y18711848D01*
X72428573Y18711848D02*
X72571430Y18711848D01*
X72571430Y18711848D02*
X72666668Y18664229D01*
X72666668Y18664229D02*
X72714287Y18616610D01*
X72714287Y18616610D02*
X72761906Y18521372D01*
X72761906Y18521372D02*
X72761906Y18235658D01*
X72761906Y18235658D02*
X72714287Y18140420D01*
X72714287Y18140420D02*
X72666668Y18092800D01*
X72666668Y18092800D02*
X72571430Y18045181D01*
X72571430Y18045181D02*
X72428573Y18045181D01*
X73190478Y18045181D02*
X73190478Y18711848D01*
X73190478Y18521372D02*
X73238097Y18616610D01*
X73238097Y18616610D02*
X73285716Y18664229D01*
X73285716Y18664229D02*
X73380954Y18711848D01*
X73380954Y18711848D02*
X73476192Y18711848D01*
X74190478Y18092800D02*
X74095240Y18045181D01*
X74095240Y18045181D02*
X73904764Y18045181D01*
X73904764Y18045181D02*
X73809526Y18092800D01*
X73809526Y18092800D02*
X73761907Y18188039D01*
X73761907Y18188039D02*
X73761907Y18568991D01*
X73761907Y18568991D02*
X73809526Y18664229D01*
X73809526Y18664229D02*
X73904764Y18711848D01*
X73904764Y18711848D02*
X74095240Y18711848D01*
X74095240Y18711848D02*
X74190478Y18664229D01*
X74190478Y18664229D02*
X74238097Y18568991D01*
X74238097Y18568991D02*
X74238097Y18473753D01*
X74238097Y18473753D02*
X73761907Y18378515D01*
X75428574Y18711848D02*
X75428574Y17711848D01*
X75428574Y18664229D02*
X75523812Y18711848D01*
X75523812Y18711848D02*
X75714288Y18711848D01*
X75714288Y18711848D02*
X75809526Y18664229D01*
X75809526Y18664229D02*
X75857145Y18616610D01*
X75857145Y18616610D02*
X75904764Y18521372D01*
X75904764Y18521372D02*
X75904764Y18235658D01*
X75904764Y18235658D02*
X75857145Y18140420D01*
X75857145Y18140420D02*
X75809526Y18092800D01*
X75809526Y18092800D02*
X75714288Y18045181D01*
X75714288Y18045181D02*
X75523812Y18045181D01*
X75523812Y18045181D02*
X75428574Y18092800D01*
X76476193Y18045181D02*
X76380955Y18092800D01*
X76380955Y18092800D02*
X76333336Y18140420D01*
X76333336Y18140420D02*
X76285717Y18235658D01*
X76285717Y18235658D02*
X76285717Y18521372D01*
X76285717Y18521372D02*
X76333336Y18616610D01*
X76333336Y18616610D02*
X76380955Y18664229D01*
X76380955Y18664229D02*
X76476193Y18711848D01*
X76476193Y18711848D02*
X76619050Y18711848D01*
X76619050Y18711848D02*
X76714288Y18664229D01*
X76714288Y18664229D02*
X76761907Y18616610D01*
X76761907Y18616610D02*
X76809526Y18521372D01*
X76809526Y18521372D02*
X76809526Y18235658D01*
X76809526Y18235658D02*
X76761907Y18140420D01*
X76761907Y18140420D02*
X76714288Y18092800D01*
X76714288Y18092800D02*
X76619050Y18045181D01*
X76619050Y18045181D02*
X76476193Y18045181D01*
X77142860Y18711848D02*
X77333336Y18045181D01*
X77333336Y18045181D02*
X77523812Y18521372D01*
X77523812Y18521372D02*
X77714288Y18045181D01*
X77714288Y18045181D02*
X77904764Y18711848D01*
X78666669Y18092800D02*
X78571431Y18045181D01*
X78571431Y18045181D02*
X78380955Y18045181D01*
X78380955Y18045181D02*
X78285717Y18092800D01*
X78285717Y18092800D02*
X78238098Y18188039D01*
X78238098Y18188039D02*
X78238098Y18568991D01*
X78238098Y18568991D02*
X78285717Y18664229D01*
X78285717Y18664229D02*
X78380955Y18711848D01*
X78380955Y18711848D02*
X78571431Y18711848D01*
X78571431Y18711848D02*
X78666669Y18664229D01*
X78666669Y18664229D02*
X78714288Y18568991D01*
X78714288Y18568991D02*
X78714288Y18473753D01*
X78714288Y18473753D02*
X78238098Y18378515D01*
X79142860Y18045181D02*
X79142860Y18711848D01*
X79142860Y18521372D02*
X79190479Y18616610D01*
X79190479Y18616610D02*
X79238098Y18664229D01*
X79238098Y18664229D02*
X79333336Y18711848D01*
X79333336Y18711848D02*
X79428574Y18711848D01*
X79761908Y18045181D02*
X79761908Y18711848D01*
X79761908Y19045181D02*
X79714289Y18997562D01*
X79714289Y18997562D02*
X79761908Y18949943D01*
X79761908Y18949943D02*
X79809527Y18997562D01*
X79809527Y18997562D02*
X79761908Y19045181D01*
X79761908Y19045181D02*
X79761908Y18949943D01*
X80238098Y18711848D02*
X80238098Y18045181D01*
X80238098Y18616610D02*
X80285717Y18664229D01*
X80285717Y18664229D02*
X80380955Y18711848D01*
X80380955Y18711848D02*
X80523812Y18711848D01*
X80523812Y18711848D02*
X80619050Y18664229D01*
X80619050Y18664229D02*
X80666669Y18568991D01*
X80666669Y18568991D02*
X80666669Y18045181D01*
X81571431Y18711848D02*
X81571431Y17902324D01*
X81571431Y17902324D02*
X81523812Y17807086D01*
X81523812Y17807086D02*
X81476193Y17759467D01*
X81476193Y17759467D02*
X81380955Y17711848D01*
X81380955Y17711848D02*
X81238098Y17711848D01*
X81238098Y17711848D02*
X81142860Y17759467D01*
X81571431Y18092800D02*
X81476193Y18045181D01*
X81476193Y18045181D02*
X81285717Y18045181D01*
X81285717Y18045181D02*
X81190479Y18092800D01*
X81190479Y18092800D02*
X81142860Y18140420D01*
X81142860Y18140420D02*
X81095241Y18235658D01*
X81095241Y18235658D02*
X81095241Y18521372D01*
X81095241Y18521372D02*
X81142860Y18616610D01*
X81142860Y18616610D02*
X81190479Y18664229D01*
X81190479Y18664229D02*
X81285717Y18711848D01*
X81285717Y18711848D02*
X81476193Y18711848D01*
X81476193Y18711848D02*
X81571431Y18664229D01*
D11*
X9542857Y90011360D02*
X10457143Y90011360D01*
X10000000Y89554218D02*
X10000000Y90468503D01*
X9542857Y9511360D02*
X10457143Y9511360D01*
X10000000Y9054218D02*
X10000000Y9968503D01*
X14685714Y89554218D02*
X14685714Y90754218D01*
X14685714Y90754218D02*
X14971428Y90754218D01*
X14971428Y90754218D02*
X15142857Y90697075D01*
X15142857Y90697075D02*
X15257142Y90582789D01*
X15257142Y90582789D02*
X15314285Y90468503D01*
X15314285Y90468503D02*
X15371428Y90239932D01*
X15371428Y90239932D02*
X15371428Y90068503D01*
X15371428Y90068503D02*
X15314285Y89839932D01*
X15314285Y89839932D02*
X15257142Y89725646D01*
X15257142Y89725646D02*
X15142857Y89611360D01*
X15142857Y89611360D02*
X14971428Y89554218D01*
X14971428Y89554218D02*
X14685714Y89554218D01*
X14685714Y9054218D02*
X14685714Y10254218D01*
X14685714Y10254218D02*
X14971428Y10254218D01*
X14971428Y10254218D02*
X15142857Y10197075D01*
X15142857Y10197075D02*
X15257142Y10082789D01*
X15257142Y10082789D02*
X15314285Y9968503D01*
X15314285Y9968503D02*
X15371428Y9739932D01*
X15371428Y9739932D02*
X15371428Y9568503D01*
X15371428Y9568503D02*
X15314285Y9339932D01*
X15314285Y9339932D02*
X15257142Y9225646D01*
X15257142Y9225646D02*
X15142857Y9111360D01*
X15142857Y9111360D02*
X14971428Y9054218D01*
X14971428Y9054218D02*
X14685714Y9054218D01*
X19542857Y90011360D02*
X20457143Y90011360D01*
X19542857Y9511360D02*
X20457143Y9511360D01*
X29542857Y90011360D02*
X30457143Y90011360D01*
X30000000Y89554218D02*
X30000000Y90468503D01*
X29542857Y9511360D02*
X30457143Y9511360D01*
X30000000Y9054218D02*
X30000000Y9968503D01*
X34685714Y89554218D02*
X34685714Y90754218D01*
X34685714Y90754218D02*
X34971428Y90754218D01*
X34971428Y90754218D02*
X35142857Y90697075D01*
X35142857Y90697075D02*
X35257142Y90582789D01*
X35257142Y90582789D02*
X35314285Y90468503D01*
X35314285Y90468503D02*
X35371428Y90239932D01*
X35371428Y90239932D02*
X35371428Y90068503D01*
X35371428Y90068503D02*
X35314285Y89839932D01*
X35314285Y89839932D02*
X35257142Y89725646D01*
X35257142Y89725646D02*
X35142857Y89611360D01*
X35142857Y89611360D02*
X34971428Y89554218D01*
X34971428Y89554218D02*
X34685714Y89554218D01*
X34685714Y9054218D02*
X34685714Y10254218D01*
X34685714Y10254218D02*
X34971428Y10254218D01*
X34971428Y10254218D02*
X35142857Y10197075D01*
X35142857Y10197075D02*
X35257142Y10082789D01*
X35257142Y10082789D02*
X35314285Y9968503D01*
X35314285Y9968503D02*
X35371428Y9739932D01*
X35371428Y9739932D02*
X35371428Y9568503D01*
X35371428Y9568503D02*
X35314285Y9339932D01*
X35314285Y9339932D02*
X35257142Y9225646D01*
X35257142Y9225646D02*
X35142857Y9111360D01*
X35142857Y9111360D02*
X34971428Y9054218D01*
X34971428Y9054218D02*
X34685714Y9054218D01*
X39542857Y90011360D02*
X40457143Y90011360D01*
X39542857Y9511360D02*
X40457143Y9511360D01*
X49542857Y90011360D02*
X50457143Y90011360D01*
X50000000Y89554218D02*
X50000000Y90468503D01*
X49542857Y9511360D02*
X50457143Y9511360D01*
X50000000Y9054218D02*
X50000000Y9968503D01*
X54685714Y89554218D02*
X54685714Y90754218D01*
X54685714Y90754218D02*
X54971428Y90754218D01*
X54971428Y90754218D02*
X55142857Y90697075D01*
X55142857Y90697075D02*
X55257142Y90582789D01*
X55257142Y90582789D02*
X55314285Y90468503D01*
X55314285Y90468503D02*
X55371428Y90239932D01*
X55371428Y90239932D02*
X55371428Y90068503D01*
X55371428Y90068503D02*
X55314285Y89839932D01*
X55314285Y89839932D02*
X55257142Y89725646D01*
X55257142Y89725646D02*
X55142857Y89611360D01*
X55142857Y89611360D02*
X54971428Y89554218D01*
X54971428Y89554218D02*
X54685714Y89554218D01*
X54685714Y9054218D02*
X54685714Y10254218D01*
X54685714Y10254218D02*
X54971428Y10254218D01*
X54971428Y10254218D02*
X55142857Y10197075D01*
X55142857Y10197075D02*
X55257142Y10082789D01*
X55257142Y10082789D02*
X55314285Y9968503D01*
X55314285Y9968503D02*
X55371428Y9739932D01*
X55371428Y9739932D02*
X55371428Y9568503D01*
X55371428Y9568503D02*
X55314285Y9339932D01*
X55314285Y9339932D02*
X55257142Y9225646D01*
X55257142Y9225646D02*
X55142857Y9111360D01*
X55142857Y9111360D02*
X54971428Y9054218D01*
X54971428Y9054218D02*
X54685714Y9054218D01*
X59542857Y90011360D02*
X60457143Y90011360D01*
X59542857Y9511360D02*
X60457143Y9511360D01*
X69542857Y90011360D02*
X70457143Y90011360D01*
X70000000Y89554218D02*
X70000000Y90468503D01*
X69542857Y9511360D02*
X70457143Y9511360D01*
X70000000Y9054218D02*
X70000000Y9968503D01*
X74685714Y89554218D02*
X74685714Y90754218D01*
X74685714Y90754218D02*
X74971428Y90754218D01*
X74971428Y90754218D02*
X75142857Y90697075D01*
X75142857Y90697075D02*
X75257142Y90582789D01*
X75257142Y90582789D02*
X75314285Y90468503D01*
X75314285Y90468503D02*
X75371428Y90239932D01*
X75371428Y90239932D02*
X75371428Y90068503D01*
X75371428Y90068503D02*
X75314285Y89839932D01*
X75314285Y89839932D02*
X75257142Y89725646D01*
X75257142Y89725646D02*
X75142857Y89611360D01*
X75142857Y89611360D02*
X74971428Y89554218D01*
X74971428Y89554218D02*
X74685714Y89554218D01*
X74685714Y9054218D02*
X74685714Y10254218D01*
X74685714Y10254218D02*
X74971428Y10254218D01*
X74971428Y10254218D02*
X75142857Y10197075D01*
X75142857Y10197075D02*
X75257142Y10082789D01*
X75257142Y10082789D02*
X75314285Y9968503D01*
X75314285Y9968503D02*
X75371428Y9739932D01*
X75371428Y9739932D02*
X75371428Y9568503D01*
X75371428Y9568503D02*
X75314285Y9339932D01*
X75314285Y9339932D02*
X75257142Y9225646D01*
X75257142Y9225646D02*
X75142857Y9111360D01*
X75142857Y9111360D02*
X74971428Y9054218D01*
X74971428Y9054218D02*
X74685714Y9054218D01*
X79542857Y90011360D02*
X80457143Y90011360D01*
X79542857Y9511360D02*
X80457143Y9511360D01*
X89542857Y90011360D02*
X90457143Y90011360D01*
X90000000Y89554218D02*
X90000000Y90468503D01*
X89542857Y9511360D02*
X90457143Y9511360D01*
X90000000Y9054218D02*
X90000000Y9968503D01*
X94685714Y89554218D02*
X94685714Y90754218D01*
X94685714Y90754218D02*
X94971428Y90754218D01*
X94971428Y90754218D02*
X95142857Y90697075D01*
X95142857Y90697075D02*
X95257142Y90582789D01*
X95257142Y90582789D02*
X95314285Y90468503D01*
X95314285Y90468503D02*
X95371428Y90239932D01*
X95371428Y90239932D02*
X95371428Y90068503D01*
X95371428Y90068503D02*
X95314285Y89839932D01*
X95314285Y89839932D02*
X95257142Y89725646D01*
X95257142Y89725646D02*
X95142857Y89611360D01*
X95142857Y89611360D02*
X94971428Y89554218D01*
X94971428Y89554218D02*
X94685714Y89554218D01*
X82085713Y55954218D02*
X82085713Y57154218D01*
X82085713Y57154218D02*
X82485713Y56297075D01*
X82485713Y56297075D02*
X82885713Y57154218D01*
X82885713Y57154218D02*
X82885713Y55954218D01*
X83399999Y56297075D02*
X83971428Y56297075D01*
X83285713Y55954218D02*
X83685713Y57154218D01*
X83685713Y57154218D02*
X84085713Y55954218D01*
X84485713Y55954218D02*
X84485713Y57154218D01*
X85057142Y55954218D02*
X85057142Y57154218D01*
X85057142Y57154218D02*
X85742856Y55954218D01*
X85742856Y55954218D02*
X85742856Y57154218D01*
X87628571Y56582789D02*
X87228571Y56582789D01*
X87228571Y55954218D02*
X87228571Y57154218D01*
X87228571Y57154218D02*
X87799999Y57154218D01*
X88257142Y57154218D02*
X88257142Y56182789D01*
X88257142Y56182789D02*
X88314285Y56068503D01*
X88314285Y56068503D02*
X88371428Y56011360D01*
X88371428Y56011360D02*
X88485713Y55954218D01*
X88485713Y55954218D02*
X88714285Y55954218D01*
X88714285Y55954218D02*
X88828570Y56011360D01*
X88828570Y56011360D02*
X88885713Y56068503D01*
X88885713Y56068503D02*
X88942856Y56182789D01*
X88942856Y56182789D02*
X88942856Y57154218D01*
X89457142Y56011360D02*
X89628571Y55954218D01*
X89628571Y55954218D02*
X89914285Y55954218D01*
X89914285Y55954218D02*
X90028571Y56011360D01*
X90028571Y56011360D02*
X90085713Y56068503D01*
X90085713Y56068503D02*
X90142856Y56182789D01*
X90142856Y56182789D02*
X90142856Y56297075D01*
X90142856Y56297075D02*
X90085713Y56411360D01*
X90085713Y56411360D02*
X90028571Y56468503D01*
X90028571Y56468503D02*
X89914285Y56525646D01*
X89914285Y56525646D02*
X89685713Y56582789D01*
X89685713Y56582789D02*
X89571428Y56639932D01*
X89571428Y56639932D02*
X89514285Y56697075D01*
X89514285Y56697075D02*
X89457142Y56811360D01*
X89457142Y56811360D02*
X89457142Y56925646D01*
X89457142Y56925646D02*
X89514285Y57039932D01*
X89514285Y57039932D02*
X89571428Y57097075D01*
X89571428Y57097075D02*
X89685713Y57154218D01*
X89685713Y57154218D02*
X89971428Y57154218D01*
X89971428Y57154218D02*
X90142856Y57097075D01*
X90657142Y56582789D02*
X91057142Y56582789D01*
X91228570Y55954218D02*
X90657142Y55954218D01*
X90657142Y55954218D02*
X90657142Y57154218D01*
X90657142Y57154218D02*
X91228570Y57154218D01*
X93571428Y55954218D02*
X93571428Y57154218D01*
X93571428Y57154218D02*
X93971428Y56297075D01*
X93971428Y56297075D02*
X94371428Y57154218D01*
X94371428Y57154218D02*
X94371428Y55954218D01*
X94942857Y55954218D02*
X94942857Y57154218D01*
X95514286Y55954218D02*
X95514286Y57154218D01*
X95514286Y57154218D02*
X95800000Y57154218D01*
X95800000Y57154218D02*
X95971429Y57097075D01*
X95971429Y57097075D02*
X96085714Y56982789D01*
X96085714Y56982789D02*
X96142857Y56868503D01*
X96142857Y56868503D02*
X96200000Y56639932D01*
X96200000Y56639932D02*
X96200000Y56468503D01*
X96200000Y56468503D02*
X96142857Y56239932D01*
X96142857Y56239932D02*
X96085714Y56125646D01*
X96085714Y56125646D02*
X95971429Y56011360D01*
X95971429Y56011360D02*
X95800000Y55954218D01*
X95800000Y55954218D02*
X95514286Y55954218D01*
X96714286Y55954218D02*
X96714286Y57154218D01*
X99057144Y57211360D02*
X98028572Y55668503D01*
X100314287Y56297075D02*
X100885716Y56297075D01*
X100200001Y55954218D02*
X100600001Y57154218D01*
X100600001Y57154218D02*
X101000001Y55954218D01*
X101400001Y55954218D02*
X101400001Y57154218D01*
X101400001Y57154218D02*
X101800001Y56297075D01*
X101800001Y56297075D02*
X102200001Y57154218D01*
X102200001Y57154218D02*
X102200001Y55954218D01*
X102771430Y55954218D02*
X102771430Y57154218D01*
X105057145Y57154218D02*
X105800002Y57154218D01*
X105800002Y57154218D02*
X105400002Y56697075D01*
X105400002Y56697075D02*
X105571431Y56697075D01*
X105571431Y56697075D02*
X105685717Y56639932D01*
X105685717Y56639932D02*
X105742859Y56582789D01*
X105742859Y56582789D02*
X105800002Y56468503D01*
X105800002Y56468503D02*
X105800002Y56182789D01*
X105800002Y56182789D02*
X105742859Y56068503D01*
X105742859Y56068503D02*
X105685717Y56011360D01*
X105685717Y56011360D02*
X105571431Y55954218D01*
X105571431Y55954218D02*
X105228574Y55954218D01*
X105228574Y55954218D02*
X105114288Y56011360D01*
X105114288Y56011360D02*
X105057145Y56068503D01*
X106542859Y57154218D02*
X106657145Y57154218D01*
X106657145Y57154218D02*
X106771431Y57097075D01*
X106771431Y57097075D02*
X106828574Y57039932D01*
X106828574Y57039932D02*
X106885716Y56925646D01*
X106885716Y56925646D02*
X106942859Y56697075D01*
X106942859Y56697075D02*
X106942859Y56411360D01*
X106942859Y56411360D02*
X106885716Y56182789D01*
X106885716Y56182789D02*
X106828574Y56068503D01*
X106828574Y56068503D02*
X106771431Y56011360D01*
X106771431Y56011360D02*
X106657145Y55954218D01*
X106657145Y55954218D02*
X106542859Y55954218D01*
X106542859Y55954218D02*
X106428574Y56011360D01*
X106428574Y56011360D02*
X106371431Y56068503D01*
X106371431Y56068503D02*
X106314288Y56182789D01*
X106314288Y56182789D02*
X106257145Y56411360D01*
X106257145Y56411360D02*
X106257145Y56697075D01*
X106257145Y56697075D02*
X106314288Y56925646D01*
X106314288Y56925646D02*
X106371431Y57039932D01*
X106371431Y57039932D02*
X106428574Y57097075D01*
X106428574Y57097075D02*
X106542859Y57154218D01*
X107400002Y56297075D02*
X107971431Y56297075D01*
X107285716Y55954218D02*
X107685716Y57154218D01*
X107685716Y57154218D02*
X108085716Y55954218D01*
X94685714Y9054218D02*
X94685714Y10254218D01*
X94685714Y10254218D02*
X94971428Y10254218D01*
X94971428Y10254218D02*
X95142857Y10197075D01*
X95142857Y10197075D02*
X95257142Y10082789D01*
X95257142Y10082789D02*
X95314285Y9968503D01*
X95314285Y9968503D02*
X95371428Y9739932D01*
X95371428Y9739932D02*
X95371428Y9568503D01*
X95371428Y9568503D02*
X95314285Y9339932D01*
X95314285Y9339932D02*
X95257142Y9225646D01*
X95257142Y9225646D02*
X95142857Y9111360D01*
X95142857Y9111360D02*
X94971428Y9054218D01*
X94971428Y9054218D02*
X94685714Y9054218D01*
X99542857Y90011360D02*
X100457143Y90011360D01*
X99542857Y9511360D02*
X100457143Y9511360D01*
X109542857Y90011360D02*
X110457143Y90011360D01*
X110000000Y89554218D02*
X110000000Y90468503D01*
X109542857Y9511360D02*
X110457143Y9511360D01*
X110000000Y9054218D02*
X110000000Y9968503D01*
X114685714Y89554218D02*
X114685714Y90754218D01*
X114685714Y90754218D02*
X114971428Y90754218D01*
X114971428Y90754218D02*
X115142857Y90697075D01*
X115142857Y90697075D02*
X115257142Y90582789D01*
X115257142Y90582789D02*
X115314285Y90468503D01*
X115314285Y90468503D02*
X115371428Y90239932D01*
X115371428Y90239932D02*
X115371428Y90068503D01*
X115371428Y90068503D02*
X115314285Y89839932D01*
X115314285Y89839932D02*
X115257142Y89725646D01*
X115257142Y89725646D02*
X115142857Y89611360D01*
X115142857Y89611360D02*
X114971428Y89554218D01*
X114971428Y89554218D02*
X114685714Y89554218D01*
X114685714Y9054218D02*
X114685714Y10254218D01*
X114685714Y10254218D02*
X114971428Y10254218D01*
X114971428Y10254218D02*
X115142857Y10197075D01*
X115142857Y10197075D02*
X115257142Y10082789D01*
X115257142Y10082789D02*
X115314285Y9968503D01*
X115314285Y9968503D02*
X115371428Y9739932D01*
X115371428Y9739932D02*
X115371428Y9568503D01*
X115371428Y9568503D02*
X115314285Y9339932D01*
X115314285Y9339932D02*
X115257142Y9225646D01*
X115257142Y9225646D02*
X115142857Y9111360D01*
X115142857Y9111360D02*
X114971428Y9054218D01*
X114971428Y9054218D02*
X114685714Y9054218D01*
X119542857Y90011360D02*
X120457143Y90011360D01*
X119542857Y9511360D02*
X120457143Y9511360D01*
X120285715Y59911360D02*
X121200001Y59911360D01*
X120742858Y59454218D02*
X120742858Y60368503D01*
X122400000Y59454218D02*
X121714286Y59454218D01*
X122057143Y59454218D02*
X122057143Y60654218D01*
X122057143Y60654218D02*
X121942857Y60482789D01*
X121942857Y60482789D02*
X121828572Y60368503D01*
X121828572Y60368503D02*
X121714286Y60311360D01*
X122857143Y60539932D02*
X122914286Y60597075D01*
X122914286Y60597075D02*
X123028572Y60654218D01*
X123028572Y60654218D02*
X123314286Y60654218D01*
X123314286Y60654218D02*
X123428572Y60597075D01*
X123428572Y60597075D02*
X123485714Y60539932D01*
X123485714Y60539932D02*
X123542857Y60425646D01*
X123542857Y60425646D02*
X123542857Y60311360D01*
X123542857Y60311360D02*
X123485714Y60139932D01*
X123485714Y60139932D02*
X122800000Y59454218D01*
X122800000Y59454218D02*
X123542857Y59454218D01*
X123885714Y60654218D02*
X124285714Y59454218D01*
X124285714Y59454218D02*
X124685714Y60654218D01*
X121485714Y34097075D02*
X121371429Y34154218D01*
X121371429Y34154218D02*
X121200000Y34154218D01*
X121200000Y34154218D02*
X121028571Y34097075D01*
X121028571Y34097075D02*
X120914286Y33982789D01*
X120914286Y33982789D02*
X120857143Y33868503D01*
X120857143Y33868503D02*
X120800000Y33639932D01*
X120800000Y33639932D02*
X120800000Y33468503D01*
X120800000Y33468503D02*
X120857143Y33239932D01*
X120857143Y33239932D02*
X120914286Y33125646D01*
X120914286Y33125646D02*
X121028571Y33011360D01*
X121028571Y33011360D02*
X121200000Y32954218D01*
X121200000Y32954218D02*
X121314286Y32954218D01*
X121314286Y32954218D02*
X121485714Y33011360D01*
X121485714Y33011360D02*
X121542857Y33068503D01*
X121542857Y33068503D02*
X121542857Y33468503D01*
X121542857Y33468503D02*
X121314286Y33468503D01*
X122057143Y32954218D02*
X122057143Y34154218D01*
X122057143Y34154218D02*
X122742857Y32954218D01*
X122742857Y32954218D02*
X122742857Y34154218D01*
X123314286Y32954218D02*
X123314286Y34154218D01*
X123314286Y34154218D02*
X123600000Y34154218D01*
X123600000Y34154218D02*
X123771429Y34097075D01*
X123771429Y34097075D02*
X123885714Y33982789D01*
X123885714Y33982789D02*
X123942857Y33868503D01*
X123942857Y33868503D02*
X124000000Y33639932D01*
X124000000Y33639932D02*
X124000000Y33468503D01*
X124000000Y33468503D02*
X123942857Y33239932D01*
X123942857Y33239932D02*
X123885714Y33125646D01*
X123885714Y33125646D02*
X123771429Y33011360D01*
X123771429Y33011360D02*
X123600000Y32954218D01*
X123600000Y32954218D02*
X123314286Y32954218D01*
X120642857Y67954218D02*
X119957143Y67954218D01*
X120300000Y67954218D02*
X120300000Y69154218D01*
X120300000Y69154218D02*
X120185714Y68982789D01*
X120185714Y68982789D02*
X120071429Y68868503D01*
X120071429Y68868503D02*
X119957143Y68811360D01*
X121100000Y69039932D02*
X121157143Y69097075D01*
X121157143Y69097075D02*
X121271429Y69154218D01*
X121271429Y69154218D02*
X121557143Y69154218D01*
X121557143Y69154218D02*
X121671429Y69097075D01*
X121671429Y69097075D02*
X121728571Y69039932D01*
X121728571Y69039932D02*
X121785714Y68925646D01*
X121785714Y68925646D02*
X121785714Y68811360D01*
X121785714Y68811360D02*
X121728571Y68639932D01*
X121728571Y68639932D02*
X121042857Y67954218D01*
X121042857Y67954218D02*
X121785714Y67954218D01*
X122128571Y69154218D02*
X122528571Y67954218D01*
X122528571Y67954218D02*
X122928571Y69154218D01*
X124128571Y69154218D02*
X124871428Y69154218D01*
X124871428Y69154218D02*
X124471428Y68697075D01*
X124471428Y68697075D02*
X124642857Y68697075D01*
X124642857Y68697075D02*
X124757143Y68639932D01*
X124757143Y68639932D02*
X124814285Y68582789D01*
X124814285Y68582789D02*
X124871428Y68468503D01*
X124871428Y68468503D02*
X124871428Y68182789D01*
X124871428Y68182789D02*
X124814285Y68068503D01*
X124814285Y68068503D02*
X124757143Y68011360D01*
X124757143Y68011360D02*
X124642857Y67954218D01*
X124642857Y67954218D02*
X124300000Y67954218D01*
X124300000Y67954218D02*
X124185714Y68011360D01*
X124185714Y68011360D02*
X124128571Y68068503D01*
X125614285Y69154218D02*
X125728571Y69154218D01*
X125728571Y69154218D02*
X125842857Y69097075D01*
X125842857Y69097075D02*
X125900000Y69039932D01*
X125900000Y69039932D02*
X125957142Y68925646D01*
X125957142Y68925646D02*
X126014285Y68697075D01*
X126014285Y68697075D02*
X126014285Y68411360D01*
X126014285Y68411360D02*
X125957142Y68182789D01*
X125957142Y68182789D02*
X125900000Y68068503D01*
X125900000Y68068503D02*
X125842857Y68011360D01*
X125842857Y68011360D02*
X125728571Y67954218D01*
X125728571Y67954218D02*
X125614285Y67954218D01*
X125614285Y67954218D02*
X125500000Y68011360D01*
X125500000Y68011360D02*
X125442857Y68068503D01*
X125442857Y68068503D02*
X125385714Y68182789D01*
X125385714Y68182789D02*
X125328571Y68411360D01*
X125328571Y68411360D02*
X125328571Y68697075D01*
X125328571Y68697075D02*
X125385714Y68925646D01*
X125385714Y68925646D02*
X125442857Y69039932D01*
X125442857Y69039932D02*
X125500000Y69097075D01*
X125500000Y69097075D02*
X125614285Y69154218D01*
X126471428Y68297075D02*
X127042857Y68297075D01*
X126357142Y67954218D02*
X126757142Y69154218D01*
X126757142Y69154218D02*
X127157142Y67954218D01*
X121185714Y65454218D02*
X121185714Y66654218D01*
X121757143Y65454218D02*
X121757143Y66654218D01*
X121757143Y66654218D02*
X122442857Y65454218D01*
X122442857Y65454218D02*
X122442857Y66654218D01*
X123014286Y65454218D02*
X123014286Y66654218D01*
X123014286Y66654218D02*
X123471429Y66654218D01*
X123471429Y66654218D02*
X123585714Y66597075D01*
X123585714Y66597075D02*
X123642857Y66539932D01*
X123642857Y66539932D02*
X123700000Y66425646D01*
X123700000Y66425646D02*
X123700000Y66254218D01*
X123700000Y66254218D02*
X123642857Y66139932D01*
X123642857Y66139932D02*
X123585714Y66082789D01*
X123585714Y66082789D02*
X123471429Y66025646D01*
X123471429Y66025646D02*
X123014286Y66025646D01*
X124214286Y66654218D02*
X124214286Y65682789D01*
X124214286Y65682789D02*
X124271429Y65568503D01*
X124271429Y65568503D02*
X124328572Y65511360D01*
X124328572Y65511360D02*
X124442857Y65454218D01*
X124442857Y65454218D02*
X124671429Y65454218D01*
X124671429Y65454218D02*
X124785714Y65511360D01*
X124785714Y65511360D02*
X124842857Y65568503D01*
X124842857Y65568503D02*
X124900000Y65682789D01*
X124900000Y65682789D02*
X124900000Y66654218D01*
X125300000Y66654218D02*
X125985715Y66654218D01*
X125642857Y65454218D02*
X125642857Y66654218D01*
D12*
X9119047Y86708736D02*
X9119047Y88008736D01*
X9119047Y88008736D02*
X9614285Y88008736D01*
X9614285Y88008736D02*
X9738095Y87946831D01*
X9738095Y87946831D02*
X9800000Y87884926D01*
X9800000Y87884926D02*
X9861904Y87761117D01*
X9861904Y87761117D02*
X9861904Y87575402D01*
X9861904Y87575402D02*
X9800000Y87451593D01*
X9800000Y87451593D02*
X9738095Y87389688D01*
X9738095Y87389688D02*
X9614285Y87327783D01*
X9614285Y87327783D02*
X9119047Y87327783D01*
X11100000Y86708736D02*
X10357143Y86708736D01*
X10728571Y86708736D02*
X10728571Y88008736D01*
X10728571Y88008736D02*
X10604762Y87823021D01*
X10604762Y87823021D02*
X10480952Y87699212D01*
X10480952Y87699212D02*
X10357143Y87637307D01*
X12647618Y86708736D02*
X12647618Y88008736D01*
X12647618Y88008736D02*
X12957142Y88008736D01*
X12957142Y88008736D02*
X13142856Y87946831D01*
X13142856Y87946831D02*
X13266666Y87823021D01*
X13266666Y87823021D02*
X13328571Y87699212D01*
X13328571Y87699212D02*
X13390475Y87451593D01*
X13390475Y87451593D02*
X13390475Y87265879D01*
X13390475Y87265879D02*
X13328571Y87018260D01*
X13328571Y87018260D02*
X13266666Y86894450D01*
X13266666Y86894450D02*
X13142856Y86770640D01*
X13142856Y86770640D02*
X12957142Y86708736D01*
X12957142Y86708736D02*
X12647618Y86708736D01*
X13885714Y87080164D02*
X14504761Y87080164D01*
X13761904Y86708736D02*
X14195237Y88008736D01*
X14195237Y88008736D02*
X14628571Y86708736D01*
X14876190Y88008736D02*
X15619047Y88008736D01*
X15247619Y86708736D02*
X15247619Y88008736D01*
X15990476Y87080164D02*
X16609523Y87080164D01*
X15866666Y86708736D02*
X16299999Y88008736D01*
X16299999Y88008736D02*
X16733333Y86708736D01*
X19580952Y87389688D02*
X19147618Y87389688D01*
X19147618Y86708736D02*
X19147618Y88008736D01*
X19147618Y88008736D02*
X19766666Y88008736D01*
X20942857Y86708736D02*
X20200000Y86708736D01*
X20571428Y86708736D02*
X20571428Y88008736D01*
X20571428Y88008736D02*
X20447619Y87823021D01*
X20447619Y87823021D02*
X20323809Y87699212D01*
X20323809Y87699212D02*
X20200000Y87637307D01*
X8500000Y11408736D02*
X8500000Y12708736D01*
X8500000Y12708736D02*
X8995238Y12708736D01*
X8995238Y12708736D02*
X9119048Y12646831D01*
X9119048Y12646831D02*
X9180953Y12584926D01*
X9180953Y12584926D02*
X9242857Y12461117D01*
X9242857Y12461117D02*
X9242857Y12275402D01*
X9242857Y12275402D02*
X9180953Y12151593D01*
X9180953Y12151593D02*
X9119048Y12089688D01*
X9119048Y12089688D02*
X8995238Y12027783D01*
X8995238Y12027783D02*
X8500000Y12027783D01*
X10357143Y12275402D02*
X10357143Y11408736D01*
X10047619Y12770640D02*
X9738096Y11842069D01*
X9738096Y11842069D02*
X10542857Y11842069D01*
X12028571Y11408736D02*
X12028571Y12708736D01*
X12028571Y12708736D02*
X12338095Y12708736D01*
X12338095Y12708736D02*
X12523809Y12646831D01*
X12523809Y12646831D02*
X12647619Y12523021D01*
X12647619Y12523021D02*
X12709524Y12399212D01*
X12709524Y12399212D02*
X12771428Y12151593D01*
X12771428Y12151593D02*
X12771428Y11965879D01*
X12771428Y11965879D02*
X12709524Y11718260D01*
X12709524Y11718260D02*
X12647619Y11594450D01*
X12647619Y11594450D02*
X12523809Y11470640D01*
X12523809Y11470640D02*
X12338095Y11408736D01*
X12338095Y11408736D02*
X12028571Y11408736D01*
X13266667Y11780164D02*
X13885714Y11780164D01*
X13142857Y11408736D02*
X13576190Y12708736D01*
X13576190Y12708736D02*
X14009524Y11408736D01*
X14257143Y12708736D02*
X15000000Y12708736D01*
X14628572Y11408736D02*
X14628572Y12708736D01*
X15371429Y11780164D02*
X15990476Y11780164D01*
X15247619Y11408736D02*
X15680952Y12708736D01*
X15680952Y12708736D02*
X16114286Y11408736D01*
X18961905Y12089688D02*
X18528571Y12089688D01*
X18528571Y11408736D02*
X18528571Y12708736D01*
X18528571Y12708736D02*
X19147619Y12708736D01*
X20323810Y11408736D02*
X19580953Y11408736D01*
X19952381Y11408736D02*
X19952381Y12708736D01*
X19952381Y12708736D02*
X19828572Y12523021D01*
X19828572Y12523021D02*
X19704762Y12399212D01*
X19704762Y12399212D02*
X19580953Y12337307D01*
X21128571Y12708736D02*
X21252381Y12708736D01*
X21252381Y12708736D02*
X21376190Y12646831D01*
X21376190Y12646831D02*
X21438095Y12584926D01*
X21438095Y12584926D02*
X21500000Y12461117D01*
X21500000Y12461117D02*
X21561905Y12213498D01*
X21561905Y12213498D02*
X21561905Y11903974D01*
X21561905Y11903974D02*
X21500000Y11656355D01*
X21500000Y11656355D02*
X21438095Y11532545D01*
X21438095Y11532545D02*
X21376190Y11470640D01*
X21376190Y11470640D02*
X21252381Y11408736D01*
X21252381Y11408736D02*
X21128571Y11408736D01*
X21128571Y11408736D02*
X21004762Y11470640D01*
X21004762Y11470640D02*
X20942857Y11532545D01*
X20942857Y11532545D02*
X20880952Y11656355D01*
X20880952Y11656355D02*
X20819048Y11903974D01*
X20819048Y11903974D02*
X20819048Y12213498D01*
X20819048Y12213498D02*
X20880952Y12461117D01*
X20880952Y12461117D02*
X20942857Y12584926D01*
X20942857Y12584926D02*
X21004762Y12646831D01*
X21004762Y12646831D02*
X21128571Y12708736D01*
X28840476Y86708736D02*
X28840476Y88008736D01*
X28840476Y88008736D02*
X29335714Y88008736D01*
X29335714Y88008736D02*
X29459524Y87946831D01*
X29459524Y87946831D02*
X29521429Y87884926D01*
X29521429Y87884926D02*
X29583333Y87761117D01*
X29583333Y87761117D02*
X29583333Y87575402D01*
X29583333Y87575402D02*
X29521429Y87451593D01*
X29521429Y87451593D02*
X29459524Y87389688D01*
X29459524Y87389688D02*
X29335714Y87327783D01*
X29335714Y87327783D02*
X28840476Y87327783D01*
X30821429Y86708736D02*
X30078572Y86708736D01*
X30450000Y86708736D02*
X30450000Y88008736D01*
X30450000Y88008736D02*
X30326191Y87823021D01*
X30326191Y87823021D02*
X30202381Y87699212D01*
X30202381Y87699212D02*
X30078572Y87637307D01*
X32369047Y86708736D02*
X32369047Y88008736D01*
X32988095Y86708736D02*
X32988095Y88008736D01*
X32988095Y88008736D02*
X33730952Y86708736D01*
X33730952Y86708736D02*
X33730952Y88008736D01*
X34721429Y88008736D02*
X34721429Y87080164D01*
X34721429Y87080164D02*
X34659524Y86894450D01*
X34659524Y86894450D02*
X34535715Y86770640D01*
X34535715Y86770640D02*
X34350000Y86708736D01*
X34350000Y86708736D02*
X34226191Y86708736D01*
X36269048Y87080164D02*
X36888095Y87080164D01*
X36145238Y86708736D02*
X36578571Y88008736D01*
X36578571Y88008736D02*
X37011905Y86708736D01*
X39859524Y87389688D02*
X39426190Y87389688D01*
X39426190Y86708736D02*
X39426190Y88008736D01*
X39426190Y88008736D02*
X40045238Y88008736D01*
X40478572Y87884926D02*
X40540476Y87946831D01*
X40540476Y87946831D02*
X40664286Y88008736D01*
X40664286Y88008736D02*
X40973810Y88008736D01*
X40973810Y88008736D02*
X41097619Y87946831D01*
X41097619Y87946831D02*
X41159524Y87884926D01*
X41159524Y87884926D02*
X41221429Y87761117D01*
X41221429Y87761117D02*
X41221429Y87637307D01*
X41221429Y87637307D02*
X41159524Y87451593D01*
X41159524Y87451593D02*
X40416667Y86708736D01*
X40416667Y86708736D02*
X41221429Y86708736D01*
X28221428Y11408736D02*
X28221428Y12708736D01*
X28221428Y12708736D02*
X28716666Y12708736D01*
X28716666Y12708736D02*
X28840476Y12646831D01*
X28840476Y12646831D02*
X28902381Y12584926D01*
X28902381Y12584926D02*
X28964285Y12461117D01*
X28964285Y12461117D02*
X28964285Y12275402D01*
X28964285Y12275402D02*
X28902381Y12151593D01*
X28902381Y12151593D02*
X28840476Y12089688D01*
X28840476Y12089688D02*
X28716666Y12027783D01*
X28716666Y12027783D02*
X28221428Y12027783D01*
X30078571Y12275402D02*
X30078571Y11408736D01*
X29769047Y12770640D02*
X29459524Y11842069D01*
X29459524Y11842069D02*
X30264285Y11842069D01*
X31749999Y11408736D02*
X31749999Y12708736D01*
X32369047Y11408736D02*
X32369047Y12708736D01*
X32369047Y12708736D02*
X33111904Y11408736D01*
X33111904Y11408736D02*
X33111904Y12708736D01*
X34102381Y12708736D02*
X34102381Y11780164D01*
X34102381Y11780164D02*
X34040476Y11594450D01*
X34040476Y11594450D02*
X33916667Y11470640D01*
X33916667Y11470640D02*
X33730952Y11408736D01*
X33730952Y11408736D02*
X33607143Y11408736D01*
X35650000Y11780164D02*
X36269047Y11780164D01*
X35526190Y11408736D02*
X35959523Y12708736D01*
X35959523Y12708736D02*
X36392857Y11408736D01*
X39240476Y12089688D02*
X38807142Y12089688D01*
X38807142Y11408736D02*
X38807142Y12708736D01*
X38807142Y12708736D02*
X39426190Y12708736D01*
X40602381Y11408736D02*
X39859524Y11408736D01*
X40230952Y11408736D02*
X40230952Y12708736D01*
X40230952Y12708736D02*
X40107143Y12523021D01*
X40107143Y12523021D02*
X39983333Y12399212D01*
X39983333Y12399212D02*
X39859524Y12337307D01*
X41840476Y11408736D02*
X41097619Y11408736D01*
X41469047Y11408736D02*
X41469047Y12708736D01*
X41469047Y12708736D02*
X41345238Y12523021D01*
X41345238Y12523021D02*
X41221428Y12399212D01*
X41221428Y12399212D02*
X41097619Y12337307D01*
X48747619Y86708736D02*
X48747619Y88008736D01*
X48747619Y88008736D02*
X49242857Y88008736D01*
X49242857Y88008736D02*
X49366667Y87946831D01*
X49366667Y87946831D02*
X49428572Y87884926D01*
X49428572Y87884926D02*
X49490476Y87761117D01*
X49490476Y87761117D02*
X49490476Y87575402D01*
X49490476Y87575402D02*
X49428572Y87451593D01*
X49428572Y87451593D02*
X49366667Y87389688D01*
X49366667Y87389688D02*
X49242857Y87327783D01*
X49242857Y87327783D02*
X48747619Y87327783D01*
X50728572Y86708736D02*
X49985715Y86708736D01*
X50357143Y86708736D02*
X50357143Y88008736D01*
X50357143Y88008736D02*
X50233334Y87823021D01*
X50233334Y87823021D02*
X50109524Y87699212D01*
X50109524Y87699212D02*
X49985715Y87637307D01*
X52276190Y86708736D02*
X52276190Y88008736D01*
X52895238Y86708736D02*
X52895238Y88008736D01*
X52895238Y88008736D02*
X53638095Y86708736D01*
X53638095Y86708736D02*
X53638095Y88008736D01*
X54628572Y88008736D02*
X54628572Y87080164D01*
X54628572Y87080164D02*
X54566667Y86894450D01*
X54566667Y86894450D02*
X54442858Y86770640D01*
X54442858Y86770640D02*
X54257143Y86708736D01*
X54257143Y86708736D02*
X54133334Y86708736D01*
X56671429Y87389688D02*
X56857143Y87327783D01*
X56857143Y87327783D02*
X56919048Y87265879D01*
X56919048Y87265879D02*
X56980952Y87142069D01*
X56980952Y87142069D02*
X56980952Y86956355D01*
X56980952Y86956355D02*
X56919048Y86832545D01*
X56919048Y86832545D02*
X56857143Y86770640D01*
X56857143Y86770640D02*
X56733333Y86708736D01*
X56733333Y86708736D02*
X56238095Y86708736D01*
X56238095Y86708736D02*
X56238095Y88008736D01*
X56238095Y88008736D02*
X56671429Y88008736D01*
X56671429Y88008736D02*
X56795238Y87946831D01*
X56795238Y87946831D02*
X56857143Y87884926D01*
X56857143Y87884926D02*
X56919048Y87761117D01*
X56919048Y87761117D02*
X56919048Y87637307D01*
X56919048Y87637307D02*
X56857143Y87513498D01*
X56857143Y87513498D02*
X56795238Y87451593D01*
X56795238Y87451593D02*
X56671429Y87389688D01*
X56671429Y87389688D02*
X56238095Y87389688D01*
X59952381Y87389688D02*
X59519047Y87389688D01*
X59519047Y86708736D02*
X59519047Y88008736D01*
X59519047Y88008736D02*
X60138095Y88008736D01*
X60509524Y88008736D02*
X61314286Y88008736D01*
X61314286Y88008736D02*
X60880952Y87513498D01*
X60880952Y87513498D02*
X61066667Y87513498D01*
X61066667Y87513498D02*
X61190476Y87451593D01*
X61190476Y87451593D02*
X61252381Y87389688D01*
X61252381Y87389688D02*
X61314286Y87265879D01*
X61314286Y87265879D02*
X61314286Y86956355D01*
X61314286Y86956355D02*
X61252381Y86832545D01*
X61252381Y86832545D02*
X61190476Y86770640D01*
X61190476Y86770640D02*
X61066667Y86708736D01*
X61066667Y86708736D02*
X60695238Y86708736D01*
X60695238Y86708736D02*
X60571429Y86770640D01*
X60571429Y86770640D02*
X60509524Y86832545D01*
X48128571Y11408736D02*
X48128571Y12708736D01*
X48128571Y12708736D02*
X48623809Y12708736D01*
X48623809Y12708736D02*
X48747619Y12646831D01*
X48747619Y12646831D02*
X48809524Y12584926D01*
X48809524Y12584926D02*
X48871428Y12461117D01*
X48871428Y12461117D02*
X48871428Y12275402D01*
X48871428Y12275402D02*
X48809524Y12151593D01*
X48809524Y12151593D02*
X48747619Y12089688D01*
X48747619Y12089688D02*
X48623809Y12027783D01*
X48623809Y12027783D02*
X48128571Y12027783D01*
X49985714Y12275402D02*
X49985714Y11408736D01*
X49676190Y12770640D02*
X49366667Y11842069D01*
X49366667Y11842069D02*
X50171428Y11842069D01*
X51657142Y11408736D02*
X51657142Y12708736D01*
X52276190Y11408736D02*
X52276190Y12708736D01*
X52276190Y12708736D02*
X53019047Y11408736D01*
X53019047Y11408736D02*
X53019047Y12708736D01*
X54009524Y12708736D02*
X54009524Y11780164D01*
X54009524Y11780164D02*
X53947619Y11594450D01*
X53947619Y11594450D02*
X53823810Y11470640D01*
X53823810Y11470640D02*
X53638095Y11408736D01*
X53638095Y11408736D02*
X53514286Y11408736D01*
X56052381Y12089688D02*
X56238095Y12027783D01*
X56238095Y12027783D02*
X56300000Y11965879D01*
X56300000Y11965879D02*
X56361904Y11842069D01*
X56361904Y11842069D02*
X56361904Y11656355D01*
X56361904Y11656355D02*
X56300000Y11532545D01*
X56300000Y11532545D02*
X56238095Y11470640D01*
X56238095Y11470640D02*
X56114285Y11408736D01*
X56114285Y11408736D02*
X55619047Y11408736D01*
X55619047Y11408736D02*
X55619047Y12708736D01*
X55619047Y12708736D02*
X56052381Y12708736D01*
X56052381Y12708736D02*
X56176190Y12646831D01*
X56176190Y12646831D02*
X56238095Y12584926D01*
X56238095Y12584926D02*
X56300000Y12461117D01*
X56300000Y12461117D02*
X56300000Y12337307D01*
X56300000Y12337307D02*
X56238095Y12213498D01*
X56238095Y12213498D02*
X56176190Y12151593D01*
X56176190Y12151593D02*
X56052381Y12089688D01*
X56052381Y12089688D02*
X55619047Y12089688D01*
X59333333Y12089688D02*
X58899999Y12089688D01*
X58899999Y11408736D02*
X58899999Y12708736D01*
X58899999Y12708736D02*
X59519047Y12708736D01*
X60695238Y11408736D02*
X59952381Y11408736D01*
X60323809Y11408736D02*
X60323809Y12708736D01*
X60323809Y12708736D02*
X60200000Y12523021D01*
X60200000Y12523021D02*
X60076190Y12399212D01*
X60076190Y12399212D02*
X59952381Y12337307D01*
X61190476Y12584926D02*
X61252380Y12646831D01*
X61252380Y12646831D02*
X61376190Y12708736D01*
X61376190Y12708736D02*
X61685714Y12708736D01*
X61685714Y12708736D02*
X61809523Y12646831D01*
X61809523Y12646831D02*
X61871428Y12584926D01*
X61871428Y12584926D02*
X61933333Y12461117D01*
X61933333Y12461117D02*
X61933333Y12337307D01*
X61933333Y12337307D02*
X61871428Y12151593D01*
X61871428Y12151593D02*
X61128571Y11408736D01*
X61128571Y11408736D02*
X61933333Y11408736D01*
X69119047Y86708736D02*
X69119047Y88008736D01*
X69119047Y88008736D02*
X69614285Y88008736D01*
X69614285Y88008736D02*
X69738095Y87946831D01*
X69738095Y87946831D02*
X69800000Y87884926D01*
X69800000Y87884926D02*
X69861904Y87761117D01*
X69861904Y87761117D02*
X69861904Y87575402D01*
X69861904Y87575402D02*
X69800000Y87451593D01*
X69800000Y87451593D02*
X69738095Y87389688D01*
X69738095Y87389688D02*
X69614285Y87327783D01*
X69614285Y87327783D02*
X69119047Y87327783D01*
X70357143Y87884926D02*
X70419047Y87946831D01*
X70419047Y87946831D02*
X70542857Y88008736D01*
X70542857Y88008736D02*
X70852381Y88008736D01*
X70852381Y88008736D02*
X70976190Y87946831D01*
X70976190Y87946831D02*
X71038095Y87884926D01*
X71038095Y87884926D02*
X71100000Y87761117D01*
X71100000Y87761117D02*
X71100000Y87637307D01*
X71100000Y87637307D02*
X71038095Y87451593D01*
X71038095Y87451593D02*
X70295238Y86708736D01*
X70295238Y86708736D02*
X71100000Y86708736D01*
X72647618Y86708736D02*
X72647618Y88008736D01*
X72647618Y88008736D02*
X72957142Y88008736D01*
X72957142Y88008736D02*
X73142856Y87946831D01*
X73142856Y87946831D02*
X73266666Y87823021D01*
X73266666Y87823021D02*
X73328571Y87699212D01*
X73328571Y87699212D02*
X73390475Y87451593D01*
X73390475Y87451593D02*
X73390475Y87265879D01*
X73390475Y87265879D02*
X73328571Y87018260D01*
X73328571Y87018260D02*
X73266666Y86894450D01*
X73266666Y86894450D02*
X73142856Y86770640D01*
X73142856Y86770640D02*
X72957142Y86708736D01*
X72957142Y86708736D02*
X72647618Y86708736D01*
X73885714Y87080164D02*
X74504761Y87080164D01*
X73761904Y86708736D02*
X74195237Y88008736D01*
X74195237Y88008736D02*
X74628571Y86708736D01*
X74876190Y88008736D02*
X75619047Y88008736D01*
X75247619Y86708736D02*
X75247619Y88008736D01*
X75990476Y87080164D02*
X76609523Y87080164D01*
X75866666Y86708736D02*
X76299999Y88008736D01*
X76299999Y88008736D02*
X76733333Y86708736D01*
X79580952Y87389688D02*
X79147618Y87389688D01*
X79147618Y86708736D02*
X79147618Y88008736D01*
X79147618Y88008736D02*
X79766666Y88008736D01*
X80819047Y87575402D02*
X80819047Y86708736D01*
X80509523Y88070640D02*
X80200000Y87142069D01*
X80200000Y87142069D02*
X81004761Y87142069D01*
X69119047Y11408736D02*
X69119047Y12708736D01*
X69119047Y12708736D02*
X69614285Y12708736D01*
X69614285Y12708736D02*
X69738095Y12646831D01*
X69738095Y12646831D02*
X69800000Y12584926D01*
X69800000Y12584926D02*
X69861904Y12461117D01*
X69861904Y12461117D02*
X69861904Y12275402D01*
X69861904Y12275402D02*
X69800000Y12151593D01*
X69800000Y12151593D02*
X69738095Y12089688D01*
X69738095Y12089688D02*
X69614285Y12027783D01*
X69614285Y12027783D02*
X69119047Y12027783D01*
X70295238Y12708736D02*
X71100000Y12708736D01*
X71100000Y12708736D02*
X70666666Y12213498D01*
X70666666Y12213498D02*
X70852381Y12213498D01*
X70852381Y12213498D02*
X70976190Y12151593D01*
X70976190Y12151593D02*
X71038095Y12089688D01*
X71038095Y12089688D02*
X71100000Y11965879D01*
X71100000Y11965879D02*
X71100000Y11656355D01*
X71100000Y11656355D02*
X71038095Y11532545D01*
X71038095Y11532545D02*
X70976190Y11470640D01*
X70976190Y11470640D02*
X70852381Y11408736D01*
X70852381Y11408736D02*
X70480952Y11408736D01*
X70480952Y11408736D02*
X70357143Y11470640D01*
X70357143Y11470640D02*
X70295238Y11532545D01*
X72647618Y11408736D02*
X72647618Y12708736D01*
X72647618Y12708736D02*
X72957142Y12708736D01*
X72957142Y12708736D02*
X73142856Y12646831D01*
X73142856Y12646831D02*
X73266666Y12523021D01*
X73266666Y12523021D02*
X73328571Y12399212D01*
X73328571Y12399212D02*
X73390475Y12151593D01*
X73390475Y12151593D02*
X73390475Y11965879D01*
X73390475Y11965879D02*
X73328571Y11718260D01*
X73328571Y11718260D02*
X73266666Y11594450D01*
X73266666Y11594450D02*
X73142856Y11470640D01*
X73142856Y11470640D02*
X72957142Y11408736D01*
X72957142Y11408736D02*
X72647618Y11408736D01*
X73885714Y11780164D02*
X74504761Y11780164D01*
X73761904Y11408736D02*
X74195237Y12708736D01*
X74195237Y12708736D02*
X74628571Y11408736D01*
X74876190Y12708736D02*
X75619047Y12708736D01*
X75247619Y11408736D02*
X75247619Y12708736D01*
X75990476Y11780164D02*
X76609523Y11780164D01*
X75866666Y11408736D02*
X76299999Y12708736D01*
X76299999Y12708736D02*
X76733333Y11408736D01*
X79580952Y12089688D02*
X79147618Y12089688D01*
X79147618Y11408736D02*
X79147618Y12708736D01*
X79147618Y12708736D02*
X79766666Y12708736D01*
X80138095Y12708736D02*
X81004761Y12708736D01*
X81004761Y12708736D02*
X80447619Y11408736D01*
X88840476Y86708736D02*
X88840476Y88008736D01*
X88840476Y88008736D02*
X89335714Y88008736D01*
X89335714Y88008736D02*
X89459524Y87946831D01*
X89459524Y87946831D02*
X89521429Y87884926D01*
X89521429Y87884926D02*
X89583333Y87761117D01*
X89583333Y87761117D02*
X89583333Y87575402D01*
X89583333Y87575402D02*
X89521429Y87451593D01*
X89521429Y87451593D02*
X89459524Y87389688D01*
X89459524Y87389688D02*
X89335714Y87327783D01*
X89335714Y87327783D02*
X88840476Y87327783D01*
X90078572Y87884926D02*
X90140476Y87946831D01*
X90140476Y87946831D02*
X90264286Y88008736D01*
X90264286Y88008736D02*
X90573810Y88008736D01*
X90573810Y88008736D02*
X90697619Y87946831D01*
X90697619Y87946831D02*
X90759524Y87884926D01*
X90759524Y87884926D02*
X90821429Y87761117D01*
X90821429Y87761117D02*
X90821429Y87637307D01*
X90821429Y87637307D02*
X90759524Y87451593D01*
X90759524Y87451593D02*
X90016667Y86708736D01*
X90016667Y86708736D02*
X90821429Y86708736D01*
X92369047Y86708736D02*
X92369047Y88008736D01*
X92988095Y86708736D02*
X92988095Y88008736D01*
X92988095Y88008736D02*
X93730952Y86708736D01*
X93730952Y86708736D02*
X93730952Y88008736D01*
X94721429Y88008736D02*
X94721429Y87080164D01*
X94721429Y87080164D02*
X94659524Y86894450D01*
X94659524Y86894450D02*
X94535715Y86770640D01*
X94535715Y86770640D02*
X94350000Y86708736D01*
X94350000Y86708736D02*
X94226191Y86708736D01*
X96269048Y87080164D02*
X96888095Y87080164D01*
X96145238Y86708736D02*
X96578571Y88008736D01*
X96578571Y88008736D02*
X97011905Y86708736D01*
X99859524Y87389688D02*
X99426190Y87389688D01*
X99426190Y86708736D02*
X99426190Y88008736D01*
X99426190Y88008736D02*
X100045238Y88008736D01*
X101159524Y88008736D02*
X100540476Y88008736D01*
X100540476Y88008736D02*
X100478572Y87389688D01*
X100478572Y87389688D02*
X100540476Y87451593D01*
X100540476Y87451593D02*
X100664286Y87513498D01*
X100664286Y87513498D02*
X100973810Y87513498D01*
X100973810Y87513498D02*
X101097619Y87451593D01*
X101097619Y87451593D02*
X101159524Y87389688D01*
X101159524Y87389688D02*
X101221429Y87265879D01*
X101221429Y87265879D02*
X101221429Y86956355D01*
X101221429Y86956355D02*
X101159524Y86832545D01*
X101159524Y86832545D02*
X101097619Y86770640D01*
X101097619Y86770640D02*
X100973810Y86708736D01*
X100973810Y86708736D02*
X100664286Y86708736D01*
X100664286Y86708736D02*
X100540476Y86770640D01*
X100540476Y86770640D02*
X100478572Y86832545D01*
X88840476Y11408736D02*
X88840476Y12708736D01*
X88840476Y12708736D02*
X89335714Y12708736D01*
X89335714Y12708736D02*
X89459524Y12646831D01*
X89459524Y12646831D02*
X89521429Y12584926D01*
X89521429Y12584926D02*
X89583333Y12461117D01*
X89583333Y12461117D02*
X89583333Y12275402D01*
X89583333Y12275402D02*
X89521429Y12151593D01*
X89521429Y12151593D02*
X89459524Y12089688D01*
X89459524Y12089688D02*
X89335714Y12027783D01*
X89335714Y12027783D02*
X88840476Y12027783D01*
X90016667Y12708736D02*
X90821429Y12708736D01*
X90821429Y12708736D02*
X90388095Y12213498D01*
X90388095Y12213498D02*
X90573810Y12213498D01*
X90573810Y12213498D02*
X90697619Y12151593D01*
X90697619Y12151593D02*
X90759524Y12089688D01*
X90759524Y12089688D02*
X90821429Y11965879D01*
X90821429Y11965879D02*
X90821429Y11656355D01*
X90821429Y11656355D02*
X90759524Y11532545D01*
X90759524Y11532545D02*
X90697619Y11470640D01*
X90697619Y11470640D02*
X90573810Y11408736D01*
X90573810Y11408736D02*
X90202381Y11408736D01*
X90202381Y11408736D02*
X90078572Y11470640D01*
X90078572Y11470640D02*
X90016667Y11532545D01*
X92369047Y11408736D02*
X92369047Y12708736D01*
X92988095Y11408736D02*
X92988095Y12708736D01*
X92988095Y12708736D02*
X93730952Y11408736D01*
X93730952Y11408736D02*
X93730952Y12708736D01*
X94721429Y12708736D02*
X94721429Y11780164D01*
X94721429Y11780164D02*
X94659524Y11594450D01*
X94659524Y11594450D02*
X94535715Y11470640D01*
X94535715Y11470640D02*
X94350000Y11408736D01*
X94350000Y11408736D02*
X94226191Y11408736D01*
X96269048Y11780164D02*
X96888095Y11780164D01*
X96145238Y11408736D02*
X96578571Y12708736D01*
X96578571Y12708736D02*
X97011905Y11408736D01*
X99859524Y12089688D02*
X99426190Y12089688D01*
X99426190Y11408736D02*
X99426190Y12708736D01*
X99426190Y12708736D02*
X100045238Y12708736D01*
X100726191Y12151593D02*
X100602381Y12213498D01*
X100602381Y12213498D02*
X100540476Y12275402D01*
X100540476Y12275402D02*
X100478572Y12399212D01*
X100478572Y12399212D02*
X100478572Y12461117D01*
X100478572Y12461117D02*
X100540476Y12584926D01*
X100540476Y12584926D02*
X100602381Y12646831D01*
X100602381Y12646831D02*
X100726191Y12708736D01*
X100726191Y12708736D02*
X100973810Y12708736D01*
X100973810Y12708736D02*
X101097619Y12646831D01*
X101097619Y12646831D02*
X101159524Y12584926D01*
X101159524Y12584926D02*
X101221429Y12461117D01*
X101221429Y12461117D02*
X101221429Y12399212D01*
X101221429Y12399212D02*
X101159524Y12275402D01*
X101159524Y12275402D02*
X101097619Y12213498D01*
X101097619Y12213498D02*
X100973810Y12151593D01*
X100973810Y12151593D02*
X100726191Y12151593D01*
X100726191Y12151593D02*
X100602381Y12089688D01*
X100602381Y12089688D02*
X100540476Y12027783D01*
X100540476Y12027783D02*
X100478572Y11903974D01*
X100478572Y11903974D02*
X100478572Y11656355D01*
X100478572Y11656355D02*
X100540476Y11532545D01*
X100540476Y11532545D02*
X100602381Y11470640D01*
X100602381Y11470640D02*
X100726191Y11408736D01*
X100726191Y11408736D02*
X100973810Y11408736D01*
X100973810Y11408736D02*
X101097619Y11470640D01*
X101097619Y11470640D02*
X101159524Y11532545D01*
X101159524Y11532545D02*
X101221429Y11656355D01*
X101221429Y11656355D02*
X101221429Y11903974D01*
X101221429Y11903974D02*
X101159524Y12027783D01*
X101159524Y12027783D02*
X101097619Y12089688D01*
X101097619Y12089688D02*
X100973810Y12151593D01*
X108747619Y86708736D02*
X108747619Y88008736D01*
X108747619Y88008736D02*
X109242857Y88008736D01*
X109242857Y88008736D02*
X109366667Y87946831D01*
X109366667Y87946831D02*
X109428572Y87884926D01*
X109428572Y87884926D02*
X109490476Y87761117D01*
X109490476Y87761117D02*
X109490476Y87575402D01*
X109490476Y87575402D02*
X109428572Y87451593D01*
X109428572Y87451593D02*
X109366667Y87389688D01*
X109366667Y87389688D02*
X109242857Y87327783D01*
X109242857Y87327783D02*
X108747619Y87327783D01*
X109985715Y87884926D02*
X110047619Y87946831D01*
X110047619Y87946831D02*
X110171429Y88008736D01*
X110171429Y88008736D02*
X110480953Y88008736D01*
X110480953Y88008736D02*
X110604762Y87946831D01*
X110604762Y87946831D02*
X110666667Y87884926D01*
X110666667Y87884926D02*
X110728572Y87761117D01*
X110728572Y87761117D02*
X110728572Y87637307D01*
X110728572Y87637307D02*
X110666667Y87451593D01*
X110666667Y87451593D02*
X109923810Y86708736D01*
X109923810Y86708736D02*
X110728572Y86708736D01*
X112276190Y86708736D02*
X112276190Y88008736D01*
X112895238Y86708736D02*
X112895238Y88008736D01*
X112895238Y88008736D02*
X113638095Y86708736D01*
X113638095Y86708736D02*
X113638095Y88008736D01*
X114628572Y88008736D02*
X114628572Y87080164D01*
X114628572Y87080164D02*
X114566667Y86894450D01*
X114566667Y86894450D02*
X114442858Y86770640D01*
X114442858Y86770640D02*
X114257143Y86708736D01*
X114257143Y86708736D02*
X114133334Y86708736D01*
X116671429Y87389688D02*
X116857143Y87327783D01*
X116857143Y87327783D02*
X116919048Y87265879D01*
X116919048Y87265879D02*
X116980952Y87142069D01*
X116980952Y87142069D02*
X116980952Y86956355D01*
X116980952Y86956355D02*
X116919048Y86832545D01*
X116919048Y86832545D02*
X116857143Y86770640D01*
X116857143Y86770640D02*
X116733333Y86708736D01*
X116733333Y86708736D02*
X116238095Y86708736D01*
X116238095Y86708736D02*
X116238095Y88008736D01*
X116238095Y88008736D02*
X116671429Y88008736D01*
X116671429Y88008736D02*
X116795238Y87946831D01*
X116795238Y87946831D02*
X116857143Y87884926D01*
X116857143Y87884926D02*
X116919048Y87761117D01*
X116919048Y87761117D02*
X116919048Y87637307D01*
X116919048Y87637307D02*
X116857143Y87513498D01*
X116857143Y87513498D02*
X116795238Y87451593D01*
X116795238Y87451593D02*
X116671429Y87389688D01*
X116671429Y87389688D02*
X116238095Y87389688D01*
X119952381Y87389688D02*
X119519047Y87389688D01*
X119519047Y86708736D02*
X119519047Y88008736D01*
X119519047Y88008736D02*
X120138095Y88008736D01*
X121190476Y88008736D02*
X120942857Y88008736D01*
X120942857Y88008736D02*
X120819048Y87946831D01*
X120819048Y87946831D02*
X120757143Y87884926D01*
X120757143Y87884926D02*
X120633333Y87699212D01*
X120633333Y87699212D02*
X120571429Y87451593D01*
X120571429Y87451593D02*
X120571429Y86956355D01*
X120571429Y86956355D02*
X120633333Y86832545D01*
X120633333Y86832545D02*
X120695238Y86770640D01*
X120695238Y86770640D02*
X120819048Y86708736D01*
X120819048Y86708736D02*
X121066667Y86708736D01*
X121066667Y86708736D02*
X121190476Y86770640D01*
X121190476Y86770640D02*
X121252381Y86832545D01*
X121252381Y86832545D02*
X121314286Y86956355D01*
X121314286Y86956355D02*
X121314286Y87265879D01*
X121314286Y87265879D02*
X121252381Y87389688D01*
X121252381Y87389688D02*
X121190476Y87451593D01*
X121190476Y87451593D02*
X121066667Y87513498D01*
X121066667Y87513498D02*
X120819048Y87513498D01*
X120819048Y87513498D02*
X120695238Y87451593D01*
X120695238Y87451593D02*
X120633333Y87389688D01*
X120633333Y87389688D02*
X120571429Y87265879D01*
X108747619Y11408736D02*
X108747619Y12708736D01*
X108747619Y12708736D02*
X109242857Y12708736D01*
X109242857Y12708736D02*
X109366667Y12646831D01*
X109366667Y12646831D02*
X109428572Y12584926D01*
X109428572Y12584926D02*
X109490476Y12461117D01*
X109490476Y12461117D02*
X109490476Y12275402D01*
X109490476Y12275402D02*
X109428572Y12151593D01*
X109428572Y12151593D02*
X109366667Y12089688D01*
X109366667Y12089688D02*
X109242857Y12027783D01*
X109242857Y12027783D02*
X108747619Y12027783D01*
X109923810Y12708736D02*
X110728572Y12708736D01*
X110728572Y12708736D02*
X110295238Y12213498D01*
X110295238Y12213498D02*
X110480953Y12213498D01*
X110480953Y12213498D02*
X110604762Y12151593D01*
X110604762Y12151593D02*
X110666667Y12089688D01*
X110666667Y12089688D02*
X110728572Y11965879D01*
X110728572Y11965879D02*
X110728572Y11656355D01*
X110728572Y11656355D02*
X110666667Y11532545D01*
X110666667Y11532545D02*
X110604762Y11470640D01*
X110604762Y11470640D02*
X110480953Y11408736D01*
X110480953Y11408736D02*
X110109524Y11408736D01*
X110109524Y11408736D02*
X109985715Y11470640D01*
X109985715Y11470640D02*
X109923810Y11532545D01*
X112276190Y11408736D02*
X112276190Y12708736D01*
X112895238Y11408736D02*
X112895238Y12708736D01*
X112895238Y12708736D02*
X113638095Y11408736D01*
X113638095Y11408736D02*
X113638095Y12708736D01*
X114628572Y12708736D02*
X114628572Y11780164D01*
X114628572Y11780164D02*
X114566667Y11594450D01*
X114566667Y11594450D02*
X114442858Y11470640D01*
X114442858Y11470640D02*
X114257143Y11408736D01*
X114257143Y11408736D02*
X114133334Y11408736D01*
X116671429Y12089688D02*
X116857143Y12027783D01*
X116857143Y12027783D02*
X116919048Y11965879D01*
X116919048Y11965879D02*
X116980952Y11842069D01*
X116980952Y11842069D02*
X116980952Y11656355D01*
X116980952Y11656355D02*
X116919048Y11532545D01*
X116919048Y11532545D02*
X116857143Y11470640D01*
X116857143Y11470640D02*
X116733333Y11408736D01*
X116733333Y11408736D02*
X116238095Y11408736D01*
X116238095Y11408736D02*
X116238095Y12708736D01*
X116238095Y12708736D02*
X116671429Y12708736D01*
X116671429Y12708736D02*
X116795238Y12646831D01*
X116795238Y12646831D02*
X116857143Y12584926D01*
X116857143Y12584926D02*
X116919048Y12461117D01*
X116919048Y12461117D02*
X116919048Y12337307D01*
X116919048Y12337307D02*
X116857143Y12213498D01*
X116857143Y12213498D02*
X116795238Y12151593D01*
X116795238Y12151593D02*
X116671429Y12089688D01*
X116671429Y12089688D02*
X116238095Y12089688D01*
X119952381Y12089688D02*
X119519047Y12089688D01*
X119519047Y11408736D02*
X119519047Y12708736D01*
X119519047Y12708736D02*
X120138095Y12708736D01*
X120695238Y11408736D02*
X120942857Y11408736D01*
X120942857Y11408736D02*
X121066667Y11470640D01*
X121066667Y11470640D02*
X121128571Y11532545D01*
X121128571Y11532545D02*
X121252381Y11718260D01*
X121252381Y11718260D02*
X121314286Y11965879D01*
X121314286Y11965879D02*
X121314286Y12461117D01*
X121314286Y12461117D02*
X121252381Y12584926D01*
X121252381Y12584926D02*
X121190476Y12646831D01*
X121190476Y12646831D02*
X121066667Y12708736D01*
X121066667Y12708736D02*
X120819048Y12708736D01*
X120819048Y12708736D02*
X120695238Y12646831D01*
X120695238Y12646831D02*
X120633333Y12584926D01*
X120633333Y12584926D02*
X120571429Y12461117D01*
X120571429Y12461117D02*
X120571429Y12151593D01*
X120571429Y12151593D02*
X120633333Y12027783D01*
X120633333Y12027783D02*
X120695238Y11965879D01*
X120695238Y11965879D02*
X120819048Y11903974D01*
X120819048Y11903974D02*
X121066667Y11903974D01*
X121066667Y11903974D02*
X121190476Y11965879D01*
X121190476Y11965879D02*
X121252381Y12027783D01*
X121252381Y12027783D02*
X121314286Y12151593D01*
D13*
X14019044Y74924671D02*
X13942853Y74848480D01*
X13942853Y74848480D02*
X13714282Y74772290D01*
X13714282Y74772290D02*
X13561901Y74772290D01*
X13561901Y74772290D02*
X13333329Y74848480D01*
X13333329Y74848480D02*
X13180948Y75000861D01*
X13180948Y75000861D02*
X13104758Y75153242D01*
X13104758Y75153242D02*
X13028567Y75458004D01*
X13028567Y75458004D02*
X13028567Y75686576D01*
X13028567Y75686576D02*
X13104758Y75991338D01*
X13104758Y75991338D02*
X13180948Y76143719D01*
X13180948Y76143719D02*
X13333329Y76296100D01*
X13333329Y76296100D02*
X13561901Y76372290D01*
X13561901Y76372290D02*
X13714282Y76372290D01*
X13714282Y76372290D02*
X13942853Y76296100D01*
X13942853Y76296100D02*
X14019044Y76219909D01*
X14704758Y74772290D02*
X14704758Y76372290D01*
X15390472Y74772290D02*
X15390472Y75610385D01*
X15390472Y75610385D02*
X15314282Y75762766D01*
X15314282Y75762766D02*
X15161901Y75838957D01*
X15161901Y75838957D02*
X14933329Y75838957D01*
X14933329Y75838957D02*
X14780948Y75762766D01*
X14780948Y75762766D02*
X14704758Y75686576D01*
X16838091Y74772290D02*
X16838091Y75610385D01*
X16838091Y75610385D02*
X16761901Y75762766D01*
X16761901Y75762766D02*
X16609520Y75838957D01*
X16609520Y75838957D02*
X16304758Y75838957D01*
X16304758Y75838957D02*
X16152377Y75762766D01*
X16838091Y74848480D02*
X16685710Y74772290D01*
X16685710Y74772290D02*
X16304758Y74772290D01*
X16304758Y74772290D02*
X16152377Y74848480D01*
X16152377Y74848480D02*
X16076186Y75000861D01*
X16076186Y75000861D02*
X16076186Y75153242D01*
X16076186Y75153242D02*
X16152377Y75305623D01*
X16152377Y75305623D02*
X16304758Y75381814D01*
X16304758Y75381814D02*
X16685710Y75381814D01*
X16685710Y75381814D02*
X16838091Y75458004D01*
X17599996Y75838957D02*
X17599996Y74772290D01*
X17599996Y75686576D02*
X17676186Y75762766D01*
X17676186Y75762766D02*
X17828567Y75838957D01*
X17828567Y75838957D02*
X18057139Y75838957D01*
X18057139Y75838957D02*
X18209520Y75762766D01*
X18209520Y75762766D02*
X18285710Y75610385D01*
X18285710Y75610385D02*
X18285710Y74772290D01*
X19733329Y74772290D02*
X19733329Y76372290D01*
X19733329Y74848480D02*
X19580948Y74772290D01*
X19580948Y74772290D02*
X19276186Y74772290D01*
X19276186Y74772290D02*
X19123805Y74848480D01*
X19123805Y74848480D02*
X19047615Y74924671D01*
X19047615Y74924671D02*
X18971424Y75077052D01*
X18971424Y75077052D02*
X18971424Y75534195D01*
X18971424Y75534195D02*
X19047615Y75686576D01*
X19047615Y75686576D02*
X19123805Y75762766D01*
X19123805Y75762766D02*
X19276186Y75838957D01*
X19276186Y75838957D02*
X19580948Y75838957D01*
X19580948Y75838957D02*
X19733329Y75762766D01*
X20723805Y74772290D02*
X20571424Y74848480D01*
X20571424Y74848480D02*
X20495234Y75000861D01*
X20495234Y75000861D02*
X20495234Y76372290D01*
X21942853Y74848480D02*
X21790472Y74772290D01*
X21790472Y74772290D02*
X21485710Y74772290D01*
X21485710Y74772290D02*
X21333329Y74848480D01*
X21333329Y74848480D02*
X21257138Y75000861D01*
X21257138Y75000861D02*
X21257138Y75610385D01*
X21257138Y75610385D02*
X21333329Y75762766D01*
X21333329Y75762766D02*
X21485710Y75838957D01*
X21485710Y75838957D02*
X21790472Y75838957D01*
X21790472Y75838957D02*
X21942853Y75762766D01*
X21942853Y75762766D02*
X22019043Y75610385D01*
X22019043Y75610385D02*
X22019043Y75458004D01*
X22019043Y75458004D02*
X21257138Y75305623D01*
X22704758Y74772290D02*
X22704758Y75838957D01*
X22704758Y75534195D02*
X22780948Y75686576D01*
X22780948Y75686576D02*
X22857139Y75762766D01*
X22857139Y75762766D02*
X23009520Y75838957D01*
X23009520Y75838957D02*
X23161901Y75838957D01*
X25599996Y75838957D02*
X25599996Y74772290D01*
X25219044Y76448480D02*
X24838091Y75305623D01*
X24838091Y75305623D02*
X25828568Y75305623D01*
X26438092Y74772290D02*
X26438092Y76372290D01*
X26438092Y76372290D02*
X26819044Y76372290D01*
X26819044Y76372290D02*
X27047616Y76296100D01*
X27047616Y76296100D02*
X27199997Y76143719D01*
X27199997Y76143719D02*
X27276187Y75991338D01*
X27276187Y75991338D02*
X27352378Y75686576D01*
X27352378Y75686576D02*
X27352378Y75458004D01*
X27352378Y75458004D02*
X27276187Y75153242D01*
X27276187Y75153242D02*
X27199997Y75000861D01*
X27199997Y75000861D02*
X27047616Y74848480D01*
X27047616Y74848480D02*
X26819044Y74772290D01*
X26819044Y74772290D02*
X26438092Y74772290D01*
X29180949Y76448480D02*
X27809520Y74391338D01*
X29942853Y75686576D02*
X29790472Y75762766D01*
X29790472Y75762766D02*
X29714282Y75838957D01*
X29714282Y75838957D02*
X29638091Y75991338D01*
X29638091Y75991338D02*
X29638091Y76067528D01*
X29638091Y76067528D02*
X29714282Y76219909D01*
X29714282Y76219909D02*
X29790472Y76296100D01*
X29790472Y76296100D02*
X29942853Y76372290D01*
X29942853Y76372290D02*
X30247615Y76372290D01*
X30247615Y76372290D02*
X30399996Y76296100D01*
X30399996Y76296100D02*
X30476187Y76219909D01*
X30476187Y76219909D02*
X30552377Y76067528D01*
X30552377Y76067528D02*
X30552377Y75991338D01*
X30552377Y75991338D02*
X30476187Y75838957D01*
X30476187Y75838957D02*
X30399996Y75762766D01*
X30399996Y75762766D02*
X30247615Y75686576D01*
X30247615Y75686576D02*
X29942853Y75686576D01*
X29942853Y75686576D02*
X29790472Y75610385D01*
X29790472Y75610385D02*
X29714282Y75534195D01*
X29714282Y75534195D02*
X29638091Y75381814D01*
X29638091Y75381814D02*
X29638091Y75077052D01*
X29638091Y75077052D02*
X29714282Y74924671D01*
X29714282Y74924671D02*
X29790472Y74848480D01*
X29790472Y74848480D02*
X29942853Y74772290D01*
X29942853Y74772290D02*
X30247615Y74772290D01*
X30247615Y74772290D02*
X30399996Y74848480D01*
X30399996Y74848480D02*
X30476187Y74924671D01*
X30476187Y74924671D02*
X30552377Y75077052D01*
X30552377Y75077052D02*
X30552377Y75381814D01*
X30552377Y75381814D02*
X30476187Y75534195D01*
X30476187Y75534195D02*
X30399996Y75610385D01*
X30399996Y75610385D02*
X30247615Y75686576D01*
X31238092Y74772290D02*
X31238092Y76372290D01*
X31238092Y76372290D02*
X31847616Y76372290D01*
X31847616Y76372290D02*
X31999997Y76296100D01*
X31999997Y76296100D02*
X32076187Y76219909D01*
X32076187Y76219909D02*
X32152378Y76067528D01*
X32152378Y76067528D02*
X32152378Y75838957D01*
X32152378Y75838957D02*
X32076187Y75686576D01*
X32076187Y75686576D02*
X31999997Y75610385D01*
X31999997Y75610385D02*
X31847616Y75534195D01*
X31847616Y75534195D02*
X31238092Y75534195D01*
X34057140Y74772290D02*
X34057140Y76372290D01*
X34057140Y76372290D02*
X34438092Y76372290D01*
X34438092Y76372290D02*
X34666664Y76296100D01*
X34666664Y76296100D02*
X34819045Y76143719D01*
X34819045Y76143719D02*
X34895235Y75991338D01*
X34895235Y75991338D02*
X34971426Y75686576D01*
X34971426Y75686576D02*
X34971426Y75458004D01*
X34971426Y75458004D02*
X34895235Y75153242D01*
X34895235Y75153242D02*
X34819045Y75000861D01*
X34819045Y75000861D02*
X34666664Y74848480D01*
X34666664Y74848480D02*
X34438092Y74772290D01*
X34438092Y74772290D02*
X34057140Y74772290D01*
X35657140Y74772290D02*
X35657140Y75838957D01*
X35657140Y76372290D02*
X35580949Y76296100D01*
X35580949Y76296100D02*
X35657140Y76219909D01*
X35657140Y76219909D02*
X35733330Y76296100D01*
X35733330Y76296100D02*
X35657140Y76372290D01*
X35657140Y76372290D02*
X35657140Y76219909D01*
X36190473Y75838957D02*
X36799997Y75838957D01*
X36419045Y74772290D02*
X36419045Y76143719D01*
X36419045Y76143719D02*
X36495235Y76296100D01*
X36495235Y76296100D02*
X36647616Y76372290D01*
X36647616Y76372290D02*
X36799997Y76372290D01*
X37104759Y75838957D02*
X37714283Y75838957D01*
X37333331Y74772290D02*
X37333331Y76143719D01*
X37333331Y76143719D02*
X37409521Y76296100D01*
X37409521Y76296100D02*
X37561902Y76372290D01*
X37561902Y76372290D02*
X37714283Y76372290D01*
X38857141Y74848480D02*
X38704760Y74772290D01*
X38704760Y74772290D02*
X38399998Y74772290D01*
X38399998Y74772290D02*
X38247617Y74848480D01*
X38247617Y74848480D02*
X38171426Y75000861D01*
X38171426Y75000861D02*
X38171426Y75610385D01*
X38171426Y75610385D02*
X38247617Y75762766D01*
X38247617Y75762766D02*
X38399998Y75838957D01*
X38399998Y75838957D02*
X38704760Y75838957D01*
X38704760Y75838957D02*
X38857141Y75762766D01*
X38857141Y75762766D02*
X38933331Y75610385D01*
X38933331Y75610385D02*
X38933331Y75458004D01*
X38933331Y75458004D02*
X38171426Y75305623D01*
X39619046Y74772290D02*
X39619046Y75838957D01*
X39619046Y75534195D02*
X39695236Y75686576D01*
X39695236Y75686576D02*
X39771427Y75762766D01*
X39771427Y75762766D02*
X39923808Y75838957D01*
X39923808Y75838957D02*
X40076189Y75838957D01*
X41219046Y74848480D02*
X41066665Y74772290D01*
X41066665Y74772290D02*
X40761903Y74772290D01*
X40761903Y74772290D02*
X40609522Y74848480D01*
X40609522Y74848480D02*
X40533331Y75000861D01*
X40533331Y75000861D02*
X40533331Y75610385D01*
X40533331Y75610385D02*
X40609522Y75762766D01*
X40609522Y75762766D02*
X40761903Y75838957D01*
X40761903Y75838957D02*
X41066665Y75838957D01*
X41066665Y75838957D02*
X41219046Y75762766D01*
X41219046Y75762766D02*
X41295236Y75610385D01*
X41295236Y75610385D02*
X41295236Y75458004D01*
X41295236Y75458004D02*
X40533331Y75305623D01*
X41980951Y75838957D02*
X41980951Y74772290D01*
X41980951Y75686576D02*
X42057141Y75762766D01*
X42057141Y75762766D02*
X42209522Y75838957D01*
X42209522Y75838957D02*
X42438094Y75838957D01*
X42438094Y75838957D02*
X42590475Y75762766D01*
X42590475Y75762766D02*
X42666665Y75610385D01*
X42666665Y75610385D02*
X42666665Y74772290D01*
X43199998Y75838957D02*
X43809522Y75838957D01*
X43428570Y76372290D02*
X43428570Y75000861D01*
X43428570Y75000861D02*
X43504760Y74848480D01*
X43504760Y74848480D02*
X43657141Y74772290D01*
X43657141Y74772290D02*
X43809522Y74772290D01*
X44342856Y74772290D02*
X44342856Y75838957D01*
X44342856Y76372290D02*
X44266665Y76296100D01*
X44266665Y76296100D02*
X44342856Y76219909D01*
X44342856Y76219909D02*
X44419046Y76296100D01*
X44419046Y76296100D02*
X44342856Y76372290D01*
X44342856Y76372290D02*
X44342856Y76219909D01*
X45790475Y74772290D02*
X45790475Y75610385D01*
X45790475Y75610385D02*
X45714285Y75762766D01*
X45714285Y75762766D02*
X45561904Y75838957D01*
X45561904Y75838957D02*
X45257142Y75838957D01*
X45257142Y75838957D02*
X45104761Y75762766D01*
X45790475Y74848480D02*
X45638094Y74772290D01*
X45638094Y74772290D02*
X45257142Y74772290D01*
X45257142Y74772290D02*
X45104761Y74848480D01*
X45104761Y74848480D02*
X45028570Y75000861D01*
X45028570Y75000861D02*
X45028570Y75153242D01*
X45028570Y75153242D02*
X45104761Y75305623D01*
X45104761Y75305623D02*
X45257142Y75381814D01*
X45257142Y75381814D02*
X45638094Y75381814D01*
X45638094Y75381814D02*
X45790475Y75458004D01*
X46780951Y74772290D02*
X46628570Y74848480D01*
X46628570Y74848480D02*
X46552380Y75000861D01*
X46552380Y75000861D02*
X46552380Y76372290D01*
X49523809Y74772290D02*
X48990475Y75534195D01*
X48609523Y74772290D02*
X48609523Y76372290D01*
X48609523Y76372290D02*
X49219047Y76372290D01*
X49219047Y76372290D02*
X49371428Y76296100D01*
X49371428Y76296100D02*
X49447618Y76219909D01*
X49447618Y76219909D02*
X49523809Y76067528D01*
X49523809Y76067528D02*
X49523809Y75838957D01*
X49523809Y75838957D02*
X49447618Y75686576D01*
X49447618Y75686576D02*
X49371428Y75610385D01*
X49371428Y75610385D02*
X49219047Y75534195D01*
X49219047Y75534195D02*
X48609523Y75534195D01*
X50819047Y74848480D02*
X50666666Y74772290D01*
X50666666Y74772290D02*
X50361904Y74772290D01*
X50361904Y74772290D02*
X50209523Y74848480D01*
X50209523Y74848480D02*
X50133332Y75000861D01*
X50133332Y75000861D02*
X50133332Y75610385D01*
X50133332Y75610385D02*
X50209523Y75762766D01*
X50209523Y75762766D02*
X50361904Y75838957D01*
X50361904Y75838957D02*
X50666666Y75838957D01*
X50666666Y75838957D02*
X50819047Y75762766D01*
X50819047Y75762766D02*
X50895237Y75610385D01*
X50895237Y75610385D02*
X50895237Y75458004D01*
X50895237Y75458004D02*
X50133332Y75305623D01*
X52266666Y74848480D02*
X52114285Y74772290D01*
X52114285Y74772290D02*
X51809523Y74772290D01*
X51809523Y74772290D02*
X51657142Y74848480D01*
X51657142Y74848480D02*
X51580952Y74924671D01*
X51580952Y74924671D02*
X51504761Y75077052D01*
X51504761Y75077052D02*
X51504761Y75534195D01*
X51504761Y75534195D02*
X51580952Y75686576D01*
X51580952Y75686576D02*
X51657142Y75762766D01*
X51657142Y75762766D02*
X51809523Y75838957D01*
X51809523Y75838957D02*
X52114285Y75838957D01*
X52114285Y75838957D02*
X52266666Y75762766D01*
X53561905Y74848480D02*
X53409524Y74772290D01*
X53409524Y74772290D02*
X53104762Y74772290D01*
X53104762Y74772290D02*
X52952381Y74848480D01*
X52952381Y74848480D02*
X52876190Y75000861D01*
X52876190Y75000861D02*
X52876190Y75610385D01*
X52876190Y75610385D02*
X52952381Y75762766D01*
X52952381Y75762766D02*
X53104762Y75838957D01*
X53104762Y75838957D02*
X53409524Y75838957D01*
X53409524Y75838957D02*
X53561905Y75762766D01*
X53561905Y75762766D02*
X53638095Y75610385D01*
X53638095Y75610385D02*
X53638095Y75458004D01*
X53638095Y75458004D02*
X52876190Y75305623D01*
X54323810Y74772290D02*
X54323810Y75838957D01*
X54323810Y76372290D02*
X54247619Y76296100D01*
X54247619Y76296100D02*
X54323810Y76219909D01*
X54323810Y76219909D02*
X54400000Y76296100D01*
X54400000Y76296100D02*
X54323810Y76372290D01*
X54323810Y76372290D02*
X54323810Y76219909D01*
X54933334Y75838957D02*
X55314286Y74772290D01*
X55314286Y74772290D02*
X55695239Y75838957D01*
X56914287Y74848480D02*
X56761906Y74772290D01*
X56761906Y74772290D02*
X56457144Y74772290D01*
X56457144Y74772290D02*
X56304763Y74848480D01*
X56304763Y74848480D02*
X56228572Y75000861D01*
X56228572Y75000861D02*
X56228572Y75610385D01*
X56228572Y75610385D02*
X56304763Y75762766D01*
X56304763Y75762766D02*
X56457144Y75838957D01*
X56457144Y75838957D02*
X56761906Y75838957D01*
X56761906Y75838957D02*
X56914287Y75762766D01*
X56914287Y75762766D02*
X56990477Y75610385D01*
X56990477Y75610385D02*
X56990477Y75458004D01*
X56990477Y75458004D02*
X56228572Y75305623D01*
X57676192Y74772290D02*
X57676192Y75838957D01*
X57676192Y75534195D02*
X57752382Y75686576D01*
X57752382Y75686576D02*
X57828573Y75762766D01*
X57828573Y75762766D02*
X57980954Y75838957D01*
X57980954Y75838957D02*
X58133335Y75838957D01*
X60952383Y75838957D02*
X61333335Y74772290D01*
X61333335Y74772290D02*
X61714288Y75838957D01*
X63161907Y74772290D02*
X62247621Y74772290D01*
X62704764Y74772290D02*
X62704764Y76372290D01*
X62704764Y76372290D02*
X62552383Y76143719D01*
X62552383Y76143719D02*
X62400002Y75991338D01*
X62400002Y75991338D02*
X62247621Y75915147D01*
X63847622Y74924671D02*
X63923812Y74848480D01*
X63923812Y74848480D02*
X63847622Y74772290D01*
X63847622Y74772290D02*
X63771431Y74848480D01*
X63771431Y74848480D02*
X63847622Y74924671D01*
X63847622Y74924671D02*
X63847622Y74772290D01*
X64914289Y76372290D02*
X65066670Y76372290D01*
X65066670Y76372290D02*
X65219051Y76296100D01*
X65219051Y76296100D02*
X65295241Y76219909D01*
X65295241Y76219909D02*
X65371432Y76067528D01*
X65371432Y76067528D02*
X65447622Y75762766D01*
X65447622Y75762766D02*
X65447622Y75381814D01*
X65447622Y75381814D02*
X65371432Y75077052D01*
X65371432Y75077052D02*
X65295241Y74924671D01*
X65295241Y74924671D02*
X65219051Y74848480D01*
X65219051Y74848480D02*
X65066670Y74772290D01*
X65066670Y74772290D02*
X64914289Y74772290D01*
X64914289Y74772290D02*
X64761908Y74848480D01*
X64761908Y74848480D02*
X64685717Y74924671D01*
X64685717Y74924671D02*
X64609527Y75077052D01*
X64609527Y75077052D02*
X64533336Y75381814D01*
X64533336Y75381814D02*
X64533336Y75762766D01*
X64533336Y75762766D02*
X64609527Y76067528D01*
X64609527Y76067528D02*
X64685717Y76219909D01*
X64685717Y76219909D02*
X64761908Y76296100D01*
X64761908Y76296100D02*
X64914289Y76372290D01*
X66438099Y76372290D02*
X66590480Y76372290D01*
X66590480Y76372290D02*
X66742861Y76296100D01*
X66742861Y76296100D02*
X66819051Y76219909D01*
X66819051Y76219909D02*
X66895242Y76067528D01*
X66895242Y76067528D02*
X66971432Y75762766D01*
X66971432Y75762766D02*
X66971432Y75381814D01*
X66971432Y75381814D02*
X66895242Y75077052D01*
X66895242Y75077052D02*
X66819051Y74924671D01*
X66819051Y74924671D02*
X66742861Y74848480D01*
X66742861Y74848480D02*
X66590480Y74772290D01*
X66590480Y74772290D02*
X66438099Y74772290D01*
X66438099Y74772290D02*
X66285718Y74848480D01*
X66285718Y74848480D02*
X66209527Y74924671D01*
X66209527Y74924671D02*
X66133337Y75077052D01*
X66133337Y75077052D02*
X66057146Y75381814D01*
X66057146Y75381814D02*
X66057146Y75762766D01*
X66057146Y75762766D02*
X66133337Y76067528D01*
X66133337Y76067528D02*
X66209527Y76219909D01*
X66209527Y76219909D02*
X66285718Y76296100D01*
X66285718Y76296100D02*
X66438099Y76372290D01*
D10*
X67904761Y35449943D02*
X67809523Y35497562D01*
X67809523Y35497562D02*
X67714285Y35592800D01*
X67714285Y35592800D02*
X67571428Y35735658D01*
X67571428Y35735658D02*
X67476190Y35783277D01*
X67476190Y35783277D02*
X67380952Y35783277D01*
X67428571Y35545181D02*
X67333333Y35592800D01*
X67333333Y35592800D02*
X67238095Y35688039D01*
X67238095Y35688039D02*
X67190476Y35878515D01*
X67190476Y35878515D02*
X67190476Y36211848D01*
X67190476Y36211848D02*
X67238095Y36402324D01*
X67238095Y36402324D02*
X67333333Y36497562D01*
X67333333Y36497562D02*
X67428571Y36545181D01*
X67428571Y36545181D02*
X67619047Y36545181D01*
X67619047Y36545181D02*
X67714285Y36497562D01*
X67714285Y36497562D02*
X67809523Y36402324D01*
X67809523Y36402324D02*
X67857142Y36211848D01*
X67857142Y36211848D02*
X67857142Y35878515D01*
X67857142Y35878515D02*
X67809523Y35688039D01*
X67809523Y35688039D02*
X67714285Y35592800D01*
X67714285Y35592800D02*
X67619047Y35545181D01*
X67619047Y35545181D02*
X67428571Y35545181D01*
X68809523Y35545181D02*
X68238095Y35545181D01*
X68523809Y35545181D02*
X68523809Y36545181D01*
X68523809Y36545181D02*
X68428571Y36402324D01*
X68428571Y36402324D02*
X68333333Y36307086D01*
X68333333Y36307086D02*
X68238095Y36259467D01*
X9190476Y40045181D02*
X9190476Y39330896D01*
X9190476Y39330896D02*
X9142857Y39188039D01*
X9142857Y39188039D02*
X9047619Y39092800D01*
X9047619Y39092800D02*
X8904762Y39045181D01*
X8904762Y39045181D02*
X8809524Y39045181D01*
X10190476Y39045181D02*
X9619048Y39045181D01*
X9904762Y39045181D02*
X9904762Y40045181D01*
X9904762Y40045181D02*
X9809524Y39902324D01*
X9809524Y39902324D02*
X9714286Y39807086D01*
X9714286Y39807086D02*
X9619048Y39759467D01*
X11047619Y39711848D02*
X11047619Y39045181D01*
X10809524Y40092800D02*
X10571429Y39378515D01*
X10571429Y39378515D02*
X11190476Y39378515D01*
X83904761Y35449943D02*
X83809523Y35497562D01*
X83809523Y35497562D02*
X83714285Y35592800D01*
X83714285Y35592800D02*
X83571428Y35735658D01*
X83571428Y35735658D02*
X83476190Y35783277D01*
X83476190Y35783277D02*
X83380952Y35783277D01*
X83428571Y35545181D02*
X83333333Y35592800D01*
X83333333Y35592800D02*
X83238095Y35688039D01*
X83238095Y35688039D02*
X83190476Y35878515D01*
X83190476Y35878515D02*
X83190476Y36211848D01*
X83190476Y36211848D02*
X83238095Y36402324D01*
X83238095Y36402324D02*
X83333333Y36497562D01*
X83333333Y36497562D02*
X83428571Y36545181D01*
X83428571Y36545181D02*
X83619047Y36545181D01*
X83619047Y36545181D02*
X83714285Y36497562D01*
X83714285Y36497562D02*
X83809523Y36402324D01*
X83809523Y36402324D02*
X83857142Y36211848D01*
X83857142Y36211848D02*
X83857142Y35878515D01*
X83857142Y35878515D02*
X83809523Y35688039D01*
X83809523Y35688039D02*
X83714285Y35592800D01*
X83714285Y35592800D02*
X83619047Y35545181D01*
X83619047Y35545181D02*
X83428571Y35545181D01*
X84190476Y36545181D02*
X84809523Y36545181D01*
X84809523Y36545181D02*
X84476190Y36164229D01*
X84476190Y36164229D02*
X84619047Y36164229D01*
X84619047Y36164229D02*
X84714285Y36116610D01*
X84714285Y36116610D02*
X84761904Y36068991D01*
X84761904Y36068991D02*
X84809523Y35973753D01*
X84809523Y35973753D02*
X84809523Y35735658D01*
X84809523Y35735658D02*
X84761904Y35640420D01*
X84761904Y35640420D02*
X84714285Y35592800D01*
X84714285Y35592800D02*
X84619047Y35545181D01*
X84619047Y35545181D02*
X84333333Y35545181D01*
X84333333Y35545181D02*
X84238095Y35592800D01*
X84238095Y35592800D02*
X84190476Y35640420D01*
X111666666Y55545181D02*
X111666666Y54830896D01*
X111666666Y54830896D02*
X111619047Y54688039D01*
X111619047Y54688039D02*
X111523809Y54592800D01*
X111523809Y54592800D02*
X111380952Y54545181D01*
X111380952Y54545181D02*
X111285714Y54545181D01*
X112666666Y54545181D02*
X112095238Y54545181D01*
X112380952Y54545181D02*
X112380952Y55545181D01*
X112380952Y55545181D02*
X112285714Y55402324D01*
X112285714Y55402324D02*
X112190476Y55307086D01*
X112190476Y55307086D02*
X112095238Y55259467D01*
X94666666Y78568991D02*
X94333333Y78568991D01*
X94333333Y78045181D02*
X94333333Y79045181D01*
X94333333Y79045181D02*
X94809523Y79045181D01*
X95380952Y79045181D02*
X95476190Y79045181D01*
X95476190Y79045181D02*
X95571428Y78997562D01*
X95571428Y78997562D02*
X95619047Y78949943D01*
X95619047Y78949943D02*
X95666666Y78854705D01*
X95666666Y78854705D02*
X95714285Y78664229D01*
X95714285Y78664229D02*
X95714285Y78426134D01*
X95714285Y78426134D02*
X95666666Y78235658D01*
X95666666Y78235658D02*
X95619047Y78140420D01*
X95619047Y78140420D02*
X95571428Y78092800D01*
X95571428Y78092800D02*
X95476190Y78045181D01*
X95476190Y78045181D02*
X95380952Y78045181D01*
X95380952Y78045181D02*
X95285714Y78092800D01*
X95285714Y78092800D02*
X95238095Y78140420D01*
X95238095Y78140420D02*
X95190476Y78235658D01*
X95190476Y78235658D02*
X95142857Y78426134D01*
X95142857Y78426134D02*
X95142857Y78664229D01*
X95142857Y78664229D02*
X95190476Y78854705D01*
X95190476Y78854705D02*
X95238095Y78949943D01*
X95238095Y78949943D02*
X95285714Y78997562D01*
X95285714Y78997562D02*
X95380952Y79045181D01*
X69261905Y25545181D02*
X69261905Y26545181D01*
X69261905Y26545181D02*
X69500000Y26545181D01*
X69500000Y26545181D02*
X69642857Y26497562D01*
X69642857Y26497562D02*
X69738095Y26402324D01*
X69738095Y26402324D02*
X69785714Y26307086D01*
X69785714Y26307086D02*
X69833333Y26116610D01*
X69833333Y26116610D02*
X69833333Y25973753D01*
X69833333Y25973753D02*
X69785714Y25783277D01*
X69785714Y25783277D02*
X69738095Y25688039D01*
X69738095Y25688039D02*
X69642857Y25592800D01*
X69642857Y25592800D02*
X69500000Y25545181D01*
X69500000Y25545181D02*
X69261905Y25545181D01*
X70214286Y26449943D02*
X70261905Y26497562D01*
X70261905Y26497562D02*
X70357143Y26545181D01*
X70357143Y26545181D02*
X70595238Y26545181D01*
X70595238Y26545181D02*
X70690476Y26497562D01*
X70690476Y26497562D02*
X70738095Y26449943D01*
X70738095Y26449943D02*
X70785714Y26354705D01*
X70785714Y26354705D02*
X70785714Y26259467D01*
X70785714Y26259467D02*
X70738095Y26116610D01*
X70738095Y26116610D02*
X70166667Y25545181D01*
X70166667Y25545181D02*
X70785714Y25545181D01*
X35238095Y57545181D02*
X35238095Y56735658D01*
X35238095Y56735658D02*
X35285714Y56640420D01*
X35285714Y56640420D02*
X35333333Y56592800D01*
X35333333Y56592800D02*
X35428571Y56545181D01*
X35428571Y56545181D02*
X35619047Y56545181D01*
X35619047Y56545181D02*
X35714285Y56592800D01*
X35714285Y56592800D02*
X35761904Y56640420D01*
X35761904Y56640420D02*
X35809523Y56735658D01*
X35809523Y56735658D02*
X35809523Y57545181D01*
X36809523Y56545181D02*
X36238095Y56545181D01*
X36523809Y56545181D02*
X36523809Y57545181D01*
X36523809Y57545181D02*
X36428571Y57402324D01*
X36428571Y57402324D02*
X36333333Y57307086D01*
X36333333Y57307086D02*
X36238095Y57259467D01*
X75904761Y35449943D02*
X75809523Y35497562D01*
X75809523Y35497562D02*
X75714285Y35592800D01*
X75714285Y35592800D02*
X75571428Y35735658D01*
X75571428Y35735658D02*
X75476190Y35783277D01*
X75476190Y35783277D02*
X75380952Y35783277D01*
X75428571Y35545181D02*
X75333333Y35592800D01*
X75333333Y35592800D02*
X75238095Y35688039D01*
X75238095Y35688039D02*
X75190476Y35878515D01*
X75190476Y35878515D02*
X75190476Y36211848D01*
X75190476Y36211848D02*
X75238095Y36402324D01*
X75238095Y36402324D02*
X75333333Y36497562D01*
X75333333Y36497562D02*
X75428571Y36545181D01*
X75428571Y36545181D02*
X75619047Y36545181D01*
X75619047Y36545181D02*
X75714285Y36497562D01*
X75714285Y36497562D02*
X75809523Y36402324D01*
X75809523Y36402324D02*
X75857142Y36211848D01*
X75857142Y36211848D02*
X75857142Y35878515D01*
X75857142Y35878515D02*
X75809523Y35688039D01*
X75809523Y35688039D02*
X75714285Y35592800D01*
X75714285Y35592800D02*
X75619047Y35545181D01*
X75619047Y35545181D02*
X75428571Y35545181D01*
X76238095Y36449943D02*
X76285714Y36497562D01*
X76285714Y36497562D02*
X76380952Y36545181D01*
X76380952Y36545181D02*
X76619047Y36545181D01*
X76619047Y36545181D02*
X76714285Y36497562D01*
X76714285Y36497562D02*
X76761904Y36449943D01*
X76761904Y36449943D02*
X76809523Y36354705D01*
X76809523Y36354705D02*
X76809523Y36259467D01*
X76809523Y36259467D02*
X76761904Y36116610D01*
X76761904Y36116610D02*
X76190476Y35545181D01*
X76190476Y35545181D02*
X76809523Y35545181D01*
X91904761Y35449943D02*
X91809523Y35497562D01*
X91809523Y35497562D02*
X91714285Y35592800D01*
X91714285Y35592800D02*
X91571428Y35735658D01*
X91571428Y35735658D02*
X91476190Y35783277D01*
X91476190Y35783277D02*
X91380952Y35783277D01*
X91428571Y35545181D02*
X91333333Y35592800D01*
X91333333Y35592800D02*
X91238095Y35688039D01*
X91238095Y35688039D02*
X91190476Y35878515D01*
X91190476Y35878515D02*
X91190476Y36211848D01*
X91190476Y36211848D02*
X91238095Y36402324D01*
X91238095Y36402324D02*
X91333333Y36497562D01*
X91333333Y36497562D02*
X91428571Y36545181D01*
X91428571Y36545181D02*
X91619047Y36545181D01*
X91619047Y36545181D02*
X91714285Y36497562D01*
X91714285Y36497562D02*
X91809523Y36402324D01*
X91809523Y36402324D02*
X91857142Y36211848D01*
X91857142Y36211848D02*
X91857142Y35878515D01*
X91857142Y35878515D02*
X91809523Y35688039D01*
X91809523Y35688039D02*
X91714285Y35592800D01*
X91714285Y35592800D02*
X91619047Y35545181D01*
X91619047Y35545181D02*
X91428571Y35545181D01*
X92714285Y36211848D02*
X92714285Y35545181D01*
X92476190Y36592800D02*
X92238095Y35878515D01*
X92238095Y35878515D02*
X92857142Y35878515D01*
X109238095Y35045181D02*
X109238095Y34235658D01*
X109238095Y34235658D02*
X109285714Y34140420D01*
X109285714Y34140420D02*
X109333333Y34092800D01*
X109333333Y34092800D02*
X109428571Y34045181D01*
X109428571Y34045181D02*
X109619047Y34045181D01*
X109619047Y34045181D02*
X109714285Y34092800D01*
X109714285Y34092800D02*
X109761904Y34140420D01*
X109761904Y34140420D02*
X109809523Y34235658D01*
X109809523Y34235658D02*
X109809523Y35045181D01*
X110190476Y35045181D02*
X110809523Y35045181D01*
X110809523Y35045181D02*
X110476190Y34664229D01*
X110476190Y34664229D02*
X110619047Y34664229D01*
X110619047Y34664229D02*
X110714285Y34616610D01*
X110714285Y34616610D02*
X110761904Y34568991D01*
X110761904Y34568991D02*
X110809523Y34473753D01*
X110809523Y34473753D02*
X110809523Y34235658D01*
X110809523Y34235658D02*
X110761904Y34140420D01*
X110761904Y34140420D02*
X110714285Y34092800D01*
X110714285Y34092800D02*
X110619047Y34045181D01*
X110619047Y34045181D02*
X110333333Y34045181D01*
X110333333Y34045181D02*
X110238095Y34092800D01*
X110238095Y34092800D02*
X110190476Y34140420D01*
%TO.C,D1*%
X108920000Y47370000D02*
X109090000Y47370000D01*
X108920000Y47260000D02*
X108920000Y47370000D01*
X108920000Y47260000D02*
X109090000Y47260000D01*
X108920000Y45740000D02*
X109090000Y45740000D01*
X108920000Y45630000D02*
X108920000Y45740000D01*
X109090000Y47370000D02*
X109090000Y47260000D01*
X109090000Y47370000D02*
X111910000Y47370000D01*
X109090000Y45740000D02*
X109090000Y45630000D01*
X109090000Y45630000D02*
X108920000Y45630000D01*
X109090000Y45630000D02*
X111910000Y45630000D01*
X109530000Y47370000D02*
X109530000Y45630000D01*
X109670000Y47370000D02*
X109670000Y45630000D01*
X111910000Y47370000D02*
X111910000Y47200000D01*
X111910000Y45630000D02*
X111910000Y45800000D01*
D14*
X108680000Y45600000D02*
G75*
G02*
X108620000Y45600000I-30000J0D01*
G01*
X108620000Y45600000D02*
G75*
G02*
X108680000Y45600000I30000J0D01*
G01*
%TO.C,RL1*%
D15*
X15237258Y69522500D02*
X14762742Y69522500D01*
X15237258Y68477500D02*
X14762742Y68477500D01*
%TO.C,RB3*%
X53762742Y45522500D02*
X54237258Y45522500D01*
X53762742Y44477500D02*
X54237258Y44477500D01*
%TO.C,D6*%
D10*
X15140000Y63530000D02*
X15140000Y62490000D01*
X15140000Y60470000D02*
X15140000Y61510000D01*
X16860000Y63530000D02*
X15140000Y63530000D01*
X16860000Y62460000D02*
X16860000Y61540000D01*
X16860000Y60470000D02*
X15140000Y60470000D01*
D14*
X17450000Y60500000D02*
G75*
G02*
X17390000Y60500000I-30000J0D01*
G01*
X17390000Y60500000D02*
G75*
G02*
X17450000Y60500000I30000J0D01*
G01*
%TO.C,C1*%
D10*
X81800000Y32990000D02*
X81800000Y31280000D01*
X81800000Y28010000D02*
X81800000Y29720000D01*
X83540000Y34730000D02*
X81800000Y32990000D01*
X83540000Y26270000D02*
X81800000Y28010000D01*
X90200000Y34730000D02*
X83540000Y34730000D01*
X90200000Y31280000D02*
X90200000Y34730000D01*
X90200000Y29720000D02*
X90200000Y26270000D01*
X90200000Y26270000D02*
X83540000Y26270000D01*
D14*
X81510000Y26350000D02*
G75*
G02*
X81450000Y26350000I-30000J0D01*
G01*
X81450000Y26350000D02*
G75*
G02*
X81510000Y26350000I30000J0D01*
G01*
D16*
G36*
X83119996Y28466501D02*
G01*
X82124011Y28466501D01*
X82124011Y28715498D01*
X83119996Y28715498D01*
X83119996Y28466501D01*
G37*
G36*
X82746489Y27760991D02*
G01*
X82497492Y27760991D01*
X82497492Y29421008D01*
X82746489Y29421008D01*
X82746489Y27760991D01*
G37*
G36*
X89875989Y28466501D02*
G01*
X88880004Y28466501D01*
X88880004Y28715498D01*
X89875989Y28715498D01*
X89875989Y28466501D01*
G37*
%TO.C,C6*%
D15*
X41238748Y55185000D02*
X41761252Y55185000D01*
X41238748Y53715000D02*
X41761252Y53715000D01*
%TO.C,D7*%
D10*
X44420000Y28870000D02*
X44590000Y28870000D01*
X44420000Y28760000D02*
X44420000Y28870000D01*
X44420000Y28760000D02*
X44590000Y28760000D01*
X44420000Y27240000D02*
X44590000Y27240000D01*
X44420000Y27130000D02*
X44420000Y27240000D01*
X44590000Y28870000D02*
X44590000Y28760000D01*
X44590000Y28870000D02*
X47410000Y28870000D01*
X44590000Y27240000D02*
X44590000Y27130000D01*
X44590000Y27130000D02*
X44420000Y27130000D01*
X44590000Y27130000D02*
X47410000Y27130000D01*
X45030000Y28870000D02*
X45030000Y27130000D01*
X45170000Y28870000D02*
X45170000Y27130000D01*
X47410000Y28870000D02*
X47410000Y28700000D01*
X47410000Y27130000D02*
X47410000Y27300000D01*
D14*
X44180000Y27100000D02*
G75*
G02*
X44120000Y27100000I-30000J0D01*
G01*
X44120000Y27100000D02*
G75*
G02*
X44180000Y27100000I30000J0D01*
G01*
%TO.C,RB4*%
D15*
X57762742Y45522500D02*
X58237258Y45522500D01*
X57762742Y44477500D02*
X58237258Y44477500D01*
%TO.C,RL2*%
X26237258Y69522500D02*
X25762742Y69522500D01*
X26237258Y68477500D02*
X25762742Y68477500D01*
%TO.C,C2*%
X99288748Y28910000D02*
X100711252Y28910000D01*
X99288748Y27090000D02*
X100711252Y27090000D01*
%TO.C,D3*%
D10*
X19140000Y43030000D02*
X19140000Y41990000D01*
X19140000Y39970000D02*
X19140000Y41010000D01*
X20860000Y43030000D02*
X19140000Y43030000D01*
X20860000Y41960000D02*
X20860000Y41040000D01*
X20860000Y39970000D02*
X19140000Y39970000D01*
D14*
X21450000Y40000000D02*
G75*
G02*
X21390000Y40000000I-30000J0D01*
G01*
X21390000Y40000000D02*
G75*
G02*
X21450000Y40000000I30000J0D01*
G01*
%TO.C,LED2*%
D17*
X18780000Y69630000D02*
X19160000Y70010000D01*
X18780000Y68360000D02*
X18780000Y69630000D01*
X19160000Y70010000D02*
X20680000Y70010000D01*
X19180000Y67960000D02*
X18780000Y68360000D01*
X20660000Y67960000D02*
X19180000Y67960000D01*
X20700000Y69000000D02*
X20800000Y68900000D01*
X20800000Y69100000D02*
X20700000Y69000000D01*
X20800000Y68900000D02*
X21200000Y68500000D01*
X21200000Y69500000D02*
X20800000Y69100000D01*
X21200000Y69500000D02*
X21200000Y68500000D01*
X21440000Y67980000D02*
X22990000Y67980000D01*
X22990000Y70010000D02*
X21440000Y70010000D01*
X22990000Y67980000D02*
X22990000Y70010000D01*
D14*
X22030000Y69630000D02*
G75*
G02*
X21970000Y69630000I-30000J0D01*
G01*
X21970000Y69630000D02*
G75*
G02*
X22030000Y69630000I30000J0D01*
G01*
%TO.C,D4*%
D10*
X43140000Y43530000D02*
X43140000Y42490000D01*
X43140000Y40470000D02*
X43140000Y41510000D01*
X44860000Y43530000D02*
X43140000Y43530000D01*
X44860000Y42460000D02*
X44860000Y41540000D01*
X44860000Y40470000D02*
X43140000Y40470000D01*
D14*
X45450000Y40500000D02*
G75*
G02*
X45390000Y40500000I-30000J0D01*
G01*
X45390000Y40500000D02*
G75*
G02*
X45450000Y40500000I30000J0D01*
G01*
%TO.C,RL3*%
D15*
X37237258Y69522500D02*
X36762742Y69522500D01*
X37237258Y68477500D02*
X36762742Y68477500D01*
%TO.C,LED4*%
D17*
X40780000Y69630000D02*
X41160000Y70010000D01*
X40780000Y68360000D02*
X40780000Y69630000D01*
X41160000Y70010000D02*
X42680000Y70010000D01*
X41180000Y67960000D02*
X40780000Y68360000D01*
X42660000Y67960000D02*
X41180000Y67960000D01*
X42700000Y69000000D02*
X42800000Y68900000D01*
X42800000Y69100000D02*
X42700000Y69000000D01*
X42800000Y68900000D02*
X43200000Y68500000D01*
X43200000Y69500000D02*
X42800000Y69100000D01*
X43200000Y69500000D02*
X43200000Y68500000D01*
X43440000Y67980000D02*
X44990000Y67980000D01*
X44990000Y70010000D02*
X43440000Y70010000D01*
X44990000Y67980000D02*
X44990000Y70010000D01*
D14*
X44030000Y69630000D02*
G75*
G02*
X43970000Y69630000I-30000J0D01*
G01*
X43970000Y69630000D02*
G75*
G02*
X44030000Y69630000I30000J0D01*
G01*
%TO.C,RS1*%
D15*
X28237258Y49892500D02*
X27762742Y49892500D01*
X28237258Y48847500D02*
X27762742Y48847500D01*
%TO.C,LED5*%
D17*
X51780000Y69630000D02*
X52160000Y70010000D01*
X51780000Y68360000D02*
X51780000Y69630000D01*
X52160000Y70010000D02*
X53680000Y70010000D01*
X52180000Y67960000D02*
X51780000Y68360000D01*
X53660000Y67960000D02*
X52180000Y67960000D01*
X53700000Y69000000D02*
X53800000Y68900000D01*
X53800000Y69100000D02*
X53700000Y69000000D01*
X53800000Y68900000D02*
X54200000Y68500000D01*
X54200000Y69500000D02*
X53800000Y69100000D01*
X54200000Y69500000D02*
X54200000Y68500000D01*
X54440000Y67980000D02*
X55990000Y67980000D01*
X55990000Y70010000D02*
X54440000Y70010000D01*
X55990000Y67980000D02*
X55990000Y70010000D01*
D14*
X55030000Y69630000D02*
G75*
G02*
X54970000Y69630000I-30000J0D01*
G01*
X54970000Y69630000D02*
G75*
G02*
X55030000Y69630000I30000J0D01*
G01*
%TO.C,J1*%
D17*
X116900000Y56500000D02*
X129500000Y56500000D01*
X116900000Y37500000D02*
X116900000Y56500000D01*
X116900000Y37500000D02*
X129500000Y37500000D01*
X118170000Y37500000D02*
X118170000Y56500000D01*
X118170000Y37500000D02*
X118170000Y36850000D01*
X118170000Y36850000D02*
X119200000Y36850000D01*
X119200000Y36850000D02*
X119200000Y37500000D01*
X120060000Y37500000D02*
X120060000Y56500000D01*
X125090000Y37500000D02*
X125090000Y56500000D01*
X127600000Y37450000D02*
X127600000Y36800000D01*
X127600000Y36800000D02*
X128630000Y36800000D01*
X128630000Y36800000D02*
X128630000Y37450000D01*
X128760000Y37500000D02*
X128760000Y56500000D01*
X129500000Y37500000D02*
X129500000Y56500000D01*
D14*
X129660000Y36670000D02*
G75*
G02*
X129600000Y36670000I-30000J0D01*
G01*
X129600000Y36670000D02*
G75*
G02*
X129660000Y36670000I30000J0D01*
G01*
%TO.C,R2*%
D15*
X104762742Y47022500D02*
X105237258Y47022500D01*
X104762742Y45977500D02*
X105237258Y45977500D01*
%TO.C,RT1*%
X26272936Y42410000D02*
X27727064Y42410000D01*
X26272936Y40590000D02*
X27727064Y40590000D01*
%TO.C,R3*%
X99762742Y32022500D02*
X100237258Y32022500D01*
X99762742Y30977500D02*
X100237258Y30977500D01*
%TO.C,D5*%
D10*
X19140000Y31530000D02*
X19140000Y30490000D01*
X19140000Y28470000D02*
X19140000Y29510000D01*
X20860000Y31530000D02*
X19140000Y31530000D01*
X20860000Y30460000D02*
X20860000Y29540000D01*
X20860000Y28470000D02*
X19140000Y28470000D01*
D14*
X21450000Y28500000D02*
G75*
G02*
X21390000Y28500000I-30000J0D01*
G01*
X21390000Y28500000D02*
G75*
G02*
X21450000Y28500000I30000J0D01*
G01*
%TO.C,R1*%
D15*
X98762742Y47022500D02*
X99237258Y47022500D01*
X98762742Y45977500D02*
X99237258Y45977500D01*
%TO.C,C5*%
X123738748Y30735000D02*
X124261252Y30735000D01*
X123738748Y29265000D02*
X124261252Y29265000D01*
%TO.C,RB7*%
X30762742Y62522500D02*
X31237258Y62522500D01*
X30762742Y61477500D02*
X31237258Y61477500D01*
%TO.C,F0*%
D10*
X72000000Y59000000D02*
X72000000Y75000000D01*
X118000000Y75000000D02*
X72000000Y75000000D01*
X118000000Y59000000D02*
X72000000Y59000000D01*
X118000000Y59000000D02*
X118000000Y75000000D01*
%TO.C,RB5*%
D15*
X34762742Y30522500D02*
X35237258Y30522500D01*
X34762742Y29477500D02*
X35237258Y29477500D01*
%TO.C,C3*%
X117738748Y33235000D02*
X118261252Y33235000D01*
X117738748Y31765000D02*
X118261252Y31765000D01*
%TO.C,RB2*%
X38762742Y42022500D02*
X39237258Y42022500D01*
X38762742Y40977500D02*
X39237258Y40977500D01*
%TO.C,LED1*%
D17*
X7780000Y69630000D02*
X8160000Y70010000D01*
X7780000Y68360000D02*
X7780000Y69630000D01*
X8160000Y70010000D02*
X9680000Y70010000D01*
X8180000Y67960000D02*
X7780000Y68360000D01*
X9660000Y67960000D02*
X8180000Y67960000D01*
X9700000Y69000000D02*
X9800000Y68900000D01*
X9800000Y69100000D02*
X9700000Y69000000D01*
X9800000Y68900000D02*
X10200000Y68500000D01*
X10200000Y69500000D02*
X9800000Y69100000D01*
X10200000Y69500000D02*
X10200000Y68500000D01*
X10440000Y67980000D02*
X11990000Y67980000D01*
X11990000Y70010000D02*
X10440000Y70010000D01*
X11990000Y67980000D02*
X11990000Y70010000D01*
D14*
X11030000Y69630000D02*
G75*
G02*
X10970000Y69630000I-30000J0D01*
G01*
X10970000Y69630000D02*
G75*
G02*
X11030000Y69630000I30000J0D01*
G01*
%TO.C,RS2*%
D15*
X51762742Y48622500D02*
X52237258Y48622500D01*
X51762742Y47577500D02*
X52237258Y47577500D01*
%TO.C,RT4*%
X23272936Y62910000D02*
X24727064Y62910000D01*
X23272936Y61090000D02*
X24727064Y61090000D01*
%TO.C,RT2*%
X51272936Y42910000D02*
X52727064Y42910000D01*
X51272936Y41090000D02*
X52727064Y41090000D01*
%TO.C,RB8*%
X35762742Y62522500D02*
X36237258Y62522500D01*
X35762742Y61477500D02*
X36237258Y61477500D01*
%TO.C,RB1*%
X33762742Y42022500D02*
X34237258Y42022500D01*
X33762742Y40977500D02*
X34237258Y40977500D01*
%TO.C,LED3*%
D17*
X29780000Y69630000D02*
X30160000Y70010000D01*
X29780000Y68360000D02*
X29780000Y69630000D01*
X30160000Y70010000D02*
X31680000Y70010000D01*
X30180000Y67960000D02*
X29780000Y68360000D01*
X31660000Y67960000D02*
X30180000Y67960000D01*
X31700000Y69000000D02*
X31800000Y68900000D01*
X31800000Y69100000D02*
X31700000Y69000000D01*
X31800000Y68900000D02*
X32200000Y68500000D01*
X32200000Y69500000D02*
X31800000Y69100000D01*
X32200000Y69500000D02*
X32200000Y68500000D01*
X32440000Y67980000D02*
X33990000Y67980000D01*
X33990000Y70010000D02*
X32440000Y70010000D01*
X33990000Y67980000D02*
X33990000Y70010000D01*
D14*
X33030000Y69630000D02*
G75*
G02*
X32970000Y69630000I-30000J0D01*
G01*
X32970000Y69630000D02*
G75*
G02*
X33030000Y69630000I30000J0D01*
G01*
%TO.C,RB6*%
D15*
X39762742Y30522500D02*
X40237258Y30522500D01*
X39762742Y29477500D02*
X40237258Y29477500D01*
%TO.C,RS3*%
X51762742Y51152500D02*
X52237258Y51152500D01*
X51762742Y50107500D02*
X52237258Y50107500D01*
%TO.C,C4*%
X117738748Y28735000D02*
X118261252Y28735000D01*
X117738748Y27265000D02*
X118261252Y27265000D01*
%TO.C,RL4*%
X48237258Y69522500D02*
X47762742Y69522500D01*
X48237258Y68477500D02*
X47762742Y68477500D01*
%TO.C,RL5*%
X59237258Y69522500D02*
X58762742Y69522500D01*
X59237258Y68477500D02*
X58762742Y68477500D01*
%TO.C,D2*%
D10*
X66020000Y33530000D02*
X73980000Y33530000D01*
X66020000Y27470000D02*
X73980000Y27470000D01*
X67930000Y33530000D02*
X67930000Y27470000D01*
D17*
X69490000Y30500000D02*
X69490000Y29990000D01*
X69490000Y30500000D02*
X70510000Y29990000D01*
X69490000Y29990000D02*
X69490000Y31010000D01*
X70510000Y31010000D02*
X69490000Y30500000D01*
X70510000Y29990000D02*
X70510000Y31010000D01*
X71020000Y30500000D02*
X68980000Y30500000D01*
D10*
X73980000Y33530000D02*
X73980000Y32320000D01*
X73980000Y27470000D02*
X73980000Y28680000D01*
D14*
X66080000Y27550000D02*
G75*
G02*
X66020000Y27550000I-30000J0D01*
G01*
X66020000Y27550000D02*
G75*
G02*
X66080000Y27550000I30000J0D01*
G01*
D16*
G36*
X66100008Y32272412D02*
G01*
X65642808Y32272412D01*
X65642808Y33602407D01*
X66100008Y33602407D01*
X66100008Y32272412D01*
G37*
G36*
X66100008Y27397593D02*
G01*
X65642808Y27397593D01*
X65642808Y28727588D01*
X66100008Y28727588D01*
X66100008Y27397593D01*
G37*
%TO.C,RT3*%
D15*
X27272936Y30910000D02*
X28727064Y30910000D01*
X27272936Y29090000D02*
X28727064Y29090000D01*
%TO.C,U1*%
D10*
X34480000Y55030000D02*
X37520000Y55030000D01*
X34480000Y44970000D02*
X34480000Y55030000D01*
X37520000Y55030000D02*
X37520000Y44970000D01*
X37520000Y44970000D02*
X34480000Y44970000D01*
D14*
X33030000Y54950000D02*
G75*
G02*
X32970000Y54950000I-30000J0D01*
G01*
X32970000Y54950000D02*
G75*
G02*
X33030000Y54950000I30000J0D01*
G01*
D18*
X33480000Y55210000D02*
G75*
G02*
X33180000Y55210000I-150000J0D01*
G01*
X33180000Y55210000D02*
G75*
G02*
X33480000Y55210000I150000J0D01*
G01*
X35390000Y54450000D02*
G75*
G02*
X35070000Y54450000I-160000J0D01*
G01*
X35070000Y54450000D02*
G75*
G02*
X35390000Y54450000I160000J0D01*
G01*
%TO.C,U3*%
D10*
X108600000Y33400000D02*
X111400000Y33400000D01*
X108600000Y26600000D02*
X108600000Y33400000D01*
X111400000Y33400000D02*
X111400000Y26600000D01*
X111400000Y26600000D02*
X108600000Y26600000D01*
D14*
X106530000Y33250000D02*
G75*
G02*
X106470000Y33250000I-30000J0D01*
G01*
X106470000Y33250000D02*
G75*
G02*
X106530000Y33250000I30000J0D01*
G01*
%TO.C,RS4*%
D15*
X28237258Y52422500D02*
X27762742Y52422500D01*
X28237258Y51377500D02*
X27762742Y51377500D01*
%TD*%
%LPC*%
D19*
%TO.C,D1*%
X108810000Y46500000D03*
X112190000Y46500000D03*
%TD*%
D20*
%TO.C,RL1*%
X15825000Y69000000D03*
X14175000Y69000000D03*
%TD*%
D21*
%TO.C,RB3*%
X53175000Y45000000D03*
X54825000Y45000000D03*
%TD*%
D22*
%TO.C,J5*%
X80000000Y95500000D03*
X75000000Y95500000D03*
X70000000Y95500000D03*
%TD*%
D23*
%TO.C,Q1*%
X70270000Y47290000D03*
D24*
X68000000Y40710000D03*
D23*
X65730000Y47290000D03*
%TD*%
D25*
%TO.C,D6*%
X17100000Y61050000D03*
X17100000Y62950000D03*
X14900000Y62000000D03*
%TD*%
D22*
%TO.C,J12*%
X30000000Y4500000D03*
X35000000Y4500000D03*
X40000000Y4500000D03*
%TD*%
D26*
%TO.C,C1*%
X82730000Y30500000D03*
X89270000Y30500000D03*
%TD*%
D27*
%TO.C,C6*%
X40462500Y54450000D03*
X42537500Y54450000D03*
%TD*%
D22*
%TO.C,J2*%
X20000000Y95500000D03*
X15000000Y95500000D03*
X10000000Y95500000D03*
%TD*%
D28*
%TO.C,J14*%
X4929999Y56350000D03*
X4929999Y43650000D03*
D29*
X7469999Y46430000D03*
X9249999Y47450000D03*
X7469999Y48470000D03*
X9249999Y49490000D03*
X7469999Y50510000D03*
X9249999Y51530000D03*
X7469999Y52550000D03*
X9249999Y53570000D03*
%TD*%
D19*
%TO.C,D7*%
X44310000Y28000000D03*
X47690000Y28000000D03*
%TD*%
D21*
%TO.C,RB4*%
X57175000Y45000000D03*
X58825000Y45000000D03*
%TD*%
D20*
%TO.C,RL2*%
X26825000Y69000000D03*
X25175000Y69000000D03*
%TD*%
D30*
%TO.C,C2*%
X98525000Y28000000D03*
X101475000Y28000000D03*
%TD*%
D25*
%TO.C,D3*%
X21100000Y40550000D03*
X21100000Y42450000D03*
X18900000Y41500000D03*
%TD*%
D31*
%TO.C,LED2*%
X22050000Y69000000D03*
X19950000Y69000000D03*
%TD*%
D22*
%TO.C,J4*%
X60000000Y95500000D03*
X55000000Y95500000D03*
X50000000Y95500000D03*
%TD*%
D32*
%TO.C,F3*%
X60100000Y83000000D03*
X49900000Y85000000D03*
%TD*%
D25*
%TO.C,D4*%
X45100000Y41050000D03*
X45100000Y42950000D03*
X42900000Y42000000D03*
%TD*%
D23*
%TO.C,Q3*%
X86270000Y47290000D03*
D24*
X84000000Y40710000D03*
D23*
X81730000Y47290000D03*
%TD*%
D20*
%TO.C,RL3*%
X37825000Y69000000D03*
X36175000Y69000000D03*
%TD*%
D31*
%TO.C,LED4*%
X44050000Y69000000D03*
X41950000Y69000000D03*
%TD*%
D20*
%TO.C,RS1*%
X28825000Y49370000D03*
X27175000Y49370000D03*
%TD*%
D31*
%TO.C,LED5*%
X55050000Y69000000D03*
X52950000Y69000000D03*
%TD*%
D32*
%TO.C,F12*%
X49900000Y17000000D03*
X60100000Y15000000D03*
%TD*%
D33*
%TO.C,J1*%
X122400000Y42250000D03*
X122400000Y51750000D03*
%TD*%
D34*
%TO.C,H1*%
X4000000Y96000000D03*
%TD*%
%TO.C,H3*%
X4000000Y4000000D03*
%TD*%
D21*
%TO.C,R2*%
X104175000Y46500000D03*
X105825000Y46500000D03*
%TD*%
D35*
%TO.C,RT1*%
X25537500Y41500000D03*
X28462500Y41500000D03*
%TD*%
D22*
%TO.C,J10*%
X110000000Y4500000D03*
X115000000Y4500000D03*
X120000000Y4500000D03*
%TD*%
D21*
%TO.C,R3*%
X99175000Y31500000D03*
X100825000Y31500000D03*
%TD*%
D22*
%TO.C,J13*%
X50000000Y4500000D03*
X55000000Y4500000D03*
X60000000Y4500000D03*
%TD*%
%TO.C,J7*%
X120000000Y95500000D03*
X115000000Y95500000D03*
X110000000Y95500000D03*
%TD*%
D25*
%TO.C,D5*%
X21100000Y29050000D03*
X21100000Y30950000D03*
X18900000Y30000000D03*
%TD*%
D21*
%TO.C,R1*%
X98175000Y46500000D03*
X99825000Y46500000D03*
%TD*%
D27*
%TO.C,C5*%
X122962500Y30000000D03*
X125037500Y30000000D03*
%TD*%
D21*
%TO.C,RB7*%
X30175000Y62000000D03*
X31825000Y62000000D03*
%TD*%
D36*
%TO.C,F0*%
X110000000Y67000000D03*
X80000000Y67000000D03*
%TD*%
D21*
%TO.C,RB5*%
X34175000Y30000000D03*
X35825000Y30000000D03*
%TD*%
D27*
%TO.C,C3*%
X116962500Y32500000D03*
X119037500Y32500000D03*
%TD*%
D21*
%TO.C,RB2*%
X38175000Y41500000D03*
X39825000Y41500000D03*
%TD*%
D31*
%TO.C,LED1*%
X11050000Y69000000D03*
X8950000Y69000000D03*
%TD*%
D32*
%TO.C,F5*%
X100100000Y83000000D03*
X89900000Y85000000D03*
%TD*%
D21*
%TO.C,RS2*%
X51175000Y48100000D03*
X52825000Y48100000D03*
%TD*%
D32*
%TO.C,F1*%
X20100000Y83000000D03*
X9900000Y85000000D03*
%TD*%
D35*
%TO.C,RT4*%
X22537500Y62000000D03*
X25462500Y62000000D03*
%TD*%
D34*
%TO.C,H4*%
X126000000Y4000000D03*
%TD*%
D35*
%TO.C,RT2*%
X50537500Y42000000D03*
X53462500Y42000000D03*
%TD*%
D32*
%TO.C,F4*%
X80100000Y83000000D03*
X69900000Y85000000D03*
%TD*%
D21*
%TO.C,RB8*%
X35175000Y62000000D03*
X36825000Y62000000D03*
%TD*%
%TO.C,RB1*%
X33175000Y41500000D03*
X34825000Y41500000D03*
%TD*%
D31*
%TO.C,LED3*%
X33050000Y69000000D03*
X30950000Y69000000D03*
%TD*%
D21*
%TO.C,RB6*%
X39175000Y30000000D03*
X40825000Y30000000D03*
%TD*%
%TO.C,RS3*%
X51175000Y50630000D03*
X52825000Y50630000D03*
%TD*%
D34*
%TO.C,H2*%
X126000000Y96000000D03*
%TD*%
D27*
%TO.C,C4*%
X116962500Y28000000D03*
X119037500Y28000000D03*
%TD*%
D22*
%TO.C,J8*%
X70000000Y4500000D03*
X75000000Y4500000D03*
X80000000Y4500000D03*
%TD*%
%TO.C,J3*%
X40000000Y95500000D03*
X35000000Y95500000D03*
X30000000Y95500000D03*
%TD*%
D20*
%TO.C,RL4*%
X48825000Y69000000D03*
X47175000Y69000000D03*
%TD*%
D32*
%TO.C,F6*%
X120100000Y83000000D03*
X109900000Y85000000D03*
%TD*%
%TO.C,F10*%
X9900000Y17000000D03*
X20100000Y15000000D03*
%TD*%
%TO.C,F8*%
X89900000Y17000000D03*
X100100000Y15000000D03*
%TD*%
%TO.C,F9*%
X109900000Y17000000D03*
X120100000Y15000000D03*
%TD*%
D22*
%TO.C,J9*%
X90000000Y4500000D03*
X95000000Y4500000D03*
X100000000Y4500000D03*
%TD*%
D20*
%TO.C,RL5*%
X59825000Y69000000D03*
X58175000Y69000000D03*
%TD*%
D37*
%TO.C,D2*%
X66310000Y30500000D03*
X73690000Y30500000D03*
%TD*%
D35*
%TO.C,RT3*%
X26537500Y30000000D03*
X29462500Y30000000D03*
%TD*%
D32*
%TO.C,F2*%
X40100000Y83000000D03*
X29900000Y85000000D03*
%TD*%
D38*
%TO.C,U1*%
X33260000Y54450000D03*
X33260000Y53170000D03*
X33260000Y51900000D03*
X33260000Y50630000D03*
X33260000Y49370000D03*
X33260000Y48100000D03*
X33260000Y46830000D03*
X33260000Y45550000D03*
X38740000Y45550000D03*
X38740000Y46830000D03*
X38740000Y48100000D03*
X38740000Y49370000D03*
X38740000Y50630000D03*
X38740000Y51900000D03*
X38740000Y53170000D03*
X38740000Y54450000D03*
%TD*%
D23*
%TO.C,Q2*%
X78270000Y47290000D03*
D24*
X76000000Y40710000D03*
D23*
X73730000Y47290000D03*
%TD*%
D32*
%TO.C,F7*%
X69900000Y17000000D03*
X80100000Y15000000D03*
%TD*%
D23*
%TO.C,Q4*%
X94270000Y47290000D03*
D24*
X92000000Y40710000D03*
D23*
X89730000Y47290000D03*
%TD*%
D32*
%TO.C,F11*%
X29900000Y17000000D03*
X40100000Y15000000D03*
%TD*%
D22*
%TO.C,J6*%
X100000000Y95500000D03*
X95000000Y95500000D03*
X90000000Y95500000D03*
%TD*%
%TO.C,J11*%
X10000000Y4500000D03*
X15000000Y4500000D03*
X20000000Y4500000D03*
%TD*%
D39*
%TO.C,U3*%
X107140000Y32300000D03*
X107140000Y30000000D03*
X107140000Y27700000D03*
D40*
X112860000Y30000000D03*
%TD*%
D20*
%TO.C,RS4*%
X28825000Y51900000D03*
X27175000Y51900000D03*
%TD*%
%LPD*%
M02*
