M48
; DRILL file KiCad 10.0.6 date 2026-09-29T11:55:20
; FORMAT={-:-/ absolute / metric / decimal}
; #@! TF.CreationDate,2026-09-29T11:55:20-05:00
; #@! TF.GenerationSoftware,Kicad,Pcbnew,10.0.6
; #@! TF.FileFunction,MixedPlating,1,4
FMAT,2
METRIC
; #@! TA.AperFunction,Plated,PTH,ViaDrill
T1C0.300
; #@! TA.AperFunction,Plated,PTH,ComponentDrill
T2C0.500
; #@! TA.AperFunction,Plated,PTH,ComponentDrill
T3C0.900
; #@! TA.AperFunction,Plated,PTH,ComponentDrill
T4C0.914
; #@! TA.AperFunction,Plated,PTH,ComponentDrill
T5C1.100
; #@! TA.AperFunction,Plated,PTH,ComponentDrill
T6C1.100
; #@! TA.AperFunction,Plated,PTH,ComponentDrill
T7C1.400
; #@! TA.AperFunction,Plated,PTH,ComponentDrill
T8C1.800
; #@! TA.AperFunction,NonPlated,NPTH,ComponentDrill
T9C1.650
; #@! TA.AperFunction,NonPlated,NPTH,ComponentDrill
T10C2.000
; #@! TA.AperFunction,NonPlated,NPTH,ComponentDrill
T11C2.700
; #@! TA.AperFunction,NonPlated,NPTH,ComponentDrill
T12C3.200
; #@! TA.AperFunction,NonPlated,NPTH,ComponentDrill
T13C3.400
%
G90
G05
T1
X8.0Y76.525
X8.4Y87.2
X9.0Y43.5
X9.1Y56.0
X9.37Y91.71
X10.63Y91.71
X10.775Y94.5
X11.0Y70.4
X11.7Y46.5
X11.9Y91.71
X11.9Y86.29
X12.8Y60.9
X12.9Y67.9
X13.3Y55.4
X14.0Y76.525
X14.1Y68.0
X14.1Y61.6
X14.1Y46.5
X15.9Y69.7
X15.9Y62.5
X15.9Y45.9
X16.0Y64.9
X16.7Y67.9
X17.1Y53.2
X17.4Y56.5
X18.0Y76.525
X18.4Y68.1
X19.0Y59.5
X19.1Y82.5
X19.5Y95.6
X20.45Y63.26
X21.3Y53.2
X21.5Y99.8
X21.6Y65.175
X22.0Y76.525
X22.3Y55.9
X22.4Y89.0
X22.5Y99.1
X23.5Y98.4
X23.524Y63.242
X23.7Y83.4
X24.5Y97.7
X25.5Y102.6
X26.1Y84.0
X26.2Y88.1
X26.5Y101.9
X27.5Y101.2
X27.6Y89.9
X28.0Y76.525
X28.5Y100.5
X29.0Y43.5
X29.1Y56.0
X29.2Y82.5
X31.0Y87.575
X31.0Y70.4
X31.7Y46.5
X32.8Y60.9
X32.9Y67.9
X33.3Y55.4
X33.75Y109.6
X34.0Y76.525
X34.1Y68.0
X34.1Y61.6
X34.1Y46.5
X34.9Y129.4
X35.1Y128.4
X35.35Y108.9
X35.8Y124.375
X35.8Y122.825
X35.9Y69.7
X35.9Y62.5
X35.9Y45.9
X36.0Y127.975
X36.0Y64.9
X36.4Y130.3
X36.7Y128.7
X36.7Y67.9
X36.95Y96.3
X37.1Y53.2
X37.2Y131.3
X37.4Y122.0
X37.4Y56.5
X38.0Y76.525
X38.2Y127.4
X38.4Y68.1
X38.55Y106.1
X39.0Y59.5
X39.1Y126.4
X39.7Y131.7
X39.8Y123.3
X40.15Y108.2
X40.45Y63.26
X40.5Y130.1
X40.5Y127.9
X41.1Y123.3
X41.2Y131.1
X41.3Y53.2
X41.6Y65.175
X41.75Y104.0
X41.8Y126.4
X42.0Y76.525
X42.1Y123.3
X42.3Y55.9
X42.6Y122.0
X42.8Y131.3
X43.35Y103.3
X43.524Y63.242
X43.6Y130.3
X44.0Y128.2
X44.13Y120.33
X44.95Y99.1
X45.172Y127.827
X45.2Y132.7
X45.2Y130.3
X46.31Y128.018
X46.6Y128.975
X48.0Y76.525
X49.0Y43.5
X49.1Y56.0
X49.75Y98.4
X50.8Y130.3
X50.9Y129.2
X51.0Y70.4
X51.107Y128.268
X51.35Y99.8
X51.7Y46.5
X51.8Y124.375
X51.8Y122.825
X51.832Y127.207
X52.383Y128.051
X52.4Y130.3
X52.8Y60.9
X52.9Y67.9
X52.95Y100.5
X53.3Y55.4
X53.4Y122.0
X53.9Y123.3
X54.0Y131.1
X54.0Y76.525
X54.1Y68.0
X54.1Y61.6
X54.1Y46.5
X54.2Y126.4
X54.55Y102.6
X55.0Y127.4
X55.7Y131.7
X55.8Y126.4
X55.9Y69.7
X55.9Y62.5
X55.9Y45.9
X56.0Y64.9
X56.15Y97.0
X56.5Y123.3
X56.6Y130.1
X56.7Y67.9
X57.1Y53.2
X57.4Y127.9
X57.4Y56.5
X57.75Y101.2
X58.0Y76.525
X58.1Y131.0
X58.1Y123.3
X58.4Y68.1
X58.6Y122.0
X59.0Y59.5
X59.2Y82.5
X59.35Y101.9
X59.6Y128.8
X59.6Y127.8
X59.7Y130.3
X60.13Y120.33
X60.45Y63.26
X60.6Y128.1
X60.95Y111.0
X61.0Y129.0
X61.3Y53.2
X61.6Y65.175
X62.0Y76.525
X62.3Y55.9
X62.5Y95.6
X63.524Y63.242
X64.5Y105.4
X65.0Y139.3
X65.4Y89.0
X65.5Y104.7
X66.5Y104.0
X66.7Y83.4
X67.5Y103.3
X68.0Y76.525
X68.5Y108.2
X69.0Y43.5
X69.1Y56.0
X69.2Y88.1
X69.5Y107.5
X70.5Y106.8
X70.6Y89.9
X71.0Y70.4
X71.5Y106.1
X71.7Y46.5
X72.75Y110.3
X72.8Y60.9
X72.9Y67.9
X73.1Y131.0
X73.3Y55.4
X74.0Y128.7
X74.0Y87.575
X74.0Y76.525
X74.1Y68.0
X74.1Y61.6
X74.1Y46.5
X74.35Y95.6
X74.7Y131.0
X74.8Y124.375
X74.8Y122.825
X74.9Y129.3
X75.0Y127.975
X75.7Y128.7
X75.9Y69.7
X75.9Y62.5
X75.9Y45.9
X75.95Y107.5
X76.0Y64.9
X76.4Y122.0
X76.7Y127.9
X76.7Y67.9
X77.0Y130.3
X77.1Y53.2
X77.4Y56.5
X77.55Y106.8
X77.7Y127.9
X78.0Y76.525
X78.3Y131.0
X78.4Y68.1
X78.5Y123.3
X78.6Y121.1
X79.0Y59.5
X79.15Y105.4
X79.2Y126.4
X79.3Y131.7
X80.0Y127.4
X80.45Y63.26
X80.75Y104.7
X80.8Y126.4
X81.0Y131.1
X81.3Y123.3
X81.3Y53.2
X81.6Y129.5
X81.6Y122.0
X81.6Y65.175
X82.0Y76.525
X82.3Y55.9
X82.35Y97.7
X82.4Y128.975
X82.6Y130.3
X83.13Y120.33
X83.524Y63.242
X84.0Y128.975
X88.0Y76.525
X89.0Y123.475
X89.0Y120.525
X89.0Y43.5
X89.1Y56.0
X90.3Y90.2
X91.0Y70.4
X91.5Y95.6
X91.7Y46.5
X92.8Y60.9
X92.9Y67.9
X93.3Y55.4
X93.5Y111.0
X94.0Y76.525
X94.1Y68.0
X94.1Y61.6
X94.1Y46.5
X94.4Y89.0
X94.5Y110.3
X95.5Y109.6
X95.9Y69.7
X95.9Y62.5
X95.9Y45.9
X96.0Y64.9
X96.5Y108.9
X96.7Y67.9
X96.8Y87.7
X97.1Y84.6
X97.1Y53.2
X97.4Y56.5
X98.0Y76.525
X98.2Y88.1
X98.3Y140.8
X98.4Y68.1
X98.446Y135.017
X98.5Y136.0
X99.0Y59.5
X99.25Y198.0
X99.5Y132.6
X99.6Y141.6
X99.6Y89.9
X100.4Y140.0
X100.45Y63.26
X100.48Y197.3
X100.48Y196.3
X101.3Y53.2
X101.6Y65.175
X101.63Y135.4
X101.825Y183.0
X101.825Y131.5
X102.0Y142.4
X102.0Y76.525
X102.3Y55.9
X102.9Y139.8
X102.9Y135.4
X103.0Y87.575
X103.52Y197.3
X103.52Y196.3
X103.524Y63.242
X104.5Y140.6
X104.75Y198.0
X106.1Y180.7
X106.1Y151.7
X106.7Y180.9
X106.7Y173.4
X106.7Y151.9
X106.7Y144.4
X107.0Y95.6
X107.8Y178.8
X107.8Y149.8
X108.0Y76.525
X108.5Y178.1
X108.5Y149.1
X109.0Y43.5
X109.1Y56.0
X109.6Y96.3
X111.0Y70.4
X111.7Y46.5
X111.8Y183.3
X111.8Y154.3
X112.0Y90.475
X112.0Y87.525
X112.2Y97.0
X112.8Y180.7
X112.8Y151.7
X112.8Y60.9
X112.9Y67.9
X113.3Y55.4
X113.8Y180.6
X113.8Y151.6
X114.0Y183.3
X114.0Y154.3
X114.0Y76.525
X114.1Y68.0
X114.1Y61.6
X114.1Y46.5
X114.8Y97.7
X115.9Y69.7
X115.9Y62.5
X115.9Y45.9
X116.0Y163.4
X116.0Y64.9
X116.4Y183.3
X116.4Y154.3
X116.7Y67.9
X117.1Y53.2
X117.4Y56.5
X118.0Y76.525
X118.2Y87.8
X118.4Y68.1
X118.5Y163.4
X118.6Y176.8
X118.6Y175.7
X118.6Y147.8
X118.6Y146.7
X118.8Y183.3
X118.8Y154.3
X119.0Y59.5
X119.1Y82.5
X119.5Y96.3
X120.45Y63.26
X120.6Y160.725
X120.6Y131.725
X120.8Y176.8
X120.8Y175.7
X120.8Y147.8
X120.8Y146.7
X121.0Y163.4
X121.2Y183.3
X121.2Y154.3
X121.3Y178.4
X121.3Y149.4
X121.3Y53.2
X121.5Y99.8
X121.6Y65.175
X122.0Y136.6
X122.0Y76.525
X122.3Y55.9
X122.4Y89.0
X122.5Y99.1
X123.3Y146.6
X123.3Y138.2
X123.5Y98.4
X123.524Y63.242
X123.6Y160.725
X123.6Y131.725
X123.7Y83.4
X124.5Y136.6
X124.5Y97.7
X125.5Y102.6
X126.1Y84.0
X126.2Y88.1
X126.5Y101.9
X126.6Y160.725
X126.6Y131.725
X126.8Y193.2
X127.0Y136.6
X127.5Y126.5
X127.5Y101.2
X127.6Y89.9
X128.0Y76.525
X128.5Y100.5
X129.0Y43.5
X129.1Y56.0
X129.2Y82.5
X131.0Y87.575
X131.0Y70.4
X131.4Y158.0
X131.4Y146.6
X131.433Y137.076
X131.532Y134.293
X131.7Y46.5
X132.8Y60.9
X132.9Y67.9
X133.3Y55.4
X134.0Y76.525
X134.1Y68.0
X134.1Y61.6
X134.1Y46.5
X135.6Y126.5
X135.9Y69.7
X135.9Y62.5
X135.9Y45.9
X136.0Y64.9
X136.7Y67.9
X136.912Y164.0
X137.0Y126.0
X137.1Y53.2
X137.4Y56.5
X138.0Y76.525
X138.4Y68.1
X139.0Y59.5
X140.45Y63.26
X141.0Y148.0
X141.3Y53.2
X141.6Y65.175
X142.0Y76.525
X142.3Y55.9
X143.524Y63.242
X148.0Y76.525
X149.0Y43.5
X149.1Y56.0
X151.0Y70.4
X151.7Y46.5
X152.8Y60.9
X152.9Y67.9
X153.0Y126.0
X153.3Y55.4
X154.0Y76.525
X154.1Y68.0
X154.1Y61.6
X154.1Y46.5
X155.9Y69.7
X155.9Y62.5
X155.9Y45.9
X156.0Y64.9
X156.7Y67.9
X157.1Y53.2
X157.4Y56.5
X158.0Y76.525
X158.4Y68.1
X159.0Y59.5
X159.2Y82.5
X160.45Y63.26
X161.0Y126.0
X161.3Y53.2
X161.6Y65.175
X162.0Y76.525
X162.3Y55.9
X162.5Y96.3
X163.524Y63.242
X164.5Y105.4
X165.4Y89.0
X165.5Y104.7
X166.5Y104.0
X166.7Y83.4
X167.5Y103.3
X168.0Y76.525
X168.5Y108.2
X169.0Y43.5
X169.1Y56.0
X169.2Y88.1
X169.45Y198.9
X169.45Y169.5
X169.5Y107.5
X170.5Y106.8
X170.6Y89.9
X171.0Y70.4
X171.5Y106.1
X171.55Y172.2
X171.7Y46.5
X171.85Y167.55
X172.45Y169.5
X172.8Y60.9
X172.9Y67.9
X173.2Y179.1
X173.3Y55.4
X173.65Y180.3
X174.0Y87.575
X174.0Y76.525
X174.1Y68.0
X174.1Y61.6
X174.1Y46.5
X175.45Y172.65
X175.6Y178.05
X175.75Y168.6
X175.9Y69.7
X175.9Y62.5
X175.9Y45.9
X176.0Y64.9
X176.65Y171.6
X176.7Y67.9
X177.1Y53.2
X177.4Y56.5
X177.55Y172.65
X178.0Y192.95
X178.0Y76.525
X178.15Y166.95
X178.4Y68.1
X179.0Y59.5
X179.65Y169.5
X179.95Y175.5
X180.1Y185.85
X180.45Y63.26
X180.55Y175.05
X180.8Y176.775
X181.3Y53.2
X181.45Y167.55
X181.6Y192.0
X181.6Y65.175
X181.9Y169.5
X182.0Y76.525
X182.3Y55.9
X183.524Y63.242
X184.9Y181.65
X186.61Y172.0
X187.0Y185.25
X187.0Y182.4
X188.0Y76.525
X189.0Y43.5
X189.1Y56.0
X191.0Y70.4
X191.5Y96.3
X191.7Y46.5
X192.8Y60.9
X192.9Y67.9
X193.3Y55.4
X193.5Y111.0
X194.0Y76.525
X194.1Y68.0
X194.1Y61.6
X194.1Y46.5
X194.4Y89.0
X194.5Y110.3
X195.5Y109.6
X195.9Y69.7
X195.9Y62.5
X195.9Y45.9
X196.0Y64.9
X196.5Y108.9
X196.7Y67.9
X196.8Y87.7
X197.1Y84.6
X197.1Y53.2
X197.4Y56.5
X198.0Y76.525
X198.2Y88.1
X198.4Y68.1
X199.0Y59.5
X199.45Y159.45
X199.5Y126.5
X199.6Y89.9
X200.45Y63.26
X200.5Y173.25
X201.3Y53.2
X201.6Y65.175
X202.0Y76.525
X202.3Y55.9
X202.45Y159.0
X202.8Y156.5
X203.0Y87.575
X203.524Y63.242
X204.1Y156.75
X207.6Y126.5
X208.0Y76.525
X209.0Y43.5
X209.1Y56.0
X211.0Y70.4
X211.7Y46.5
X212.8Y60.9
X212.9Y67.9
X213.3Y55.4
X214.0Y76.525
X214.1Y68.0
X214.1Y61.6
X214.1Y46.5
X215.9Y69.7
X215.9Y62.5
X215.9Y45.9
X216.0Y64.9
X216.7Y67.9
X217.1Y53.2
X217.4Y56.5
X218.0Y76.525
X218.4Y68.1
X219.0Y59.5
X219.1Y82.5
X219.5Y97.0
X220.45Y63.26
X221.3Y53.2
X221.5Y99.8
X221.6Y65.175
X222.0Y76.525
X222.3Y55.9
X222.4Y89.0
X222.5Y99.1
X223.5Y98.4
X223.524Y63.242
X223.7Y83.4
X224.2Y174.15
X224.5Y97.7
X225.5Y102.6
X225.55Y174.15
X226.1Y84.0
X226.2Y88.1
X226.5Y101.9
X227.193Y179.417
X227.2Y178.35
X227.5Y101.2
X227.6Y89.9
X228.0Y76.525
X228.5Y100.5
X228.9Y173.29
X229.0Y43.5
X229.1Y56.0
X229.2Y82.5
X229.73Y193.0
X230.65Y177.9
X231.0Y87.575
X231.0Y70.4
X231.175Y185.0
X231.7Y46.5
X232.8Y60.9
X232.9Y67.9
X233.3Y55.4
X233.825Y186.0
X234.0Y76.525
X234.1Y68.0
X234.1Y61.6
X234.1Y46.5
X235.9Y69.7
X235.9Y62.5
X235.9Y45.9
X236.0Y64.9
X236.27Y193.0
X236.7Y67.9
X237.1Y53.2
X237.4Y56.5
X238.0Y76.525
X238.4Y68.1
X238.5Y195.5
X238.5Y190.4
X239.0Y59.5
X240.0Y195.5
X240.0Y190.4
X240.2Y185.275
X240.45Y63.26
X241.3Y53.2
X241.6Y65.175
X242.0Y76.525
X242.2Y195.5
X242.2Y190.4
X242.3Y55.9
X242.95Y186.45
X243.524Y63.242
X243.85Y177.0
X243.85Y175.65
X244.0Y185.5
X245.0Y185.0
X245.35Y189.6
X247.5Y190.4
X248.0Y76.525
X249.0Y43.5
X249.1Y56.0
X251.0Y70.4
X251.7Y46.5
X252.8Y60.9
X252.9Y67.9
X253.3Y55.4
X254.0Y76.525
X254.1Y68.0
X254.1Y61.6
X254.1Y46.5
X254.5Y177.0
X255.7Y177.0
X255.9Y69.7
X255.9Y62.5
X255.9Y45.9
X256.0Y64.9
X256.7Y67.9
X256.9Y177.0
X257.1Y53.2
X257.4Y56.5
X258.0Y76.525
X258.1Y177.0
X258.4Y68.1
X259.0Y59.5
X259.2Y82.5
X260.45Y63.26
X261.3Y53.2
X261.325Y185.5
X261.6Y65.175
X262.0Y76.525
X262.3Y55.9
X262.5Y97.0
X263.524Y63.242
X264.5Y105.4
X265.4Y89.0
X265.5Y104.7
X266.5Y104.0
X266.7Y83.4
X267.5Y103.3
X268.0Y76.525
X268.5Y108.2
X269.0Y43.5
X269.1Y56.0
X269.2Y88.1
X269.5Y107.5
X270.5Y106.8
X270.6Y89.9
X271.0Y70.4
X271.5Y106.1
X271.7Y46.5
X272.8Y60.9
X272.9Y67.9
X273.3Y55.4
X274.0Y87.575
X274.0Y76.525
X274.1Y68.0
X274.1Y61.6
X274.1Y46.5
X275.9Y69.7
X275.9Y62.5
X275.9Y45.9
X276.0Y64.9
X276.7Y67.9
X277.1Y53.2
X277.4Y56.5
X278.0Y76.525
X278.4Y68.1
X279.0Y59.5
X280.45Y63.26
X281.3Y53.2
X281.6Y65.175
X282.0Y76.525
X282.3Y55.9
X283.524Y63.242
X285.825Y182.5
X286.05Y186.0
X288.0Y76.525
X289.0Y43.5
X289.1Y56.0
X291.0Y70.4
X291.5Y97.0
X291.7Y46.5
X292.75Y186.9
X292.8Y60.9
X292.9Y67.9
X293.3Y55.4
X293.5Y111.0
X294.0Y76.525
X294.1Y68.0
X294.1Y61.6
X294.1Y46.5
X294.4Y89.0
X294.5Y110.3
X295.5Y109.6
X295.9Y69.7
X295.9Y62.5
X295.9Y45.9
X296.0Y64.9
X296.5Y108.9
X296.7Y67.9
X296.8Y87.7
X297.1Y84.6
X297.1Y53.2
X297.4Y56.5
X298.0Y76.525
X298.2Y88.1
X298.4Y68.1
X299.0Y59.5
X299.6Y89.9
X300.45Y63.26
X301.3Y53.2
X301.6Y65.175
X302.0Y76.525
X302.3Y55.9
X303.0Y87.575
X303.524Y63.242
T4
X11.43Y44.51
X12.45Y42.73
X13.47Y44.51
X14.49Y42.73
X15.51Y44.51
X16.53Y42.73
X17.55Y44.51
X18.57Y42.73
X31.43Y44.51
X32.45Y42.73
X33.47Y44.51
X34.49Y42.73
X35.51Y44.51
X36.53Y42.73
X37.55Y44.51
X38.57Y42.73
X51.43Y44.51
X52.45Y42.73
X53.47Y44.51
X54.49Y42.73
X55.51Y44.51
X56.53Y42.73
X57.55Y44.51
X58.57Y42.73
X71.43Y44.51
X72.45Y42.73
X73.47Y44.51
X74.49Y42.73
X75.51Y44.51
X76.53Y42.73
X77.55Y44.51
X78.57Y42.73
X91.43Y44.51
X92.45Y42.73
X93.47Y44.51
X94.49Y42.73
X95.51Y44.51
X96.53Y42.73
X97.55Y44.51
X98.57Y42.73
X111.43Y44.51
X112.45Y42.73
X113.47Y44.51
X114.49Y42.73
X115.51Y44.51
X116.53Y42.73
X117.55Y44.51
X118.57Y42.73
X131.43Y44.51
X132.45Y42.73
X133.47Y44.51
X134.49Y42.73
X135.51Y44.51
X136.53Y42.73
X137.55Y44.51
X138.57Y42.73
X151.43Y44.51
X152.45Y42.73
X153.47Y44.51
X154.49Y42.73
X155.51Y44.51
X156.53Y42.73
X157.55Y44.51
X158.57Y42.73
X171.43Y44.51
X172.45Y42.73
X173.47Y44.51
X174.49Y42.73
X175.51Y44.51
X176.53Y42.73
X177.55Y44.51
X178.57Y42.73
X191.43Y44.51
X192.45Y42.73
X193.47Y44.51
X194.49Y42.73
X195.51Y44.51
X196.53Y42.73
X197.55Y44.51
X198.57Y42.73
X211.43Y44.51
X212.45Y42.73
X213.47Y44.51
X214.49Y42.73
X215.51Y44.51
X216.53Y42.73
X217.55Y44.51
X218.57Y42.73
X231.43Y44.51
X232.45Y42.73
X233.47Y44.51
X234.49Y42.73
X235.51Y44.51
X236.53Y42.73
X237.55Y44.51
X238.57Y42.73
X251.43Y44.51
X252.45Y42.73
X253.47Y44.51
X254.49Y42.73
X255.51Y44.51
X256.53Y42.73
X257.55Y44.51
X258.57Y42.73
X271.43Y44.51
X272.45Y42.73
X273.47Y44.51
X274.49Y42.73
X275.51Y44.51
X276.53Y42.73
X277.55Y44.51
X278.57Y42.73
X291.43Y44.51
X292.45Y42.73
X293.47Y44.51
X294.49Y42.73
X295.51Y44.51
X296.53Y42.73
X297.55Y44.51
X298.57Y42.73
T5
X36.37Y137.27
X36.37Y134.73
X38.91Y137.27
X38.91Y134.73
X41.45Y137.27
X41.45Y134.73
X43.99Y137.27
X43.99Y134.73
X46.53Y137.27
X46.53Y134.73
X49.07Y137.27
X49.07Y134.73
X51.61Y137.27
X51.61Y134.73
X54.15Y137.27
X54.15Y134.73
X56.69Y137.27
X56.69Y134.73
X59.23Y137.27
X59.23Y134.73
X61.77Y137.27
X61.77Y134.73
X64.31Y137.27
X64.31Y134.73
X66.85Y137.27
X66.85Y134.73
X69.39Y137.27
X69.39Y134.73
X71.93Y137.27
X71.93Y134.73
X74.47Y137.27
X74.47Y134.73
X77.01Y137.27
X77.01Y134.73
X79.55Y137.27
X79.55Y134.73
X82.09Y137.27
X82.09Y134.73
X84.63Y137.27
X84.63Y134.73
T6
X262.19Y173.0
X264.73Y173.0
X267.27Y173.0
X269.81Y173.0
T7
X129.0Y201.5
X134.0Y201.5
X139.0Y201.5
X165.0Y201.5
X170.0Y201.5
X175.0Y201.5
X291.5Y201.5
X296.5Y201.5
T8
X269.26Y194.7
X269.26Y191.3
X282.74Y194.7
X282.74Y191.3
T9
X118.1Y200.73
X118.1Y194.69
T11
X31.5Y199.5
X31.5Y150.5
X89.5Y199.5
X89.5Y150.5
T12
X4.0Y202.0
X4.0Y4.0
X105.0Y4.0
X152.0Y202.0
X205.0Y4.0
X212.0Y202.0
X306.0Y202.0
X306.0Y4.0
T13
X8.65Y40.19
X21.35Y40.19
X28.65Y40.19
X41.35Y40.19
X48.65Y40.19
X61.35Y40.19
X68.65Y40.19
X81.35Y40.19
X88.65Y40.19
X101.35Y40.19
X108.65Y40.19
X121.35Y40.19
X128.65Y40.19
X141.35Y40.19
X148.65Y40.19
X161.35Y40.19
X168.65Y40.19
X181.35Y40.19
X188.65Y40.19
X201.35Y40.19
X208.65Y40.19
X221.35Y40.19
X228.65Y40.19
X241.35Y40.19
X248.65Y40.19
X261.35Y40.19
X268.65Y40.19
X281.35Y40.19
X288.65Y40.19
X301.35Y40.19
T2
X97.68Y202.92G85X97.68Y203.62
G05
X97.68Y199.11G85X97.68Y199.81
G05
X106.32Y202.92G85X106.32Y203.62
G05
X106.32Y199.11G85X106.32Y199.81
G05
T3
X115.5Y201.85G85X115.5Y200.85
G05
X115.5Y195.05G85X115.5Y194.05
G05
X120.31Y192.9G85X120.31Y192.4
G05
X120.5Y198.95G85X120.5Y197.95
G05
T10
X9.5Y9.25G85X9.5Y6.75
G05
X20.5Y9.25G85X20.5Y6.75
G05
X29.5Y9.25G85X29.5Y6.75
G05
X40.5Y9.25G85X40.5Y6.75
G05
X49.5Y9.25G85X49.5Y6.75
G05
X60.5Y9.25G85X60.5Y6.75
G05
X69.5Y9.25G85X69.5Y6.75
G05
X80.5Y9.25G85X80.5Y6.75
G05
X89.5Y9.25G85X89.5Y6.75
G05
X100.5Y9.25G85X100.5Y6.75
G05
X109.5Y9.25G85X109.5Y6.75
G05
X120.5Y9.25G85X120.5Y6.75
G05
X129.5Y9.25G85X129.5Y6.75
G05
X140.5Y9.25G85X140.5Y6.75
G05
X149.5Y9.25G85X149.5Y6.75
G05
X160.5Y9.25G85X160.5Y6.75
G05
X169.5Y9.25G85X169.5Y6.75
G05
X180.5Y9.25G85X180.5Y6.75
G05
X189.5Y9.25G85X189.5Y6.75
G05
X200.5Y9.25G85X200.5Y6.75
G05
X209.5Y9.25G85X209.5Y6.75
G05
X220.5Y9.25G85X220.5Y6.75
G05
X229.5Y9.25G85X229.5Y6.75
G05
X240.5Y9.25G85X240.5Y6.75
G05
X249.5Y9.25G85X249.5Y6.75
G05
X260.5Y9.25G85X260.5Y6.75
G05
X269.5Y9.25G85X269.5Y6.75
G05
X280.5Y9.25G85X280.5Y6.75
G05
X289.5Y9.25G85X289.5Y6.75
G05
X300.5Y9.25G85X300.5Y6.75
G05
M30
