%TF.GenerationSoftware,KiCad,Pcbnew,10.0.6*%
%TF.CreationDate,2026-09-29T11:55:19-05:00*%
%TF.ProjectId,difftxlarge,64696666-7478-46c6-9172-67652e6b6963,rev?*%
%TF.SameCoordinates,Original*%
%TF.FileFunction,Paste,Top*%
%TF.FilePolarity,Positive*%
%FSLAX46Y46*%
G04 Gerber Fmt 4.6, Leading zero omitted, Abs format (unit mm)*
G04 Created by KiCad (PCBNEW 10.0.6) date 2026-09-29 11:55:19*
%MOMM*%
%LPD*%
G01*
G04 APERTURE LIST*
G04 Aperture macros list*
%AMRoundRect*
0 Rectangle with rounded corners*
0 $1 Rounding radius*
0 $2 $3 $4 $5 $6 $7 $8 $9 X,Y pos of 4 corners*
0 Add a 4 corners polygon primitive as box body*
4,1,4,$2,$3,$4,$5,$6,$7,$8,$9,$2,$3,0*
0 Add four circle primitives for the rounded corners*
1,1,$1+$1,$2,$3*
1,1,$1+$1,$4,$5*
1,1,$1+$1,$6,$7*
1,1,$1+$1,$8,$9*
0 Add four rect primitives between the rounded corners*
20,1,$1+$1,$2,$3,$4,$5,0*
20,1,$1+$1,$4,$5,$6,$7,0*
20,1,$1+$1,$6,$7,$8,$9,0*
20,1,$1+$1,$8,$9,$2,$3,0*%
G04 Aperture macros list end*
%ADD10R,1.400000X1.000000*%
%ADD11RoundRect,0.200000X0.275000X-0.200000X0.275000X0.200000X-0.275000X0.200000X-0.275000X-0.200000X0*%
%ADD12R,0.532000X1.037000*%
%ADD13RoundRect,0.200000X-0.200000X-0.275000X0.200000X-0.275000X0.200000X0.275000X-0.200000X0.275000X0*%
%ADD14O,0.602000X1.971000*%
%ADD15RoundRect,0.200000X-0.275000X0.200000X-0.275000X-0.200000X0.275000X-0.200000X0.275000X0.200000X0*%
%ADD16O,0.364000X1.742000*%
%ADD17RoundRect,0.225000X-0.225000X-0.375000X0.225000X-0.375000X0.225000X0.375000X-0.225000X0.375000X0*%
%ADD18RoundRect,0.225000X0.250000X-0.225000X0.250000X0.225000X-0.250000X0.225000X-0.250000X-0.225000X0*%
%ADD19R,3.500000X2.400000*%
%ADD20RoundRect,0.250000X-0.650000X0.325000X-0.650000X-0.325000X0.650000X-0.325000X0.650000X0.325000X0*%
%ADD21R,1.000000X1.250000*%
%ADD22RoundRect,0.250000X0.650000X-0.325000X0.650000X0.325000X-0.650000X0.325000X-0.650000X-0.325000X0*%
%ADD23RoundRect,0.225000X0.225000X0.250000X-0.225000X0.250000X-0.225000X-0.250000X0.225000X-0.250000X0*%
%ADD24RoundRect,0.250000X-0.375000X-0.625000X0.375000X-0.625000X0.375000X0.625000X-0.375000X0.625000X0*%
%ADD25RoundRect,0.250000X-0.262500X-0.450000X0.262500X-0.450000X0.262500X0.450000X-0.262500X0.450000X0*%
%ADD26R,1.000000X0.650000*%
%ADD27O,0.588000X1.800000*%
%ADD28RoundRect,0.225000X-0.250000X0.225000X-0.250000X-0.225000X0.250000X-0.225000X0.250000X0.225000X0*%
%ADD29R,1.220000X0.910000*%
%ADD30RoundRect,0.225000X-0.225000X-0.250000X0.225000X-0.250000X0.225000X0.250000X-0.225000X0.250000X0*%
%ADD31O,0.568000X1.950000*%
%ADD32R,4.200000X1.400000*%
%ADD33R,1.000000X1.400000*%
%ADD34R,4.200000X3.800000*%
%ADD35R,2.000000X3.300000*%
%ADD36R,2.000000X2.000000*%
%ADD37O,0.280000X1.620000*%
%ADD38R,0.600000X0.250000*%
%ADD39R,0.250000X0.600000*%
%ADD40R,0.250000X1.700000*%
%ADD41R,0.400000X2.100000*%
%ADD42R,0.800000X0.250000*%
%ADD43R,0.700000X1.200000*%
%ADD44R,0.800000X1.200000*%
%ADD45O,1.800000X0.588000*%
%ADD46R,2.700000X3.300000*%
G04 APERTURE END LIST*
D10*
%TO.C,LED27*%
X133000000Y80750000D03*
X133000000Y78650000D03*
%TD*%
D11*
%TO.C,RA36*%
X169000000Y74875000D03*
X169000000Y76525000D03*
%TD*%
D12*
%TO.C,D51*%
X251950000Y53700000D03*
X253850000Y53700000D03*
X252900000Y55900000D03*
%TD*%
D10*
%TO.C,LED36*%
X169000000Y80750000D03*
X169000000Y78650000D03*
%TD*%
D11*
%TO.C,R45*%
X181800000Y167175000D03*
X181800000Y168825000D03*
%TD*%
D10*
%TO.C,LED34*%
X177000000Y80750000D03*
X177000000Y78650000D03*
%TD*%
D12*
%TO.C,D48*%
X227750000Y53700000D03*
X229650000Y53700000D03*
X228700000Y55900000D03*
%TD*%
D13*
%TO.C,R3*%
X231175000Y186000000D03*
X232825000Y186000000D03*
%TD*%
D10*
%TO.C,LED5*%
X41000000Y80750000D03*
X41000000Y78650000D03*
%TD*%
D12*
%TO.C,D53*%
X280350000Y53700000D03*
X282250000Y53700000D03*
X281300000Y55900000D03*
%TD*%
D14*
%TO.C,U11*%
X219450000Y68740000D03*
X218170000Y68740000D03*
X216900000Y68740000D03*
X215630000Y68740000D03*
X214370000Y68740000D03*
X213100000Y68740000D03*
X211830000Y68740000D03*
X210550000Y68740000D03*
X210550000Y63260000D03*
X211830000Y63260000D03*
X213100000Y63260000D03*
X214370000Y63260000D03*
X215630000Y63260000D03*
X216900000Y63260000D03*
X218170000Y63260000D03*
X219450000Y63260000D03*
%TD*%
D12*
%TO.C,D58*%
X296150000Y53700000D03*
X298050000Y53700000D03*
X297100000Y55900000D03*
%TD*%
D11*
%TO.C,R39*%
X169800000Y167175000D03*
X169800000Y168825000D03*
%TD*%
D15*
%TO.C,RS11*%
X80750000Y113825000D03*
X80750000Y112175000D03*
%TD*%
D11*
%TO.C,RA3*%
X13000000Y74875000D03*
X13000000Y76525000D03*
%TD*%
D10*
%TO.C,LED6*%
X37000000Y80750000D03*
X37000000Y78650000D03*
%TD*%
D16*
%TO.C,U20*%
X170930000Y91870000D03*
X170280000Y91870000D03*
X169630000Y91870000D03*
X168980000Y91870000D03*
X168320000Y91870000D03*
X167670000Y91870000D03*
X167020000Y91870000D03*
X166370000Y91870000D03*
X165720000Y91870000D03*
X165070000Y91870000D03*
X165070000Y86130000D03*
X165720000Y86130000D03*
X166370000Y86130000D03*
X167020000Y86130000D03*
X167670000Y86130000D03*
X168320000Y86130000D03*
X168980000Y86130000D03*
X169630000Y86130000D03*
X170280000Y86130000D03*
X170930000Y86130000D03*
%TD*%
D13*
%TO.C,R12*%
X106675000Y171500000D03*
X108325000Y171500000D03*
%TD*%
D16*
%TO.C,U26*%
X58930000Y124870000D03*
X58280000Y124870000D03*
X57630000Y124870000D03*
X56980000Y124870000D03*
X56320000Y124870000D03*
X55670000Y124870000D03*
X55020000Y124870000D03*
X54370000Y124870000D03*
X53720000Y124870000D03*
X53070000Y124870000D03*
X53070000Y119130000D03*
X53720000Y119130000D03*
X54370000Y119130000D03*
X55020000Y119130000D03*
X55670000Y119130000D03*
X56320000Y119130000D03*
X56980000Y119130000D03*
X57630000Y119130000D03*
X58280000Y119130000D03*
X58930000Y119130000D03*
%TD*%
D11*
%TO.C,RA59*%
X293000000Y74875000D03*
X293000000Y76525000D03*
%TD*%
%TO.C,RA38*%
X197000000Y74875000D03*
X197000000Y76525000D03*
%TD*%
D17*
%TO.C,D63*%
X290350000Y182500000D03*
X293650000Y182500000D03*
%TD*%
D15*
%TO.C,RS8*%
X54550000Y113825000D03*
X54550000Y112175000D03*
%TD*%
D18*
%TO.C,C19*%
X142600000Y63625000D03*
X142600000Y65175000D03*
%TD*%
D11*
%TO.C,RA43*%
X213000000Y74875000D03*
X213000000Y76525000D03*
%TD*%
D14*
%TO.C,U3*%
X59450000Y68740000D03*
X58170000Y68740000D03*
X56900000Y68740000D03*
X55630000Y68740000D03*
X54370000Y68740000D03*
X53100000Y68740000D03*
X51830000Y68740000D03*
X50550000Y68740000D03*
X50550000Y63260000D03*
X51830000Y63260000D03*
X53100000Y63260000D03*
X54370000Y63260000D03*
X55630000Y63260000D03*
X56900000Y63260000D03*
X58170000Y63260000D03*
X59450000Y63260000D03*
%TD*%
D18*
%TO.C,C3*%
X73800000Y122825000D03*
X73800000Y124375000D03*
%TD*%
D12*
%TO.C,D39*%
X191950000Y53700000D03*
X193850000Y53700000D03*
X192900000Y55900000D03*
%TD*%
D15*
%TO.C,RS7*%
X59350000Y113825000D03*
X59350000Y112175000D03*
%TD*%
D12*
%TO.C,D4*%
X7750000Y53700000D03*
X9650000Y53700000D03*
X8700000Y55900000D03*
%TD*%
D15*
%TO.C,RP11*%
X81400000Y130625000D03*
X81400000Y128975000D03*
%TD*%
D12*
%TO.C,D36*%
X167750000Y53700000D03*
X169650000Y53700000D03*
X168700000Y55900000D03*
%TD*%
D10*
%TO.C,LED42*%
X217000000Y80750000D03*
X217000000Y78650000D03*
%TD*%
D11*
%TO.C,RA41*%
X221000000Y74875000D03*
X221000000Y76525000D03*
%TD*%
D10*
%TO.C,LED29*%
X161000000Y80750000D03*
X161000000Y78650000D03*
%TD*%
%TO.C,LED44*%
X209000000Y80750000D03*
X209000000Y78650000D03*
%TD*%
D11*
%TO.C,RA52*%
X249000000Y74875000D03*
X249000000Y76525000D03*
%TD*%
%TO.C,RA18*%
X97000000Y74875000D03*
X97000000Y76525000D03*
%TD*%
D12*
%TO.C,D7*%
X31950000Y53700000D03*
X33850000Y53700000D03*
X32900000Y55900000D03*
%TD*%
D10*
%TO.C,LED28*%
X129000000Y80750000D03*
X129000000Y78650000D03*
%TD*%
D19*
%TO.C,L2*%
X115200000Y142950000D03*
X115200000Y136050000D03*
%TD*%
D15*
%TO.C,RS23*%
X56150000Y113825000D03*
X56150000Y112175000D03*
%TD*%
D10*
%TO.C,LED37*%
X201000000Y80750000D03*
X201000000Y78650000D03*
%TD*%
D20*
%TO.C,C55*%
X119600000Y134675000D03*
X119600000Y131725000D03*
%TD*%
D18*
%TO.C,C13*%
X22600000Y63625000D03*
X22600000Y65175000D03*
%TD*%
%TO.C,C62*%
X241200000Y183725000D03*
X241200000Y185275000D03*
%TD*%
D11*
%TO.C,RA47*%
X233000000Y74875000D03*
X233000000Y76525000D03*
%TD*%
%TO.C,RA46*%
X237000000Y74875000D03*
X237000000Y76525000D03*
%TD*%
D13*
%TO.C,R30*%
X95175000Y195000000D03*
X96825000Y195000000D03*
%TD*%
D21*
%TO.C,LED61*%
X290900000Y186000000D03*
X293100000Y186000000D03*
%TD*%
D18*
%TO.C,C4*%
X30000000Y86025000D03*
X30000000Y87575000D03*
%TD*%
D22*
%TO.C,C41*%
X115200000Y179025000D03*
X115200000Y181975000D03*
%TD*%
D23*
%TO.C,C54*%
X113175000Y151600000D03*
X111625000Y151600000D03*
%TD*%
D11*
%TO.C,RA50*%
X257000000Y74875000D03*
X257000000Y76525000D03*
%TD*%
D10*
%TO.C,LED22*%
X117000000Y80750000D03*
X117000000Y78650000D03*
%TD*%
D13*
%TO.C,R31*%
X107175000Y195000000D03*
X108825000Y195000000D03*
%TD*%
D12*
%TO.C,D46*%
X236150000Y53700000D03*
X238050000Y53700000D03*
X237100000Y55900000D03*
%TD*%
D14*
%TO.C,U9*%
X179450000Y68740000D03*
X178170000Y68740000D03*
X176900000Y68740000D03*
X175630000Y68740000D03*
X174370000Y68740000D03*
X173100000Y68740000D03*
X171830000Y68740000D03*
X170550000Y68740000D03*
X170550000Y63260000D03*
X171830000Y63260000D03*
X173100000Y63260000D03*
X174370000Y63260000D03*
X175630000Y63260000D03*
X176900000Y63260000D03*
X178170000Y63260000D03*
X179450000Y63260000D03*
%TD*%
D18*
%TO.C,C5*%
X73000000Y86025000D03*
X73000000Y87575000D03*
%TD*%
D10*
%TO.C,LED2*%
X17000000Y80750000D03*
X17000000Y78650000D03*
%TD*%
D22*
%TO.C,C43*%
X120000000Y179025000D03*
X120000000Y181975000D03*
%TD*%
D24*
%TO.C,F2*%
X180600000Y192000000D03*
X183400000Y192000000D03*
%TD*%
D22*
%TO.C,C51*%
X115200000Y150025000D03*
X115200000Y152975000D03*
%TD*%
D11*
%TO.C,RA32*%
X149000000Y74875000D03*
X149000000Y76525000D03*
%TD*%
D25*
%TO.C,RT1*%
X134087500Y164000000D03*
X135912500Y164000000D03*
%TD*%
D26*
%TO.C,Q2*%
X177000000Y191050000D03*
X177000000Y192950000D03*
X175000000Y192000000D03*
%TD*%
D15*
%TO.C,RS10*%
X41750000Y113825000D03*
X41750000Y112175000D03*
%TD*%
D10*
%TO.C,LED8*%
X29000000Y80750000D03*
X29000000Y78650000D03*
%TD*%
D15*
%TO.C,RP18*%
X34400000Y130625000D03*
X34400000Y128975000D03*
%TD*%
D18*
%TO.C,C26*%
X282600000Y63625000D03*
X282600000Y65175000D03*
%TD*%
%TO.C,C65*%
X179800000Y175225000D03*
X179800000Y176775000D03*
%TD*%
D11*
%TO.C,RA60*%
X289000000Y74875000D03*
X289000000Y76525000D03*
%TD*%
D12*
%TO.C,D12*%
X47750000Y53700000D03*
X49650000Y53700000D03*
X48700000Y55900000D03*
%TD*%
D11*
%TO.C,RA48*%
X229000000Y74875000D03*
X229000000Y76525000D03*
%TD*%
D12*
%TO.C,D10*%
X56150000Y53700000D03*
X58050000Y53700000D03*
X57100000Y55900000D03*
%TD*%
D15*
%TO.C,RS19*%
X72750000Y113825000D03*
X72750000Y112175000D03*
%TD*%
D27*
%TO.C,U31*%
X198100000Y153400000D03*
X199370000Y153400000D03*
X200630000Y153400000D03*
X201900000Y153400000D03*
X201900000Y158600000D03*
X200630000Y158600000D03*
X199370000Y158600000D03*
X198100000Y158600000D03*
%TD*%
D12*
%TO.C,D21*%
X120350000Y53700000D03*
X122250000Y53700000D03*
X121300000Y55900000D03*
%TD*%
D18*
%TO.C,C6*%
X102000000Y86025000D03*
X102000000Y87575000D03*
%TD*%
D28*
%TO.C,C50*%
X113800000Y146775000D03*
X113800000Y145225000D03*
%TD*%
D14*
%TO.C,U1*%
X19450000Y68740000D03*
X18170000Y68740000D03*
X16900000Y68740000D03*
X15630000Y68740000D03*
X14370000Y68740000D03*
X13100000Y68740000D03*
X11830000Y68740000D03*
X10550000Y68740000D03*
X10550000Y63260000D03*
X11830000Y63260000D03*
X13100000Y63260000D03*
X14370000Y63260000D03*
X15630000Y63260000D03*
X16900000Y63260000D03*
X18170000Y63260000D03*
X19450000Y63260000D03*
%TD*%
D11*
%TO.C,RA31*%
X153000000Y74875000D03*
X153000000Y76525000D03*
%TD*%
D15*
%TO.C,RS20*%
X60950000Y113825000D03*
X60950000Y112175000D03*
%TD*%
D12*
%TO.C,D20*%
X87750000Y53700000D03*
X89650000Y53700000D03*
X88700000Y55900000D03*
%TD*%
%TO.C,D54*%
X276150000Y53700000D03*
X278050000Y53700000D03*
X277100000Y55900000D03*
%TD*%
D10*
%TO.C,LED33*%
X181000000Y80750000D03*
X181000000Y78650000D03*
%TD*%
D12*
%TO.C,D19*%
X91950000Y53700000D03*
X93850000Y53700000D03*
X92900000Y55900000D03*
%TD*%
D21*
%TO.C,LED65*%
X184900000Y185500000D03*
X187100000Y185500000D03*
%TD*%
D11*
%TO.C,R37*%
X165000000Y167175000D03*
X165000000Y168825000D03*
%TD*%
D12*
%TO.C,D3*%
X11950000Y53700000D03*
X13850000Y53700000D03*
X12900000Y55900000D03*
%TD*%
D11*
%TO.C,RA22*%
X117000000Y74875000D03*
X117000000Y76525000D03*
%TD*%
%TO.C,RA23*%
X113000000Y74875000D03*
X113000000Y76525000D03*
%TD*%
D29*
%TO.C,D61*%
X252500000Y183860000D03*
X252500000Y187140000D03*
%TD*%
D15*
%TO.C,RP8*%
X55200000Y130625000D03*
X55200000Y128975000D03*
%TD*%
D27*
%TO.C,U34*%
X173100000Y173400000D03*
X174370000Y173400000D03*
X175630000Y173400000D03*
X176900000Y173400000D03*
X176900000Y178600000D03*
X175630000Y178600000D03*
X174370000Y178600000D03*
X173100000Y178600000D03*
%TD*%
D10*
%TO.C,LED15*%
X73000000Y80750000D03*
X73000000Y78650000D03*
%TD*%
D11*
%TO.C,RA53*%
X281000000Y74875000D03*
X281000000Y76525000D03*
%TD*%
D20*
%TO.C,C45*%
X119600000Y163675000D03*
X119600000Y160725000D03*
%TD*%
D16*
%TO.C,U23*%
X270930000Y91870000D03*
X270280000Y91870000D03*
X269630000Y91870000D03*
X268980000Y91870000D03*
X268320000Y91870000D03*
X267670000Y91870000D03*
X267020000Y91870000D03*
X266370000Y91870000D03*
X265720000Y91870000D03*
X265070000Y91870000D03*
X265070000Y86130000D03*
X265720000Y86130000D03*
X266370000Y86130000D03*
X267020000Y86130000D03*
X267670000Y86130000D03*
X268320000Y86130000D03*
X268980000Y86130000D03*
X269630000Y86130000D03*
X270280000Y86130000D03*
X270930000Y86130000D03*
%TD*%
D18*
%TO.C,C27*%
X302600000Y63625000D03*
X302600000Y65175000D03*
%TD*%
D10*
%TO.C,LED59*%
X293000000Y80750000D03*
X293000000Y78650000D03*
%TD*%
%TO.C,LED49*%
X261000000Y80750000D03*
X261000000Y78650000D03*
%TD*%
D12*
%TO.C,D35*%
X171950000Y53700000D03*
X173850000Y53700000D03*
X172900000Y55900000D03*
%TD*%
%TO.C,D47*%
X231950000Y53700000D03*
X233850000Y53700000D03*
X232900000Y55900000D03*
%TD*%
D11*
%TO.C,RA35*%
X173000000Y74875000D03*
X173000000Y76525000D03*
%TD*%
D10*
%TO.C,LED11*%
X53000000Y80750000D03*
X53000000Y78650000D03*
%TD*%
D12*
%TO.C,D22*%
X116150000Y53700000D03*
X118050000Y53700000D03*
X117100000Y55900000D03*
%TD*%
D11*
%TO.C,R41*%
X174600000Y167175000D03*
X174600000Y168825000D03*
%TD*%
D15*
%TO.C,RP9*%
X44000000Y130625000D03*
X44000000Y128975000D03*
%TD*%
D11*
%TO.C,RA25*%
X141000000Y74875000D03*
X141000000Y76525000D03*
%TD*%
D15*
%TO.C,RP12*%
X79800000Y130625000D03*
X79800000Y128975000D03*
%TD*%
D10*
%TO.C,LED24*%
X109000000Y80750000D03*
X109000000Y78650000D03*
%TD*%
D12*
%TO.C,D28*%
X127749999Y53700000D03*
X129649999Y53700000D03*
X128699999Y55900000D03*
%TD*%
D11*
%TO.C,RA57*%
X301000000Y74875000D03*
X301000000Y76525000D03*
%TD*%
D12*
%TO.C,D59*%
X291950000Y53700000D03*
X293850000Y53700000D03*
X292900000Y55900000D03*
%TD*%
D18*
%TO.C,C16*%
X82600000Y63625000D03*
X82600000Y65175000D03*
%TD*%
D15*
%TO.C,RP4*%
X52000000Y130625000D03*
X52000000Y128975000D03*
%TD*%
D12*
%TO.C,D31*%
X151950000Y53700000D03*
X153850000Y53700000D03*
X152900000Y55900000D03*
%TD*%
D10*
%TO.C,LED41*%
X221000000Y80750000D03*
X221000000Y78650000D03*
%TD*%
D13*
%TO.C,R20*%
X106675000Y144500000D03*
X108325000Y144500000D03*
%TD*%
D12*
%TO.C,D23*%
X111950000Y53700000D03*
X113850000Y53700000D03*
X112900000Y55900000D03*
%TD*%
%TO.C,D5*%
X40350000Y53700000D03*
X42250000Y53700000D03*
X41300000Y55900000D03*
%TD*%
D20*
%TO.C,C57*%
X125600000Y134675000D03*
X125600000Y131725000D03*
%TD*%
D30*
%TO.C,C63*%
X8225000Y94500000D03*
X9775000Y94500000D03*
%TD*%
D11*
%TO.C,RA28*%
X129000000Y74875000D03*
X129000000Y76525000D03*
%TD*%
D12*
%TO.C,D1*%
X20350000Y53700000D03*
X22250000Y53700000D03*
X21300000Y55900000D03*
%TD*%
D15*
%TO.C,RP15*%
X76600000Y130625000D03*
X76600000Y128975000D03*
%TD*%
D31*
%TO.C,U32*%
X7100000Y86290000D03*
X8370000Y86290000D03*
X9630000Y86290000D03*
X10900000Y86290000D03*
X10900000Y91710000D03*
X9630000Y91710000D03*
X8370000Y91710000D03*
X7100000Y91710000D03*
%TD*%
D10*
%TO.C,LED14*%
X77000000Y80750000D03*
X77000000Y78650000D03*
%TD*%
%TO.C,LED45*%
X241000000Y80750000D03*
X241000000Y78650000D03*
%TD*%
D11*
%TO.C,RA10*%
X57000000Y74875000D03*
X57000000Y76525000D03*
%TD*%
D15*
%TO.C,RS1*%
X82350000Y113825000D03*
X82350000Y112175000D03*
%TD*%
D18*
%TO.C,C24*%
X242600000Y63625000D03*
X242600000Y65175000D03*
%TD*%
D12*
%TO.C,D17*%
X100350000Y53700000D03*
X102250000Y53700000D03*
X101300000Y55900000D03*
%TD*%
D15*
%TO.C,RS14*%
X77550000Y113825000D03*
X77550000Y112175000D03*
%TD*%
D10*
%TO.C,LED56*%
X269000000Y80750000D03*
X269000000Y78650000D03*
%TD*%
D11*
%TO.C,RA1*%
X21000000Y74875000D03*
X21000000Y76525000D03*
%TD*%
D13*
%TO.C,R24*%
X106675000Y150000000D03*
X108325000Y150000000D03*
%TD*%
D10*
%TO.C,LED18*%
X97000000Y80750000D03*
X97000000Y78650000D03*
%TD*%
D11*
%TO.C,RA55*%
X273000000Y74875000D03*
X273000000Y76525000D03*
%TD*%
D12*
%TO.C,D42*%
X216150000Y53700000D03*
X218050000Y53700000D03*
X217100000Y55900000D03*
%TD*%
%TO.C,D18*%
X96150000Y53700000D03*
X98050000Y53700000D03*
X97100000Y55900000D03*
%TD*%
D11*
%TO.C,RA6*%
X37000000Y74875000D03*
X37000000Y76525000D03*
%TD*%
D12*
%TO.C,D56*%
X267750000Y53700000D03*
X269650000Y53700000D03*
X268700000Y55900000D03*
%TD*%
D14*
%TO.C,U6*%
X119450000Y68740000D03*
X118170000Y68740000D03*
X116900000Y68740000D03*
X115630000Y68740000D03*
X114370000Y68740000D03*
X113100000Y68740000D03*
X111830000Y68740000D03*
X110550000Y68740000D03*
X110550000Y63260000D03*
X111830000Y63260000D03*
X113100000Y63260000D03*
X114370000Y63260000D03*
X115630000Y63260000D03*
X116900000Y63260000D03*
X118170000Y63260000D03*
X119450000Y63260000D03*
%TD*%
D15*
%TO.C,RP20*%
X61600000Y130625000D03*
X61600000Y128975000D03*
%TD*%
D12*
%TO.C,D27*%
X131950000Y53700000D03*
X133850000Y53700000D03*
X132900000Y55900000D03*
%TD*%
D10*
%TO.C,LED19*%
X93000000Y80750000D03*
X93000000Y78650000D03*
%TD*%
D18*
%TO.C,C8*%
X173000000Y86025000D03*
X173000000Y87575000D03*
%TD*%
D32*
%TO.C,C32*%
X228730000Y193000000D03*
X235270000Y193000000D03*
%TD*%
D33*
%TO.C,LED63*%
X101050000Y186000000D03*
X98950000Y186000000D03*
%TD*%
D10*
%TO.C,LED26*%
X137000000Y80750000D03*
X137000000Y78650000D03*
%TD*%
D15*
%TO.C,RS2*%
X49750000Y113825000D03*
X49750000Y112175000D03*
%TD*%
D14*
%TO.C,U15*%
X299450000Y68740000D03*
X298170000Y68740000D03*
X296900000Y68740000D03*
X295630000Y68740000D03*
X294370000Y68740000D03*
X293100000Y68740000D03*
X291830000Y68740000D03*
X290550000Y68740000D03*
X290550000Y63260000D03*
X291830000Y63260000D03*
X293100000Y63260000D03*
X294370000Y63260000D03*
X295630000Y63260000D03*
X296900000Y63260000D03*
X298170000Y63260000D03*
X299450000Y63260000D03*
%TD*%
D11*
%TO.C,R40*%
X172200000Y167175000D03*
X172200000Y168825000D03*
%TD*%
D16*
%TO.C,U19*%
X127930000Y91870000D03*
X127280000Y91870000D03*
X126630000Y91870000D03*
X125980000Y91870000D03*
X125320000Y91870000D03*
X124670000Y91870000D03*
X124020000Y91870000D03*
X123370000Y91870000D03*
X122720000Y91870000D03*
X122070000Y91870000D03*
X122070000Y86130000D03*
X122720000Y86130000D03*
X123370000Y86130000D03*
X124020000Y86130000D03*
X124670000Y86130000D03*
X125320000Y86130000D03*
X125980000Y86130000D03*
X126630000Y86130000D03*
X127280000Y86130000D03*
X127930000Y86130000D03*
%TD*%
D12*
%TO.C,D32*%
X147750000Y53700000D03*
X149650000Y53700000D03*
X148700000Y55900000D03*
%TD*%
D10*
%TO.C,LED55*%
X273000000Y80750000D03*
X273000000Y78650000D03*
%TD*%
D12*
%TO.C,D25*%
X140350000Y53700000D03*
X142250000Y53700000D03*
X141300000Y55900000D03*
%TD*%
D10*
%TO.C,LED17*%
X101000000Y80750000D03*
X101000000Y78650000D03*
%TD*%
D13*
%TO.C,R13*%
X106675000Y181000000D03*
X108325000Y181000000D03*
%TD*%
D16*
%TO.C,U22*%
X227930000Y91870000D03*
X227280000Y91870000D03*
X226630000Y91870000D03*
X225980000Y91870000D03*
X225320000Y91870000D03*
X224670000Y91870000D03*
X224020000Y91870000D03*
X223370000Y91870000D03*
X222720000Y91870000D03*
X222070000Y91870000D03*
X222070000Y86130000D03*
X222720000Y86130000D03*
X223370000Y86130000D03*
X224020000Y86130000D03*
X224670000Y86130000D03*
X225320000Y86130000D03*
X225980000Y86130000D03*
X226630000Y86130000D03*
X227280000Y86130000D03*
X227930000Y86130000D03*
%TD*%
D12*
%TO.C,D30*%
X156150000Y53700000D03*
X158050000Y53700000D03*
X157100000Y55900000D03*
%TD*%
D13*
%TO.C,R22*%
X106675000Y142500000D03*
X108325000Y142500000D03*
%TD*%
D18*
%TO.C,C23*%
X222600000Y63625000D03*
X222600000Y65175000D03*
%TD*%
D11*
%TO.C,RA33*%
X181000000Y74875000D03*
X181000000Y76525000D03*
%TD*%
D15*
%TO.C,RS21*%
X74350000Y113825000D03*
X74350000Y112175000D03*
%TD*%
%TO.C,RP23*%
X56800000Y130625000D03*
X56800000Y128975000D03*
%TD*%
D18*
%TO.C,C10*%
X230000000Y86025000D03*
X230000000Y87575000D03*
%TD*%
D10*
%TO.C,LED46*%
X237000000Y80750000D03*
X237000000Y78650000D03*
%TD*%
D18*
%TO.C,C1*%
X34800000Y122825000D03*
X34800000Y124375000D03*
%TD*%
D12*
%TO.C,D24*%
X107750000Y53700000D03*
X109650000Y53700000D03*
X108700000Y55900000D03*
%TD*%
D14*
%TO.C,U5*%
X99450000Y68740000D03*
X98170000Y68740000D03*
X96900000Y68740000D03*
X95630000Y68740000D03*
X94370000Y68740000D03*
X93100000Y68740000D03*
X91830000Y68740000D03*
X90550000Y68740000D03*
X90550000Y63260000D03*
X91830000Y63260000D03*
X93100000Y63260000D03*
X94370000Y63260000D03*
X95630000Y63260000D03*
X96900000Y63260000D03*
X98170000Y63260000D03*
X99450000Y63260000D03*
%TD*%
D11*
%TO.C,RA15*%
X73000000Y74875000D03*
X73000000Y76525000D03*
%TD*%
D23*
%TO.C,C44*%
X113175000Y180600000D03*
X111625000Y180600000D03*
%TD*%
D10*
%TO.C,LED31*%
X153000000Y80750000D03*
X153000000Y78650000D03*
%TD*%
D11*
%TO.C,R46*%
X126500000Y191175000D03*
X126500000Y192825000D03*
%TD*%
D10*
%TO.C,LED52*%
X249000000Y80750000D03*
X249000000Y78650000D03*
%TD*%
D34*
%TO.C,BT1*%
X214390000Y172000000D03*
X185610000Y172000000D03*
%TD*%
D22*
%TO.C,C31*%
X88000000Y120525000D03*
X88000000Y123475000D03*
%TD*%
D15*
%TO.C,RP17*%
X36000000Y130625000D03*
X36000000Y128975000D03*
%TD*%
D10*
%TO.C,LED50*%
X257000000Y80750000D03*
X257000000Y78650000D03*
%TD*%
D13*
%TO.C,R1*%
X258675000Y185500000D03*
X260325000Y185500000D03*
%TD*%
D11*
%TO.C,RA5*%
X41000000Y74875000D03*
X41000000Y76525000D03*
%TD*%
D18*
%TO.C,C61*%
X204800000Y155225000D03*
X204800000Y156775000D03*
%TD*%
D22*
%TO.C,C53*%
X120000000Y150025000D03*
X120000000Y152975000D03*
%TD*%
D20*
%TO.C,C56*%
X122600000Y134675000D03*
X122600000Y131725000D03*
%TD*%
D15*
%TO.C,RS17*%
X35350000Y113825000D03*
X35350000Y112175000D03*
%TD*%
D18*
%TO.C,C22*%
X202600000Y63625000D03*
X202600000Y65175000D03*
%TD*%
D13*
%TO.C,R49*%
X189175000Y182000000D03*
X190825000Y182000000D03*
%TD*%
D14*
%TO.C,U4*%
X79450000Y68740000D03*
X78170000Y68740000D03*
X76900000Y68740000D03*
X75630000Y68740000D03*
X74370000Y68740000D03*
X73100000Y68740000D03*
X71830000Y68740000D03*
X70550000Y68740000D03*
X70550000Y63260000D03*
X71830000Y63260000D03*
X73100000Y63260000D03*
X74370000Y63260000D03*
X75630000Y63260000D03*
X76900000Y63260000D03*
X78170000Y63260000D03*
X79450000Y63260000D03*
%TD*%
D10*
%TO.C,LED20*%
X89000000Y80750000D03*
X89000000Y78650000D03*
%TD*%
D15*
%TO.C,RP7*%
X60000000Y130625000D03*
X60000000Y128975000D03*
%TD*%
D11*
%TO.C,RA16*%
X69000000Y74875000D03*
X69000000Y76525000D03*
%TD*%
D13*
%TO.C,R14*%
X106675000Y179000000D03*
X108325000Y179000000D03*
%TD*%
D12*
%TO.C,D34*%
X176150000Y53700000D03*
X178050000Y53700000D03*
X177100000Y55900000D03*
%TD*%
D10*
%TO.C,LED47*%
X233000000Y80750000D03*
X233000000Y78650000D03*
%TD*%
D19*
%TO.C,L1*%
X115200000Y171950000D03*
X115200000Y165050000D03*
%TD*%
D12*
%TO.C,D9*%
X60350000Y53700000D03*
X62250000Y53700000D03*
X61300000Y55900000D03*
%TD*%
D11*
%TO.C,RA14*%
X77000000Y74875000D03*
X77000000Y76525000D03*
%TD*%
%TO.C,R38*%
X167400000Y167175000D03*
X167400000Y168825000D03*
%TD*%
D14*
%TO.C,U12*%
X239450000Y68740000D03*
X238170000Y68740000D03*
X236900000Y68740000D03*
X235630000Y68740000D03*
X234370000Y68740000D03*
X233100000Y68740000D03*
X231830000Y68740000D03*
X230550000Y68740000D03*
X230550000Y63260000D03*
X231830000Y63260000D03*
X233100000Y63260000D03*
X234370000Y63260000D03*
X235630000Y63260000D03*
X236900000Y63260000D03*
X238170000Y63260000D03*
X239450000Y63260000D03*
%TD*%
D11*
%TO.C,RA30*%
X157000000Y74875000D03*
X157000000Y76525000D03*
%TD*%
D27*
%TO.C,U35*%
X98100000Y135400000D03*
X99370000Y135400000D03*
X100630000Y135400000D03*
X101900000Y135400000D03*
X101900000Y140600000D03*
X100630000Y140600000D03*
X99370000Y140600000D03*
X98100000Y140600000D03*
%TD*%
D18*
%TO.C,C14*%
X42600000Y63625000D03*
X42600000Y65175000D03*
%TD*%
D15*
%TO.C,RS22*%
X36950000Y113825000D03*
X36950000Y112175000D03*
%TD*%
D16*
%TO.C,U18*%
X99930000Y91870000D03*
X99280000Y91870000D03*
X98630000Y91870000D03*
X97980000Y91870000D03*
X97320000Y91870000D03*
X96670000Y91870000D03*
X96020000Y91870000D03*
X95370000Y91870000D03*
X94720000Y91870000D03*
X94070000Y91870000D03*
X94070000Y86130000D03*
X94720000Y86130000D03*
X95370000Y86130000D03*
X96020000Y86130000D03*
X96670000Y86130000D03*
X97320000Y86130000D03*
X97980000Y86130000D03*
X98630000Y86130000D03*
X99280000Y86130000D03*
X99930000Y86130000D03*
%TD*%
D11*
%TO.C,RA4*%
X9000000Y74875000D03*
X9000000Y76525000D03*
%TD*%
D16*
%TO.C,U24*%
X299930000Y91870000D03*
X299280000Y91870000D03*
X298630000Y91870000D03*
X297980000Y91870000D03*
X297320000Y91870000D03*
X296670000Y91870000D03*
X296020000Y91870000D03*
X295370000Y91870000D03*
X294720000Y91870000D03*
X294070000Y91870000D03*
X294070000Y86130000D03*
X294720000Y86130000D03*
X295370000Y86130000D03*
X296020000Y86130000D03*
X296670000Y86130000D03*
X297320000Y86130000D03*
X297980000Y86130000D03*
X298630000Y86130000D03*
X299280000Y86130000D03*
X299930000Y86130000D03*
%TD*%
D12*
%TO.C,D49*%
X260350000Y53700000D03*
X262250000Y53700000D03*
X261300000Y55900000D03*
%TD*%
D33*
%TO.C,LED64*%
X131050000Y138000000D03*
X128950000Y138000000D03*
%TD*%
D11*
%TO.C,R43*%
X179400000Y167175000D03*
X179400000Y168825000D03*
%TD*%
D13*
%TO.C,R11*%
X106675000Y177500000D03*
X108325000Y177500000D03*
%TD*%
D10*
%TO.C,LED7*%
X33000000Y80750000D03*
X33000000Y78650000D03*
%TD*%
D11*
%TO.C,RA45*%
X241000000Y74875000D03*
X241000000Y76525000D03*
%TD*%
D12*
%TO.C,D15*%
X71950000Y53700000D03*
X73850000Y53700000D03*
X72900000Y55900000D03*
%TD*%
D11*
%TO.C,RA51*%
X253000000Y74875000D03*
X253000000Y76525000D03*
%TD*%
D10*
%TO.C,LED57*%
X301000000Y80750000D03*
X301000000Y78650000D03*
%TD*%
D12*
%TO.C,D14*%
X76150000Y53700000D03*
X78050000Y53700000D03*
X77100000Y55900000D03*
%TD*%
D11*
%TO.C,RA34*%
X177000000Y74875000D03*
X177000000Y76525000D03*
%TD*%
%TO.C,R48*%
X184200000Y167175000D03*
X184200000Y168825000D03*
%TD*%
%TO.C,RA2*%
X17000000Y74875000D03*
X17000000Y76525000D03*
%TD*%
D35*
%TO.C,R2*%
X248070000Y193000000D03*
X241930000Y193000000D03*
%TD*%
D12*
%TO.C,D45*%
X240350000Y53700000D03*
X242250000Y53700000D03*
X241300000Y55900000D03*
%TD*%
D11*
%TO.C,RA17*%
X101000000Y74875000D03*
X101000000Y76525000D03*
%TD*%
D12*
%TO.C,D16*%
X67750000Y53700000D03*
X69650000Y53700000D03*
X68700000Y55900000D03*
%TD*%
D14*
%TO.C,U10*%
X199450000Y68740000D03*
X198170000Y68740000D03*
X196900000Y68740000D03*
X195630000Y68740000D03*
X194370000Y68740000D03*
X193100000Y68740000D03*
X191830000Y68740000D03*
X190550000Y68740000D03*
X190550000Y63260000D03*
X191830000Y63260000D03*
X193100000Y63260000D03*
X194370000Y63260000D03*
X195630000Y63260000D03*
X196900000Y63260000D03*
X198170000Y63260000D03*
X199450000Y63260000D03*
%TD*%
D11*
%TO.C,RA7*%
X33000000Y74875000D03*
X33000000Y76525000D03*
%TD*%
D36*
%TO.C,D64*%
X161800000Y192000000D03*
X166200000Y192000000D03*
%TD*%
D16*
%TO.C,U21*%
X199930000Y91870000D03*
X199280000Y91870000D03*
X198630000Y91870000D03*
X197980000Y91870000D03*
X197320000Y91870000D03*
X196670000Y91870000D03*
X196020000Y91870000D03*
X195370000Y91870000D03*
X194720000Y91870000D03*
X194070000Y91870000D03*
X194070000Y86130000D03*
X194720000Y86130000D03*
X195370000Y86130000D03*
X196020000Y86130000D03*
X196670000Y86130000D03*
X197320000Y86130000D03*
X197980000Y86130000D03*
X198630000Y86130000D03*
X199280000Y86130000D03*
X199930000Y86130000D03*
%TD*%
D14*
%TO.C,U2*%
X39450000Y68740000D03*
X38170000Y68740000D03*
X36900000Y68740000D03*
X35630000Y68740000D03*
X34370000Y68740000D03*
X33100000Y68740000D03*
X31830000Y68740000D03*
X30550000Y68740000D03*
X30550000Y63260000D03*
X31830000Y63260000D03*
X33100000Y63260000D03*
X34370000Y63260000D03*
X35630000Y63260000D03*
X36900000Y63260000D03*
X38170000Y63260000D03*
X39450000Y63260000D03*
%TD*%
D31*
%TO.C,U33*%
X224100000Y173290000D03*
X225370000Y173290000D03*
X226630000Y173290000D03*
X227900000Y173290000D03*
X227900000Y178710000D03*
X226630000Y178710000D03*
X225370000Y178710000D03*
X224100000Y178710000D03*
%TD*%
D37*
%TO.C,U30*%
X244000000Y182890000D03*
X244500000Y182890000D03*
X245000000Y182890000D03*
X245500000Y182890000D03*
X246000000Y182890000D03*
X246000000Y187110000D03*
X245500000Y187110000D03*
X245000000Y187110000D03*
X244500000Y187110000D03*
X244000000Y187110000D03*
%TD*%
D10*
%TO.C,LED1*%
X21000000Y80750000D03*
X21000000Y78650000D03*
%TD*%
D15*
%TO.C,RS4*%
X51350000Y113825000D03*
X51350000Y112175000D03*
%TD*%
%TO.C,RS9*%
X43350000Y113825000D03*
X43350000Y112175000D03*
%TD*%
D18*
%TO.C,C20*%
X162600000Y63625000D03*
X162600000Y65175000D03*
%TD*%
D28*
%TO.C,C40*%
X113800000Y175775000D03*
X113800000Y174225000D03*
%TD*%
D11*
%TO.C,RA20*%
X89000000Y74875000D03*
X89000000Y76525000D03*
%TD*%
%TO.C,R47*%
X129000000Y191175000D03*
X129000000Y192825000D03*
%TD*%
D12*
%TO.C,D33*%
X180350000Y53700000D03*
X182250000Y53700000D03*
X181300000Y55900000D03*
%TD*%
%TO.C,D55*%
X271950000Y53700000D03*
X273850000Y53700000D03*
X272900000Y55900000D03*
%TD*%
D10*
%TO.C,LED38*%
X197000000Y80750000D03*
X197000000Y78650000D03*
%TD*%
%TO.C,LED40*%
X189000000Y80750000D03*
X189000000Y78650000D03*
%TD*%
D12*
%TO.C,D13*%
X80350000Y53700000D03*
X82250000Y53700000D03*
X81300000Y55900000D03*
%TD*%
D11*
%TO.C,RA24*%
X109000000Y74875000D03*
X109000000Y76525000D03*
%TD*%
D13*
%TO.C,R10*%
X106675000Y173500000D03*
X108325000Y173500000D03*
%TD*%
D12*
%TO.C,D57*%
X300350000Y53700000D03*
X302250000Y53700000D03*
X301300000Y55900000D03*
%TD*%
D11*
%TO.C,RA56*%
X269000000Y74875000D03*
X269000000Y76525000D03*
%TD*%
D30*
%TO.C,C48*%
X106725000Y175500000D03*
X108275000Y175500000D03*
%TD*%
D16*
%TO.C,U25*%
X42930000Y124870000D03*
X42280000Y124870000D03*
X41630000Y124870000D03*
X40980000Y124870000D03*
X40320000Y124870000D03*
X39670000Y124870000D03*
X39020000Y124870000D03*
X38370000Y124870000D03*
X37720000Y124870000D03*
X37070000Y124870000D03*
X37070000Y119130000D03*
X37720000Y119130000D03*
X38370000Y119130000D03*
X39020000Y119130000D03*
X39670000Y119130000D03*
X40320000Y119130000D03*
X40980000Y119130000D03*
X41630000Y119130000D03*
X42280000Y119130000D03*
X42930000Y119130000D03*
%TD*%
D14*
%TO.C,U13*%
X259450000Y68740000D03*
X258170000Y68740000D03*
X256900000Y68740000D03*
X255630000Y68740000D03*
X254370000Y68740000D03*
X253100000Y68740000D03*
X251830000Y68740000D03*
X250550000Y68740000D03*
X250550000Y63260000D03*
X251830000Y63260000D03*
X253100000Y63260000D03*
X254370000Y63260000D03*
X255630000Y63260000D03*
X256900000Y63260000D03*
X258170000Y63260000D03*
X259450000Y63260000D03*
%TD*%
D11*
%TO.C,R42*%
X177000000Y167175000D03*
X177000000Y168825000D03*
%TD*%
D12*
%TO.C,D50*%
X256150000Y53700000D03*
X258050000Y53700000D03*
X257100000Y55900000D03*
%TD*%
%TO.C,D11*%
X51950000Y53700000D03*
X53850000Y53700000D03*
X52900000Y55900000D03*
%TD*%
%TO.C,D8*%
X27750000Y53700000D03*
X29650000Y53700000D03*
X28700000Y55900000D03*
%TD*%
D13*
%TO.C,R5*%
X283175000Y182500000D03*
X284825000Y182500000D03*
%TD*%
D18*
%TO.C,C64*%
X230800000Y175225000D03*
X230800000Y176775000D03*
%TD*%
%TO.C,C9*%
X202000000Y86025000D03*
X202000000Y87575000D03*
%TD*%
D15*
%TO.C,RP1*%
X83000000Y130625000D03*
X83000000Y128975000D03*
%TD*%
D10*
%TO.C,LED39*%
X193000000Y80750000D03*
X193000000Y78650000D03*
%TD*%
%TO.C,LED54*%
X277000000Y80750000D03*
X277000000Y78650000D03*
%TD*%
D12*
%TO.C,D29*%
X160350000Y53700000D03*
X162250000Y53700000D03*
X161300000Y55900000D03*
%TD*%
D11*
%TO.C,RA29*%
X161000000Y74875000D03*
X161000000Y76525000D03*
%TD*%
D10*
%TO.C,LED3*%
X13000000Y80750000D03*
X13000000Y78650000D03*
%TD*%
D13*
%TO.C,R33*%
X129175000Y135000000D03*
X130825000Y135000000D03*
%TD*%
D22*
%TO.C,C28*%
X111000000Y87525000D03*
X111000000Y90475000D03*
%TD*%
D11*
%TO.C,RA19*%
X93000000Y74875000D03*
X93000000Y76525000D03*
%TD*%
D38*
%TO.C,U29*%
X110640000Y149750000D03*
X110640000Y149250000D03*
X110640000Y148750000D03*
X110640000Y148250000D03*
D39*
X111110000Y147600000D03*
D40*
X112410000Y148150000D03*
D39*
X112910000Y147600000D03*
D41*
X112990000Y149650000D03*
D42*
X113360000Y149750000D03*
X113360000Y149250000D03*
X113360000Y148750000D03*
D41*
X111830000Y149650000D03*
D39*
X111110000Y150400000D03*
%TD*%
D13*
%TO.C,R21*%
X106675000Y148500000D03*
X108325000Y148500000D03*
%TD*%
D18*
%TO.C,C18*%
X122600000Y63625000D03*
X122600000Y65175000D03*
%TD*%
D15*
%TO.C,RP6*%
X58400000Y130625000D03*
X58400000Y128975000D03*
%TD*%
D11*
%TO.C,RA44*%
X209000000Y74875000D03*
X209000000Y76525000D03*
%TD*%
D15*
%TO.C,RS15*%
X75949999Y113825000D03*
X75949999Y112175000D03*
%TD*%
%TO.C,RP10*%
X42400000Y130625000D03*
X42400000Y128975000D03*
%TD*%
D18*
%TO.C,C21*%
X182600000Y63625000D03*
X182600000Y65175000D03*
%TD*%
D11*
%TO.C,RA26*%
X137000000Y74875000D03*
X137000000Y76525000D03*
%TD*%
D10*
%TO.C,LED21*%
X121000000Y80750000D03*
X121000000Y78650000D03*
%TD*%
D15*
%TO.C,RP21*%
X75000000Y130625000D03*
X75000000Y128975000D03*
%TD*%
D33*
%TO.C,LED62*%
X285050000Y186000000D03*
X282950000Y186000000D03*
%TD*%
D10*
%TO.C,LED32*%
X149000000Y80750000D03*
X149000000Y78650000D03*
%TD*%
%TO.C,LED4*%
X9000000Y80750000D03*
X9000000Y78650000D03*
%TD*%
D12*
%TO.C,D52*%
X247750000Y53700000D03*
X249650000Y53700000D03*
X248700000Y55900000D03*
%TD*%
D10*
%TO.C,LED60*%
X289000000Y80750000D03*
X289000000Y78650000D03*
%TD*%
%TO.C,LED13*%
X81000000Y80750000D03*
X81000000Y78650000D03*
%TD*%
D18*
%TO.C,C7*%
X130000000Y86025000D03*
X130000000Y87575000D03*
%TD*%
D15*
%TO.C,RS16*%
X40150000Y113825000D03*
X40150000Y112175000D03*
%TD*%
D13*
%TO.C,R44*%
X185175000Y182000000D03*
X186825000Y182000000D03*
%TD*%
D15*
%TO.C,RP16*%
X40800000Y130625000D03*
X40800000Y128975000D03*
%TD*%
D10*
%TO.C,LED35*%
X173000000Y80750000D03*
X173000000Y78650000D03*
%TD*%
D15*
%TO.C,RS12*%
X79149999Y113825000D03*
X79149999Y112175000D03*
%TD*%
D11*
%TO.C,R35*%
X98000000Y145175000D03*
X98000000Y146825000D03*
%TD*%
%TO.C,RA9*%
X61000000Y74875000D03*
X61000000Y76525000D03*
%TD*%
D15*
%TO.C,RS5*%
X52950000Y113825000D03*
X52950000Y112175000D03*
%TD*%
%TO.C,RP14*%
X78200000Y130625000D03*
X78200000Y128975000D03*
%TD*%
D11*
%TO.C,RA54*%
X277000000Y74875000D03*
X277000000Y76525000D03*
%TD*%
D10*
%TO.C,LED48*%
X229000000Y80750000D03*
X229000000Y78650000D03*
%TD*%
D16*
%TO.C,U16*%
X27930000Y91870000D03*
X27280000Y91870000D03*
X26630000Y91870000D03*
X25980000Y91870000D03*
X25320000Y91870000D03*
X24670000Y91870000D03*
X24020000Y91870000D03*
X23370000Y91870000D03*
X22720000Y91870000D03*
X22070000Y91870000D03*
X22070000Y86130000D03*
X22720000Y86130000D03*
X23370000Y86130000D03*
X24020000Y86130000D03*
X24670000Y86130000D03*
X25320000Y86130000D03*
X25980000Y86130000D03*
X26630000Y86130000D03*
X27280000Y86130000D03*
X27930000Y86130000D03*
%TD*%
D11*
%TO.C,RA39*%
X193000000Y74875000D03*
X193000000Y76525000D03*
%TD*%
D13*
%TO.C,R4*%
X291175000Y179000000D03*
X292825000Y179000000D03*
%TD*%
D38*
%TO.C,U28*%
X110640000Y178750000D03*
X110640000Y178250000D03*
X110640000Y177750000D03*
X110640000Y177250000D03*
D39*
X111110000Y176600000D03*
D40*
X112410000Y177150000D03*
D39*
X112910000Y176600000D03*
D41*
X112990000Y178650000D03*
D42*
X113360000Y178750000D03*
X113360000Y178250000D03*
X113360000Y177750000D03*
D41*
X111830000Y178650000D03*
D39*
X111110000Y179400000D03*
%TD*%
D22*
%TO.C,C42*%
X117600000Y179025000D03*
X117600000Y181975000D03*
%TD*%
D15*
%TO.C,RP22*%
X37600000Y130625000D03*
X37600000Y128975000D03*
%TD*%
D18*
%TO.C,C17*%
X102600000Y63625000D03*
X102600000Y65175000D03*
%TD*%
D10*
%TO.C,LED10*%
X57000000Y80750000D03*
X57000000Y78650000D03*
%TD*%
D11*
%TO.C,RA40*%
X189000000Y74875000D03*
X189000000Y76525000D03*
%TD*%
D30*
%TO.C,C58*%
X106725000Y146500000D03*
X108275000Y146500000D03*
%TD*%
D10*
%TO.C,LED51*%
X253000000Y80750000D03*
X253000000Y78650000D03*
%TD*%
D15*
%TO.C,RP2*%
X50400000Y130625000D03*
X50400000Y128975000D03*
%TD*%
%TO.C,RS18*%
X33750000Y113825000D03*
X33750000Y112175000D03*
%TD*%
D10*
%TO.C,LED16*%
X69000000Y80750000D03*
X69000000Y78650000D03*
%TD*%
%TO.C,LED12*%
X49000000Y80750000D03*
X49000000Y78650000D03*
%TD*%
%TO.C,LED53*%
X281000000Y80750000D03*
X281000000Y78650000D03*
%TD*%
D11*
%TO.C,RA49*%
X261000000Y74875000D03*
X261000000Y76525000D03*
%TD*%
D13*
%TO.C,R32*%
X99175000Y183000000D03*
X100825000Y183000000D03*
%TD*%
D11*
%TO.C,RA12*%
X49000000Y74875000D03*
X49000000Y76525000D03*
%TD*%
D12*
%TO.C,D60*%
X287750000Y53700000D03*
X289650000Y53700000D03*
X288700000Y55900000D03*
%TD*%
%TO.C,D37*%
X200350000Y53700000D03*
X202250000Y53700000D03*
X201300000Y55900000D03*
%TD*%
D11*
%TO.C,RA42*%
X217000000Y74875000D03*
X217000000Y76525000D03*
%TD*%
D22*
%TO.C,C52*%
X117600000Y150025000D03*
X117600000Y152975000D03*
%TD*%
D11*
%TO.C,R34*%
X96000000Y145175000D03*
X96000000Y146825000D03*
%TD*%
D15*
%TO.C,RP3*%
X45600000Y130625000D03*
X45600000Y128975000D03*
%TD*%
D18*
%TO.C,C11*%
X273000000Y86025000D03*
X273000000Y87575000D03*
%TD*%
D12*
%TO.C,D2*%
X16150000Y53700000D03*
X18050000Y53700000D03*
X17100000Y55900000D03*
%TD*%
%TO.C,D43*%
X211950000Y53700000D03*
X213850000Y53700000D03*
X212900000Y55900000D03*
%TD*%
%TO.C,D41*%
X220350000Y53700000D03*
X222250000Y53700000D03*
X221300000Y55900000D03*
%TD*%
%TO.C,D6*%
X36150000Y53700000D03*
X38050000Y53700000D03*
X37100000Y55900000D03*
%TD*%
D15*
%TO.C,RS13*%
X38550000Y113825000D03*
X38550000Y112175000D03*
%TD*%
D12*
%TO.C,D40*%
X187750000Y53700000D03*
X189650000Y53700000D03*
X188700000Y55900000D03*
%TD*%
D14*
%TO.C,U8*%
X159450000Y68740000D03*
X158170000Y68740000D03*
X156900000Y68740000D03*
X155630000Y68740000D03*
X154370000Y68740000D03*
X153100000Y68740000D03*
X151830000Y68740000D03*
X150550000Y68740000D03*
X150550000Y63260000D03*
X151830000Y63260000D03*
X153100000Y63260000D03*
X154370000Y63260000D03*
X155630000Y63260000D03*
X156900000Y63260000D03*
X158170000Y63260000D03*
X159450000Y63260000D03*
%TD*%
%TO.C,U14*%
X279450000Y68740000D03*
X278170000Y68740000D03*
X276900000Y68740000D03*
X275630000Y68740000D03*
X274370000Y68740000D03*
X273100000Y68740000D03*
X271830000Y68740000D03*
X270550000Y68740000D03*
X270550000Y63260000D03*
X271830000Y63260000D03*
X273100000Y63260000D03*
X274370000Y63260000D03*
X275630000Y63260000D03*
X276900000Y63260000D03*
X278170000Y63260000D03*
X279450000Y63260000D03*
%TD*%
D15*
%TO.C,RP13*%
X39200000Y130625000D03*
X39200000Y128975000D03*
%TD*%
D12*
%TO.C,D38*%
X196150000Y53700000D03*
X198050000Y53700000D03*
X197100000Y55900000D03*
%TD*%
D10*
%TO.C,LED9*%
X61000000Y80750000D03*
X61000000Y78650000D03*
%TD*%
D11*
%TO.C,RA37*%
X201000000Y74875000D03*
X201000000Y76525000D03*
%TD*%
D18*
%TO.C,C2*%
X50800000Y122825000D03*
X50800000Y124375000D03*
%TD*%
D11*
%TO.C,RA58*%
X297000000Y74875000D03*
X297000000Y76525000D03*
%TD*%
%TO.C,RA21*%
X121000000Y74875000D03*
X121000000Y76525000D03*
%TD*%
D43*
%TO.C,J18*%
X102500000Y199010000D03*
X100480000Y199010000D03*
D44*
X99250000Y199010000D03*
D43*
X101500000Y199010000D03*
X103520000Y199010000D03*
D44*
X104750000Y199010000D03*
%TD*%
D12*
%TO.C,D44*%
X207750000Y53700000D03*
X209650000Y53700000D03*
X208700000Y55900000D03*
%TD*%
D11*
%TO.C,RA8*%
X29000000Y74875000D03*
X29000000Y76525000D03*
%TD*%
D18*
%TO.C,C15*%
X62600000Y63625000D03*
X62600000Y65175000D03*
%TD*%
D13*
%TO.C,R23*%
X106675000Y152000000D03*
X108325000Y152000000D03*
%TD*%
D16*
%TO.C,U17*%
X70930000Y91870000D03*
X70280000Y91870000D03*
X69630000Y91870000D03*
X68980000Y91870000D03*
X68320000Y91870000D03*
X67670000Y91870000D03*
X67020000Y91870000D03*
X66370000Y91870000D03*
X65720000Y91870000D03*
X65070000Y91870000D03*
X65070000Y86130000D03*
X65720000Y86130000D03*
X66370000Y86130000D03*
X67020000Y86130000D03*
X67670000Y86130000D03*
X68320000Y86130000D03*
X68980000Y86130000D03*
X69630000Y86130000D03*
X70280000Y86130000D03*
X70930000Y86130000D03*
%TD*%
D20*
%TO.C,C47*%
X125600000Y163675000D03*
X125600000Y160725000D03*
%TD*%
D11*
%TO.C,RA13*%
X81000000Y74875000D03*
X81000000Y76525000D03*
%TD*%
%TO.C,RA27*%
X133000000Y74875000D03*
X133000000Y76525000D03*
%TD*%
D15*
%TO.C,RS3*%
X44950000Y113825000D03*
X44950000Y112175000D03*
%TD*%
D13*
%TO.C,R36*%
X99175000Y131500000D03*
X100825000Y131500000D03*
%TD*%
D18*
%TO.C,C12*%
X302000000Y86025000D03*
X302000000Y87575000D03*
%TD*%
D10*
%TO.C,LED58*%
X297000000Y80750000D03*
X297000000Y78650000D03*
%TD*%
%TO.C,LED23*%
X113000000Y80750000D03*
X113000000Y78650000D03*
%TD*%
D45*
%TO.C,Q1*%
X256400000Y194900000D03*
X256400000Y193630000D03*
X256400000Y192370000D03*
X256400000Y191100000D03*
X261600000Y191100000D03*
X261600000Y192370000D03*
X261600000Y193630000D03*
X261600000Y194900000D03*
%TD*%
D15*
%TO.C,RS6*%
X57750000Y113825000D03*
X57750000Y112175000D03*
%TD*%
D14*
%TO.C,U7*%
X139450000Y68740000D03*
X138170000Y68740000D03*
X136900000Y68740000D03*
X135630000Y68740000D03*
X134370000Y68740000D03*
X133100000Y68740000D03*
X131830000Y68740000D03*
X130550000Y68740000D03*
X130550000Y63260000D03*
X131830000Y63260000D03*
X133100000Y63260000D03*
X134370000Y63260000D03*
X135630000Y63260000D03*
X136900000Y63260000D03*
X138170000Y63260000D03*
X139450000Y63260000D03*
%TD*%
D15*
%TO.C,RP19*%
X73400000Y130625000D03*
X73400000Y128975000D03*
%TD*%
D46*
%TO.C,D62*%
X248310000Y180000000D03*
X255690000Y180000000D03*
%TD*%
D18*
%TO.C,C25*%
X262600000Y63625000D03*
X262600000Y65175000D03*
%TD*%
D10*
%TO.C,LED25*%
X141000000Y80750000D03*
X141000000Y78650000D03*
%TD*%
D12*
%TO.C,D26*%
X136150000Y53700000D03*
X138050000Y53700000D03*
X137100000Y55900000D03*
%TD*%
D11*
%TO.C,RA11*%
X53000000Y74875000D03*
X53000000Y76525000D03*
%TD*%
D15*
%TO.C,RP5*%
X53600000Y130625000D03*
X53600000Y128975000D03*
%TD*%
D10*
%TO.C,LED30*%
X157000000Y80750000D03*
X157000000Y78650000D03*
%TD*%
D16*
%TO.C,U27*%
X81930000Y124870000D03*
X81280000Y124870000D03*
X80630000Y124870000D03*
X79980000Y124870000D03*
X79320000Y124870000D03*
X78670000Y124870000D03*
X78020000Y124870000D03*
X77370000Y124870000D03*
X76720000Y124870000D03*
X76070000Y124870000D03*
X76070000Y119130000D03*
X76720000Y119130000D03*
X77370000Y119130000D03*
X78020000Y119130000D03*
X78670000Y119130000D03*
X79320000Y119130000D03*
X79980000Y119130000D03*
X80630000Y119130000D03*
X81280000Y119130000D03*
X81930000Y119130000D03*
%TD*%
D10*
%TO.C,LED43*%
X213000000Y80750000D03*
X213000000Y78650000D03*
%TD*%
D20*
%TO.C,C46*%
X122600000Y163675000D03*
X122600000Y160725000D03*
%TD*%
D18*
%TO.C,C60*%
X104800000Y137225000D03*
X104800000Y138775000D03*
%TD*%
M02*
